<svg width="88" height="67" viewBox="0 0 88 67" fill="none" xmlns="http://www.w3.org/2000/svg">
<path d="M10.03 18.481L0.900024 42.2905H7.96997L13.58 27.7808L10.03 18.481ZM16.55 0.780762L13 10.1704L16.54 19.4507H16.55L17.03 20.731L18.41 24.3403V24.3706L25.1899 42.2808H31.75C31.75 42.2808 40.33 42.2707 46.97 37.4907C45.55 35.6707 44.39 33.66 43.49 31.52C40.97 33.51 37.89 34.4506 35.52 34.9106C35.14 34.9906 34.76 35.0501 34.37 35.1001C33.94 35.1601 33.55 35.2007 33.21 35.2407C33.07 35.2507 32.93 35.2708 32.79 35.2808C32.14 35.3308 31.74 35.3306 31.74 35.3306V35.3101C31.66 35.3201 31.58 35.3208 31.5 35.3208C30.9 35.3108 30.2899 35.2902 29.6899 35.2202L16.55 0.780762Z" fill="white"/>
<path d="M67.63 0.780762C63.33 0.780762 59.36 2.25072 56.13 4.74072C57.55 6.54072 58.73 8.52061 59.63 10.6206C61.84 8.80061 64.62 7.71045 67.64 7.71045C74.88 7.71045 80.71 13.8708 80.71 21.5308C80.71 29.1108 74.88 35.3403 67.64 35.3403C67.43 35.3403 67.22 35.3308 67 35.3208C66.93 35.3208 66.87 35.3201 66.8 35.3101C66.66 35.3001 66.52 35.29 66.38 35.27C66.29 35.26 66.2 35.2507 66.11 35.2407C66 35.2307 65.88 35.2107 65.77 35.2007C65.67 35.1907 65.57 35.1709 65.47 35.1509C65.37 35.1409 65.26 35.1103 65.15 35.0903C65.05 35.0703 64.96 35.05 64.86 35.02C64.76 35 64.6701 34.9707 64.5601 34.9507C64.4601 34.9207 64.34 34.8908 64.24 34.8608C64.16 34.8408 64.08 34.8105 64 34.7905C63.88 34.7505 63.76 34.7104 63.64 34.6704C63.58 34.6504 63.5099 34.6201 63.4399 34.6001C63.3099 34.5501 63.1801 34.5104 63.0601 34.4604C63.0201 34.4404 62.9799 34.4306 62.95 34.4106C62.09 34.0506 61.27 33.6106 60.51 33.0806C60.5 33.0806 60.5 33.0806 60.5 33.0806C60.34 32.9706 60.19 32.8607 60.03 32.7407C59.88 32.6307 59.73 32.5101 59.59 32.3901C59.58 32.3901 59.58 32.3804 59.58 32.3804C59.43 32.2604 59.29 32.1403 59.15 32.0103C56.41 29.5203 54.6499 25.8703 54.5699 21.8003C54.5799 21.6003 54.5699 21.4102 54.5699 21.2202C54.5699 21.2102 54.5699 21.2009 54.5699 21.1909C54.3299 0.830917 31.74 0.820801 31.74 0.820801H25.1801V6.0708L31.74 23.2808V7.70068C31.74 7.70068 47.8001 7.70018 48.0601 21.1802C48.0501 21.2902 48.05 21.4003 48.05 21.5103C48.05 28.0703 50.9301 33.9207 55.4301 37.7007C55.6401 37.8707 55.8499 38.0504 56.0699 38.2104C56.0699 38.2104 56.07 38.2202 56.08 38.2202C56.51 38.5502 56.95 38.8706 57.41 39.1606C57.64 39.3106 57.86 39.4406 58.1 39.5806C58.11 39.5906 58.11 39.5903 58.12 39.5903C58.35 39.7303 58.5899 39.8607 58.8199 39.9907C59.2899 40.2407 59.77 40.4702 60.26 40.6802C60.28 40.6902 60.31 40.7005 60.33 40.7104C60.57 40.8104 60.8 40.9107 61.05 40.9907C61.06 41.0007 61.08 41.0003 61.11 41.0103C61.35 41.1003 61.6 41.19 61.85 41.27C62.09 41.35 62.34 41.4305 62.59 41.5005C62.62 41.5105 62.6501 41.51 62.6801 41.52C62.9101 41.58 63.15 41.6507 63.39 41.7007C63.43 41.7107 63.48 41.721 63.52 41.731C63.76 41.781 64 41.8304 64.25 41.8804C64.27 41.8904 64.2901 41.8901 64.3101 41.8901C64.5501 41.9301 64.8 41.9703 65.05 42.0103C65.07 42.0103 65.09 42.02 65.11 42.02C65.36 42.05 65.6 42.0801 65.85 42.1001C65.9 42.1101 65.95 42.1108 66 42.1108C66.24 42.1308 66.48 42.1504 66.73 42.1704C66.78 42.1704 66.83 42.1704 66.88 42.1704C67.14 42.1804 67.39 42.1909 67.65 42.1909C78.54 42.1909 87.28 32.9405 87.28 21.5005C87.28 21.3905 87.27 21.2804 87.27 21.1704C87.1 9.91041 78.42 0.780762 67.63 0.780762Z" fill="white"/>
<path d="M74.12 21.4907C74.12 25.0607 71.23 27.9507 67.66 27.9507C64.1 27.9507 61.21 25.0607 61.21 21.4907C61.21 17.9307 64.1 15.0405 67.66 15.0405C71.23 15.0405 74.12 17.9307 74.12 21.4907Z" fill="white"/>
<path d="M8.79963 61.7241V51.0665H10.3816V52.7317H10.5204C10.7424 52.1628 11.1009 51.721 11.5959 51.4065C12.0908 51.0873 12.6852 50.9277 13.3791 50.9277C14.0822 50.9277 14.6673 51.0873 15.1345 51.4065C15.6064 51.721 15.9741 52.1628 16.2378 52.7317H16.3488C16.6217 52.1813 17.0311 51.7442 17.5769 51.4204C18.1228 51.0919 18.7773 50.9277 19.5405 50.9277C20.4934 50.9277 21.2729 51.2261 21.8788 51.8228C22.4848 52.4149 22.7878 53.3377 22.7878 54.5913V61.7241H21.1503V54.5913C21.1503 53.8049 20.9352 53.2429 20.505 52.9052C20.0748 52.5675 19.5683 52.3987 18.9854 52.3987C18.2361 52.3987 17.6556 52.6253 17.2439 53.0787C16.8322 53.5274 16.6263 54.0963 16.6263 54.7856V61.7241H14.9611V54.4248C14.9611 53.8188 14.7645 53.3308 14.3713 52.9607C13.9781 52.586 13.4716 52.3987 12.8518 52.3987C12.4262 52.3987 12.0284 52.512 11.6583 52.7387C11.2929 52.9653 10.9968 53.2799 10.7702 53.6823C10.5482 54.0801 10.4371 54.5404 10.4371 55.0631V61.7241H8.79963ZM30.2502 61.9462C29.2233 61.9462 28.3375 61.7195 27.5927 61.2662C26.8526 60.8082 26.2813 60.1699 25.8789 59.3511C25.4811 58.5278 25.2822 57.5702 25.2822 56.4786C25.2822 55.3869 25.4811 54.4248 25.8789 53.5921C26.2813 52.7549 26.8411 52.1026 27.558 51.6354C28.2797 51.1636 29.1215 50.9277 30.0837 50.9277C30.6388 50.9277 31.1869 51.0202 31.7281 51.2053C32.2693 51.3903 32.762 51.691 33.206 52.1073C33.6501 52.519 34.004 53.0648 34.2676 53.7448C34.5313 54.4248 34.6631 55.262 34.6631 56.2565V56.9504H26.4479V55.5349H32.9979C32.9979 54.9336 32.8776 54.397 32.6371 53.9252C32.4012 53.4534 32.0635 53.081 31.624 52.8081C31.1892 52.5351 30.6758 52.3987 30.0837 52.3987C29.4315 52.3987 28.8671 52.5606 28.3907 52.8844C27.9188 53.2036 27.5557 53.6199 27.3013 54.1333C27.0469 54.6468 26.9197 55.1972 26.9197 55.7847V56.7284C26.9197 57.5332 27.0585 58.2155 27.336 58.7752C27.6182 59.3303 28.0091 59.7536 28.5086 60.045C29.0082 60.3318 29.5887 60.4752 30.2502 60.4752C30.6804 60.4752 31.069 60.415 31.4159 60.2948C31.7674 60.1699 32.0704 59.9849 32.3248 59.7397C32.5793 59.4899 32.7758 59.18 32.9146 58.8099L34.4966 59.254C34.3301 59.7906 34.0502 60.2624 33.657 60.6695C33.2639 61.0719 32.7782 61.3864 32.1999 61.6131C31.6217 61.8351 30.9718 61.9462 30.2502 61.9462ZM37.1541 61.7241V51.0665H38.7361V52.7317H38.8748C39.0969 52.1628 39.4554 51.721 39.9503 51.4065C40.4453 51.0873 41.0397 50.9277 41.7335 50.9277C42.4366 50.9277 43.0218 51.0873 43.489 51.4065C43.9608 51.721 44.3286 52.1628 44.5922 52.7317H44.7032C44.9762 52.1813 45.3855 51.7442 45.9314 51.4204C46.4772 51.0919 47.1317 50.9277 47.895 50.9277C48.8479 50.9277 49.6273 51.2261 50.2333 51.8228C50.8392 52.4149 51.1422 53.3377 51.1422 54.5913V61.7241H49.5047V54.5913C49.5047 53.8049 49.2896 53.2429 48.8594 52.9052C48.4292 52.5675 47.9227 52.3987 47.3399 52.3987C46.5905 52.3987 46.01 52.6253 45.5983 53.0787C45.1866 53.5274 44.9808 54.0963 44.9808 54.7856V61.7241H43.3155V54.4248C43.3155 53.8188 43.1189 53.3308 42.7257 52.9607C42.3326 52.586 41.826 52.3987 41.2062 52.3987C40.7806 52.3987 40.3828 52.512 40.0128 52.7387C39.6473 52.9653 39.3513 53.2799 39.1246 53.6823C38.9026 54.0801 38.7916 54.5404 38.7916 55.0631V61.7241H37.1541ZM54.3583 61.7241V47.5139H55.9958V52.7595H56.1345C56.2548 52.5745 56.4213 52.3386 56.6341 52.0518C56.8515 51.7603 57.1614 51.5013 57.5639 51.2746C57.9709 51.0434 58.5214 50.9277 59.2152 50.9277C60.1126 50.9277 60.9036 51.1521 61.5882 51.6008C62.2728 52.0494 62.8071 52.6855 63.191 53.5089C63.575 54.3322 63.7669 55.3036 63.7669 56.4231C63.7669 57.5517 63.575 58.5301 63.191 59.3581C62.8071 60.1814 62.2752 60.8198 61.5952 61.2731C60.9152 61.7218 60.1311 61.9462 59.243 61.9462C58.5584 61.9462 58.0103 61.8328 57.5986 61.6062C57.1869 61.3749 56.87 61.1135 56.648 60.8221C56.4259 60.5261 56.2548 60.2809 56.1345 60.0866H55.9402V61.7241H54.3583ZM55.968 56.3953C55.968 57.2002 56.086 57.9102 56.3219 58.5254C56.5578 59.136 56.9024 59.6148 57.3557 59.9617C57.809 60.304 58.3641 60.4752 59.021 60.4752C59.7056 60.4752 60.2768 60.2948 60.7348 59.934C61.1974 59.5685 61.5443 59.0782 61.7756 58.463C62.0115 57.8432 62.1294 57.1539 62.1294 56.3953C62.1294 55.6459 62.0138 54.9706 61.7825 54.3692C61.5559 53.7633 61.2112 53.2845 60.7487 52.933C60.2907 52.5768 59.7148 52.3987 59.021 52.3987C58.3549 52.3987 57.7952 52.5675 57.3418 52.9052C56.8885 53.2383 56.5462 53.7055 56.3149 54.3068C56.0836 54.9035 55.968 55.5997 55.968 56.3953ZM70.7402 61.9462C69.7133 61.9462 68.8275 61.7195 68.0827 61.2662C67.3426 60.8082 66.7713 60.1699 66.3689 59.3511C65.9711 58.5278 65.7722 57.5702 65.7722 56.4786C65.7722 55.3869 65.9711 54.4248 66.3689 53.5921C66.7713 52.7549 67.3311 52.1026 68.048 51.6354C68.7697 51.1636 69.6115 50.9277 70.5737 50.9277C71.1288 50.9277 71.6769 51.0202 72.2181 51.2053C72.7593 51.3903 73.252 51.691 73.696 52.1073C74.1401 52.519 74.494 53.0648 74.7576 53.7448C75.0213 54.4248 75.1531 55.262 75.1531 56.2565V56.9504H66.9379V55.5349H73.4879C73.4879 54.9336 73.3676 54.397 73.1271 53.9252C72.8912 53.4534 72.5535 53.081 72.114 52.8081C71.6792 52.5351 71.1658 52.3987 70.5737 52.3987C69.9215 52.3987 69.3571 52.5606 68.8807 52.8844C68.4088 53.2036 68.0457 53.6199 67.7913 54.1333C67.5369 54.6468 67.4097 55.1972 67.4097 55.7847V56.7284C67.4097 57.5332 67.5485 58.2155 67.826 58.7752C68.1082 59.3303 68.499 59.7536 68.9986 60.045C69.4982 60.3318 70.0787 60.4752 70.7402 60.4752C71.1704 60.4752 71.559 60.415 71.9059 60.2948C72.2574 60.1699 72.5604 59.9849 72.8148 59.7397C73.0692 59.4899 73.2658 59.18 73.4046 58.8099L74.9866 59.254C74.8201 59.7906 74.5402 60.2624 74.147 60.6695C73.7539 61.0719 73.2682 61.3864 72.6899 61.6131C72.1117 61.8351 71.4618 61.9462 70.7402 61.9462ZM77.6441 61.7241V51.0665H79.2261V52.6762H79.3371C79.5314 52.1489 79.8829 51.721 80.3917 51.3926C80.9006 51.0642 81.4742 50.9 82.1125 50.9C82.2328 50.9 82.3831 50.9023 82.5635 50.9069C82.7439 50.9115 82.8804 50.9185 82.9729 50.9277V52.593C82.9174 52.5791 82.7902 52.5583 82.5913 52.5305C82.397 52.4981 82.1912 52.482 81.9737 52.482C81.4557 52.482 80.9931 52.5907 80.586 52.8081C80.1836 53.0208 79.8644 53.3169 79.6285 53.6962C79.3972 54.0709 79.2816 54.4988 79.2816 54.9798V61.7241H77.6441Z" fill="white"/>
</svg>
