<svg width="65" height="74" viewBox="0 0 65 74" fill="none" xmlns="http://www.w3.org/2000/svg">
<path d="M32.21 17.9302C36.27 17.9302 39.83 16.3402 42.89 13.1702C45.95 10.0002 47.48 6.31035 47.48 2.11035C47.48 1.65035 47.44 0.990137 47.37 0.140137C46.84 0.210137 46.43 0.270312 46.17 0.320312C42.43 0.850312 39.13 2.69031 36.29 5.82031C33.45 8.95031 32.02 12.3101 32.02 15.8801C32.02 16.2901 32.08 16.9702 32.2 17.9202L32.21 17.9302Z" fill="white"/>
<path d="M46.7599 73.6504C49.6499 73.6504 52.8499 71.6704 56.3499 67.7104C59.8499 63.7504 62.5199 59.1005 64.3699 53.7505C57.4899 50.2005 54.0499 45.1105 54.0499 38.4805C54.0499 32.9405 56.8299 28.2005 62.3999 24.2705C58.5299 19.4305 53.4298 17.0205 47.0798 17.0205C44.4098 17.0205 41.9599 17.4205 39.7499 18.2205L38.3599 18.7305L36.4999 19.4604C35.2799 19.9204 34.1799 20.1504 33.1799 20.1504C32.3999 20.1504 31.3799 19.8806 30.1199 19.3506L28.6998 18.7705L27.3499 18.2205C25.3799 17.3905 23.2699 16.9805 20.9999 16.9805C14.9499 16.9805 10.0799 19.0206 6.40991 23.1006C2.73991 27.1806 0.899902 32.5605 0.899902 39.2505C0.899902 48.6505 3.83985 57.3405 9.71985 65.3105C13.7998 70.8705 17.5399 73.6604 20.9199 73.6604C22.3499 73.6604 23.7798 73.3806 25.1898 72.8206L26.9799 72.0906L28.3999 71.5806C30.3899 70.8806 32.2299 70.5205 33.9099 70.5205C35.6799 70.5205 37.7299 70.9706 40.0399 71.8706L41.1699 72.3105C43.5299 73.2105 45.3899 73.6604 46.7499 73.6604L46.7599 73.6504Z" fill="white"/>
</svg>
