<svg width="110" height="110" viewBox="0 0 110 110" fill="none" xmlns="http://www.w3.org/2000/svg">
<path d="M107.85 1.64014H1.63V107.86H107.85V1.64014Z" fill="#232323"/>
<path d="M109.48 109.48H0V0H109.48V109.48ZM3.26001 106.22H106.21V3.27002H3.26001V106.22Z" fill="#232323"/>
<path d="M45.78 57.8502C44.44 57.8502 43.1 57.4301 41.95 56.5701L23.39 42.5802C20.58 40.4602 20.02 36.4602 22.14 33.6502C24.26 30.8402 28.26 30.2802 31.07 32.4002L49.63 46.3902C52.44 48.5102 53 52.5101 50.88 55.3201C49.62 56.9701 47.71 57.8502 45.78 57.8502Z" fill="#00E2ED"/>
<path d="M27.17 71.9598C25.22 71.9598 23.3 71.07 22.05 69.39C19.95 66.56 20.54 62.5699 23.37 60.4699L42.0401 46.6C44.8701 44.5 48.86 45.09 50.96 47.92C53.06 50.75 52.47 54.74 49.64 56.84L30.9701 70.7098C29.8201 71.5498 28.49 71.9598 27.17 71.9598Z" fill="#00E2ED"/>
<path d="M76.06 78.3801H50.98C47.46 78.3801 44.6 75.53 44.6 72C44.6 68.47 47.45 65.6201 50.98 65.6201H76.06C79.58 65.6201 82.44 68.47 82.44 72C82.44 75.53 79.58 78.3801 76.06 78.3801Z" fill="#00E2ED"/>
</svg>
