<svg width="48" height="54" viewBox="0 0 48 54" fill="none" xmlns="http://www.w3.org/2000/svg">
<path d="M39.5001 4.39014C35.9701 1.48014 31.1201 0.0297852 24.9401 0.0297852H9.55017V2.18018H24.6602C29.9102 2.18018 34.6701 3.26002 37.5701 5.77002C40.4701 8.28002 42.6702 12.0301 42.6702 16.6201C42.6702 21.2101 40.7601 24.3599 37.7401 26.8599C34.7201 29.3599 29.3401 30.4502 23.9501 30.4502H6.6001V32.6001H24.0901C30.5901 32.6001 35.6701 31.1901 39.3301 28.3701C42.9901 25.5501 44.8201 21.5702 44.8301 16.4502C44.8301 11.3102 43.0702 7.29014 39.5402 4.39014" fill="#1D1D1B"/>
<path d="M38.1902 7.50977C36.0002 5.83977 33.4702 4.5 26.3402 4.5H14.4702V6.6001C14.4702 6.6001 19.7802 6.5301 26.0802 6.6001C32.1602 6.6701 34.4002 7.34986 36.4402 8.85986C39.0602 10.7999 40.6902 13.1898 40.6902 16.5298C40.6902 19.8698 39.0403 22.0302 36.4103 23.9702C33.7203 25.9502 29.6003 25.9798 27.9303 26.0298H19.1202V28.1299C19.1202 28.1299 23.1902 28.1899 25.7102 28.1299C31.4802 27.9999 34.9102 27.66 38.1002 25.29C41.0902 23.07 42.6803 20.1402 42.6803 16.4302C42.6803 11.5302 40.2302 9.06979 38.2202 7.52979" fill="#1D1D1B"/>
<path d="M37.1403 10.2798C35.4903 9.24979 34.0502 8.56006 27.2302 8.56006H18.6902V9.93018H26.9902C33.0302 9.93018 35.3203 11.0102 36.0103 11.4302C37.3803 12.2602 39.1603 13.6101 39.1603 16.3701C39.1603 18.1301 38.1302 20.3502 36.5802 21.2202C35.1802 22.0102 32.6102 22.7202 28.0902 22.7202H0.220215V24.0898H28.1902C33.6402 24.0898 35.5103 23.4899 37.4303 22.4199C39.3503 21.3499 40.6403 19.1699 40.6403 16.3799C40.6403 13.2499 38.8902 11.37 37.1302 10.27" fill="#1D1D1B"/>
<path d="M42.5604 25.4902C39.0304 22.5802 34.1804 21.1299 28.0004 21.1299H17.7003V23.2798H27.7103C32.9603 23.2798 37.7204 24.3701 40.6204 26.8701C43.5204 29.3701 45.7303 33.1102 45.7303 37.7202C45.7303 42.3302 43.8304 45.46 40.8104 47.96C37.7904 50.46 32.4104 51.5498 27.0104 51.5498H9.67041V53.7002H27.1404C33.6404 53.7002 38.7204 52.2902 42.3704 49.4702C46.0204 46.6502 47.8604 42.6801 47.8704 37.5601C47.8704 32.4201 46.1103 28.4 42.5803 25.5" fill="#1D1D1B"/>
<path d="M41.2605 28.6001C39.0705 26.9401 36.5405 25.5898 29.4105 25.5898H13.2705V27.6899C13.2705 27.6899 22.8505 27.6199 29.1405 27.6899C35.2205 27.7599 37.4505 28.44 39.5005 29.96C42.1205 31.9 43.7505 34.2799 43.7505 37.6299C43.7505 40.9799 42.1005 43.1301 39.4705 45.0801C36.7805 47.0601 32.6605 47.0901 30.9805 47.1401H22.1705V49.2402C22.1705 49.2402 26.2405 49.2902 28.7605 49.2402C34.5305 49.1102 37.9605 48.7599 41.1505 46.3999C44.1405 44.1699 45.7205 41.2498 45.7205 37.5298C45.7205 32.6398 43.2705 30.1699 41.2605 28.6299" fill="#1D1D1B"/>
<path d="M16.7202 35.7202H31.8402V34.5498H16.7202V35.7202Z" fill="#1D1D1B"/>
<path d="M22.96 39.8198H31.75V38.8101H22.96V39.8198Z" fill="#1D1D1B"/>
<path d="M9.66016 35.7202H14.1401V34.5498H9.66016V35.7202Z" fill="#1D1D1B"/>
<path d="M6.86035 39.8999H20.4703V38.73H6.86035V39.8999Z" fill="#1D1D1B"/>
<path d="M10.2202 9.83984H15.5203V8.87012H10.2202V9.83984Z" fill="#1D1D1B"/>
<path d="M6.52051 17.6802H18.6705V16.5498H6.52051V17.6802Z" fill="#1D1D1B"/>
<path d="M6.86035 49.0698H19.6704V47.6699H6.86035V49.0698Z" fill="#1D1D1B"/>
<path d="M3.67041 53.6201H6.87036V51.5898H3.67041V53.6201Z" fill="#1D1D1B"/>
<path d="M11.6704 14.25H31.7804V13.1201H11.6704V14.25Z" fill="#1D1D1B"/>
<path d="M21.7305 17.6802H31.4005V16.5498H21.7305V17.6802Z" fill="#1D1D1B"/>
<path d="M40.1904 31.5898C38.5404 30.5898 37.1005 29.9199 30.2805 29.9199H19.4105V31.27H30.0605C36.1005 31.27 38.3904 32.3002 39.0804 32.7202C40.4304 33.5202 42.2305 34.8302 42.2305 37.4902C42.2305 39.2102 41.2005 41.3299 39.6405 42.1699C38.2405 42.9299 35.6705 43.6201 31.1505 43.6201H3.27051V44.9502H31.2405C36.6905 44.9502 38.5705 44.3701 40.4905 43.3501C42.4105 42.3301 43.7004 40.2098 43.7004 37.5098C43.7004 34.4898 41.9604 32.6801 40.2004 31.6201" fill="#1D1D1B"/>
</svg>
