<svg width="787" height="787" viewBox="0 0 787 787" fill="none" xmlns="http://www.w3.org/2000/svg">
<path d="M0 419.061H331L29.1401 555.41L39.7002 578.79L336.98 444.51L106.15 675.33L124.29 693.471L358.73 459.04L236.51 767L260.35 776.46L380.57 473.55V786.8H406.23V473.42L526.53 776.55L550.37 767.08L428.15 459.13L662.5 693.471L680.64 675.33L451.69 446.38L746.17 579.4L756.73 556.021L453.52 419.061H786.79V393.4H450.12L756.73 254.9L746.17 231.521L454.5 363.271L680.64 137.13L662.5 118.98L428.37 353.12L550.59 45.1602L526.74 35.6904L406.23 339.36V0H380.57V339.23L260.14 35.7803L236.29 45.2402L358.51 353.2L124.29 118.98L106.15 137.13L334.17 365.141L39.7002 232.12L29.1401 255.51L334.4 393.4H0V419.061Z" fill="#1D1D1B"/>
</svg>
