<svg width="844" height="863" viewBox="0 0 844 863" fill="none" xmlns="http://www.w3.org/2000/svg">
<path fill-rule="evenodd" clip-rule="evenodd" d="M357.551 413C519.699 413.422 681.852 413.609 844 413.56C844 422.527 844 431.493 844 440.46C724.445 440.366 604.883 440.46 485.328 440.74C594.51 490.004 703.602 539.412 812.616 588.965C808.738 596.878 805.185 604.911 801.968 613.062C697.258 566.171 592.644 519.005 488.13 471.562C487.2 471.12 486.264 470.933 485.328 471.001C566.685 552.353 648.036 633.703 729.393 715.055C729.769 715.429 729.769 715.802 729.393 716.176C723.228 722.34 717.064 728.504 710.899 734.669C627.211 650.983 543.517 567.296 459.829 483.61C460.894 487.548 462.199 491.47 463.752 495.379C506.266 601.719 548.393 708.194 590.128 814.806C581.8 817.659 573.584 820.835 565.469 824.332C522.428 715.758 479.275 607.227 436.011 498.741C435.45 620.16 435.264 741.58 435.45 863C426.483 863 417.517 863 408.55 863C408.643 741.58 408.55 620.16 408.27 498.741C364.968 607.249 321.723 715.78 278.531 824.332C270.261 821.078 262.042 817.716 253.873 814.245C297.422 704.057 341.135 593.939 385.012 483.89C384.638 483.517 384.265 483.517 383.891 483.89C300.474 567.398 216.97 650.803 133.381 734.108C126.944 727.952 120.593 721.694 114.327 715.335C195.028 634.638 275.729 553.94 356.43 473.243C353.756 473.824 351.14 474.758 348.584 476.045C246.889 522.222 145.078 568.081 43.1527 613.623C39.8782 605.392 36.329 597.266 32.5047 589.245C142.227 539.897 251.884 490.396 361.474 440.74C240.983 440.46 120.491 440.366 0 440.46C0 431.493 0 422.527 0 413.56C119.277 413.747 238.461 413.56 357.551 413Z" fill="#00E2ED"/>
<path fill-rule="evenodd" clip-rule="evenodd" d="M357.551 450C519.699 449.578 681.852 449.391 844 449.44C844 440.473 844 431.507 844 422.54C724.445 422.634 604.883 422.54 485.328 422.26C594.51 372.996 703.602 323.588 812.616 274.035C808.738 266.122 805.185 258.089 801.968 249.938C697.258 296.829 592.644 343.995 488.13 391.438C487.2 391.88 486.264 392.067 485.328 391.999C566.685 310.647 648.036 229.297 729.393 147.945C729.769 147.571 729.769 147.198 729.393 146.824C723.228 140.66 717.064 134.496 710.899 128.331C627.211 212.017 543.517 295.704 459.829 379.39C460.894 375.452 462.199 371.53 463.752 367.621C506.266 261.281 548.393 154.806 590.128 48.1943C581.8 45.3407 573.584 42.165 565.469 38.6675C522.428 147.243 479.275 255.773 436.011 364.259C435.45 242.84 435.264 121.42 435.45 3.6702e-05C426.483 3.6702e-05 417.517 3.6702e-05 408.55 3.6702e-05C408.643 121.42 408.55 242.84 408.27 364.259C364.968 255.751 321.723 147.22 278.531 38.6675C270.261 41.9218 262.042 45.2841 253.873 48.7547C297.422 158.943 341.135 269.061 385.012 379.11C384.638 379.483 384.265 379.483 383.891 379.11C300.474 295.602 216.97 212.197 133.381 128.892C126.944 135.048 120.593 141.306 114.327 147.665C195.028 228.362 275.729 309.06 356.43 389.757C353.756 389.176 351.14 388.242 348.584 386.955C246.888 340.778 145.078 294.919 43.1527 249.377C39.8782 257.608 36.329 265.734 32.5046 273.755C142.227 323.103 251.884 372.604 361.474 422.26C240.983 422.54 120.491 422.634 0 422.54C0 431.507 0 440.473 0 449.44C119.277 449.253 238.461 449.44 357.551 450Z" fill="#00E2ED"/>
</svg>
