<svg width="844" height="450" viewBox="0 0 844 450" fill="none" xmlns="http://www.w3.org/2000/svg">
<path fill-rule="evenodd" clip-rule="evenodd" d="M357.551 6.10352e-05C519.699 0.422041 681.852 0.608654 844 0.560459C844 9.52683 844 18.4932 844 27.4596C724.445 27.366 604.883 27.4596 485.328 27.7398C594.51 77.0039 703.602 126.413 812.616 175.965C808.738 183.878 805.185 191.911 801.968 200.062C697.258 153.172 592.644 106.005 488.13 58.5617C487.2 58.1201 486.264 57.9329 485.328 58.0013C566.685 139.353 648.036 220.703 729.393 302.055C729.769 302.429 729.769 302.802 729.393 303.176C723.228 309.34 717.064 315.504 710.899 321.669C627.211 237.983 543.517 154.296 459.829 70.6103C460.894 74.5476 462.199 78.4704 463.752 82.3786C506.266 188.719 548.393 295.194 590.128 401.806C581.8 404.659 573.584 407.835 565.469 411.333C522.428 302.758 479.275 194.227 436.011 85.741C435.45 207.16 435.264 328.58 435.45 450C426.483 450 417.517 450 408.55 450C408.643 328.58 408.55 207.16 408.27 85.741C364.968 194.249 321.723 302.78 278.531 411.333C270.261 408.078 262.042 404.716 253.873 401.245C297.422 291.057 341.135 180.939 385.012 70.8905C384.638 70.5167 384.265 70.5167 383.891 70.8905C300.474 154.398 216.97 237.803 133.381 321.108C126.944 314.952 120.593 308.694 114.327 302.335C195.028 221.638 275.729 140.94 356.43 60.2429C353.756 60.824 351.14 61.7582 348.584 63.0449C246.889 109.222 145.078 155.081 43.1527 200.623C39.8782 192.392 36.329 184.266 32.5047 176.245C142.227 126.897 251.884 77.3956 361.474 27.7398C240.983 27.4596 120.491 27.366 0 27.4596C0 18.4932 0 9.52683 0 0.560459C119.277 0.747072 238.461 0.560459 357.551 6.10352e-05Z" fill="#00E2ED"/>
</svg>
