<svg width="110" height="110" viewBox="0 0 110 110" fill="none" xmlns="http://www.w3.org/2000/svg">
<path d="M107.85 1.62988H1.63V107.85H107.85V1.62988Z" fill="#232323"/>
<path d="M109.48 109.48H0V0H109.48V109.48ZM3.26001 106.22H106.21V3.27002H3.26001V106.22Z" fill="#232323"/>
<path d="M62.91 78.72H45.75C43.38 78.72 41.4601 76.7999 41.4601 74.4299V71.3198H67.2101V74.4299C67.2001 76.7999 65.28 78.72 62.91 78.72Z" fill="#00E2ED"/>
<path d="M63.52 89.5298H45.6801C43.6101 89.5298 41.9301 87.8498 41.9301 85.7798C41.9301 83.7098 43.6101 82.0298 45.6801 82.0298H63.52C65.59 82.0298 67.27 83.7098 67.27 85.7798C67.27 87.8498 65.59 89.5298 63.52 89.5298Z" fill="#00E2ED"/>
<path d="M75.5701 35.98C69.6201 25.12 59.73 23.86 55.13 23.72V23.7C54.91 23.7 54.6502 23.7 54.3702 23.7C54.0902 23.7 53.8301 23.7 53.6101 23.7V23.72C49.0101 23.87 39.1201 25.13 33.1701 35.98C26.7601 47.68 33.3401 57.69 38.8901 63.75C39.6701 64.6 40.3201 65.3799 40.6501 66.1699C41.6401 68.4999 41.4601 71.3198 41.4601 71.3198H67.2101C67.2101 71.3198 66.9201 67.4099 68.5801 65.3499C68.9701 64.8699 69.3401 64.3 69.8501 63.75C75.4001 57.68 81.9801 47.68 75.5701 35.98ZM54.8501 64.3398C54.7101 64.8298 54.0301 64.8298 53.8901 64.3398C52.18 58.3398 47.1801 54.8999 47.8101 46.4099C48.0101 43.7699 49.4901 42.31 51.0701 41.51C53.1301 40.46 55.6201 40.46 57.6701 41.51C59.2501 42.31 60.7301 43.7699 60.9301 46.4099C61.5601 54.9099 56.5601 58.3398 54.8501 64.3398Z" fill="white"/>
<path d="M109.48 109.48H0V0H109.48V109.48ZM3.26001 106.22H106.21V3.27002H3.26001V106.22Z" fill="#232323"/>
</svg>
