<svg width="61" height="56" viewBox="0 0 61 56" fill="none" xmlns="http://www.w3.org/2000/svg">
<path d="M28.5898 46.9399C28.1598 47.3699 27.6798 47.7701 27.1698 48.1201C26.1798 48.8701 25.1598 49.4998 24.0498 50.0898C21.8798 51.1898 19.5898 52.02 17.1798 52.5C16.5898 52.62 15.9998 52.7398 15.3998 52.8198L14.4898 52.9399L14.0598 52.98L13.6298 53.02L12.7198 53.1001L11.8098 53.1401C11.2198 53.1801 10.5898 53.1802 9.98981 53.2202C8.20981 53.2202 6.43979 53.14 4.65979 52.98C4.85979 52.7 5.04982 52.3898 5.24982 52.0698C5.79982 51.1998 6.31979 50.2501 6.78979 49.3101C7.65979 47.4201 8.32982 45.4402 8.87982 43.4702C9.38982 41.5402 10.0198 39.68 10.7298 37.79C11.4398 35.9 12.2698 34.0801 13.2198 32.3101C12.5498 33.0601 11.9598 33.8898 11.3998 34.7598C10.8498 35.5898 10.2998 36.4999 9.81982 37.3599C8.82982 39.1399 7.96979 41.0299 7.28979 42.9199C6.57979 44.7699 5.8298 46.6301 4.9198 48.3301C4.0098 50.0301 2.90983 51.6101 1.63983 53.1001L0.339844 54.6802L2.38983 54.96C4.91983 55.32 7.4798 55.5102 10.0498 55.4302C10.6798 55.3902 11.3498 55.3901 11.9798 55.3101L12.9298 55.23L13.8798 55.1099C14.5098 55.0299 15.1398 54.87 15.7698 54.79C16.3998 54.63 17.0298 54.5098 17.6598 54.3198C18.2898 54.1598 18.8798 53.93 19.5098 53.73C20.0998 53.49 20.7298 53.26 21.3298 52.98C22.5098 52.47 23.6598 51.7998 24.7198 51.0898C25.7798 50.3798 26.7698 49.5501 27.6798 48.6001C28.5498 47.6501 29.3398 46.67 29.8898 45.52C29.4598 46.07 29.0198 46.5499 28.5498 46.9399M42.7098 12.8799C43.4198 12.1699 44.3698 11.7798 45.3898 11.7798C46.4098 11.7798 47.3198 12.1399 48.0698 12.8799C49.5298 14.3799 49.5298 16.75 48.0698 18.25C46.6098 19.71 44.1998 19.71 42.6998 18.25C41.9898 17.54 41.5998 16.5898 41.5998 15.5698C41.5998 14.5498 41.9898 13.6001 42.6998 12.8901M45.3998 21.6401C46.9798 21.6401 48.5198 21.0499 49.6998 19.8599C52.0698 17.4499 52.0698 13.6302 49.6998 11.2202C47.3298 8.85021 43.4698 8.85021 41.0998 11.2202C39.9598 12.3602 39.3198 13.9 39.3198 15.52C39.3198 17.14 39.9498 18.6798 41.0998 19.8198C42.2398 20.9998 43.7798 21.6401 45.3998 21.6401ZM47.1698 30.3999C38.4498 38.0899 34.8198 38.7999 31.1898 37.1499L35.1398 32.1802C35.7298 31.4702 36.1298 30.5999 36.3598 29.6899L37.9398 23.02L31.3098 24.6001C30.3998 24.8401 29.5298 25.2298 28.8198 25.8198L23.8498 29.77C22.1498 26.14 22.8998 22.51 30.5598 13.79C37.8198 5.54004 53.1298 3.65 57.6698 3.25C57.3098 7.79 55.4198 23.1399 47.1698 30.3999ZM41.3698 42.3198C41.2898 42.6798 41.0898 43.03 40.7798 43.23C39.8698 43.86 38.4498 44.73 37.1898 45.52L37.2698 45.2798C37.8598 42.8698 37.8598 41.0198 37.2698 39.7598C38.9298 39.2498 40.6998 38.34 42.7198 36.96C42.2098 38.81 41.6498 41.0201 41.3798 42.3301L41.3698 42.3198ZM27.5998 38.02C27.0898 38.69 26.2598 39.0498 25.4298 39.0098H23.4198L30.2898 30.7202L21.9998 37.5898V35.5801C21.9598 34.7501 22.3198 33.9202 22.9898 33.4102L30.2498 27.6499C30.7198 27.2899 31.2798 27.0199 31.8298 26.8599L34.7898 26.1499L34.0798 29.1099C33.9198 29.6999 33.6898 30.25 33.2898 30.73L27.6098 38.0298L27.5998 38.02ZM15.7598 23.7402L15.5198 23.8198C16.2698 22.5598 17.1398 21.14 17.7698 20.23C17.9698 19.91 18.3198 19.7201 18.6798 19.6401C19.9798 19.3601 22.1898 18.8098 24.0498 18.3398C22.6698 20.3498 21.7598 22.1698 21.2498 23.8198C20.0298 23.1098 18.1698 23.1102 15.7698 23.7402H15.7598ZM58.8898 0.850098C58.0598 0.890098 38.0198 1.8 28.8198 12.25C27.9498 13.24 27.1198 14.26 26.2898 15.29C24.9498 15.65 20.2898 16.9098 18.2398 17.3398C17.2898 17.5398 16.4198 18.0899 15.8698 18.9199C14.4498 20.9699 11.9998 25.1901 11.9198 25.3501L10.1398 28.3901L13.3798 26.9702C15.5098 26.0602 19.0598 25.1201 20.3198 25.8701C20.5198 25.9901 20.7498 26.2298 20.7898 26.8198C20.8298 28.3198 21.2198 29.7802 21.9698 31.2402L21.5398 31.6001C20.3198 32.5901 19.6098 34.0902 19.6898 35.6602V41.2998H25.3298C26.9098 41.3798 28.4098 40.6702 29.3898 39.4502L29.7498 39.02C31.2098 39.77 32.6698 40.2002 34.1698 40.2002C34.7598 40.2402 34.9598 40.4399 35.1198 40.6699C35.9098 41.9299 34.9598 45.5199 34.0198 47.6499L32.5998 50.8901L35.6398 49.1099C35.8398 48.9899 40.0198 46.5501 42.0698 45.1201C42.8598 44.5701 43.4098 43.74 43.6098 42.75C44.0398 40.7 45.3098 36.0002 45.6598 34.6602C46.6098 33.9102 47.5898 33.0401 48.6598 32.1001C59.0798 22.9101 60.0198 2.82023 60.0598 1.99023L60.0998 0.72998L58.8798 0.850098H58.8898Z" fill="#1D1D1B"/>
</svg>
