<svg width="175" height="175" viewBox="0 0 175 175" fill="none" xmlns="http://www.w3.org/2000/svg">
<mask id="mask0_1_5010" style="mask-type:luminance" maskUnits="userSpaceOnUse" x="0" y="0" width="175" height="175">
<path d="M142.069 19.099C179.839 49.229 186.029 104.289 155.889 142.059C125.759 179.829 70.709 186.019 32.929 155.879C-4.84098 125.749 -11.031 70.6991 19.099 32.9291C49.249 -4.84095 104.289 -11.031 142.069 19.099Z" fill="white"/>
</mask>
<g mask="url(#mask0_1_5010)">
<path d="M-99.4375 75.9265L-100.064 76.7063L86.3554 226.382L86.9815 225.602L-99.4375 75.9265Z" fill="white"/>
<path d="M86.589 227.169L-101.501 77.1089L-99.911 75.1089L88.189 225.169L86.589 227.169Z" fill="white"/>
<path d="M-92.3685 66.8783L-92.985 67.6528L94.0555 216.539L94.6721 215.765L-92.3685 66.8783Z" fill="white"/>
<path d="M-92.4541 65.9161L-94.0445 67.9094L94.0483 217.984L95.6387 215.991L-92.4541 65.9161Z" fill="white"/>
<path d="M101.929 206.689L101.309 207.469L-85.561 58.3889L-84.941 57.6089L101.929 206.689Z" fill="white"/>
<path d="M101.429 208.559L100.819 208.079L-86.661 58.5088L-85.071 56.5088L-84.461 56.9988L103.029 206.569L101.429 208.559Z" fill="white"/>
<path d="M109.349 197.389L108.729 198.169L-78.141 49.0789L-77.531 48.3088L109.349 197.389Z" fill="white"/>
<path d="M108.849 199.269L108.239 198.779L-79.241 49.199L-77.651 47.209L-77.041 47.699L110.439 197.269L108.849 199.269Z" fill="white"/>
<path d="M-70.2185 39.1202L-70.8347 39.895L116.278 188.686L116.894 187.911L-70.2185 39.1202Z" fill="white"/>
<path d="M116.269 189.969L115.659 189.479L-71.821 39.9089L-70.231 37.9089L117.859 187.969L116.269 189.969Z" fill="white"/>
<path d="M124.179 178.799L123.559 179.569L-63.301 30.4788L-62.691 29.709L124.179 178.799Z" fill="white"/>
<path d="M123.689 180.669L-64.401 30.5989L-62.811 28.6089L-62.201 29.0989L125.279 178.669L123.689 180.669Z" fill="white"/>
<path d="M131.599 169.499L130.979 170.269L-55.891 21.179L-55.271 20.4089L131.599 169.499Z" fill="white"/>
<path d="M131.109 171.369L130.499 170.879L-56.991 21.3088L-55.391 19.3088L132.699 169.369L131.109 171.369Z" fill="white"/>
<path d="M139.019 160.199L138.399 160.979L-48.471 11.8789L-47.851 11.1089L139.019 160.199Z" fill="white"/>
<path d="M138.529 162.069L137.909 161.589L-49.561 11.9988L-47.971 10.0088L-47.361 10.4988L140.119 160.069L138.529 162.069Z" fill="white"/>
<path d="M146.439 150.899L145.819 151.669L-41.051 2.58887L-40.431 1.80884L146.439 150.899Z" fill="white"/>
<path d="M145.949 152.769L145.339 152.279L-42.141 2.70898L-40.561 0.708984L147.529 150.779L145.949 152.769Z" fill="white"/>
<path d="M-32.6959 -7.99996L-33.3167 -7.22876L152.911 142.662L153.532 141.891L-32.6959 -7.99996Z" fill="white"/>
<path d="M153.359 143.469L152.759 142.979L-34.731 -6.59106L-33.131 -8.59106L-32.521 -8.10107L154.959 141.479L153.359 143.469Z" fill="white"/>
<path d="M161.279 132.299L160.659 133.079L-26.211 -16.0112L-25.591 -16.791L161.279 132.299Z" fill="white"/>
<path d="M160.779 134.169L160.169 133.689L-27.311 -15.8911L-25.711 -17.8811L162.379 132.179L160.779 134.169Z" fill="white"/>
<path d="M168.699 122.999L168.079 123.779L-18.791 -25.311L-18.171 -26.0911L168.699 122.999Z" fill="white"/>
<path d="M168.209 124.869L-19.891 -25.1912L-18.301 -27.1912L169.789 122.879L168.209 124.869Z" fill="white"/>
<path d="M-10.6718 -35.4231L-11.2893 -34.6492L175.584 114.453L176.201 113.679L-10.6718 -35.4231Z" fill="white"/>
<path d="M175.619 115.579L-12.471 -34.4912L-10.881 -36.4812L-10.271 -36.0012L177.209 113.579L175.619 115.579Z" fill="white"/>
<path d="M-3.25101 -44.7241L-3.86847 -43.9502L183.005 105.151L183.622 104.378L-3.25101 -44.7241Z" fill="white"/>
<path d="M183.039 106.269L-5.05103 -43.791L-3.461 -45.781L-2.85101 -45.291L184.629 104.279L183.039 106.269Z" fill="white"/>
<path d="M4.05828 -53.8679L3.44122 -53.0938L190.386 95.9122L191.003 95.1381L4.05828 -53.8679Z" fill="white"/>
<path d="M190.459 96.9788L189.849 96.4888L2.36902 -53.0811L3.95898 -55.0811L4.56897 -54.6011L192.049 94.9788L190.459 96.9788Z" fill="white"/>
<path d="M198.369 85.7988L197.759 86.5789L10.889 -62.5112L11.499 -63.281L198.369 85.7988Z" fill="white"/>
<path d="M197.879 87.679L9.789 -62.3911L11.379 -64.3811L11.989 -63.8911L199.469 85.679L197.879 87.679Z" fill="white"/>
</g>
</svg>
