<svg width="147" height="27" viewBox="0 0 147 27" fill="none" xmlns="http://www.w3.org/2000/svg">
<path d="M23.9216 0.496204L0.976196 23.4417L3.68436 26.1498L26.6298 3.20437L23.9216 0.496204Z" fill="white"/>
<path d="M43.9219 0.497425L20.9764 23.4429L23.6846 26.151L46.63 3.20559L43.9219 0.497425Z" fill="white"/>
<path d="M63.9295 0.49181L40.984 23.4373L43.6922 26.1454L66.6376 3.19997L63.9295 0.49181Z" fill="white"/>
<path d="M83.9299 0.493275L60.9845 23.4387L63.6927 26.1469L86.6381 3.20144L83.9299 0.493275Z" fill="white"/>
<path d="M103.93 0.494495L80.9847 23.4399L83.6929 26.1481L106.638 3.20266L103.93 0.494495Z" fill="white"/>
<path d="M123.931 0.495716L100.985 23.4412L103.693 26.1493L126.639 3.20388L123.931 0.495716Z" fill="white"/>
<path d="M143.931 0.497181L120.985 23.4426L123.694 26.1508L146.639 3.20534L143.931 0.497181Z" fill="white"/>
</svg>
