<svg width="96" height="67" viewBox="0 0 96 67" fill="none" xmlns="http://www.w3.org/2000/svg">
<path d="M29.0898 26.75V22.29H19.4697V31.21H29.0898V26.75Z" fill="white"/>
<path d="M40.8198 15.96V11.5H30.9697V20.4199H40.8198V15.96Z" fill="white"/>
<path d="M52.3199 26.75V22.29H42.46V31.21H52.3199V26.75Z" fill="white"/>
<path d="M40.8198 26.75V22.29H30.9697V31.21H40.8198V26.75Z" fill="white"/>
<path d="M17.59 26.75V22.29H7.72998V31.21H17.59V26.75Z" fill="white"/>
<path d="M29.0898 15.96V11.5H19.4697V20.4199H29.0898V15.96Z" fill="white"/>
<path d="M64.0497 26.75V22.29H54.1997V31.21H64.0497V26.75Z" fill="white"/>
<path d="M52.3199 15.96V11.5H42.46V20.4199H52.3199V15.96Z" fill="white"/>
<path d="M52.3199 5.16016V0.700195H42.46V9.62036H52.3199V5.16016Z" fill="white"/>
<path d="M82.5899 24.6404C81.6499 17.8304 74.3799 13.8506 74.3799 13.8506C74.3799 13.8506 67.5699 22.0605 72.4999 31.2205C71.0899 31.9205 68.7498 32.8606 65.2298 32.8606H0.699869C-0.470131 37.3206 -0.470171 66.8904 31.9098 66.8904C55.1398 66.8904 72.5098 56.1004 80.7198 36.3804C92.9198 37.3204 95.4999 27.2305 95.4999 27.2305C95.4999 27.2305 91.2799 23.2404 82.5899 24.6504V24.6404Z" fill="white"/>
</svg>
