<svg width="100" height="81" viewBox="0 0 100 81" fill="none" xmlns="http://www.w3.org/2000/svg">
<path d="M1.01419 1.23089C0.644747 1.60034 0.380859 2.49756 0.380859 3.23644C0.380859 3.97533 0.644747 4.87255 1.01419 5.24199C1.38363 5.61143 2.28085 5.87532 3.01974 5.87532C3.75862 5.87532 4.65584 5.61143 5.02529 5.24199C5.39473 4.87255 5.65862 3.97533 5.65862 3.23644C5.65862 2.49756 5.39473 1.60034 5.02529 1.23089C4.65584 0.861451 3.75862 0.597563 3.01974 0.597563C2.28085 0.597563 1.38363 0.861451 1.01419 1.23089Z" fill="#00E2ED"/>
<path d="M19.7276 1.23089C19.3581 1.60034 19.0942 2.49756 19.0942 3.23644C19.0942 3.97533 19.3581 4.87255 19.7276 5.24199C20.097 5.61143 20.9942 5.87532 21.7331 5.87532C22.472 5.87532 23.3692 5.61143 23.7387 5.24199C24.1081 4.87255 24.372 3.97533 24.372 3.23644C24.372 2.49756 24.1081 1.60034 23.7387 1.23089C23.3692 0.861451 22.472 0.597563 21.7331 0.597563C20.9942 0.597563 20.097 0.861451 19.7276 1.23089Z" fill="#00E2ED"/>
<path d="M38.4405 1.23089C38.071 1.60034 37.8071 2.49756 37.8071 3.23644C37.8071 3.97533 38.071 4.87255 38.4405 5.24199C38.8099 5.61143 39.7071 5.87532 40.446 5.87532C41.1849 5.87532 42.0821 5.61143 42.4516 5.24199C42.821 4.87255 43.0849 3.97533 43.0849 3.23644C43.0849 2.49756 42.821 1.60034 42.4516 1.23089C42.0821 0.861451 41.1849 0.597563 40.446 0.597563C39.7071 0.597563 38.8099 0.861451 38.4405 1.23089Z" fill="#00E2ED"/>
<path d="M57.1538 1.23089C56.7844 1.60034 56.5205 2.49756 56.5205 3.23644C56.5205 3.97533 56.7844 4.87255 57.1538 5.24199C57.5233 5.61143 58.4205 5.87532 59.1594 5.87532C59.8983 5.87532 60.7955 5.61143 61.1649 5.24199C61.5344 4.87255 61.7983 3.97533 61.7983 3.23644C61.7983 2.49756 61.5344 1.60034 61.1649 1.23089C60.7955 0.861451 59.8983 0.597563 59.1594 0.597563C58.4205 0.597563 57.5233 0.861451 57.1538 1.23089Z" fill="#00E2ED"/>
<path d="M19.7276 19.9444C19.3581 20.3139 19.0942 21.2111 19.0942 21.95C19.0942 22.6888 19.3581 23.5861 19.7276 23.9555C20.097 24.3249 20.9942 24.5888 21.7331 24.5888C22.472 24.5888 23.3692 24.3249 23.7387 23.9555C24.1081 23.5861 24.372 22.6888 24.372 21.95C24.372 21.2111 24.1081 20.3139 23.7387 19.9444C23.3692 19.575 22.472 19.3111 21.7331 19.3111C20.9942 19.3111 20.097 19.575 19.7276 19.9444Z" fill="#00E2ED"/>
<path d="M38.4405 19.9444C38.071 20.3139 37.8071 21.2111 37.8071 21.95C37.8071 22.6888 38.071 23.5861 38.4405 23.9555C38.8099 24.3249 39.7071 24.5888 40.446 24.5888C41.1849 24.5888 42.0821 24.3249 42.4516 23.9555C42.821 23.5861 43.0849 22.6888 43.0849 21.95C43.0849 21.2111 42.821 20.3139 42.4516 19.9444C42.0821 19.575 41.1849 19.3111 40.446 19.3111C39.7071 19.3111 38.8099 19.575 38.4405 19.9444Z" fill="#00E2ED"/>
<path d="M57.1538 19.9444C56.7844 20.3139 56.5205 21.2111 56.5205 21.95C56.5205 22.6888 56.7844 23.5861 57.1538 23.9555C57.5233 24.3249 58.4205 24.5888 59.1594 24.5888C59.8983 24.5888 60.7955 24.3249 61.1649 23.9555C61.5344 23.5861 61.7983 22.6888 61.7983 21.95C61.7983 21.2111 61.5344 20.3139 61.1649 19.9444C60.7955 19.575 59.8983 19.3111 59.1594 19.3111C58.4205 19.3111 57.5233 19.575 57.1538 19.9444Z" fill="#00E2ED"/>
<path d="M4.93935 19.9445C4.56991 19.5751 3.67269 19.3112 2.9338 19.3112C2.19491 19.3112 1.2977 19.5751 0.928253 19.9445C0.55881 20.314 0.294922 21.2112 0.294922 21.9501C0.294922 22.689 0.55881 23.5862 0.928253 23.9556C1.2977 24.3251 2.19491 24.5889 2.9338 24.5889C3.67269 24.5889 4.56991 24.3251 4.93935 23.9556C5.30879 23.5862 5.57268 22.689 5.57268 21.9501C5.57268 21.2112 5.30879 20.314 4.93935 19.9445Z" fill="#00E2ED"/>
<path d="M19.7276 38.6579C19.3581 39.0274 19.0942 39.9246 19.0942 40.6635C19.0942 41.4023 19.3581 42.2996 19.7276 42.669C20.097 43.0384 20.9942 43.3023 21.7331 43.3023C22.472 43.3023 23.3692 43.0384 23.7387 42.669C24.1081 42.2996 24.372 41.4023 24.372 40.6635C24.372 39.9246 24.1081 39.0274 23.7387 38.6579C23.3692 38.2885 22.472 38.0246 21.7331 38.0246C20.9942 38.0246 20.097 38.2885 19.7276 38.6579Z" fill="#00E2ED"/>
<path d="M38.4405 38.6579C38.071 39.0274 37.8071 39.9246 37.8071 40.6635C37.8071 41.4023 38.071 42.2996 38.4405 42.669C38.8099 43.0384 39.7071 43.3023 40.446 43.3023C41.1849 43.3023 42.0821 43.0384 42.4516 42.669C42.821 42.2996 43.0849 41.4023 43.0849 40.6635C43.0849 39.9246 42.821 39.0274 42.4516 38.6579C42.0821 38.2885 41.1849 38.0246 40.446 38.0246C39.7071 38.0246 38.8099 38.2885 38.4405 38.6579Z" fill="#00E2ED"/>
<path d="M57.1538 38.6579C56.7844 39.0274 56.5205 39.9246 56.5205 40.6635C56.5205 41.4023 56.7844 42.2996 57.1538 42.669C57.5233 43.0384 58.4205 43.3023 59.1594 43.3023C59.8983 43.3023 60.7955 43.0384 61.1649 42.669C61.5344 42.2996 61.7983 41.4023 61.7983 40.6635C61.7983 39.9246 61.5344 39.0274 61.1649 38.6579C60.7955 38.2885 59.8983 38.0246 59.1594 38.0246C58.4205 38.0246 57.5233 38.2885 57.1538 38.6579Z" fill="#00E2ED"/>
<path d="M4.93935 38.6581C4.56991 38.2886 3.67269 38.0247 2.9338 38.0247C2.19491 38.0247 1.2977 38.2886 0.928253 38.6581C0.55881 39.0275 0.294922 39.9247 0.294922 40.6636C0.294922 41.4025 0.55881 42.2997 0.928253 42.6691C1.2977 43.0386 2.19491 43.3025 2.9338 43.3025C3.67269 43.3025 4.56991 43.0386 4.93935 42.6691C5.30879 42.2997 5.57268 41.4025 5.57268 40.6636C5.57268 39.9247 5.30879 39.0275 4.93935 38.6581Z" fill="#00E2ED"/>
<path d="M19.7276 57.3714C19.3581 57.7409 19.0942 58.6381 19.0942 59.377C19.0942 60.1158 19.3581 61.0131 19.7276 61.3825C20.097 61.752 20.9942 62.0158 21.7331 62.0158C22.472 62.0158 23.3692 61.752 23.7387 61.3825C24.1081 61.0131 24.372 60.1158 24.372 59.377C24.372 58.6381 24.1081 57.7409 23.7387 57.3714C23.3692 57.002 22.472 56.7381 21.7331 56.7381C20.9942 56.7381 20.097 57.002 19.7276 57.3714Z" fill="#00E2ED"/>
<path d="M38.4405 57.3714C38.071 57.7409 37.8071 58.6381 37.8071 59.377C37.8071 60.1158 38.071 61.0131 38.4405 61.3825C38.8099 61.752 39.7071 62.0158 40.446 62.0158C41.1849 62.0158 42.0821 61.752 42.4516 61.3825C42.821 61.0131 43.0849 60.1158 43.0849 59.377C43.0849 58.6381 42.821 57.7409 42.4516 57.3714C42.0821 57.002 41.1849 56.7381 40.446 56.7381C39.7071 56.7381 38.8099 57.002 38.4405 57.3714Z" fill="#00E2ED"/>
<path d="M57.1538 57.3714C56.7844 57.7409 56.5205 58.6381 56.5205 59.377C56.5205 60.1158 56.7844 61.0131 57.1538 61.3825C57.5233 61.752 58.4205 62.0158 59.1594 62.0158C59.8983 62.0158 60.7955 61.752 61.1649 61.3825C61.5344 61.0131 61.7983 60.1158 61.7983 59.377C61.7983 58.6381 61.5344 57.7409 61.1649 57.3714C60.7955 57.002 59.8983 56.7381 59.1594 56.7381C58.4205 56.7381 57.5233 57.002 57.1538 57.3714Z" fill="#00E2ED"/>
<path d="M4.93935 57.3716C4.56991 57.0021 3.67269 56.7382 2.9338 56.7382C2.19491 56.7382 1.2977 57.0021 0.928253 57.3716C0.55881 57.741 0.294922 58.6382 0.294922 59.3771C0.294922 60.116 0.55881 61.0132 0.928253 61.3826C1.2977 61.7521 2.19491 62.016 2.9338 62.016C3.67269 62.016 4.56991 61.7521 4.93935 61.3826C5.30879 61.0132 5.57268 60.116 5.57268 59.3771C5.57268 58.6382 5.30879 57.741 4.93935 57.3716Z" fill="#00E2ED"/>
<path d="M19.7276 76.0845C19.3581 76.454 19.0942 77.3512 19.0942 78.0901C19.0942 78.829 19.3581 79.7262 19.7276 80.0956C20.097 80.4651 20.9942 80.729 21.7331 80.729C22.472 80.729 23.3692 80.4651 23.7387 80.0956C24.1081 79.7262 24.372 78.829 24.372 78.0901C24.372 77.3512 24.1081 76.454 23.7387 76.0845C23.3692 75.7151 22.472 75.4512 21.7331 75.4512C20.9942 75.4512 20.097 75.7151 19.7276 76.0845Z" fill="#00E2ED"/>
<path d="M38.4405 76.0845C38.071 76.454 37.8071 77.3512 37.8071 78.0901C37.8071 78.829 38.071 79.7262 38.4405 80.0956C38.8099 80.4651 39.7071 80.729 40.446 80.729C41.1849 80.729 42.0821 80.4651 42.4516 80.0956C42.821 79.7262 43.0849 78.829 43.0849 78.0901C43.0849 77.3512 42.821 76.454 42.4516 76.0845C42.0821 75.7151 41.1849 75.4512 40.446 75.4512C39.7071 75.4512 38.8099 75.7151 38.4405 76.0845Z" fill="#00E2ED"/>
<path d="M57.1538 76.0845C56.7844 76.454 56.5205 77.3512 56.5205 78.0901C56.5205 78.829 56.7844 79.7262 57.1538 80.0956C57.5233 80.4651 58.4205 80.729 59.1594 80.729C59.8983 80.729 60.7955 80.4651 61.1649 80.0956C61.5344 79.7262 61.7983 78.829 61.7983 78.0901C61.7983 77.3512 61.5344 76.454 61.1649 76.0845C60.7955 75.7151 59.8983 75.4512 59.1594 75.4512C58.4205 75.4512 57.5233 75.7151 57.1538 76.0845Z" fill="#00E2ED"/>
<path d="M4.93935 76.0847C4.56991 75.7152 3.67269 75.4514 2.9338 75.4514C2.19491 75.4514 1.2977 75.7152 0.928253 76.0847C0.55881 76.4541 0.294922 77.3513 0.294922 78.0902C0.294922 78.8291 0.55881 79.7263 0.928253 80.0958C1.2977 80.4652 2.19491 80.7291 2.9338 80.7291C3.67269 80.7291 4.56991 80.4652 4.93935 80.0958C5.30879 79.7263 5.57268 78.8291 5.57268 78.0902C5.57268 77.3513 5.30879 76.4541 4.93935 76.0847Z" fill="#00E2ED"/>
<path d="M19.7276 57.3714C19.3581 57.7409 19.0942 58.6381 19.0942 59.377C19.0942 60.1158 19.3581 61.0131 19.7276 61.3825C20.097 61.752 20.9942 62.0158 21.7331 62.0158C22.472 62.0158 23.3692 61.752 23.7387 61.3825C24.1081 61.0131 24.372 60.1158 24.372 59.377C24.372 58.6381 24.1081 57.7409 23.7387 57.3714C23.3692 57.002 22.472 56.7381 21.7331 56.7381C20.9942 56.7381 20.097 57.002 19.7276 57.3714Z" fill="#00E2ED"/>
<path d="M38.4405 57.3714C38.071 57.7409 37.8071 58.6381 37.8071 59.377C37.8071 60.1158 38.071 61.0131 38.4405 61.3825C38.8099 61.752 39.7071 62.0158 40.446 62.0158C41.1849 62.0158 42.0821 61.752 42.4516 61.3825C42.821 61.0131 43.0849 60.1158 43.0849 59.377C43.0849 58.6381 42.821 57.7409 42.4516 57.3714C42.0821 57.002 41.1849 56.7381 40.446 56.7381C39.7071 56.7381 38.8099 57.002 38.4405 57.3714Z" fill="#00E2ED"/>
<path d="M57.1538 57.3714C56.7844 57.7409 56.5205 58.6381 56.5205 59.377C56.5205 60.1158 56.7844 61.0131 57.1538 61.3825C57.5233 61.752 58.4205 62.0158 59.1594 62.0158C59.8983 62.0158 60.7955 61.752 61.1649 61.3825C61.5344 61.0131 61.7983 60.1158 61.7983 59.377C61.7983 58.6381 61.5344 57.7409 61.1649 57.3714C60.7955 57.002 59.8983 56.7381 59.1594 56.7381C58.4205 56.7381 57.5233 57.002 57.1538 57.3714Z" fill="#00E2ED"/>
<path d="M4.93935 57.3716C4.56991 57.0021 3.67269 56.7382 2.9338 56.7382C2.19491 56.7382 1.2977 57.0021 0.928253 57.3716C0.55881 57.741 0.294922 58.6382 0.294922 59.3771C0.294922 60.116 0.55881 61.0132 0.928253 61.3826C1.2977 61.7521 2.19491 62.016 2.9338 62.016C3.67269 62.016 4.56991 61.7521 4.93935 61.3826C5.30879 61.0132 5.57268 60.116 5.57268 59.3771C5.57268 58.6382 5.30879 57.741 4.93935 57.3716Z" fill="#00E2ED"/>
<path d="M19.7276 76.0845C19.3581 76.454 19.0942 77.3512 19.0942 78.0901C19.0942 78.829 19.3581 79.7262 19.7276 80.0956C20.097 80.4651 20.9942 80.729 21.7331 80.729C22.472 80.729 23.3692 80.4651 23.7387 80.0956C24.1081 79.7262 24.372 78.829 24.372 78.0901C24.372 77.3512 24.1081 76.454 23.7387 76.0845C23.3692 75.7151 22.472 75.4512 21.7331 75.4512C20.9942 75.4512 20.097 75.7151 19.7276 76.0845Z" fill="#00E2ED"/>
<path d="M38.4405 76.0845C38.071 76.454 37.8071 77.3512 37.8071 78.0901C37.8071 78.829 38.071 79.7262 38.4405 80.0956C38.8099 80.4651 39.7071 80.729 40.446 80.729C41.1849 80.729 42.0821 80.4651 42.4516 80.0956C42.821 79.7262 43.0849 78.829 43.0849 78.0901C43.0849 77.3512 42.821 76.454 42.4516 76.0845C42.0821 75.7151 41.1849 75.4512 40.446 75.4512C39.7071 75.4512 38.8099 75.7151 38.4405 76.0845Z" fill="#00E2ED"/>
<path d="M57.1538 76.0845C56.7844 76.454 56.5205 77.3512 56.5205 78.0901C56.5205 78.829 56.7844 79.7262 57.1538 80.0956C57.5233 80.4651 58.4205 80.729 59.1594 80.729C59.8983 80.729 60.7955 80.4651 61.1649 80.0956C61.5344 79.7262 61.7983 78.829 61.7983 78.0901C61.7983 77.3512 61.5344 76.454 61.1649 76.0845C60.7955 75.7151 59.8983 75.4512 59.1594 75.4512C58.4205 75.4512 57.5233 75.7151 57.1538 76.0845Z" fill="#00E2ED"/>
<path d="M75.8667 1.23089C75.4973 1.60034 75.2334 2.49756 75.2334 3.23644C75.2334 3.97533 75.4973 4.87255 75.8667 5.24199C76.2362 5.61143 77.1334 5.87532 77.8723 5.87532C78.6112 5.87532 79.5084 5.61143 79.8778 5.24199C80.2473 4.87255 80.5112 3.97533 80.5112 3.23644C80.5112 2.49756 80.2473 1.60034 79.8778 1.23089C79.5084 0.861451 78.6112 0.597563 77.8723 0.597563C77.1334 0.597563 76.2362 0.861451 75.8667 1.23089Z" fill="#00E2ED"/>
<path d="M94.5801 1.23089C94.2107 1.60034 93.9468 2.49756 93.9468 3.23644C93.9468 3.97533 94.2107 4.87255 94.5801 5.24199C94.9496 5.61143 95.8468 5.87532 96.5857 5.87532C97.3245 5.87532 98.2218 5.61143 98.5912 5.24199C98.9606 4.87255 99.2245 3.97533 99.2245 3.23644C99.2245 2.49756 98.9606 1.60034 98.5912 1.23089C98.2218 0.861451 97.3245 0.597563 96.5857 0.597563C95.8468 0.597563 94.9496 0.861451 94.5801 1.23089Z" fill="#00E2ED"/>
<path d="M75.8667 19.9444C75.4973 20.3139 75.2334 21.2111 75.2334 21.95C75.2334 22.6888 75.4973 23.5861 75.8667 23.9555C76.2362 24.3249 77.1334 24.5888 77.8723 24.5888C78.6112 24.5888 79.5084 24.3249 79.8778 23.9555C80.2473 23.5861 80.5112 22.6888 80.5112 21.95C80.5112 21.2111 80.2473 20.3139 79.8778 19.9444C79.5084 19.575 78.6112 19.3111 77.8723 19.3111C77.1334 19.3111 76.2362 19.575 75.8667 19.9444Z" fill="#00E2ED"/>
<path d="M94.5801 19.9444C94.2107 20.3139 93.9468 21.2111 93.9468 21.95C93.9468 22.6888 94.2107 23.5861 94.5801 23.9555C94.9496 24.3249 95.8468 24.5888 96.5857 24.5888C97.3245 24.5888 98.2218 24.3249 98.5912 23.9555C98.9606 23.5861 99.2245 22.6888 99.2245 21.95C99.2245 21.2111 98.9606 20.3139 98.5912 19.9444C98.2218 19.575 97.3245 19.3111 96.5857 19.3111C95.8468 19.3111 94.9496 19.575 94.5801 19.9444Z" fill="#00E2ED"/>
<path d="M75.8667 38.6579C75.4973 39.0274 75.2334 39.9246 75.2334 40.6635C75.2334 41.4023 75.4973 42.2996 75.8667 42.669C76.2362 43.0384 77.1334 43.3023 77.8723 43.3023C78.6112 43.3023 79.5084 43.0384 79.8778 42.669C80.2473 42.2996 80.5112 41.4023 80.5112 40.6635C80.5112 39.9246 80.2473 39.0274 79.8778 38.6579C79.5084 38.2885 78.6112 38.0246 77.8723 38.0246C77.1334 38.0246 76.2362 38.2885 75.8667 38.6579Z" fill="#00E2ED"/>
<path d="M94.5801 38.6579C94.2107 39.0274 93.9468 39.9246 93.9468 40.6635C93.9468 41.4023 94.2107 42.2996 94.5801 42.669C94.9496 43.0384 95.8468 43.3023 96.5857 43.3023C97.3245 43.3023 98.2218 43.0384 98.5912 42.669C98.9606 42.2996 99.2245 41.4023 99.2245 40.6635C99.2245 39.9246 98.9606 39.0274 98.5912 38.6579C98.2218 38.2885 97.3245 38.0246 96.5857 38.0246C95.8468 38.0246 94.9496 38.2885 94.5801 38.6579Z" fill="#00E2ED"/>
<path d="M57.1538 57.3714C56.7844 57.7409 56.5205 58.6381 56.5205 59.377C56.5205 60.1158 56.7844 61.0131 57.1538 61.3825C57.5233 61.752 58.4205 62.0158 59.1594 62.0158C59.8983 62.0158 60.7955 61.752 61.1649 61.3825C61.5344 61.0131 61.7983 60.1158 61.7983 59.377C61.7983 58.6381 61.5344 57.7409 61.1649 57.3714C60.7955 57.002 59.8983 56.7381 59.1594 56.7381C58.4205 56.7381 57.5233 57.002 57.1538 57.3714Z" fill="#00E2ED"/>
<path d="M75.8667 57.3714C75.4973 57.7409 75.2334 58.6381 75.2334 59.377C75.2334 60.1158 75.4973 61.0131 75.8667 61.3825C76.2362 61.752 77.1334 62.0158 77.8723 62.0158C78.6112 62.0158 79.5084 61.752 79.8778 61.3825C80.2473 61.0131 80.5112 60.1158 80.5112 59.377C80.5112 58.6381 80.2473 57.7409 79.8778 57.3714C79.5084 57.002 78.6112 56.7381 77.8723 56.7381C77.1334 56.7381 76.2362 57.002 75.8667 57.3714Z" fill="#00E2ED"/>
<path d="M94.5801 57.3714C94.2107 57.7409 93.9468 58.6381 93.9468 59.377C93.9468 60.1158 94.2107 61.0131 94.5801 61.3825C94.9496 61.752 95.8468 62.0158 96.5857 62.0158C97.3245 62.0158 98.2218 61.752 98.5912 61.3825C98.9606 61.0131 99.2245 60.1158 99.2245 59.377C99.2245 58.6381 98.9606 57.7409 98.5912 57.3714C98.2218 57.002 97.3245 56.7381 96.5857 56.7381C95.8468 56.7381 94.9496 57.002 94.5801 57.3714Z" fill="#00E2ED"/>
<path d="M57.1538 76.0845C56.7844 76.454 56.5205 77.3512 56.5205 78.0901C56.5205 78.829 56.7844 79.7262 57.1538 80.0956C57.5233 80.4651 58.4205 80.729 59.1594 80.729C59.8983 80.729 60.7955 80.4651 61.1649 80.0956C61.5344 79.7262 61.7983 78.829 61.7983 78.0901C61.7983 77.3512 61.5344 76.454 61.1649 76.0845C60.7955 75.7151 59.8983 75.4512 59.1594 75.4512C58.4205 75.4512 57.5233 75.7151 57.1538 76.0845Z" fill="#00E2ED"/>
<path d="M75.8667 76.0845C75.4973 76.454 75.2334 77.3512 75.2334 78.0901C75.2334 78.829 75.4973 79.7262 75.8667 80.0956C76.2362 80.4651 77.1334 80.729 77.8723 80.729C78.6112 80.729 79.5084 80.4651 79.8778 80.0956C80.2473 79.7262 80.5112 78.829 80.5112 78.0901C80.5112 77.3512 80.2473 76.454 79.8778 76.0845C79.5084 75.7151 78.6112 75.4512 77.8723 75.4512C77.1334 75.4512 76.2362 75.7151 75.8667 76.0845Z" fill="#00E2ED"/>
<path d="M94.5801 76.0845C94.2107 76.454 93.9468 77.3512 93.9468 78.0901C93.9468 78.829 94.2107 79.7262 94.5801 80.0956C94.9496 80.4651 95.8468 80.729 96.5857 80.729C97.3245 80.729 98.2218 80.4651 98.5912 80.0956C98.9606 79.7262 99.2245 78.829 99.2245 78.0901C99.2245 77.3512 98.9606 76.454 98.5912 76.0845C98.2218 75.7151 97.3245 75.4512 96.5857 75.4512C95.8468 75.4512 94.9496 75.7151 94.5801 76.0845Z" fill="#00E2ED"/>
<path d="M75.8667 57.3714C75.4973 57.7409 75.2334 58.6381 75.2334 59.377C75.2334 60.1158 75.4973 61.0131 75.8667 61.3825C76.2362 61.752 77.1334 62.0158 77.8723 62.0158C78.6112 62.0158 79.5084 61.752 79.8778 61.3825C80.2473 61.0131 80.5112 60.1158 80.5112 59.377C80.5112 58.6381 80.2473 57.7409 79.8778 57.3714C79.5084 57.002 78.6112 56.7381 77.8723 56.7381C77.1334 56.7381 76.2362 57.002 75.8667 57.3714Z" fill="#00E2ED"/>
<path d="M94.5801 57.3714C94.2107 57.7409 93.9468 58.6381 93.9468 59.377C93.9468 60.1158 94.2107 61.0131 94.5801 61.3825C94.9496 61.752 95.8468 62.0158 96.5857 62.0158C97.3245 62.0158 98.2218 61.752 98.5912 61.3825C98.9606 61.0131 99.2245 60.1158 99.2245 59.377C99.2245 58.6381 98.9606 57.7409 98.5912 57.3714C98.2218 57.002 97.3245 56.7381 96.5857 56.7381C95.8468 56.7381 94.9496 57.002 94.5801 57.3714Z" fill="#00E2ED"/>
<path d="M75.8667 76.0845C75.4973 76.454 75.2334 77.3512 75.2334 78.0901C75.2334 78.829 75.4973 79.7262 75.8667 80.0956C76.2362 80.4651 77.1334 80.729 77.8723 80.729C78.6112 80.729 79.5084 80.4651 79.8778 80.0956C80.2473 79.7262 80.5112 78.829 80.5112 78.0901C80.5112 77.3512 80.2473 76.454 79.8778 76.0845C79.5084 75.7151 78.6112 75.4512 77.8723 75.4512C77.1334 75.4512 76.2362 75.7151 75.8667 76.0845Z" fill="#00E2ED"/>
<path d="M94.5801 76.0845C94.2107 76.454 93.9468 77.3512 93.9468 78.0901C93.9468 78.829 94.2107 79.7262 94.5801 80.0956C94.9496 80.4651 95.8468 80.729 96.5857 80.729C97.3245 80.729 98.2218 80.4651 98.5912 80.0956C98.9606 79.7262 99.2245 78.829 99.2245 78.0901C99.2245 77.3512 98.9606 76.454 98.5912 76.0845C98.2218 75.7151 97.3245 75.4512 96.5857 75.4512C95.8468 75.4512 94.9496 75.7151 94.5801 76.0845Z" fill="#00E2ED"/>
<path d="M4.93935 76.0847C4.56991 75.7152 3.67269 75.4514 2.9338 75.4514C2.19491 75.4514 1.2977 75.7152 0.928253 76.0847C0.55881 76.4541 0.294922 77.3513 0.294922 78.0902C0.294922 78.8291 0.55881 79.7263 0.928253 80.0958C1.2977 80.4652 2.19491 80.7291 2.9338 80.7291C3.67269 80.7291 4.56991 80.4652 4.93935 80.0958C5.30879 79.7263 5.57268 78.8291 5.57268 78.0902C5.57268 77.3513 5.30879 76.4541 4.93935 76.0847Z" fill="#00E2ED"/>
</svg>
