<?xml version="1.0" encoding="UTF-8" standalone="no"?>
<svg
   xmlns:dc="http://purl.org/dc/elements/1.1/"
   xmlns:cc="http://creativecommons.org/ns#"
   xmlns:rdf="http://www.w3.org/1999/02/22-rdf-syntax-ns#"
   xmlns:svg="http://www.w3.org/2000/svg"
   xmlns="http://www.w3.org/2000/svg"
   xmlns:xlink="http://www.w3.org/1999/xlink"
   xmlns:sodipodi="http://sodipodi.sourceforge.net/DTD/sodipodi-0.dtd"
   xmlns:inkscape="http://www.inkscape.org/namespaces/inkscape"
   version="1.1"
   id="svg108127"
   width="184.8078"
   height="176.72235">
  <metadata
     id="metadata108133">
    <rdf:RDF>
      <cc:Work
         rdf:about="">
        <dc:format>image/svg+xml</dc:format>
        <dc:type
           rdf:resource="http://purl.org/dc/dcmitype/StillImage" />
      </cc:Work>
    </rdf:RDF>
  </metadata>
  <defs
     id="defs108131">
    <linearGradient
       id="Degradado_sin_nombre_83"
       x1="653.82001"
       y1="217.7"
       x2="653.82001"
       y2="262.79999"
       gradientUnits="userSpaceOnUse"
       gradientTransform="matrix(0.26458334,0,0,0.26458334,199.64731,1025.4018)">
      <stop
         offset="0"
         stop-color="#b0d7e5"
         id="stop1346004" />
      <stop
         offset="1"
         stop-color="#58c3e8"
         id="stop1346006" />
    </linearGradient>
    <linearGradient
       inkscape:collect="always"
       xlink:href="#Degradado_sin_nombre_73"
       id="linearGradient1374585"
       gradientUnits="userSpaceOnUse"
       x1="653.82001"
       y1="217.7"
       x2="653.82001"
       y2="262.79999"
       gradientTransform="matrix(0.26458334,0,0,0.26458334,199.64731,1025.4018)" />
    <linearGradient
       id="Degradado_sin_nombre_73"
       x1="653.82001"
       y1="217.7"
       x2="653.82001"
       y2="262.79999"
       gradientUnits="userSpaceOnUse">
      <stop
         offset="0"
         stop-color="#93d1e8"
         id="stop1346009" />
      <stop
         offset="1"
         stop-color="#58c3e8"
         id="stop1346011" />
    </linearGradient>
    <linearGradient
       inkscape:collect="always"
       xlink:href="#Degradado_sin_nombre_73"
       id="linearGradient1374696"
       x1="643.49567"
       y1="238.97"
       x2="664.17767"
       y2="238.97"
       gradientUnits="userSpaceOnUse" />
    <linearGradient
       id="linearGradient108147"
       x1="653.82001"
       y1="217.7"
       x2="653.82001"
       y2="262.79999"
       gradientUnits="userSpaceOnUse">
      <stop
         offset="0"
         stop-color="#93d1e8"
         id="stop108143" />
      <stop
         offset="1"
         stop-color="#58c3e8"
         id="stop108145" />
    </linearGradient>
  </defs>
  <sodipodi:namedview
     pagecolor="#ffffff"
     bordercolor="#666666"
     borderopacity="1"
     objecttolerance="10"
     gridtolerance="10"
     guidetolerance="10"
     inkscape:pageopacity="0"
     inkscape:pageshadow="2"
     inkscape:window-width="640"
     inkscape:window-height="480"
     id="namedview108129" />
  <inkscape:clipboard
     style="font-variation-settings:normal;opacity:1;vector-effect:none;fill:#f2f2f2;fill-opacity:1;stroke-width:3.7795307;stroke-linecap:butt;stroke-linejoin:miter;stroke-miterlimit:4;stroke-dasharray:none;stroke-dashoffset:0;stroke-opacity:1;stop-color:#000000;stop-opacity:1"
     min="1280.5881,3851.9805"
     max="1465.3959,4028.7028" />
  <g
     id="g108149"
     transform="matrix(3.7795275,0,0,3.7795275,-1280.5881,-3851.9805)">
    <g
       id="g1374688"
       transform="matrix(1.8433773,0,0,1.8433773,-323.44869,-963.95981)"
       style="stroke-width:0.542483">
      <path
         class="cls-386"
         d="m 372.55252,1100.1969 a 11.011959,11.011959 0 1 0 -10.92729,-11.0093 10.969625,10.969625 0 0 0 10.92729,11.0093 z"
         id="path1346930"
         style="fill:#e9edf9;stroke-width:0.143532" />
      <path
         class="cls-386"
         d="m 365.40613,1100.4456 a 0.26458334,0.26458334 0 0 1 -0.13759,-0.04 l -0.2831,-0.1932 a 0.24606251,0.24606251 0 0 1 -0.0609,-0.3466 0.26458334,0.26458334 0 0 1 0.34926,-0.063 l 0.26458,0.1852 a 0.24870834,0.24870834 0 0 1 -0.13758,0.4578 z m 15.32731,-0.807 a 0.25135417,0.25135417 0 0 1 -0.15875,-0.4445 c 0.0847,-0.069 0.16933,-0.1376 0.25135,-0.209 a 0.26458334,0.26458334 0 0 1 0.35455,0.026 0.24870834,0.24870834 0 0 1 -0.0291,0.3519 l -0.26458,0.2196 a 0.26458334,0.26458334 0 0 1 -0.15346,0.056 z m -17.15558,-0.6456 a 0.26458334,0.26458334 0 0 1 -0.17198,-0.069 l -0.24607,-0.2328 a 0.25135417,0.25135417 0 0 1 0.35455,-0.3546 l 0.23283,0.2276 a 0.25135417,0.25135417 0 0 1 -0.17198,0.4339 z m 18.82775,-0.9842 a 0.26458334,0.26458334 0 0 1 -0.16405,-0.061 0.24870834,0.24870834 0 0 1 -0.0265,-0.3519 l 0.20902,-0.2513 a 0.25135417,0.25135417 0 1 1 0.38893,0.3148 l -0.21695,0.2646 a 0.26458334,0.26458334 0 0 1 -0.1905,0.085 z m -20.37292,-0.77 a 0.26458334,0.26458334 0 0 1 -0.20373,-0.1032 l -0.19844,-0.2778 a 0.24606251,0.24606251 0 0 1 0.0635,-0.3466 0.26458334,0.26458334 0 0 1 0.34925,0.061 c 0.0609,0.09 0.12436,0.1799 0.1905,0.2646 a 0.24870834,0.24870834 0 0 1 -0.0529,0.3492 0.24341667,0.24341667 0 0 1 -0.14288,0.053 z m 21.72229,-1.1324 a 0.23812501,0.23812501 0 0 1 -0.12435,-0.034 0.24606251,0.24606251 0 0 1 -0.09,-0.3413 c 0.0556,-0.095 0.10848,-0.1905 0.16139,-0.2858 a 0.25135417,0.25135417 0 0 1 0.43921,0.2435 c -0.0556,0.098 -0.11112,0.1984 -0.16933,0.2963 a 0.24606251,0.24606251 0 0 1 -0.21167,0.1217 z m -22.92615,-0.8546 a 0.26458334,0.26458334 0 0 1 -0.22489,-0.1402 c -0.0503,-0.1032 -0.0979,-0.2064 -0.14552,-0.3096 a 0.24984934,0.24984934 0 0 1 0.45508,-0.2064 c 0.045,0.098 0.0926,0.1958 0.14023,0.2937 a 0.26458334,0.26458334 0 0 1 -0.11377,0.336 0.24341667,0.24341667 0 0 1 -0.11113,0.026 z m 23.93157,-1.2462 a 0.26458334,0.26458334 0 0 1 -0.0873,-0.016 0.24870834,0.24870834 0 0 1 -0.14817,-0.3201 l 0.11112,-0.3096 a 0.25135417,0.25135417 0 0 1 0.47361,0.1614 c -0.037,0.1059 -0.0741,0.2143 -0.11377,0.3202 a 0.26458334,0.26458334 0 0 1 -0.23548,0.1534 z m -24.77559,-0.9445 a 0.26458334,0.26458334 0 0 1 -0.24077,-0.1826 c -0.0291,-0.1085 -0.0608,-0.217 -0.0873,-0.3281 a 0.24995075,0.24995075 0 1 1 0.48419,-0.1243 c 0.0265,0.1058 0.0556,0.2116 0.0847,0.3148 a 0.24606251,0.24606251 0 0 1 -0.17197,0.3096 0.19843751,0.19843751 0 0 1 -0.0688,0.011 z m 25.37619,-1.323 h -0.045 a 0.26458334,0.26458334 0 0 1 -0.20373,-0.291 c 0.0185,-0.1058 0.0371,-0.2143 0.0529,-0.3228 a 0.26458334,0.26458334 0 0 1 0.28575,-0.2117 0.24870834,0.24870834 0 0 1 0.20902,0.2858 c -0.0159,0.1138 -0.0344,0.2249 -0.0529,0.336 a 0.24870834,0.24870834 0 0 1 -0.23812,0.2037 z m -25.81275,-0.971 a 0.24870834,0.24870834 0 0 1 -0.24871,-0.2249 c 0,-0.1138 -0.0212,-0.2275 -0.0291,-0.3413 a 0.25135417,0.25135417 0 0 1 0.50006,-0.034 c 0,0.1085 0.0185,0.217 0.0291,0.3254 a 0.24870834,0.24870834 0 0 1 -0.2249,0.2646 z m 26.01119,-1.3547 a 0.26458334,0.26458334 0 0 1 -0.26458,-0.2645 c 0,-0.1085 0,-0.217 0,-0.3281 a 0.25135417,0.25135417 0 1 1 0.50006,0 c 0,0.1111 0,0.2249 0,0.3386 a 0.26458334,0.26458334 0 0 1 -0.22754,0.254 z m -26.03765,-0.9816 h -0.0185 a 0.26458334,0.26458334 0 0 1 -0.23283,-0.2645 c 0,-0.1112 0.0185,-0.2249 0.0317,-0.3387 a 0.24997525,0.24997525 0 0 1 0.49742,0.05 c 0,0.1084 -0.0212,0.2196 -0.0291,0.328 a 0.26458334,0.26458334 0 0 1 -0.24077,0.2249 z m 25.82863,-1.344 a 0.24870834,0.24870834 0 0 1 -0.24606,-0.2064 c -0.0212,-0.1085 -0.0397,-0.2143 -0.0635,-0.3228 a 0.25135417,0.25135417 0 0 1 0.49212,-0.1005 c 0.0212,0.1111 0.045,0.2222 0.0635,0.336 a 0.26458334,0.26458334 0 0 1 -0.20108,0.291 z m -25.45027,-0.9578 a 0.24077084,0.24077084 0 0 1 -0.0609,0 0.26458334,0.26458334 0 0 1 -0.17991,-0.3069 c 0.0265,-0.1085 0.0556,-0.2197 0.0873,-0.3281 a 0.26458334,0.26458334 0 0 1 0.30956,-0.172 0.24870834,0.24870834 0 0 1 0.17198,0.3096 c -0.0291,0.1058 -0.0582,0.209 -0.0847,0.3148 a 0.26458334,0.26458334 0 0 1 -0.23548,0.1826 z m 24.83379,-1.2938 a 0.26458334,0.26458334 0 0 1 -0.23548,-0.1641 c -0.037,-0.1032 -0.0767,-0.2037 -0.11906,-0.3043 a 0.26458334,0.26458334 0 0 1 0.14023,-0.328 0.26458334,0.26458334 0 0 1 0.32543,0.1402 c 0.0423,0.1058 0.0847,0.2117 0.12436,0.3175 a 0.26458334,0.26458334 0 0 1 -0.23548,0.3387 z m -24.05063,-0.9076 a 0.24606251,0.24606251 0 0 1 -0.10583,-0.024 0.26458334,0.26458334 0 0 1 -0.12171,-0.3334 c 0.0476,-0.1031 0.0953,-0.2037 0.14552,-0.3069 a 0.25135417,0.25135417 0 1 1 0.44979,0.2196 c -0.0476,0.098 -0.0953,0.1985 -0.14022,0.2964 a 0.26458334,0.26458334 0 0 1 -0.21961,0.1481 z m 23.04521,-1.1985 a 0.26458334,0.26458334 0 0 1 -0.21696,-0.1244 c -0.0556,-0.093 -0.11112,-0.1852 -0.16933,-0.2646 a 0.26458334,0.26458334 0 0 1 0.0794,-0.3466 0.24870834,0.24870834 0 0 1 0.34395,0.079 c 0.0609,0.095 0.12171,0.1932 0.17728,0.291 a 0.24606251,0.24606251 0 0 1 -0.0873,0.3414 0.22754167,0.22754167 0 0 1 -0.11906,0.024 z m -21.88633,-0.8308 a 0.26458334,0.26458334 0 0 1 -0.14288,-0.045 0.26458334,0.26458334 0 0 1 -0.0609,-0.3492 l 0.19579,-0.2646 a 0.26458334,0.26458334 0 1 1 0.40481,0.2989 l -0.1905,0.2646 a 0.24606251,0.24606251 0 0 1 -0.19843,0.095 z m 20.52373,-1.0584 a 0.26458334,0.26458334 0 0 1 -0.1905,-0.085 c -0.0714,-0.085 -0.14288,-0.1667 -0.21696,-0.2461 a 0.25135417,0.25135417 0 0 1 0.37306,-0.336 c 0.0767,0.082 0.15082,0.1667 0.2249,0.2646 a 0.26458334,0.26458334 0 0 1 -0.0265,0.3545 0.26458334,0.26458334 0 0 1 -0.1561,0.04 z m -19.02354,-0.7249 a 0.25135417,0.25135417 0 0 1 -0.17463,-0.4286 l 0.24342,-0.2355 a 0.24985733,0.24985733 0 0 1 0.34396,0.3625 c -0.0794,0.074 -0.15611,0.1508 -0.23548,0.2302 a 0.24870834,0.24870834 0 0 1 -0.16934,0.063 z m 17.34873,-0.9022 a 0.24341667,0.24341667 0 0 1 -0.15875,-0.056 l -0.26459,-0.2037 a 0.25135417,0.25135417 0 0 1 0.30692,-0.3969 l 0.26458,0.2117 a 0.26458334,0.26458334 0 0 1 0.0476,0.3439 0.24341667,0.24341667 0 0 1 -0.18786,0.093 z m -15.55486,-0.5927 a 0.26458334,0.26458334 0 0 1 -0.20637,-0.1085 0.26458334,0.26458334 0 0 1 0.0635,-0.3492 l 0.28046,-0.1905 a 0.25135417,0.25135417 0 1 1 0.26458,0.4207 l -0.26458,0.1825 a 0.26458334,0.26458334 0 0 1 -0.12965,0.037 z m 13.63398,-0.7197 a 0.26458334,0.26458334 0 0 1 -0.12171,-0.032 l -0.28839,-0.1535 a 0.25135417,0.25135417 0 1 1 0.23018,-0.4445 l 0.30163,0.1614 a 0.24870834,0.24870834 0 0 1 -0.12171,0.4683 z m -11.58875,-0.4418 a 0.25135417,0.25135417 0 0 1 -0.10583,-0.4789 l 0.31221,-0.1376 a 0.26458334,0.26458334 0 0 1 0.19579,0.463 l -0.29898,0.1297 a 0.24341667,0.24341667 0 0 1 -0.11113,0.024 z m 9.44827,-0.4948 a 0.26458334,0.26458334 0 0 1 -0.0794,0 l -0.31221,-0.1005 a 0.25135417,0.25135417 0 1 1 0.14552,-0.4789 l 0.32544,0.1032 a 0.25135417,0.25135417 0 0 1 -0.0794,0.4894 z m -7.24694,-0.2646 a 0.25135417,0.25135417 0 0 1 -0.0609,-0.4948 l 0.33338,-0.077 a 0.249418,0.249418 0 1 1 0.10847,0.4869 l -0.32014,0.077 a 0.22489584,0.22489584 0 0 1 -0.0688,0 z m 4.97417,-0.2646 h -0.037 l -0.32279,-0.042 a 0.26458334,0.26458334 0 0 1 -0.22225,-0.2778 0.24870834,0.24870834 0 0 1 0.26458,-0.2196 l 0.33867,0.042 a 0.24606251,0.24606251 0 0 1 0.21166,0.2831 0.26458334,0.26458334 0 0 1 -0.24077,0.209 z m -2.667,-0.1005 a 0.26458334,0.26458334 0 0 1 -0.0159,-0.5027 c 0.11377,0 0.22754,-0.013 0.34131,-0.016 a 0.25135417,0.25135417 0 1 1 0.0185,0.5001 l -0.32808,0.016 z"
         id="path1346932"
         style="fill:#e9edf9;stroke-width:0.143532" />
      <path
         class="cls-387"
         d="m 367.65773,1079.2551 h 10.0039 a 4.2121668,4.2121668 0 0 1 3.79677,2.4209 4.2174584,4.2174584 0 0 0 -4.01109,-3.0321 h -9.525 a 4.2121668,4.2121668 0 0 0 -4.0296,3.0321 4.2068751,4.2068751 0 0 1 3.76502,-2.4209 z"
         id="path1346934"
         style="fill:#c0b2d8;stroke-width:0.143532" />
      <path
         class="cls-388"
         d="m 381.46898,1081.676 a 4.2121668,4.2121668 0 0 0 -3.79677,-2.4209 h -10.01448 a 4.2068751,4.2068751 0 0 0 -3.79412,2.4209 4.1354376,4.1354376 0 0 0 -0.40482,1.778 v 4.4979 h 0.94192 v -3.7041 a 4.2121668,4.2121668 0 0 1 4.19894,-4.199 h 8.26029 a 4.2121668,4.2121668 0 0 1 4.19894,4.199 v 3.7041 h 0.79375 v -4.4979 a 4.1698334,4.1698334 0 0 0 -0.38365,-1.778 z"
         id="path1346936"
         style="fill:#937ab6;stroke-width:0.143532" />
      <path
         class="cls-389"
         d="m 365.2315,1084.2689 a 3.1750001,3.1750001 0 0 1 3.175,-3.175 h 8.46667 a 3.1750001,3.1750001 0 0 1 3.175,3.175 v 3.6751 h 1.02658 v -3.7042 a 4.2121668,4.2121668 0 0 0 -4.19894,-4.1989 h -8.26558 a 4.2121668,4.2121668 0 0 0 -4.19894,4.1989 v 3.7042 h 0.82021 z"
         id="path1346938"
         style="fill:#7758a0;stroke-width:0.143532" />
      <path
         class="cls-390"
         d="m 376.86788,1081.0939 h -8.46667 a 3.1750001,3.1750001 0 0 0 -3.175,3.175 v 3.6751 h 14.81667 v -3.6751 a 3.1750001,3.1750001 0 0 0 -3.175,-3.175 z"
         id="path1346940"
         style="fill:#4a1e2c;stroke-width:0.143532" />
      <path
         class="cls-391"
         d="M 380.32334,1097.6331 H 365.0119 a 1.5531042,1.5531042 0 0 1 -1.54782,-1.5479 v 1.7436 a 3.3575626,3.3575626 0 0 0 3.34698,3.3497 h 11.70782 a 3.3575626,3.3575626 0 0 0 3.34698,-3.3497 v -1.7436 a 1.5531042,1.5531042 0 0 1 -1.54252,1.5479 z"
         id="path1346942"
         style="fill:#8d72b0;stroke-width:0.143532" />
      <path
         class="cls-392"
         d="m 381.06946,1087.944 h -17.60008 v 8.1359 a 1.5531042,1.5531042 0 0 0 1.54252,1.5532 h 15.30614 a 1.5531042,1.5531042 0 0 0 1.54782,-1.5479 v -8.1412 z m -0.88635,0 v 3.7888 c 0,2.3019 -0.41275,4.1858 -2.71463,4.1858 H 367.327 c -2.30187,0 -2.09021,-1.8839 -2.09021,-4.1858 v -3.7782 z"
         id="path1346944"
         style="fill:#a997c8;stroke-width:0.143532" />
      <path
         class="cls-393"
         d="m 365.23679,1091.7328 c 0,2.3019 -0.21166,4.1858 2.09021,4.1858 h 10.14148 c 2.30188,0 2.71463,-1.8839 2.71463,-4.1858 v -3.7782 h -14.94632 z m 12.89844,1.7542 c 0,0.8784 -2.46062,1.5875 -5.49275,1.5875 -3.03212,0 -5.4901,-0.7117 -5.4901,-1.5875 0,-0.8757 2.45798,-1.5875 5.4901,-1.5875 3.03213,0 5.49275,0.7065 5.49275,1.5875 z"
         id="path1346946"
         style="fill:#e3e2db;stroke-width:0.143532" />
      <ellipse
         class="cls-394"
         cx="372.64249"
         cy="1093.4871"
         rx="5.4901042"
         ry="1.5901459"
         id="ellipse1346948"
         style="fill:#dcd9c8;stroke-width:0.143532" />
      <circle
         class="cls-395"
         cx="372.63718"
         cy="1088.9679"
         r="5.9663539"
         id="circle1346950"
         style="fill:url(#Degradado_sin_nombre_83);stroke-width:0.143532" />
      <path
         class="cls-396"
         d="m 377.18273,1085.1103 a 4.908021,4.908021 0 0 1 0.52917,2.1855 5.0588335,5.0588335 0 1 1 -10.11502,0 4.9106668,4.9106668 0 0 1 0.55562,-2.249 5.9663543,5.9663543 0 1 0 9.03552,0.063 z"
         id="path1346952"
         style="opacity:0.2;mix-blend-mode:multiply;fill:url(#linearGradient1374585);stroke-width:0.143532" />
      <g
         class="cls-397"
         id="g1346956"
         style="mix-blend-mode:multiply;stroke-width:0.542483"
         transform="matrix(0.26458334,0,0,0.26458334,199.64731,1025.4018)">
        <path
           class="cls-398"
           d="m 653.81,255.32 v 0 a 0.53,0.53 0 0 1 -0.32,-0.12 v 0 l -0.06,-0.06 v 0 0 l -9.82,-14.5 a 0.5,0.5 0 0 1 0.07,-0.63 0.49,0.49 0 0 1 0.63,-0.06 l 9.54,6.63 9.56,-6.64 a 0.5,0.5 0 0 1 0.69,0.69 l -9.83,14.51 -0.05,0.06 v 0 0 0 a 0.53,0.53 0 0 1 -0.32,0.12 v 0 z m 0.5,-7.93 v 5.81 l 7.43,-11 z m -8.41,-5.14 7.41,10.94 v -5.8 z m 7.92,3.1 v 0 a 0.53,0.53 0 0 1 -0.28,-0.1 l -9.83,-6.75 a 0.49,0.49 0 0 1 -0.13,-0.68 l 9.82,-15 a 0.18,0.18 0 0 1 0.05,-0.07 v 0 c 0,0 0,0 0,0 v 0 a 0.49,0.49 0 0 1 0.33,-0.13 v 0 a 0.53,0.53 0 0 1 0.33,0.12 v 0 a 0.12,0.12 0 0 0 0.05,0.05 v 0 0.05 l 9.84,15 a 0.49,0.49 0 0 1 -0.14,0.68 l -9.82,6.75 a 0.56,0.56 0 0 1 -0.28,0.1 v 0 z m 0.49,-20.62 V 243.9 L 663,238 Z m -9.64,13.27 8.65,5.94 v -19.21 z m 16.39,-0.14 h -0.18 l -5.08,-2 a 0.51,0.51 0 0 1 -0.27,-0.65 0.5,0.5 0 0 1 0.65,-0.28 l 5.07,2 a 0.50894499,0.50894499 0 0 1 -0.19,1 z m -14.49,0 a 0.51,0.51 0 0 1 -0.46,-0.31 0.5,0.5 0 0 1 0.28,-0.65 l 5.06,-2 a 0.5004498,0.5004498 0 1 1 0.37,0.93 l -5.06,2 a 0.58,0.58 0 0 1 -0.19,-0.01 z"
           id="path1346954"
           style="fill:url(#linearGradient1374696);fill-opacity:1;stroke-width:0.542483" />
      </g>
      <g
         id="g1020"
         style="mix-blend-mode:overlay;fill:#f2f2f2;fill-opacity:1;stroke-width:0.542483"
         transform="matrix(0.26458334,0,0,0.26458334,199.64731,1025.4018)">
        <path
           id="path3386"
           class="cls-400"
           d="m 654.21,275.8 -0.28,0.17 -1.09,0.68 -0.23,0.14 -3.74,2.33 3.74,2.33 0.24,0.14 1.36,0.85 1.35,-0.84 v 0 a 1.58,1.58 0 0 0 0.24,-0.15 l 3.74,-2.32 -3.74,-2.33 -0.23,-0.14 z m 0,1.09 a 2.23,2.23 0 1 1 -2.23,2.23 2.22,2.22 0 0 1 2.23,-2.23 z m -2.64,1.24 a 2.81,2.81 0 0 0 0,2 l -1.6,-1 z m 5.28,0 1.6,1 -1.6,1 a 2.67,2.67 0 0 0 0,-2 z"
           style="fill:#f2f2f2;fill-opacity:1;stroke-width:0.542483" />
        <path
           id="path3388"
           class="cls-400"
           d="m 660.1,279.65 a 1,1 0 0 0 -0.55,0.16 l -4.79,3 v 0 a 1,1 0 0 0 0.51,0.13 1.11,1.11 0 0 0 0.55,-0.16 l 0.94,-0.59 v 0 l 3.85,-2.39 v 0 a 1,1 0 0 0 -0.51,-0.12 z"
           style="fill:#f2f2f2;fill-opacity:1;stroke-width:0.542483" />
        <path
           id="path3390"
           class="cls-400"
           d="m 653.1,275.3 a 1.11,1.11 0 0 0 -0.55,0.16 l -0.94,0.58 v 0 l -3.85,2.39 a 1,1 0 0 0 1.11,0 l 4.79,-3 v 0 a 0.9,0.9 0 0 0 -0.51,-0.13 z"
           style="fill:#f2f2f2;fill-opacity:1;stroke-width:0.542483" />
      </g>
    </g>
  </g>
</svg>
