<svg width="20" height="15" viewBox="0 0 20 15" fill="none" xmlns="http://www.w3.org/2000/svg">
<rect width="20" height="15" rx="1.25" fill="white"/>
<mask id="mask0_520_1618" style="mask-type:luminance" maskUnits="userSpaceOnUse" x="0" y="0" width="20" height="15">
<rect width="20" height="15" rx="1.25" fill="white"/>
</mask>
<g mask="url(#mask0_520_1618)">
<path fill-rule="evenodd" clip-rule="evenodd" d="M20 0H0V1H20V0ZM20 2.00016H0V3.00016H20V2.00016ZM0 4.00008H20V5.00008H0V4.00008ZM20 6H0V7H20V6ZM0 7.99992H20V8.99992H0V7.99992ZM20 10H0V11H20V10ZM0 12.0002H20V13.0002H0V12.0002ZM20 14.0001H0V15.0001H20V14.0001Z" fill="#D02F44"/>
<rect width="8.57143" height="7" fill="#46467F"/>
<g filter="url(#filter0_d_520_1618)">
<path fill-rule="evenodd" clip-rule="evenodd" d="M3.8097 1.50012C3.8097 1.77626 3.5965 2.00012 3.33351 2.00012C3.07052 2.00012 2.85732 1.77626 2.85732 1.50012C2.85732 1.22398 3.07052 1.00012 3.33351 1.00012C3.5965 1.00012 3.8097 1.22398 3.8097 1.50012ZM1.90483 1.50014C1.90483 1.77628 1.69164 2.00014 1.42864 2.00014C1.16565 2.00014 0.952454 1.77628 0.952454 1.50014C0.952454 1.224 1.16565 1.00014 1.42864 1.00014C1.69164 1.00014 1.90483 1.224 1.90483 1.50014ZM5.23821 2.00012C5.50121 2.00012 5.7144 1.77626 5.7144 1.50012C5.7144 1.22398 5.50121 1.00012 5.23821 1.00012C4.97522 1.00012 4.76202 1.22398 4.76202 1.50012C4.76202 1.77626 4.97522 2.00012 5.23821 2.00012ZM7.61911 1.50012C7.61911 1.77626 7.40591 2.00012 7.14292 2.00012C6.87993 2.00012 6.66673 1.77626 6.66673 1.50012C6.66673 1.22398 6.87993 1.00012 7.14292 1.00012C7.40591 1.00012 7.61911 1.22398 7.61911 1.50012ZM2.38116 3.00018C2.64415 3.00018 2.85735 2.77633 2.85735 2.50018C2.85735 2.22404 2.64415 2.00018 2.38116 2.00018C2.11817 2.00018 1.90497 2.22404 1.90497 2.50018C1.90497 2.77633 2.11817 3.00018 2.38116 3.00018ZM4.76205 2.50018C4.76205 2.77633 4.54886 3.00018 4.28586 3.00018C4.02287 3.00018 3.80967 2.77633 3.80967 2.50018C3.80967 2.22404 4.02287 2.00018 4.28586 2.00018C4.54886 2.00018 4.76205 2.22404 4.76205 2.50018ZM6.19057 3.00008C6.45356 3.00008 6.66676 2.77622 6.66676 2.50008C6.66676 2.22394 6.45356 2.00008 6.19057 2.00008C5.92757 2.00008 5.71438 2.22394 5.71438 2.50008C5.71438 2.77622 5.92757 3.00008 6.19057 3.00008ZM7.61911 3.50024C7.61911 3.77639 7.40591 4.00024 7.14292 4.00024C6.87993 4.00024 6.66673 3.77639 6.66673 3.50024C6.66673 3.2241 6.87993 3.00024 7.14292 3.00024C7.40591 3.00024 7.61911 3.2241 7.61911 3.50024ZM5.23811 4.00024C5.50111 4.00024 5.7143 3.77639 5.7143 3.50024C5.7143 3.2241 5.50111 3.00024 5.23811 3.00024C4.97512 3.00024 4.76192 3.2241 4.76192 3.50024C4.76192 3.77639 4.97512 4.00024 5.23811 4.00024ZM3.8097 3.50024C3.8097 3.77639 3.5965 4.00024 3.33351 4.00024C3.07052 4.00024 2.85732 3.77639 2.85732 3.50024C2.85732 3.2241 3.07052 3.00024 3.33351 3.00024C3.5965 3.00024 3.8097 3.2241 3.8097 3.50024ZM1.42871 4.00024C1.6917 4.00024 1.9049 3.77639 1.9049 3.50024C1.9049 3.2241 1.6917 3.00024 1.42871 3.00024C1.16571 3.00024 0.952515 3.2241 0.952515 3.50024C0.952515 3.77639 1.16571 4.00024 1.42871 4.00024ZM2.85715 4.5C2.85715 4.77614 2.64395 5 2.38096 5C2.11796 5 1.90476 4.77614 1.90476 4.5C1.90476 4.22386 2.11796 4 2.38096 4C2.64395 4 2.85715 4.22386 2.85715 4.5ZM4.28586 5C4.54886 5 4.76205 4.77614 4.76205 4.5C4.76205 4.22386 4.54886 4 4.28586 4C4.02287 4 3.80967 4.22386 3.80967 4.5C3.80967 4.77614 4.02287 5 4.28586 5ZM6.66686 4.5C6.66686 4.77614 6.45366 5 6.19067 5C5.92768 5 5.71448 4.77614 5.71448 4.5C5.71448 4.22386 5.92768 4 6.19067 4C6.45366 4 6.66686 4.22386 6.66686 4.5ZM7.14292 6.00017C7.40591 6.00017 7.61911 5.77631 7.61911 5.50016C7.61911 5.22402 7.40591 5.00016 7.14292 5.00016C6.87993 5.00016 6.66673 5.22402 6.66673 5.50016C6.66673 5.77631 6.87993 6.00017 7.14292 6.00017ZM5.7144 5.50016C5.7144 5.77631 5.50121 6.00017 5.23821 6.00017C4.97522 6.00017 4.76202 5.77631 4.76202 5.50016C4.76202 5.22402 4.97522 5.00016 5.23821 5.00016C5.50121 5.00016 5.7144 5.22402 5.7144 5.50016ZM3.33351 6.00017C3.5965 6.00017 3.8097 5.77631 3.8097 5.50016C3.8097 5.22402 3.5965 5.00016 3.33351 5.00016C3.07052 5.00016 2.85732 5.22402 2.85732 5.50016C2.85732 5.77631 3.07052 6.00017 3.33351 6.00017ZM1.9049 5.50016C1.9049 5.77631 1.6917 6.00017 1.42871 6.00017C1.16571 6.00017 0.952515 5.77631 0.952515 5.50016C0.952515 5.22402 1.16571 5.00016 1.42871 5.00016C1.6917 5.00016 1.9049 5.22402 1.9049 5.50016Z" fill="url(#paint0_linear_520_1618)"/>
</g>
</g>
<defs>
<filter id="filter0_d_520_1618" x="0.952454" y="1.00012" width="6.66666" height="5.62506" filterUnits="userSpaceOnUse" color-interpolation-filters="sRGB">
<feFlood flood-opacity="0" result="BackgroundImageFix"/>
<feColorMatrix in="SourceAlpha" type="matrix" values="0 0 0 0 0 0 0 0 0 0 0 0 0 0 0 0 0 0 127 0" result="hardAlpha"/>
<feOffset dy="0.625"/>
<feColorMatrix type="matrix" values="0 0 0 0 0 0 0 0 0 0 0 0 0 0 0 0 0 0 0.06 0"/>
<feBlend mode="normal" in2="BackgroundImageFix" result="effect1_dropShadow_520_1618"/>
<feBlend mode="normal" in="SourceGraphic" in2="effect1_dropShadow_520_1618" result="shape"/>
</filter>
<linearGradient id="paint0_linear_520_1618" x1="0.952454" y1="1.00012" x2="0.952454" y2="6.00012" gradientUnits="userSpaceOnUse">
<stop stop-color="white"/>
<stop offset="1" stop-color="#F0F0F0"/>
</linearGradient>
</defs>
</svg>
