<?xml version="1.0" encoding="UTF-8" standalone="no"?>
<svg
   xmlns:dc="http://purl.org/dc/elements/1.1/"
   xmlns:cc="http://creativecommons.org/ns#"
   xmlns:rdf="http://www.w3.org/1999/02/22-rdf-syntax-ns#"
   xmlns:svg="http://www.w3.org/2000/svg"
   xmlns="http://www.w3.org/2000/svg"
   xmlns:sodipodi="http://sodipodi.sourceforge.net/DTD/sodipodi-0.dtd"
   xmlns:inkscape="http://www.inkscape.org/namespaces/inkscape"
   version="1.1"
   id="svg82887"
   width="23.379864"
   height="22.83993">
  <metadata
     id="metadata82893">
    <rdf:RDF>
      <cc:Work
         rdf:about="">
        <dc:format>image/svg+xml</dc:format>
        <dc:type
           rdf:resource="http://purl.org/dc/dcmitype/StillImage" />
      </cc:Work>
    </rdf:RDF>
  </metadata>
  <defs
     id="defs82891" />
  <sodipodi:namedview
     pagecolor="#ffffff"
     bordercolor="#666666"
     borderopacity="1"
     objecttolerance="10"
     gridtolerance="10"
     guidetolerance="10"
     inkscape:pageopacity="0"
     inkscape:pageshadow="2"
     inkscape:window-width="640"
     inkscape:window-height="480"
     id="namedview82889" />
  <inkscape:clipboard
     style="font-variation-settings:normal;opacity:1;vector-effect:none;fill:#112338;fill-opacity:1;stroke-width:0.04577424;stroke-linecap:butt;stroke-linejoin:miter;stroke-miterlimit:4;stroke-dasharray:none;stroke-dashoffset:0;stroke-opacity:1;stop-color:#000000;stop-opacity:1"
     min="1653.2959,57.466049"
     max="1676.6757,80.305978" />
  <g
     id="g82895"
     transform="matrix(3.7795275,0,0,3.7795275,-1653.2959,-57.023679)">
    <path
       style="display:inline;fill:#112338;fill-opacity:1;stroke-width:0.0121111"
       d="m 439.55887,21.127673 c -0.0588,-0.01148 -0.31067,-0.116275 -0.45247,-0.188292 -0.74386,-0.377774 -1.33145,-1.094517 -1.56133,-1.904503 -0.0797,-0.280775 -0.11025,-0.516828 -0.11053,-0.853835 -2.4e-4,-0.276591 0.0115,-0.399884 0.0607,-0.63999 0.22907,-1.117956 1.09668,-2.041977 2.2017,-2.344829 0.6315,-0.173074 1.35387,-0.138004 1.94878,0.09461 0.72449,0.283283 1.3074,0.814637 1.6561,1.509631 0.15933,0.317568 0.25574,0.635951 0.30438,1.005132 0.0191,0.14495 0.019,0.598857 -2.3e-4,0.750891 -0.0606,0.480251 -0.21935,0.91795 -0.47373,1.306028 -0.36725,0.560283 -0.86538,0.968888 -1.47204,1.207484 -0.18718,0.07362 -0.25419,0.07794 -0.31202,0.02015 l -0.0392,-0.03919 -0.007,-0.547819 c -0.008,-0.586343 -0.0109,-0.61704 -0.0752,-0.761388 -0.0159,-0.03574 -0.0512,-0.09302 -0.0785,-0.127285 l -0.0495,-0.0623 0.0992,-0.01388 c 0.31706,-0.04438 0.56406,-0.131277 0.77717,-0.273432 0.25917,-0.172876 0.41887,-0.441168 0.49733,-0.835539 0.0258,-0.129776 0.037,-0.494085 0.0187,-0.610845 -0.0311,-0.199066 -0.12965,-0.419794 -0.25309,-0.567235 l -0.0486,-0.05809 0.0298,-0.10253 c 0.0529,-0.182036 0.0388,-0.437305 -0.0356,-0.644635 -0.0236,-0.06579 -0.0312,-0.07532 -0.0676,-0.0847 -0.11254,-0.02901 -0.43194,0.08804 -0.70885,0.259791 -0.069,0.04278 -0.10591,0.05863 -0.12776,0.05483 -0.0169,-0.003 -0.086,-0.01699 -0.15353,-0.03123 -0.3863,-0.08142 -0.80934,-0.08142 -1.19565,0 -0.0675,0.01424 -0.13694,0.02833 -0.15424,0.03134 -0.0227,0.004 -0.0555,-0.0099 -0.11739,-0.04962 -0.24695,-0.158288 -0.59659,-0.286268 -0.72511,-0.265412 -0.039,0.0063 -0.0418,0.01049 -0.0707,0.105261 -0.0469,0.153678 -0.0588,0.232241 -0.0578,0.382578 6.7e-4,0.111625 0.007,0.159561 0.0312,0.241435 l 0.0303,0.102158 -0.0466,0.05529 c -0.12232,0.145068 -0.22383,0.37238 -0.25489,0.570779 -0.0183,0.116927 -0.007,0.481313 0.0188,0.610719 0.0621,0.310362 0.1824,0.557256 0.35018,0.718364 0.12611,0.121093 0.32947,0.238622 0.52835,0.305342 0.0864,0.029 0.31765,0.07803 0.42655,0.09045 l 0.0693,0.0079 -0.0472,0.05967 c -0.0613,0.07751 -0.10554,0.172358 -0.12905,0.276464 -0.0184,0.0815 -0.0201,0.08408 -0.0693,0.102286 -0.10843,0.04016 -0.16513,0.04906 -0.31689,0.04973 -0.15548,6.71e-4 -0.15847,1.87e-4 -0.23941,-0.04043 -0.10481,-0.0526 -0.19546,-0.14006 -0.27844,-0.268669 -0.12019,-0.186287 -0.30278,-0.317532 -0.46437,-0.333788 -0.093,-0.0094 -0.16228,0.01067 -0.16228,0.04687 0,0.02758 0.0973,0.126083 0.18304,0.185295 0.0292,0.02018 0.082,0.07468 0.11733,0.121112 0.0576,0.07573 0.0866,0.129156 0.1929,0.355125 0.0583,0.123879 0.20471,0.237921 0.36662,0.285515 0.0366,0.01077 0.14291,0.02569 0.23616,0.03316 0.13854,0.0111 0.19117,0.0104 0.28764,-0.0038 l 0.11809,-0.01742 0.003,0.212495 c 0.006,0.427195 0.003,0.450086 -0.057,0.489581 -0.0319,0.02088 -0.0967,0.03167 -0.13982,0.02326 z"
       id="path759" />
  </g>
</svg>
