<svg width="110" height="110" viewBox="0 0 110 110" fill="none" xmlns="http://www.w3.org/2000/svg">
<path d="M107.85 1.62988H1.63V107.85H107.85V1.62988Z" fill="#00E2ED"/>
<path d="M109.48 109.48H0V0H109.48V109.48ZM3.26001 106.22H106.21V3.27002H3.26001V106.22Z" fill="#232323"/>
<path d="M44.2001 68.8698C43.3901 68.8698 42.5901 68.5598 41.9701 67.9498C40.7401 66.7198 40.7401 64.7199 41.9701 63.4899L78.4 27.0597C79.63 25.8297 81.63 25.8297 82.86 27.0597C84.09 28.2897 84.09 30.2899 82.86 31.5199L46.4301 67.9498C45.8101 68.5598 45.0101 68.8698 44.2001 68.8698Z" fill="#232323"/>
<path d="M75.4701 51.6498C74.6601 51.6498 73.86 51.3399 73.24 50.7299L67.03 44.5199C65.8 43.2899 65.8 41.2897 67.03 40.0597C68.26 38.8297 70.26 38.8297 71.49 40.0597L77.7001 46.2699C78.9301 47.4999 78.9301 49.4999 77.7001 50.7299C77.0901 51.3399 76.2801 51.6498 75.4701 51.6498Z" fill="#232323"/>
<path d="M50.41 68.8698C49.6 68.8698 48.8001 68.5598 48.1801 67.9498L41.9701 61.7399C40.7401 60.5099 40.7401 58.5097 41.9701 57.2797C43.2001 56.0497 45.2001 56.0497 46.4301 57.2797L52.64 63.4899C53.87 64.7199 53.87 66.7198 52.64 67.9498C52.02 68.5598 51.22 68.8698 50.41 68.8698Z" fill="#232323"/>
<path d="M83.2001 43.9298C82.3901 43.9298 81.5901 43.6199 80.9701 43.0099L74.76 36.7997C73.53 35.5697 73.53 33.5697 74.76 32.3397C75.99 31.1097 77.9901 31.1097 79.2201 32.3397L85.4301 38.5497C86.6601 39.7797 86.6601 41.7799 85.4301 43.0099C84.8101 43.6199 84.0001 43.9298 83.2001 43.9298Z" fill="#232323"/>
<path d="M36.2001 86.8098C32.7001 86.8098 29.4201 85.45 26.9501 82.98C21.8501 77.88 21.8501 69.57 26.9501 64.47C29.4201 62 32.7101 60.6399 36.2001 60.6399C39.6901 60.6399 42.9801 62 45.4501 64.47C47.9201 66.94 49.2801 70.23 49.2801 73.72C49.2801 77.21 47.9201 80.5 45.4501 82.97C42.9801 85.45 39.6901 86.8098 36.2001 86.8098ZM36.2001 66.9399C34.3901 66.9399 32.6801 67.6499 31.4001 68.9299C28.7501 71.5799 28.7501 75.8798 31.4001 78.5298C32.6801 79.8098 34.3901 80.52 36.2001 80.52C38.0101 80.52 39.72 79.8098 41 78.5298C42.2801 77.2498 42.99 75.54 42.99 73.73C42.99 71.92 42.2801 70.2099 41 68.9299C39.71 67.6399 38.0101 66.9399 36.2001 66.9399Z" fill="white"/>
</svg>
