<svg width="59" height="45" viewBox="0 0 59 45" fill="none" xmlns="http://www.w3.org/2000/svg">
<path opacity="0.5" d="M41.7101 6.3999L38.1201 21.04L44.8701 21.1299L30.7201 42.9302L33.7902 29.98L26.3901 29.8901L41.7101 6.39014V6.3999Z" fill="#1D1D1B"/>
<path d="M29.5002 36.8501C27.3402 37.9001 24.9403 38.4902 22.4303 38.4902C13.4903 38.4902 6.24023 31.2398 6.24023 22.2998C6.24023 13.3598 13.4903 6.10986 22.4303 6.10986C27.4003 6.10986 31.8402 8.3299 34.8202 11.8999L38.2102 6.81006C34.1802 2.72006 28.6203 0.200195 22.4303 0.200195C10.2103 0.200195 0.280273 10.1401 0.280273 22.3501C0.280273 34.5601 10.2203 44.5 22.4303 44.5C24.2403 44.5 26.0502 44.2699 27.7502 43.8599L29.5002 36.8501Z" fill="#1D1D1B"/>
<path d="M44.2902 6.75L43.0602 12.6001C48.2602 12.8901 52.4102 17.22 52.4102 22.48C52.4102 27.74 47.9701 32.4199 42.4701 32.4199C42.0001 32.4199 41.5301 32.3598 41.0701 32.2998L37.6201 37.6201C39.1401 38.0901 40.7801 38.3799 42.4701 38.3799C51.2401 38.3799 58.3701 31.25 58.3701 22.48C58.3701 14.35 52.2302 7.62977 44.2802 6.75977L44.2902 6.75Z" fill="#1D1D1B"/>
</svg>
