<svg width="60" height="60" viewBox="0 0 60 60" fill="none" xmlns="http://www.w3.org/2000/svg">
<path fill-rule="evenodd" clip-rule="evenodd" d="M30 2.58474C30 1.433 31.2442 0.710951 32.2441 1.28237L43.125 7.49997L55.3053 14.4601C55.8894 14.7939 56.25 15.4152 56.25 16.0881V30L44.9854 23.5631C43.8327 22.9044 42.4173 22.9044 41.2646 23.5631L30 30V15V2.58474ZM3.75 30V16.0881C3.75 15.4152 4.11054 14.7939 4.69474 14.4601L15.0145 8.56312C16.1673 7.90434 17.5827 7.90434 18.7355 8.56312L30 15L3.75 30ZM30 57.4152C30 58.5669 28.7558 59.289 27.7559 58.7175L16.875 52.5L4.69474 45.5398C4.11054 45.2059 3.75 44.5846 3.75 43.9119V30L15.0145 36.4368C16.1673 37.0956 17.5827 37.0956 18.7355 36.4368L30 30V45V57.4152ZM41.2646 51.4368C42.4173 52.0956 43.8327 52.0956 44.9854 51.4368L55.3053 45.5398C55.8894 45.2059 56.25 44.5846 56.25 43.9119V30L30 45L41.2646 51.4368Z" fill="#1D1D1F"/>
</svg>
