<svg width="61" height="71" viewBox="0 0 61 71" fill="none" xmlns="http://www.w3.org/2000/svg">
<path d="M29.3301 17.26C29.3301 17.49 29.1001 17.49 29.1001 17.49H28.8701C28.6401 17.49 28.6402 17.26 28.4102 17.03C28.4102 17.03 28.1802 16.8001 28.1802 16.5701C28.1802 16.3401 28.1802 16.3401 28.4102 16.3401L28.8701 16.5701C29.1001 16.8001 29.3301 17.03 29.3301 17.27M25.1602 14.9399C25.1602 13.7799 24.7001 13.0801 24.0001 13.0801C24.0001 13.0801 24.0001 13.3101 23.7701 13.3101V13.77H24.4701C24.4701 14.23 24.7001 14.4699 24.7001 14.9299H25.1602M33.2802 13.78C33.7402 13.78 33.9801 14.2399 34.2101 14.9399H34.6702C34.4402 14.7099 34.4401 14.48 34.4401 14.24C34.4401 14 34.4401 13.78 34.2101 13.54C33.9801 13.3 33.7501 13.0801 33.5101 13.0801C33.5101 13.0801 33.2802 13.3101 33.0502 13.3101C33.0502 13.5401 33.2802 13.54 33.2802 13.77M26.3201 17.49C26.1667 17.49 26.0901 17.4133 26.0901 17.26C26.0901 17.03 26.0901 16.8001 26.3201 16.5601C26.7801 16.5601 27.0201 16.3301 27.0201 16.3301C27.2501 16.3301 27.2501 16.5601 27.2501 16.5601C27.2501 16.7901 27.0202 17.02 26.5502 17.49H26.3201ZM23.7601 17.26C22.8301 16.8 22.6001 16.0999 22.6001 14.9399C22.6001 14.2399 22.6002 13.7801 23.0602 13.3201C23.2902 12.8601 23.7601 12.6201 24.2201 12.6201C24.6801 12.6201 24.9201 12.8501 25.3801 13.3201C25.6101 14.0201 25.8401 14.7099 25.8401 15.4099V15.8701H26.0701V15.6399C26.3001 15.6399 26.3002 15.18 26.3002 14.25C26.3002 13.55 26.3001 12.8599 25.8401 12.1599C25.3801 11.4599 24.9101 11 23.9801 11C23.2801 11 22.5901 11.4599 22.3601 12.1599C21.9001 13.0899 21.8002 13.7799 21.8002 14.9399C21.8002 15.8699 22.1202 16.8 23.0502 17.72C23.2802 17.49 23.5101 17.49 23.7501 17.26M52.7601 49.96C52.9901 49.96 52.9901 49.8699 52.9901 49.6599C52.9901 49.1499 52.7602 48.5501 52.0602 47.8701C51.3602 47.1701 50.2002 46.73 48.8102 46.55C48.5802 46.53 48.3501 46.53 48.3501 46.53C48.1968 46.4967 48.0435 46.48 47.8901 46.48C47.6601 46.46 47.1901 46.4101 46.9601 46.3601C47.6601 44.2001 47.8901 42.2999 47.8901 40.6299C47.8901 38.3099 47.4301 36.69 46.5001 35.3C45.5701 33.91 44.6401 33.21 43.4801 32.98C43.3268 33.1333 43.2501 33.2866 43.2501 33.4399C44.4101 33.8999 45.5701 34.83 46.2701 36.22C46.9701 37.84 47.2001 39.2401 47.2001 40.8601C47.2001 42.1601 46.9702 44.08 46.0402 46.54C45.1102 46.91 44.1801 47.7701 43.4901 49.1101C43.4901 49.3201 43.4901 49.4299 43.7201 49.4299C43.7201 49.4299 43.9502 49.2201 44.1802 48.8301C44.6402 48.4401 44.8801 48.0399 45.3401 47.6499C46.0401 47.2599 46.5001 47.05 47.2001 47.05C48.3601 47.05 49.5201 47.21 50.2201 47.54C51.1501 47.84 51.6101 48.17 51.8401 48.54C52.0701 48.89 52.3002 49.21 52.5402 49.51C52.5402 49.81 52.7701 49.95 52.7701 49.95M31.4202 16.3301C31.1902 16.1001 31.1901 15.6299 31.1901 15.1699C31.1901 14.2399 31.1901 13.7801 31.6501 13.0801C32.1101 12.6201 32.5802 12.3799 33.0402 12.3799C33.7402 12.3799 34.2002 12.8401 34.6602 13.3101C34.8902 14.0101 35.1201 14.4699 35.1201 15.1699C35.1201 16.3299 34.6601 17.03 33.7301 17.26C33.7301 17.26 33.9601 17.49 34.1901 17.49C34.6501 17.49 34.8901 17.72 35.3501 17.95C35.5801 16.56 35.8102 15.63 35.8102 14.47C35.8102 13.08 35.5801 12.15 35.1101 11.45C34.4101 10.75 33.7202 10.52 32.7902 10.52C32.0902 10.52 31.4001 10.75 30.7001 11.22C30.2401 11.92 30.0001 12.3801 30.0001 13.0801C30.0001 14.2401 30.2301 15.1701 30.7001 16.1001C30.9301 16.1001 31.1601 16.3301 31.4001 16.3301M34.2001 20.04C31.1801 22.13 28.8701 23.0601 27.0101 23.0601C25.3901 23.0601 23.7601 22.36 22.3701 21.2C22.6001 21.66 22.8301 22.1301 23.0701 22.3601L24.4601 23.75C25.3901 24.68 26.5501 25.1399 27.7101 25.1399C29.3301 25.1399 31.1901 24.2101 33.5101 22.5901L35.6001 21.2C36.0601 20.74 36.5302 20.2701 36.5302 19.5801C36.5302 19.3501 36.5302 19.1201 36.3002 19.1201C36.0702 18.6601 34.9101 17.96 32.5901 17.26C30.5001 16.33 28.8801 15.8701 27.9501 15.8701C27.2501 15.8701 26.0901 16.33 24.4701 17.26C23.0801 18.19 22.1501 19.12 22.1501 20.04C22.1501 20.04 22.3801 20.27 22.6101 20.74C24.0001 21.9 25.3902 22.6001 26.7902 22.6001C28.6502 22.6001 30.9701 21.6701 33.9801 19.3501V19.8101C34.2101 19.8101 34.2101 20.04 34.2101 20.04M39.5402 66.8899C40.4702 68.6299 42.0901 69.51 43.9501 69.51C44.4101 69.51 44.8801 69.44 45.3401 69.3C45.8001 69.21 46.2701 69.0401 46.5001 68.8601C46.7301 68.7001 46.9601 68.5401 47.2001 68.3501C47.6601 68.1901 47.6601 68.07 47.9001 67.96L51.8401 64.55C52.7701 63.81 53.7001 63.1601 54.8601 62.6001C55.7901 62.0401 56.7202 61.67 57.1802 61.46C57.8802 61.27 58.3402 61.0001 58.8002 60.6201C59.0302 60.2701 59.2601 59.83 59.2601 59.27C59.2601 58.6 58.8001 58.09 58.3301 57.72C57.8601 57.35 57.4001 57.0899 56.9401 56.9299C56.4801 56.7699 56.0101 56.4 55.3201 55.77C54.8601 55.17 54.3902 54.33 54.1602 53.24L53.9302 51.8899C53.7002 51.2599 53.7001 50.8 53.4701 50.54C53.4701 50.47 53.4701 50.45 53.2401 50.45C53.0101 50.45 52.5402 50.66 52.3102 51.05C51.8502 51.44 51.3802 51.8901 50.9202 52.3501C50.6902 52.8101 49.9902 53.2299 49.5302 53.6299C48.8302 54.0199 48.1402 54.23 47.6702 54.23C45.8102 54.23 44.8901 53.72 44.1901 52.72C43.7301 51.98 43.4901 51.1199 43.2601 50.1499C42.8001 49.7599 42.5601 49.55 42.1001 49.55C40.9401 49.55 40.4801 50.7599 40.4801 53.1899V60.3999C40.4801 60.6099 40.2501 61.07 40.2501 61.79C40.0201 62.51 40.0201 63.33 40.0201 64.25L39.5602 66.8201V66.8601M5.90015 65.6599C8.06015 65.9799 10.5401 66.6499 13.3501 67.6799C16.1601 68.6999 17.8701 69.23 18.5001 69.23C20.1201 69.23 21.4701 68.5101 22.5801 67.1201C22.8101 66.6701 22.8102 66.14 22.8102 65.53C22.8102 63.34 21.4901 60.57 18.8401 57.2L17.2601 55.0901C16.9401 54.6501 16.5402 53.9801 16.0302 53.0701C15.5402 52.1701 15.1001 51.47 14.7501 50.98C14.4501 50.45 13.9601 49.9099 13.3401 49.3799C12.7401 48.8499 12.0402 48.5001 11.2802 48.3101C10.3102 48.5001 9.63018 48.82 9.31018 49.26C8.99018 49.7 8.80012 50.19 8.75012 50.7C8.68012 51.19 8.54018 51.5099 8.31018 51.6699C8.08018 51.8099 7.68015 51.93 7.15015 52.04C7.03015 52.04 6.83014 52.0401 6.52014 52.0601H5.89014C4.66014 52.0601 3.83013 52.1999 3.38013 52.4299C2.80013 53.0999 2.50012 53.8699 2.50012 54.6799C2.50012 55.0499 2.59015 55.6801 2.78015 56.5601C2.97015 57.4201 3.06018 58.1101 3.06018 58.6001C3.06018 59.5501 2.78007 60.5 2.20007 61.45C1.62007 62.45 1.32007 63.19 1.32007 63.72C1.55007 64.62 3.08014 65.2501 5.89014 65.6201M13.6301 44.5701C13.6301 42.9701 14.0502 41.2101 14.9102 39.1201C15.7502 37.0301 16.5801 35.64 17.3901 34.71C17.3401 34.48 17.2302 34.48 17.0402 34.48L16.8102 34.25C16.1402 34.95 15.3301 36.5699 14.3501 38.8899C13.3801 40.9799 12.8701 42.9001 12.8701 44.3201C12.8701 45.3601 13.1301 46.2701 13.5901 47.0601C14.1001 47.8301 15.3302 48.9401 17.2802 50.3501L19.7401 51.95C22.3601 54.22 23.7501 55.8 23.7501 56.73C23.7501 57.22 23.5201 57.7 22.8201 58.24C22.3601 58.8 21.7301 59.0801 21.2001 59.0801C21.1501 59.0801 21.1301 59.13 21.1301 59.24C21.1301 59.26 21.3601 59.7299 21.8501 60.6299C22.8201 61.9499 24.9101 62.6001 27.7001 62.6001C32.8001 62.6001 36.7501 60.5101 39.7601 56.3401C39.7601 55.1801 39.7602 54.4599 39.5302 54.1599V53.3C39.5302 51.79 39.7601 50.6599 40.2301 49.9099C40.7001 49.1599 41.1601 48.8201 41.8501 48.8201C42.3101 48.8201 42.7801 48.9801 43.2401 49.3301C43.4701 47.5401 43.4701 45.9901 43.4701 44.6001C43.4701 42.4901 43.4701 40.7499 43.0101 39.1299C42.7801 37.7399 42.3101 36.5799 41.8501 35.6499L40.4601 33.5601C40.0001 32.8601 39.7602 32.17 39.3002 31.47C39.0702 30.54 38.8401 29.8499 38.8401 28.6899C38.1401 27.5299 37.6801 26.37 36.9801 25.21C36.5201 24.05 36.0501 22.89 35.5901 21.96L33.5001 23.5801C31.1801 25.2001 29.3201 25.8999 27.7001 25.8999C26.3101 25.8999 25.1501 25.67 24.4501 24.74L23.0602 23.5801C23.0602 24.2801 22.8301 25.1999 22.3601 26.1299L20.9001 28.9099C20.2501 30.5299 19.9001 31.4599 19.8301 32.1599C19.7401 32.6199 19.6701 33.0901 19.6201 33.0901L17.8801 36.5701C16.0001 40.0501 15.0502 43.2699 15.0502 45.9399C15.0502 46.4699 15.1001 47.0301 15.1901 47.5901C14.1501 46.8701 13.6401 45.8701 13.6401 44.5701M30.2401 66.51C27.2201 66.51 24.9102 66.92 23.2802 67.73V67.6599C22.1202 69.0499 20.8201 69.77 19.0101 69.77C17.8701 69.77 16.0902 69.33 13.6802 68.45C11.2402 67.61 9.09008 66.97 7.21008 66.55C7.02008 66.5 6.61018 66.4201 5.93018 66.3101C5.28018 66.2101 4.68014 66.1 4.14014 65.99C3.65014 65.89 3.10011 65.73 2.49011 65.51C1.91011 65.33 1.4501 65.09 1.1001 64.8C0.780098 64.51 0.620117 64.1801 0.620117 63.8101C0.620117 63.4401 0.700107 63.0401 0.860107 62.6201C1.01011 62.3601 1.17008 62.1099 1.33008 61.8799C1.49008 61.6199 1.63009 61.3899 1.72009 61.1599C1.86009 60.9499 1.95016 60.74 2.04016 60.51C2.13016 60.3 2.23014 60.0901 2.27014 59.8401C2.32014 59.6101 2.36011 59.3799 2.36011 59.1399C2.36011 58.8999 2.27008 58.21 2.08008 56.98C1.89008 55.77 1.80017 55.0099 1.80017 54.6799C1.80017 53.6599 2.03016 52.85 2.54016 52.27C3.05016 51.69 3.54017 51.3899 4.05017 51.3899H6.72009C6.93009 51.3899 7.25011 51.27 7.74011 51C7.90011 50.63 8.04013 50.33 8.13013 50.05C8.25013 49.77 8.29009 49.56 8.34009 49.47C8.39009 49.33 8.4301 49.1901 8.4801 49.0801C8.5701 48.9201 8.6901 48.73 8.8501 48.55C8.6601 48.32 8.57007 48.0199 8.57007 47.6499C8.57007 47.3899 8.57012 47.16 8.62012 47.02C8.62012 46.18 9.0101 45 9.8501 43.45L10.6602 41.99C11.3302 40.74 11.8401 39.8099 12.2101 38.8799C12.6001 37.9499 13.0201 36.56 13.4901 34.7C13.8601 33.08 14.7401 31.4501 16.1301 29.8301L17.8701 27.74C19.0801 26.35 19.8602 25.19 20.3102 24.26C20.7602 23.33 20.9801 22.17 20.9801 21.24C20.9801 20.78 20.8601 19.3801 20.6101 17.0601C20.3801 14.7401 20.2601 12.4201 20.2601 10.3301C20.2601 8.71008 20.4001 7.54989 20.7001 6.38989C21.0001 5.22989 21.5401 4.06989 22.3201 3.13989C23.0201 2.20989 23.9401 1.28007 25.3401 0.820068C26.7401 0.360068 28.3601 0.120117 30.2101 0.120117C30.9101 0.120117 31.6002 0.120098 32.3002 0.350098C33.0002 0.350098 33.9201 0.580049 35.0801 1.05005C36.0101 1.51005 36.9401 1.97992 37.6301 2.66992C38.5601 3.36992 39.2501 4.52994 39.9501 5.68994C40.4101 7.07994 40.8801 8.47008 41.1101 10.3301C41.3401 11.4901 41.3401 12.65 41.5701 14.27C41.5701 15.66 41.8002 16.59 41.8002 17.29C42.0302 17.99 42.0301 18.9101 42.2601 20.0701C42.4901 21.0001 42.7201 21.9301 43.1901 22.6201C43.6501 23.5501 44.1202 24.4799 44.8102 25.3999C45.5102 26.5599 46.4301 27.7201 47.3601 29.1101C49.4501 31.4301 51.0701 33.98 52.0001 36.53C53.1601 38.85 53.8601 41.8601 53.8601 45.0901C53.8601 46.6901 53.6302 48.24 53.1602 49.75C53.6202 49.75 53.8601 49.94 54.0901 50.26C54.3201 50.58 54.5502 51.2801 54.7902 52.3701L55.0201 54.0901C55.2501 54.6001 55.4802 55.09 56.1802 55.5C56.6402 55.92 57.1102 56.27 57.8002 56.54C58.2602 56.77 58.9602 57.1 59.4202 57.51C59.8802 57.97 60.1201 58.46 60.1201 58.97C60.1201 59.76 59.8902 60.34 59.4202 60.76C58.9602 61.22 58.4902 61.55 57.8002 61.76C57.3402 61.99 56.4101 62.4601 55.0201 63.1101C53.8601 63.8001 52.7002 64.6301 51.5402 65.6201L49.2201 67.5901C48.2901 68.4901 47.3602 69.14 46.6702 69.54C45.9702 69.96 45.0501 70.1699 44.1201 70.1699L42.5001 69.98C40.6401 69.49 39.4802 68.5699 38.7902 67.1499C35.0802 66.6999 32.0601 66.48 30.2101 66.48" fill="white"/>
</svg>
