<svg width="110" height="110" viewBox="0 0 110 110" fill="none" xmlns="http://www.w3.org/2000/svg">
<path d="M107.85 1.62988H1.63V107.85H107.85V1.62988Z" fill="#00E2ED"/>
<path d="M109.48 109.48H0V0H109.48V109.48ZM3.26001 106.22H106.21V3.27002H3.26001V106.22Z" fill="#232323"/>
<path d="M69.62 54.1799H39.85C38.13 54.1799 36.73 52.7798 36.73 51.0598V34.77C36.73 24.84 44.81 16.77 54.73 16.77C64.65 16.77 72.73 24.85 72.73 34.77V51.0598C72.74 52.7798 71.34 54.1799 69.62 54.1799ZM42.98 47.9299H66.5V34.76C66.5 28.28 61.22 23 54.74 23C48.26 23 42.98 28.28 42.98 34.76V47.9299Z" fill="white"/>
<path d="M72.54 45.98H36.9401C33.1801 45.98 30.13 49.0298 30.13 52.7898V82.7798C30.13 86.5398 33.1801 89.5898 36.9401 89.5898H72.54C76.3 89.5898 79.35 86.5398 79.35 82.7798V52.7898C79.35 49.0298 76.3 45.98 72.54 45.98ZM59.54 78.1499C59.74 78.9799 59.11 79.7798 58.26 79.7798H51.27C50.43 79.7798 49.81 79.0099 49.98 78.1899L52.15 67.7898C50.53 66.8598 49.4401 65.1199 49.4401 63.1199C49.4401 60.1499 51.8501 57.74 54.8201 57.74C57.7901 57.74 60.2001 60.1499 60.2001 63.1199C60.2001 65.2799 58.93 67.14 57.09 68L59.54 78.1499Z" fill="#232323"/>
</svg>
