<svg width="41" height="28" viewBox="0 0 41 28" fill="none" xmlns="http://www.w3.org/2000/svg">
<path d="M27.1451 0.817101L12.7076 8.49728C12.5576 8.57978 12.4376 8.69975 12.3551 8.84225C12.2726 8.98475 12.2275 9.15772 12.2275 9.32272V19.3122C12.2275 19.4847 12.2726 19.6502 12.3551 19.7927C12.4376 19.9352 12.5651 20.0627 12.7076 20.1377L27.1451 27.8171C27.7001 28.0946 28.3601 28.0499 28.8851 27.7124C29.4026 27.3674 29.7025 26.7821 29.6725 26.1596V2.46725C29.7025 1.84475 29.4026 1.25275 28.8851 0.915245C28.3676 0.570245 27.7076 0.532277 27.1451 0.809777V0.817101Z" fill="#1D1D1B"/>
<path d="M9.73001 8.92505H3.11501C2.45501 8.92505 1.81748 9.18734 1.35248 9.65234C0.887478 10.1173 0.625 10.7553 0.625 11.4153V17.2278C0.625 17.8878 0.887478 18.525 1.35248 18.99C1.81748 19.455 2.45501 19.7173 3.11501 19.7173H3.91751V25.1174C3.91751 25.8599 4.31501 26.5427 4.95251 26.9177C5.59751 27.2852 6.38498 27.2852 7.02998 26.9177C7.67498 26.5502 8.06499 25.8599 8.06499 25.1174V19.7173H9.7225C9.94 19.7173 10.1575 19.6278 10.3075 19.4778C10.465 19.3203 10.5475 19.1101 10.5475 18.8926V9.75781C10.5475 9.54031 10.4575 9.32261 10.3075 9.17261C10.15 9.01511 9.94 8.93237 9.7225 8.93237L9.73001 8.92505Z" fill="#1D1D1B"/>
<path d="M39.2199 13.0801H33.4074C32.9649 13.0801 32.5524 13.3201 32.3274 13.7026C32.1024 14.0851 32.1024 14.5653 32.3274 14.9478C32.5524 15.3303 32.9649 15.5703 33.4074 15.5703H39.2199C39.6624 15.5703 40.0749 15.3303 40.2999 14.9478C40.5249 14.5653 40.5249 14.0851 40.2999 13.7026C40.0749 13.3201 39.6624 13.0801 39.2199 13.0801Z" fill="#1D1D1B"/>
<path d="M33.9775 9.59258L39.01 6.68267C39.3925 6.45767 39.6326 6.04558 39.6326 5.60308C39.6326 5.16058 39.3925 4.74775 39.01 4.52275C38.6275 4.29775 38.1476 4.29775 37.7651 4.52275L32.7325 7.43267C32.4475 7.59767 32.2375 7.86749 32.155 8.18999C32.0725 8.51249 32.1176 8.85055 32.2826 9.13555C32.4476 9.42055 32.7175 9.6302 33.04 9.7127C33.3625 9.7952 33.7 9.75025 33.985 9.58525L33.9775 9.59258Z" fill="#1D1D1B"/>
<path d="M39.0099 21.9676L33.9774 19.0577C33.5949 18.8327 33.1149 18.8327 32.7324 19.0577C32.3499 19.2827 32.1099 19.6955 32.1099 20.138C32.1099 20.5805 32.3499 20.9926 32.7324 21.2176L37.7649 24.1275C38.1474 24.3525 38.6274 24.3525 39.0099 24.1275C39.3924 23.9025 39.6324 23.4904 39.6324 23.0479C39.6324 22.6054 39.3924 22.1926 39.0099 21.9676Z" fill="#1D1D1B"/>
</svg>
