<svg width="70" height="44" viewBox="0 0 70 44" fill="none" xmlns="http://www.w3.org/2000/svg">
<path d="M27.7702 43.0399H11.4303C10.5503 43.0399 9.67026 43.0399 8.78026 43.0399C7.55026 43.0399 6.37023 42.8196 5.25023 42.2996C4.53023 41.9696 3.83024 41.5798 3.26024 41.0198C2.81024 40.5698 2.37021 40.1099 1.98021 39.5999C1.41021 38.8499 1.01024 38.0399 0.760239 37.1399C0.580239 36.5099 0.420171 35.87 0.440171 35.2C0.450171 34.57 0.440288 33.9396 0.560288 33.3196C0.700288 32.5596 0.940269 31.8297 1.29027 31.1497C1.54027 30.6397 1.87025 30.1597 2.15025 29.6697C2.48025 29.0897 2.81025 28.51 3.15025 27.93C3.58025 27.18 4.01017 26.4398 4.44017 25.6898C5.02017 24.6898 5.59027 23.6898 6.17027 22.6898C6.74027 21.7098 7.31023 20.7298 7.88023 19.7498C8.66023 18.4098 9.43019 17.07 10.2102 15.72C11.3302 13.78 12.4403 11.8397 13.5603 9.89971C14.3103 8.58971 15.0702 7.28003 15.8202 5.97003C16.2202 5.28003 16.5702 4.56977 17.0902 3.95977C17.8202 3.09977 18.6503 2.37991 19.6503 1.84991C20.4403 1.42991 21.2602 1.15005 22.1402 0.990046C23.0602 0.820046 23.9903 0.849831 24.9103 1.01983C25.7603 1.16983 26.5602 1.44991 27.3202 1.84991C28.1602 2.29991 28.9003 2.88967 29.5403 3.60967C30.0803 4.21967 30.5103 4.90993 30.9103 5.61993C31.4203 6.51993 31.9602 7.40962 32.4702 8.29962C32.9002 9.04962 33.3102 9.81989 33.7502 10.5799C34.1202 11.2399 34.5202 11.8799 34.8902 12.5399C35.2302 13.1299 35.5502 13.7199 35.8802 14.3099C36.1202 14.7299 36.3802 15.1399 36.6202 15.5599C37.1402 16.4599 37.6403 17.3596 38.1603 18.2596C38.6403 19.0796 39.1202 19.89 39.6002 20.72C39.8602 21.16 40.0902 21.6199 40.3502 22.0599C40.5602 22.4199 40.7802 22.7697 40.9902 23.1297C41.2702 23.6197 41.5402 24.1099 41.8202 24.5999C41.8902 24.7299 41.9703 24.85 42.0503 24.97C42.0803 25.02 42.1202 25.0599 42.1402 25.1199C42.3902 25.7699 42.8303 26.3197 43.1703 26.9197C43.2103 26.9997 43.2503 27.0797 43.2903 27.1497C43.4503 27.4697 43.6002 27.7897 43.7702 28.1097C43.9302 28.3997 44.1203 28.67 44.2903 28.95C44.6003 29.46 44.9102 29.9798 45.2102 30.4998C45.5602 31.1098 45.9002 31.7299 46.2502 32.3499C46.4302 32.6599 46.6303 32.9598 46.8103 33.2698C47.1703 33.8898 47.5102 34.5199 47.8702 35.1399C48.1502 35.6299 48.4502 36.0997 48.7302 36.5897C49.1102 37.2497 49.4902 37.9199 49.8702 38.5799C50.0502 38.8899 50.1002 39.2399 50.1402 39.5799C50.3702 41.3399 49.1202 42.9796 47.2502 43.0296C45.7202 43.0696 44.1903 43.0296 42.6603 43.0296H27.7702V43.0399Z" fill="#1D1D1B"/>
<path d="M37.9102 9.18005C37.8602 8.21005 38.0101 7.25997 38.3501 6.34997C38.7101 5.38997 39.1802 4.47008 39.9102 3.72008C40.4702 3.14008 41.0601 2.60003 41.7401 2.16003C42.2001 1.86003 42.7001 1.65006 43.2001 1.45006C44.7301 0.850064 46.3001 0.770006 47.8801 1.14001C49.5801 1.53001 51.0102 2.38006 52.1702 3.70006C52.6702 4.27006 53.0502 4.89967 53.4202 5.54967C54.0702 6.66967 54.7101 7.80005 55.3601 8.93005C55.6101 9.37005 55.8701 9.79985 56.1301 10.2298C56.8701 11.4998 57.6101 12.7697 58.3401 14.0497C58.8301 14.8997 59.3102 15.77 59.8002 16.62C59.9902 16.96 60.2101 17.2797 60.4001 17.6097C60.6301 18.0097 60.8601 18.4197 61.0901 18.8197C61.4701 19.4697 61.8501 20.1197 62.2301 20.7797C62.4001 21.0697 62.5501 21.3798 62.7101 21.6698C62.8201 21.8598 62.9302 22.0499 63.0502 22.2499C63.5602 23.1099 64.0801 23.98 64.6001 24.85C64.6201 24.88 64.6401 24.9201 64.6501 24.9501C65.2901 26.1701 66.0001 27.3399 66.7101 28.5199C66.9401 28.8999 67.1401 29.2998 67.3601 29.6898C67.6301 30.1598 67.9201 30.6197 68.1501 31.1097C68.4001 31.6197 68.6302 32.1498 68.8002 32.6898C68.9402 33.1198 69.0002 33.5797 69.0402 34.0297C69.2102 35.8197 68.8801 37.5099 67.9501 39.0599C67.4501 39.8999 66.8302 40.6597 66.0502 41.2797C65.4502 41.7497 64.8001 42.1198 64.1001 42.4198C62.8901 42.9398 61.6301 43.1297 60.3201 43.0497C59.5801 42.9997 58.8602 42.86 58.1702 42.6C57.3302 42.28 56.5401 41.8799 55.8401 41.3099C54.9201 40.5699 54.2201 39.6598 53.6501 38.6298C53.3301 38.0498 52.9902 37.4898 52.6602 36.9198C52.2602 36.2298 51.8601 35.5299 51.4501 34.8299C50.8101 33.7299 50.1702 32.6399 49.5402 31.5399C49.0402 30.6799 48.5402 29.8098 48.0502 28.9398C47.4202 27.8398 46.7902 26.74 46.1602 25.64C45.3902 24.3 44.6301 22.97 43.8501 21.64C43.4301 20.91 42.9902 20.2001 42.5602 19.4701C41.9402 18.4101 41.3401 17.3299 40.7301 16.2699C40.1801 15.3099 39.6202 14.3398 39.0502 13.3798C38.5102 12.4698 38.1701 11.4901 37.9801 10.4501C37.9101 10.0301 37.9001 9.61983 37.8901 9.20983L37.9102 9.18005Z" fill="#1D1D1B"/>
</svg>
