<svg width="147" height="30" viewBox="0 0 147 30" fill="none" xmlns="http://www.w3.org/2000/svg">
<path d="M36.5942 9.78407H37.7342L37.7942 11.3541C38.4642 10.1941 39.5842 9.54407 41.0942 9.54407C42.8842 9.54407 44.2342 10.3641 44.8042 12.0141C45.4142 10.4241 46.6342 9.54407 48.4142 9.54407C50.8642 9.54407 52.4742 11.0541 52.4542 14.1541V19.9841H51.2342V14.7641C51.2342 11.3841 49.9042 10.6841 48.2142 10.6841C46.2742 10.6841 45.1342 12.1941 45.1342 14.7441V19.9841H43.9142V14.7641C43.9142 11.3841 42.5842 10.6841 40.8942 10.6841C38.9542 10.6841 37.8142 12.1941 37.8142 14.7441V19.9841H36.5942V9.78407Z" fill="#12243A"/>
<path d="M53.0842 9.78418H54.3442L58.0142 18.5142L61.7042 9.78418H62.9842L57.9942 21.6042C57.2642 23.3342 56.5442 24.2942 54.8742 24.2942C54.4442 24.2942 53.8542 24.1342 53.0642 23.8042L53.5142 22.7642C54.2242 23.0242 54.6942 23.1742 54.9842 23.1742C55.7542 23.1742 56.2442 22.7242 56.5742 21.9542L57.4142 19.9742H57.3942L53.0842 9.78418Z" fill="#12243A"/>
<path d="M62.5242 5.7041H66.3742L68.6342 14.1641L70.7742 5.7041H74.5242L76.7242 13.9441L78.9242 5.7041H82.7742L78.6742 19.9741H74.7642L72.6442 11.5341L70.5242 19.9741H66.6142L62.5242 5.7041Z" fill="#12243A"/>
<path d="M83.0342 6.76412C83.0342 5.66412 83.9742 4.72412 85.0742 4.72412C86.1742 4.72412 87.1142 5.66412 87.1142 6.76412C87.1142 7.86412 86.1742 8.80412 85.0742 8.80412C83.9742 8.80412 83.0342 7.86412 83.0342 6.76412ZM83.2342 9.78412H86.9042V19.9741H83.2342V9.78412Z" fill="#12243A"/>
<path d="M89.1443 16.7541V12.8441H87.6143V9.78413H89.1443V6.60413H92.8143V9.78413H94.9143V12.8441H92.8143V15.7641C92.8143 16.5341 93.0143 16.8241 93.5243 16.8241C93.7443 16.8241 94.1343 16.6641 94.3143 16.5141L95.5543 19.1641C94.9243 19.7141 93.8243 20.2241 92.8643 20.2241C90.3443 20.2241 89.1443 18.9941 89.1443 16.7541Z" fill="#12243A"/>
<path d="M95.2642 5.7041H96.5642L100.374 17.9741L104.084 5.7041H105.384L109.014 17.9741L112.904 5.7041H114.204L109.694 19.9741H108.264L104.714 7.8841L101.064 19.9741H99.6342L95.2642 5.7041Z" fill="#12243A"/>
<path d="M113.714 17.1041C113.714 15.1041 115.124 13.9241 117.524 13.9241H120.524C120.344 11.7441 119.564 10.6641 117.734 10.6641C116.434 10.6641 115.494 11.1741 114.924 12.2141L113.824 11.7241C114.724 10.2541 116.024 9.54407 117.734 9.54407C120.464 9.54407 121.794 11.1741 121.794 14.5141V19.9741H120.774L120.734 18.8141C120.024 19.7141 118.924 20.2241 117.534 20.2241C115.114 20.2241 113.714 19.0541 113.714 17.1041ZM120.604 15.6141L120.584 15.0441H117.694C115.734 15.0441 114.944 15.7941 114.944 17.1041C114.944 18.3441 115.864 19.1041 117.454 19.1041C119.414 19.0941 120.604 17.6941 120.604 15.6141Z" fill="#12243A"/>
<path d="M123.754 5.7041H124.974L124.934 19.9741H123.714L123.754 5.7041Z" fill="#12243A"/>
<path d="M127.264 5.7041H128.484L128.444 19.9741H127.224L127.264 5.7041Z" fill="#12243A"/>
<path d="M130.114 14.8742C130.114 11.7542 132.154 9.53418 135.024 9.53418C137.924 9.53418 139.554 11.8142 139.554 15.0142H131.334C131.394 17.4442 132.944 19.0942 135.124 19.0942C136.694 19.0942 137.794 18.2342 138.424 17.0142L139.444 17.6442C138.674 19.1542 137.164 20.2142 135.124 20.2142C132.194 20.2242 130.114 18.0142 130.114 14.8742ZM131.424 13.8942H138.254C137.964 11.9542 136.884 10.6542 135.034 10.6542C133.174 10.6542 131.774 11.9642 131.424 13.8942Z" fill="#12243A"/>
<path d="M141.884 17.3641V10.9041H140.074V9.78413H141.884V6.60413H143.104V9.78413H146.344V10.9041H143.104V17.3641C143.104 18.4641 143.754 19.0941 144.874 19.0941C145.204 19.0941 145.424 19.0541 146.034 18.6441L146.544 19.7041C145.814 20.1341 145.384 20.2141 144.874 20.2141C143.004 20.2241 141.884 19.1741 141.884 17.3641Z" fill="#12243A"/>
<path d="M27.8142 21.1042L13.7842 29.2042C11.9742 30.2442 9.64418 29.6242 8.60418 27.8142L0.504178 13.7842C-0.535822 11.9742 0.0841777 9.64418 1.89418 8.60418L15.9242 0.504178C17.7342 -0.535822 20.0642 0.0841777 21.1042 1.89418L29.2042 15.9242C30.2442 17.7242 29.6242 20.0542 27.8142 21.1042Z" fill="#50BAB1"/>
<path d="M7.01425 10.6542C6.95425 10.6542 6.88425 10.6442 6.82425 10.6242C6.44425 10.5142 6.22425 10.1242 6.33425 9.75422C6.55425 8.96422 7.10425 8.61422 7.64425 8.27422L16.5943 2.58422C18.0843 1.63422 20.0643 2.07422 21.0143 3.56422L23.4843 7.31422C23.7043 7.64422 23.6043 8.08422 23.2843 8.29422C22.9543 8.50422 22.5142 8.41422 22.3042 8.09422L19.8343 4.33422C19.3043 3.49422 18.1943 3.25422 17.3643 3.77422L8.41425 9.46422C7.95425 9.75422 7.78425 9.87422 7.71425 10.1342C7.60425 10.4542 7.32425 10.6542 7.01425 10.6542Z" fill="#12243A"/>
<mask id="mask0_841_1192" style="mask-type:luminance" maskUnits="userSpaceOnUse" x="4" y="5" width="23" height="21">
<path d="M4.50423 9.28418L6.84423 22.3942C7.16423 24.1742 8.86423 25.3542 10.6342 25.0342L24.1742 22.6142C25.9542 22.2942 27.1342 20.5942 26.8142 18.8242C26.6342 17.7942 25.6442 17.1042 24.6142 17.2842L20.4742 18.0242C19.2642 18.2442 18.0942 17.4242 17.8842 16.2142C17.6642 15.0042 18.4842 13.8342 19.6942 13.6242L23.8342 12.8842C24.8642 12.7042 25.5542 11.7142 25.3742 10.6842L25.3442 10.4942C25.0242 8.71417 23.3242 7.53418 21.5542 7.85418L8.01423 10.2742C8.01423 10.2742 13.7942 5.34417 14.8442 5.15417L6.50423 6.72417C6.48423 6.72417 4.26423 7.06418 4.50423 9.28418Z" fill="white"/>
</mask>
<g mask="url(#mask0_841_1192)">
<path d="M11.2343 15.6142L12.5343 9.67418L8.59435 10.3742C8.31434 10.5142 8.02435 10.6142 7.72435 10.6642C5.82435 11.0042 4.14435 9.70418 3.73435 7.88418C3.62435 7.38418 3.64435 6.88417 3.78435 6.40417L0.954346 6.84418L1.30435 16.2542L9.03435 25.5742L10.1543 20.4942C10.3943 20.5242 10.6543 20.5242 10.9043 20.4742C12.2743 20.2342 13.1843 18.9242 12.9443 17.5542C12.7843 16.6142 12.0943 15.8842 11.2343 15.6142Z" fill="#12243A"/>
</g>
<mask id="mask1_841_1192" style="mask-type:luminance" maskUnits="userSpaceOnUse" x="4" y="5" width="23" height="21">
<path d="M4.50423 9.28418L6.84423 22.3942C7.16423 24.1742 8.86423 25.3542 10.6342 25.0342L24.1742 22.6142C25.9542 22.2942 27.1342 20.5942 26.8142 18.8242C26.6342 17.7942 25.6442 17.1042 24.6142 17.2842L20.4742 18.0242C19.2642 18.2442 18.0942 17.4242 17.8842 16.2142C17.6642 15.0042 18.4842 13.8342 19.6942 13.6242L23.8342 12.8842C24.8642 12.7042 25.5542 11.7142 25.3742 10.6842L25.3442 10.4942C25.0242 8.71417 23.3242 7.53418 21.5542 7.85418L8.01423 10.2742C8.01423 10.2742 13.7942 5.34417 14.8442 5.15417L6.50423 6.72417C6.48423 6.72417 4.26423 7.06418 4.50423 9.28418Z" fill="white"/>
</mask>
<g mask="url(#mask1_841_1192)">
<path d="M10.2943 21.2942C12.8404 21.2942 14.9043 19.2303 14.9043 16.6842C14.9043 14.1382 12.8404 12.0742 10.2943 12.0742C7.74829 12.0742 5.68433 14.1382 5.68433 16.6842C5.68433 19.2303 7.74829 21.2942 10.2943 21.2942Z" fill="#12243A"/>
</g>
<path d="M10.2342 25.8742C9.42423 25.8742 8.64423 25.6242 7.96423 25.1542C7.09423 24.5442 6.51423 23.6342 6.32423 22.5942L3.99423 9.5442C3.95423 9.4142 3.91423 9.2842 3.89423 9.1542C3.77423 8.4642 3.92423 7.7642 4.32423 7.1942C4.72423 6.6242 5.32423 6.2342 6.01423 6.1142L12.9942 4.8842C13.3742 4.8142 13.7442 5.0742 13.8142 5.4542C13.8842 5.8342 13.6242 6.2042 13.2442 6.2742L6.26423 7.5042C5.94423 7.5642 5.67423 7.7342 5.48423 8.0042C5.29423 8.2742 5.22423 8.5942 5.28423 8.9142C5.29423 8.9742 5.30423 9.0342 5.32423 9.0842C5.33423 9.1042 5.34423 9.1342 5.35423 9.1542C5.44423 9.3742 5.58423 9.5542 5.78423 9.6942C6.04423 9.8842 6.36423 9.9542 6.69423 9.8942L21.5942 7.2342C23.7542 6.8442 25.8242 8.2942 26.2042 10.4542L26.2342 10.6542C26.3542 11.3342 26.2042 12.0342 25.8042 12.6042C25.4042 13.1742 24.8042 13.5542 24.1242 13.6842L19.8042 14.4542C18.9742 14.6042 18.4242 15.3942 18.5642 16.2242C18.6342 16.6242 18.8642 16.9742 19.1942 17.2042C19.5242 17.4342 19.9342 17.5242 20.3342 17.4542L24.6542 16.6842C25.3342 16.5642 26.0342 16.7142 26.6042 17.1142C27.1742 17.5142 27.5542 18.1142 27.6842 18.7942C28.0642 20.9542 26.6242 23.0242 24.4642 23.4142L10.9242 25.8342C10.7042 25.8542 10.4642 25.8742 10.2342 25.8742ZM5.73423 11.2142L7.72423 22.3542C7.97423 23.7442 9.30423 24.6742 10.6942 24.4242L24.2342 22.0042C25.6242 21.7542 26.5542 20.4242 26.3042 19.0342C26.2442 18.7242 26.0742 18.4442 25.8142 18.2642C25.5542 18.0842 25.2342 18.0142 24.9242 18.0642L20.6042 18.8342C19.8342 18.9642 19.0542 18.8042 18.4042 18.3442C17.7542 17.8942 17.3242 17.2242 17.1842 16.4442C17.0442 15.6742 17.2242 14.8942 17.6742 14.2442C18.1242 13.5942 18.7942 13.1642 19.5742 13.0242L23.8942 12.2542C24.2042 12.1942 24.4842 12.0242 24.6642 11.7642C24.8442 11.5042 24.9142 11.1842 24.8642 10.8742L24.8342 10.6742C24.5842 9.2842 23.2542 8.3542 21.8642 8.6042L6.96423 11.2642C6.52423 11.3542 6.11423 11.3242 5.73423 11.2142Z" fill="#12243A"/>
<path d="M11.2442 17.4742L10.0042 17.6942L9.55417 15.1542L8.83417 15.2842L9.28417 17.8242L8.21417 18.0142C8.06417 18.0442 7.92417 17.9442 7.89417 17.7942L7.49417 15.5242L6.77417 15.6542L7.23417 18.2342C7.30417 18.6042 7.65417 18.8542 8.02417 18.7842L12.0842 18.0642L11.5042 14.8142L10.7842 14.9442L11.2442 17.4742Z" fill="white"/>
<path d="M13.3035 17.0772L12.575 17.2072L12.7049 17.9357L13.4334 17.8057L13.3035 17.0772Z" fill="#50BAB1"/>
<path d="M20.2742 16.5842C20.6884 16.5842 21.0242 16.2484 21.0242 15.8342C21.0242 15.42 20.6884 15.0842 20.2742 15.0842C19.86 15.0842 19.5242 15.42 19.5242 15.8342C19.5242 16.2484 19.86 16.5842 20.2742 16.5842Z" fill="#12243A"/>
</svg>
