<svg width="855" height="180" viewBox="0 0 855 180" fill="none" xmlns="http://www.w3.org/2000/svg">
<g filter="url(#filter0_d_1147_1169)">
<path d="M215.508 56.5506H222.097L222.444 65.6249C226.317 58.9203 232.79 55.1634 241.518 55.1634C251.863 55.1634 259.666 59.9029 262.961 69.4396C266.486 60.2496 273.538 55.1634 283.826 55.1634C297.986 55.1634 307.292 63.8909 307.176 81.8084V115.505H300.125V85.3341C300.125 65.7983 292.438 61.7524 282.67 61.7524C271.457 61.7524 264.868 70.4799 264.868 85.2185V115.505H257.817V85.3341C257.817 65.7983 250.129 61.7524 240.362 61.7524C229.149 61.7524 222.56 70.4799 222.56 85.2185V115.505H215.508V56.5506Z" fill="#E6E9EB"/>
<path d="M310.817 56.5505H318.1L339.312 107.008L360.64 56.5505H368.038L339.196 124.868C334.977 134.867 330.816 140.416 321.163 140.416C318.678 140.416 315.268 139.491 310.702 137.584L313.303 131.573C317.406 133.075 320.123 133.942 321.799 133.942C326.25 133.942 329.082 131.341 330.989 126.891L335.844 115.447H335.729L310.817 56.5505Z" fill="#E6E9EB"/>
<path d="M365.379 32.9688H387.631L400.694 81.8661L413.062 32.9688H434.737L447.452 80.5946L460.168 32.9688H482.42L458.723 115.447H436.124L423.871 66.6652L411.618 115.447H389.018L365.379 32.9688Z" fill="#E6E9EB"/>
<path d="M483.923 39.0954C483.923 32.7376 489.356 27.3046 495.714 27.3046C502.072 27.3046 507.505 32.7376 507.505 39.0954C507.505 45.4533 502.072 50.8863 495.714 50.8863C489.356 50.8863 483.923 45.4533 483.923 39.0954ZM485.079 56.5505H506.291V115.447H485.079V56.5505Z" fill="#E6E9EB"/>
<path d="M519.238 96.8359V74.2368H510.395V56.5506H519.238V38.1707H540.45V56.5506H552.588V74.2368H540.45V91.1139C540.45 95.5644 541.606 97.2405 544.554 97.2405C545.826 97.2405 548.08 96.3158 549.12 95.4488L556.287 110.765C552.646 113.944 546.288 116.892 540.739 116.892C526.174 116.892 519.238 109.783 519.238 96.8359Z" fill="#E6E9EB"/>
<path d="M554.61 32.9688H562.124L584.145 103.887L605.588 32.9688H613.102L634.083 103.887L656.566 32.9688H664.08L638.013 115.447H629.748L609.23 45.5688L588.133 115.447H579.868L554.61 32.9688Z" fill="#E6E9EB"/>
<path d="M661.249 98.8589C661.249 87.2992 669.399 80.479 683.27 80.479H700.61C699.57 67.879 695.061 61.6368 684.484 61.6368C676.97 61.6368 671.537 64.5845 668.243 70.5955L661.885 67.7634C667.087 59.2671 674.601 55.1634 684.484 55.1634C700.263 55.1634 707.95 64.5845 707.95 83.8891V115.447H702.055L701.824 108.742C697.72 113.944 691.362 116.892 683.328 116.892C669.341 116.892 661.249 110.13 661.249 98.8589ZM701.072 90.247L700.957 86.9525H684.253C672.925 86.9525 668.358 91.2873 668.358 98.8589C668.358 106.026 673.676 110.419 682.866 110.419C694.194 110.361 701.072 102.269 701.072 90.247Z" fill="#E6E9EB"/>
<path d="M719.279 32.9688H726.33L726.099 115.447H719.048L719.279 32.9688Z" fill="#E6E9EB"/>
<path d="M739.565 32.9688H746.616L746.385 115.447H739.333L739.565 32.9688Z" fill="#E6E9EB"/>
<path d="M756.038 85.9698C756.038 67.9368 767.829 55.1055 784.417 55.1055C801.178 55.1055 810.599 68.2835 810.599 86.779H763.089C763.436 100.824 772.395 110.361 784.995 110.361C794.069 110.361 800.427 105.39 804.068 98.3386L809.964 101.98C805.513 110.707 796.786 116.834 784.995 116.834C768.06 116.892 756.038 104.118 756.038 85.9698ZM763.609 80.3056H803.086C801.409 69.0927 795.167 61.5789 784.475 61.5789C773.724 61.5789 765.632 69.1505 763.609 80.3056Z" fill="#E6E9EB"/>
<path d="M824.066 100.362V63.024H813.605V56.5506H824.066V38.1707H831.118V56.5506H849.844V63.024H831.118V100.362C831.118 106.719 834.875 110.361 841.348 110.361C843.255 110.361 844.527 110.13 848.053 107.76L851 113.886C846.781 116.372 844.296 116.834 841.348 116.834C830.54 116.892 824.066 110.823 824.066 100.362Z" fill="#E6E9EB"/>
<path d="M164.761 121.978L83.6702 168.795C73.2087 174.806 59.7417 171.223 53.7307 160.761L6.91406 79.6702C0.903043 69.2087 4.48653 55.7417 14.948 49.7307L96.039 2.91406C106.5 -3.09696 119.967 0.486533 125.979 10.948L172.795 92.039C178.806 102.443 175.223 115.91 164.761 121.978Z" fill="#50BAB1"/>
<path d="M44.5411 61.5793C44.1943 61.5793 43.7898 61.5215 43.443 61.4059C41.2466 60.7701 39.9751 58.516 40.6108 56.3774C41.8824 51.8114 45.0613 49.7884 48.1824 47.8233L99.9119 14.9361C108.524 9.44526 119.968 11.9884 125.459 20.6003L139.735 42.2747C141.006 44.182 140.428 46.7251 138.579 47.9389C136.672 49.1527 134.128 48.6325 132.915 46.7829L118.638 25.0508C115.575 20.1957 109.16 18.8086 104.362 21.8141L52.6329 54.7013C49.9742 56.3775 48.9916 57.071 48.587 58.5738C47.9512 60.4233 46.3329 61.5793 44.5411 61.5793Z" fill="#12243A"/>
<mask id="mask0_1147_1169" style="mask-type:luminance" maskUnits="userSpaceOnUse" x="29" y="29" width="131" height="116">
<path d="M30.0336 53.6609L43.5584 129.434C45.4079 139.723 55.2336 146.543 65.4639 144.693L143.723 130.706C154.011 128.856 160.831 119.031 158.982 108.8C157.941 102.847 152.219 98.8592 146.266 99.8995L122.337 104.177C115.344 105.448 108.581 100.709 107.368 93.7151C106.096 86.7215 110.836 79.9591 117.829 78.7454L141.758 74.4683C147.711 73.4279 151.699 67.7059 150.659 61.7527L150.485 60.6545C148.636 50.3664 138.81 43.5462 128.58 45.3958L50.3208 59.383C50.3208 59.383 83.7282 30.8884 89.797 29.7902L41.5932 38.8646C41.4776 38.8646 28.6464 40.8297 30.0336 53.6609Z" fill="white"/>
</mask>
<g mask="url(#mask0_1147_1169)">
<path d="M68.9325 90.2472L76.4463 55.9151L53.6737 59.9609C52.0554 60.7701 50.3792 61.3481 48.6453 61.6371C37.6636 63.6022 27.9535 56.0885 25.5838 45.5692C24.948 42.6793 25.0636 39.7893 25.8728 37.015L9.51587 39.5581L11.5388 93.9463L56.2169 147.814L62.6903 118.453C64.0774 118.626 65.5802 118.626 67.0252 118.337C74.9435 116.95 80.2031 109.378 78.816 101.46C77.8912 96.027 73.9031 91.8078 68.9325 90.2472Z" fill="#12243A"/>
</g>
<mask id="mask1_1147_1169" style="mask-type:luminance" maskUnits="userSpaceOnUse" x="29" y="29" width="131" height="116">
<path d="M30.0336 53.6609L43.5584 129.434C45.4079 139.723 55.2336 146.543 65.4639 144.693L143.723 130.706C154.011 128.856 160.831 119.031 158.982 108.8C157.941 102.847 152.219 98.8592 146.266 99.8995L122.337 104.177C115.344 105.448 108.581 100.709 107.368 93.7151C106.096 86.7215 110.836 79.9591 117.829 78.7454L141.758 74.4683C147.711 73.4279 151.699 67.7059 150.659 61.7527L150.485 60.6545C148.636 50.3664 138.81 43.5462 128.58 45.3958L50.3208 59.383C50.3208 59.383 83.7282 30.8884 89.797 29.7902L41.5932 38.8646C41.4776 38.8646 28.6464 40.8297 30.0336 53.6609Z" fill="white"/>
</mask>
<g mask="url(#mask1_1147_1169)">
<path d="M63.4995 123.077C78.2151 123.077 90.1445 111.147 90.1445 96.4316C90.1445 81.716 78.2151 69.7866 63.4995 69.7866C48.7839 69.7866 36.8545 81.716 36.8545 96.4316C36.8545 111.147 48.7839 123.077 63.4995 123.077Z" fill="#12243A"/>
</g>
<path d="M63.152 149.548C58.4703 149.548 53.962 148.103 50.0318 145.387C45.0033 141.861 41.651 136.601 40.5529 130.59L27.0859 55.1637C26.8547 54.4123 26.6235 53.6609 26.5079 52.9095C25.8143 48.9214 26.6813 44.8756 28.9932 41.5811C31.3051 38.2866 34.773 36.0324 38.7611 35.3389L79.1043 28.2297C81.3006 27.8251 83.4392 29.3278 83.8438 31.5242C84.2483 33.7205 82.7456 35.859 80.5493 36.2636L40.2061 43.3728C38.3565 43.7196 36.796 44.7022 35.6978 46.2627C34.5996 47.8233 34.195 49.6728 34.5418 51.5224C34.5996 51.8692 34.6574 52.2159 34.773 52.5049C34.8308 52.6205 34.8886 52.7939 34.9464 52.9095C35.4666 54.1811 36.2758 55.2215 37.4317 56.0306C38.9345 57.1288 40.784 57.5334 42.6914 57.1866L128.811 41.8122C141.295 39.5581 153.259 47.9389 155.456 60.4233L155.629 61.5793C156.323 65.5095 155.456 69.5554 153.144 72.8499C150.832 76.1444 147.364 78.3408 143.434 79.0921L118.465 83.5426C113.668 84.4096 110.489 88.9756 111.298 93.7729C111.703 96.0848 113.032 98.1078 114.939 99.4371C116.847 100.766 119.216 101.287 121.528 100.882L146.497 96.4316C150.427 95.738 154.473 96.605 157.768 98.9169C161.062 101.229 163.259 104.697 164.01 108.627C166.206 121.111 157.883 133.076 145.399 135.33L67.14 149.317C65.8685 149.433 64.4813 149.548 63.152 149.548ZM37.1428 64.816L48.6446 129.203C50.0896 137.237 57.7767 142.612 65.8107 141.167L144.07 127.18C152.103 125.735 157.479 118.048 156.034 110.014C155.687 108.222 154.704 106.604 153.202 105.564C151.699 104.523 149.849 104.119 148.058 104.408L123.089 108.858C118.638 109.61 114.13 108.685 110.373 106.026C106.616 103.425 104.131 99.5527 103.322 95.0445C102.513 90.594 103.553 86.0857 106.154 82.3288C108.755 78.5719 112.627 76.0866 117.136 75.2775L142.104 70.827C143.896 70.4802 145.514 69.4976 146.555 67.9949C147.595 66.4921 148 64.6426 147.711 62.8508L147.537 61.6949C146.092 53.6609 138.405 48.2857 130.371 49.7306L44.2519 65.105C41.7088 65.6251 39.3391 65.4517 37.1428 64.816Z" fill="#12243A"/>
<path d="M68.9894 100.998L61.8224 102.269L59.2215 87.5885L55.06 88.3399L57.6609 103.021L51.4765 104.119C50.6095 104.292 49.8004 103.714 49.627 102.847L47.315 89.7271L43.1536 90.4784L45.8123 105.39C46.2169 107.529 48.2398 108.974 50.3783 108.569L73.8444 104.408L70.4921 85.6234L66.3307 86.3748L68.9894 100.998Z" fill="white"/>
<path d="M80.8919 98.7031L76.6812 99.4542L77.4322 103.665L81.643 102.914L80.8919 98.7031Z" fill="#50BAB1"/>
<path d="M121.181 95.8536C123.575 95.8536 125.516 93.9128 125.516 91.5187C125.516 89.1247 123.575 87.1839 121.181 87.1839C118.787 87.1839 116.846 89.1247 116.846 91.5187C116.846 93.9128 118.787 95.8536 121.181 95.8536Z" fill="#12243A"/>
</g>
<defs>
<filter id="filter0_d_1147_1169" x="0" y="0" width="855" height="179.709" filterUnits="userSpaceOnUse" color-interpolation-filters="sRGB">
<feFlood flood-opacity="0" result="BackgroundImageFix"/>
<feColorMatrix in="SourceAlpha" type="matrix" values="0 0 0 0 0 0 0 0 0 0 0 0 0 0 0 0 0 0 127 0" result="hardAlpha"/>
<feOffset dy="4"/>
<feGaussianBlur stdDeviation="2"/>
<feComposite in2="hardAlpha" operator="out"/>
<feColorMatrix type="matrix" values="0 0 0 0 0 0 0 0 0 0 0 0 0 0 0 0 0 0 0.25 0"/>
<feBlend mode="normal" in2="BackgroundImageFix" result="effect1_dropShadow_1147_1169"/>
<feBlend mode="normal" in="SourceGraphic" in2="effect1_dropShadow_1147_1169" result="shape"/>
</filter>
</defs>
</svg>
