<svg width="102" height="101" viewBox="0 0 102 101" fill="none" xmlns="http://www.w3.org/2000/svg">
<path d="M101.15 71.0297C100.63 68.1497 99.0297 65.6401 96.6297 63.9701C94.2197 62.2901 91.3096 61.6599 88.4396 62.1698L70.2797 65.4101C68.5897 65.7001 66.8897 65.33 65.4797 64.35C64.0697 63.36 63.1196 61.9001 62.8196 60.2201C62.1996 56.7301 64.5297 53.3899 68.0197 52.7699L86.1797 49.5297C89.0597 49.0097 91.5697 47.4097 93.2497 45.0097C94.9197 42.6097 95.5597 39.6998 95.0497 36.8198L94.9097 35.9999C93.7797 29.6699 89.2097 24.8199 83.4697 22.9999C83.4397 22.9499 83.4197 22.8898 83.3797 22.8398L73.0097 7.08001C69.0297 0.830006 60.6996 -1.03011 54.4396 2.95989L39.2297 12.6401L10.0397 17.7797C7.13973 18.2997 4.60973 19.9198 2.91973 22.3398C1.22973 24.7598 0.589673 27.69 1.10967 30.6C1.20967 31.17 1.35973 31.7199 1.53973 32.2499L11.3196 87.0898C12.1096 91.4898 14.5497 95.32 18.2197 97.87C21.0597 99.8501 24.3597 100.88 27.7497 100.88C28.7397 100.88 29.7297 100.79 30.7197 100.62L87.6397 90.4599C96.7197 88.8399 102.78 80.14 101.17 71.06L101.15 71.0297ZM86.5796 84.5698L29.6597 94.7299C27.6697 95.0799 25.7196 94.8501 23.9496 94.1801L26.7297 81.52C27.1497 81.5499 27.5797 81.58 28.0097 81.58C38.7097 81.58 47.3897 72.9001 47.3897 62.2001C47.3897 53.9401 42.2196 46.91 34.9396 44.12L36.8497 35.4198L76.5297 28.3398C82.3597 27.2798 87.9797 31.2 89.0197 37.04L89.1597 37.8598C89.3997 39.1798 89.0997 40.51 88.3397 41.6C87.5797 42.7 86.4297 43.4301 85.1097 43.6601L66.9496 46.8998C63.6996 47.4798 60.8697 49.2997 58.9797 52.0097C57.0897 54.7297 56.3596 58.0097 56.9396 61.2597C57.5196 64.4997 59.3397 67.3399 62.0497 69.2299C64.7697 71.1299 68.0597 71.8299 71.2997 71.27L89.4596 68.0297C90.7696 67.7997 92.1096 68.09 93.1996 68.85C94.2996 69.61 95.0297 70.76 95.2597 72.08C96.2997 77.93 92.3997 83.5298 86.5497 84.5698H86.5796ZM7.79974 25.7201C8.57974 24.6001 9.73963 23.86 11.0696 23.62L26.0897 20.9799L16.8296 26.87C14.5896 28.29 12.2697 29.7498 11.3397 33.0898C11.2897 33.2798 11.2597 33.4598 11.2397 33.6498C10.4697 33.5398 9.71975 33.27 9.05975 32.81C8.23975 32.24 7.61969 31.4597 7.24969 30.5497C7.21969 30.4497 7.1797 30.3499 7.1397 30.2499C7.0597 30.0199 6.99965 29.7797 6.95965 29.5297C6.71965 28.1897 7.01974 26.8401 7.79974 25.7201ZM33.0897 54.2997L35.5297 67.9799L18.4797 71.02C16.9197 71.2999 15.4297 70.2601 15.1497 68.7001L13.2096 57.85L16.2197 57.31L17.9197 66.85C18.0297 67.47 18.6297 67.8897 19.2497 67.7797L23.7697 66.9701L21.8697 56.2997L24.8797 55.7597L26.7797 66.4301L31.9797 65.4999L30.0796 54.83L33.0897 54.29V54.2997ZM38.1397 67.4599L37.5897 64.3998L40.6497 63.85L41.1996 66.9101L38.1397 67.4599ZM57.6297 7.95989C61.1097 5.73989 65.7597 6.76973 67.9997 10.2997L75.9697 22.4101C75.8097 22.4301 75.6597 22.4401 75.4997 22.4701L19.0097 32.5497C19.2997 32.3597 19.6197 32.1501 20.0097 31.9101L57.6297 7.97014V7.95989Z" fill="#12243A"/>
<path d="M69.42 55.5298C67.71 55.8298 66.5699 57.4702 66.8799 59.1802C67.1799 60.8902 68.82 62.0303 70.53 61.7203C72.24 61.4203 73.3799 59.7799 73.0699 58.0699C72.7699 56.3599 71.13 55.2198 69.42 55.5298Z" fill="#12243A"/>
</svg>
