<svg width="1024" height="1024" viewBox="0 0 1024 1024" fill="none" xmlns="http://www.w3.org/2000/svg">
<g clip-path="url(#clip0_10087_5901)">
<path fill-rule="evenodd" clip-rule="evenodd" d="M804.32 179.329C774.378 159.9 753.055 151.484 753.055 151.484C753.055 151.484 767.055 152.044 787.103 153.496C794.805 154.053 803.399 154.742 812.435 155.582C819.637 156.251 827.12 157.015 834.655 157.884C821.397 147.459 808.235 138.077 795.203 129.652C716.235 78.5986 642.056 62.6844 580.255 62.6844C525.715 62.6844 480.847 75.0174 450.838 86.521C426.655 95.7913 412.121 104.523 409.95 105.827L409.855 105.884L441.055 56.2844L443.388 32.0154C451.808 32.825 459.206 37.9407 462.937 45.5322C464.518 48.7503 465.344 52.2183 465.429 55.6915C495.743 46.301 534.87 38.3035 580.255 38.3035C657.543 38.3035 751.69 61.6317 849.725 138.719C858.3 145.462 861.353 157.08 857.199 167.168C855.029 172.439 851.167 176.621 846.427 179.235C864.083 192.755 883.03 209.306 901.663 229.232C969.199 301.455 1031.68 417.181 1014.92 589.84C1013.97 599.683 1007.16 607.974 997.691 610.828C993.359 612.134 988.863 612.183 984.662 611.117C979.193 684.924 947.015 806.951 808.496 910.98C800.192 917.216 788.849 917.508 780.235 911.707C776.746 909.357 774.015 906.216 772.177 902.643C770.783 903.944 769.363 905.251 767.916 906.56C728.527 942.214 668.583 981.175 587.612 992.433C586.5 992.588 585.378 992.665 584.255 992.665H583.455C573.389 992.665 564.357 986.479 560.72 977.093C560.121 975.545 559.688 973.963 559.417 972.369C539.436 976.343 515.935 979.065 489.055 979.065C443.817 979.065 389.093 971.371 324.987 948.892C312.735 944.596 305.999 931.451 309.667 918.997C313.335 906.542 326.12 899.147 338.745 902.177C356.896 906.533 374.987 908.703 393.855 908.703C516.556 908.703 612.674 817.118 612.674 707.484C612.674 653.445 589.754 603.878 551.156 567.293C551.05 567.43 550.943 567.568 550.836 567.706C542.025 579.091 531.405 592.858 523.887 602.746C511.721 619.817 507.454 629.259 508.417 637.807C512.565 665.619 503.998 692.97 488.191 712.992C487.988 713.249 487.779 713.502 487.566 713.751C481.311 721.05 469.42 731.418 458.827 740.654C458.343 741.077 457.862 741.496 457.384 741.913C446.718 751.217 436.279 760.34 428.695 767.924C428.497 768.122 428.295 768.317 428.09 768.508C409.199 786.14 384.545 788.665 369.855 788.665C365.787 788.665 362.126 788.358 359.65 788.149L359.515 788.138C359.48 788.135 359.446 788.132 359.412 788.13C356.986 787.926 356.066 787.865 355.455 787.865H353.055C352.652 787.865 352.347 787.873 352.123 787.883C351.668 788.169 350.854 788.724 349.542 789.753C347.753 791.157 345.495 793.076 342.359 795.837C336.358 801.47 329.174 803.936 324.368 805.137C318.792 806.531 312.934 807.065 307.455 807.065C293.219 807.065 276.898 803.876 263.485 800.548C249.686 797.125 237.127 793.082 229.74 790.475C229.482 790.384 229.225 790.289 228.97 790.189C221.941 787.438 216.679 782.793 213.09 778.961C209.316 774.932 206.044 770.339 203.247 765.85C197.657 756.873 192.679 746.208 188.559 736.042C180.607 716.421 173.971 693.886 172.808 682.837C172.036 675.502 173.824 668.544 175.154 664.195C176.685 659.19 178.814 653.967 181.032 649.027C185.399 639.302 191.134 628.458 196.073 619.12L196.283 618.722C199.783 612.104 202.853 606.292 205.221 601.429C206.395 599.017 207.27 597.095 207.875 595.624C208.294 594.603 208.464 594.086 208.503 593.971C209.842 587.648 214.01 556.664 218.27 523.297C222.463 490.449 226.453 457.733 227.241 451.036C227.902 445.417 227.804 442.689 227.237 440.095C226.622 437.283 225.041 432.867 220.229 424.961C220.182 424.885 220.136 424.809 220.091 424.732C220.074 424.703 220.057 424.675 220.04 424.646C209.383 406.53 208.847 388.718 213.333 366.927C158.9 329.117 20.5761 226.958 12.0158 219.954C11.9591 219.908 11.9027 219.861 11.8464 219.814C6.7816 215.594 1.63006 209.342 0.0670586 200.746C-0.707488 196.486 -0.425066 192.469 0.48831 188.968C0.932995 187.263 1.50651 185.757 2.11377 184.459C2.41733 183.811 2.73032 183.212 3.04193 182.664C3.19783 182.39 3.35375 182.128 3.50844 181.877C3.58581 181.752 3.66292 181.63 3.73963 181.51C3.77799 181.45 3.81625 181.391 3.85441 181.333L3.91156 181.246L3.94008 181.203C3.9543 181.182 3.96854 181.16 24.2547 194.684C24.2547 194.684 22.6547 197.084 27.4547 201.084C27.8438 201.403 28.5441 201.949 29.5305 202.706C29.6884 202.827 29.8536 202.953 30.0261 203.085C32.4987 204.973 36.4571 207.95 41.5979 211.788C48.5361 216.969 57.6281 223.718 68.128 231.48C122.586 271.74 214.916 339.238 241.055 356.284C233.055 385.084 233.055 398.684 241.055 412.284C252.255 430.684 253.055 440.284 251.455 453.884C249.855 467.484 235.455 585.084 232.255 599.484C230.963 605.297 224.719 617.104 217.836 630.12C207.666 649.351 196.101 671.22 197.055 680.284C198.655 695.484 219.455 760.284 237.855 767.484C251.455 772.284 285.055 782.684 307.455 782.684C315.455 782.684 322.655 781.084 325.855 777.884C339.455 765.884 343.455 763.484 353.055 763.484H355.455C357.286 763.484 359.285 763.652 361.452 763.834H361.455C364.02 764.049 366.82 764.284 369.855 764.284C382.655 764.284 399.455 761.884 411.455 750.684C419.751 742.388 430.891 732.67 441.357 723.541C453.093 713.303 463.98 703.805 469.055 697.884C481.055 682.684 487.455 661.884 484.255 641.084C481.855 621.884 492.255 605.084 504.255 588.284C519.455 568.284 547.455 532.284 547.455 532.284C549.405 533.754 551.33 535.251 553.228 536.775C557.689 540.355 562.003 544.081 566.163 547.944C610.318 588.95 637.055 645.419 637.055 707.484C637.055 815.524 555.515 905.578 446.416 927.817C429.492 931.267 411.904 933.084 393.855 933.084C373.055 933.084 353.055 930.684 333.055 925.884C354.483 933.398 374.75 939.17 393.855 943.501C412.844 947.807 430.685 950.691 447.379 952.45C462.172 954.009 476.064 954.684 489.055 954.684C523.581 954.684 551.923 949.9 573.768 943.985C609.118 934.414 627.455 921.884 627.455 921.884C627.455 921.884 622.714 927.979 614.193 937.411C607.203 945.147 597.67 955.128 586.123 965.832C585.506 966.404 584.883 966.977 584.255 967.553C584.225 967.581 584.195 967.608 584.165 967.636C583.929 967.852 583.692 968.068 583.455 968.284H584.255C599.445 966.172 613.844 963.005 627.455 959.017C696.926 938.665 745.877 896.961 774.866 865.311C796.132 842.093 806.655 824.284 806.655 824.284C806.655 824.284 804.801 837.525 801.855 853.951C800.553 861.216 799.036 869.104 797.372 876.744C796.259 881.855 795.08 886.855 793.855 891.484C804.663 883.367 814.786 875.139 824.267 866.835C941.454 764.19 960.396 649.961 961.232 590.047C961.271 587.297 961.271 584.662 961.241 582.147C961.241 582.135 961.241 582.123 961.241 582.111C961.241 582.109 961.241 582.107 961.241 582.106C961.241 582.104 961.24 582.102 961.24 582.1C961.24 582.096 961.24 582.091 961.24 582.087C961.24 582.074 961.24 582.062 961.24 582.049C961.24 582.048 961.24 582.047 961.24 582.046C961.24 582.043 961.24 582.041 961.24 582.038C961.239 581.996 961.239 581.954 961.238 581.912C961.238 581.911 961.238 581.909 961.238 581.907C961.011 564.169 959.276 552.488 958.775 549.121L958.712 548.691C958.686 548.516 958.667 548.38 958.655 548.284C958.717 548.378 958.807 548.504 958.923 548.66C959.008 548.775 959.108 548.907 959.221 549.055C960.605 550.862 964.012 555.044 968.24 560.196C970.673 563.158 973.377 566.441 976.125 569.778L976.127 569.781L976.13 569.784L976.131 569.786L976.161 569.822C979.366 573.713 982.629 577.675 985.588 581.282C987.423 583.52 989.14 585.621 990.655 587.484C991.691 576.813 992.411 566.375 992.834 556.168C992.834 556.166 992.834 556.164 992.834 556.162C992.835 556.137 992.836 556.112 992.837 556.086C992.838 556.072 992.838 556.058 992.839 556.044C992.839 556.038 992.839 556.032 992.84 556.026C992.84 556.025 992.84 556.024 992.84 556.023C992.84 556.018 992.84 556.014 992.84 556.009C992.841 556 992.841 555.991 992.842 555.982C992.842 555.972 992.842 555.962 992.843 555.952C992.843 555.95 992.843 555.949 992.843 555.947C992.898 554.597 992.949 553.251 992.994 551.909C1000.17 338.286 876.914 226.436 804.32 179.329ZM258.363 135.147C258.936 137.076 259.533 139.058 260.151 141.077C263.692 152.655 267.913 165.431 272.255 176.284C276.325 164.073 281.087 153.094 286.378 143.224C320.658 79.2716 377.136 61.8722 411.531 57.4291C429.21 55.1455 441.055 56.2844 441.055 56.2844C443.388 32.0154 443.375 32.0141 443.361 32.0128L443.331 32.01L443.262 32.0036L443.09 31.9881C443.02 31.982 442.942 31.9753 442.855 31.9681C442.779 31.9618 442.696 31.9551 442.607 31.9481C442.225 31.9181 441.723 31.882 441.107 31.845C439.877 31.7709 438.189 31.6926 436.096 31.6506C431.916 31.5666 426.086 31.6263 419.027 32.1605C404.968 33.2245 385.685 36.1972 364.738 43.9025C334.919 54.8713 302.363 75.2683 277.043 111.794C276.657 110.393 276.306 109.104 275.994 107.946C275.436 105.88 275.002 104.236 274.71 103.12C274.564 102.562 274.454 102.136 274.381 101.855L274.301 101.545L274.28 101.462C272.186 93.2479 265.974 86.7091 257.877 84.1978C249.78 81.6863 240.959 83.5616 234.584 89.1499L250.655 107.484C234.584 89.1499 234.574 89.1584 234.564 89.1672L234.543 89.1858L234.496 89.2272L234.384 89.3263C234.302 89.3997 234.204 89.4877 234.091 89.5901C233.865 89.7951 233.579 90.0582 233.238 90.3789C232.555 91.0202 231.651 91.8937 230.565 92.9949C228.397 95.1947 225.491 98.3196 222.184 102.335C215.592 110.341 207.268 122.052 200.048 137.189C189.731 158.822 181.813 187.236 184.175 221.102C157.353 211.424 129.567 201.498 105.599 193.004C87.3733 186.545 71.3198 180.901 59.552 176.815C53.6765 174.775 48.8186 173.105 45.2746 171.912C43.5129 171.318 41.9978 170.816 40.8125 170.436C40.7808 170.426 40.7404 170.413 40.6921 170.397C40.0523 170.191 38.0244 169.535 36.2362 169.177C35.7939 169.088 35.3493 169.012 34.9027 168.949C28.2968 168.005 21.68 168.655 15.6659 171.389C12.747 172.716 10.3114 174.384 8.33519 176.152C7.35807 177.026 6.51457 177.906 5.79118 178.753C5.42975 179.177 5.09857 179.592 4.79564 179.994C4.64416 180.195 4.49969 180.393 4.36196 180.588C4.2931 180.685 4.22591 180.782 4.16036 180.877L4.06326 181.019L4.01562 181.09L3.99203 181.125C3.9803 181.143 3.96859 181.16 24.2547 194.684C24.2547 194.684 25.8547 192.284 31.4547 193.084C31.7151 193.137 32.4093 193.344 33.5003 193.695C33.5295 193.705 33.5589 193.714 33.5886 193.724C36.2922 194.595 41.3349 196.309 48.184 198.679C56.3936 201.519 67.1987 205.3 79.6822 209.701C110.278 220.488 150.956 234.997 188.217 248.487C197.87 251.982 207.295 255.409 216.255 258.684C213.076 248.815 210.939 239.356 209.659 230.33C203.302 185.507 218.101 151.362 231.659 130.582C241.482 115.524 250.655 107.484 250.655 107.484C250.655 107.484 253.742 119.595 258.363 135.147ZM25.0959 216.612C25.0953 216.612 25.1122 216.617 25.1486 216.628C25.1148 216.618 25.0966 216.612 25.0959 216.612Z" fill="white"/>
<g opacity="0.7">
<path d="M446.657 677.885C444.192 680.965 435.558 688.792 427.334 696.247C424.88 698.471 422.463 700.662 420.257 702.685C416.921 705.742 413.489 708.8 410.095 711.824L410.093 711.826C403.718 717.504 397.476 723.065 392.257 728.285C389.057 731.485 382.657 733.085 373.057 733.085H349.057C353.868 726.67 362.407 716.913 371.685 707.009C376.802 702.274 381.967 697.746 386.657 693.884C394.859 687.095 403.062 682.507 410.239 678.492C423.362 671.152 433.057 665.729 433.057 652.284C433.562 625.021 415.268 619.742 401.702 619.558C405.748 618.62 410.308 617.885 414.657 617.885C399.457 613.885 380.257 617.885 371.457 626.685C365.057 632.551 363.635 648.374 362.212 664.196C361.501 672.107 360.79 680.018 359.457 686.685C355.875 705.311 344.594 715.598 327.338 731.333L327.313 731.356L327.262 731.402C325.272 733.217 323.203 735.104 321.057 737.085C320.554 737.551 320.058 738.004 319.568 738.442L266.657 726.684C266.657 726.684 301.857 708.284 307.457 687.484C312.472 669.571 299.519 614.435 296.186 600.25C295.798 598.598 295.54 597.501 295.457 597.084C295.506 597.133 295.613 597.231 295.772 597.376C298.194 599.592 312.7 612.863 319.457 633.884C332.257 598.684 349.057 565.084 353.857 561.884C357.981 559.134 406.398 533.352 419.951 526.147C414.026 542.226 408.35 558.15 404.257 569.885C389.857 573.885 375.457 581.885 365.057 597.885C370.657 593.885 388.257 591.485 401.057 589.885C412.257 589.085 446.657 607.485 455.457 641.885V643.485C457.057 656.285 453.057 668.285 446.657 677.885Z" fill="white"/>
<path d="M419.494 568.259C435.91 566.763 449.511 570.066 453.057 571.485C484.257 512.285 509.057 480.285 515.457 480.285C516.137 480.2 517.602 480.25 519.714 480.323C537.481 480.934 601.001 483.121 627.457 419.485C655.826 350.139 615.887 290.884 613.155 286.831L613.057 286.685C646.656 397.084 572.256 458.684 521.857 459.484C493.857 459.484 456.257 477.884 456.257 477.884L419.494 568.259Z" fill="white"/>
<path d="M613.057 286.685C613.083 286.698 613.125 286.718 613.183 286.746C616.64 288.423 676.407 317.419 693.639 407.396C733.392 453.79 758.315 511.732 765.057 573.084C765.057 577.084 770.657 582.684 776.257 587.484C783.457 594.684 790.657 601.884 790.657 609.084C790.657 628.284 789.057 647.484 785.857 665.884C784.44 671.549 778.01 675.333 771.003 679.457L770.326 679.855C770.055 680.015 769.783 680.176 769.51 680.337C769.093 680.584 768.675 680.833 768.257 681.084C767.169 681.809 765.958 682.575 764.727 683.354L764.723 683.356C760.52 686.016 756.075 688.828 755.457 690.684C739.169 748.431 705.068 800.012 659.493 839.086C734.725 796.75 791.451 725.578 814.877 640.935C822.648 607.59 823.974 572.658 817.857 537.084C789.057 373.884 622.657 290.685 613.057 286.685Z" fill="white"/>
<path d="M420.806 294.73C435.578 295.474 467.175 293.963 497.057 272.285C500.093 279.37 503.104 286.508 506.003 293.48C469.251 303.34 436.299 298.259 420.806 294.73Z" fill="white"/>
<path d="M531.125 284.417C551.033 275.255 571.145 260.915 589.463 238.982C571.759 233.913 553.444 230.301 534.657 228.285C529.057 237.085 523.457 245.085 517.857 251.485C521.17 259.657 525.946 271.487 531.125 284.417Z" fill="white"/>
<path d="M690.657 534.685C698.657 493.885 699.457 458.685 697.057 429.885C728.257 471.485 747.457 521.885 753.057 573.885C753.857 580.285 760.257 586.685 766.657 593.085C772.257 597.885 778.657 604.285 778.657 608.285C778.657 626.685 777.057 645.085 773.857 663.485C773.098 665.76 766.59 669.472 761.144 672.578L760.257 673.085C752.257 677.085 745.057 681.085 743.457 687.485C725.857 749.085 688.257 803.485 637.857 841.885C712.257 764.285 748.257 636.285 690.657 534.685Z" fill="white"/>
</g>
<path fill-rule="evenodd" clip-rule="evenodd" d="M336.256 230.685C336.256 230.685 321.856 127.485 393.856 84.2852C393.602 84.394 393.112 84.5783 392.413 84.8409C377.689 90.3756 270.577 130.639 336.256 230.685ZM491.456 136.286C546.656 115.486 623.456 104.286 742.656 126.686C689.856 100.286 634.656 86.6864 579.456 85.8864C558.656 85.8864 539.456 87.4864 521.856 90.6864C459.456 101.886 408.256 146.686 390.656 206.686C390.656 206.686 403.456 186.686 433.856 165.886L435.124 164.164C446.356 148.917 463.277 125.947 479.456 106.686C484.256 117.086 489.856 129.886 491.456 136.286ZM768.256 269.084C881.056 343.484 932.256 425.884 968.256 522.684C966.656 420.284 932.256 332.284 865.856 261.884L864.256 260.284C805.856 198.684 720.256 169.884 635.456 181.884C603.456 185.884 571.456 192.284 546.656 200.284C542.656 201.084 538.656 201.884 534.656 203.484H536.256C542.656 202.684 659.456 197.084 768.256 269.084ZM872.256 777.884C860.256 793.884 846.656 810.685 830.656 826.685C933.856 628.285 835.456 446.685 831.456 439.485C838.656 446.685 845.856 454.685 852.256 461.885C931.456 549.885 941.056 681.885 872.256 777.884ZM240.858 162.651C237.821 174.24 210.852 277.175 301.856 280.286C247.456 247.486 241.056 162.686 241.056 161.886L241.012 162.06L240.959 162.264L240.858 162.651ZM399.456 377.086L357.856 448.286C357.856 448.286 396.256 430.686 411.456 408.286C423.456 389.086 399.456 377.086 399.456 377.086ZM371.684 707.009C376.8 702.274 381.966 697.746 386.656 693.884C394.858 687.096 403.061 682.507 410.238 678.493C423.36 671.153 433.056 665.73 433.056 652.284C433.56 625.022 415.267 619.743 401.701 619.559C401.91 619.51 402.12 619.463 402.331 619.415C394.913 621.073 389.056 623.485 389.056 623.485C389.056 623.485 412.256 619.485 421.056 636.285C429.856 653.085 422.656 662.685 408.256 672.285C401.066 677.078 385.55 692.208 371.684 707.009ZM447.456 460.285C443.766 463.448 431.394 495.089 419.95 526.147C406.397 533.353 357.98 559.135 353.856 561.884C349.056 565.084 332.256 598.684 319.456 633.884C312.699 612.864 298.193 599.593 295.771 597.377C295.612 597.231 295.505 597.133 295.456 597.084C295.539 597.502 295.797 598.598 296.185 600.251C299.518 614.436 312.471 669.571 307.456 687.484C301.856 708.284 266.656 726.684 266.656 726.684L319.567 738.442C309.141 747.766 301.568 750.685 295.456 750.685C281.856 748.285 265.856 744.285 254.656 740.285C246.656 729.885 234.656 695.485 231.456 681.085C233.182 675.329 238.637 665.017 243.349 656.109L243.35 656.107L243.351 656.104L243.353 656.102L243.356 656.094C245.19 652.627 246.911 649.374 248.256 646.685L249.589 644.131C258.376 627.305 263.531 617.432 265.056 608.285C268.256 594.685 278.656 510.685 282.656 475.485C293.056 489.085 307.456 511.485 304.256 525.885C327.456 493.085 310.656 461.085 302.656 448.285C295.456 435.485 285.856 409.885 293.856 382.685C301.856 355.485 330.656 280.285 330.656 280.285C330.656 280.285 340.256 297.085 353.856 293.885C367.456 290.685 477.056 125.885 477.056 125.885C477.056 125.885 506.656 190.685 475.456 237.885C443.456 285.085 412.256 293.885 412.256 293.885C412.256 293.885 415.407 294.458 420.804 294.73C436.298 298.259 469.25 303.34 506.002 293.481C519.143 325.084 530 353.297 530.656 357.885C530.25 358.831 529.002 361.805 527.19 366.119L527.181 366.142L527.177 366.151L527.174 366.158L527.171 366.165C518.24 387.44 495.713 441.098 493.056 445.085C491.456 446.685 480.256 449.885 472.256 451.485C458.656 455.485 450.656 457.885 447.456 460.285ZM469.056 173.884C469.056 173.884 476.256 205.884 457.856 227.484C434.656 253.884 414.656 253.084 415.456 253.084L469.056 173.884ZM284.256 628.286L277.856 660.286C277.856 660.286 290.656 658.686 290.656 673.086C290.656 684.286 277.856 699.486 267.456 700.286C257.056 701.086 253.056 688.286 255.456 681.086C257.856 674.686 284.256 628.286 284.256 628.286ZM406.656 361.085C434.656 366.685 442.656 399.485 427.456 417.085C412.256 433.885 373.856 457.885 351.456 463.485C346.656 481.885 305.856 473.885 321.056 415.485C321.056 415.485 328.256 443.485 335.456 441.085C342.656 438.685 424.256 310.685 424.256 310.685C424.256 310.685 413.856 344.285 406.656 361.085ZM378.269 658.913C377.833 666.657 377.122 679.301 371.456 687.485C372.013 686.928 373.735 685.109 375.98 682.738L375.983 682.734C380.182 678.299 386.207 671.934 389.856 668.285C392.347 666.043 395.148 664.267 397.825 662.569C403.745 658.815 409.056 655.447 409.056 648.285C409.056 637.085 393.856 634.685 387.456 636.285C381.056 637.885 379.456 648.285 378.656 653.885C378.485 655.078 378.387 656.816 378.269 658.913ZM749.856 689.885C732.256 753.085 692.256 809.085 640.256 849.085C646.791 845.959 653.206 842.624 659.492 839.086C705.066 800.012 739.168 748.431 755.456 690.684C756.074 688.829 760.519 686.016 764.722 683.357L764.725 683.355C765.957 682.576 767.168 681.809 768.256 681.084C768.501 680.937 768.746 680.791 768.991 680.645L769.509 680.338C769.781 680.176 770.054 680.016 770.325 679.856L771.002 679.457C778.008 675.334 784.439 671.549 785.855 665.884C789.055 647.484 790.656 628.284 790.656 609.084C790.656 601.884 783.456 594.684 776.256 587.484C770.656 582.684 765.056 577.084 765.056 573.084C758.314 511.733 733.39 453.79 693.637 407.397C693.996 409.267 694.335 411.162 694.656 413.085C730.656 458.685 753.856 513.885 760.256 572.285C760.256 575.275 763.832 579.16 767.309 582.936C768.483 584.211 769.646 585.474 770.656 586.685C777.856 593.885 785.056 601.085 785.056 608.285C785.056 627.485 783.456 646.685 780.256 665.085C778.656 671.485 770.656 676.285 762.656 680.285C761.574 681.006 760.37 681.768 759.145 682.543L759.125 682.556L759.122 682.558C754.919 685.217 750.474 688.03 749.856 689.885ZM613.056 286.686L613.062 286.688C622.722 290.719 789.061 373.917 817.855 537.084C823.973 572.657 822.647 607.589 814.876 640.934C822.555 613.185 826.656 583.988 826.656 553.885C826.656 404.422 726.302 278.166 589.462 238.983C571.144 260.915 551.032 275.255 531.124 284.418C544.705 318.323 561.055 359.789 561.055 362.685C561.055 367.485 545.856 406.685 544.256 408.285C542.656 409.085 524.256 410.685 517.056 410.685C509.056 429.885 501.056 448.285 499.456 450.685C497.056 453.885 489.856 456.285 474.656 460.285C473.03 460.773 471.24 461.293 469.405 461.827C462.209 463.919 454.33 466.21 453.056 467.485C449.056 472.285 427.456 529.085 413.056 569.085C415.237 568.721 417.388 568.451 419.493 568.259L456.256 477.884C456.256 477.884 493.856 459.484 521.856 459.484C572.255 458.684 646.655 397.085 613.056 286.686ZM279.456 330.685C285.056 320.285 280.256 313.085 275.456 309.085L273.856 307.485C264.256 302.685 204.256 280.285 145.056 259.485C197.056 293.885 254.656 327.485 264.256 332.285C271.456 335.485 276.256 336.285 279.456 330.685Z" fill="white"/>
</g>
<defs>
<clipPath id="clip0_10087_5901">
<rect width="1024" height="1024" fill="white"/>
</clipPath>
</defs>
</svg>
