<svg width="321" height="602" viewBox="0 0 321 602" fill="none" xmlns="http://www.w3.org/2000/svg">
<path fill-rule="evenodd" clip-rule="evenodd" d="M1.11477e-05 255.03C0.301029 370.686 0.434151 486.345 0.399777 602C6.79579 602 13.1918 602 19.5878 602C19.5211 516.725 19.5878 431.445 19.7877 346.17C54.9294 424.046 90.1742 501.858 125.522 579.615C131.166 576.849 136.896 574.314 142.711 572.02C109.262 497.333 75.6169 422.715 41.774 348.169C41.459 347.505 41.3255 346.837 41.3742 346.17C99.4049 404.199 157.435 462.225 215.466 520.254C215.732 520.522 215.999 520.522 216.265 520.254C220.663 515.857 225.06 511.46 229.457 507.063C169.761 447.371 110.065 387.674 50.3686 327.982C53.1773 328.741 55.9755 329.673 58.7634 330.78C134.619 361.104 210.572 391.152 286.621 420.92C288.657 414.98 290.922 409.12 293.417 403.332C215.967 372.632 138.548 341.853 61.1619 310.993C147.774 310.594 234.387 310.46 321 310.593C321 304.198 321 297.802 321 291.406C234.387 291.473 147.774 291.406 61.1619 291.206C138.564 260.321 215.983 229.475 293.417 198.668C291.096 192.769 288.697 186.906 286.222 181.08C207.621 212.142 129.07 243.321 50.5685 274.617C50.3019 274.351 50.3019 274.085 50.5685 273.818C110.137 214.319 169.633 154.758 229.057 95.1367C224.666 90.5453 220.202 86.0151 215.666 81.5457C158.101 139.107 100.537 196.669 42.9732 254.231C43.3878 252.323 44.0542 250.458 44.972 248.635C77.9115 176.098 110.624 103.48 143.111 30.7794C137.239 28.4438 131.443 25.9123 125.722 23.1845C90.52 101.446 55.2088 179.661 19.7877 257.829C19.5878 171.886 19.521 85.9428 19.5878 -0.000122927C13.1918 -0.000122647 6.79577 -0.000122367 0.399751 -0.000122088C0.532872 85.077 0.399758 170.087 1.11477e-05 255.03Z" fill="#00E2ED"/>
</svg>
