<svg width="57" height="72" viewBox="0 0 57 72" fill="none" xmlns="http://www.w3.org/2000/svg">
<path d="M40.7499 51.54C38.2199 54.46 36.8099 59.79 38.6599 61.51C40.4199 62.83 45.1599 62.6701 48.6599 57.8701C51.2099 54.6701 50.3499 49.3099 48.8999 47.8899C46.7399 46.2499 43.6499 48.3801 40.7499 51.5801V51.54ZM16.9398 52.4199C14.2498 49.3499 10.7599 47.5201 8.50991 48.8701C6.99991 50.0001 6.7199 53.8599 8.8699 57.6399C12.0599 62.1499 16.5499 62.61 18.3999 61.51C20.3499 60.07 19.2899 55.1799 16.9499 52.4099L16.9398 52.4199ZM29.0699 61.72C25.7999 61.65 20.7899 63.03 20.8599 64.78C20.7999 65.97 24.7999 69.43 28.8599 69.25C32.7699 69.34 36.8299 65.8799 36.7799 64.3799C36.7699 62.8299 32.3499 61.64 29.0699 61.77V61.72ZM28.8499 20.5C25.0699 20.41 21.4499 23.2599 21.4499 24.9099C21.4399 26.9199 24.4299 28.97 28.8799 29.03C33.4399 29.05 36.3199 27.38 36.3599 25.3C36.4099 22.96 32.2399 20.46 28.9099 20.49H28.8499V20.5ZM19.7699 22.0701C13.4599 21.0501 8.20995 24.73 8.41995 31.51C8.62995 34.12 22.1099 22.5201 19.7799 22.1201V22.0701H19.7699ZM48.5899 31.6699C48.7999 24.9399 43.5399 21.27 37.2299 22.28C34.9099 22.69 48.3899 34.2899 48.5899 31.6699ZM49.6699 34.1101C46.0099 33.1401 48.4299 49.05 51.4199 47.76C54.6999 45.19 55.7499 37.5599 49.6699 34.1599V34.1101ZM5.6199 47.9399C8.5999 49.2699 11.0199 33.3601 7.35989 34.3401C1.29989 37.7601 2.3399 45.37 5.6199 47.99V47.9399ZM33.4599 30.3501C30.0599 32.5701 29.4499 37.5299 32.0999 41.4299C34.7299 45.3299 39.6199 46.7901 42.9999 44.6201C46.3999 42.4601 47.0099 37.5 44.3699 33.54C41.7199 29.6 36.8399 28.1799 33.4599 30.3999V30.3501ZM24.3 30.75C20.91 28.58 16.0199 29.9999 13.3999 33.8899C10.7599 37.8399 11.3699 42.8 14.7599 45.01C18.1499 47.23 23.03 45.8101 25.68 41.8701C28.29 37.9701 27.67 33 24.31 30.79V30.75H24.3ZM37.2099 51.9199C37.1899 47.8099 33.5099 44.48 28.9999 44.53C24.4799 44.57 20.8299 47.89 20.8599 52.01V52.0901C20.8799 56.2101 24.5699 59.54 29.0799 59.49C33.5899 59.49 37.2298 56.13 37.1898 52.05V51.95L37.2099 51.8999V51.9199ZM46.7099 7.17993C39.8799 10.6799 35.9099 13.4801 33.7299 15.8601C34.8499 20.3001 40.66 20.4701 42.8 20.3301C42.36 20.1601 41.9899 19.89 41.8599 19.55C42.3899 19.19 44.2899 19.5 45.6099 18.79C45.0999 18.71 44.8599 18.61 44.6299 18.21C45.8799 17.82 47.2199 17.5101 47.9999 16.8401C47.5899 16.8401 47.1799 16.9301 46.6299 16.5701C47.7399 16.0001 48.9299 15.5099 49.8599 14.6299C49.2799 14.6299 48.6599 14.6299 48.4899 14.4099C49.4999 13.7899 50.3599 13.1201 51.0799 12.3201C50.2799 12.4601 49.9399 12.38 49.7399 12.24C50.5099 11.48 51.4999 10.8201 51.9599 9.84009C51.3599 10.0701 50.8099 10.1101 50.4099 9.84009C50.6899 9.27009 51.8099 8.92004 52.4499 7.54004C51.8199 7.63004 51.1499 7.68004 51.0099 7.54004C51.3099 6.38004 51.81 5.73001 52.31 5.01001C50.96 5.01001 48.8999 5.00993 48.9999 4.92993L49.8299 4.09009C48.5099 3.73009 47.16 4.13995 46.18 4.44995C45.74 4.13995 46.1799 3.69 46.7199 3.25C45.5599 3.43 44.5599 3.66001 43.6699 4.01001C43.1799 3.56001 43.9699 3.16996 44.3699 2.70996C42.5999 3.06996 41.8899 3.50995 41.1299 3.94995C40.5999 3.45995 41.0898 3.02988 41.4398 2.62988C40.1098 3.11988 39.4399 3.73005 38.7399 4.30005C38.4699 3.99005 38.12 3.76997 38.55 2.96997C37.63 3.49997 36.9099 4.13008 36.3799 4.83008C35.8099 4.44008 36.0299 3.94 36.0299 3.5C35.0499 4.3 34.4298 5.0899 33.6898 5.8999C33.4998 5.8099 33.3799 5.45012 33.2799 4.87012C30.9799 7.09012 27.6898 12.63 32.4398 14.79C36.4198 11.55 41.2499 9.16989 46.5799 7.38989L46.7099 7.16992V7.17993ZM10.4699 7.17993C15.7799 8.95993 20.5799 11.3499 24.5999 14.6299C29.3099 12.4099 26.0499 6.86996 23.7599 4.70996C23.6399 5.27996 23.5199 5.68002 23.3699 5.77002C22.6199 4.97002 22.0099 4.16012 21.0399 3.37012C21.0399 3.82012 21.2698 4.34995 20.6898 4.69995C20.1698 3.99995 19.48 3.37009 18.55 2.84009C18.99 3.60009 18.6199 3.81992 18.3699 4.16992C17.6699 3.50992 16.9999 2.8899 15.7199 2.3999C16.0799 2.8399 16.6099 3.29002 16.0799 3.77002C15.3699 3.33002 14.6099 2.88002 12.8899 2.52002C13.2799 2.96002 14.0799 3.41011 13.5899 3.86011C12.6499 3.49011 11.6399 3.22009 10.5299 3.09009C11.0599 3.54009 11.5299 3.94004 11.0999 4.29004C10.0799 3.93004 8.71992 3.5399 7.38992 3.8999L8.21987 4.72998C8.31987 4.84998 6.27993 4.82008 4.89993 4.83008C5.39993 5.50008 5.89986 6.16011 6.19986 7.36011C6.05986 7.49011 5.39992 7.41011 4.76992 7.36011C5.43992 8.69011 6.53995 9.05012 6.79995 9.62012C6.40995 9.90012 5.8799 9.84012 5.2499 9.62012C5.7399 10.5401 6.71987 11.21 7.46987 12.01C7.24987 12.14 6.93988 12.2299 6.09988 12.1299C6.79988 12.8899 7.64995 13.58 8.66995 14.21C8.47995 14.42 7.8599 14.4099 7.2499 14.4299C8.1699 15.3299 9.37989 15.7999 10.4899 16.3899C9.90989 16.7999 9.5099 16.7 9.1199 16.7C9.8699 17.36 11.2499 17.6701 12.4899 18.0601C12.2099 18.4601 11.9999 18.5599 11.4599 18.6399C12.7899 19.3899 14.6498 19.0499 15.1898 19.4399C15.0498 19.7999 14.6999 20.06 14.2599 20.25C16.3799 20.38 22.2399 20.2 23.3499 15.77C21.1699 13.38 17.1799 10.5799 10.3599 7.12988L10.4799 7.16992L10.4699 7.17993ZM15.5999 0.570068C16.2899 0.560068 16.8799 0.969922 17.5299 1.16992C19.0899 0.659922 19.4499 1.34989 20.2099 1.63989C21.9199 1.27989 22.4399 2.04988 23.2599 2.87988L24.2099 2.84009C26.7799 4.34009 28.0699 7.38995 28.5199 8.94995C28.9699 7.38995 30.2499 4.34009 32.8299 2.84009L33.7799 2.86011C34.5999 2.03011 35.1199 1.27012 36.8299 1.62012C37.5999 1.31012 37.9499 0.649883 39.5199 1.12988C40.4999 0.819883 41.3599 0.0199902 42.6499 0.98999C43.7299 0.54999 44.7999 0.41001 45.7299 1.26001C47.1999 1.08001 47.6599 1.43988 48.0199 1.87988C48.3499 1.87988 50.4099 1.56994 51.3699 2.93994C53.7699 2.66994 54.5299 4.31011 53.6599 5.86011C54.1599 6.61011 54.6599 7.33 53.5199 8.75C53.9599 9.55 53.6899 10.3799 52.7099 11.4399C52.9899 12.5499 52.4899 13.3099 51.6099 13.9199C51.7899 15.4299 50.1899 16.3201 49.7499 16.6201C49.5699 17.5101 49.2099 18.35 47.3999 18.79C47.1299 20.12 46.0299 20.3401 44.9599 20.6101C48.4699 22.6101 51.43 25.2199 51.43 31.6399L51.9699 32.53C55.9499 34.92 59.5499 42.5901 53.9599 48.8401C53.6099 50.7801 52.9899 52.16 52.4499 53.7C51.6499 59.95 46.2899 62.87 44.8799 63.23C42.8399 64.78 40.6299 66.24 37.6599 67.26C34.8599 70.1 31.81 71.21 28.8 71.21H28.5399C25.4799 71.21 22.4299 70.1 19.6299 67.26C16.6499 66.24 14.4299 64.79 12.3899 63.23C10.9699 62.88 5.63996 59.96 4.80996 53.71C4.25996 52.16 3.64994 50.74 3.28994 48.79C-2.31006 42.54 1.2699 34.88 5.2499 32.48L5.75991 31.6001C5.75991 25.1801 8.71989 22.5601 12.2299 20.5701C11.1699 20.3001 10.1 20.08 9.80996 18.74C7.97996 18.3 7.62986 17.4601 7.44986 16.5701C7.00986 16.2701 5.41987 15.3801 5.58987 13.8401C4.69987 13.2201 4.21988 12.4701 4.47988 11.3101C3.55988 10.2901 3.28996 9.41011 3.67996 8.61011C2.52996 7.19011 3.05994 6.43998 3.53994 5.72998C2.69994 4.16998 3.45988 2.50002 5.84988 2.77002C6.76988 1.40002 8.85995 1.70996 9.16995 1.70996C9.52995 1.25996 10.0099 0.870039 11.4799 1.04004C12.3999 0.200039 13.4799 0.32999 14.5799 0.73999C15.0299 0.37999 15.4199 0.25 15.7799 0.25L15.6199 0.550049L15.5999 0.570068Z" fill="white"/>
</svg>
