<svg width="117" height="116" viewBox="0 0 117 116" fill="none" xmlns="http://www.w3.org/2000/svg">
<path d="M58.17 0.129883C26.2 0.129883 0.290039 26.0398 0.290039 58.0098C0.320039 88.2398 23.6 113.35 53.73 115.67V93.8198C39.18 91.6598 27.9501 79.0602 27.9501 63.9302C27.9501 57.1702 30.19 50.9099 33.98 45.8599C31.81 46.8799 29.3401 47.1799 27.2401 46.1499C22.9701 44.0599 21.7501 34.4498 22.0301 27.7798C22.4501 27.7598 22.8801 27.75 23.3101 27.75C29.8701 27.67 38.4401 29 40.4001 33C41.4301 35.1 41.13 37.5702 40.11 39.7402C44.05 36.7902 48.72 34.7798 53.8 34.0298C51.57 33.2098 49.6301 31.69 48.8801 29.48C47.3401 24.98 53.2701 17.3298 58.1901 12.7998C63.1001 17.3298 69.0301 24.98 67.5001 29.48C66.7501 31.68 64.8101 33.2098 62.5801 34.0298C67.6601 34.7698 72.3301 36.79 76.2701 39.73C75.2501 37.56 74.95 35.0902 75.98 32.9902C77.94 28.9902 86.5101 27.6702 93.0701 27.7402C93.5101 27.7402 93.94 27.76 94.35 27.77C94.63 34.45 93.4101 44.0501 89.1401 46.1401C87.0401 47.1701 84.5701 46.8701 82.4001 45.8501C86.1801 50.9001 88.4301 57.1499 88.4301 63.9199C88.4301 79.0599 77.1901 91.6598 62.6301 93.8198V115.7C92.7901 113.39 116.08 88.25 116.08 58C116.08 26.03 90.1701 0.120117 58.2001 0.120117L58.17 0.129883Z" fill="#1D1D1B"/>
<path d="M58.1703 42.5801C46.3303 42.5801 36.8203 52.0802 36.8203 63.9302C36.8203 75.7702 46.3203 85.2798 58.1703 85.2798C70.0203 85.2798 79.5203 75.7802 79.5203 63.9302C79.5203 52.0802 70.0203 42.5801 58.1703 42.5801ZM58.1703 49.8398C59.1503 49.8398 60.1303 50.2202 60.8803 50.9702L71.1303 61.2202C72.6303 62.7202 72.6303 65.1399 71.1303 66.6499L60.8803 76.8999C59.3803 78.3999 56.9603 78.3999 55.4503 76.8999L45.2003 66.6499C43.7003 65.1499 43.7003 62.7302 45.2003 61.2202L55.4503 50.9702C56.2003 50.2202 57.1803 49.8398 58.1603 49.8398H58.1703Z" fill="#1D1D1B"/>
</svg>
