<?xml version="1.0" encoding="UTF-8"?>
<svg version="1.1" viewBox="0 0 183.29 129.16" xmlns="http://www.w3.org/2000/svg"
  xmlns:cc="http://creativecommons.org/ns#" xmlns:dc="http://purl.org/dc/elements/1.1/"
  xmlns:rdf="http://www.w3.org/1999/02/22-rdf-syntax-ns#">
  <metadata>
    <rdf:RDF>
      <cc:Work rdf:about="">
        <dc:format>image/svg+xml</dc:format>
        <dc:type rdf:resource="http://purl.org/dc/dcmitype/StillImage" />
      </cc:Work>
    </rdf:RDF>
  </metadata>
  <defs>
    <clipPath id="n">
      <path d="m672 3438h49v12h-49z" />
    </clipPath>
    <clipPath id="m">
      <path
        d="m690.66 3439.7c0 1.5859-1.2891 2.8711-2.875 2.8711h-12.5c-1.5898 0-2.875 1.289-2.875 2.875v1.2851c0 1.586 1.2852 2.8711 2.875 2.8711h41.863c1.5898 0 2.875-1.2851 2.875-2.8711 0-1.5898-1.2852-2.875-2.875-2.875h-10.172c-1.5898 0-2.875-1.289-2.875-2.875v-1.7617l-13.441-1.1094z" />
    </clipPath>
    <linearGradient id="d" x1="-1.5311e-5" x2="1" gradientTransform="matrix(47.614 0 0 47.614 672.41 3443.9)"
      gradientUnits="userSpaceOnUse">
      <stop stop-color="#22234f" offset="0" />
      <stop stop-color="#232450" offset=".015625" />
      <stop stop-color="#232450" offset=".03125" />
      <stop stop-color="#232451" offset=".046875" />
      <stop stop-color="#232452" offset=".0625" />
      <stop stop-color="#232452" offset=".078125" />
      <stop stop-color="#232553" offset=".09375" />
      <stop stop-color="#232554" offset=".10938" />
      <stop stop-color="#232554" offset=".125" />
      <stop stop-color="#242555" offset=".14062" />
      <stop stop-color="#242556" offset=".15625" />
      <stop stop-color="#242556" offset=".17188" />
      <stop stop-color="#242657" offset=".1875" />
      <stop stop-color="#242658" offset=".20312" />
      <stop stop-color="#242658" offset=".21875" />
      <stop stop-color="#242659" offset=".23438" />
      <stop stop-color="#24265a" offset=".25" />
      <stop stop-color="#25275a" offset=".26562" />
      <stop stop-color="#25275b" offset=".28125" />
      <stop stop-color="#25275c" offset=".29688" />
      <stop stop-color="#25275c" offset=".3125" />
      <stop stop-color="#25275d" offset=".32812" />
      <stop stop-color="#25285e" offset=".34375" />
      <stop stop-color="#25285e" offset=".35938" />
      <stop stop-color="#25285f" offset=".375" />
      <stop stop-color="#262860" offset=".39062" />
      <stop stop-color="#262860" offset=".40625" />
      <stop stop-color="#262861" offset=".42188" />
      <stop stop-color="#262962" offset=".4375" />
      <stop stop-color="#262962" offset=".45312" />
      <stop stop-color="#262963" offset=".46875" />
      <stop stop-color="#262964" offset=".48438" />
      <stop stop-color="#262964" offset=".5" />
      <stop stop-color="#272a65" offset=".51562" />
      <stop stop-color="#272a65" offset=".53125" />
      <stop stop-color="#272a66" offset=".54688" />
      <stop stop-color="#272a67" offset=".5625" />
      <stop stop-color="#272a67" offset=".57812" />
      <stop stop-color="#272b68" offset=".59375" />
      <stop stop-color="#272b69" offset=".60938" />
      <stop stop-color="#272b69" offset=".625" />
      <stop stop-color="#282b6a" offset=".64062" />
      <stop stop-color="#282b6b" offset=".65625" />
      <stop stop-color="#282b6b" offset=".67188" />
      <stop stop-color="#282c6c" offset=".6875" />
      <stop stop-color="#282c6d" offset=".70312" />
      <stop stop-color="#282c6d" offset=".71875" />
      <stop stop-color="#282c6e" offset=".73438" />
      <stop stop-color="#282c6f" offset=".75" />
      <stop stop-color="#292d6f" offset=".76562" />
      <stop stop-color="#292d70" offset=".78125" />
      <stop stop-color="#292d71" offset=".79688" />
      <stop stop-color="#292d71" offset=".8125" />
      <stop stop-color="#292d72" offset=".82812" />
      <stop stop-color="#292e73" offset=".84375" />
      <stop stop-color="#292e73" offset=".85938" />
      <stop stop-color="#292e74" offset=".875" />
      <stop stop-color="#2a2e75" offset=".89062" />
      <stop stop-color="#2a2e75" offset=".90625" />
      <stop stop-color="#2a2e76" offset=".92188" />
      <stop stop-color="#2a2f77" offset=".9375" />
      <stop stop-color="#2a2f77" offset=".95312" />
      <stop stop-color="#2a2f78" offset=".96875" />
      <stop stop-color="#2a2f79" offset=".98438" />
      <stop stop-color="#2a2f79" offset="1" />
    </linearGradient>
    <clipPath id="l">
      <path d="m642 3372h110v69h-110z" />
    </clipPath>
    <clipPath id="k">
      <path
        d="m745.62 3372.4-97.781 2.0547c-3.2344 0.066-5.8281 2.7539-5.7812 5.9922l0.75 54.106c0.043 3.2148 2.6953 5.8281 5.9102 5.8281h95.547c3.2266 0 5.8242-2.5234 5.9062-5.7539l1.4766-56.164c0.043-1.6054-0.58203-3.1796-1.7148-4.3203-1.1055-1.1093-2.6094-1.7422-4.1953-1.7422h-0.11719m-97.246 8.3594 96.953-2.0351-1.457 55.344h-94.754z" />
    </clipPath>
    <linearGradient id="c" x1="-.00040042" x2="1.0004" gradientTransform="matrix(109.6 0 0 109.6 642.06 3406.4)"
      gradientUnits="userSpaceOnUse">
      <stop stop-color="#22234f" offset="0" />
      <stop stop-color="#232450" offset=".015625" />
      <stop stop-color="#232450" offset=".03125" />
      <stop stop-color="#232451" offset=".046875" />
      <stop stop-color="#232452" offset=".0625" />
      <stop stop-color="#232452" offset=".078125" />
      <stop stop-color="#232553" offset=".09375" />
      <stop stop-color="#232554" offset=".10938" />
      <stop stop-color="#232554" offset=".125" />
      <stop stop-color="#242555" offset=".14062" />
      <stop stop-color="#242556" offset=".15625" />
      <stop stop-color="#242556" offset=".17188" />
      <stop stop-color="#242657" offset=".1875" />
      <stop stop-color="#242658" offset=".20312" />
      <stop stop-color="#242658" offset=".21875" />
      <stop stop-color="#242659" offset=".23438" />
      <stop stop-color="#24265a" offset=".25" />
      <stop stop-color="#25275a" offset=".26562" />
      <stop stop-color="#25275b" offset=".28125" />
      <stop stop-color="#25275c" offset=".29688" />
      <stop stop-color="#25275c" offset=".3125" />
      <stop stop-color="#25275d" offset=".32812" />
      <stop stop-color="#25285e" offset=".34375" />
      <stop stop-color="#25285e" offset=".35938" />
      <stop stop-color="#25285f" offset=".375" />
      <stop stop-color="#262860" offset=".39062" />
      <stop stop-color="#262860" offset=".40625" />
      <stop stop-color="#262861" offset=".42188" />
      <stop stop-color="#262962" offset=".4375" />
      <stop stop-color="#262962" offset=".45312" />
      <stop stop-color="#262963" offset=".46875" />
      <stop stop-color="#262964" offset=".48438" />
      <stop stop-color="#262964" offset=".5" />
      <stop stop-color="#272a65" offset=".51562" />
      <stop stop-color="#272a65" offset=".53125" />
      <stop stop-color="#272a66" offset=".54688" />
      <stop stop-color="#272a67" offset=".5625" />
      <stop stop-color="#272a67" offset=".57812" />
      <stop stop-color="#272b68" offset=".59375" />
      <stop stop-color="#272b69" offset=".60938" />
      <stop stop-color="#272b69" offset=".625" />
      <stop stop-color="#282b6a" offset=".64062" />
      <stop stop-color="#282b6b" offset=".65625" />
      <stop stop-color="#282b6b" offset=".67188" />
      <stop stop-color="#282c6c" offset=".6875" />
      <stop stop-color="#282c6d" offset=".70312" />
      <stop stop-color="#282c6d" offset=".71875" />
      <stop stop-color="#282c6e" offset=".73438" />
      <stop stop-color="#282c6f" offset=".75" />
      <stop stop-color="#292d6f" offset=".76562" />
      <stop stop-color="#292d70" offset=".78125" />
      <stop stop-color="#292d71" offset=".79688" />
      <stop stop-color="#292d71" offset=".8125" />
      <stop stop-color="#292d72" offset=".82812" />
      <stop stop-color="#292e73" offset=".84375" />
      <stop stop-color="#292e73" offset=".85938" />
      <stop stop-color="#292e74" offset=".875" />
      <stop stop-color="#2a2e75" offset=".89062" />
      <stop stop-color="#2a2e75" offset=".90625" />
      <stop stop-color="#2a2e76" offset=".92188" />
      <stop stop-color="#2a2f77" offset=".9375" />
      <stop stop-color="#2a2f77" offset=".95312" />
      <stop stop-color="#2a2f78" offset=".96875" />
      <stop stop-color="#2a2f79" offset=".98438" />
      <stop stop-color="#2a2f79" offset="1" />
    </linearGradient>
    <clipPath id="j">
      <path d="m694 3394h40v30h-40z" />
    </clipPath>
    <clipPath id="i">
      <path
        d="m701.09 3394.9c-3.4766 0-6.293 2.8203-6.293 6.293v16.301c0 3.4766 2.8164 6.293 6.293 6.293h26.469c3.4766 0 6.2969-2.8164 6.2969-6.293v-16.301c0-3.4727-2.8203-6.293-6.293-6.293z" />
    </clipPath>
    <linearGradient id="b" x1="-.029986" x2="1.03"
      gradientTransform="matrix(-5.7716 -32.733 32.733 -5.7716 717.21 3425.7)" gradientUnits="userSpaceOnUse">
      <stop stop-color="#5b3389" offset="0" />
      <stop stop-color="#5c348a" offset=".03125" />
      <stop stop-color="#5c348a" offset=".046875" />
      <stop stop-color="#5d358a" offset=".0625" />
      <stop stop-color="#5d368a" offset=".078125" />
      <stop stop-color="#5e378b" offset=".09375" />
      <stop stop-color="#5e388b" offset=".10938" />
      <stop stop-color="#5f398b" offset=".125" />
      <stop stop-color="#603a8b" offset=".14062" />
      <stop stop-color="#603b8c" offset=".15625" />
      <stop stop-color="#613b8c" offset=".17188" />
      <stop stop-color="#613c8c" offset=".1875" />
      <stop stop-color="#623d8d" offset=".20312" />
      <stop stop-color="#633e8d" offset=".21875" />
      <stop stop-color="#633f8d" offset=".23438" />
      <stop stop-color="#64408e" offset=".25" />
      <stop stop-color="#65418e" offset=".26562" />
      <stop stop-color="#65428e" offset=".28125" />
      <stop stop-color="#66438e" offset=".29688" />
      <stop stop-color="#66448f" offset=".3125" />
      <stop stop-color="#67458f" offset=".32812" />
      <stop stop-color="#68458f" offset=".34375" />
      <stop stop-color="#684690" offset=".35938" />
      <stop stop-color="#694790" offset=".375" />
      <stop stop-color="#694890" offset=".39062" />
      <stop stop-color="#6a4991" offset=".40625" />
      <stop stop-color="#6b4a91" offset=".42188" />
      <stop stop-color="#6b4b91" offset=".4375" />
      <stop stop-color="#6c4c91" offset=".45312" />
      <stop stop-color="#6c4d92" offset=".46875" />
      <stop stop-color="#6d4e92" offset=".48438" />
      <stop stop-color="#6e4f92" offset=".5" />
      <stop stop-color="#6e4f93" offset=".51562" />
      <stop stop-color="#6f5093" offset=".53125" />
      <stop stop-color="#705193" offset=".54688" />
      <stop stop-color="#705294" offset=".5625" />
      <stop stop-color="#715394" offset=".57812" />
      <stop stop-color="#715494" offset=".59375" />
      <stop stop-color="#725594" offset=".60938" />
      <stop stop-color="#735695" offset=".625" />
      <stop stop-color="#735795" offset=".64062" />
      <stop stop-color="#745895" offset=".65625" />
      <stop stop-color="#745996" offset=".67188" />
      <stop stop-color="#755a96" offset=".6875" />
      <stop stop-color="#765a96" offset=".70312" />
      <stop stop-color="#765b97" offset=".71875" />
      <stop stop-color="#775c97" offset=".73438" />
      <stop stop-color="#785d97" offset=".75" />
      <stop stop-color="#785e97" offset=".76562" />
      <stop stop-color="#795f98" offset=".78125" />
      <stop stop-color="#796098" offset=".79688" />
      <stop stop-color="#7a6198" offset=".8125" />
      <stop stop-color="#7b6299" offset=".82812" />
      <stop stop-color="#7b6399" offset=".84375" />
      <stop stop-color="#7c6499" offset=".85938" />
      <stop stop-color="#7c649a" offset=".875" />
      <stop stop-color="#7d659a" offset=".89062" />
      <stop stop-color="#7e669a" offset=".90625" />
      <stop stop-color="#7e679a" offset=".92188" />
      <stop stop-color="#7f689b" offset=".9375" />
      <stop stop-color="#7f699b" offset=".95312" />
      <stop stop-color="#806a9b" offset=".96875" />
      <stop stop-color="#806a9b" offset="1" />
    </linearGradient>
    <clipPath id="h">
      <rect width="40" height="12" />
    </clipPath>
    <clipPath id="g">
      <path d="m0.80078 0.58984h39.059v11.23h-39.059z" />
    </clipPath>
    <clipPath id="f">
      <path d="m700 3386h3v4h-3z" />
    </clipPath>
    <clipPath id="e">
      <path
        d="m700.12 3387.9c0 0.6523 0.52734 1.1836 1.1758 1.1836s1.1719-0.5313 1.1719-1.1836c0-0.6524-0.52343-1.1836-1.1719-1.1836s-1.1758 0.5312-1.1758 1.1836" />
    </clipPath>
    <linearGradient id="a" x1="-.028321" x2="1.0028" gradientTransform="matrix(2.2781 0 0 -2.2781 700.18 3387.9)"
      gradientUnits="userSpaceOnUse">
      <stop stop-color="#ffd24e" offset="0" />
      <stop stop-color="#fed24e" offset=".03125" />
      <stop stop-color="#fed24e" offset=".046875" />
      <stop stop-color="#fed14d" offset=".0625" />
      <stop stop-color="#fed14c" offset=".078125" />
      <stop stop-color="#fed04b" offset=".09375" />
      <stop stop-color="#fecf4b" offset=".10938" />
      <stop stop-color="#fece4a" offset=".125" />
      <stop stop-color="#fecd49" offset=".14062" />
      <stop stop-color="#fdcd48" offset=".15625" />
      <stop stop-color="#fdcc47" offset=".17188" />
      <stop stop-color="#fdcb46" offset=".1875" />
      <stop stop-color="#fdca45" offset=".20312" />
      <stop stop-color="#fdca45" offset=".21875" />
      <stop stop-color="#fdc944" offset=".23438" />
      <stop stop-color="#fdc843" offset=".25" />
      <stop stop-color="#fcc742" offset=".26562" />
      <stop stop-color="#fcc641" offset=".28125" />
      <stop stop-color="#fcc640" offset=".29688" />
      <stop stop-color="#fcc53f" offset=".3125" />
      <stop stop-color="#fcc43f" offset=".32812" />
      <stop stop-color="#fcc33e" offset=".34375" />
      <stop stop-color="#fcc33d" offset=".35938" />
      <stop stop-color="#fbc23c" offset=".375" />
      <stop stop-color="#fbc13b" offset=".39062" />
      <stop stop-color="#fbc03a" offset=".40625" />
      <stop stop-color="#fbbf39" offset=".42188" />
      <stop stop-color="#fbbf39" offset=".4375" />
      <stop stop-color="#fbbe38" offset=".45312" />
      <stop stop-color="#fabd37" offset=".46875" />
      <stop stop-color="#fabc36" offset=".48438" />
      <stop stop-color="#fabc35" offset=".5" />
      <stop stop-color="#fabb34" offset=".51562" />
      <stop stop-color="#faba33" offset=".53125" />
      <stop stop-color="#fab933" offset=".54688" />
      <stop stop-color="#fab832" offset=".5625" />
      <stop stop-color="#f9b831" offset=".57812" />
      <stop stop-color="#f9b730" offset=".59375" />
      <stop stop-color="#f9b62f" offset=".60938" />
      <stop stop-color="#f9b52e" offset=".625" />
      <stop stop-color="#f9b52d" offset=".64062" />
      <stop stop-color="#f9b42d" offset=".65625" />
      <stop stop-color="#f9b32c" offset=".67188" />
      <stop stop-color="#f8b22b" offset=".6875" />
      <stop stop-color="#f8b12a" offset=".70312" />
      <stop stop-color="#f8b129" offset=".71875" />
      <stop stop-color="#f8b028" offset=".73438" />
      <stop stop-color="#f8af27" offset=".75" />
      <stop stop-color="#f8ae27" offset=".76562" />
      <stop stop-color="#f8ae26" offset=".78125" />
      <stop stop-color="#f7ad25" offset=".79688" />
      <stop stop-color="#f7ac24" offset=".8125" />
      <stop stop-color="#f7ab23" offset=".82812" />
      <stop stop-color="#f7ab22" offset=".84375" />
      <stop stop-color="#f7aa21" offset=".85938" />
      <stop stop-color="#f7a921" offset=".875" />
      <stop stop-color="#f7a820" offset=".89062" />
      <stop stop-color="#f6a71f" offset=".90625" />
      <stop stop-color="#f6a71e" offset=".92188" />
      <stop stop-color="#f6a61d" offset=".9375" />
      <stop stop-color="#f6a51c" offset=".95312" />
      <stop stop-color="#f6a41b" offset=".96875" />
      <stop stop-color="#f6a41b" offset=".98438" />
      <stop stop-color="#f6a31a" offset="1" />
    </linearGradient>
  </defs>
  <g transform="matrix(4.1342 0 0 4.1342 -1048.9 -4394.6)">
    <g transform="matrix(.40454 0 0 .40454 -6.032 -301.29)" stroke-width=".79724">
      <g clip-path="url(#n)" stroke-width=".60132">
        <g clip-path="url(#m)" stroke-width=".45356">
          <path d="m672.41 3438.1v11.492h47.613v-11.492z" fill="url(#d)" />
        </g>
      </g>
      <g clip-path="url(#l)" stroke-width=".60132">
        <g clip-path="url(#k)" stroke-width=".45356">
          <path d="m642.01 3372.4v67.98h109.68v-67.98z" fill="url(#c)" />
        </g>
      </g>
      <path
        d="m745.57 3434.6c0 0.9492-0.77734 1.7266-1.7305 1.7266h-94.676c-0.94922 0-1.7305-0.7774-1.7305-1.7266l-0.77343-51.527c0.0898-3.1016 2.8086-4.2149 4.457-4.1485l92.512-2.4804c0.88671-0.024 1.7422 0.3164 2.3711 0.9414 0.625 0.625 0.96875 1.4844 0.94531 2.3672z"
        fill="#f3f3f8" />
      <path
        d="m735.36 3415.4c0.17188 3.4727-2.5 6.4258-5.9688 6.6016l-26.441 1.332c-3.4688 0.1758-6.4258-2.4961-6.5976-5.9688l-0.82422-16.277c-0.17188-3.4727 2.5-6.4297 5.9688-6.6016l26.441-1.332c3.4688-0.1758 6.4258 2.4961 6.6016 5.9649z"
        fill="#47b5a1" />
      <g clip-path="url(#j)" stroke-width=".60132">
        <g clip-path="url(#i)" stroke-width=".45356">
          <path d="m695.98 3430.5 42.82-7.5508-6.1172-34.695-42.82 7.5508z" fill="url(#b)" />
        </g>
      </g>
      <g transform="matrix(.26458 0 0 .26458 694 3412)" clip-path="url(#h)" stroke-width=".79724">
        <g clip-path="url(#g)" stroke-width=".60132">
          <path
            d="m39.766 0.73047c-1.2148 4.0039-5.0078 7.0352-9.3359 7.0352-0.14844 0-0.29688-0.011719-0.44531-0.019531-0.125 0.00391-0.24609 0.019531-0.37109 0.019531h-20.414c-3.5352 0-6.6914-2-8.3984-4.9023v2.6641c0 3.4766 2.8164 6.293 6.293 6.293h26.473c3.4727 0 6.293-2.8164 6.293-6.293v-4.9336c-0.03125 0.046875-0.06641 0.089844-0.09375 0.13672"
            fill="#634a91" />
        </g>
      </g>
      <path
        d="m735.68 3409.4c0 2.6094-2.1133 4.7266-4.7266 4.7266h-4.6992c-2.6094 0-4.7266-2.1172-4.7266-4.7305 0-2.6094 2.1172-4.7266 4.7266-4.7266h4.6992c2.6133 0 4.7266 2.1172 4.7266 4.7266z"
        fill="#573d7f" />
      <path
        d="m726.68 3409.4c0 1.043-0.84375 1.8906-1.8906 1.8906-1.043 0-1.8906-0.8476-1.8906-1.8906s0.84766-1.8906 1.8906-1.8906c1.0469 0 1.8906 0.8476 1.8906 1.8906"
        fill="#f0f0f0" />
      <path
        d="m673.16 3391.1c-2.2812 0-4.543 0.4492-6.6562 1.3242-2.1094 0.875-4.0274 2.1524-5.6406 3.7656-1.6172 1.6133-2.8984 3.5313-3.7695 5.6368-0.875 2.1093-1.3242 4.3671-1.3242 6.6484 4e-3 4.375 1.6602 8.5898 4.6367 11.797 2.9766 3.207 7.0547 5.1758 11.422 5.5156v-6.5625c-4.3711-0.6445-7.75-4.4297-7.75-8.9727 0-2.0312 0.67579-3.9101 1.8125-5.4218-0.65234 0.3047-1.3945 0.3945-2.0273 0.086-1.2812-0.6289-1.6484-3.5117-1.5664-5.5156 0.125 0 0.25391-0.01 0.38672-0.012 1.9727-0.02 4.5469 0.375 5.1367 1.5781 0.3086 0.6289 0.21875 1.3711-0.0898 2.0234 1.1836-0.8867 2.5898-1.4922 4.1133-1.7148-0.67188-0.2461-1.2539-0.7031-1.4766-1.3633-0.46485-1.3516 1.3164-3.6484 2.793-5.0078 1.4766 1.3594 3.2578 3.6562 2.7969 5.0078-0.22656 0.6602-0.80859 1.1172-1.4805 1.3633 1.5274 0.2226 2.9297 0.8281 4.1133 1.7148-0.30468-0.6523-0.39453-1.3945-0.0859-2.0234 0.58984-1.2031 3.1641-1.5977 5.1367-1.5781 0.12891 0 0.25782 0.01 0.38672 0.012 0.0781 2.0039-0.28515 4.8867-1.5703 5.5156-0.62891 0.3086-1.3711 0.2188-2.0234-0.086 1.1367 1.5117 1.8086 3.3906 1.8086 5.4218 0 4.543-3.375 8.3282-7.75 8.9727v6.5703c4.3711-0.3359 8.4492-2.3047 11.43-5.5156 2.9766-3.211 4.6328-7.4258 4.6328-11.805 0-2.2813-0.44922-4.5391-1.3242-6.6484-0.875-2.1055-2.1562-4.0235-3.7695-5.6368-1.6172-1.6132-3.5312-2.8906-5.6445-3.7656-2.1094-0.875-4.3711-1.3242-6.6562-1.3242"
        fill="#75549c" />
      <path
        d="m673.16 3403.9c-3.5586 0-6.4141 2.8516-6.4141 6.4062 0 3.5547 2.8555 6.4102 6.4141 6.4102 3.5586 0 6.418-2.8555 6.418-6.4102 0-3.5546-2.8594-6.4062-6.418-6.4062"
        fill="#75549c" />
      <path
        d="m677.06 3409.5-3.082-3.0781c-0.44922-0.4492-1.1797-0.4492-1.6289 0l-3.082 3.0781c-0.44921 0.4493-0.44921 1.1797 0 1.6289l3.082 3.0743c0.44921 0.4531 1.1797 0.4531 1.6289 0l3.082-3.0743c0.44922-0.4492 0.44922-1.1796 0-1.6289"
        fill="#fff" />
      <path
        d="m656.34 3428c0.96093-0.3165 1.4922-1.3594 1.1797-2.3282-0.3164-0.9726-1.3516-1.5039-2.3125-1.1875-0.96484 0.3164-1.4922 1.3594-1.1797 2.3282 0.3125 0.9726 1.3476 1.5039 2.3125 1.1875"
        fill="#d1d9eb" />
      <path
        d="m688.15 3385.4c0.65625-0.2149 1.0156-0.9219 0.80078-1.5821-0.21093-0.6601-0.91796-1.0195-1.5703-0.8085-0.65625 0.2148-1.0156 0.9257-0.80078 1.5859 0.21094 0.6601 0.91406 1.0195 1.5703 0.8047"
        fill="#d1d9eb" />
      <path
        d="m737.71 3388.8c1.1406-1.0469 1.2188-2.8242 0.17969-3.9687-1.0391-1.1446-2.8047-1.2266-3.9414-0.1797-1.1367 1.0468-1.2148 2.8242-0.17578 3.9687 1.0391 1.1485 2.8008 1.2266 3.9375 0.1797"
        fill="#d1d9eb" />
      <path
        d="m692.52 3430.4c0.48047-0.4375 0.51563-1.1875 0.0742-1.6719-0.43359-0.4804-1.1797-0.5156-1.6562-0.074-0.48047 0.4414-0.51172 1.1914-0.0742 1.6719 0.4375 0.4844 1.1797 0.5156 1.6562 0.074"
        fill="#d1d9eb" />
      <g clip-path="url(#f)" stroke-width=".60132">
        <g clip-path="url(#e)" stroke-width=".45356">
          <path d="m700.12 3389.1v-2.3672h2.3476v2.3672z" fill="url(#a)" />
        </g>
      </g>
      <path
        d="m656.56 3390.6c0.48047-0.4414 0.51563-1.1914 0.0781-1.6719-0.4375-0.4844-1.1797-0.5156-1.6602-0.078-0.48047 0.4414-0.51172 1.1914-0.0742 1.6718 0.4375 0.4844 1.1797 0.5157 1.6562 0.078"
        fill="#6bc2c2" />
      <path
        d="m737.79 3427.1c0.48047-0.4375 0.51172-1.1875 0.0742-1.6679-0.4375-0.4844-1.1797-0.5196-1.6602-0.078-0.47656 0.4414-0.51172 1.1914-0.0703 1.6719 0.43359 0.4844 1.1758 0.5156 1.6562 0.074"
        fill="#5cb35e" />
    </g>
  </g>
</svg>
