<svg width="60" height="69" viewBox="0 0 60 69" fill="none" xmlns="http://www.w3.org/2000/svg">
<path d="M13.8202 50.2402L13.6703 50.58C13.0803 51.98 12.7803 53.4799 12.7803 54.9999C12.7803 56.5199 13.0803 58.0198 13.6703 59.4198C14.2603 60.8198 15.1202 62.1001 16.2002 63.1601C17.2902 64.2301 18.5802 65.0801 19.9902 65.6601C22.8602 66.8301 26.0702 66.8301 28.9402 65.6601C30.3502 65.0801 31.6402 64.2301 32.7302 63.1601L54.2402 41.9301C55.3502 40.8401 56.2302 39.5398 56.8302 38.1098C57.4302 36.6798 57.7402 35.1398 57.7402 33.5898C57.7402 30.7798 56.8603 28.0701 54.9303 25.9501C53.9803 25.5401 52.9303 25.4298 51.9103 25.6098C51.0003 25.7798 50.1702 26.3101 49.4702 26.9301L29.0303 47.6298C28.6503 48.0198 28.2102 48.34 27.7402 48.58C27.9902 48.43 28.2402 48.27 28.4802 48.1L28.4203 48.1298L28.4802 48.0898C28.4802 48.0898 28.4403 48.1198 28.4203 48.1298C26.2903 49.5398 23.8702 50.47 21.3502 50.83C18.8202 51.2 16.2403 50.9902 13.8003 50.2402H13.8202Z" fill="#1D1D1B"/>
<path d="M24.4801 68.1702C22.7601 68.1702 21.0301 67.8304 19.3901 67.1604C17.7701 66.5004 16.3201 65.5403 15.0701 64.3103C13.8301 63.0803 12.8502 61.6403 12.1802 60.0403C11.5102 58.4303 11.1602 56.7405 11.1602 54.9905C11.1602 53.2405 11.5002 51.5502 12.1802 49.9402L12.3401 49.5803C12.6701 48.8203 13.5202 48.4304 14.3102 48.6804C16.5102 49.3604 18.8701 49.5402 21.1501 49.2102C23.4301 48.8802 25.6402 48.04 27.5602 46.76C27.6002 46.73 27.6402 46.7102 27.6802 46.6902C27.7602 46.6202 27.8302 46.5502 27.9102 46.4802L48.3501 25.7703C49.4601 24.7703 50.5401 24.1905 51.6501 23.9905C52.9901 23.7505 54.3501 23.9004 55.6001 24.4304C55.8101 24.5204 56.0102 24.6603 56.1702 24.8303C58.2802 27.1603 59.4001 30.1803 59.4001 33.5603C59.4001 35.3403 59.0501 37.0702 58.3601 38.7102C57.6701 40.3502 56.6802 41.8203 55.4102 43.0603L33.9001 64.2903C32.6501 65.5203 31.2001 66.4804 29.5801 67.1404C27.9401 67.8104 26.2201 68.1501 24.4901 68.1501L24.4801 68.1702ZM14.8201 52.1804C14.5501 53.0804 14.4102 54.0305 14.4102 54.9905C14.4102 56.3005 14.6702 57.57 15.1702 58.78C15.6802 59.99 16.4101 61.0702 17.3401 62.0002C18.2801 62.9302 19.3801 63.6501 20.6101 64.1501C23.1001 65.1701 25.8401 65.1701 28.3301 64.1501C29.5501 63.6501 30.6501 62.9302 31.5901 62.0002L53.1001 40.7703C54.0601 39.8303 54.8101 38.7202 55.3301 37.4802C55.8501 36.2402 56.1101 34.9303 56.1201 33.5803C56.1201 31.1603 55.3801 29.0003 53.9801 27.3103C53.4101 27.1303 52.8101 27.0904 52.2201 27.2004C51.7201 27.2904 51.1501 27.6101 50.5801 28.1301L30.2101 48.7703C29.7201 49.2703 29.1501 49.6903 28.5101 50.0203C28.4501 50.0503 28.3901 50.0803 28.3301 50.1003C26.2401 51.3003 23.9401 52.1002 21.5901 52.4402C19.3401 52.7602 17.0302 52.6702 14.8102 52.1902L14.8201 52.1804Z" fill="#00E2ED"/>
<path d="M28.4501 48.1201L28.5701 48.04C27.7801 48.35 26.9301 48.4698 26.0901 48.3798C25.2501 48.2898 24.4402 47.9897 23.7502 47.5097C23.1402 47.0797 22.6202 46.5298 22.2402 45.8798C21.6702 44.9098 21.4401 43.7799 21.5901 42.6699C21.7301 41.5599 22.2402 40.5199 23.0402 39.7299L29.8401 32.9599L39.7702 23.1499L39.8102 23.1098C39.8102 23.1098 39.8702 23.06 39.9002 23.04L41.4002 21.56C42.1602 21.41 42.9301 21.3401 43.7101 21.3501C45.4601 21.3501 46.9402 21.5199 48.4202 21.9399C50.9902 22.4899 53.3001 23.8999 54.9601 25.9399C54.0101 25.5299 52.9502 25.3998 51.9202 25.5898C51.0102 25.7598 50.1801 26.2899 49.4801 26.9199L29.0502 47.6201C28.6702 48.0101 28.2302 48.3298 27.7602 48.5698C28.0102 48.4198 28.2602 48.2598 28.5002 48.0898L28.4401 48.1201H28.4501Z" fill="#1D1D1B"/>
<path d="M27.7702 50.2002C27.5102 50.2002 27.2602 50.14 27.0302 50.02C26.6602 50.04 26.2902 50.0202 25.9202 49.9902C24.8202 49.8702 23.7502 49.4698 22.8402 48.8398C22.0302 48.2798 21.3502 47.5399 20.8502 46.6899C20.1102 45.4199 19.8002 43.9102 19.9902 42.4502C20.1802 40.9902 20.8602 39.6098 21.9102 38.5698L28.7102 31.7998L38.6502 21.9902C38.6502 21.9902 38.7202 21.9199 38.7402 21.8999L38.8201 21.8301L40.2702 20.3999C40.5002 20.1699 40.7902 20.02 41.1002 19.96C41.9702 19.79 42.8602 19.7202 43.7402 19.7202C45.6602 19.7202 47.2802 19.9199 48.8302 20.3599C51.7302 20.9899 54.3602 22.6099 56.2402 24.9199C56.7102 25.4999 56.7302 26.3302 56.2702 26.9302C55.8202 27.5302 55.0202 27.7399 54.3302 27.4399C53.6702 27.1499 52.9402 27.0702 52.2302 27.2002C51.7302 27.2902 51.1702 27.6199 50.5902 28.1299L30.2302 48.77C29.7302 49.27 29.1602 49.6998 28.5302 50.0298C28.2902 50.1498 28.0302 50.21 27.7802 50.21L27.7702 50.2002ZM42.1803 23.0801L41.0502 24.2002C41.0502 24.2002 40.9502 24.2901 40.9002 24.3301L24.1901 40.8799C23.6501 41.4099 23.3002 42.1199 23.2102 42.8799C23.1102 43.6299 23.2702 44.4101 23.6502 45.0601C23.9102 45.5001 24.2603 45.8799 24.6803 46.1699C25.1503 46.4899 25.7002 46.6998 26.2702 46.7598C26.7702 46.8198 27.2902 46.7601 27.7702 46.6001C27.8102 46.5601 27.8502 46.52 27.8902 46.48L48.3302 25.77C49.0402 25.13 49.7401 24.6601 50.4501 24.3501C49.7001 23.9801 48.9102 23.7 48.0902 23.52C48.0502 23.52 48.0202 23.5002 47.9802 23.4902C46.6702 23.1202 45.3302 22.97 43.6302 22.96C43.1402 22.96 42.6603 22.9901 42.1803 23.0601V23.0801Z" fill="#00E2ED"/>
<path d="M44.9305 8.74041C44.3805 7.44041 43.5804 6.2602 42.5804 5.2702C41.4104 4.1202 40.0305 3.21002 38.5105 2.59002C35.4305 1.33002 31.9905 1.33002 28.9105 2.59002C27.3905 3.21002 26.0105 4.1202 24.8405 5.2702L7.1305 22.7502C4.0305 25.8002 2.25054 29.9502 2.17054 34.3102C2.11054 38.6602 3.7505 42.8699 6.7605 46.0099L6.94043 46.1901L7.1305 46.3903C7.3005 46.5603 7.49055 46.7203 7.68055 46.8703C10.5505 49.3303 14.1505 50.7804 17.9205 50.9904C21.6905 51.2104 25.4304 50.1802 28.5704 48.0602C27.7804 48.3702 26.9305 48.4901 26.0905 48.4001C25.2505 48.3101 24.4405 48.01 23.7505 47.53C23.1405 47.1 22.6205 46.5501 22.2405 45.9001C21.6705 44.9301 21.4405 43.8001 21.5905 42.6901C21.7305 41.5801 22.2405 40.5402 23.0405 39.7502L29.8405 32.9802L39.7705 23.1701L39.9005 23.0602L42.5704 20.4201C44.0804 18.9301 45.1205 17.0201 45.5405 14.9401C45.9605 12.8701 45.7405 10.7099 44.9205 8.75994L44.9305 8.74041Z" fill="#1D1D1B"/>
<path d="M18.8903 52.6301C18.5403 52.6301 18.1802 52.6303 17.8302 52.6003C13.7302 52.3703 9.75027 50.7701 6.63027 48.0901C6.45027 47.9501 6.22028 47.7503 6.01028 47.5403L5.64028 47.1702C2.27028 43.6402 0.480318 39.0803 0.550318 34.2703C0.630318 29.4503 2.57027 24.9503 6.00027 21.5803L23.7102 4.10033C25.0402 2.79033 26.5803 1.77006 28.3103 1.07006C31.8003 -0.359941 35.6503 -0.359941 39.1403 1.07006C40.8603 1.77006 42.4102 2.80033 43.7302 4.10033C44.8902 5.24033 45.8002 6.59033 46.4402 8.10033C46.4502 8.13033 46.4702 8.1702 46.4802 8.2102C47.4002 10.4402 47.6303 12.8705 47.1503 15.2405C46.6603 17.6505 45.4802 19.8303 43.7302 21.5603L41.0603 24.2004C41.0603 24.2004 40.9902 24.2603 40.9602 24.2903L40.8903 24.3503L24.2102 40.8801C23.6702 41.4101 23.3202 42.1201 23.2302 42.8801C23.1302 43.6301 23.2903 44.4103 23.6703 45.0603C23.9303 45.5003 24.2802 45.8802 24.7002 46.1702C25.1702 46.4902 25.7203 46.7 26.2903 46.76C26.8603 46.82 27.4502 46.74 27.9802 46.53C28.7502 46.22 29.6303 46.55 30.0203 47.28C30.4103 48.01 30.1803 48.9204 29.4903 49.3904C26.3703 51.4904 22.6503 52.6301 18.9003 52.6301H18.8903ZM33.7102 3.26C32.2902 3.26 30.8803 3.54008 29.5303 4.09008C28.2003 4.63008 27.0103 5.42041 25.9903 6.43041L8.2803 23.9104C5.4603 26.6804 3.87032 30.3801 3.80032 34.3401C3.74032 38.2901 5.21021 42.0404 7.94021 44.8904L8.30032 45.2502C8.40032 45.3502 8.54021 45.4703 8.69021 45.5803C11.3302 47.8403 14.6203 49.1603 18.0203 49.3503C19.6503 49.4503 21.2903 49.2701 22.8603 48.8601C22.8603 48.8601 22.8402 48.8501 22.8302 48.8401C22.0202 48.2801 21.3402 47.5402 20.8402 46.6902C20.0902 45.4202 19.7902 43.9104 19.9802 42.4504C20.1702 40.9904 20.8503 39.6101 21.9003 38.5701L28.7002 31.8L38.6403 21.9905C38.6403 21.9905 38.7103 21.9301 38.7403 21.9001L38.8103 21.8401L41.4303 19.2502C42.7203 17.9802 43.5902 16.3801 43.9502 14.6101C44.3102 12.8501 44.1203 11.0401 43.4303 9.38012C43.4203 9.35012 43.4103 9.32027 43.4003 9.29027C42.9303 8.21027 42.2802 7.25041 41.4402 6.43041C40.4202 5.42041 39.2303 4.63008 37.9003 4.09008C36.5503 3.54008 35.1302 3.26 33.7102 3.26Z" fill="#00E2ED"/>
</svg>
