<svg width="119" height="22" viewBox="0 0 119 22" fill="none" xmlns="http://www.w3.org/2000/svg">
<path d="M18.9761 0.683569L0.400391 19.2593L2.59249 21.4514L21.1682 2.87567L18.9761 0.683569Z" fill="#00E2ED"/>
<path d="M35.1641 0.685522L16.5884 19.2612L18.7805 21.4533L37.3562 2.87762L35.1641 0.685522Z" fill="#00E2ED"/>
<path d="M51.3623 0.687475L32.7866 19.2632L34.9787 21.4553L53.5544 2.87957L51.3623 0.687475Z" fill="#00E2ED"/>
<path d="M67.5572 0.682104L48.9814 19.2578L51.1735 21.4499L69.7493 2.8742L67.5572 0.682104Z" fill="#00E2ED"/>
<path d="M83.7455 0.684143L65.1699 19.2598L67.362 21.4519L85.9376 2.87624L83.7455 0.684143Z" fill="#00E2ED"/>
<path d="M99.9336 0.68601L81.3579 19.2617L83.55 21.4538L102.126 2.87811L99.9336 0.68601Z" fill="#00E2ED"/>
<path d="M116.131 0.68805L97.5557 19.2637L99.7478 21.4558L118.323 2.88015L116.131 0.68805Z" fill="#00E2ED"/>
</svg>
