<svg width="65" height="124" viewBox="0 0 65 124" fill="none" xmlns="http://www.w3.org/2000/svg">
<path d="M59.79 121.42C59.79 120.14 60.8301 119.1 62.1201 119.1C63.4001 119.1 64.4401 120.14 64.4401 121.43C64.4401 122.71 63.4 123.76 62.11 123.76C60.83 123.74 59.79 122.7 59.79 121.42Z" fill="#1D1D1B"/>
<path d="M59.79 101.73C59.79 100.45 60.8301 99.3999 62.1201 99.3999C63.4001 99.3999 64.4401 100.44 64.4501 101.73C64.4501 103.01 63.4101 104.06 62.1201 104.06C60.8301 104.05 59.79 103.01 59.79 101.73Z" fill="#1D1D1B"/>
<path d="M59.79 82.04C59.79 80.76 60.8301 79.71 62.1201 79.72C63.4101 79.72 64.4401 80.76 64.4501 82.04C64.4501 83.32 63.4101 84.37 62.1201 84.37C60.8301 84.36 59.79 83.32 59.79 82.04Z" fill="#1D1D1B"/>
<path d="M59.79 62.35C59.79 61.06 60.83 60.02 62.11 60.02C63.4 60.02 64.4401 61.06 64.4401 62.35C64.4401 63.63 63.4 64.67 62.11 64.67C60.83 64.67 59.79 63.63 59.79 62.35Z" fill="#1D1D1B"/>
<path d="M59.79 42.6599C59.79 41.3799 60.8301 40.3398 62.1201 40.3398C63.4101 40.3398 64.4501 41.3799 64.4401 42.6599C64.4401 43.9499 63.4 44.9898 62.11 44.9898C60.83 44.9798 59.79 43.9399 59.79 42.6599Z" fill="#1D1D1B"/>
<path d="M59.79 22.9699C59.79 21.6899 60.8301 20.6399 62.1201 20.6399C63.4101 20.6399 64.4501 21.6799 64.4501 22.9699C64.4501 24.2599 63.4101 25.2999 62.1201 25.2999C60.8301 25.2899 59.79 24.2499 59.79 22.9699Z" fill="#1D1D1B"/>
<path d="M59.79 3.27994C59.79 1.99994 60.8301 0.949951 62.1201 0.949951C63.4101 0.949951 64.4501 1.98994 64.4501 3.27994C64.4501 4.55994 63.4101 5.60992 62.1201 5.60992C60.8301 5.59992 59.79 4.55994 59.79 3.27994Z" fill="#1D1D1B"/>
<path d="M40.0996 121.42C40.0996 120.14 41.1396 119.1 42.4296 119.1C43.7096 119.1 44.7496 120.14 44.7496 121.42C44.7496 122.7 43.7096 123.75 42.4296 123.75C41.1396 123.75 40.0996 122.7 40.0996 121.42Z" fill="#1D1D1B"/>
<path d="M40.0996 101.73C40.0996 100.45 41.1396 99.3999 42.4296 99.3999C43.7096 99.3999 44.7496 100.44 44.7496 101.73C44.7496 103.01 43.7096 104.06 42.4296 104.05C41.1396 104.06 40.0996 103.01 40.0996 101.73Z" fill="#1D1D1B"/>
<path d="M40.0996 82.04C40.0996 80.76 41.1396 79.72 42.4296 79.72C43.7096 79.72 44.7496 80.76 44.7496 82.04C44.7496 83.32 43.7096 84.37 42.4296 84.37C41.1396 84.36 40.0996 83.32 40.0996 82.04Z" fill="#1D1D1B"/>
<path d="M40.0996 62.35C40.0996 61.06 41.1396 60.02 42.4296 60.02C43.7096 60.02 44.7496 61.06 44.7496 62.35C44.7496 63.63 43.7096 64.67 42.4296 64.67C41.1396 64.67 40.0996 63.63 40.0996 62.35Z" fill="#1D1D1B"/>
<path d="M40.0996 42.6599C40.0996 41.3799 41.1396 40.3398 42.4296 40.3398C43.7096 40.3398 44.7496 41.3799 44.7496 42.6599C44.7496 43.9499 43.7096 44.9898 42.4296 44.9898C41.1396 44.9798 40.0996 43.9399 40.0996 42.6599Z" fill="#1D1D1B"/>
<path d="M40.0996 22.9699C40.0996 21.6899 41.1396 20.6399 42.4296 20.6399C43.7096 20.6399 44.7496 21.6799 44.7496 22.9699C44.7496 24.2599 43.7096 25.2999 42.4296 25.2999C41.1396 25.2899 40.0996 24.2499 40.0996 22.9699Z" fill="#1D1D1B"/>
<path d="M40.0996 3.27994C40.0996 1.99994 41.1396 0.949951 42.4296 0.949951C43.7096 0.949951 44.7496 1.98994 44.7496 3.27994C44.7496 4.56994 43.7096 5.60992 42.4296 5.60992C41.1396 5.59992 40.0996 4.55994 40.0996 3.27994Z" fill="#1D1D1B"/>
<path d="M20.4102 121.42C20.4102 120.14 21.4502 119.1 22.7302 119.1C24.0202 119.1 25.0602 120.14 25.0602 121.43C25.0602 122.71 24.0202 123.76 22.7302 123.76C21.4502 123.75 20.4102 122.7 20.4102 121.42Z" fill="#1D1D1B"/>
<path d="M20.4102 101.73C20.4102 100.45 21.4502 99.3999 22.7302 99.3999C24.0202 99.3999 25.0602 100.44 25.0602 101.73C25.0602 103.01 24.0202 104.06 22.7302 104.06C21.4502 104.06 20.4102 103.01 20.4102 101.73Z" fill="#1D1D1B"/>
<path d="M20.4102 82.04C20.4102 80.76 21.4502 79.71 22.7302 79.71C24.0202 79.71 25.0602 80.76 25.0602 82.04C25.0602 83.32 24.0202 84.37 22.7302 84.37C21.4402 84.37 20.4102 83.32 20.4102 82.04Z" fill="#1D1D1B"/>
<path d="M20.4102 62.35C20.4102 61.06 21.4502 60.02 22.7302 60.02C24.0202 60.02 25.0602 61.06 25.0602 62.35C25.0602 63.63 24.0202 64.67 22.7302 64.67C21.4502 64.67 20.4102 63.63 20.4102 62.35Z" fill="#1D1D1B"/>
<path d="M20.4102 42.6599C20.4102 41.3799 21.4502 40.3398 22.7302 40.3398C24.0202 40.3398 25.0602 41.3799 25.0602 42.6599C25.0602 43.9499 24.0202 44.9898 22.7302 44.9898C21.4502 44.9798 20.4102 43.9399 20.4102 42.6599Z" fill="#1D1D1B"/>
<path d="M20.4102 22.9699C20.4102 21.6899 21.4502 20.6399 22.7402 20.6399C24.0202 20.6399 25.0602 21.6799 25.0702 22.9699C25.0702 24.2499 24.0302 25.2999 22.7402 25.2999C21.4502 25.2899 20.4102 24.2499 20.4102 22.9699Z" fill="#1D1D1B"/>
<path d="M20.4102 3.27994C20.4102 1.99994 21.4502 0.949951 22.7302 0.949951C24.0202 0.949951 25.0602 1.98994 25.0602 3.27994C25.0602 4.55994 24.0202 5.60992 22.7302 5.60992C21.4502 5.59992 20.4102 4.55994 20.4102 3.27994Z" fill="#1D1D1B"/>
<path d="M0.719727 121.42C0.719727 120.14 1.75974 119.1 3.04974 119.1C4.32974 119.1 5.37976 120.14 5.37976 121.42C5.37976 122.7 4.33974 123.75 3.04974 123.75C1.75974 123.75 0.719727 122.7 0.719727 121.42Z" fill="#1D1D1B"/>
<path d="M0.719727 101.73C0.719727 100.45 1.75974 99.3999 3.04974 99.3999C4.32974 99.3999 5.37976 100.44 5.37976 101.73C5.37976 103.01 4.33974 104.06 3.04974 104.06C1.75974 104.06 0.719727 103.01 0.719727 101.73Z" fill="#1D1D1B"/>
<path d="M0.719727 82.04C0.719727 80.76 1.75974 79.71 3.04974 79.71C4.32974 79.71 5.37976 80.75 5.37976 82.04C5.37976 83.32 4.33974 84.37 3.04974 84.37C1.75974 84.36 0.719727 83.32 0.719727 82.04Z" fill="#1D1D1B"/>
<path d="M0.719727 62.35C0.719727 61.06 1.75974 60.02 3.04974 60.02C4.32974 60.02 5.36975 61.06 5.36975 62.35C5.36975 63.63 4.32974 64.68 3.04974 64.67C1.75974 64.67 0.719727 63.63 0.719727 62.35Z" fill="#1D1D1B"/>
<path d="M0.719727 42.6599C0.719727 41.3799 1.75974 40.3298 3.04974 40.3298C4.32974 40.3298 5.37976 41.3699 5.37976 42.6599C5.37976 43.9399 4.33974 44.9799 3.04974 44.9799C1.75974 44.9799 0.719727 43.9399 0.719727 42.6599Z" fill="#1D1D1B"/>
<path d="M0.719727 22.9699C0.719727 21.6899 1.75974 20.6399 3.04974 20.6399C4.32974 20.6399 5.37976 21.6799 5.37976 22.9699C5.37976 24.2499 4.32974 25.2999 3.04974 25.2999C1.75974 25.2899 0.719727 24.2499 0.719727 22.9699Z" fill="#1D1D1B"/>
<path d="M0.719727 3.27994C0.719727 1.99994 1.75974 0.949951 3.04974 0.949951C4.32974 0.949951 5.37976 1.98994 5.37976 3.27994C5.37976 4.56994 4.33975 5.60992 3.05975 5.60992C1.75975 5.59992 0.719727 4.55994 0.719727 3.27994Z" fill="#1D1D1B"/>
</svg>
