<svg width="110" height="110" viewBox="0 0 110 110" fill="none" xmlns="http://www.w3.org/2000/svg">
<path d="M107.85 1.62988H1.63V107.85H107.85V1.62988Z" fill="#00E2ED"/>
<path d="M109.48 109.48H0V0H109.48V109.48ZM3.26001 106.21H106.21V3.26001H3.26001V106.21Z" fill="#232323"/>
<path d="M73.6 87.95H35.88C32.51 87.95 29.76 85.2101 29.76 81.8301V27.6399C29.76 24.2699 32.5 21.52 35.88 21.52H73.6C76.97 21.52 79.72 24.2599 79.72 27.6399V81.8301C79.72 85.2001 76.97 87.95 73.6 87.95ZM35.88 24.6499C34.23 24.6499 32.89 25.9899 32.89 27.6399V81.8301C32.89 83.4801 34.23 84.8201 35.88 84.8201H73.6C75.25 84.8201 76.59 83.4801 76.59 81.8301V27.6399C76.59 25.9899 75.25 24.6499 73.6 24.6499H35.88Z" fill="#232323"/>
<path d="M77.13 66.3H32.29C31.43 66.3 30.73 65.6 30.73 64.74C30.73 63.88 31.43 63.1799 32.29 63.1799H77.13C77.99 63.1799 78.6901 63.88 78.6901 64.74C78.6901 65.6 77.99 66.3 77.13 66.3Z" fill="#232323"/>
<path d="M77.13 46.77H32.29C31.43 46.77 30.73 46.07 30.73 45.21C30.73 44.35 31.43 43.6499 32.29 43.6499H77.13C77.99 43.6499 78.6901 44.35 78.6901 45.21C78.6901 46.07 77.99 46.77 77.13 46.77Z" fill="#232323"/>
<path d="M69.1 36.8499H65.38C64.52 36.8499 63.8201 36.15 63.8201 35.29C63.8201 34.43 64.52 33.73 65.38 33.73H69.1C69.96 33.73 70.66 34.43 70.66 35.29C70.66 36.15 69.97 36.8499 69.1 36.8499Z" fill="#232323"/>
<path d="M69.1 57.1499H65.38C64.52 57.1499 63.8201 56.4498 63.8201 55.5898C63.8201 54.7298 64.52 54.03 65.38 54.03H69.1C69.96 54.03 70.66 54.7298 70.66 55.5898C70.66 56.4498 69.97 57.1499 69.1 57.1499Z" fill="#232323"/>
<path d="M69.1 77.46H65.38C64.52 77.46 63.8201 76.7599 63.8201 75.8999C63.8201 75.0399 64.52 74.3398 65.38 74.3398H69.1C69.96 74.3398 70.66 75.0399 70.66 75.8999C70.66 76.7599 69.97 77.46 69.1 77.46Z" fill="#232323"/>
</svg>
