<svg width="69" height="69" viewBox="0 0 69 69" fill="none" xmlns="http://www.w3.org/2000/svg">
<path d="M31.9602 5.73999C44.2502 3.85999 56.5602 2.08988 68.8702 0.379883C68.8702 11.1699 68.8702 21.95 68.8702 32.74C56.5702 32.79 44.2602 32.97 31.9502 33.01C31.9502 23.91 31.9502 14.82 31.9502 5.72998L31.9602 5.73999Z" fill="white"/>
<path d="M0.759766 10.1003C10.0098 8.67034 19.3097 7.44027 28.5997 6.28027C28.5997 15.2303 28.5998 24.1704 28.6198 33.1204C19.3398 33.1204 10.0498 33.2502 0.769775 33.2302V10.1003H0.759766Z" fill="white"/>
<path d="M0.76001 36.0401C10.04 36.0101 19.31 36.16 28.59 36.14C28.59 45.11 28.61 54.0801 28.59 63.0601C19.32 61.6901 10.04 60.4901 0.75 59.2301V36.0401H0.76001Z" fill="white"/>
<path d="M31.9102 36.3999H68.8801C68.9001 47.1599 68.8801 57.9199 68.8801 68.6899C56.5901 66.8499 44.2801 65.14 31.9701 63.47C31.9501 54.45 31.9302 45.4299 31.9202 36.3999H31.9102Z" fill="white"/>
</svg>
