<svg width="119" height="49" viewBox="0 0 119 49" fill="none" xmlns="http://www.w3.org/2000/svg">
<path d="M118.48 40.1653H101.328V36.6028L110.118 27.6555C110.493 27.2505 110.83 26.8458 111.108 26.4558C111.355 26.1333 111.528 25.8256 111.633 25.5256C111.738 25.2481 111.783 24.9555 111.783 24.6255C111.783 23.943 111.573 23.4254 111.145 23.0354C110.703 22.6379 110.133 22.4429 109.383 22.4429C108.633 22.4429 108.018 22.6452 107.433 23.0427C106.825 23.4702 106.188 24.1833 105.535 25.1733L105.295 25.533L101.08 21.7903L101.245 21.5208C102.168 20.0133 103.375 18.8505 104.823 18.063C106.255 17.2755 107.935 16.8779 109.81 16.8779C111.498 16.8779 112.908 17.1779 114.13 17.7854C115.353 18.4004 116.313 19.2854 116.988 20.4104C117.655 21.5354 117.993 22.8708 117.993 24.3933C117.993 25.3158 117.873 26.1707 117.633 26.9282C117.408 27.6857 117.025 28.4581 116.5 29.2156C115.975 29.9581 115.285 30.7378 114.445 31.5403L111.168 34.7358H118.473V40.1353L118.48 40.1653ZM102.078 39.4153H117.73V35.5151H109.33L113.935 31.0305C114.745 30.258 115.398 29.5154 115.893 28.8179C116.373 28.1204 116.718 27.4227 116.928 26.7327C117.145 26.0427 117.258 25.2633 117.258 24.4233C117.258 23.0358 116.958 21.8278 116.358 20.8228C115.765 19.8253 114.91 19.0377 113.815 18.4827C112.698 17.9277 111.393 17.6506 109.825 17.6506C108.055 17.6506 106.54 18.0106 105.198 18.7456C103.953 19.4206 102.903 20.4027 102.07 21.6702L105.16 24.4233C105.783 23.5383 106.405 22.8704 107.013 22.4429C107.725 21.9554 108.52 21.7083 109.39 21.7083C110.32 21.7083 111.078 21.9706 111.655 22.4956C112.24 23.0206 112.54 23.7476 112.54 24.6401C112.54 25.0601 112.473 25.4353 112.345 25.7878C112.218 26.1553 112 26.5378 111.715 26.9128C111.423 27.3103 111.07 27.7383 110.665 28.1733L102.078 36.9104V39.408V39.4153Z" fill="#00E2ED"/>
<path d="M22.4126 28.4585H13.0976L21.5877 24.6184L21.2951 23.9658L12.9251 27.7458L19.4201 21.2434L18.9101 20.7329L12.3176 27.3335L15.7527 18.6631L15.0851 18.4009L11.7026 26.9285V18.1079H10.9751V26.9285L7.59265 18.3936L6.91766 18.6631L10.3602 27.3335L3.76765 20.7329L3.25014 21.2434L9.70015 27.6931L1.41264 23.9431L1.11264 24.603L9.64764 28.4585H0.265137V29.1785H9.74515L1.11264 33.0779L1.41264 33.7385L9.61764 30.0259L3.25014 36.3936L3.76765 36.9033L10.3526 30.3181L6.91766 38.9805L7.58514 39.2507L10.9751 30.7004V40.2556H11.7026V30.7085L15.0927 39.2434L15.7601 38.9805L12.3176 30.3108L18.9101 36.9033L19.4201 36.3936L13.0077 29.9731L21.2951 33.7231L21.5877 33.0632L13.0001 29.1785H22.4126V28.4585Z" fill="#00E2ED"/>
<path d="M79.3825 11.1479H74.4399V40.3452H79.3825V23.2681H83.7699V18.2502H79.3825V11.1479Z" fill="white"/>
<path d="M69.3177 18.2505H64.4502V40.3455H69.3177V18.2505Z" fill="white"/>
<path d="M69.2803 11.1479H64.4878V16.2625H69.2803V11.1479Z" fill="white"/>
<path d="M54.4826 35.4858H46.0826V18.2505H41.2151V35.4858H33.9176C32.9126 35.4858 32.0951 34.6678 32.0951 33.6628V18.2505H27.2275V35.7781C27.2275 38.2981 29.2751 40.3455 31.7951 40.3455H59.3425V18.2505H54.4751V35.4858H54.4826Z" fill="white"/>
<path d="M99.0086 0.617507L85.7358 48.2192L87.1807 48.6221L100.453 1.02038L99.0086 0.617507Z" fill="#00E2ED"/>
</svg>
