<?xml version="1.0" encoding="UTF-8" standalone="no"?>
<svg
   xmlns:dc="http://purl.org/dc/elements/1.1/"
   xmlns:cc="http://creativecommons.org/ns#"
   xmlns:rdf="http://www.w3.org/1999/02/22-rdf-syntax-ns#"
   xmlns:svg="http://www.w3.org/2000/svg"
   xmlns="http://www.w3.org/2000/svg"
   xmlns:sodipodi="http://sodipodi.sourceforge.net/DTD/sodipodi-0.dtd"
   xmlns:inkscape="http://www.inkscape.org/namespaces/inkscape"
   version="1.1"
   id="svg82799"
   width="266.08331"
   height="59.256828">
  <metadata
     id="metadata82805">
    <rdf:RDF>
      <cc:Work
         rdf:about="">
        <dc:format>image/svg+xml</dc:format>
        <dc:type
           rdf:resource="http://purl.org/dc/dcmitype/StillImage" />
      </cc:Work>
    </rdf:RDF>
  </metadata>
  <defs
     id="defs82803">
    <clipPath
       id="clip26">
      <path
         d="m 105,28 h 64 v 41 h -64 z m 0,0"
         id="path4930" />
    </clipPath>
    <clipPath
       id="clip27">
      <path
         d="M 0,0.00390625 V 1609.6172 c 0,0 380.80078,125.6562 695.52734,125.6562 268.02735,0 693.36716,-103.0468 740.23826,-114.6054 V 0.00390625 Z m 0,0"
         id="path4933" />
    </clipPath>
    <clipPath
       id="clip28">
      <path
         d="m 140,51 h 36 v 21 h -36 z m 0,0"
         id="path4936" />
    </clipPath>
    <clipPath
       id="clip29">
      <path
         d="M 0,0.00390625 V 1609.6172 c 0,0 380.80078,125.6562 695.52734,125.6562 268.02735,0 693.36716,-103.0468 740.23826,-114.6054 V 0.00390625 Z m 0,0"
         id="path4939" />
    </clipPath>
    <clipPath
       id="clip30">
      <path
         d="m 98,25 h 36 V 46 H 98 Z m 0,0"
         id="path4942" />
    </clipPath>
    <clipPath
       id="clip31">
      <path
         d="M 0,0.00390625 V 1609.6172 c 0,0 380.80078,125.6562 695.52734,125.6562 268.02735,0 693.36716,-103.0468 740.23826,-114.6054 V 0.00390625 Z m 0,0"
         id="path4945" />
    </clipPath>
    <clipPath
       id="clip32">
      <path
         d="m 229,34 h 11 v 30 h -11 z m 0,0"
         id="path4948" />
    </clipPath>
    <clipPath
       id="clip33">
      <path
         d="M 0,0.00390625 V 1609.6172 c 0,0 380.80078,125.6562 695.52734,125.6562 268.02735,0 693.36716,-103.0468 740.23826,-114.6054 V 0.00390625 Z m 0,0"
         id="path4951" />
    </clipPath>
    <clipPath
       id="clip34">
      <path
         d="m 288,34 h 10 v 30 h -10 z m 0,0"
         id="path4954" />
    </clipPath>
    <clipPath
       id="clip35">
      <path
         d="M 0,0.00390625 V 1609.6172 c 0,0 380.80078,125.6562 695.52734,125.6562 268.02735,0 693.36716,-103.0468 740.23826,-114.6054 V 0.00390625 Z m 0,0"
         id="path4957" />
    </clipPath>
    <clipPath
       id="clip36">
      <path
         d="m 220,41 h 5 v 23 h -5 z m 0,0"
         id="path4960" />
    </clipPath>
    <clipPath
       id="clip37">
      <path
         d="M 0,0.00390625 V 1609.6172 c 0,0 380.80078,125.6562 695.52734,125.6562 268.02735,0 693.36716,-103.0468 740.23826,-114.6054 V 0.00390625 Z m 0,0"
         id="path4963" />
    </clipPath>
    <clipPath
       id="clip38">
      <path
         d="m 220,34 h 5 v 6 h -5 z m 0,0"
         id="path4966" />
    </clipPath>
    <clipPath
       id="clip39">
      <path
         d="M 0,0.00390625 V 1609.6172 c 0,0 380.80078,125.6562 695.52734,125.6562 268.02735,0 693.36716,-103.0468 740.23826,-114.6054 V 0.00390625 Z m 0,0"
         id="path4969" />
    </clipPath>
    <clipPath
       id="clip40">
      <path
         d="m 183,41 h 33 v 23 h -33 z m 0,0"
         id="path4972" />
    </clipPath>
    <clipPath
       id="clip41">
      <path
         d="M 0,0.00390625 V 1609.6172 c 0,0 380.80078,125.6562 695.52734,125.6562 268.02735,0 693.36716,-103.0468 740.23826,-114.6054 V 0.00390625 Z m 0,0"
         id="path4975" />
    </clipPath>
    <clipPath
       id="clip42">
      <path
         d="m 242,41 h 20 v 23 h -20 z m 0,0"
         id="path4978" />
    </clipPath>
    <clipPath
       id="clip43">
      <path
         d="M 0,0.00390625 V 1609.6172 c 0,0 380.80078,125.6562 695.52734,125.6562 268.02735,0 693.36716,-103.0468 740.23826,-114.6054 V 0.00390625 Z m 0,0"
         id="path4981" />
    </clipPath>
    <clipPath
       id="clip44">
      <path
         d="m 264,40 h 23 v 23 h -23 z m 0,0"
         id="path4984" />
    </clipPath>
    <clipPath
       id="clip45">
      <path
         d="M 0,0.00390625 V 1609.6172 c 0,0 380.80078,125.6562 695.52734,125.6562 268.02735,0 693.36716,-103.0468 740.23826,-114.6054 V 0.00390625 Z m 0,0"
         id="path4987" />
    </clipPath>
    <clipPath
       id="clip46">
      <path
         d="m 298,58 h 6 v 6 h -6 z m 0,0"
         id="path4990" />
    </clipPath>
    <clipPath
       id="clip47">
      <path
         d="M 0,0.00390625 V 1609.6172 c 0,0 380.80078,125.6562 695.52734,125.6562 268.02735,0 693.36716,-103.0468 740.23826,-114.6054 V 0.00390625 Z m 0,0"
         id="path4993" />
    </clipPath>
  </defs>
  <sodipodi:namedview
     pagecolor="#ffffff"
     bordercolor="#666666"
     borderopacity="1"
     objecttolerance="10"
     gridtolerance="10"
     guidetolerance="10"
     inkscape:pageopacity="0"
     inkscape:pageshadow="2"
     inkscape:window-width="640"
     inkscape:window-height="480"
     id="namedview82801" />
  <inkscape:clipboard
     style="font-variation-settings:normal;opacity:1;vector-effect:none;fill:#000000;fill-opacity:1;stroke-width:3.87992078;stroke-linecap:butt;stroke-linejoin:miter;stroke-miterlimit:4;stroke-dasharray:none;stroke-dashoffset:0;stroke-opacity:1;stop-color:#000000;stop-opacity:1"
     min="239.99999,39.2576"
     max="506.08331,98.514428" />
  <g
     id="g82851"
     transform="matrix(3.7795275,0,0,3.7795275,-239.99999,-39.2576)">
    <g
       id="g69025"
       transform="matrix(0.97412523,0,0,0.97412523,-33.819576,-11.454263)"
       style="stroke-width:1.02656">
      <g
         clip-path="url(#clip26)"
         clip-rule="nonzero"
         id="g46614"
         transform="matrix(0.35277777,0,0,0.35277777,65.161485,13.308645)"
         style="stroke-width:1.05383">
        <g
           clip-path="url(#clip27)"
           clip-rule="nonzero"
           id="g46612"
           style="stroke-width:1.08182">
          <path
             style="fill:#112338;fill-opacity:1;fill-rule:nonzero;stroke:none;stroke-width:1.02656"
             d="m 152.75391,42.726562 9.53515,5.921876 -9.53515,5.929687 c 0.6914,-1.84375 1.09765,-3.84375 1.09765,-5.929687 0,-2.089844 -0.40625,-4.074219 -1.09765,-5.921876 m -31.53907,0 c -0.6875,1.847657 -1.09765,3.839844 -1.09765,5.921876 0,2.085937 0.39453,4.078124 1.09765,5.921874 l -9.53125,-5.921874 z m 15.77344,-7.417968 c 7.38281,0 13.32031,5.953125 13.32031,13.339844 0,7.390624 -5.94922,13.332031 -13.32031,13.332031 -7.39062,0 -13.33594,-5.953125 -13.33594,-13.332031 0,-7.378907 5.95703,-13.339844 13.33594,-13.339844 m 0,-6.484375 -1.65234,1.019531 -6.53125,4.058594 c -0.46875,0.261718 -0.91406,0.539062 -1.35547,0.847656 l -22.35547,13.898438 22.35547,13.890624 c 0.44922,0.304688 0.91015,0.589844 1.38672,0.859376 l 8.16015,5.058593 8.02344,-4.988281 c 0.0195,-0.01563 0.043,-0.03516 0.0625,-0.04297 0.5,-0.273437 0.98438,-0.582031 1.45313,-0.910156 L 168.88672,48.648438 146.52734,34.757812 c -0.44531,-0.304687 -0.90234,-0.601562 -1.38281,-0.863281 z m 0,0"
             id="path46610" />
        </g>
      </g>
      <g
         clip-path="url(#clip28)"
         clip-rule="nonzero"
         id="g46620"
         transform="matrix(0.35277777,0,0,0.35277777,65.161485,13.308645)"
         style="stroke-width:1.05383">
        <g
           clip-path="url(#clip29)"
           clip-rule="nonzero"
           id="g46618"
           style="stroke-width:1.08182">
          <path
             style="fill:#112338;fill-opacity:1;fill-rule:nonzero;stroke:none;stroke-width:1.02656"
             d="m 172.16406,51.796875 c -1.02734,0.01172 -2.14844,0.289063 -3.27734,0.949219 l -28.60156,17.761718 0.28515,0.171876 c 0.80469,0.46875 1.86328,0.796874 3.03516,0.773437 1.02734,-0.0078 2.15234,-0.28125 3.28125,-0.945313 l 5.62109,-3.492187 22.96875,-14.28125 -0.29297,-0.179687 c -0.80859,-0.449219 -1.84765,-0.765626 -3.01953,-0.757813"
             id="path46616" />
        </g>
      </g>
      <g
         clip-path="url(#clip30)"
         clip-rule="nonzero"
         id="g46626"
         transform="matrix(0.35277777,0,0,0.35277777,65.161485,13.308645)"
         style="stroke-width:1.05383">
        <g
           clip-path="url(#clip31)"
           clip-rule="nonzero"
           id="g46624"
           style="stroke-width:1.08182">
          <path
             style="fill:#112338;fill-opacity:1;fill-rule:nonzero;stroke:none;stroke-width:1.02656"
             d="m 130.36328,25.832031 c -1.02734,0.0078 -2.14844,0.285157 -3.28125,0.945313 l -5.62109,3.5 -22.976565,14.277344 c 1.488281,0.992187 4.003905,1.503906 6.597655,0 l 28.60156,-17.769532 -0.28515,-0.171875 c -0.80469,-0.476562 -1.85157,-0.800781 -3.03516,-0.78125"
             id="path46622" />
        </g>
      </g>
      <g
         clip-path="url(#clip32)"
         clip-rule="nonzero"
         id="g46632"
         transform="matrix(0.35277777,0,0,0.35277777,65.161485,13.308645)"
         style="stroke-width:1.05383">
        <g
           clip-path="url(#clip33)"
           clip-rule="nonzero"
           id="g46630"
           style="stroke-width:1.08182">
          <path
             style="fill:#112338;fill-opacity:1;fill-rule:nonzero;stroke:none;stroke-width:1.02656"
             d="m 234.8125,34.363281 h -4.85938 v 28.703125 h 4.85938 V 46.269531 h 4.3125 V 41.34375 h -4.3125 z m 0,0"
             id="path46628" />
        </g>
      </g>
      <g
         clip-path="url(#clip34)"
         clip-rule="nonzero"
         id="g46638"
         transform="matrix(0.35277777,0,0,0.35277777,65.161485,13.308645)"
         style="stroke-width:1.05383">
        <g
           clip-path="url(#clip35)"
           clip-rule="nonzero"
           id="g46636"
           style="stroke-width:1.08182">
          <path
             style="fill:#112338;fill-opacity:1;fill-rule:nonzero;stroke:none;stroke-width:1.02656"
             d="M 293.23437,41.34375 V 34.363281 H 288.375 v 28.703125 h 4.85937 V 46.269531 h 4.3125 V 41.34375 Z m 0,0"
             id="path46634" />
        </g>
      </g>
      <g
         clip-path="url(#clip36)"
         clip-rule="nonzero"
         id="g46644"
         transform="matrix(0.35277777,0,0,0.35277777,65.161485,13.308645)"
         style="stroke-width:1.05383">
        <g
           clip-path="url(#clip37)"
           clip-rule="nonzero"
           id="g46642"
           style="stroke-width:1.08182">
          <path
             style="fill:#112338;fill-opacity:1;fill-rule:nonzero;stroke:none;stroke-width:1.02656"
             d="m 220.13672,41.34375 h 4.78515 v 21.722656 h -4.78515 z m 0,0"
             id="path46640" />
        </g>
      </g>
      <g
         clip-path="url(#clip38)"
         clip-rule="nonzero"
         id="g46650"
         transform="matrix(0.35277777,0,0,0.35277777,65.161485,13.308645)"
         style="stroke-width:1.05383">
        <g
           clip-path="url(#clip39)"
           clip-rule="nonzero"
           id="g46648"
           style="stroke-width:1.08182">
          <path
             style="fill:#112338;fill-opacity:1;fill-rule:nonzero;stroke:none;stroke-width:1.02656"
             d="m 220.17187,34.363281 h 4.71485 v 5.023438 h -4.71485 z m 0,0"
             id="path46646" />
        </g>
      </g>
      <g
         clip-path="url(#clip40)"
         clip-rule="nonzero"
         id="g46656"
         transform="matrix(0.35277777,0,0,0.35277777,65.161485,13.308645)"
         style="stroke-width:1.05383">
        <g
           clip-path="url(#clip41)"
           clip-rule="nonzero"
           id="g46654"
           style="stroke-width:1.08182">
          <path
             style="fill:#112338;fill-opacity:1;fill-rule:nonzero;stroke:none;stroke-width:1.02656"
             d="m 210.33203,58.285156 h -8.25781 V 41.34375 h -4.78125 v 16.941406 h -7.17578 c -0.98438,0 -1.78907,-0.804687 -1.78907,-1.789062 V 41.34375 h -4.78125 v 17.234375 c 0,2.480469 2.01172,4.488281 4.48829,4.488281 h 27.08203 V 41.34375 h -4.78516 z m 0,0"
             id="path46652" />
        </g>
      </g>
      <g
         clip-path="url(#clip42)"
         clip-rule="nonzero"
         id="g46662"
         transform="matrix(0.35277777,0,0,0.35277777,65.161485,13.308645)"
         style="stroke-width:1.05383">
        <g
           clip-path="url(#clip43)"
           clip-rule="nonzero"
           id="g46660"
           style="stroke-width:1.08182">
          <path
             style="fill:#112338;fill-opacity:1;fill-rule:nonzero;stroke:none;stroke-width:1.02656"
             d="m 256.80859,41.34375 h -14.52734 v 21.707031 h 4.78125 V 46.128906 h 7.66406 c 0.98828,0 1.78906,0.796875 1.78906,1.789063 v 15.132812 h 4.78125 V 45.835938 c 0,-2.484376 -2.01171,-4.492188 -4.48828,-4.492188"
             id="path46658" />
        </g>
      </g>
      <g
         clip-path="url(#clip44)"
         clip-rule="nonzero"
         id="g46668"
         transform="matrix(0.35277777,0,0,0.35277777,65.161485,13.308645)"
         style="stroke-width:1.05383">
        <g
           clip-path="url(#clip45)"
           clip-rule="nonzero"
           id="g46666"
           style="stroke-width:1.08182">
          <path
             style="fill:#112338;fill-opacity:1;fill-rule:nonzero;stroke:none;stroke-width:1.02656"
             d="m 272.32031,45.90625 c 2.19141,-1.164062 4.3125,-0.765625 6.10156,0.714844 L 269.23828,51.5 c -0.19141,-2.328125 0.8125,-4.386719 3.08203,-5.59375 m 6.3711,11.796875 c -2.79688,1.488281 -6.03125,0.683594 -8.05469,-2.207031 l 14.95703,-7.953125 c -0.25391,-0.605469 -0.56641,-1.183594 -0.91797,-1.730469 -0.082,-0.125 -0.16406,-0.246094 -0.24219,-0.363281 -2.01562,-2.863281 -5.33984,-4.738281 -9.10156,-4.738281 -1.48437,0 -2.89062,0.292968 -4.18359,0.820312 -0.0977,0.04297 -0.19532,0.07422 -0.28907,0.125 -0.39453,0.167969 -0.77343,0.367188 -1.14453,0.585938 -0.33593,0.195312 -0.65625,0.410156 -0.96875,0.636718 -2.75,2.023438 -4.54687,5.277344 -4.54687,8.957032 0,6.148437 4.98437,11.128906 11.13281,11.128906 5.57813,0 10.18359,-4.109375 10.98828,-9.46875 -1.19922,-0.0039 -4.39453,-0.01172 -4.41406,-0.01172 -0.40234,1.8125 -1.55469,3.339844 -3.21484,4.21875"
             id="path46664" />
        </g>
      </g>
      <g
         clip-path="url(#clip46)"
         clip-rule="nonzero"
         id="g46674"
         transform="matrix(0.35277777,0,0,0.35277777,65.161485,13.308645)"
         style="stroke-width:1.05383">
        <g
           clip-path="url(#clip47)"
           clip-rule="nonzero"
           id="g46672"
           style="stroke-width:1.08182">
          <path
             style="fill:#3fbda3;fill-opacity:1;fill-rule:nonzero;stroke:none;stroke-width:1.02656"
             d="m 298.48828,58.195312 h 4.85938 v 4.859376 h -4.85938 z m 0,0"
             id="path46670" />
        </g>
      </g>
    </g>
  </g>
</svg>
