<svg width="4478" height="851" viewBox="0 0 4478 851" fill="none" xmlns="http://www.w3.org/2000/svg">
<path d="M2436.15 2.37538C2435.5 4.33175 2432.57 14.7655 2429.65 25.5254C2427.05 36.2853 2423.47 49.3276 2421.85 54.8706C2420.23 60.0875 2416.65 73.4562 2414.06 84.2153C2411.13 94.9755 2404.96 116.169 2400.41 131.494C2391.95 161.166 2391.31 163.774 2376.36 217.899C2370.83 237.463 2364.99 258.982 2363.36 265.177C2360.44 275.611 2335.41 364.951 2327.62 392.34C2326 398.535 2320.14 419.729 2314.62 439.618C2300 492.439 2299.67 493.744 2283.75 550.478C2275.63 579.171 2267.83 607.863 2265.88 614.058C2264.26 620.254 2259.71 636.557 2256.13 649.925C2245.41 689.052 2244.11 694.595 2228.52 749.372C2220.39 778.065 2212.27 807.411 2210.31 814.584C2208.37 821.758 2205.44 831.213 2203.49 835.452C2200.56 843.604 2204.56 844.84 2207.16 846.83C2208.71 848.015 2218.77 849.799 2221.36 850.777C2224.94 852.081 2227.54 847.842 2231.43 833.495C2234.36 823.061 2238.26 809.367 2239.89 803.172C2244.76 784.913 2272.05 688.4 2275.31 677.64C2276.93 672.097 2282.78 650.251 2288.62 628.732C2299.35 589.279 2320.48 512.982 2337.69 452.66C2339.32 447.118 2343.54 431.793 2347.12 418.424C2350.69 405.057 2355.24 388.753 2356.87 382.558C2362.39 362.342 2389.04 267.134 2391.95 257.026C2395.86 244.636 2400.41 227.681 2408.86 196.705C2412.43 183.337 2416.98 167.034 2418.6 160.839C2423.47 143.558 2450.77 46.7191 2454.67 33.6768C2456.3 27.4817 2458.24 18.0261 2458.57 12.8091C2458.22 7.09396 2457.92 2.7014 2448.49 0.745133C2441.35 -0.559082 2437.12 -0.233053 2436.15 2.37538Z" fill="#00E2ED"/>
<path d="M2671.96 686.562C2637.79 686.562 2607.03 678.48 2579.7 662.315C2552.36 646.15 2530.64 624.351 2514.53 596.92C2498.42 568.999 2490.36 537.894 2490.36 503.605C2490.36 469.805 2498.42 439.435 2514.53 412.493C2530.64 385.062 2552.36 363.264 2579.7 347.099C2607.03 330.934 2637.79 322.852 2671.96 322.852C2705.64 322.852 2736.16 330.934 2763.49 347.099C2791.32 362.774 2813.29 384.328 2829.4 411.759C2845.5 439.19 2853.56 469.805 2853.56 503.605C2853.56 537.894 2845.5 568.999 2829.4 596.92C2813.29 624.351 2791.32 646.15 2763.49 662.315C2736.16 678.48 2705.64 686.562 2671.96 686.562ZM2671.96 622.637C2693.93 622.637 2713.46 617.494 2730.54 607.207C2747.62 596.92 2761.06 582.96 2770.82 565.325C2780.58 547.201 2785.46 526.627 2785.46 503.605C2785.46 481.071 2780.33 460.988 2770.08 443.354C2760.32 425.719 2746.89 412.003 2729.81 402.207C2713.21 391.92 2693.93 386.776 2671.96 386.776C2649.99 386.776 2630.46 391.92 2613.38 402.207C2596.3 412.003 2582.87 425.719 2573.11 443.354C2563.35 460.988 2558.46 481.071 2558.46 503.605C2558.46 526.627 2563.35 547.201 2573.11 565.325C2582.87 582.96 2596.3 596.92 2613.38 607.207C2630.46 617.494 2649.99 622.637 2671.96 622.637ZM2927.81 679.215V330.199H2993.71V679.215H2927.81ZM2993.71 480.092L2968.82 469.071C2968.82 424.494 2979.07 388.981 2999.57 362.529C3020.07 336.077 3049.61 322.852 3088.17 322.852C3105.75 322.852 3121.62 326.035 3135.77 332.403C3149.93 338.282 3163.11 348.324 3175.31 362.529L3132.11 407.35C3124.79 399.512 3116.73 393.88 3107.94 390.45C3099.16 387.021 3088.91 385.307 3077.19 385.307C3052.78 385.307 3032.77 393.145 3017.15 408.82C3001.53 424.494 2993.71 448.252 2993.71 480.092ZM3358.19 686.562C3326.46 686.562 3297.66 678.724 3271.78 663.05C3245.91 646.885 3225.41 625.086 3210.27 597.655C3195.63 570.224 3188.3 539.364 3188.3 505.074C3188.3 470.785 3195.63 439.924 3210.27 412.493C3225.41 385.062 3245.67 363.264 3271.05 347.099C3296.93 330.934 3325.97 322.852 3358.19 322.852C3384.55 322.852 3407.98 328.485 3428.48 339.751C3449.48 350.528 3466.32 365.713 3479.01 385.307C3491.71 404.411 3498.78 426.699 3500.24 452.171V557.243C3498.78 582.225 3491.71 604.513 3479.01 624.107C3466.81 643.701 3450.21 659.131 3429.21 670.397C3408.71 681.174 3385.04 686.562 3358.19 686.562ZM3369.17 624.107C3401.88 624.107 3428.24 613.085 3448.25 591.042C3468.28 568.509 3478.28 539.853 3478.28 505.074C3478.28 481.071 3473.64 460.253 3464.36 442.619C3455.58 424.494 3442.89 410.534 3426.29 400.737C3409.7 390.45 3390.41 385.307 3368.44 385.307C3346.47 385.307 3326.95 390.45 3309.86 400.737C3293.27 411.024 3280.09 425.229 3270.32 443.354C3261.05 460.988 3256.4 481.317 3256.4 504.34C3256.4 527.852 3261.05 548.67 3270.32 566.795C3280.09 584.429 3293.51 598.39 3310.59 608.677C3327.68 618.963 3347.2 624.107 3369.17 624.107ZM3473.88 679.215V585.164L3486.33 499.931L3473.88 415.432V330.199H3540.52V679.215H3473.88ZM3795.37 686.562C3761.2 686.562 3730.2 678.48 3702.38 662.315C3675.03 646.15 3653.32 624.351 3637.21 596.92C3621.58 568.999 3613.77 538.139 3613.77 504.34C3613.77 470.05 3621.58 439.19 3637.21 411.759C3653.32 384.328 3675.03 362.774 3702.38 347.099C3730.2 330.934 3761.2 322.852 3795.37 322.852C3822.21 322.852 3847.11 327.995 3870.06 338.282C3893 348.078 3912.77 362.529 3929.37 381.633L3885.44 425.719C3874.7 412.984 3861.52 403.432 3845.9 397.063C3830.76 390.206 3813.92 386.776 3795.37 386.776C3773.4 386.776 3753.87 391.92 3736.79 402.207C3719.7 412.003 3706.28 425.719 3696.52 443.354C3686.75 460.988 3681.87 481.317 3681.87 504.34C3681.87 527.362 3686.75 547.691 3696.52 565.325C3706.28 582.96 3719.7 596.92 3736.79 607.207C3753.87 617.494 3773.4 622.637 3795.37 622.637C3813.92 622.637 3830.76 619.454 3845.9 613.085C3861.52 606.228 3874.94 596.43 3886.17 583.695L3929.37 627.781C3913.27 646.395 3893.49 660.845 3870.06 671.132C3847.11 681.419 3822.21 686.562 3795.37 686.562ZM3994.73 679.215V154.589H4060.64V679.215H3994.73ZM4318.15 686.562C4283.49 686.562 4252.25 678.724 4224.42 663.05C4196.59 646.885 4174.63 625.086 4158.52 597.655C4142.41 570.224 4134.35 539.118 4134.35 504.34C4134.35 470.05 4142.17 439.19 4157.79 411.759C4173.89 384.328 4195.38 362.774 4222.22 347.099C4249.57 330.934 4280.07 322.852 4313.76 322.852C4345.97 322.852 4374.29 330.199 4398.7 344.895C4423.59 359.59 4442.88 379.919 4456.54 405.88C4470.71 431.842 4477.78 461.233 4477.78 494.053C4477.78 498.952 4477.54 504.34 4477.05 510.218C4476.57 515.606 4475.58 521.974 4474.12 529.322H4180.49V474.214H4438.97L4414.81 495.522C4414.81 472.01 4410.66 452.171 4402.36 436.006C4394.06 419.351 4382.35 406.615 4367.21 397.798C4352.08 388.491 4333.78 383.837 4312.29 383.837C4289.84 383.837 4270.07 388.736 4252.98 398.533C4235.9 408.329 4222.72 422.045 4213.44 439.68C4204.17 457.314 4199.52 478.132 4199.52 502.135C4199.52 526.627 4204.41 548.181 4214.17 566.795C4223.94 584.92 4237.85 599.125 4255.91 609.411C4273.97 619.208 4294.72 624.107 4318.15 624.107C4337.68 624.107 4355.49 620.678 4371.6 613.82C4388.2 606.963 4402.36 596.676 4414.07 582.96L4456.54 626.311C4439.95 645.905 4419.45 660.845 4395.04 671.132C4371.12 681.419 4345.49 686.562 4318.15 686.562Z" fill="white"/>
<path d="M2002.74 431.466V692.311H2046.61H2090.47V540.695V389.078H2129.47H2168.46V343.43V297.782H2129.47H2090.47V234.201V170.62H2046.61H2002.74V431.466Z" fill="white"/>
<path d="M1824.05 216.276V261.925H1866.29H1908.53V216.276V170.628H1866.29H1824.05V216.276Z" fill="white"/>
<path d="M1824.05 495.05V692.314H1867.92H1911.79V495.05V297.785H1867.92H1824.05V495.05Z" fill="white"/>
<path d="M1161.12 461.14C1161.12 580.151 1162.09 628.407 1165.02 638.189C1170.22 656.123 1197.18 683.185 1215.05 688.402C1225.12 691.337 1292.06 692.314 1480.86 692.314H1733.02V495.05V297.785H1689.14H1645.28V451.033V604.279H1570.54H1495.81V451.033V297.785H1451.93H1408.07V451.033V604.279H1336.91C1336.91 604.279 1286.64 604.279 1276.18 604.279C1265.72 604.279 1257.3 595.801 1257.3 595.801C1257.3 595.801 1248.85 589.662 1248.85 573.917C1248.85 558.172 1248.85 442.555 1248.85 442.555V297.785H1204.98H1161.12V461.14Z" fill="white"/>
<path d="M998.047 468.951C984.089 469.111 968.857 472.892 953.519 481.893L564.908 724.05L568.783 726.394C579.715 732.785 594.099 737.258 610.021 736.939C623.979 736.832 639.264 733.105 654.602 724.052L730.976 676.441L1043.05 481.739L1039.07 479.29C1028.08 473.166 1013.97 468.844 998.047 468.951Z" fill="white"/>
<path d="M741.7 343.581L871.253 424.317L741.7 505.16C751.094 480.022 756.613 452.755 756.613 424.317C756.613 395.826 751.093 368.771 741.7 343.581ZM313.185 343.581C303.843 368.771 298.272 395.931 298.272 424.317C298.272 452.755 303.632 479.916 313.185 505.054L183.686 424.317L313.185 343.581ZM527.49 242.447C627.798 242.447 708.466 323.609 708.466 424.318C708.466 525.078 627.635 606.08 527.49 606.08C427.075 606.08 346.296 524.919 346.296 424.318C346.296 323.718 427.232 242.447 527.49 242.447ZM527.49 154.042L505.04 167.942L416.302 223.274C409.933 226.843 403.883 230.624 397.885 234.831L94.1514 424.31L397.885 613.693C403.988 617.847 410.251 621.734 416.725 625.409L527.597 694.376L636.609 626.367C636.875 626.154 637.194 625.889 637.459 625.782C644.252 622.054 650.834 617.847 657.201 613.374L960.895 424.317L657.107 234.934C651.057 230.78 644.847 226.733 638.319 223.165L527.49 154.042Z" fill="white"/>
<path d="M433.139 112.09C419.181 112.196 403.948 115.977 388.557 124.977L312.184 172.694L0 367.34C20.2213 380.867 54.4003 387.843 89.6419 367.34L478.252 125.072L474.378 122.729C463.445 116.232 449.22 111.823 433.139 112.09Z" fill="white"/>
</svg>
