<svg width="348" height="80" viewBox="0 0 348 80" fill="none" xmlns="http://www.w3.org/2000/svg">
<mask id="mask0_216_1979" style="mask-type:luminance" maskUnits="userSpaceOnUse" x="11" y="5" width="109" height="70">
<path d="M11.8223 5.06323H119.916V74.2607H11.8223V5.06323Z" fill="white"/>
</mask>
<g mask="url(#mask0_216_1979)">
<mask id="mask1_216_1979" style="mask-type:luminance" maskUnits="userSpaceOnUse" x="-166" y="-43" width="2426" height="2930">
<path d="M-165.519 -42.187V2674.4C-165.519 2674.4 477.637 2886.49 1009.2 2886.49C1461.89 2886.49 2180.28 2712.56 2259.44 2693.05V-42.2714L-165.519 -42.187Z" fill="white"/>
</mask>
<g mask="url(#mask1_216_1979)">
<path d="M92.4694 29.9186L108.574 39.9133L92.4694 49.9211C93.6372 46.8092 94.3232 43.4337 94.3232 39.9133C94.3232 36.3862 93.6371 33.0371 92.4694 29.9186ZM39.2013 29.9186C38.0402 33.0371 37.3476 36.3992 37.3476 39.9133C37.3476 43.4337 38.0139 46.7961 39.2013 49.9079L23.1035 39.9133L39.2013 29.9186ZM65.8413 17.399C78.3105 17.399 88.3382 27.4463 88.3382 39.9134C88.3382 52.3869 78.2903 62.4144 65.8413 62.4144C53.3589 62.4144 43.3173 52.3671 43.3173 39.9134C43.3173 27.4598 53.3785 17.399 65.8413 17.399ZM65.8413 6.45496L63.0506 8.17561L52.0197 15.0255C51.228 15.4672 50.4759 15.9353 49.7303 16.4561L11.9736 39.9124L49.7303 63.3568C50.489 63.871 51.2675 64.3523 52.0724 64.8072L65.8546 73.3448L79.4058 64.9259C79.4388 64.8995 79.4785 64.8665 79.5114 64.8533C80.3559 64.3918 81.174 63.871 81.9656 63.3172L119.717 39.9133L81.9538 16.4689C81.2017 15.9546 80.4298 15.4536 79.6183 15.0119L65.8413 6.45496Z" fill="white"/>
</g>
</g>
<mask id="mask2_216_1979" style="mask-type:luminance" maskUnits="userSpaceOnUse" x="70" y="43" width="62" height="37">
<path d="M70.9365 43.8813H131.739V79.324H70.9365V43.8813Z" fill="white"/>
</mask>
<g mask="url(#mask2_216_1979)">
<mask id="mask3_216_1979" style="mask-type:luminance" maskUnits="userSpaceOnUse" x="-166" y="-43" width="2426" height="2930">
<path d="M-165.518 -42.187V2674.4C-165.518 2674.4 477.638 2886.49 1009.2 2886.49C1461.9 2886.49 2180.28 2712.56 2259.44 2693.05V-42.2714L-165.518 -42.187Z" fill="white"/>
</mask>
<g mask="url(#mask3_216_1979)">
<path d="M125.254 45.2264C123.519 45.2462 121.625 45.7143 119.719 46.8285L71.4111 76.8062L71.8928 77.0963C73.2518 77.8874 75.0398 78.4412 77.0191 78.4016C78.7541 78.3885 80.6542 77.9269 82.5609 76.8062L92.0547 70.9122L130.848 46.8096L130.354 46.5063C128.988 45.7482 127.233 45.2132 125.254 45.2264Z" fill="white"/>
</g>
</g>
<mask id="mask4_216_1979" style="mask-type:luminance" maskUnits="userSpaceOnUse" x="0" y="0" width="61" height="36">
<path d="M0 0H60.8025V35.4426H0V0Z" fill="white"/>
</mask>
<g mask="url(#mask4_216_1979)">
<mask id="mask5_216_1979" style="mask-type:luminance" maskUnits="userSpaceOnUse" x="-166" y="-43" width="2426" height="2930">
<path d="M-165.518 -42.187V2674.4C-165.518 2674.4 477.638 2886.49 1009.2 2886.49C1461.9 2886.49 2180.28 2712.56 2259.44 2693.05V-42.2714L-165.518 -42.187Z" fill="white"/>
</mask>
<g mask="url(#mask5_216_1979)">
<path d="M54.6553 1.40416C52.9203 1.41733 51.0268 1.88544 49.1135 2.9996L39.6197 8.9067L0.8125 33.0026C3.32618 34.6772 7.57493 35.5408 11.9557 33.0026L60.2634 3.01142L59.7817 2.72133C58.4227 1.91702 56.6544 1.3712 54.6553 1.40416Z" fill="white"/>
</g>
</g>
<mask id="mask6_216_1979" style="mask-type:luminance" maskUnits="userSpaceOnUse" x="221" y="15" width="19" height="51">
<path d="M221.254 15.1897H239.832V65.822H221.254V15.1897Z" fill="white"/>
</mask>
<g mask="url(#mask6_216_1979)">
<mask id="mask7_216_1979" style="mask-type:luminance" maskUnits="userSpaceOnUse" x="-166" y="-43" width="2426" height="2930">
<path d="M-165.518 -42.187V2674.4C-165.518 2674.4 477.638 2886.49 1009.2 2886.49C1461.9 2886.49 2180.28 2712.56 2259.44 2693.05V-42.2714L-165.518 -42.187Z" fill="white"/>
</mask>
<g mask="url(#mask7_216_1979)">
<path d="M231.067 15.8024H222.859V64.2457H231.067V35.8966H238.35V27.5832H231.067V15.8024Z" fill="white"/>
</g>
</g>
<mask id="mask8_216_1979" style="mask-type:luminance" maskUnits="userSpaceOnUse" x="320" y="15" width="18" height="51">
<path d="M320.902 15.1897H337.792V65.822H320.902V15.1897Z" fill="white"/>
</mask>
<g mask="url(#mask8_216_1979)">
<mask id="mask9_216_1979" style="mask-type:luminance" maskUnits="userSpaceOnUse" x="-166" y="-43" width="2426" height="2930">
<path d="M-165.518 -42.187V2674.4C-165.518 2674.4 477.638 2886.49 1009.2 2886.49C1461.9 2886.49 2180.28 2712.56 2259.44 2693.05V-42.2714L-165.518 -42.187Z" fill="white"/>
</mask>
<g mask="url(#mask9_216_1979)">
<path d="M329.736 27.5845V15.8032H321.528V64.2465H329.736V35.8975H337.019V27.584L329.736 27.5845Z" fill="white"/>
</g>
</g>
<mask id="mask10_216_1979" style="mask-type:luminance" maskUnits="userSpaceOnUse" x="206" y="27" width="9" height="39">
<path d="M206.053 27.0039H214.498V65.822H206.053V27.0039Z" fill="white"/>
</mask>
<g mask="url(#mask10_216_1979)">
<mask id="mask11_216_1979" style="mask-type:luminance" maskUnits="userSpaceOnUse" x="-166" y="-43" width="2426" height="2930">
<path d="M-165.519 -42.187V2674.4C-165.519 2674.4 477.637 2886.49 1009.2 2886.49C1461.89 2886.49 2180.28 2712.56 2259.44 2693.05V-42.2714L-165.519 -42.187Z" fill="white"/>
</mask>
<g mask="url(#mask11_216_1979)">
<path d="M206.289 27.5845H214.371V64.2473H206.289V27.5845Z" fill="white"/>
</g>
</g>
<mask id="mask12_216_1979" style="mask-type:luminance" maskUnits="userSpaceOnUse" x="206" y="15" width="9" height="11">
<path d="M206.053 15.1897H214.498V25.3162H206.053V15.1897Z" fill="white"/>
</mask>
<g mask="url(#mask12_216_1979)">
<mask id="mask13_216_1979" style="mask-type:luminance" maskUnits="userSpaceOnUse" x="-166" y="-43" width="2426" height="2930">
<path d="M-165.519 -42.187V2674.4C-165.519 2674.4 477.637 2886.49 1009.2 2886.49C1461.89 2886.49 2180.28 2712.56 2259.44 2693.05V-42.2714L-165.519 -42.187Z" fill="white"/>
</mask>
<g mask="url(#mask13_216_1979)">
<path d="M206.34 15.8024H214.303V24.2806H206.34V15.8024Z" fill="white"/>
</g>
</g>
<mask id="mask14_216_1979" style="mask-type:luminance" maskUnits="userSpaceOnUse" x="143" y="27" width="57" height="39">
<path d="M143.562 27.0039H199.297V65.822H143.562V27.0039Z" fill="white"/>
</mask>
<g mask="url(#mask14_216_1979)">
<mask id="mask15_216_1979" style="mask-type:luminance" maskUnits="userSpaceOnUse" x="-166" y="-43" width="2426" height="2930">
<path d="M-165.518 -42.187V2674.4C-165.518 2674.4 477.638 2886.49 1009.2 2886.49C1461.9 2886.49 2180.28 2712.56 2259.44 2693.05V-42.2714L-165.518 -42.187Z" fill="white"/>
</mask>
<g mask="url(#mask15_216_1979)">
<path d="M189.721 56.1765H175.774V27.5845H167.699V56.1765H155.579C153.917 56.1765 152.558 54.8184 152.558 53.157V27.5843H144.482V56.6709C144.482 60.8573 147.88 64.246 152.063 64.246H197.803V27.5831H189.721V56.1765Z" fill="white"/>
</g>
</g>
<mask id="mask16_216_1979" style="mask-type:luminance" maskUnits="userSpaceOnUse" x="243" y="27" width="34" height="39">
<path d="M243.21 27.0039H276.989V65.822H243.21V27.0039Z" fill="white"/>
</mask>
<g mask="url(#mask16_216_1979)">
<mask id="mask17_216_1979" style="mask-type:luminance" maskUnits="userSpaceOnUse" x="-166" y="-43" width="2426" height="2930">
<path d="M-165.518 -42.187V2674.4C-165.518 2674.4 477.638 2886.49 1009.2 2886.49C1461.9 2886.49 2180.28 2712.56 2259.44 2693.05V-42.2714L-165.518 -42.187Z" fill="white"/>
</mask>
<g mask="url(#mask17_216_1979)">
<path d="M268.224 27.5845H243.688V64.2204H251.764V35.6604H264.708C266.377 35.6604 267.73 37.0053 267.73 38.6799V64.2205H275.805V35.166C275.805 30.973 272.407 27.5845 268.224 27.5845Z" fill="white"/>
</g>
</g>
<mask id="mask18_216_1979" style="mask-type:luminance" maskUnits="userSpaceOnUse" x="280" y="25" width="40" height="40">
<path d="M280.367 25.3162H319.213V64.1342H280.367V25.3162Z" fill="white"/>
</mask>
<g mask="url(#mask18_216_1979)">
<mask id="mask19_216_1979" style="mask-type:luminance" maskUnits="userSpaceOnUse" x="-166" y="-43" width="2426" height="2930">
<path d="M-165.518 -42.187V2674.4C-165.518 2674.4 477.638 2886.49 1009.2 2886.49C1461.9 2886.49 2180.28 2712.56 2259.44 2693.05V-42.2714L-165.518 -42.187Z" fill="white"/>
</mask>
<g mask="url(#mask19_216_1979)">
<path d="M294.419 35.284C298.121 33.3193 301.703 33.9918 304.725 36.4904L289.214 44.7248C288.891 40.7955 290.586 37.3212 294.419 35.284ZM305.18 55.1942C300.456 57.706 294.994 56.3479 291.576 51.4693L316.838 38.0465C316.409 37.0247 315.881 36.0489 315.287 35.1259C315.149 34.9149 315.01 34.7106 314.878 34.5128C311.474 29.6803 305.86 26.5157 299.506 26.5157C296.999 26.5157 294.624 27.0102 292.44 27.9002C292.275 27.9727 292.11 28.0255 291.952 28.1112C291.286 28.3947 290.646 28.7309 290.019 29.1001C289.451 29.4297 288.91 29.7924 288.383 30.1747C283.738 33.5897 280.703 39.0815 280.703 45.2918C280.703 55.6688 289.122 64.0747 299.506 64.0747C308.927 64.0747 316.707 57.1391 318.065 48.0938C316.039 48.0872 310.642 48.074 310.609 48.074C309.93 51.1331 307.984 53.7107 305.18 55.1942Z" fill="white"/>
</g>
</g>
<mask id="mask20_216_1979" style="mask-type:luminance" maskUnits="userSpaceOnUse" x="337" y="55" width="11" height="11">
<path d="M337.792 55.6956H347.926V65.822H337.792V55.6956Z" fill="white"/>
</mask>
<g mask="url(#mask20_216_1979)">
<mask id="mask21_216_1979" style="mask-type:luminance" maskUnits="userSpaceOnUse" x="-166" y="-43" width="2426" height="2930">
<path d="M-165.518 -42.187V2674.4C-165.518 2674.4 477.638 2886.49 1009.2 2886.49C1461.9 2886.49 2180.28 2712.56 2259.44 2693.05V-42.2714L-165.518 -42.187Z" fill="white"/>
</mask>
<g mask="url(#mask21_216_1979)">
<path d="M338.62 56.0247H346.827V64.2261H338.62V56.0247Z" fill="#3FBDA3"/>
</g>
</g>
</svg>
