<?xml version="1.0" encoding="UTF-8" standalone="no"?>
<!-- Created with Inkscape (http://www.inkscape.org/) -->

<svg
   xmlns:dc="http://purl.org/dc/elements/1.1/"
   xmlns:cc="http://creativecommons.org/ns#"
   xmlns:rdf="http://www.w3.org/1999/02/22-rdf-syntax-ns#"
   xmlns:svg="http://www.w3.org/2000/svg"
   xmlns="http://www.w3.org/2000/svg"
   xmlns:sodipodi="http://sodipodi.sourceforge.net/DTD/sodipodi-0.dtd"
   xmlns:inkscape="http://www.inkscape.org/namespaces/inkscape"
   width="32"
   height="32"
   viewBox="0 0 8.4666659 8.4666659"
   version="1.1"
   id="svg1400"
   inkscape:version="0.92.2 5c3e80d, 2017-08-06"
   sodipodi:docname="github.svg">
  <defs
     id="defs1394" />
  <sodipodi:namedview
     id="base"
     pagecolor="#000000"
     bordercolor="#666666"
     borderopacity="1.0"
     inkscape:pageopacity="0"
     inkscape:pageshadow="2"
     inkscape:zoom="11.2"
     inkscape:cx="7.7930715"
     inkscape:cy="18.003199"
     inkscape:document-units="px"
     inkscape:current-layer="layer1"
     showgrid="false"
     inkscape:window-width="1920"
     inkscape:window-height="1080"
     inkscape:window-x="0"
     inkscape:window-y="0"
     inkscape:window-maximized="1"
     borderlayer="true"
     inkscape:showpageshadow="false"
     units="px" />
  <metadata
     id="metadata1397">
    <rdf:RDF>
      <cc:Work
         rdf:about="">
        <dc:format>image/svg+xml</dc:format>
        <dc:type
           rdf:resource="http://purl.org/dc/dcmitype/StillImage" />
        <dc:title />
      </cc:Work>
    </rdf:RDF>
  </metadata>
  <g
     inkscape:label="Layer 1"
     inkscape:groupmode="layer"
     id="layer1"
     transform="translate(0,-288.53334)">
    <path
       style="fill:#ffffff;stroke-width:0.01654768"
       d="m 3.854488,296.98849 c -1.4553637,-0.13323 -2.7509051,-1.01866 -3.40913611,-2.32996 -0.34283874,-0.683 -0.49734128,-1.48602 -0.42983732,-2.23409 0.09002489,-0.99765 0.49499556,-1.88706 1.18176133,-2.59543 0.9699366,-1.00045 2.3643959,-1.46103 3.7329917,-1.23295 0.2202291,0.0367 0.5625875,0.12605 0.7554171,0.19716 0.2056461,0.0759 0.6210342,0.27812 0.7837754,0.38169 0.5186529,0.33007 0.9587721,0.75999 1.2941363,1.26415 0.9060581,1.36209 0.9389503,3.14529 0.08374,4.5398 -0.3341264,0.54483 -0.8594624,1.06998 -1.4044714,1.404 -0.7673522,0.47028 -1.6952345,0.68739 -2.588377,0.60563 z m -0.63776,-0.71605 c 0.098839,-0.0413 0.1081458,-0.0813 0.1081458,-0.46506 v -0.3413 l -0.052083,0.0114 c -0.1097579,0.0241 -0.3260675,0.0345 -0.4621075,0.0222 -0.2402043,-0.0217 -0.4700288,-0.12995 -0.6052137,-0.28505 -0.032872,-0.0377 -0.1024593,-0.15792 -0.1546372,-0.26711 -0.1045809,-0.21887 -0.2117477,-0.37255 -0.309112,-0.44331 -0.03499,-0.0254 -0.093764,-0.0678 -0.1306086,-0.0941 -0.078489,-0.0561 -0.1216416,-0.12442 -0.095237,-0.15082 0.032957,-0.033 0.1409423,-0.0462 0.2347804,-0.0289 0.1966671,0.0364 0.3494199,0.15305 0.5069682,0.38732 0.1117763,0.16622 0.1940946,0.24167 0.3390301,0.31076 0.093279,0.0445 0.1295771,0.0521 0.2730828,0.0575 0.1186569,0.004 0.1957475,-0.002 0.2723483,-0.0216 0.1726634,-0.0449 0.1892173,-0.058 0.2123832,-0.16844 0.024873,-0.11856 0.1034483,-0.27691 0.1731107,-0.34889 0.028625,-0.0296 0.043877,-0.0538 0.033893,-0.0538 -0.058543,0 -0.4164803,-0.0711 -0.54269,-0.10782 -0.4907226,-0.14271 -0.8313477,-0.43136 -1.0010951,-0.84833 -0.130758,-0.3212 -0.1829297,-0.79876 -0.1241024,-1.136 0.042138,-0.24155 0.1676912,-0.51516 0.3019372,-0.65799 l 0.042331,-0.0451 -0.02748,-0.12502 c -0.031003,-0.14104 -0.036356,-0.41994 -0.010675,-0.55612 0.00924,-0.049 0.032623,-0.13938 0.051956,-0.2008 l 0.03515,-0.11168 h 0.093194 c 0.1824497,0 0.4812746,0.11253 0.7865681,0.29621 l 0.13365,0.0804 0.173696,-0.0394 c 0.5216337,-0.11826 1.0345528,-0.11756 1.5349544,0.002 l 0.1696257,0.0406 0.1171361,-0.0758 c 0.2685258,-0.17365 0.6093414,-0.30414 0.7943679,-0.30414 h 0.092889 l 0.048122,0.15304 c 0.044919,0.14285 0.04808,0.17067 0.04749,0.41776 -5.027e-4,0.20708 -0.00666,0.28007 -0.028295,0.33523 l -0.027662,0.0705 0.046845,0.0536 c 0.1318501,0.15082 0.2523619,0.3969 0.3017295,0.61611 0.03242,0.14396 0.027479,0.60485 -0.00851,0.79415 -0.033267,0.17496 -0.097589,0.38014 -0.1555998,0.49635 -0.1782416,0.35705 -0.5084289,0.61424 -0.9554847,0.74425 -0.1247783,0.0363 -0.4839345,0.10782 -0.5413695,0.10782 -0.00926,0 0.00978,0.0294 0.042304,0.0654 0.071783,0.0795 0.117838,0.16694 0.1546757,0.29391 0.023119,0.0797 0.029317,0.20801 0.03716,0.7695 l 0.00941,0.67385 0.042988,0.043 c 0.089876,0.0898 0.1933442,0.0741 0.5455512,-0.083 1.1036111,-0.49191 1.9098255,-1.51299 2.1334288,-2.70202 0.2263979,-1.20387 -0.1548828,-2.44261 -1.0171495,-3.30459 -0.5798679,-0.57967 -1.336628,-0.95339 -2.1407867,-1.05719 -0.231077,-0.0298 -0.6643811,-0.0345 -0.8880688,-0.009 -1.2609102,0.14084 -2.3697982,0.92258 -2.92135342,2.05947 -0.26490967,0.54605 -0.37159926,1.01469 -0.37100313,1.62967 3.7571e-4,0.38475 0.0252402,0.58771 0.11446305,0.9342 0.16693993,0.6483 0.4803869,1.1931 0.9674632,1.68155 0.3914473,0.39255 0.8258172,0.67515 1.3199156,0.85871 0.1470229,0.0546 0.1978419,0.0594 0.2775802,0.0261 z"
       id="path828"
       inkscape:connector-curvature="0" />
    <circle
       style="opacity:1;fill:none;fill-opacity:1;stroke:#ffffff;stroke-width:0.58208328;stroke-linecap:round;stroke-linejoin:miter;stroke-miterlimit:4;stroke-dasharray:none;stroke-dashoffset:0;stroke-opacity:1;paint-order:markers fill stroke"
       id="path835"
       cx="4.2333331"
       cy="292.76666"
       r="3.9422915" />
  </g>
</svg>
