<?xml version="1.0" encoding="UTF-8" standalone="no"?>
<!-- Generator: Adobe Illustrator 25.3.1, SVG Export Plug-In . SVG Version: 6.00 Build 0)  -->

<svg
   version="1.1"
   id="Layer_1"
   x="0px"
   y="0px"
   viewBox="0 0 189.46769 75.000002"
   xml:space="preserve"
   sodipodi:docname="boba.svg"
   width="189.46768"
   height="75"
   inkscape:version="1.1 (c4e8f9ed74, 2021-05-24)"
   xmlns:inkscape="http://www.inkscape.org/namespaces/inkscape"
   xmlns:sodipodi="http://sodipodi.sourceforge.net/DTD/sodipodi-0.dtd"
   xmlns="http://www.w3.org/2000/svg"
   xmlns:svg="http://www.w3.org/2000/svg"><defs
   id="defs105" /><sodipodi:namedview
   id="namedview103"
   pagecolor="#ffffff"
   bordercolor="#666666"
   borderopacity="1.0"
   inkscape:pageshadow="2"
   inkscape:pageopacity="0.0"
   inkscape:pagecheckerboard="0"
   showgrid="false"
   fit-margin-top="0"
   fit-margin-left="0"
   fit-margin-right="0"
   fit-margin-bottom="0"
   inkscape:zoom="3.6284148"
   inkscape:cx="25.217624"
   inkscape:cy="77.857692"
   inkscape:window-width="2560"
   inkscape:window-height="1381"
   inkscape:window-x="0"
   inkscape:window-y="0"
   inkscape:window-maximized="1"
   inkscape:current-layer="g1081" />
<style
   type="text/css"
   id="style2">
	.st0{fill:#CCFF00;}
	.st1{fill:#1CD8D2;}
</style>



<g
   id="g1081"
   transform="matrix(0.4342268,0,0,0.4342268,-39.639068,-15.05447)"
   style="stroke-width:2.30294"><path
     class="st0"
     d="m 256.14,205.36 c -27.85,0 -50.51,-22.66 -50.51,-50.51 0,-27.85 22.66,-50.51 50.51,-50.51 27.85,0 50.51,22.66 50.51,50.51 0,27.85 -22.66,50.51 -50.51,50.51 z m 0,-89.53 c -21.51,0 -39.01,17.5 -39.01,39.01 0,21.51 17.5,39.01 39.01,39.01 21.51,0 39.01,-17.5 39.01,-39.01 0,-21.51 -17.5,-39.01 -39.01,-39.01 z"
     id="path4"
     style="stroke-width:2.30294;fill:#000000" /><g
     id="g46"
     style="stroke-width:2.30294;fill:#000000">
	<g
   id="g12"
   style="stroke-width:2.30294;fill:#000000">
		<g
   id="g10"
   style="stroke-width:2.30294;fill:#000000">
			<g
   id="g8"
   style="stroke-width:2.30294;fill:#000000">
				<path
   class="st0"
   d="m 115.65,152.96 c -3.15,0 -5.81,-2.25 -6.34,-5.36 L 91.38,42.18 c -0.29,-1.7 0.1,-3.4 1.1,-4.8 1,-1.4 2.48,-2.33 4.17,-2.62 3.5,-0.59 6.83,1.77 7.43,5.27 L 122,145.44 c 0.29,1.7 -0.1,3.4 -1.1,4.8 -1,1.4 -2.48,2.33 -4.17,2.62 -0.35,0.06 -0.71,0.1 -1.08,0.1 z"
   id="path6"
   style="stroke-width:2.30294;fill:#000000" />
			</g>
		</g>
	</g>
	<path
   class="st0"
   d="m 145.7,104.33 c -10.25,0 -19.78,3.07 -27.75,8.34 l 2.17,12.76 c 6.85,-5.97 15.8,-9.6 25.58,-9.6 21.51,0 39.01,17.5 39.01,39.01 0,21.51 -17.5,39.01 -39.01,39.01 -21.51,0 -39.01,-17.5 -39.01,-39.01 0,-2.87 0.32,-5.66 0.91,-8.35 l -3.46,-20.31 c -5.64,8.15 -8.95,18.03 -8.95,28.67 0,27.85 22.66,50.51 50.51,50.51 27.85,0 50.51,-22.66 50.51,-50.51 0,-27.85 -22.65,-50.52 -50.51,-50.52 z"
   id="path14"
   style="stroke-width:2.30294;fill:#000000" />
	<g
   id="g44"
   style="stroke-width:2.30294;fill:#000000;fill-opacity:1">
		<g
   id="g18"
   style="stroke-width:2.30294;fill:#000000;fill-opacity:1">
			<circle
   class="st1"
   cx="142.94"
   cy="177.45"
   r="6.8800001"
   id="circle16"
   style="stroke-width:2.30294;fill:#000000;fill-opacity:1" />
		</g>
		<g
   id="g22"
   style="stroke-width:2.30294;fill:#000000;fill-opacity:1">
			<circle
   class="st1"
   cx="164.42999"
   cy="169.44"
   r="6.8800001"
   id="circle20"
   style="stroke-width:2.30294;fill:#000000;fill-opacity:1" />
		</g>
		<g
   id="g26"
   style="stroke-width:2.30294;fill:#000000;fill-opacity:1">
			<circle
   class="st1"
   cx="147.53"
   cy="154.69"
   r="6.8800001"
   id="circle24"
   style="stroke-width:2.30294;fill:#000000;fill-opacity:1" />
		</g>
		<g
   id="g30"
   style="stroke-width:2.30294;fill:#000000;fill-opacity:1">
			<circle
   class="st1"
   cx="126.18"
   cy="161.72"
   r="6.8800001"
   id="circle28"
   style="stroke-width:2.30294;fill:#000000;fill-opacity:1" />
		</g>
		<g
   id="g34"
   style="stroke-width:2.30294;fill:#000000;fill-opacity:1">
			<circle
   class="st1"
   cx="168.83"
   cy="147.64"
   r="6.8800001"
   id="circle32"
   style="stroke-width:2.30294;fill:#000000;fill-opacity:1" />
		</g>
		<g
   id="g38"
   style="stroke-width:2.30294;fill:#000000;fill-opacity:1">
			<circle
   class="st1"
   cx="152.13"
   cy="131.92999"
   r="6.8800001"
   id="circle36"
   style="stroke-width:2.30294;fill:#000000;fill-opacity:1" />
		</g>
		<g
   id="g42"
   style="stroke-width:2.30294;fill:#000000;fill-opacity:1">
			<circle
   class="st1"
   cx="130.57001"
   cy="139.92"
   r="6.8800001"
   id="circle40"
   style="stroke-width:2.30294;fill:#000000;fill-opacity:1" />
		</g>
	</g>
</g><g
     id="g88"
     style="stroke-width:2.30294;fill:#000000">
	<g
   id="g54"
   style="stroke-width:2.30294;fill:#000000">
		<g
   id="g52"
   style="stroke-width:2.30294;fill:#000000">
			<g
   id="g50"
   style="stroke-width:2.30294;fill:#000000">
				<path
   class="st0"
   d="m 336.62,152.96 c -3.15,0 -5.81,-2.25 -6.34,-5.36 L 312.35,42.18 c -0.29,-1.7 0.1,-3.4 1.1,-4.8 1,-1.4 2.48,-2.33 4.17,-2.62 3.5,-0.59 6.83,1.77 7.43,5.27 l 17.93,105.42 c 0.29,1.7 -0.1,3.4 -1.1,4.8 -1,1.4 -2.48,2.33 -4.17,2.62 -0.35,0.05 -0.72,0.09 -1.09,0.09 z"
   id="path48"
   style="stroke-width:2.30294;fill:#000000" />
			</g>
		</g>
	</g>
	<path
   class="st0"
   d="m 366.67,104.33 c -10.25,0 -19.78,3.07 -27.75,8.34 l 2.17,12.76 c 6.85,-5.97 15.8,-9.6 25.58,-9.6 21.51,0 39.01,17.5 39.01,39.01 0,21.51 -17.5,39.01 -39.01,39.01 -21.51,0 -39.01,-17.5 -39.01,-39.01 0,-2.87 0.32,-5.66 0.91,-8.35 l -3.46,-20.31 c -5.64,8.15 -8.95,18.03 -8.95,28.67 0,27.85 22.66,50.51 50.51,50.51 27.85,0 50.51,-22.66 50.51,-50.51 0,-27.85 -22.65,-50.52 -50.51,-50.52 z"
   id="path56"
   style="stroke-width:2.30294;fill:#000000" />
	<g
   id="g86"
   style="stroke-width:2.30294;fill:#000000;fill-opacity:1">
		<g
   id="g60"
   style="stroke-width:2.30294;fill:#000000;fill-opacity:1">
			<circle
   class="st1"
   cx="363.91"
   cy="177.45"
   r="6.8800001"
   id="circle58"
   style="stroke-width:2.30294;fill:#000000;fill-opacity:1" />
		</g>
		<g
   id="g64"
   style="stroke-width:2.30294;fill:#000000;fill-opacity:1">
			<circle
   class="st1"
   cx="385.39999"
   cy="169.44"
   r="6.8800001"
   id="circle62"
   style="stroke-width:2.30294;fill:#000000;fill-opacity:1" />
		</g>
		<g
   id="g68"
   style="stroke-width:2.30294;fill:#000000;fill-opacity:1">
			<circle
   class="st1"
   cx="368.51001"
   cy="154.69"
   r="6.8800001"
   id="circle66"
   style="stroke-width:2.30294;fill:#000000;fill-opacity:1" />
		</g>
		<g
   id="g72"
   style="stroke-width:2.30294;fill:#000000;fill-opacity:1">
			<circle
   class="st1"
   cx="347.14999"
   cy="161.72"
   r="6.8800001"
   id="circle70"
   style="stroke-width:2.30294;fill:#000000;fill-opacity:1" />
		</g>
		<g
   id="g76"
   style="stroke-width:2.30294;fill:#000000;fill-opacity:1">
			<circle
   class="st1"
   cx="389.79999"
   cy="147.64"
   r="6.8800001"
   id="circle74"
   style="stroke-width:2.30294;fill:#000000;fill-opacity:1" />
		</g>
		<g
   id="g80"
   style="stroke-width:2.30294;fill:#000000;fill-opacity:1">
			<circle
   class="st1"
   cx="373.10001"
   cy="131.92999"
   r="6.8800001"
   id="circle78"
   style="stroke-width:2.30294;fill:#000000;fill-opacity:1" />
		</g>
		<g
   id="g84"
   style="stroke-width:2.30294;fill:#000000;fill-opacity:1">
			<circle
   class="st1"
   cx="351.54001"
   cy="139.92"
   r="6.8800001"
   id="circle82"
   style="stroke-width:2.30294;fill:#000000;fill-opacity:1" />
		</g>
	</g>
</g><g
     id="g100"
     style="stroke-width:2.30294;fill:#000000">
	<g
   id="g96"
   style="stroke-width:2.30294;fill:#000000">
		<g
   id="g94"
   style="stroke-width:2.30294;fill:#000000">
			<g
   id="g92"
   style="stroke-width:2.30294;fill:#000000">
				<path
   class="st0"
   d="m 507.16,156.63 c 3.15,0 5.81,2.25 6.34,5.36 l 6.42,37.89 c 0.29,1.7 -0.1,3.4 -1.1,4.8 -1,1.4 -2.48,2.33 -4.17,2.62 -3.5,0.59 -6.83,-1.77 -7.43,-5.27 l -6.42,-37.89 c -0.29,-1.7 0.1,-3.4 1.1,-4.8 1,-1.4 2.48,-2.33 4.17,-2.62 0.36,-0.06 0.72,-0.09 1.09,-0.09 z"
   id="path90"
   style="stroke-width:2.30294;fill:#000000" />
			</g>
		</g>
	</g>
	<path
   class="st0"
   d="m 477.11,205.25 c 10.25,0 19.78,-3.07 27.75,-8.34 l -2.17,-12.76 c -6.85,5.97 -15.8,9.6 -25.58,9.6 -21.51,0 -39.01,-17.5 -39.01,-39.01 0,-21.51 17.5,-39.01 39.01,-39.01 21.51,0 39.01,17.5 39.01,39.01 0,2.87 -0.32,5.66 -0.91,8.35 l 3.46,20.31 c 5.64,-8.15 8.95,-18.03 8.95,-28.67 0,-27.85 -22.66,-50.51 -50.51,-50.51 -27.85,0 -50.51,22.66 -50.51,50.51 0,27.85 22.65,50.52 50.51,50.52 z"
   id="path98"
   style="stroke-width:2.30294;fill:#000000" />
</g></g>
</svg>
