<?xml version="1.0" encoding="UTF-8" standalone="no"?>
<svg
   width="252.6315"
   height="75"
   viewBox="0 0 210.52625 62.5"
   fill="none"
   version="1.1"
   id="svg26959"
   sodipodi:docname="celo.svg"
   inkscape:version="1.1 (c4e8f9ed74, 2021-05-24)"
   xmlns:inkscape="http://www.inkscape.org/namespaces/inkscape"
   xmlns:sodipodi="http://sodipodi.sourceforge.net/DTD/sodipodi-0.dtd"
   xmlns="http://www.w3.org/2000/svg"
   xmlns:svg="http://www.w3.org/2000/svg">
  <defs
     id="defs26963" />
  <sodipodi:namedview
     id="namedview26961"
     pagecolor="#ffffff"
     bordercolor="#666666"
     borderopacity="1.0"
     inkscape:pageshadow="2"
     inkscape:pageopacity="0.0"
     inkscape:pagecheckerboard="0"
     showgrid="false"
     inkscape:zoom="2.7867647"
     inkscape:cx="29.604222"
     inkscape:cy="154.48021"
     inkscape:window-width="2560"
     inkscape:window-height="1381"
     inkscape:window-x="0"
     inkscape:window-y="0"
     inkscape:window-maximized="1"
     inkscape:current-layer="svg26959"
     fit-margin-top="0"
     fit-margin-left="0"
     fit-margin-right="0"
     fit-margin-bottom="0" />
  <path
     d="M 160.592,55.1975 166.25,53.421 V 6.578975 L 160.592,8.3553 Z M 95.329,26.77625 c 3.5525,0 6.842,1.579 8.94725,4.2105 L 106.579,25.658 c -3.0265,-2.8948 -7.0395,-4.2764 -11.25,-4.2764 -9.737,0 -16.4475,7.6974 -16.38175,16.18415 0.06575,9.2105 7.30275,16.7105 16.38175,16.7105 4.60525,0 8.092,-1.3815 10.7235,-3.2895 v -6.513 c -2.763,2.763 -6.77625,4.40775 -10.263,4.40775 -5.26325,0 -11.18425,-4.27625 -11.18425,-11.31575 0,-6.513 5.1315,-10.7895 10.72375,-10.7895 z m 37.6315,-5.39465 c -9.73675,0 -15.39475,7.6974 -15.39475,16.18415 0,9.2105 7.3025,16.7105 16.3815,16.7105 4.60525,0 8.09225,-1.3815 10.72375,-3.2895 v -6.513 c -2.76325,2.763 -6.77625,4.40775 -10.26325,4.40775 -4.671,0 -9.8025,-2.89475 -10.85525,-9.013 h 24.80275 v -2.171 c 0,-9.079 -5.987,-16.3159 -15.39475,-16.3159 z m 61.1185,0 c -9.079,0 -16.4475,7.3684 -16.4475,16.4474 0,9.079 7.3685,16.44725 16.4475,16.44725 9.07875,0 16.44725,-7.36825 16.44725,-16.44725 0,-9.079 -7.3685,-16.4474 -16.44725,-16.4474 z m -61.05275,5.39465 c 4.408,0 9.079,2.76325 9.47375,8.09225 h -18.9475 c 0.39475,-5.329 5.06575,-8.09225 9.47375,-8.09225 z M 194.079,48.8815 c -6.1185,0 -11.05275,-4.934 -11.05275,-11.0525 0,-6.1185 4.93425,-11.05275 11.05275,-11.05275 6.11825,0 11.0525,4.93425 11.0525,11.05275 0,6.1185 -4.93425,11.0525 -11.0525,11.0525 z"
     fill="#FFFFFF"
     id="path26951"
     style="fill:#1a1a1a;stroke-width:1" />
  <path
     d="m 37.829,42.76325 c 9.992,0 18.092,-8.1 18.092,-18.0922 0,-9.9921 -8.1,-18.0921 -18.092,-18.0921 -9.992,0 -18.0921,8.1 -18.0921,18.0921 0,9.9922 8.1001,18.0922 18.0921,18.0922 z m 0,6.57875 C 24.204,49.342 13.15795,38.296 13.15795,24.67105 13.15795,11.04605 24.204,0 37.829,0 51.454,0 62.5,11.04605 62.5,24.67105 62.5,38.296 51.454,49.342 37.829,49.342 Z"
     fill="#35d07f"
     id="path26953"
     style="stroke-width:1" />
  <path
     d="m 24.67105,55.921 c 9.9922,0 18.0922,-8.1 18.0922,-18.092 0,-9.992 -8.1,-18.0921 -18.0922,-18.0921 -9.9921,0 -18.0921,8.1001 -18.0921,18.0921 0,9.992 8.1,18.092 18.0921,18.092 z m 0,6.579 C 11.04605,62.5 0,51.454 0,37.829 0,24.204 11.04605,13.15795 24.67105,13.15795 38.296,13.15795 49.342,24.204 49.342,37.829 49.342,51.454 38.296,62.5 24.67105,62.5 Z"
     fill="#fbcc5c"
     id="path26955"
     style="stroke-width:1" />
  <path
     d="M 38.63825,49.32875 C 40.348,47.2575 41.573,44.83 42.225,42.22475 c 2.60525,-0.65125 5.03225,-1.877 7.104,-3.58625 -0.09475,3.01725 -0.74425,5.9915 -1.91725,8.773 -2.7815,1.173 -5.75575,1.8225 -8.7735,1.91725 z M 20.27565,20.274725 C 17.670375,20.92605 15.2434,22.1517 13.1717,23.8609 c 0.09473,-3.0171 0.744075,-5.99145 1.9171,-8.773025 2.781575,-1.173025 5.755925,-1.82235 8.773025,-1.9171 -1.7092,2.0717 -2.934875,4.498675 -3.586175,7.10395 z"
     fill="#ecff8f"
     id="path26957"
     style="stroke-width:1" />
</svg>
