<?xml version="1.0" encoding="UTF-8" standalone="no"?>
<!-- Created with Inkscape (http://www.inkscape.org/) -->

<svg
   width="80.766487mm"
   height="19.84375mm"
   viewBox="0 0 80.766487 19.84375"
   version="1.1"
   id="svg6449"
   xmlns="http://www.w3.org/2000/svg"
   xmlns:svg="http://www.w3.org/2000/svg">
  <defs
     id="defs6446" />
  <g
     id="layer1"
     transform="translate(-41.511532,-71.189525)">
    <g
       id="g6564"
       transform="matrix(0.68227033,0,0,0.68227033,13.189445,22.619027)"
       style="stroke-width:1.46569">
      <path
         style="fill:#191919;fill-opacity:1;fill-rule:evenodd;stroke:none;stroke-width:0.517066"
         d="m 62.023631,91.278564 -2.732652,-2.757456 -6.150183,6.206684 -3.424425,-3.454742 6.151563,-6.205305 -2.735407,-2.760211 -8.917284,8.995833 8.89248,8.971033 z m 0,0"
         id="path6203" />
      <path
         style="fill:#191919;fill-opacity:1;fill-rule:evenodd;stroke:none;stroke-width:0.517066"
         d="M 64.781083,82.911116 53.162844,71.189521 41.511533,82.944189 l 0.0372,5.494238 11.564496,-11.667849 11.647181,11.753285 z m 0,0"
         id="path6205" />
      <path
         style="fill:#191919;fill-opacity:1;fill-rule:evenodd;stroke:none;stroke-width:0.517066"
         d="m 80.086953,78.608878 -1.408356,-0.363802 -1.237477,-0.225996 -1.384928,-0.124023 -0.746898,-0.01654 -0.635275,0.02067 -1.168576,0.16674 -1.030771,0.345888 -0.879189,0.595312 -0.722094,0.864031 -0.559481,1.189245 -0.378961,1.535138 -0.186037,1.960947 -0.02342,1.143772 0.02342,1.183735 0.06891,1.069358 0.279742,1.794203 0.454751,1.365638 0.620117,1.011477 1.241612,0.959115 1.030774,0.325219 1.179601,0.157095 0.643544,0.0193 0.770322,-0.0096 1.384928,-0.07304 1.19338,-0.15434 1.470367,-0.367933 v -2.378495 l -0.325215,0.04134 -0.373451,0.0372 -1.42489,0.09509 -1.273306,0.03168 -0.740008,0.0041 -0.595312,-0.0248 -1.3491,-0.372071 -0.790995,-1.000456 -0.276983,-1.114835 -0.13505,-1.595765 -0.01655,-0.981163 0.0096,-0.766191 0.08268,-1.303623 0.300412,-1.419381 0.740007,-1.09554 1.225074,-0.432704 0.806154,-0.05237 0.649054,0.0083 1.219564,0.06339 1.10381,0.107488 1.164441,0.176389 z m 0,0"
         id="path6207" />
      <path
         style="fill:#191919;fill-opacity:1;fill-rule:evenodd;stroke:none;stroke-width:0.517066"
         d="m 94.236651,85.763652 -0.0248,-1.182356 -0.07441,-1.065223 -0.294901,-1.777668 -0.366557,-1.085896 -0.811664,-1.313268 -0.884703,-0.70418 -0.604958,-0.283873 v 7.412464 l -0.0096,0.755167 -0.08268,1.293978 -0.289387,1.408356 -0.745518,1.110696 -1.260905,0.432707 -0.837848,0.04685 -0.454751,-0.01242 -1.11759,-0.176389 -0.992187,-0.749653 -0.442352,-1.061089 -0.203948,-1.609548 -0.03583,-1.438674 0.0097,-0.784101 0.08268,-1.324296 0.305926,-1.437295 0.770322,-1.101051 1.240236,-0.417544 0.837847,-0.04686 0.436838,0.01242 1.094161,0.176389 0.992188,0.728983 0.442351,1.063844 0.219107,1.642621 0.04134,1.486902 v -7.412464 l -1.090027,-0.29628 -1.373907,-0.157096 -0.762053,-0.0193 -0.760677,0.0193 -1.375283,0.157096 -1.171332,0.325218 -0.982542,0.57464 -0.795126,0.847496 -0.599447,1.19889 -0.402389,1.566831 -0.195682,2.013313 -0.0248,1.182356 0.0248,1.18236 0.07304,1.065223 0.294897,1.777668 0.507118,1.365635 0.691777,1.01286 0.884699,0.687641 1.080382,0.438214 1.277444,0.21911 1.473122,0.07304 0.752408,-0.0193 1.364259,-0.144692 1.187869,-0.315574 0.992188,-0.563615 0.786857,-0.836472 0.589802,-1.189245 0.39274,-1.558562 0.197058,-2.011934 z m 0,0"
         id="path6209" />
      <path
         style="fill:#191919;fill-opacity:1;fill-rule:evenodd;stroke:none;stroke-width:0.517066"
         d="M 108.53103,78.02459 H 105.4704 V 88.204158 L 99.059783,78.02459 h -2.462555 v 15.435407 h 3.082671 V 83.281808 l 6.389981,10.178189 h 2.46115 z m 0,0"
         id="path6211" />
      <path
         style="fill:#191919;fill-opacity:1;fill-rule:evenodd;stroke:none;stroke-width:0.517066"
         d="m 121.16901,78.296067 -1.18371,-0.104733 -1.84795,-0.09095 -1.17962,-0.04134 -1.09139,-0.02205 -1.31466,-0.01242 -0.40375,0.0193 -1.20993,0.293522 -1.05833,0.708314 -0.68901,1.278819 -0.13367,1.225074 v 11.910384 h 3.06063 V 87.5358 l 6.05921,-0.166741 v -2.440506 l -6.05921,-0.166744 v -2.648588 l 0.4947,-1.030774 0.78687,-0.199814 h 5.76982 z m 0,0"
         id="path6213" />
      <path
         style="fill:#191919;fill-opacity:1;fill-rule:evenodd;stroke:none;stroke-width:0.517066"
         d="m 132.37937,90.665337 h -4.83968 l -0.28663,-0.01792 -0.98528,-0.686262 -0.0937,-0.65181 V 78.024586 h -3.06059 v 11.784983 l 0.0565,0.919152 0.45615,1.408356 0.90812,0.853006 1.35459,0.417544 0.84476,0.05237 h 5.64582 z m 0,0"
         id="path6215" />
      <path
         style="fill:#191919;fill-opacity:1;fill-rule:evenodd;stroke:none;stroke-width:0.517066"
         d="m 145.62509,78.02459 h -3.08131 v 10.449666 l -0.0482,0.589798 -0.7166,1.204408 -1.48551,0.489201 -0.64491,0.03306 -0.65458,-0.03306 -1.07488,-0.260449 -0.99494,-0.937066 -0.19156,-1.085892 V 78.02459 h -3.06063 v 10.470335 l 0.0261,0.738628 0.21773,1.27193 0.43956,0.999077 1.01149,1.079006 1.38081,0.638031 1.08175,0.22462 1.18925,0.104729 0.62978,0.01379 0.62011,-0.01379 1.17959,-0.104729 1.08867,-0.22462 1.37252,-0.638031 1.01148,-1.079006 0.44785,-0.999077 0.22874,-1.27193 0.0275,-0.738628 z m 0,0"
         id="path6217" />
      <path
         style="fill:#191919;fill-opacity:1;fill-rule:evenodd;stroke:none;stroke-width:0.517066"
         d="m 159.89054,78.02459 h -3.37069 l -2.97794,5.277887 -3.26735,-5.277887 h -3.3927 l 4.75696,7.697724 -4.6936,7.737683 h 3.39135 l 2.91596,-5.152485 3.18463,5.152485 h 3.39136 l -4.6936,-7.570943 z m 0,0"
         id="path6219" />
    </g>
  </g>
</svg>
