<?xml version="1.0" encoding="UTF-8" standalone="no"?>
<!-- Generator: Adobe Illustrator 25.0.1, SVG Export Plug-In . SVG Version: 6.00 Build 0)  -->

<svg
   version="1.1"
   id="图层_1"
   x="0px"
   y="0px"
   viewBox="0 0 246.0108 75"
   xml:space="preserve"
   sodipodi:docname="gate.svg"
   width="246.0108"
   height="75"
   inkscape:version="1.1 (c4e8f9ed74, 2021-05-24)"
   xmlns:inkscape="http://www.inkscape.org/namespaces/inkscape"
   xmlns:sodipodi="http://sodipodi.sourceforge.net/DTD/sodipodi-0.dtd"
   xmlns="http://www.w3.org/2000/svg"
   xmlns:svg="http://www.w3.org/2000/svg"><defs
   id="defs24620" /><sodipodi:namedview
   id="namedview24618"
   pagecolor="#ffffff"
   bordercolor="#666666"
   borderopacity="1.0"
   inkscape:pageshadow="2"
   inkscape:pageopacity="0.0"
   inkscape:pagecheckerboard="0"
   showgrid="false"
   fit-margin-top="0"
   fit-margin-left="0"
   fit-margin-right="0"
   fit-margin-bottom="0"
   inkscape:zoom="0.63166667"
   inkscape:cx="786.01583"
   inkscape:cy="249.34037"
   inkscape:window-width="2560"
   inkscape:window-height="1381"
   inkscape:window-x="0"
   inkscape:window-y="0"
   inkscape:window-maximized="1"
   inkscape:current-layer="图层_1" />
<style
   type="text/css"
   id="style24609">
	.st0{fill:#DE5959;}
</style>
<g
   id="g24615"
   transform="matrix(0.14997001,0,0,0.14997001,-11.967607,-10.332934)"
   style="stroke-width:6.668">
	<path
   class="st0"
   d="m 275.7,315.1 -4.3,-4.4 c -3.3,-3.3 -8.9,-1 -8.9,3.7 v 62.3 c 0,2.9 2.4,5.2 5.2,5.2 H 330 c 4.6,0 7,-5.6 3.7,-8.9 -2,-2 -2,-5.3 0,-7.4 l 66.2,-66.4 c 2,-2 2,-5.3 0,-7.4 l -6,-6 c -3.3,-3.3 -0.9,-8.9 3.7,-8.9 h 62.2 c 2.9,0 5.2,2.3 5.2,5.2 v 62.3 c 0,4.6 -5.6,7 -8.9,3.7 l -4.2,-4.2 c -2.1,-2.1 -5.3,-2.1 -7.4,0 L 332.8,455.5 c -2,2 -5.3,2 -7.4,0 L 188.8,318.8 c -2,-2 -2.1,-5.3 0,-7.4 0,0 0,0 0,0 L 377.9,122.3 c 2,-2 2,-5.4 0,-7.4 L 333.4,70.4 c -2,-2 -5.3,-2 -7.4,0 L 81.3,315.3 c -2,2 -2,5.4 0,7.4 l 244.8,244.8 c 2,2 5.4,2 7.4,0 L 578.3,322.7 c 2,-2 2,-5.3 0,-7.4 l -144,-144 c -2,-2 -5.3,-2 -7.4,0 L 283.1,315.1 c -2,2 -5.3,2 -7.4,0 0,0 0,0 0,0 z m 1130,61.9 c -6.3,0 -11.8,2.3 -16.3,6.8 -4.5,4.6 -6.8,9.9 -6.8,16.1 0,9.5 4.8,16.9 14.4,22.1 10.5,2.9 18.9,1 25.2,-5.5 4.6,-4.6 6.8,-10.1 6.8,-16.5 0,-6.5 -2.3,-11.9 -6.8,-16.3 -4.6,-4.4 -10,-6.7 -16.5,-6.7 z m -372,-176 h -17.3 c -7.5,0 -13.5,6 -13.5,13.5 v 9.6 c -18.4,-19.1 -39.1,-28.6 -62.4,-28.6 -26.8,0 -49.2,10 -67,29.9 -17.9,19.9 -26.8,44.8 -26.8,74.6 0,30.4 8.9,55.7 26.7,76.1 18,19.9 40.8,29.9 68.3,29.9 21.8,0 42.2,-8.9 61.1,-26.6 v 19 c 0,9.2 7.5,16.8 16.7,16.8 H 1049 V 216.5 c 0.1,-8.5 -6.8,-15.5 -15.3,-15.5 z m -43.6,146.2 c -10.5,11.7 -24.3,17.6 -41.3,17.6 -16,0 -29.2,-6.1 -39.7,-18.2 -10.2,-12 -15.4,-27.6 -15.4,-46.6 0,-17.8 5.3,-32.9 15.8,-45 10.6,-12 23.9,-18 39.7,-18 16.8,0 30.4,5.9 40.9,17.8 10.5,12.1 15.8,27.5 15.8,46.2 -0.1,18.7 -5.4,34.1 -15.8,46.2 z M 846.7,234.6 v -19.7 c 0,-7.7 -6.2,-13.9 -13.9,-13.9 h -18.2 c -7.7,0 -13.9,6.2 -13.9,13.9 v 8.6 c -16.6,-18.7 -37.5,-28.1 -62.6,-28.1 -28.6,0 -51.7,10.8 -69.1,32.3 -16.2,20.3 -24.3,45 -24.3,74 0,29.9 8.7,54.8 26.2,74.6 17.3,19.7 39.5,29.4 66.7,29.4 23.8,0 44.9,-9.3 63.2,-28 v 27.8 c 0,41.3 -16.8,62 -50.5,62 -18.3,0 -32.2,-6.2 -41.7,-18.6 -2.4,-3.1 -4.5,-7.1 -6.1,-11.8 -2.3,-6.6 -8.5,-10.9 -15.4,-10.9 h -17.4 c -8.8,0 -15.3,8.4 -13.1,16.9 4.8,18.1 14,32.8 27.7,44.2 17.2,14.3 39.1,21.5 65.6,21.5 31.5,0 56.2,-10.4 74.2,-31.1 9.5,-10.8 15.9,-23.7 19.2,-38.7 1.1,-5.4 2,-11.8 2.6,-18.9 0.6,-7.1 0.9,-15.4 0.9,-24.8 v -28.9 c -12.9,-18.6 -19.4,-40.7 -19.4,-66.6 -0.1,-25.2 6.4,-46.9 19.3,-65.2 z m -58.3,111 c -10.2,12.8 -24.1,19.2 -41.7,19.2 -17.6,0 -31.4,-6.3 -41.3,-19 -9.1,-11.6 -13.7,-26.4 -13.7,-44.6 0,-18.4 4.6,-33.4 13.7,-45 10.1,-12.9 23.9,-19.4 41.3,-19.4 16.4,0 29.8,5.9 40.3,17.8 10.4,11.6 15.6,27.1 15.6,46.4 -0.1,18.1 -4.8,33 -14.2,44.6 z M 1229.2,201.2 V 201 h -95.4 v -58.4 c 0,-7.5 -6.1,-13.6 -13.6,-13.6 h -18.6 c -7.6,0 -13.8,6.2 -13.8,13.8 V 201 h -19.6 v 42.9 h 19.6 V 415 h 26.2 c 10.9,0 19.7,-8.8 19.8,-19.7 0,0 0,-0.1 0,-0.1 V 244 h 47.2 c 3.7,-7.1 8.3,-13.7 13.6,-19.7 9.7,-10.7 21.3,-18.4 34.6,-23.1 z M 1464,129 c -8.2,0 -15.2,2.9 -21,8.8 -5.8,5.9 -8.8,12.8 -8.8,20.9 0,8.5 2.9,15.6 8.8,21.5 5.9,5.9 13,8.8 21.3,8.8 8.3,0 15.3,-2.9 21,-8.8 5.9,-5.9 8.8,-12.9 8.8,-21.3 0,-8.3 -2.9,-15.3 -8.8,-21 -5.9,-6 -13,-8.9 -21.3,-8.9 z m 9.3,94.6 h -16.7 c -8.6,0 -15.5,6.9 -15.5,15.5 v 146.1 c 3.5,4.1 5.2,9 5.2,14.6 0,5.6 -1.7,10.6 -5.2,14.7 v 8.2 h 29.6 c 9.1,0 16.4,-7.4 16.4,-16.4 v -169 c 0,-7.6 -6.2,-13.7 -13.8,-13.7 z m 216.3,28.2 c -20.7,-20.3 -46,-30.5 -75.7,-30.5 -29.6,0 -54.7,10.1 -75.3,30.3 -20.6,20.2 -30.9,44.6 -30.9,73.4 0,30.5 10.1,55.9 30.3,76.1 20.2,20.4 45.2,30.7 75,30.7 30.1,0 55.6,-10 76.3,-30.1 20.5,-20.2 30.9,-45.2 30.9,-75.1 0,-29.6 -10.2,-54.5 -30.6,-74.8 z M 1657,373.3 c -10.7,11.6 -25.1,17.3 -43.1,17.3 -17.9,0 -32.3,-5.8 -43.2,-17.6 -10.6,-11.6 -16,-27.4 -16,-47.2 0,-18.5 5.5,-33.7 16.4,-45.4 10.9,-11.7 25.1,-17.6 42.7,-17.6 17.8,0 32.2,5.9 43.1,17.6 10.8,11.6 16.2,27.1 16.2,46.4 0.1,19.4 -5.3,34.8 -16.1,46.5 z"
   id="path24611"
   style="stroke-width:6.668" />
	<path
   class="st0"
   d="m 1246.3,365.2 c -9.5,-9.6 -14.8,-22.7 -16,-39 h 131.9 c 6,0 11,-4.8 11.1,-10.8 0,-32.9 -8.5,-58.6 -25.3,-77.1 -17.1,-18.7 -40.3,-28 -69.6,-28 -29,0 -52.3,9.6 -69.9,28.8 -17.5,19.5 -26.2,45 -26.2,76.5 0,31.8 9,57.3 27,76.5 12.6,13.4 28,22 46.2,26 7.7,1.8 15.6,2.7 23.6,2.6 32.8,0.7 61.3,1.4 94,2 v -4.8 c -4,-4.4 -6,-9.6 -6,-15.7 0,-6 2.1,-11.1 6.2,-15.5 v -5.8 c -25.9,-0.6 -88.5,-1.3 -91,-1.3 -14.5,0 -26.6,-4.8 -36,-14.4 z m -6.4,-92 c 2.9,-4.5 6.3,-8.3 10.3,-11.5 4,-3.2 8.5,-5.7 13.4,-7.4 4.9,-1.7 10.2,-2.6 15.8,-2.6 24.5,0 40,12.3 46.4,36.8 h -92.5 c 1.6,-5.7 3.8,-10.8 6.6,-15.3 z"
   id="path24613"
   style="stroke-width:6.668" />
</g>
</svg>
