<?xml version="1.0" encoding="UTF-8" standalone="no"?>
<svg
   width="404.51981"
   height="75.040222"
   viewBox="0 0 404.51981 75.040222"
   fill="none"
   version="1.1"
   id="svg5387"
   sodipodi:docname="mojitoswap.svg"
   inkscape:version="1.1 (c4e8f9ed74, 2021-05-24)"
   xmlns:inkscape="http://www.inkscape.org/namespaces/inkscape"
   xmlns:sodipodi="http://sodipodi.sourceforge.net/DTD/sodipodi-0.dtd"
   xmlns="http://www.w3.org/2000/svg"
   xmlns:svg="http://www.w3.org/2000/svg">
  <sodipodi:namedview
     id="namedview5389"
     pagecolor="#ffffff"
     bordercolor="#666666"
     borderopacity="1.0"
     inkscape:pageshadow="2"
     inkscape:pageopacity="0.0"
     inkscape:pagecheckerboard="0"
     showgrid="false"
     fit-margin-top="0"
     fit-margin-left="0"
     fit-margin-right="0"
     fit-margin-bottom="0"
     inkscape:zoom="1.1198718"
     inkscape:cx="-85.277619"
     inkscape:cy="130.81855"
     inkscape:window-width="2560"
     inkscape:window-height="1381"
     inkscape:window-x="0"
     inkscape:window-y="0"
     inkscape:window-maximized="1"
     inkscape:current-layer="svg5387" />
  <g
     id="g5483"
     transform="matrix(2.0900699,0,0,2.1607144,-1.3278648,-1.3727468)"
     style="stroke-width:0.470566">
    <circle
       cx="18"
       cy="18"
       r="16.799999"
       stroke="url(#paint0_linear)"
       stroke-width="1.12936"
       id="circle5351"
       style="stroke:url(#paint0_linear)" />
    <path
       d="m 26.6893,25.693 c -0.0475,0 -0.093,-0.0188 -0.1266,-0.0523 -0.0335,-0.0334 -0.0524,-0.0788 -0.0524,-0.1261 V 10.7173 c 8e-4,-0.2316 -0.0557,-0.4599 -0.1645,-0.6645 C 26.237,9.84809 26.0793,9.67331 25.8866,9.54386 25.6938,9.41441 25.4721,9.3343 25.2409,9.31061 25.0097,9.28692 24.7762,9.32039 24.561,9.40805 c -1.9379,0.79575 -3.7654,1.83575 -5.4379,3.09465 -3.4009,2.5632 -4.7935,5.7755 -4.7935,8.8381 0,3.0626 2.0388,4.2951 3.6927,4.2951 1.6539,0 3.7249,-1.443 3.7249,-4.2951 0,-2.8521 -0.7428,-4.0186 -1.7112,-5.6845 0.8989,-0.4778 1.8641,-0.8198 2.8639,-1.015 0.0698,-0.0139 0.1418,-0.0123 0.2109,0.0048 0.0691,0.0171 0.1335,0.0492 0.1886,0.094 0.0551,0.0449 0.0996,0.1014 0.1302,0.1654 0.0306,0.064 0.0465,0.134 0.0467,0.2049 V 25.693 c 0,0.3198 0.1275,0.6264 0.3544,0.8526 0.2269,0.2261 0.5347,0.3531 0.8556,0.3531 h 3.0215 V 25.693 Z m -8.6652,-0.6992 c -0.716,0 -1.8795,-0.9454 -1.8795,-3.4265 0,-2.481 1.5125,-4.1416 1.8956,-4.4003 0.3258,0.2301 1.8956,1.8889 1.8956,4.3986 0,2.5096 -1.1957,3.4282 -1.9117,3.4282 z m -3.0215,-9.8352 c -0.594,-0.26 -1.2181,-0.4457 -1.858,-0.5529 -0.0682,-0.0101 -0.1377,-0.0053 -0.2039,0.014 -0.0662,0.0193 -0.1274,0.0526 -0.1794,0.0977 -0.052,0.045 -0.0937,0.1008 -0.1221,0.1634 -0.0283,0.0626 -0.0428,0.1306 -0.0423,0.1993 V 25.693 c 0,0.3198 -0.1275,0.6264 -0.3544,0.8526 -0.2269,0.2261 -0.5347,0.3531 -0.8556,0.3531 H 8.29205 V 25.693 h 1.09904 c 0.04748,0 0.093,-0.0188 0.12657,-0.0523 0.03357,-0.0334 0.05243,-0.0788 0.05243,-0.1261 V 10.7351 c 1.4e-4,-0.2317 0.05753,-0.4597 0.1671,-0.6641 0.10957,-0.20429 0.26791,-0.37859 0.46111,-0.50746 0.1932,-0.12887 0.4153,-0.20835 0.6466,-0.23143 0.2314,-0.02307 0.4648,0.01097 0.6798,0.09913 2.0174,0.81146 3.911,1.89986 5.6259,3.23376 -0.8239,0.7325 -1.5463,1.5711 -2.148,2.4936 z"
       fill="url(#paint1_linear)"
       id="path5353"
       style="fill:url(#paint1_linear);stroke-width:0.221433" />
    <path
       d="m 103.277,25.9686 c 0,0.4821 -0.391,0.8729 -0.873,0.8729 h -2.4253 c -0.4821,0 -0.8729,-0.3908 -0.8729,-0.8729 V 14.724 c 0,-0.2462 -0.1995,-0.4457 -0.4457,-0.4457 h -1.3138 c -0.4554,0 -0.8245,-0.3691 -0.8245,-0.8244 0,-0.4554 0.3691,-0.8245 0.8245,-0.8245 h 1.3138 c 0.2462,0 0.4457,-0.1995 0.4457,-0.4457 V 8.27276 c 0,-0.48207 0.3908,-0.87286 0.8729,-0.87286 h 2.4253 c 0.482,0 0.873,0.39079 0.873,0.87286 v 3.91094 c 0,0.2462 0.2,0.4457 0.446,0.4457 h 3.036 c 0.456,0 0.825,0.3691 0.825,0.8245 0,0.4553 -0.369,0.8244 -0.825,0.8244 h -3.036 c -0.246,0 -0.446,0.1995 -0.446,0.4457 z"
       fill="#2e2e2e"
       id="path5355"
       style="stroke-width:0.221433" />
    <path
       fill-rule="evenodd"
       clip-rule="evenodd"
       d="m 80.7271,19.7047 c 0,0.7383 -0.0985,1.4314 -0.2953,2.0795 -0.1969,0.648 -0.4717,1.2469 -0.8245,1.7965 -0.3445,0.5496 -0.7629,1.0459 -1.2551,1.4889 -0.4921,0.4347 -1.0336,0.8039 -1.6242,1.1074 -0.5824,0.3035 -1.21,0.5373 -1.8826,0.7014 -0.6645,0.164 -1.3494,0.2461 -2.0549,0.2461 -0.7055,0 -1.3905,-0.0821 -2.0549,-0.2461 -0.6645,-0.1641 -1.292,-0.3979 -1.8826,-0.7014 -0.5825,-0.3035 -1.1198,-0.6727 -1.612,-1.1074 -0.4922,-0.443 -0.9146,-0.9393 -1.2674,-1.4889 -0.3445,-0.5496 -0.6152,-1.1485 -0.8121,-1.7965 -0.1969,-0.6563 -0.2953,-1.3494 -0.2953,-2.0795 0,-0.7301 0.0984,-1.4192 0.2953,-2.0672 0.1969,-0.6563 0.4676,-1.2592 0.8121,-1.8088 0.3528,-0.5496 0.7752,-1.0418 1.2674,-1.4766 0.4922,-0.443 1.0295,-0.8162 1.612,-1.1197 0.5906,-0.3035 1.2181,-0.5373 1.8826,-0.7014 0.6644,-0.1641 1.3494,-0.2461 2.0549,-0.2461 0.7055,0 1.3904,0.082 2.0549,0.2461 0.6726,0.1641 1.3002,0.3979 1.8826,0.7014 0.5906,0.3035 1.1321,0.6767 1.6242,1.1197 0.4922,0.4348 0.9106,0.927 1.2551,1.4766 0.3528,0.5496 0.6276,1.1525 0.8245,1.8088 0.1968,0.648 0.2953,1.3371 0.2953,2.0672 z m -4.2329,0 c 0,-0.3938 -0.0246,-0.808 -0.0738,-1.2428 -0.041,-0.443 -0.1149,-0.8736 -0.2215,-1.292 -0.1066,-0.4266 -0.2543,-0.8326 -0.443,-1.2182 -0.1804,-0.3937 -0.406,-0.7342 -0.6767,-1.0213 -0.2707,-0.2953 -0.5948,-0.5291 -0.9721,-0.7013 -0.3773,-0.1805 -0.8162,-0.2708 -1.3166,-0.2708 -0.4758,0 -0.8983,0.0903 -1.2674,0.2708 -0.3692,0.1804 -0.6932,0.4224 -0.9721,0.7259 -0.2707,0.2954 -0.5004,0.6399 -0.6891,1.0336 -0.1804,0.3938 -0.3281,0.804 -0.4429,1.2305 -0.1149,0.4184 -0.1969,0.8449 -0.2461,1.2797 -0.0492,0.4266 -0.0738,0.8285 -0.0738,1.2059 0,0.3773 0.0246,0.7834 0.0738,1.2182 0.0492,0.4265 0.1312,0.8531 0.2461,1.2797 0.1148,0.4265 0.2625,0.8367 0.4429,1.2304 0.1887,0.3856 0.4184,0.7301 0.6891,1.0336 0.2789,0.2953 0.6029,0.5332 0.9721,0.7137 0.3691,0.1805 0.7916,0.2707 1.2674,0.2707 0.4922,0 0.9269,-0.0861 1.3043,-0.2584 0.3773,-0.1805 0.7014,-0.4183 0.9721,-0.7137 0.2789,-0.2953 0.5086,-0.6357 0.689,-1.0213 0.1805,-0.3855 0.3241,-0.7916 0.4307,-1.2181 0.1148,-0.4266 0.1928,-0.8573 0.2338,-1.292 0.0492,-0.4348 0.0738,-0.8491 0.0738,-1.2428 z"
       fill="#2e2e2e"
       id="path5357"
       style="stroke-width:0.221433" />
    <path
       d="m 87.5685,22.7317 c 0,0.9761 -0.123,1.9687 -0.3691,2.9777 -0.2461,1.0008 -0.5948,1.9688 -1.0459,2.9039 -0.443,0.9434 -0.9762,1.8253 -1.5996,2.6456 -0.4851,0.6532 -1.0109,1.235 -1.5776,1.7454 -0.2724,0.2454 -0.6737,0.2692 -0.9873,0.0791 L 81.6996,32.908 c -0.4372,-0.265 -0.5513,-0.8465 -0.2952,-1.2889 0.2095,-0.362 0.4021,-0.7486 0.5778,-1.16 0.3117,-0.7219 0.5701,-1.4725 0.7752,-2.2518 0.2132,-0.7793 0.3732,-1.5627 0.4798,-2.3502 0.1067,-0.7957 0.16,-1.5504 0.16,-2.2641 V 13.5023 c 0,-0.4821 0.3908,-0.8729 0.8729,-0.8729 h 2.4256 c 0.482,0 0.8728,0.3908 0.8728,0.8729 z"
       fill="#2e2e2e"
       id="path5359"
       style="stroke-width:0.221433" />
    <path
       d="m 93.5572,26.8415 c 0.482,0 0.8728,-0.3908 0.8728,-0.8729 v -12.454 c 0,-0.4821 -0.3908,-0.8729 -0.8728,-0.8729 h -2.4256 c -0.4821,0 -0.8729,0.3908 -0.8729,0.8729 v 12.454 c 0,0.4821 0.3908,0.8729 0.8729,0.8729 z"
       fill="#2e2e2e"
       id="path5361"
       style="stroke-width:0.221433" />
    <path
       fill-rule="evenodd"
       clip-rule="evenodd"
       d="m 122.849,21.7842 c 0.197,-0.6481 0.296,-1.3412 0.296,-2.0795 0,-0.7301 -0.099,-1.4192 -0.296,-2.0672 -0.196,-0.6563 -0.471,-1.2592 -0.824,-1.8088 -0.344,-0.5496 -0.763,-1.0418 -1.255,-1.4766 -0.492,-0.443 -1.034,-0.8162 -1.624,-1.1197 -0.583,-0.3035 -1.21,-0.5373 -1.883,-0.7014 -0.664,-0.1641 -1.349,-0.2461 -2.055,-0.2461 -0.705,0 -1.39,0.082 -2.055,0.2461 -0.664,0.1641 -1.292,0.3979 -1.882,0.7014 -0.583,0.3035 -1.12,0.6767 -1.612,1.1197 -0.492,0.4348 -0.915,0.927 -1.268,1.4766 -0.344,0.5496 -0.615,1.1525 -0.812,1.8088 -0.197,0.648 -0.295,1.3371 -0.295,2.0672 0,0.7301 0.098,1.4232 0.295,2.0795 0.197,0.648 0.468,1.2469 0.812,1.7965 0.353,0.5496 0.776,1.0459 1.268,1.4889 0.492,0.4347 1.029,0.8039 1.612,1.1074 0.59,0.3035 1.218,0.5373 1.882,0.7014 0.665,0.164 1.35,0.2461 2.055,0.2461 0.706,0 1.391,-0.0821 2.055,-0.2461 0.673,-0.1641 1.3,-0.3979 1.883,-0.7014 0.59,-0.3035 1.132,-0.6727 1.624,-1.1074 0.492,-0.443 0.911,-0.9393 1.255,-1.4889 0.353,-0.5496 0.628,-1.1485 0.824,-1.7965 z m -4.011,-3.3223 c 0.049,0.4348 0.074,0.849 0.074,1.2428 0,0.3937 -0.025,0.808 -0.074,1.2428 -0.041,0.4347 -0.119,0.8654 -0.234,1.292 -0.106,0.4265 -0.25,0.8326 -0.43,1.2181 -0.181,0.3856 -0.41,0.726 -0.689,1.0213 -0.271,0.2954 -0.595,0.5332 -0.972,0.7137 -0.378,0.1723 -0.813,0.2584 -1.305,0.2584 -0.476,0 -0.898,-0.0902 -1.267,-0.2707 -0.369,-0.1805 -0.693,-0.4184 -0.972,-0.7137 -0.271,-0.3035 -0.501,-0.648 -0.689,-1.0336 -0.181,-0.3937 -0.328,-0.8039 -0.443,-1.2304 -0.115,-0.4266 -0.197,-0.8532 -0.246,-1.2797 -0.05,-0.4348 -0.074,-0.8409 -0.074,-1.2182 0,-0.3774 0.024,-0.7793 0.074,-1.2059 0.049,-0.4348 0.131,-0.8613 0.246,-1.2797 0.115,-0.4265 0.262,-0.8367 0.443,-1.2305 0.188,-0.3937 0.418,-0.7382 0.689,-1.0336 0.279,-0.3035 0.603,-0.5455 0.972,-0.7259 0.369,-0.1805 0.791,-0.2708 1.267,-0.2708 0.501,0 0.939,0.0903 1.317,0.2708 0.377,0.1722 0.701,0.406 0.972,0.7013 0.271,0.2871 0.496,0.6276 0.677,1.0213 0.188,0.3856 0.336,0.7916 0.443,1.2182 0.106,0.4184 0.18,0.849 0.221,1.292 z"
       fill="#2e2e2e"
       id="path5363"
       style="stroke-width:0.221433" />
    <path
       d="m 140.988,21.4274 c 0,0.7628 -0.098,1.4355 -0.295,2.0179 -0.189,0.5825 -0.459,1.087 -0.812,1.5135 -0.345,0.4266 -0.755,0.7834 -1.231,1.0705 -0.475,0.2872 -0.996,0.5168 -1.562,0.6891 -0.558,0.1723 -1.153,0.2953 -1.784,0.3692 -0.624,0.0738 -1.26,0.1107 -1.908,0.1107 -0.853,0 -1.64,-0.0656 -2.362,-0.1969 -0.722,-0.123 -1.403,-0.3199 -2.043,-0.5906 -0.631,-0.2789 -1.243,-0.6358 -1.833,-1.0705 -0.387,-0.2886 -0.773,-0.6188 -1.16,-0.9905 -0.337,-0.3244 -0.328,-0.86 0,-1.1934 l 0.991,-1.0053 c 0.441,-0.447 1.205,-0.2964 1.565,0.2179 0.098,0.1404 0.203,0.2777 0.314,0.4119 0.402,0.4758 0.841,0.8859 1.317,1.2305 0.484,0.3445 0.984,0.6152 1.501,0.8121 0.517,0.1968 1.005,0.2953 1.464,0.2953 0.542,0 1.05,-0.0369 1.526,-0.1108 0.476,-0.082 0.89,-0.2132 1.243,-0.3937 0.353,-0.1805 0.627,-0.4184 0.824,-0.7137 0.205,-0.3035 0.308,-0.6809 0.308,-1.132 0,-0.3446 -0.078,-0.6399 -0.234,-0.886 -0.156,-0.2461 -0.361,-0.4552 -0.615,-0.6275 -0.246,-0.1805 -0.529,-0.3322 -0.849,-0.4553 -0.32,-0.123 -0.648,-0.2256 -0.985,-0.3076 -0.328,-0.0902 -0.652,-0.1682 -0.972,-0.2338 -0.32,-0.0738 -0.603,-0.1477 -0.849,-0.2215 -0.484,-0.1394 -0.988,-0.2871 -1.513,-0.443 -0.525,-0.164 -1.042,-0.3486 -1.551,-0.5537 -0.508,-0.2051 -0.992,-0.4388 -1.452,-0.7013 -0.451,-0.2708 -0.849,-0.5866 -1.193,-0.9475 -0.345,-0.3692 -0.619,-0.7916 -0.825,-1.2674 -0.205,-0.484 -0.307,-1.0377 -0.307,-1.6612 0,-0.7464 0.09,-1.4068 0.271,-1.981 0.188,-0.5824 0.451,-1.0869 0.787,-1.5135 0.336,-0.4266 0.734,-0.7834 1.194,-1.07053 0.459,-0.29531 0.963,-0.5291 1.513,-0.70137 0.55,-0.18047 1.132,-0.30762 1.747,-0.38145 0.624,-0.08203 1.26,-0.12305 1.908,-0.12305 0.886,0 1.689,0.08204 2.411,0.2461 0.73,0.16406 1.403,0.39785 2.018,0.70137 0.616,0.30352 1.177,0.66853 1.686,1.09513 0.312,0.2524 0.612,0.5227 0.9,0.8109 0.322,0.3231 0.304,0.8433 -0.016,1.1686 l -0.943,0.9562 c -0.457,0.4641 -1.256,0.2796 -1.606,-0.2698 -0.069,-0.1079 -0.142,-0.2131 -0.218,-0.3157 -0.344,-0.4758 -0.73,-0.8818 -1.156,-1.2182 -0.427,-0.3445 -0.874,-0.607 -1.341,-0.7875 -0.468,-0.1886 -0.919,-0.283 -1.354,-0.283 -0.566,0 -1.087,0.041 -1.563,0.1231 -0.475,0.0738 -0.886,0.2009 -1.23,0.3814 -0.336,0.1723 -0.599,0.4102 -0.788,0.7137 -0.188,0.2953 -0.283,0.6645 -0.283,1.1074 0,0.3528 0.07,0.6522 0.21,0.8983 0.139,0.2461 0.324,0.4553 0.553,0.6275 0.238,0.1723 0.505,0.3158 0.8,0.4307 0.295,0.1066 0.599,0.201 0.911,0.283 0.32,0.082 0.631,0.1559 0.935,0.2215 0.312,0.0574 0.595,0.123 0.849,0.1969 0.492,0.1394 1.009,0.2871 1.55,0.4429 0.542,0.1559 1.075,0.3405 1.6,0.5537 0.525,0.2051 1.025,0.443 1.501,0.7137 0.476,0.2707 0.894,0.5948 1.255,0.9721 0.361,0.3691 0.648,0.7998 0.861,1.292 0.214,0.484 0.32,1.0418 0.32,1.6735 z"
       fill="#2e2e2e"
       id="path5365"
       style="stroke-width:0.221433" />
    <path
       fill-rule="evenodd"
       clip-rule="evenodd"
       d="m 175.505,26.8415 c 0.482,0 0.872,-0.3908 0.872,-0.8729 V 13.5023 c 0,-0.4821 -0.39,-0.8729 -0.872,-0.8729 h -0.232 c -0.307,0 -0.592,0.1615 -0.749,0.4251 l -0.858,1.4358 c -0.291,0.487 -1.056,0.4219 -1.385,-0.0403 -0.032,-0.0455 -0.066,-0.0904 -0.1,-0.1348 -0.311,-0.4266 -0.676,-0.7875 -1.095,-1.0828 -0.41,-0.3035 -0.865,-0.5373 -1.365,-0.7014 -0.493,-0.1641 -1.014,-0.2461 -1.563,-0.2461 -1.083,0 -2.051,0.1928 -2.904,0.5783 -0.853,0.3856 -1.575,0.9147 -2.166,1.5873 -0.59,0.6645 -1.042,1.4479 -1.353,2.3503 -0.312,0.9023 -0.468,1.8703 -0.468,2.9039 0,1.0336 0.156,2.0016 0.468,2.9039 0.311,0.9024 0.763,1.6899 1.353,2.3625 0.591,0.6645 1.313,1.1895 2.166,1.575 0.853,0.3856 1.821,0.5784 2.904,0.5784 0.828,0 1.587,-0.16 2.276,-0.4799 0.352,-0.1658 0.679,-0.3755 0.978,-0.6292 0.288,-0.2429 0.806,-0.0579 0.806,0.3182 0,0.2805 0.228,0.5079 0.508,0.5079 z m -3.373,-8.3058 c 0.041,0.4102 0.062,0.7998 0.062,1.169 0,0.3281 -0.025,0.6932 -0.074,1.0951 -0.049,0.3938 -0.127,0.7916 -0.234,1.1936 -0.106,0.4019 -0.246,0.7916 -0.418,1.1689 -0.172,0.3774 -0.386,0.7137 -0.64,1.009 -0.246,0.2953 -0.537,0.5332 -0.874,0.7137 -0.328,0.1723 -0.705,0.2584 -1.132,0.2584 -0.467,0 -0.873,-0.082 -1.218,-0.2461 -0.344,-0.1723 -0.64,-0.3979 -0.886,-0.6768 -0.246,-0.2871 -0.451,-0.6152 -0.615,-0.9843 -0.156,-0.3692 -0.279,-0.7547 -0.369,-1.1567 -0.09,-0.402 -0.156,-0.808 -0.197,-1.2182 -0.033,-0.4101 -0.049,-0.7957 -0.049,-1.1566 0,-0.361 0.016,-0.7424 0.049,-1.1444 0.041,-0.4101 0.107,-0.8162 0.197,-1.2181 0.09,-0.402 0.213,-0.7875 0.369,-1.1567 0.164,-0.3691 0.369,-0.6932 0.615,-0.9721 0.246,-0.2871 0.542,-0.5127 0.886,-0.6767 0.345,-0.1723 0.751,-0.2584 1.218,-0.2584 0.468,0 0.878,0.082 1.231,0.2461 0.353,0.164 0.652,0.3896 0.898,0.6767 0.254,0.2789 0.459,0.603 0.615,0.9721 0.164,0.361 0.291,0.7424 0.382,1.1444 0.09,0.4019 0.151,0.808 0.184,1.2181 z"
       fill="#2e2e2e"
       id="path5367"
       style="stroke-width:0.221433" />
    <path
       fill-rule="evenodd"
       clip-rule="evenodd"
       d="m 194.179,19.7047 c 0,1.0336 -0.156,2.0016 -0.468,2.9039 -0.312,0.9024 -0.763,1.6899 -1.354,2.3625 -0.59,0.6645 -1.312,1.1895 -2.165,1.575 -0.853,0.3856 -1.821,0.5784 -2.904,0.5784 -0.829,0 -1.592,-0.16 -2.289,-0.4799 -0.091,-0.0432 -0.179,-0.0894 -0.267,-0.1385 -0.563,-0.3173 -1.505,0.0367 -1.505,0.6832 v 5.3377 c 0,0.4821 -0.391,0.8729 -0.873,0.8729 h -2.413 c -0.482,0 -0.873,-0.3908 -0.873,-0.8729 V 13.5023 c 0,-0.4821 0.391,-0.8729 0.873,-0.8729 h 0.232 c 0.307,0 0.591,0.1615 0.749,0.4251 l 0.858,1.4358 c 0.291,0.487 1.054,0.4214 1.378,-0.0443 0.03,-0.0441 0.062,-0.0877 0.094,-0.1308 0.32,-0.4266 0.685,-0.7875 1.095,-1.0828 0.418,-0.3035 0.874,-0.5373 1.366,-0.7014 0.5,-0.1641 1.025,-0.2461 1.575,-0.2461 1.083,0 2.051,0.1928 2.904,0.5783 0.853,0.3856 1.575,0.9147 2.165,1.5873 0.591,0.6645 1.042,1.4479 1.354,2.3503 0.312,0.9023 0.468,1.8703 0.468,2.9039 z m -4.221,0 c 0,-0.361 -0.021,-0.7424 -0.062,-1.1444 -0.032,-0.4101 -0.094,-0.8162 -0.184,-1.2181 -0.09,-0.402 -0.217,-0.7875 -0.382,-1.1567 -0.155,-0.3691 -0.356,-0.6932 -0.603,-0.9721 -0.246,-0.2871 -0.545,-0.5127 -0.898,-0.6767 -0.344,-0.1723 -0.746,-0.2584 -1.206,-0.2584 -0.475,0 -0.89,0.082 -1.242,0.2461 -0.345,0.164 -0.644,0.3896 -0.899,0.6767 -0.246,0.2789 -0.451,0.603 -0.615,0.9721 -0.156,0.361 -0.279,0.7424 -0.369,1.1444 -0.09,0.4019 -0.156,0.808 -0.197,1.2181 -0.033,0.4102 -0.049,0.7998 -0.049,1.169 0,0.3281 0.024,0.6932 0.074,1.0951 0.049,0.3938 0.127,0.7916 0.233,1.1936 0.107,0.4019 0.247,0.7916 0.419,1.1689 0.172,0.3774 0.381,0.7137 0.627,1.009 0.255,0.2953 0.546,0.5332 0.874,0.7137 0.336,0.1723 0.718,0.2584 1.144,0.2584 0.468,0 0.874,-0.082 1.219,-0.2461 0.344,-0.1723 0.639,-0.3979 0.885,-0.6768 0.247,-0.2871 0.448,-0.6152 0.603,-0.9843 0.165,-0.3692 0.292,-0.7547 0.382,-1.1567 0.09,-0.402 0.152,-0.808 0.184,-1.2182 0.041,-0.4101 0.062,-0.7957 0.062,-1.1566 z"
       fill="#2e2e2e"
       id="path5369"
       style="stroke-width:0.221433" />
    <path
       d="m 60.4065,8.80151 c -0.5294,-0.00177 -1.0397,0.19883 -1.427,0.56101 l -0.0278,0.0244 c -0.0371,0.03455 -0.0701,0.07112 -0.1022,0.10663 -0.01,0.01105 -0.0198,0.02199 -0.0297,0.03273 -0.0101,0.0084 -0.0194,0.01774 -0.0278,0.02789 -0.0559,0.06588 -0.107,0.13575 -0.1528,0.20906 L 54.5457,15.3977 50.3584,9.64825 V 9.63082 C 50.0933,9.26894 49.7204,9.00111 49.2936,8.86612 48.8668,8.73113 48.4083,8.73599 47.9844,8.87998 47.5605,9.02398 47.1933,9.29965 46.936,9.66706 46.6786,10.0345 46.5445,10.4745 46.553,10.9236 v 15.366 c 0,0.4821 0.3908,0.8729 0.8728,0.8729 h 2.4729 c 0.4821,0 0.8728,-0.3908 0.8728,-0.8729 V 14.4081 l 2.8089,3.7423 c 0.1123,0.1494 0.2576,0.2706 0.4245,0.354 0.1669,0.0834 0.3508,0.1269 0.5373,0.1269 0.1864,0 0.3704,-0.0435 0.5373,-0.1269 0.1668,-0.0834 0.3122,-0.2046 0.4245,-0.354 l 2.7776,-3.7249 v 11.8676 c 0,0.4821 0.3908,0.8729 0.8729,0.8729 h 2.4902 c 0.482,0 0.8728,-0.3908 0.8728,-0.8729 V 10.9236 c 9e-4,-0.2787 -0.053,-0.5547 -0.1587,-0.8124 C 62.253,9.85356 62.0976,9.61943 61.9015,9.42224 61.7053,9.22506 61.4723,9.06871 61.2157,8.96218 60.9591,8.85566 60.6841,8.80104 60.4065,8.80151 Z"
       fill="#2e2e2e"
       id="path5371"
       style="stroke-width:0.221433" />
    <path
       d="m 147.102,26.4846 c -0.367,0.3455 -0.85,0.5369 -1.351,0.5352 -0.263,4e-4 -0.524,-0.0517 -0.767,-0.1533 -0.243,-0.1016 -0.463,-0.2508 -0.649,-0.4389 -0.186,-0.1881 -0.333,-0.4114 -0.433,-0.6572 -0.1,-0.2458 -0.151,-0.5091 -0.151,-0.7749 V 13.4342 c 0,-0.4821 0.391,-0.8729 0.873,-0.8729 h 2.266 c 0.482,0 0.873,0.3908 0.873,0.8729 v 8.2207 l 2.631,-3.5534 c 0.106,-0.1425 0.244,-0.2581 0.402,-0.3377 0.158,-0.0796 0.332,-0.121 0.509,-0.121 0.176,0 0.351,0.0414 0.509,0.121 0.158,0.0796 0.295,0.1952 0.402,0.3377 l 2.66,3.57 v -8.234 c 0,-0.482 0.391,-0.8728 0.873,-0.8728 h 2.249 c 0.482,0 0.873,0.3908 0.873,0.8728 v 11.558 c 0.008,0.4283 -0.119,0.8481 -0.363,1.1986 -0.243,0.3505 -0.591,0.6135 -0.992,0.7508 -0.402,0.1374 -0.836,0.142 -1.24,0.0133 -0.405,-0.1288 -0.758,-0.3843 -1.009,-0.7295 V 26.212 l -3.966,-5.4846 -3.876,5.375 c -0.044,0.0699 -0.092,0.1365 -0.145,0.1994 -0.008,0.0097 -0.017,0.0186 -0.026,0.0266 -0.01,0.0102 -0.019,0.0207 -0.029,0.0312 -0.03,0.0339 -0.061,0.0688 -0.096,0.1017 z"
       fill="#2e2e2e"
       id="path5373"
       style="stroke-width:0.221433" />
  </g>
  <defs
     id="defs5385">
    <linearGradient
       id="paint0_linear"
       x1="32.079201"
       y1="3.3861401"
       x2="4.8118801"
       y2="34.0396"
       gradientUnits="userSpaceOnUse">
      <stop
         stop-color="#16D6A1"
         id="stop5375" />
      <stop
         offset="1"
         stop-color="#0BC6DA"
         id="stop5377" />
    </linearGradient>
    <linearGradient
       id="paint1_linear"
       x1="8.2920504"
       y1="27.91"
       x2="28.451099"
       y2="9.2323198"
       gradientUnits="userSpaceOnUse">
      <stop
         stop-color="#0AC4DD"
         id="stop5380" />
      <stop
         offset="1"
         stop-color="#18D995"
         id="stop5382" />
    </linearGradient>
  </defs>
</svg>
