<svg xmlns="http://www.w3.org/2000/svg" fill="none" viewBox="0 0 764 600"><path fill="#3F5878" d="M462.584 568.241c-5.94 0-11.311-1.015-16.112-3.044-4.719-2.029-8.463-4.951-11.229-8.766-2.767-3.815-4.191-8.32-4.272-13.515h18.309c.244 3.49 1.464 6.25 3.661 8.279 2.279 2.029 5.371 3.044 9.277 3.044 3.987 0 7.12-.934 9.398-2.8 2.279-1.948 3.418-4.465 3.418-7.549 0-2.516-.773-4.586-2.319-6.21-1.546-1.623-3.499-2.881-5.859-3.774-2.279-.974-5.452-2.029-9.521-3.166-5.533-1.623-10.049-3.206-13.548-4.748-3.418-1.624-6.388-4.018-8.91-7.184-2.442-3.247-3.662-7.549-3.662-12.906 0-5.032 1.261-9.415 3.784-13.149 2.522-3.734 6.062-6.575 10.619-8.523 4.557-2.029 9.764-3.044 15.623-3.044 8.788 0 15.909 2.151 21.36 6.453 5.534 4.221 8.585 10.146 9.155 17.776h-18.797c-.163-2.922-1.424-5.316-3.784-7.183-2.278-1.948-5.33-2.922-9.154-2.922-3.337 0-6.022.852-8.056 2.556-1.953 1.705-2.93 4.181-2.93 7.427 0 2.273.733 4.181 2.197 5.723 1.546 1.461 3.418 2.679 5.615 3.653 2.279.892 5.452 1.948 9.521 3.165 5.533 1.624 10.049 3.247 13.548 4.87 3.499 1.624 6.51 4.059 9.032 7.306 2.523 3.247 3.784 7.508 3.784 12.784 0 4.546-1.18 8.766-3.539 12.662-2.36 3.897-5.818 7.022-10.375 9.376-4.557 2.272-9.968 3.409-16.234 3.409ZM601.288 499.936l-19.773 67.452h-18.431l-12.328-47.119-12.328 47.119h-18.553l-19.895-67.452h17.332l11.962 51.381 12.938-51.381h18.064l12.695 51.259 11.961-51.259h16.356ZM606.14 533.419c0-6.818 1.343-12.866 4.028-18.142 2.767-5.276 6.469-9.334 11.107-12.175 4.72-2.841 9.968-4.262 15.746-4.262 5.045 0 9.439 1.015 13.182 3.044 3.825 2.03 6.876 4.586 9.154 7.671v-9.619h17.211v67.452h-17.211v-9.862c-2.197 3.166-5.248 5.804-9.154 7.914-3.824 2.03-8.259 3.044-13.304 3.044-5.696 0-10.904-1.461-15.624-4.383-4.638-2.922-8.34-7.021-11.107-12.297-2.685-5.357-4.028-11.486-4.028-18.385Zm53.217.243c0-4.139-.813-7.67-2.441-10.592-1.627-3.004-3.824-5.276-6.591-6.819-2.767-1.623-5.737-2.435-8.91-2.435-3.174 0-6.103.771-8.788 2.314-2.686 1.542-4.883 3.815-6.592 6.818-1.627 2.922-2.441 6.412-2.441 10.471 0 4.058.814 7.63 2.441 10.714 1.709 3.004 3.906 5.317 6.592 6.94 2.766 1.624 5.696 2.435 8.788 2.435 3.173 0 6.143-.771 8.91-2.313 2.767-1.623 4.964-3.896 6.591-6.818 1.628-3.003 2.441-6.575 2.441-10.715ZM710.345 509.677c2.198-3.085 5.208-5.642 9.033-7.671 3.906-2.11 8.34-3.166 13.304-3.166 5.778 0 10.985 1.421 15.624 4.262 4.719 2.841 8.422 6.899 11.107 12.175 2.767 5.195 4.15 11.242 4.15 18.142 0 6.899-1.383 13.028-4.15 18.385-2.685 5.276-6.388 9.375-11.107 12.297-4.639 2.922-9.846 4.383-15.624 4.383-4.964 0-9.358-1.014-13.182-3.044-3.743-2.029-6.795-4.586-9.155-7.67v41.762h-17.088v-99.596h17.088v9.741Zm35.764 23.742c0-4.059-.855-7.549-2.564-10.471-1.627-3.003-3.824-5.276-6.591-6.818-2.685-1.543-5.614-2.314-8.788-2.314-3.092 0-6.021.812-8.788 2.435-2.685 1.543-4.882 3.815-6.591 6.819-1.628 3.003-2.442 6.534-2.442 10.592 0 4.059.814 7.59 2.442 10.593 1.709 3.003 3.906 5.317 6.591 6.94 2.767 1.542 5.696 2.313 8.788 2.313 3.174 0 6.103-.811 8.788-2.435 2.767-1.623 4.964-3.936 6.591-6.94 1.709-3.003 2.564-6.574 2.564-10.714ZM32.073 568.008c-5.945 0-11.319-1.022-16.123-3.066-4.723-2.045-8.469-4.989-11.237-8.832-2.769-3.843-4.194-8.382-4.275-13.615h18.321c.244 3.516 1.466 6.296 3.664 8.341 2.28 2.044 5.375 3.066 9.283 3.066 3.99 0 7.125-.94 9.405-2.821 2.28-1.963 3.42-4.498 3.42-7.605 0-2.535-.773-4.62-2.321-6.256-1.547-1.635-3.501-2.903-5.862-3.802-2.28-.981-5.456-2.044-9.528-3.189-5.537-1.636-10.056-3.23-13.557-4.784-3.42-1.635-6.393-4.048-8.917-7.237-2.443-3.271-3.664-7.605-3.664-13.002 0-5.07 1.262-9.486 3.786-13.247 2.525-3.762 6.067-6.624 10.627-8.586 4.56-2.045 9.771-3.067 15.634-3.067 8.794 0 15.919 2.167 21.375 6.501 5.537 4.252 8.591 10.222 9.161 17.908h-18.81c-.163-2.943-1.425-5.356-3.787-7.236-2.28-1.963-5.333-2.944-9.16-2.944-3.339 0-6.026.858-8.062 2.576-1.954 1.717-2.931 4.211-2.931 7.482 0 2.289.733 4.211 2.198 5.765 1.547 1.472 3.42 2.698 5.619 3.68 2.28.899 5.456 1.962 9.527 3.189 5.537 1.635 10.056 3.271 13.558 4.906 3.501 1.636 6.514 4.089 9.038 7.36 2.525 3.271 3.787 7.564 3.787 12.879 0 4.579-1.181 8.832-3.542 12.757-2.362 3.925-5.822 7.073-10.382 9.445-4.56 2.289-9.975 3.434-16.245 3.434ZM85.739 491.1c-3.013 0-5.537-.94-7.573-2.821-1.954-1.963-2.931-4.375-2.931-7.237s.977-5.233 2.931-7.114c2.036-1.963 4.56-2.944 7.573-2.944 3.013 0 5.497.981 7.451 2.944 2.036 1.881 3.053 4.252 3.053 7.114s-1.017 5.274-3.053 7.237c-1.954 1.881-4.438 2.821-7.451 2.821Zm8.428 8.096v67.954h-17.1v-67.954h17.1ZM195.096 498.214c8.306 0 14.983 2.576 20.032 7.728 5.13 5.07 7.695 12.184 7.695 21.343v39.865h-17.1v-37.535c0-5.315-1.344-9.363-4.031-12.143-2.687-2.862-6.352-4.293-10.993-4.293s-8.346 1.431-11.115 4.293c-2.687 2.78-4.031 6.828-4.031 12.143v37.535h-17.1v-37.535c0-5.315-1.343-9.363-4.03-12.143-2.688-2.862-6.352-4.293-10.993-4.293-4.723 0-8.469 1.431-11.237 4.293-2.688 2.78-4.031 6.828-4.031 12.143v37.535h-17.1v-67.954h17.1v8.218c2.198-2.862 5.008-5.111 8.428-6.746 3.501-1.636 7.328-2.454 11.481-2.454 5.293 0 10.016 1.145 14.169 3.435 4.153 2.208 7.369 5.397 9.649 9.567 2.199-3.925 5.374-7.073 9.527-9.444 4.234-2.372 8.794-3.558 13.68-3.558ZM256.149 509.009c2.199-3.108 5.212-5.684 9.039-7.728 3.909-2.126 8.347-3.189 13.314-3.189 5.781 0 10.993 1.431 15.634 4.293 4.723 2.862 8.428 6.951 11.115 12.266 2.769 5.233 4.153 11.326 4.153 18.276 0 6.951-1.384 13.125-4.153 18.522-2.687 5.315-6.392 9.445-11.115 12.389-4.641 2.944-9.853 4.415-15.634 4.415-4.967 0-9.365-1.022-13.192-3.066-3.746-2.044-6.799-4.62-9.161-7.728v42.073h-17.1V499.196h17.1v9.813Zm35.788 23.918c0-4.088-.855-7.605-2.565-10.548-1.628-3.026-3.827-5.316-6.595-6.869-2.687-1.554-5.619-2.331-8.795-2.331-3.094 0-6.025.818-8.794 2.453-2.687 1.554-4.886 3.844-6.596 6.869-1.628 3.026-2.443 6.583-2.443 10.672 0 4.088.815 7.645 2.443 10.671 1.71 3.026 3.909 5.356 6.596 6.992 2.769 1.553 5.7 2.33 8.794 2.33 3.176 0 6.108-.817 8.795-2.453 2.768-1.635 4.967-3.966 6.595-6.992 1.71-3.025 2.565-6.623 2.565-10.794ZM338.93 476.381v90.769h-17.1v-90.769h17.1ZM418.728 531.701c0 2.453-.162 4.661-.488 6.623h-49.468c.407 4.907 2.117 8.75 5.13 11.53 3.013 2.781 6.718 4.171 11.115 4.171 6.351 0 10.871-2.74 13.558-8.218h18.443c-1.954 6.542-5.7 11.939-11.237 16.191-5.537 4.17-12.336 6.255-20.398 6.255-6.514 0-12.377-1.431-17.588-4.293-5.13-2.943-9.161-7.073-12.092-12.388-2.85-5.316-4.275-11.449-4.275-18.399 0-7.033 1.425-13.207 4.275-18.522 2.85-5.315 6.84-9.404 11.97-12.266 5.13-2.862 11.033-4.293 17.71-4.293 6.433 0 12.174 1.39 17.223 4.17 5.13 2.781 9.079 6.747 11.847 11.898 2.85 5.07 4.275 10.917 4.275 17.541Zm-17.71-4.907c-.082-4.415-1.67-7.932-4.764-10.548-3.094-2.699-6.881-4.048-11.359-4.048-4.234 0-7.817 1.308-10.749 3.925-2.85 2.535-4.6 6.092-5.252 10.671h32.124Z"/><mask id="a" width="330" height="371" x="217" y="0" maskUnits="userSpaceOnUse" style="mask-type:luminance"><path fill="#fff" d="M546.428.599H217.574v370.233h328.854V.599Z"/></mask><g mask="url(#a)"><path fill="#104ADE" d="M286.388 278.215a65.05 65.05 0 0 0-.88 1.94 63.323 63.323 0 0 0-5.257 25.227 63.323 63.323 0 0 0 5.257 25.227c3.47 7.998 8.557 15.265 14.97 21.386 6.412 6.122 14.024 10.978 22.402 14.291a71.912 71.912 0 0 0 26.426 5.018 71.908 71.908 0 0 0 26.426-5.018c8.378-3.313 15.991-8.169 22.403-14.291l127.073-121.299c13.238-12.639 20.675-29.78 20.675-47.653 0-16.054-5.205-31.522-16.572-43.659-5.61-2.313-11.811-3.023-17.815-1.947-5.37.963-10.294 4.007-14.392 7.582L376.388 263.286a30.06 30.06 0 0 1-7.619 5.445c1.481-.87 2.941-1.778 4.379-2.724-.122.048-.245.095-.368.141l.359-.232.369-.241c-.242.159-.485.316-.728.473-18.296 11.757-40.13 17.476-62.165 16.267a105.253 105.253 0 0 1-24.227-4.2Z"/><path fill="#0038C7" d="M372.779 266.148c.244-.157.486-.314.729-.473a31.296 31.296 0 0 1-14.645 1.915c-4.972-.538-9.724-2.256-13.823-4.997a29.787 29.787 0 0 1-8.89-9.292 28.307 28.307 0 0 1-3.974-12 28.015 28.015 0 0 1 1.677-12.483c1.502-3.995 3.897-7.63 7.019-10.653l40.182-38.693 58.684-56.021.248-.203c.164-.135.328-.271.502-.398l8.832-8.437c4.32-.852 8.888-1.218 13.653-1.218 10.321 0 19.1.963 27.85 3.379 12.728 2.624 24.437 8.714 33.694 17.588a72.03 72.03 0 0 1 4.918 5.274c-5.642-2.354-11.891-3.082-17.94-1.998-5.37.962-10.293 4.006-14.392 7.581L376.387 263.286a30.035 30.035 0 0 1-7.619 5.445c1.481-.87 2.942-1.778 4.38-2.724l-.369.141Z"/><path fill="#0F75FC" d="M470.174 41.15c-3.217-7.413-7.935-14.148-13.883-19.819-6.88-6.572-15.049-11.786-24.04-15.344A77.15 77.15 0 0 0 403.889.599a77.15 77.15 0 0 0-28.362 5.388c-8.991 3.558-17.16 8.772-24.04 15.344L246.864 121.18c-18.371 17.537-28.871 41.212-29.278 66.01-.406 24.799 9.312 48.775 27.099 66.854l1.089 1.011 1.13 1.116c1.029.966 2.11 1.88 3.238 2.739 16.874 14.013 38.144 22.281 60.472 23.505 22.328 1.225 44.45-4.663 62.894-16.74a31.296 31.296 0 0 1-14.645 1.915c-4.972-.539-9.724-2.256-13.823-4.997-3.635-2.445-6.668-5.616-8.89-9.293a28.303 28.303 0 0 1-3.974-11.999 28.015 28.015 0 0 1 1.677-12.483c1.502-3.995 3.897-7.63 7.019-10.653l40.182-38.693 58.684-56.021c.25-.201.49-.411.75-.602l15.803-15.095c8.956-8.542 15.056-19.428 17.527-31.281 2.472-11.853 1.204-24.139-3.644-35.304v-.019Z"/></g></svg>