<?xml version="1.0" encoding="UTF-8" standalone="no"?>
<!-- Created with Inkscape (http://www.inkscape.org/) -->

<svg
   width="140.46013mm"
   height="19.84375mm"
   viewBox="0 0 140.46013 19.84375"
   version="1.1"
   id="svg6673"
   xmlns:xlink="http://www.w3.org/1999/xlink"
   xmlns="http://www.w3.org/2000/svg"
   xmlns:svg="http://www.w3.org/2000/svg">
  <defs
     id="defs6670">
    <linearGradient
       id="linearGradient17258">
      <stop
         style="stop-color:#feb802;stop-opacity:1;"
         offset="0"
         id="stop17254" />
      <stop
         style="stop-color:#fffd89;stop-opacity:1"
         offset="1"
         id="stop17256" />
    </linearGradient>
    <linearGradient
       id="linearGradient9331">
      <stop
         style="stop-color:#fe7979;stop-opacity:1;"
         offset="0"
         id="stop9327" />
      <stop
         style="stop-color:#fbd259;stop-opacity:1"
         offset="1"
         id="stop9329" />
    </linearGradient>
    <linearGradient
       xlink:href="#linearGradient9331"
       id="linearGradient9333"
       x1="-47.588367"
       y1="66.471016"
       x2="-15.374624"
       y2="109.2835"
       gradientUnits="userSpaceOnUse"
       gradientTransform="translate(-20.960462,6.677175)" />
    <linearGradient
       xlink:href="#linearGradient17258"
       id="linearGradient17260"
       x1="-68.548828"
       y1="136.61078"
       x2="-68.548828"
       y2="73.148193"
       gradientUnits="userSpaceOnUse" />
  </defs>
  <g
     id="layer1"
     transform="translate(100.11998,-73.148191)">
    <g
       id="g23917"
       transform="matrix(0.31268422,0,0,0.31268422,-68.814042,50.275906)"
       style="stroke-width:3.19811">
      <path
         id="path6788"
         style="fill:#000000;stroke-width:3.19811"
         d="m 241.00691,122.22392 c 2.77347,-0.84921 5.10903,-2.18221 7.25485,-4.14066 l 1.9259,-1.75774 1.52781,0.83992 c 0.84029,0.46196 1.60483,0.83992 1.69895,0.83992 0.0941,0 0.13853,-2.03651 0.0987,-4.52557 l -0.0724,-4.52557 -8.99583,-4.86452 c -4.94771,-2.67548 -9.08513,-4.865689 -9.19427,-4.867131 -0.10914,-0.0013 -0.19698,1.991671 -0.19524,4.429141 l 0.003,4.43178 4.13559,2.21933 4.1356,2.21934 -0.63307,0.51128 c -0.34819,0.2812 -1.40697,0.88954 -2.35286,1.35187 -1.5825,0.77349 -1.93101,0.84065 -4.36562,0.84126 -2.42734,5.3e-4 -2.7931,-0.0691 -4.42934,-0.84418 -6.70248,-3.17501 -8.29588,-11.58585 -3.22241,-17.00978 0.75199,-0.80395 1.93672,-1.672368 2.98749,-2.189869 1.64491,-0.810117 1.90296,-0.857589 4.66217,-0.857589 2.76738,0 3.01381,0.04572 4.68963,0.870088 1.22092,0.600583 2.21091,1.358646 3.19617,2.447396 l 1.4274,1.577308 h 4.02738 4.02738 l -0.18463,-0.595313 c -0.10154,-0.327421 -0.51313,-1.250444 -0.91461,-2.051158 -4.37824,-8.731747 -15.05823,-12.489767 -23.85044,-8.392382 -3.4386,1.60248 -6.38641,4.286075 -8.34739,7.59927 -1.65259,2.792158 -2.57932,7.439419 -2.17657,10.914839 0.51252,4.42253 2.03758,7.54722 5.27058,10.79887 3.02337,3.04079 6.23406,4.68884 10.45594,5.36706 1.63102,0.26201 5.58305,-0.0778 7.40992,-0.63721 z m 107.55154,-2.76335 v -3.57188 h -8.75956 c -8.07654,0 -8.74633,-0.0345 -8.58988,-0.44219 0.0933,-0.2432 1.66788,-3.18227 3.49901,-6.53126 l 3.3293,-6.08907 -0.67982,-1.34009 c -0.37391,-0.73705 -1.40533,-2.679547 -2.29208,-4.316657 l -1.61227,-2.976562 h 7.81725 7.81722 v -3.704167 -3.704167 h -14.2943 -14.2943 l 0.43823,0.859896 c 0.24101,0.472943 2.08822,3.912629 4.10493,7.643747 2.01671,3.731119 3.73406,6.95931 3.81638,7.17376 0.0823,0.21445 -0.22985,1.03125 -0.69361,1.81511 -1.03658,1.75207 -10.03358,18.45821 -10.03358,18.63096 0,0.0684 6.84609,0.12444 15.21354,0.12444 h 15.21354 z M 6.9813627,109.14182 V 95.780361 h 5.6949393 5.69494 l -0.07254,-4.431771 -0.07254,-4.431771 -14.7505215,-0.06837 -14.7505215,-0.06837 v 4.500137 4.500139 h 5.5562505 5.55625009 v 13.361455 13.36146 h 3.57187511 3.571875 z m 35.4541673,7.13449 v -6.22696 l 2.664793,0.0754 2.664794,0.0754 3.319198,6.15156 3.319201,6.15157 h 4.473842 4.473845 l -0.435705,-0.8599 c -0.239639,-0.47294 -1.738908,-3.26945 -3.331708,-6.21446 -1.592802,-2.94501 -2.821514,-5.47509 -2.730474,-5.6224 0.09104,-0.1473 0.373248,-0.26783 0.627129,-0.26783 0.77179,0 3.086508,-1.28052 4.107998,-2.27258 0.529807,-0.51454 1.260022,-1.52111 1.6227,-2.23682 1.267172,-2.50064 1.500296,-4.12495 1.640718,-11.431742 l 0.130932,-6.813021 H 50.137286 35.29178 v 17.859373 17.85938 h 3.571875 3.571875 z M 42.170947,98.57552 v -4.382659 h 7.636954 7.636952 l 0.167312,1.220663 c 0.244052,1.78055 -0.095,4.724126 -0.649089,5.635246 -1.019151,1.67586 -1.288544,1.73469 -8.363524,1.82623 l -6.428605,0.0832 z m 58.692303,12.54367 c 3.37184,-6.26125 6.13061,-11.500003 6.13061,-11.641669 0,-0.155969 -1.61777,-0.257577 -4.10104,-0.257577 -2.25557,0 -4.101039,-0.07387 -4.101039,-0.164163 0,-0.09029 1.428749,-2.814384 3.174999,-6.053545 1.74625,-3.239162 3.175,-5.963256 3.175,-6.053545 0,-0.09029 -1.9953,-0.164164 -4.43401,-0.164164 h -4.434002 l -5.157139,9.574988 c -2.836426,5.266245 -5.195637,9.731085 -5.242685,9.921875 -0.06782,0.27502 0.774031,0.34689 4.063201,0.34689 3.841295,0 4.135816,0.0343 3.974209,0.46302 -0.096,0.25466 -1.954205,3.76939 -4.12935,7.81051 -2.175142,4.04112 -3.954806,7.40464 -3.954806,7.47448 0,0.0698 2.003724,0.12699 4.45272,0.12699 h 4.452718 z m 56.20526,9.99502 c -0.42672,-0.76398 -4.74088,-8.74117 -9.58704,-17.72708 -4.84617,-8.98591 -8.88395,-16.335524 -8.97285,-16.332476 -0.16655,0.0057 -19.07934,34.977356 -19.07934,35.279636 0,0.0929 8.64341,0.16899 19.20756,0.16899 h 19.20753 z m -24.34235,-6.87916 c 0.35594,-0.61847 1.74625,-3.17732 3.08956,-5.68634 1.34332,-2.50903 2.53508,-4.61916 2.64837,-4.68918 0.1655,-0.10227 6.36519,10.98959 6.36519,11.38793 0,0.0616 -2.86882,0.11207 -6.37513,0.11207 h -6.37514 z m 48.14903,-0.47285 0.0697,-8.74107 10.55317,8.61541 c 5.80424,4.73847 10.65604,8.67898 10.78177,8.75669 0.12756,0.0788 0.2286,-7.76038 0.2286,-17.73371 V 86.784527 h -3.83294 -3.83294 l -0.0697,8.861997 -0.0697,8.861996 -10.68964,-8.729704 c -5.87928,-4.801339 -10.79061,-8.729705 -10.91406,-8.729705 -0.12343,0 -0.22442,7.977187 -0.22442,17.727079 v 17.72709 h 3.96517 3.96518 z m 120.32284,5.1692 v -3.57187 h -8.62726 c -7.93018,0 -8.61365,-0.0355 -8.45871,-0.43929 0.0927,-0.24161 1.95093,-3.75327 4.12936,-7.8037 2.17844,-4.05043 3.96078,-7.484161 3.96078,-7.63051 0,-0.166949 -1.52794,-0.266086 -4.10104,-0.266086 -2.25557,0 -4.10104,-0.0643 -4.10104,-0.142894 0,-0.07859 1.42875,-2.802522 3.175,-6.053182 1.74625,-3.25066 3.175,-5.984327 3.175,-6.074817 0,-0.09049 -1.9953,-0.164524 -4.434,-0.164524 h -4.43402 l -5.15712,9.574988 c -2.83644,5.266245 -5.19565,9.731085 -5.24269,9.921875 -0.0679,0.27522 0.78798,0.34689 4.14287,0.34689 h 4.22844 l -4.20902,7.80923 c -2.31497,4.29508 -4.20905,7.86696 -4.20905,7.9375 0,0.0705 6.78657,0.12827 15.08125,0.12827 h 15.08125 z" />
      <path
         style="fill:url(#linearGradient17260);fill-opacity:1;stroke:none;stroke-width:0.846167px;stroke-linecap:butt;stroke-linejoin:miter;stroke-opacity:1"
         d="m -68.548831,73.148192 v 63.462588 l -31.571149,-20.9335 z"
         id="path7038" />
      <path
         style="fill:url(#linearGradient9333);fill-opacity:1;stroke:none;stroke-width:0.846167px;stroke-linecap:butt;stroke-linejoin:miter;stroke-opacity:1"
         d="m -68.548831,73.148192 32.213745,42.812488 -32.331458,-11.48505 z"
         id="path7040" />
    </g>
  </g>
</svg>
