<?xml version="1.0" encoding="UTF-8"?>
<svg fill="none" viewBox="0 0 1201 712" xmlns="http://www.w3.org/2000/svg">
  <path
    d="m846.42 263.74 148.6 92.278-148.6 92.435c10.79-28.743 17.147-59.879 17.147-92.435 0-32.557-6.357-63.534-17.147-92.278zm-491.49 0c-10.791 28.744-17.14 59.879-17.14 92.278 0 32.56 6.187 63.533 17.14 92.277l-148.59-92.277 148.59-92.278zm245.75-115.63c115.09 0 207.64 92.754 207.64 207.91 0 115.15-92.716 207.74-207.64 207.74-115.1 0-207.8-92.753-207.8-207.74 0-114.99 92.867-207.91 207.8-207.91zm0-101.02-25.727 15.882-101.76 63.216c-7.302 4.135-14.287 8.417-21.113 13.183l-348.46 216.64 348.46 216.48c6.985 4.762 14.128 9.215 21.593 13.342l127.16 78.943 125.1-77.828c0.318-0.159 0.628-0.476 0.949-0.639 7.809-4.314 15.389-9.032 22.707-14.135l348.3-216.17-348.46-216.48c-6.993-4.762-14.128-9.366-21.593-13.501l-127.16-78.939zm548.33 358c-16.04 0.162-33.5 4.452-51.12 14.774l-445.78 276.84 4.445 2.702c12.544 7.302 29.053 12.386 47.309 12.068 16.032-0.162 33.49-4.445 51.118-14.766l445.62-277-4.61-2.857c-12.54-6.985-28.73-11.914-46.98-11.755v-7e-3zm-651.51-404.69c-16.033 0.16252-33.498 4.4448-51.118 14.767l-87.633 54.486-358.14 222.51c23.176 15.572 62.385 23.513 102.87 0l445.78-276.83-4.453-2.6985c-12.536-7.4721-28.879-12.552-47.301-12.234"
    fill="#41BEA5" />
</svg>
