<?xml version="1.0" standalone="no"?>
<!DOCTYPE svg PUBLIC "-//W3C//DTD SVG 20010904//EN"
 "http://www.w3.org/TR/2001/REC-SVG-20010904/DTD/svg10.dtd">
<svg version="1.0" xmlns="http://www.w3.org/2000/svg"
 width="832.000000pt" height="832.000000pt" viewBox="0 0 832.000000 832.000000"
 preserveAspectRatio="xMidYMid meet">
<metadata>
Created by potrace 1.14, written by Peter Selinger 2001-2017
</metadata>
<g transform="translate(0.000000,832.000000) scale(0.100000,-0.100000)"
fill="#000000" stroke="none">
<path d="M3918 8235 c-2 -2 -46 -6 -98 -10 -113 -7 -215 -19 -215 -24 0 -1
-22 -4 -50 -6 -27 -2 -99 -13 -160 -25 -60 -12 -119 -23 -130 -25 -11 -2 -65
-15 -120 -30 -55 -14 -109 -28 -121 -30 -11 -3 -50 -14 -85 -26 -35 -11 -71
-22 -79 -24 -47 -11 -352 -126 -410 -155 -8 -4 -87 -43 -175 -86 -88 -43 -161
-81 -163 -86 -2 -4 -9 -8 -15 -8 -7 0 -40 -18 -75 -40 -34 -22 -65 -40 -68
-40 -3 0 -10 -5 -17 -10 -7 -6 -43 -30 -82 -55 -83 -53 -82 -52 -211 -148
-108 -80 -127 -95 -183 -143 -20 -17 -46 -39 -59 -50 -123 -101 -355 -339
-472 -484 -25 -31 -51 -62 -58 -70 -7 -8 -38 -49 -68 -90 -31 -41 -61 -82 -67
-90 -7 -8 -32 -47 -57 -85 -25 -39 -48 -71 -52 -73 -5 -2 -8 -7 -8 -11 0 -5
-24 -48 -54 -97 -68 -113 -186 -340 -186 -358 0 -7 -6 -19 -14 -25 -8 -7 -17
-23 -20 -37 -4 -14 -18 -49 -31 -77 -14 -28 -25 -55 -25 -60 0 -5 -6 -23 -14
-40 -50 -114 -154 -452 -181 -585 -2 -9 -10 -51 -18 -92 -9 -41 -19 -97 -23
-125 -3 -27 -8 -59 -10 -70 -9 -43 -20 -132 -31 -260 -9 -109 -9 -564 0 -655
4 -36 9 -87 12 -115 4 -48 15 -124 21 -155 2 -8 6 -33 9 -55 6 -44 13 -80 15
-80 1 0 3 -11 4 -25 5 -41 15 -84 52 -228 20 -75 37 -144 38 -152 1 -9 6 -22
11 -30 5 -8 10 -19 10 -25 1 -18 67 -210 78 -223 5 -6 7 -12 4 -12 -6 0 54
-149 73 -182 5 -10 10 -25 10 -33 0 -8 5 -15 10 -15 6 0 10 -6 10 -12 0 -16
122 -262 133 -266 4 -2 7 -7 7 -12 0 -8 77 -146 92 -165 24 -30 68 -102 68
-112 0 -6 4 -13 8 -15 5 -2 24 -25 43 -53 36 -53 150 -206 159 -215 3 -3 25
-30 50 -60 101 -124 374 -403 479 -490 30 -25 65 -55 78 -67 13 -13 28 -23 33
-23 4 0 10 -4 12 -8 2 -5 30 -28 63 -53 33 -24 62 -46 65 -50 3 -3 28 -21 55
-39 28 -19 51 -37 53 -42 2 -4 9 -8 16 -8 7 0 21 -8 32 -18 11 -9 29 -22 40
-29 76 -48 195 -119 224 -136 86 -49 301 -157 314 -157 8 0 16 -4 18 -8 3 -10
352 -150 388 -157 7 -1 112 -35 130 -42 8 -3 20 -7 25 -8 6 -1 13 -3 18 -5 4
-1 10 -3 15 -4 4 -1 24 -8 44 -15 21 -7 42 -10 48 -6 5 3 10 2 10 -3 0 -5 6
-9 13 -9 6 0 50 -10 97 -21 47 -12 101 -24 120 -27 19 -3 53 -10 75 -15 22 -4
60 -11 85 -14 25 -3 54 -8 66 -10 12 -2 45 -7 75 -11 30 -4 65 -9 79 -10 151
-20 603 -26 805 -12 60 5 112 10 115 12 3 1 32 6 65 10 67 7 116 14 160 22 17
3 41 6 55 8 14 1 34 5 45 8 11 4 36 9 55 12 19 3 53 11 75 16 22 5 54 12 70
16 44 8 45 8 105 26 30 9 64 18 75 20 11 2 27 7 35 10 8 3 76 25 150 50 121
40 194 67 270 100 14 6 27 11 30 12 43 12 450 215 470 235 3 3 21 14 40 24 60
33 235 148 238 157 2 5 8 9 13 9 12 0 133 89 137 101 2 5 10 9 18 9 8 0 14 4
14 8 0 4 12 15 28 25 15 9 41 29 58 44 17 15 53 46 79 68 128 108 253 232 409
405 48 53 188 228 232 290 21 30 41 57 44 60 11 9 177 275 206 330 16 30 31
57 34 60 9 8 139 274 142 290 2 8 5 17 8 20 9 8 50 112 50 126 0 8 4 14 8 14
4 0 18 35 32 77 13 43 27 83 30 88 4 6 17 44 29 85 13 41 27 86 31 100 10 26
55 206 64 250 2 14 12 59 21 100 9 41 18 93 20 115 3 22 7 51 10 65 3 14 8 48
11 75 3 28 7 61 10 75 25 155 25 725 0 880 -3 14 -8 52 -12 85 -4 33 -8 71
-10 85 -2 14 -5 36 -9 50 -3 14 -8 40 -11 59 -6 38 -7 39 -27 136 -8 39 -21
90 -28 115 -7 25 -13 52 -14 60 -1 8 -4 22 -7 30 -4 8 -8 24 -11 35 -19 77
-104 326 -136 400 -10 22 -33 76 -52 120 -98 232 -274 537 -434 755 -11 15
-29 40 -40 56 -11 16 -22 31 -25 34 -3 3 -35 41 -70 85 -153 188 -335 376
-504 518 -27 23 -60 52 -73 65 -13 12 -28 22 -33 22 -4 0 -10 3 -12 8 -1 4
-28 26 -58 49 -30 24 -59 46 -65 51 -5 4 -53 37 -105 72 -52 36 -97 67 -100
70 -12 12 -112 70 -121 70 -5 0 -9 5 -9 10 0 6 -6 10 -14 10 -8 0 -16 3 -18 8
-9 21 -406 216 -573 282 -44 17 -89 35 -100 40 -16 7 -85 30 -105 35 -3 1 -12
5 -20 8 -35 15 -339 100 -400 112 -63 12 -78 15 -125 25 -89 18 -99 20 -145
25 -25 3 -54 9 -65 12 -11 3 -38 7 -60 9 -57 4 -145 14 -180 20 -33 5 -601 14
-607 9z"/>
</g>
</svg>
