<?xml version="1.0" encoding="UTF-8"?>
<svg version="1.1" viewBox="0 0 66.766 46.362" xmlns="http://www.w3.org/2000/svg"
  xmlns:cc="http://creativecommons.org/ns#" xmlns:dc="http://purl.org/dc/elements/1.1/"
  xmlns:rdf="http://www.w3.org/1999/02/22-rdf-syntax-ns#">
  <metadata>
    <rdf:RDF>
      <cc:Work rdf:about="">
        <dc:format>image/svg+xml</dc:format>
        <dc:type rdf:resource="http://purl.org/dc/dcmitype/StillImage" />
      </cc:Work>
    </rdf:RDF>
  </metadata>
  <g transform="matrix(3.7795 0 0 3.7795 -1140.1 -6557.9)">
    <g transform="translate(-6e-6 518.83)">
      <g transform="matrix(.092546 0 0 .092546 236.04 1210.2)" fill="#fff" stroke-width="10.806">
        <g transform="matrix(1.6498 0 0 1.6498 470.37 -133.12)" fill="#fff" stroke-width="11.024">
          <path transform="matrix(.26458 0 0 .26458 0 11.25)"
            d="m623.84 413.43-17.42 46.197 17.41 45.65 0.01-0.0254 2.3809 6.2891 6.7793 17.777v0.14062l33.309 88.021h32.266s42.189-7e-3 74.836-23.523c-6.9646-8.9806-12.71-18.844-17.086-29.332-12.383 9.7767-27.525 14.433-39.213 16.672-1.8636 0.36912-3.7374 0.68566-5.6191 0.94922-2.1236 0.30606-4.0259 0.5286-5.709 0.68945-0.68814 0.0683-1.377 0.12947-2.0664 0.1836-3.2016 0.24634-5.1426 0.25586-5.1426 0.25586v-0.0762c-0.399 0.0167-0.7981 0.031-1.1973 0.043-2.9748-0.0226-5.9471-0.17638-8.9082-0.46093zm-32.066 87.039-44.875 117.01h34.748l27.561-71.305z"
            style="paint-order:markers fill stroke" />
          <path transform="matrix(.26458 0 0 .26458 0 11.25)"
            d="m875 413.43c-21.15 0-40.685 7.2322-56.553 19.473 6.9634 8.8561 12.735 18.588 17.166 28.945 10.905-8.967 24.582-14.314 39.387-14.314 35.574 0 64.256 30.318 64.256 67.922 0 37.312-28.681 67.92-64.256 67.92-1.0559 0-2.1045-0.0318-3.1484-0.0859-0.32849-0.0171-0.65326-0.0499-0.98047-0.0723-0.69925-0.0477-1.3986-0.0984-2.0918-0.16992-0.44371-0.0459-0.88312-0.1066-1.3242-0.16211-0.56272-0.0707-1.1253-0.14044-1.6836-0.22656-0.48687-0.0753-0.96976-0.16308-1.4531-0.25-0.52408-0.094-1.0466-0.19132-1.5664-0.29883-0.48179-0.0999-0.96149-0.20704-1.4395-0.31836-0.48691-0.11315-0.97227-0.23255-1.4551-0.35742-0.53484-0.13863-1.068-0.28076-1.5977-0.43359-0.38946-0.11215-0.77556-0.23185-1.1621-0.35157-0.5846-0.18143-1.1684-0.36591-1.7461-0.56445-0.32692-0.11212-0.64997-0.23404-0.97461-0.35156-0.62304-0.22598-1.2469-0.45166-1.8613-0.69727-0.18715-0.0747-0.37031-0.1579-0.55664-0.23437-4.2237-1.7366-8.2398-3.9252-11.984-6.5234-7e-3 -5e-3 -0.0145-9e-3 -0.0215-0.0137-0.77481-0.53805-1.5377-1.0942-2.2891-1.666-0.74146-0.56426-1.4698-1.1441-2.1875-1.7402-0.0239-0.0198-0.0484-0.0387-0.0723-0.0586-0.71592-0.59633-1.4201-1.2089-2.1113-1.8359-13.469-12.218-22.145-30.18-22.516-50.178h8e-3c0.0339-0.96899 0.0173-1.9341-2e-3 -2.832 1e-3 -0.039 9.5e-4 -0.0781 2e-3 -0.11719h-4e-3c-1.1966-100.1-112.21-100.12-112.21-100.12h-32.266v25.814l32.266 84.598v-76.598s78.944 0.0133 80.219 66.303h-0.0137c-8e-3 0.53945-0.0195 1.0777-0.0195 1.6191 0 32.285 14.17 61.013 36.301 79.639 1.0222 0.86027 2.0616 1.6991 3.1172 2.5156 0.011 9e-3 0.0222 0.0169 0.0332 0.0254 2.1163 1.6356 4.298 3.1828 6.541 4.6348 1.1048 0.71515 2.2237 1.4055 3.3574 2.0742 0.0385 0.0227 0.0767 0.0457 0.11523 0.0684 1.1372 0.66858 2.2881 1.3149 3.4531 1.9355h2e-3c2.298 1.2242 4.6493 2.3524 7.0488 3.3828 0.11925 0.0512 0.23792 0.10355 0.35742 0.15429 1.1537 0.48972 2.3187 0.95703 3.4941 1.4004 0.0882 0.0333 0.17727 0.0646 0.26562 0.0977 1.2122 0.45296 2.432 0.88454 3.666 1.2871 1.1983 0.39093 2.409 0.75337 3.627 1.0957 0.13757 0.0387 0.2743 0.0791 0.41211 0.11719 1.1549 0.31878 2.3187 0.61446 3.4902 0.88867 0.22091 0.0517 0.44258 0.10026 0.66406 0.15039 1.1884 0.26885 2.3835 0.52008 3.5879 0.74219 0.0916 0.0169 0.18374 0.0322 0.27539 0.0488 1.2099 0.2193 2.4274 0.41471 3.6523 0.58593 0.11021 0.0154 0.21976 0.0319 0.33008 0.0469 1.2094 0.16456 2.4272 0.29923 3.6504 0.41601 0.23242 0.0222 0.46437 0.0459 0.69727 0.0664 1.1939 0.10483 2.3936 0.1876 3.5996 0.24609 0.23719 0.0115 0.47524 0.0196 0.71289 0.0293 1.2584 0.0513 2.5206 0.0859 3.791 0.0859 53.5 0 96.521-45.474 96.521-101.73 0-0.54141-0.0116-1.0797-0.0195-1.6191-0.81709-55.516-43.517-100.41-96.502-100.41z" />
          <circle cx="231.55" cy="147.59" r="8.3956" style="paint-order:markers fill stroke" />
        </g>
      </g>
      <text x="302.93304" y="1228.4896" fill="#e6e6e6" font-family="Almarai" font-size="3.8806px" letter-spacing="0px"
        stroke-width=".66146" word-spacing="0px" style="line-height:1.7" xml:space="preserve">
        <tspan x="302.93304" y="1228.4896" fill="#e6e6e6" font-family="Roboto" font-size="3.8806px"
          stroke-width=".66146">member</tspan>
      </text>
    </g>
  </g>
</svg>
