<svg width="1478" height="1033" viewBox="0 0 1478 1033" fill="none" xmlns="http://www.w3.org/2000/svg">
<path d="M1169.81 587.123C1151.04 851.213 921.719 1050.08 657.629 1031.3C393.539 1012.51 194.676 783.201 213.457 519.112C232.238 255.022 461.551 56.1585 725.641 74.9397C989.731 93.721 1188.59 323.033 1169.81 587.123Z" fill="#142B42"/>
<path d="M796.336 153.467C988.086 215.318 1087.13 417.303 1089.24 582.736C1089.82 627.904 1090.98 718.787 1031.55 795.482C917.438 942.775 650.047 947.182 481.484 832.592C459.777 817.834 313.988 715.268 298.695 535.287C287.504 403.514 352.563 304.096 360.692 291.986C370.961 276.686 395.602 242.756 436.731 210.377C533.363 134.299 676.512 114.811 796.336 153.467" fill="#173551"/>
<path d="M1105.96 43.5751C1105.96 43.5751 1304.18 160.028 1368.96 430.575C1433.75 701.122 1286.46 907.575 1286.46 907.575" stroke="#142B42" stroke-width="8" stroke-linecap="round"/>
<path d="M207.5 1012.5C207.5 1012.5 3.99992 861.5 4 556.5C4.00008 251.5 207.5 114 207.5 114" stroke="#142B42" stroke-width="8" stroke-linecap="round"/>
<path d="M1117.5 265C1117.5 265 1210.27 393.5 1204 607C1197.73 820.5 1057.5 918.5 1057.5 918.5" stroke="#142B42" stroke-width="8" stroke-linecap="round"/>
</svg>
