<?xml version="1.0" encoding="UTF-8"?>
<svg version="1.1" viewBox="0 0 222.17 177.09" xmlns="http://www.w3.org/2000/svg"
  xmlns:cc="http://creativecommons.org/ns#" xmlns:dc="http://purl.org/dc/elements/1.1/"
  xmlns:rdf="http://www.w3.org/1999/02/22-rdf-syntax-ns#">
  <metadata>
    <rdf:RDF>
      <cc:Work rdf:about="">
        <dc:format>image/svg+xml</dc:format>
        <dc:type rdf:resource="http://purl.org/dc/dcmitype/StillImage" />
      </cc:Work>
    </rdf:RDF>
  </metadata>
  <defs>
    <clipPath id="b">
      <path class="cls-1"
        d="m427.72 528.5h-92.72a4.46 4.46 0 0 0-4.44 4.44v70.79a7.55 7.55 0 0 0 7.53 7.52h86.59a7.55 7.55 0 0 0 7.53-7.52v-70.79a4.46 4.46 0 0 0-4.49-4.44z" />
    </clipPath>
    <clipPath id="a">
      <rect class="cls-1" x="330.19" y="528.66" width="101.97" height="81.31" rx="5.3" />
    </clipPath>
    <linearGradient id="c" x1="357.52" x2="400.68" y1="576.69" y2="576.69"
      gradientTransform="matrix(.27679 0 0 .27679 144.12 1084.2)" gradientUnits="userSpaceOnUse">
      <stop stop-color="#efb7b2" offset="0" />
      <stop stop-color="#e95766" offset="1" />
    </linearGradient>
  </defs>
  <g transform="matrix(3.7795 0 0 3.7795 -800.97 -4425)">
    <g transform="matrix(1.6248 0 0 1.6248 -163.71 -823.9)">
      <g class="cls-374" transform="matrix(.27679 0 0 .27679 144.12 1084.2)" opacity=".84" stroke-width=".5883"
        style="mix-blend-mode:multiply">
        <path class="cls-375"
          d="m330 538.48c-9.51 17.37-24.11 35.8-8.8 47.75 12.34 9.64 3.59 27.07 23.88 28.44 9.34 0.63 71.41 17.7 88.13-0.64 20.91-22.94-1.42-12 7.4-41.72 12.79-43.11-3.7-29.14-15.62-46.56-9.69-14.15-90.35-7.26-83.8 13.47 5.11 16.32-1.46-18.58-11.19-0.74z"
          fill="#f3f4fa" stroke-width=".5883" />
      </g>
      <rect class="cls-404" x="235.12" y="1230" width="29.005" height="23.823" rx="1.4509" ry="1.4509" fill="#e3e2f0"
        stroke-width=".16284" />
      <path class="cls-373"
        d="m262.39 1230.4h-25.445a1.348 1.348 0 0 0-1.3452 1.3425v20.206a1.348 1.348 0 0 0 1.3452 1.3424h25.445a1.348 1.348 0 0 0 1.3452-1.3424v-20.206a1.348 1.348 0 0 0-1.3452-1.3425z"
        fill="#fff" stroke-width=".16284" />
      <g class="cls-414" transform="matrix(.27679 0 0 .27679 144.12 1084.2)" clip-path="url(#b)" fill="#f3f4fa"
        fill-opacity=".84314" stroke-width=".5883">
        <polygon class="cls-375" points="440.28 536.8 426.93 482.04 318.39 482.04 319.11 536.8" />
        <path class="cls-405" d="m337.68 533.88a0.91 0.91 0 1 1-0.91-0.91 0.91 0.91 0 0 1 0.91 0.91z" />
        <path class="cls-406" d="m341.21 533.88a0.91 0.91 0 1 1-0.91-0.91 0.91 0.91 0 0 1 0.91 0.91z" />
        <path class="cls-407" d="m344.75 533.88a0.91 0.91 0 1 1-0.91-0.91 0.91 0.91 0 0 1 0.91 0.91z" />
      </g>
      <path class="cls-405" d="m237.59 1231.9a0.25188 0.25188 0 1 1-0.25188-0.252 0.25188 0.25188 0 0 1 0.25188 0.252z"
        fill="#f5a9a1" stroke-width=".16284" />
      <path class="cls-406" d="m238.56 1231.9a0.25188 0.25188 0 1 1-0.25188-0.252 0.25188 0.25188 0 0 1 0.25188 0.252z"
        fill="#dfc54b" stroke-width=".16284" />
      <path class="cls-407" d="m239.54 1231.9a0.25188 0.25188 0 1 1-0.25189-0.252 0.25188 0.25188 0 0 1 0.25189 0.252z"
        fill="#0c8076" stroke-width=".16284" />
      <g class="cls-415" transform="matrix(.27679 0 0 .27679 144.12 1084.2)" clip-path="url(#a)" stroke-width=".5883">
        <g class="cls-416" stroke-width=".5883" data-name="g2108">
          <g fill="#f3f4fa" stroke-width=".5883" data-name="g1020">
            <path class="cls-417"
              d="m379.16 543.29-2.53 1.56-10 6.24c-0.72 0.4-1.4 0.83-2.08 1.3l-34.36 21.36 34.36 21.34q1 0.7 2.13 1.32l12.54 7.78 12.34-7.67 0.09-0.06c0.77-0.43 1.52-0.9 2.24-1.4l34.34-21.31-34.4-21.35c-0.69-0.47-1.39-0.92-2.13-1.33zm0 10a20.49 20.49 0 1 1-20.49 20.5 20.44 20.44 0 0 1 20.49-20.54zm-24.23 11.4a25.93 25.93 0 0 0-1.69 9.1 25.49 25.49 0 0 0 1.69 9.1l-14.65-9.1zm48.47 0 14.65 9.1-14.65 9.11a25.37 25.37 0 0 0 0-18.21z"
              data-name="path3386" />
            <path class="cls-417"
              d="m433.23 578.59a10.14 10.14 0 0 0-5 1.45l-43.95 27.3 0.43 0.27a9.08 9.08 0 0 0 4.67 1.19 10.15 10.15 0 0 0 5-1.46l8.62-5.34 35.32-22-0.45-0.28a9.37 9.37 0 0 0-4.64-1.16z"
              data-name="path3388" />
            <path class="cls-417"
              d="m369 538.68a10.15 10.15 0 0 0-5 1.46l-8.64 5.37-35.36 21.94a9.5 9.5 0 0 0 10.15 0l43.95-27.3-0.44-0.26a8.81 8.81 0 0 0-4.66-1.21z"
              data-name="path3390" />
          </g>
        </g>
      </g>
      <path class="cls-418"
        d="m249.16 1248.9s6.3662-4.2711 5.8348-7.4403-3.7062-3.374-5.2314-2.2503c-0.66154 0.4871-0.99645 1.6607-0.99645 1.6607s-0.71965-2.2724-2.9091-2.1977c-2.1894 0.074-3.1084 1.9127-2.6683 3.9665 0.4401 2.0537 3.3464 4.2819 5.9704 6.2611z"
        fill="url(#c)" stroke-width=".16284" />
      <path class="cls-419"
        d="m254.99 1241.5a3.5069 3.5069 0 0 0-1.0463-2.0566v0.108a6.0368 6.0368 0 0 1-5.9455 5.9454 5.9648 5.9648 0 0 1-4.6529-2.3001c0.76394 1.9071 3.3934 3.9304 5.8126 5.7436-3e-3 0 6.3773-4.2711 5.832-7.4403z"
        fill="#e95766" opacity=".36" stroke-width=".16284" style="mix-blend-mode:multiply" />
      <path class="cls-373"
        d="m249.47 1246.2a0.25742 0.25742 0 0 1-0.24081-0.1633l-1.6607-4.055-0.86359 2.5936a0.27679 0.27679 0 0 1-0.24911 0.1799h-5.0542a0.26295 0.26295 0 1 1 0-0.5232h4.8577l1.0241-3.0833a0.27679 0.27679 0 0 1 0.23804-0.18 0.27679 0.27679 0 0 1 0.25188 0.1633l1.694 4.1132 0.76948-1.9043a0.25742 0.25742 0 0 1 0.20482-0.1606 0.27679 0.27679 0 0 1 0.2408 0.094l0.77502 0.9576h5.0847a0.26295 0.26295 0 1 1 0 0.5232h-5.2092a0.27679 0.27679 0 0 1-0.20483-0.097l-0.57296-0.7087-0.83037 2.0871a0.27679 0.27679 0 0 1-0.24081 0.1633z"
        fill="#fff" stroke-width=".16284" />
    </g>
  </g>
</svg>
