<?xml version="1.0" encoding="UTF-8" standalone="no"?>
<svg
   xmlns:dc="http://purl.org/dc/elements/1.1/"
   xmlns:cc="http://creativecommons.org/ns#"
   xmlns:rdf="http://www.w3.org/1999/02/22-rdf-syntax-ns#"
   xmlns:svg="http://www.w3.org/2000/svg"
   xmlns="http://www.w3.org/2000/svg"
   xmlns:sodipodi="http://sodipodi.sourceforge.net/DTD/sodipodi-0.dtd"
   xmlns:inkscape="http://www.inkscape.org/namespaces/inkscape"
   version="1.1"
   id="svg108403"
   width="72.684166"
   height="110.15913"
   sodipodi:docname="question_mark.svg"
   inkscape:version="1.0.2 (e86c870879, 2021-01-15)">
  <metadata
     id="metadata108409">
    <rdf:RDF>
      <cc:Work
         rdf:about="">
        <dc:format>image/svg+xml</dc:format>
        <dc:type
           rdf:resource="http://purl.org/dc/dcmitype/StillImage" />
        <dc:title></dc:title>
      </cc:Work>
    </rdf:RDF>
  </metadata>
  <defs
     id="defs108407" />
  <sodipodi:namedview
     pagecolor="#ffffff"
     bordercolor="#666666"
     borderopacity="1"
     objecttolerance="10"
     gridtolerance="10"
     guidetolerance="10"
     inkscape:pageopacity="0"
     inkscape:pageshadow="2"
     inkscape:window-width="2560"
     inkscape:window-height="1381"
     id="namedview108405"
     inkscape:document-rotation="0"
     showgrid="false"
     inkscape:snap-bbox="true"
     inkscape:snap-page="true"
     inkscape:bbox-nodes="true"
     inkscape:bbox-paths="true"
     fit-margin-top="0"
     fit-margin-left="0"
     fit-margin-right="0"
     fit-margin-bottom="0"
     inkscape:zoom="7.6919809"
     inkscape:cx="36.565572"
     inkscape:cy="73.172497"
     inkscape:window-x="0"
     inkscape:window-y="0"
     inkscape:window-maximized="1"
     inkscape:current-layer="g108411" />
  <inkscape:clipboard
     style="font-style:normal;font-variant:normal;font-weight:bold;font-stretch:normal;font-size:150.48771753px;line-height:1.2;font-family:Almarai;-inkscape-font-specification:'Almarai Bold';font-variant-ligatures:normal;font-variant-position:normal;font-variant-caps:normal;font-variant-numeric:normal;font-variant-alternates:normal;font-variant-east-asian:normal;font-feature-settings:normal;font-variation-settings:normal;text-indent:0;text-align:start;text-decoration:none;text-decoration-line:none;text-decoration-style:solid;text-decoration-color:#000000;letter-spacing:0px;word-spacing:0px;text-transform:none;writing-mode:lr-tb;direction:ltr;text-orientation:mixed;dominant-baseline:auto;baseline-shift:baseline;text-anchor:start;white-space:normal;shape-padding:0;shape-margin:0;inline-size:0;opacity:1;vector-effect:none;fill:#ececec;fill-opacity:1;stroke:none;stroke-width:0.99999826;stroke-linecap:butt;stroke-linejoin:miter;stroke-miterlimit:4;stroke-dasharray:none;stroke-dashoffset:0;stroke-opacity:1;stop-color:#000000;stop-opacity:1"
     min="1274.4489,4463.4537"
     max="1341.6086,4575.1459" />
  <g
     id="g108411"
     transform="matrix(4.9792807,0,0,4.9794727,-1582.6938,-3978.162)">
    <path
       id="text33658"
       style="font-style:normal;font-variant:normal;font-weight:bold;font-stretch:normal;font-size:30.2222px;line-height:1.2;font-family:Almarai;-inkscape-font-specification:'Almarai, Bold';font-variant-ligatures:normal;font-variant-caps:normal;font-variant-numeric:normal;font-variant-east-asian:normal;text-align:center;letter-spacing:0px;word-spacing:0px;text-anchor:middle;display:inline;fill:#ececec;fill-opacity:1;stroke:none;stroke-width:0.200828"
       d="m 325.10561,802.79344 c -1.67406,0 -2.93632,0.57558 -3.78643,1.7265 -0.57546,0.77164 -0.87621,1.88967 -0.90237,3.35447 h 2.62868 v -0.25486 c 0,-0.74548 0.19632,-1.3537 0.58868,-1.82453 0.40544,-0.4839 0.91557,-0.72589 1.53026,-0.72589 0.57546,0 1.0527,0.21588 1.43198,0.64747 0.39235,0.41852 0.58867,0.94164 0.58867,1.56941 0,0.44468 -0.0851,0.80439 -0.25512,1.07904 -0.17003,0.26157 -0.5363,0.62102 -1.09868,1.07877 -0.69317,0.56238 -1.18346,1.09881 -1.47119,1.60888 -0.28773,0.51006 -0.43811,1.09845 -0.45118,1.76546 v 0.45116 h 2.39316 c 0,-0.65393 0.059,-1.09195 0.1767,-1.31429 0.13079,-0.23541 0.49707,-0.56249 1.09868,-0.98101 0.90243,-0.64085 1.51046,-1.21618 1.82435,-1.72624 0.32696,-0.52315 0.49039,-1.18358 0.49039,-1.98137 0,-1.24247 -0.38586,-2.26913 -1.1575,-3.08 -0.88934,-0.92859 -2.09888,-1.39297 -3.62908,-1.39297 z m 0.0392,11.82964 c -0.34004,0 -0.63452,0.12425 -0.88301,0.37275 -0.2485,0.23541 -0.37251,0.5296 -0.37251,0.88272 0,0.35313 0.12401,0.6541 0.37251,0.90259 0.24849,0.2485 0.54297,0.3725 0.88301,0.3725 0.35313,0 0.65388,-0.124 0.90237,-0.3725 0.2485,-0.24849 0.37277,-0.54946 0.37277,-0.90259 0,-0.35312 -0.12427,-0.64731 -0.37277,-0.88272 -0.23541,-0.2485 -0.53616,-0.37275 -0.90237,-0.37275 z" />
  </g>
</svg>
