<svg width="250" height="170" version="1.1" viewBox="0 0 66.1458 44.9792" xmlns="http://www.w3.org/2000/svg"><defs><clipPath id="n"><path d="m672 3438h49v12h-49z"/></clipPath><clipPath id="m"><path d="m690.66 3439.73c0 1.5859-1.28907 2.8711-2.875 2.8711h-12.5c-1.58985 0-2.875 1.289-2.875 2.875v1.2851c0 1.586 1.28515 2.8711 2.875 2.8711h41.8633c1.58984 0 2.875-1.2851 2.875-2.8711 0-1.5898-1.28516-2.875-2.875-2.875h-10.1719c-1.58984 0-2.875-1.289-2.875-2.875v-1.7617l-13.4414-1.1094z"/></clipPath><linearGradient id="d" x1="-1.53106e-5" x2="1" gradientTransform="matrix(47.6141 0 0 47.6141 672.41 3443.88)" gradientUnits="userSpaceOnUse"><stop stop-color="#22234f" offset="0"/><stop stop-color="#232450" offset=".015625"/><stop stop-color="#232450" offset=".03125"/><stop stop-color="#232451" offset=".046875"/><stop stop-color="#232452" offset=".0625"/><stop stop-color="#232452" offset=".078125"/><stop stop-color="#232553" offset=".09375"/><stop stop-color="#232554" offset=".109375"/><stop stop-color="#232554" offset=".125"/><stop stop-color="#242555" offset=".140625"/><stop stop-color="#242556" offset=".15625"/><stop stop-color="#242556" offset=".171875"/><stop stop-color="#242657" offset=".1875"/><stop stop-color="#242658" offset=".203125"/><stop stop-color="#242658" offset=".21875"/><stop stop-color="#242659" offset=".234375"/><stop stop-color="#24265a" offset=".25"/><stop stop-color="#25275a" offset=".265625"/><stop stop-color="#25275b" offset=".28125"/><stop stop-color="#25275c" offset=".296875"/><stop stop-color="#25275c" offset=".3125"/><stop stop-color="#25275d" offset=".328125"/><stop stop-color="#25285e" offset=".34375"/><stop stop-color="#25285e" offset=".359375"/><stop stop-color="#25285f" offset=".375"/><stop stop-color="#262860" offset=".390625"/><stop stop-color="#262860" offset=".40625"/><stop stop-color="#262861" offset=".421875"/><stop stop-color="#262962" offset=".4375"/><stop stop-color="#262962" offset=".453125"/><stop stop-color="#262963" offset=".46875"/><stop stop-color="#262964" offset=".484375"/><stop stop-color="#262964" offset=".5"/><stop stop-color="#272a65" offset=".515625"/><stop stop-color="#272a65" offset=".53125"/><stop stop-color="#272a66" offset=".546875"/><stop stop-color="#272a67" offset=".5625"/><stop stop-color="#272a67" offset=".578125"/><stop stop-color="#272b68" offset=".59375"/><stop stop-color="#272b69" offset=".609375"/><stop stop-color="#272b69" offset=".625"/><stop stop-color="#282b6a" offset=".640625"/><stop stop-color="#282b6b" offset=".65625"/><stop stop-color="#282b6b" offset=".671875"/><stop stop-color="#282c6c" offset=".6875"/><stop stop-color="#282c6d" offset=".703125"/><stop stop-color="#282c6d" offset=".71875"/><stop stop-color="#282c6e" offset=".734375"/><stop stop-color="#282c6f" offset=".75"/><stop stop-color="#292d6f" offset=".765625"/><stop stop-color="#292d70" offset=".78125"/><stop stop-color="#292d71" offset=".796875"/><stop stop-color="#292d71" offset=".8125"/><stop stop-color="#292d72" offset=".828125"/><stop stop-color="#292e73" offset=".84375"/><stop stop-color="#292e73" offset=".859375"/><stop stop-color="#292e74" offset=".875"/><stop stop-color="#2a2e75" offset=".890625"/><stop stop-color="#2a2e75" offset=".90625"/><stop stop-color="#2a2e76" offset=".921875"/><stop stop-color="#2a2f77" offset=".9375"/><stop stop-color="#2a2f77" offset=".953125"/><stop stop-color="#2a2f78" offset=".96875"/><stop stop-color="#2a2f79" offset=".984375"/><stop stop-color="#2a2f79" offset="1"/></linearGradient><clipPath id="l"><path d="m642 3372h110v69h-110z"/></clipPath><clipPath id="k"><path d="m745.621 3372.4-97.7812 2.0547c-3.23437 0.066-5.82812 2.7539-5.78125 5.9922l0.75 54.1055c0.043 3.2148 2.69532 5.8281 5.91016 5.8281h95.5469c3.22657 0 5.82422-2.5234 5.90625-5.7539l1.47657-56.1641c0.043-1.6054-0.58203-3.1796-1.71485-4.3203-1.10547-1.1093-2.60937-1.7422-4.19531-1.7422h-0.11719m-97.2461 8.3594 96.9531-2.0351-1.45703 55.3437h-94.7539z"/></clipPath><linearGradient id="c" x1="-.000400424" x2="1.00037" gradientTransform="matrix(109.596 0 0 109.596 642.057 3406.39)" gradientUnits="userSpaceOnUse"><stop stop-color="#22234f" offset="0"/><stop stop-color="#232450" offset=".015625"/><stop stop-color="#232450" offset=".03125"/><stop stop-color="#232451" offset=".046875"/><stop stop-color="#232452" offset=".0625"/><stop stop-color="#232452" offset=".078125"/><stop stop-color="#232553" offset=".09375"/><stop stop-color="#232554" offset=".109375"/><stop stop-color="#232554" offset=".125"/><stop stop-color="#242555" offset=".140625"/><stop stop-color="#242556" offset=".15625"/><stop stop-color="#242556" offset=".171875"/><stop stop-color="#242657" offset=".1875"/><stop stop-color="#242658" offset=".203125"/><stop stop-color="#242658" offset=".21875"/><stop stop-color="#242659" offset=".234375"/><stop stop-color="#24265a" offset=".25"/><stop stop-color="#25275a" offset=".265625"/><stop stop-color="#25275b" offset=".28125"/><stop stop-color="#25275c" offset=".296875"/><stop stop-color="#25275c" offset=".3125"/><stop stop-color="#25275d" offset=".328125"/><stop stop-color="#25285e" offset=".34375"/><stop stop-color="#25285e" offset=".359375"/><stop stop-color="#25285f" offset=".375"/><stop stop-color="#262860" offset=".390625"/><stop stop-color="#262860" offset=".40625"/><stop stop-color="#262861" offset=".421875"/><stop stop-color="#262962" offset=".4375"/><stop stop-color="#262962" offset=".453125"/><stop stop-color="#262963" offset=".46875"/><stop stop-color="#262964" offset=".484375"/><stop stop-color="#262964" offset=".5"/><stop stop-color="#272a65" offset=".515625"/><stop stop-color="#272a65" offset=".53125"/><stop stop-color="#272a66" offset=".546875"/><stop stop-color="#272a67" offset=".5625"/><stop stop-color="#272a67" offset=".578125"/><stop stop-color="#272b68" offset=".59375"/><stop stop-color="#272b69" offset=".609375"/><stop stop-color="#272b69" offset=".625"/><stop stop-color="#282b6a" offset=".640625"/><stop stop-color="#282b6b" offset=".65625"/><stop stop-color="#282b6b" offset=".671875"/><stop stop-color="#282c6c" offset=".6875"/><stop stop-color="#282c6d" offset=".703125"/><stop stop-color="#282c6d" offset=".71875"/><stop stop-color="#282c6e" offset=".734375"/><stop stop-color="#282c6f" offset=".75"/><stop stop-color="#292d6f" offset=".765625"/><stop stop-color="#292d70" offset=".78125"/><stop stop-color="#292d71" offset=".796875"/><stop stop-color="#292d71" offset=".8125"/><stop stop-color="#292d72" offset=".828125"/><stop stop-color="#292e73" offset=".84375"/><stop stop-color="#292e73" offset=".859375"/><stop stop-color="#292e74" offset=".875"/><stop stop-color="#2a2e75" offset=".890625"/><stop stop-color="#2a2e75" offset=".90625"/><stop stop-color="#2a2e76" offset=".921875"/><stop stop-color="#2a2f77" offset=".9375"/><stop stop-color="#2a2f77" offset=".953125"/><stop stop-color="#2a2f78" offset=".96875"/><stop stop-color="#2a2f79" offset=".984375"/><stop stop-color="#2a2f79" offset="1"/></linearGradient><clipPath id="j"><path d="m694 3394h40v30h-40z"/></clipPath><clipPath id="i"><path d="m701.094 3394.93c-3.47656 0-6.29297 2.8203-6.29297 6.293v16.3007c0 3.4766 2.81641 6.293 6.29297 6.293h26.4688c3.47656 0 6.29687-2.8164 6.29687-6.293v-16.3007c0-3.4727-2.82031-6.293-6.29296-6.293z"/></clipPath><linearGradient id="b" x1="-.0299858" x2="1.02995" gradientTransform="matrix(-5.77163 -32.7325 32.7325 -5.77163 717.215 3425.74)" gradientUnits="userSpaceOnUse"><stop stop-color="#5b3389" offset="0"/><stop stop-color="#5c348a" offset=".03125"/><stop stop-color="#5c348a" offset=".046875"/><stop stop-color="#5d358a" offset=".0625"/><stop stop-color="#5d368a" offset=".078125"/><stop stop-color="#5e378b" offset=".09375"/><stop stop-color="#5e388b" offset=".109375"/><stop stop-color="#5f398b" offset=".125"/><stop stop-color="#603a8b" offset=".140625"/><stop stop-color="#603b8c" offset=".15625"/><stop stop-color="#613b8c" offset=".171875"/><stop stop-color="#613c8c" offset=".1875"/><stop stop-color="#623d8d" offset=".203125"/><stop stop-color="#633e8d" offset=".21875"/><stop stop-color="#633f8d" offset=".234375"/><stop stop-color="#64408e" offset=".25"/><stop stop-color="#65418e" offset=".265625"/><stop stop-color="#65428e" offset=".28125"/><stop stop-color="#66438e" offset=".296875"/><stop stop-color="#66448f" offset=".3125"/><stop stop-color="#67458f" offset=".328125"/><stop stop-color="#68458f" offset=".34375"/><stop stop-color="#684690" offset=".359375"/><stop stop-color="#694790" offset=".375"/><stop stop-color="#694890" offset=".390625"/><stop stop-color="#6a4991" offset=".40625"/><stop stop-color="#6b4a91" offset=".421875"/><stop stop-color="#6b4b91" offset=".4375"/><stop stop-color="#6c4c91" offset=".453125"/><stop stop-color="#6c4d92" offset=".46875"/><stop stop-color="#6d4e92" offset=".484375"/><stop stop-color="#6e4f92" offset=".5"/><stop stop-color="#6e4f93" offset=".515625"/><stop stop-color="#6f5093" offset=".53125"/><stop stop-color="#705193" offset=".546875"/><stop stop-color="#705294" offset=".5625"/><stop stop-color="#715394" offset=".578125"/><stop stop-color="#715494" offset=".59375"/><stop stop-color="#725594" offset=".609375"/><stop stop-color="#735695" offset=".625"/><stop stop-color="#735795" offset=".640625"/><stop stop-color="#745895" offset=".65625"/><stop stop-color="#745996" offset=".671875"/><stop stop-color="#755a96" offset=".6875"/><stop stop-color="#765a96" offset=".703125"/><stop stop-color="#765b97" offset=".71875"/><stop stop-color="#775c97" offset=".734375"/><stop stop-color="#785d97" offset=".75"/><stop stop-color="#785e97" offset=".765625"/><stop stop-color="#795f98" offset=".78125"/><stop stop-color="#796098" offset=".796875"/><stop stop-color="#7a6198" offset=".8125"/><stop stop-color="#7b6299" offset=".828125"/><stop stop-color="#7b6399" offset=".84375"/><stop stop-color="#7c6499" offset=".859375"/><stop stop-color="#7c649a" offset=".875"/><stop stop-color="#7d659a" offset=".890625"/><stop stop-color="#7e669a" offset=".90625"/><stop stop-color="#7e679a" offset=".921875"/><stop stop-color="#7f689b" offset=".9375"/><stop stop-color="#7f699b" offset=".953125"/><stop stop-color="#806a9b" offset=".96875"/><stop stop-color="#806a9b" offset="1"/></linearGradient><clipPath id="h"><rect width="40" height="12"/></clipPath><clipPath id="g"><path d="m0.800781 0.589844h39.0586v11.2305h-39.0586z"/></clipPath><clipPath id="f"><path d="m700 3386h3v4h-3z"/></clipPath><clipPath id="e"><path d="m700.117 3387.93c0 0.6523 0.52734 1.1836 1.17578 1.1836s1.17187-0.5313 1.17187-1.1836c0-0.6524-0.52343-1.1836-1.17187-1.1836s-1.17578 0.5312-1.17578 1.1836"/></clipPath><linearGradient id="a" x1="-.0283213" x2="1.0028" gradientTransform="matrix(2.27809 0 0 -2.27809 700.182 3387.93)" gradientUnits="userSpaceOnUse"><stop stop-color="#ffd24e" offset="0"/><stop stop-color="#fed24e" offset=".03125"/><stop stop-color="#fed24e" offset=".046875"/><stop stop-color="#fed14d" offset=".0625"/><stop stop-color="#fed14c" offset=".078125"/><stop stop-color="#fed04b" offset=".09375"/><stop stop-color="#fecf4b" offset=".109375"/><stop stop-color="#fece4a" offset=".125"/><stop stop-color="#fecd49" offset=".140625"/><stop stop-color="#fdcd48" offset=".15625"/><stop stop-color="#fdcc47" offset=".171875"/><stop stop-color="#fdcb46" offset=".1875"/><stop stop-color="#fdca45" offset=".203125"/><stop stop-color="#fdca45" offset=".21875"/><stop stop-color="#fdc944" offset=".234375"/><stop stop-color="#fdc843" offset=".25"/><stop stop-color="#fcc742" offset=".265625"/><stop stop-color="#fcc641" offset=".28125"/><stop stop-color="#fcc640" offset=".296875"/><stop stop-color="#fcc53f" offset=".3125"/><stop stop-color="#fcc43f" offset=".328125"/><stop stop-color="#fcc33e" offset=".34375"/><stop stop-color="#fcc33d" offset=".359375"/><stop stop-color="#fbc23c" offset=".375"/><stop stop-color="#fbc13b" offset=".390625"/><stop stop-color="#fbc03a" offset=".40625"/><stop stop-color="#fbbf39" offset=".421875"/><stop stop-color="#fbbf39" offset=".4375"/><stop stop-color="#fbbe38" offset=".453125"/><stop stop-color="#fabd37" offset=".46875"/><stop stop-color="#fabc36" offset=".484375"/><stop stop-color="#fabc35" offset=".5"/><stop stop-color="#fabb34" offset=".515625"/><stop stop-color="#faba33" offset=".53125"/><stop stop-color="#fab933" offset=".546875"/><stop stop-color="#fab832" offset=".5625"/><stop stop-color="#f9b831" offset=".578125"/><stop stop-color="#f9b730" offset=".59375"/><stop stop-color="#f9b62f" offset=".609375"/><stop stop-color="#f9b52e" offset=".625"/><stop stop-color="#f9b52d" offset=".640625"/><stop stop-color="#f9b42d" offset=".65625"/><stop stop-color="#f9b32c" offset=".671875"/><stop stop-color="#f8b22b" offset=".6875"/><stop stop-color="#f8b12a" offset=".703125"/><stop stop-color="#f8b129" offset=".71875"/><stop stop-color="#f8b028" offset=".734375"/><stop stop-color="#f8af27" offset=".75"/><stop stop-color="#f8ae27" offset=".765625"/><stop stop-color="#f8ae26" offset=".78125"/><stop stop-color="#f7ad25" offset=".796875"/><stop stop-color="#f7ac24" offset=".8125"/><stop stop-color="#f7ab23" offset=".828125"/><stop stop-color="#f7ab22" offset=".84375"/><stop stop-color="#f7aa21" offset=".859375"/><stop stop-color="#f7a921" offset=".875"/><stop stop-color="#f7a820" offset=".890625"/><stop stop-color="#f6a71f" offset=".90625"/><stop stop-color="#f6a71e" offset=".921875"/><stop stop-color="#f6a61d" offset=".9375"/><stop stop-color="#f6a51c" offset=".953125"/><stop stop-color="#f6a41b" offset=".96875"/><stop stop-color="#f6a41b" offset=".984375"/><stop stop-color="#f6a31a" offset="1"/></linearGradient></defs><g transform="matrix(1.00475 0 0 1.00475 -212.928 -1074.38)"><path class="cls-375" d="m244.878 1076.48c-9.74896-5.3797-17.9766-9.9179-23.4063-5.2041-5.42967 4.7135 3.32141 8.1314 1.6289 12.1689-1.69248 4.0372-14.6259 8.8906-10.2968 17.4043 8.17389 16.0772 36.0854 5.4417 52.1103 12.1274 17.9571 7.4919 13.8873-25.7732 6.94608-30.8379-7.73852-5.6586-16.9739-0.1288-26.9821-5.6586z" fill="#f3f4fa" stroke-width=".263333"/><g transform="matrix(.404544 0 0 .404544 -37.0692 -288.215)" stroke-width=".867918"><g clip-path="url(#n)" stroke-width=".654638"><g clip-path="url(#m)" stroke-width=".49377"><path d="m672.41 3438.14v11.4922h47.6133v-11.4922z" fill="url(#d)"/></g></g><g clip-path="url(#l)" stroke-width=".654638"><g clip-path="url(#k)" stroke-width=".49377"><path d="m642.012 3372.4v67.9805h109.68v-67.9805z" fill="url(#c)"/></g></g><path d="m745.57 3434.57c0 0.9492-0.77734 1.7266-1.73047 1.7266h-94.6758c-0.94922 0-1.73047-0.7774-1.73047-1.7266l-0.77343-51.5273c0.0898-3.1016 2.80859-4.2149 4.45703-4.1485l92.5117-2.4804c0.88671-0.024 1.74218 0.3164 2.37109 0.9414 0.625 0.625 0.96875 1.4844 0.94531 2.3672z" fill="#f3f3f8"/><path d="m735.363 3415.38c0.17188 3.4727-2.5 6.4258-5.96875 6.6016l-26.4414 1.332c-3.46875 0.1758-6.42578-2.4961-6.59765-5.9688l-0.82422-16.2773c-0.17188-3.4727 2.5-6.4297 5.96875-6.6016l26.4414-1.332c3.46875-0.1758 6.42578 2.4961 6.60156 5.9649z" fill="#47b5a1"/><g clip-path="url(#j)" stroke-width=".654638"><g clip-path="url(#i)" stroke-width=".49377"><path d="m695.977 3430.5 42.8203-7.5508-6.11718-34.6953-42.8203 7.5508z" fill="url(#b)"/></g></g><g transform="matrix(.264583 0 0 .264583 694 3412)" clip-path="url(#h)" stroke-width=".867918"><g clip-path="url(#g)" stroke-width=".654638"><path d="m39.7656 0.730469c-1.21484 4.00391-5.00781 7.03516-9.33594 7.03516-0.148438 0-0.296876-0.011719-0.445313-0.019531-0.125 0.00391-0.246094 0.019531-0.371094 0.019531h-20.4141c-3.53516 0-6.69141-2-8.39844-4.90234v2.66406c0 3.47656 2.81641 6.29297 6.29297 6.29297h26.4727c3.47266 0 6.29297-2.81641 6.29297-6.29297v-4.93359c-0.03125 0.046875-0.06641 0.089844-0.09375 0.136719" fill="#634a91"/></g></g><g><path d="m735.684 3409.43c0 2.6094-2.11328 4.7266-4.72656 4.7266h-4.69922c-2.60937 0-4.72656-2.1172-4.72656-4.7305 0-2.6094 2.11719-4.7266 4.72656-4.7266h4.69922c2.61328 0 4.72656 2.1172 4.72656 4.7266z" fill="#573d7f"/><path d="m726.684 3409.38c0 1.043-0.84375 1.8906-1.89062 1.8906-1.04297 0-1.89063-0.8476-1.89063-1.8906s0.84766-1.8906 1.89063-1.8906c1.04687 0 1.89062 0.8476 1.89062 1.8906" fill="#f0f0f0"/><path d="m673.16 3391.12c-2.28125 0-4.54297 0.4492-6.65625 1.3242-2.10938 0.875-4.02735 2.1524-5.64063 3.7656-1.61719 1.6133-2.89844 3.5313-3.76953 5.6368-0.875 2.1093-1.32422 4.3671-1.32422 6.6484 4e-3 4.375 1.66016 8.5898 4.63672 11.7969 2.97656 3.207 7.05469 5.1758 11.4219 5.5156v-6.5625c-4.37109-0.6445-7.75-4.4297-7.75-8.9727 0-2.0312 0.67579-3.9101 1.8125-5.4218-0.65234 0.3047-1.39453 0.3945-2.02734 0.086-1.28125-0.6289-1.64844-3.5117-1.56641-5.5156 0.125 0 0.25391-0.01 0.38672-0.012 1.97266-0.02 4.54688 0.375 5.13672 1.5781 0.3086 0.6289 0.21875 1.3711-0.0898 2.0234 1.18359-0.8867 2.58984-1.4922 4.11328-1.7148-0.67188-0.2461-1.25391-0.7031-1.47656-1.3633-0.46485-1.3516 1.3164-3.6484 2.79297-5.0078 1.47656 1.3594 3.25781 3.6562 2.79687 5.0078-0.22656 0.6602-0.80859 1.1172-1.48047 1.3633 1.52735 0.2226 2.92969 0.8281 4.11328 1.7148-0.30468-0.6523-0.39453-1.3945-0.0859-2.0234 0.58984-1.2031 3.16406-1.5977 5.13671-1.5781 0.12891 0 0.25782 0.01 0.38672 0.012 0.0781 2.0039-0.28515 4.8867-1.57031 5.5156-0.62891 0.3086-1.37109 0.2188-2.02344-0.086 1.13672 1.5117 1.8086 3.3906 1.8086 5.4218 0 4.543-3.375 8.3282-7.75 8.9727v6.5703c4.37109-0.3359 8.44922-2.3047 11.4297-5.5156 2.97657-3.211 4.63282-7.4258 4.63282-11.8047 0-2.2813-0.44922-4.5391-1.32422-6.6484-0.875-2.1055-2.15625-4.0235-3.76953-5.6368-1.61719-1.6132-3.53125-2.8906-5.64453-3.7656-2.10938-0.875-4.3711-1.3242-6.65625-1.3242" fill="#75549c"/><path d="m673.16 3403.87c-3.5586 0-6.41407 2.8516-6.41407 6.4062 0 3.5547 2.85547 6.4102 6.41407 6.4102 3.55859 0 6.41796-2.8555 6.41796-6.4102 0-3.5546-2.85937-6.4062-6.41796-6.4062" fill="#75549c"/><path d="m677.059 3409.46-3.08203-3.0781c-0.44922-0.4492-1.17969-0.4492-1.6289 0l-3.08204 3.0781c-0.44921 0.4493-0.44921 1.1797 0 1.6289l3.08204 3.0743c0.44921 0.4531 1.17968 0.4531 1.6289 0l3.08203-3.0743c0.44922-0.4492 0.44922-1.1796 0-1.6289" fill="#fff"/></g><g fill="#d1d9eb"><path d="m656.336 3427.97c0.96093-0.3165 1.49218-1.3594 1.17968-2.3282-0.3164-0.9726-1.35156-1.5039-2.3125-1.1875-0.96484 0.3164-1.49218 1.3594-1.17968 2.3282 0.3125 0.9726 1.34765 1.5039 2.3125 1.1875"/><path d="m688.152 3385.42c0.65625-0.2149 1.01563-0.9219 0.80078-1.5821-0.21093-0.6601-0.91796-1.0195-1.57031-0.8085-0.65625 0.2148-1.01562 0.9257-0.80078 1.5859 0.21094 0.6601 0.91406 1.0195 1.57031 0.8047"/><path d="m737.707 3388.82c1.14063-1.0469 1.21875-2.8242 0.17969-3.9687-1.03906-1.1446-2.80469-1.2266-3.94141-0.1797-1.13672 1.0468-1.21484 2.8242-0.17578 3.9687 1.03906 1.1485 2.80078 1.2266 3.9375 0.1797"/><path d="m692.52 3430.39c0.48047-0.4375 0.51563-1.1875 0.0742-1.6719-0.43359-0.4804-1.17969-0.5156-1.65625-0.074-0.48047 0.4414-0.51172 1.1914-0.0742 1.6719 0.4375 0.4844 1.17969 0.5156 1.65625 0.074"/></g><g clip-path="url(#f)" stroke-width=".654638"><g clip-path="url(#e)" stroke-width=".49377"><path d="m700.117 3389.11v-2.3672h2.34765v2.3672z" fill="url(#a)"/></g></g><path d="m656.559 3390.6c0.48047-0.4414 0.51563-1.1914 0.0781-1.6719-0.4375-0.4844-1.17969-0.5156-1.66016-0.078-0.48047 0.4414-0.51172 1.1914-0.0742 1.6718 0.4375 0.4844 1.17969 0.5157 1.65625 0.078" fill="#6bc2c2"/><path d="m737.793 3427.08c0.48047-0.4375 0.51172-1.1875 0.0742-1.6679-0.4375-0.4844-1.17969-0.5196-1.66016-0.078-0.47656 0.4414-0.51172 1.1914-0.0703 1.6719 0.43359 0.4844 1.17578 0.5156 1.65625 0.074" fill="#5cb35e"/></g></g></svg>
