<svg width="250" height="170" version="1.1" viewBox="0 0 66.1458 44.9792" xmlns="http://www.w3.org/2000/svg" xmlns:xlink="http://www.w3.org/1999/xlink"><defs><linearGradient id="d" x1="653.82" x2="653.82" y1="217.7" y2="262.8" gradientTransform="matrix(.264583 0 0 .264583 199.647 1025.4)" gradientUnits="userSpaceOnUse"><stop stop-color="#b0d7e5" offset="0"/><stop stop-color="#58c3e8" offset="1"/></linearGradient><linearGradient id="c" x1="653.82" x2="653.82" y1="217.7" y2="262.8" gradientTransform="matrix(.264583 0 0 .264583 199.647 1025.4)" gradientUnits="userSpaceOnUse" xlink:href="#a"/><linearGradient id="a" x1="653.82" x2="653.82" y1="217.7" y2="262.8" gradientUnits="userSpaceOnUse"><stop stop-color="#93d1e8" offset="0"/><stop stop-color="#58c3e8" offset="1"/></linearGradient><linearGradient id="b" x1="643.496" x2="664.178" y1="238.97" y2="238.97" gradientUnits="userSpaceOnUse" xlink:href="#a"/></defs><g transform="matrix(1.00475 0 0 1.00475 -212.928 -1074.38)" stroke-width=".995276"><g transform="matrix(1.76488 0 0 1.76488 -412.638 -829.375)"><g stroke-width=".149208"><path class="cls-386" d="m372.553 1100.2a11.012 11.012 0 1 0-10.9273-11.0093 10.9696 10.9696 0 0 0 10.9273 11.0093z" fill="#e9edf9"/><path class="cls-386" d="m365.406 1100.45a0.264583 0.264583 0 0 1-0.13759-0.04l-0.2831-0.1932a0.246063 0.246063 0 0 1-0.0609-0.3466 0.264583 0.264583 0 0 1 0.34926-0.063l0.26458 0.1852a0.248708 0.248708 0 0 1-0.13758 0.4578zm15.3273-0.807a0.251354 0.251354 0 0 1-0.15875-0.4445c0.0847-0.069 0.16933-0.1376 0.25135-0.209a0.264583 0.264583 0 0 1 0.35455 0.026 0.248708 0.248708 0 0 1-0.0291 0.3519l-0.26458 0.2196a0.264583 0.264583 0 0 1-0.15346 0.056zm-17.1556-0.6456a0.264583 0.264583 0 0 1-0.17198-0.069l-0.24607-0.2328a0.251354 0.251354 0 0 1 0.35455-0.3546l0.23283 0.2276a0.251354 0.251354 0 0 1-0.17198 0.4339zm18.8278-0.9842a0.264583 0.264583 0 0 1-0.16405-0.061 0.248708 0.248708 0 0 1-0.0265-0.3519l0.20902-0.2513a0.251354 0.251354 0 1 1 0.38893 0.3148l-0.21695 0.2646a0.264583 0.264583 0 0 1-0.1905 0.085zm-20.3729-0.77a0.264583 0.264583 0 0 1-0.20373-0.1032l-0.19844-0.2778a0.246063 0.246063 0 0 1 0.0635-0.3466 0.264583 0.264583 0 0 1 0.34925 0.061c0.0609 0.09 0.12436 0.1799 0.1905 0.2646a0.248708 0.248708 0 0 1-0.0529 0.3492 0.243417 0.243417 0 0 1-0.14288 0.053zm21.7223-1.1324a0.238125 0.238125 0 0 1-0.12435-0.034 0.246063 0.246063 0 0 1-0.09-0.3413c0.0556-0.095 0.10848-0.1905 0.16139-0.2858a0.251354 0.251354 0 0 1 0.43921 0.2435c-0.0556 0.098-0.11112 0.1984-0.16933 0.2963a0.246063 0.246063 0 0 1-0.21167 0.1217zm-22.9262-0.8546a0.264583 0.264583 0 0 1-0.22489-0.1402c-0.0503-0.1032-0.0979-0.2064-0.14552-0.3096a0.249849 0.249849 0 0 1 0.45508-0.2064c0.045 0.098 0.0926 0.1958 0.14023 0.2937a0.264583 0.264583 0 0 1-0.11377 0.336 0.243417 0.243417 0 0 1-0.11113 0.026zm23.9316-1.2462a0.264583 0.264583 0 0 1-0.0873-0.016 0.248708 0.248708 0 0 1-0.14817-0.3201l0.11112-0.3096a0.251354 0.251354 0 0 1 0.47361 0.1614c-0.037 0.1059-0.0741 0.2143-0.11377 0.3202a0.264583 0.264583 0 0 1-0.23548 0.1534zm-24.7756-0.9445a0.264583 0.264583 0 0 1-0.24077-0.1826c-0.0291-0.1085-0.0608-0.217-0.0873-0.3281a0.249951 0.249951 0 1 1 0.48419-0.1243c0.0265 0.1058 0.0556 0.2116 0.0847 0.3148a0.246063 0.246063 0 0 1-0.17197 0.3096 0.198438 0.198438 0 0 1-0.0688 0.011zm25.3762-1.323h-0.045a0.264583 0.264583 0 0 1-0.20373-0.291c0.0185-0.1058 0.0371-0.2143 0.0529-0.3228a0.264583 0.264583 0 0 1 0.28575-0.2117 0.248708 0.248708 0 0 1 0.20902 0.2858c-0.0159 0.1138-0.0344 0.2249-0.0529 0.336a0.248708 0.248708 0 0 1-0.23812 0.2037zm-25.8128-0.971a0.248708 0.248708 0 0 1-0.24871-0.2249c0-0.1138-0.0212-0.2275-0.0291-0.3413a0.251354 0.251354 0 0 1 0.50006-0.034c0 0.1085 0.0185 0.217 0.0291 0.3254a0.248708 0.248708 0 0 1-0.2249 0.2646zm26.0112-1.3547a0.264583 0.264583 0 0 1-0.26458-0.2645v-0.3281a0.251354 0.251354 0 1 1 0.50006 0v0.3386a0.264583 0.264583 0 0 1-0.22754 0.254zm-26.0376-0.9816h-0.0185a0.264583 0.264583 0 0 1-0.23283-0.2645c0-0.1112 0.0185-0.2249 0.0317-0.3387a0.249975 0.249975 0 0 1 0.49742 0.05c0 0.1084-0.0212 0.2196-0.0291 0.328a0.264583 0.264583 0 0 1-0.24077 0.2249zm25.8286-1.344a0.248708 0.248708 0 0 1-0.24606-0.2064c-0.0212-0.1085-0.0397-0.2143-0.0635-0.3228a0.251354 0.251354 0 0 1 0.49212-0.1005c0.0212 0.1111 0.045 0.2222 0.0635 0.336a0.264583 0.264583 0 0 1-0.20108 0.291zm-25.4503-0.9578a0.240771 0.240771 0 0 1-0.0609 0 0.264583 0.264583 0 0 1-0.17991-0.3069c0.0265-0.1085 0.0556-0.2197 0.0873-0.3281a0.264583 0.264583 0 0 1 0.30956-0.172 0.248708 0.248708 0 0 1 0.17198 0.3096c-0.0291 0.1058-0.0582 0.209-0.0847 0.3148a0.264583 0.264583 0 0 1-0.23548 0.1826zm24.8338-1.2938a0.264583 0.264583 0 0 1-0.23548-0.1641c-0.037-0.1032-0.0767-0.2037-0.11906-0.3043a0.264583 0.264583 0 0 1 0.14023-0.328 0.264583 0.264583 0 0 1 0.32543 0.1402c0.0423 0.1058 0.0847 0.2117 0.12436 0.3175a0.264583 0.264583 0 0 1-0.23548 0.3387zm-24.0506-0.9076a0.246063 0.246063 0 0 1-0.10583-0.024 0.264583 0.264583 0 0 1-0.12171-0.3334c0.0476-0.1031 0.0953-0.2037 0.14552-0.3069a0.251354 0.251354 0 1 1 0.44979 0.2196c-0.0476 0.098-0.0953 0.1985-0.14022 0.2964a0.264583 0.264583 0 0 1-0.21961 0.1481zm23.0452-1.1985a0.264583 0.264583 0 0 1-0.21696-0.1244c-0.0556-0.093-0.11112-0.1852-0.16933-0.2646a0.264583 0.264583 0 0 1 0.0794-0.3466 0.248708 0.248708 0 0 1 0.34395 0.079c0.0609 0.095 0.12171 0.1932 0.17728 0.291a0.246063 0.246063 0 0 1-0.0873 0.3414 0.227542 0.227542 0 0 1-0.11906 0.024zm-21.8863-0.8308a0.264583 0.264583 0 0 1-0.14288-0.045 0.264583 0.264583 0 0 1-0.0609-0.3492l0.19579-0.2646a0.264583 0.264583 0 1 1 0.40481 0.2989l-0.1905 0.2646a0.246063 0.246063 0 0 1-0.19843 0.095zm20.5237-1.0584a0.264583 0.264583 0 0 1-0.1905-0.085c-0.0714-0.085-0.14288-0.1667-0.21696-0.2461a0.251354 0.251354 0 0 1 0.37306-0.336c0.0767 0.082 0.15082 0.1667 0.2249 0.2646a0.264583 0.264583 0 0 1-0.0265 0.3545 0.264583 0.264583 0 0 1-0.1561 0.04zm-19.0235-0.7249a0.251354 0.251354 0 0 1-0.17463-0.4286l0.24342-0.2355a0.249857 0.249857 0 0 1 0.34396 0.3625c-0.0794 0.074-0.15611 0.1508-0.23548 0.2302a0.248708 0.248708 0 0 1-0.16934 0.063zm17.3487-0.9022a0.243417 0.243417 0 0 1-0.15875-0.056l-0.26459-0.2037a0.251354 0.251354 0 0 1 0.30692-0.3969l0.26458 0.2117a0.264583 0.264583 0 0 1 0.0476 0.3439 0.243417 0.243417 0 0 1-0.18786 0.093zm-15.5549-0.5927a0.264583 0.264583 0 0 1-0.20637-0.1085 0.264583 0.264583 0 0 1 0.0635-0.3492l0.28046-0.1905a0.251354 0.251354 0 1 1 0.26458 0.4207l-0.26458 0.1825a0.264583 0.264583 0 0 1-0.12965 0.037zm13.634-0.7197a0.264583 0.264583 0 0 1-0.12171-0.032l-0.28839-0.1535a0.251354 0.251354 0 1 1 0.23018-0.4445l0.30163 0.1614a0.248708 0.248708 0 0 1-0.12171 0.4683zm-11.5888-0.4418a0.251354 0.251354 0 0 1-0.10583-0.4789l0.31221-0.1376a0.264583 0.264583 0 0 1 0.19579 0.463l-0.29898 0.1297a0.243417 0.243417 0 0 1-0.11113 0.024zm9.44827-0.4948a0.264583 0.264583 0 0 1-0.0794 0l-0.31221-0.1005a0.251354 0.251354 0 1 1 0.14552-0.4789l0.32544 0.1032a0.251354 0.251354 0 0 1-0.0794 0.4894zm-7.24694-0.2646a0.251354 0.251354 0 0 1-0.0609-0.4948l0.33338-0.077a0.249418 0.249418 0 1 1 0.10847 0.4869l-0.32014 0.077a0.224896 0.224896 0 0 1-0.0688 0zm4.97417-0.2646h-0.037l-0.32279-0.042a0.264583 0.264583 0 0 1-0.22225-0.2778 0.248708 0.248708 0 0 1 0.26458-0.2196l0.33867 0.042a0.246063 0.246063 0 0 1 0.21166 0.2831 0.264583 0.264583 0 0 1-0.24077 0.209zm-2.667-0.1005a0.264583 0.264583 0 0 1-0.0159-0.5027c0.11377 0 0.22754-0.013 0.34131-0.016a0.251354 0.251354 0 1 1 0.0185 0.5001l-0.32808 0.016z" fill="#e9edf9"/><path class="cls-391" d="m380.323 1080.03h-15.3114c-0.85366-0-1.54496 16.9123-1.54782 16.0586v1.7436c4e-3 1.8471 1.49985 3.3439 3.34698 3.3497h11.7078c1.84713-0.01 3.34266-1.5026 3.34698-3.3497v-1.7436c-3e-3 0.8516-0.69093-16.0644-1.54252-16.0586z" fill="#8d72b0"/><path class="cls-387" d="m367.658 1079.26h10.0039a4.21217 4.21217 0 0 1 3.79677 2.4209 4.21746 4.21746 0 0 0-4.01109-3.0321h-9.525a4.21217 4.21217 0 0 0-4.0296 3.0321 4.20688 4.20688 0 0 1 3.76502-2.4209z" fill="#c0b2d8"/><path class="cls-388" d="m381.469 1081.68a4.21217 4.21217 0 0 0-3.79677-2.4209h-10.0145a4.20688 4.20688 0 0 0-3.79412 2.4209 4.13544 4.13544 0 0 0-0.40482 1.778v4.4979h0.94192v-3.7041a4.21217 4.21217 0 0 1 4.19894-4.199h8.26029a4.21217 4.21217 0 0 1 4.19894 4.199v3.7041h0.79375v-4.4979a4.16983 4.16983 0 0 0-0.38365-1.778z" fill="#937ab6"/><path class="cls-389" d="m365.232 1084.27a3.175 3.175 0 0 1 3.175-3.175h8.46667a3.175 3.175 0 0 1 3.175 3.175v3.6751h1.02658v-3.7042a4.21217 4.21217 0 0 0-4.19894-4.1989h-8.26558a4.21217 4.21217 0 0 0-4.19894 4.1989v3.7042h0.82021z" fill="#7758a0"/><path class="cls-390" d="m376.868 1081.09h-8.46667a3.175 3.175 0 0 0-3.175 3.175v3.6751h14.8167v-3.6751a3.175 3.175 0 0 0-3.175-3.175z" fill="#4a1e2c"/><path class="cls-392" d="m381.069 1087.94h-17.6001v8.1359a1.5531 1.5531 0 0 0 1.54252 1.5532h15.3061a1.5531 1.5531 0 0 0 1.54782-1.5479v-8.1412zm-0.88635 0v3.7888c0 2.3019-0.41275 4.1858-2.71463 4.1858h-10.1415c-2.30187 0-2.09021-1.8839-2.09021-4.1858v-3.7782z" fill="#a997c8"/><path class="cls-393" d="m365.237 1091.73c0 2.3019-0.21166 4.1858 2.09021 4.1858h10.1415c2.30188 0 2.71463-1.8839 2.71463-4.1858v-3.7782h-14.9463zm12.8984 1.7542c0 0.8784-2.46062 1.5875-5.49275 1.5875-3.03212 0-5.4901-0.7117-5.4901-1.5875 0-0.8757 2.45798-1.5875 5.4901-1.5875 3.03213 0 5.49275 0.7065 5.49275 1.5875z" fill="#e3e2db"/><ellipse class="cls-394" cx="372.642" cy="1093.49" rx="5.4901" ry="1.59015" fill="#dcd9c8"/><circle class="cls-395" cx="372.637" cy="1088.97" r="5.96635" fill="url(#d)"/><path class="cls-396" d="m377.183 1085.11a4.90802 4.90802 0 0 1 0.52917 2.1855 5.05883 5.05883 0 1 1-10.115 0 4.91067 4.91067 0 0 1 0.55562-2.249 5.96635 5.96635 0 1 0 9.03552 0.063z" fill="url(#c)" opacity=".2" style="mix-blend-mode:multiply"/></g><g class="cls-397" transform="matrix(.264583 0 0 .264583 199.647 1025.4)" stroke-width=".563935" style="mix-blend-mode:multiply"><path class="cls-398" d="m653.81 255.32a0.53 0.53 0 0 1-0.32-0.12l-0.06-0.06-9.82-14.5a0.5 0.5 0 0 1 0.07-0.63 0.49 0.49 0 0 1 0.63-0.06l9.54 6.63 9.56-6.64a0.5 0.5 0 0 1 0.69 0.69l-9.83 14.51-0.05 0.06a0.53 0.53 0 0 1-0.32 0.12zm0.5-7.93v5.81l7.43-11zm-8.41-5.14 7.41 10.94v-5.8zm7.92 3.1a0.53 0.53 0 0 1-0.28-0.1l-9.83-6.75a0.49 0.49 0 0 1-0.13-0.68l9.82-15a0.18 0.18 0 0 1 0.05-0.07 0.49 0.49 0 0 1 0.33-0.13 0.53 0.53 0 0 1 0.33 0.12 0.12 0.12 0 0 0 0.05 0.05v0.05l9.84 15a0.49 0.49 0 0 1-0.14 0.68l-9.82 6.75a0.56 0.56 0 0 1-0.28 0.1zm0.49-20.62v19.17l8.69-5.9zm-9.64 13.27 8.65 5.94v-19.21zm16.39-0.14h-0.18l-5.08-2a0.51 0.51 0 0 1-0.27-0.65 0.5 0.5 0 0 1 0.65-0.28l5.07 2a0.508945 0.508945 0 0 1-0.19 1zm-14.49 0a0.51 0.51 0 0 1-0.46-0.31 0.5 0.5 0 0 1 0.28-0.65l5.06-2a0.50045 0.50045 0 1 1 0.37 0.93l-5.06 2a0.58 0.58 0 0 1-0.19-0.01z" fill="url(#b)" stroke-width=".563935"/></g><g transform="matrix(.264583 0 0 .264583 199.647 1025.4)" fill="#f2f2f2" stroke-width=".563935" style="mix-blend-mode:overlay"><path class="cls-400" d="m654.21 275.8-0.28 0.17-1.09 0.68-0.23 0.14-3.74 2.33 3.74 2.33 0.24 0.14 1.36 0.85 1.35-0.84a1.58 1.58 0 0 0 0.24-0.15l3.74-2.32-3.74-2.33-0.23-0.14zm0 1.09a2.23 2.23 0 1 1-2.23 2.23 2.22 2.22 0 0 1 2.23-2.23zm-2.64 1.24a2.81 2.81 0 0 0 0 2l-1.6-1zm5.28 0 1.6 1-1.6 1a2.67 2.67 0 0 0 0-2z"/><path class="cls-400" d="m660.1 279.65a1 1 0 0 0-0.55 0.16l-4.79 3a1 1 0 0 0 0.51 0.13 1.11 1.11 0 0 0 0.55-0.16l0.94-0.59 3.85-2.39a1 1 0 0 0-0.51-0.12z"/><path class="cls-400" d="m653.1 275.3a1.11 1.11 0 0 0-0.55 0.16l-0.94 0.58-3.85 2.39a1 1 0 0 0 1.11 0l4.79-3a0.9 0.9 0 0 0-0.51-0.13z"/></g></g></g></svg>
