<svg width="895" height="317" viewBox="0 0 895 317" fill="none" xmlns="http://www.w3.org/2000/svg">
<path opacity="0.99" d="M77.2148 176.301L39.8727 153.835L2 132.276L2.78507 88.7036L2.51988 45.1251L40.6471 24.0189L78.2545 2L115.597 24.466L153.469 46.0256L152.684 89.5978L152.949 133.176L114.822 154.283L77.2148 176.301Z" fill="#6600DE" stroke="black" stroke-width="2"/>
<path opacity="0.99" d="M161.215 316.301L123.873 293.835L86 272.276L86.7851 228.704L86.5199 185.125L124.647 164.019L162.255 142L199.597 164.466L237.469 186.026L236.684 229.598L236.949 273.176L198.822 294.283L161.215 316.301Z" fill="#CBD5DD" stroke="black"/>
<path opacity="0.99" d="M326.215 315.301L288.873 292.835L251 271.276L251.785 227.704L251.52 184.125L289.647 163.019L327.255 141L364.597 163.466L402.469 185.026L401.684 228.598L401.949 272.176L363.822 293.283L326.215 315.301Z" fill="#CBD5DD" stroke="black"/>
<path opacity="0.99" d="M489.523 315.535L452.181 293.069L414.308 271.509L415.093 227.937L414.828 184.359L452.955 163.252L490.563 141.233L527.905 163.699L565.777 185.259L564.992 228.831L565.258 272.41L527.13 293.516L489.523 315.535Z" fill="#1F236A" stroke="#1A1A1A"/>
<path opacity="0.99" d="M574.215 176.301L536.873 153.835L499 132.276L499.785 88.7036L499.52 45.1251L537.647 24.0189L575.255 2L612.597 24.466L650.469 46.0256L649.684 89.5978L649.949 133.176L611.822 154.283L574.215 176.301Z" fill="#1F236A" stroke="black"/>
<path opacity="0.99" d="M738.215 176.301L700.873 153.835L663 132.276L663.785 88.7036L663.52 45.1251L701.647 24.0189L739.255 2L776.597 24.466L814.469 46.0256L813.684 89.5978L813.949 133.176L775.822 154.283L738.215 176.301Z" fill="#1F236A" stroke="black"/>
<path opacity="0.99" d="M818.215 316.301L780.873 293.835L743 272.276L743.785 228.704L743.52 185.125L781.647 164.019L819.255 142L856.597 164.466L894.469 186.026L893.684 229.598L893.949 273.176L855.822 294.283L818.215 316.301Z" fill="#CBD5DD" stroke="black"/>
<path d="M51.4854 98V85.2031H55.6689C57.0576 85.2031 58.1006 85.4902 58.7979 86.0645C59.501 86.6387 59.8525 87.4883 59.8525 88.6133C59.8525 89.2109 59.6826 89.7412 59.3428 90.2041C59.0029 90.6611 58.54 91.0156 57.9541 91.2676C58.6455 91.4609 59.1904 91.8301 59.5889 92.375C59.9932 92.9141 60.1953 93.5586 60.1953 94.3086C60.1953 95.457 59.8232 96.3594 59.0791 97.0156C58.335 97.6719 57.2832 98 55.9238 98H51.4854ZM53.1729 92.0146V96.6201H55.959C56.7441 96.6201 57.3623 96.418 57.8135 96.0137C58.2705 95.6035 58.499 95.041 58.499 94.3262C58.499 92.7852 57.6611 92.0146 55.9854 92.0146H53.1729ZM53.1729 90.6611H55.7217C56.46 90.6611 57.0488 90.4766 57.4883 90.1074C57.9336 89.7383 58.1562 89.2373 58.1562 88.6045C58.1562 87.9014 57.9512 87.3916 57.541 87.0752C57.1309 86.7529 56.5068 86.5918 55.6689 86.5918H53.1729V90.6611ZM64.3965 96.6201H70.4609V98H62.7002V85.2031H64.3965V96.6201ZM81.6494 92.0146C81.6494 93.2686 81.4385 94.3643 81.0166 95.3018C80.5947 96.2334 79.9971 96.9453 79.2236 97.4375C78.4502 97.9297 77.5479 98.1758 76.5166 98.1758C75.5088 98.1758 74.6152 97.9297 73.8359 97.4375C73.0566 96.9395 72.4502 96.2334 72.0166 95.3193C71.5889 94.3994 71.3691 93.3359 71.3574 92.1289V91.2061C71.3574 89.9756 71.5713 88.8887 71.999 87.9453C72.4268 87.002 73.0303 86.2812 73.8096 85.7832C74.5947 85.2793 75.4912 85.0273 76.499 85.0273C77.5244 85.0273 78.4268 85.2764 79.2061 85.7744C79.9912 86.2666 80.5947 86.9844 81.0166 87.9277C81.4385 88.8652 81.6494 89.958 81.6494 91.2061V92.0146ZM79.9707 91.1885C79.9707 89.6709 79.666 88.5078 79.0566 87.6992C78.4473 86.8848 77.5947 86.4775 76.499 86.4775C75.4326 86.4775 74.5918 86.8848 73.9766 87.6992C73.3672 88.5078 73.0537 89.6328 73.0361 91.0742V92.0146C73.0361 93.4854 73.3438 94.6426 73.959 95.4863C74.5801 96.3242 75.4326 96.7432 76.5166 96.7432C77.6064 96.7432 78.4502 96.3477 79.0479 95.5566C79.6455 94.7598 79.9531 93.6201 79.9707 92.1377V91.1885ZM93.5938 93.9395C93.4355 95.293 92.9346 96.3389 92.0908 97.0771C91.2529 97.8096 90.1367 98.1758 88.7422 98.1758C87.2305 98.1758 86.0176 97.6338 85.1035 96.5498C84.1953 95.4658 83.7412 94.0156 83.7412 92.1992V90.9688C83.7412 89.7793 83.9521 88.7334 84.374 87.8311C84.8018 86.9287 85.4053 86.2373 86.1846 85.7568C86.9639 85.2705 87.8662 85.0273 88.8916 85.0273C90.251 85.0273 91.3408 85.4082 92.1611 86.1699C92.9814 86.9258 93.459 87.9746 93.5938 89.3164H91.8975C91.751 88.2969 91.4316 87.5586 90.9395 87.1016C90.4531 86.6445 89.7705 86.416 88.8916 86.416C87.8135 86.416 86.9668 86.8145 86.3516 87.6113C85.7422 88.4082 85.4375 89.542 85.4375 91.0127V92.252C85.4375 93.6406 85.7275 94.7451 86.3076 95.5654C86.8877 96.3857 87.6992 96.7959 88.7422 96.7959C89.6797 96.7959 90.3975 96.585 90.8955 96.1631C91.3994 95.7354 91.7334 94.9941 91.8975 93.9395H93.5938ZM99.1572 92.0498L97.5928 93.6758V98H95.9053V85.2031H97.5928V91.5312L103.279 85.2031H105.318L100.282 90.8545L105.714 98H103.692L99.1572 92.0498Z" fill="white"/>
<path d="M134.977 234.767V221.97H139.16C140.549 221.97 141.592 222.257 142.289 222.831C142.992 223.405 143.344 224.255 143.344 225.38C143.344 225.978 143.174 226.508 142.834 226.971C142.494 227.428 142.031 227.782 141.445 228.034C142.137 228.228 142.682 228.597 143.08 229.142C143.484 229.681 143.687 230.325 143.687 231.075C143.687 232.224 143.314 233.126 142.57 233.782C141.826 234.438 140.774 234.767 139.415 234.767H134.977ZM136.664 228.781V233.387H139.45C140.235 233.387 140.854 233.185 141.305 232.78C141.762 232.37 141.99 231.808 141.99 231.093C141.99 229.552 141.152 228.781 139.477 228.781H136.664ZM136.664 227.428H139.213C139.951 227.428 140.54 227.243 140.979 226.874C141.425 226.505 141.647 226.004 141.647 225.371C141.647 224.668 141.442 224.158 141.032 223.842C140.622 223.52 139.998 223.358 139.16 223.358H136.664V227.428ZM147.888 233.387H153.952V234.767H146.191V221.97H147.888V233.387ZM165.141 228.781C165.141 230.035 164.93 231.131 164.508 232.068C164.086 233 163.488 233.712 162.715 234.204C161.941 234.696 161.039 234.942 160.008 234.942C159 234.942 158.106 234.696 157.327 234.204C156.548 233.706 155.941 233 155.508 232.086C155.08 231.166 154.86 230.103 154.849 228.896V227.973C154.849 226.742 155.062 225.655 155.49 224.712C155.918 223.769 156.521 223.048 157.301 222.55C158.086 222.046 158.982 221.794 159.99 221.794C161.016 221.794 161.918 222.043 162.697 222.541C163.482 223.033 164.086 223.751 164.508 224.694C164.93 225.632 165.141 226.725 165.141 227.973V228.781ZM163.462 227.955C163.462 226.438 163.157 225.274 162.548 224.466C161.938 223.651 161.086 223.244 159.99 223.244C158.924 223.244 158.083 223.651 157.468 224.466C156.858 225.274 156.545 226.399 156.527 227.841V228.781C156.527 230.252 156.835 231.409 157.45 232.253C158.071 233.091 158.924 233.51 160.008 233.51C161.098 233.51 161.941 233.114 162.539 232.323C163.137 231.526 163.444 230.387 163.462 228.904V227.955ZM177.085 230.706C176.927 232.06 176.426 233.105 175.582 233.844C174.744 234.576 173.628 234.942 172.233 234.942C170.722 234.942 169.509 234.4 168.595 233.316C167.687 232.232 167.232 230.782 167.232 228.966V227.735C167.232 226.546 167.443 225.5 167.865 224.598C168.293 223.695 168.896 223.004 169.676 222.523C170.455 222.037 171.357 221.794 172.383 221.794C173.742 221.794 174.832 222.175 175.652 222.937C176.473 223.692 176.95 224.741 177.085 226.083H175.389C175.242 225.063 174.923 224.325 174.431 223.868C173.944 223.411 173.262 223.183 172.383 223.183C171.305 223.183 170.458 223.581 169.843 224.378C169.233 225.175 168.929 226.309 168.929 227.779V229.019C168.929 230.407 169.219 231.512 169.799 232.332C170.379 233.152 171.19 233.562 172.233 233.562C173.171 233.562 173.889 233.352 174.387 232.93C174.891 232.502 175.225 231.761 175.389 230.706H177.085ZM182.648 228.816L181.084 230.442V234.767H179.396V221.97H181.084V228.298L186.771 221.97H188.81L183.773 227.621L189.205 234.767H187.184L182.648 228.816Z" fill="#1F236A"/>
<path d="M300.577 233.767V220.97H304.76C306.149 220.97 307.192 221.257 307.889 221.831C308.592 222.405 308.944 223.255 308.944 224.38C308.944 224.978 308.774 225.508 308.434 225.971C308.094 226.428 307.631 226.782 307.045 227.034C307.737 227.228 308.282 227.597 308.68 228.142C309.084 228.681 309.287 229.325 309.287 230.075C309.287 231.224 308.915 232.126 308.17 232.782C307.426 233.438 306.375 233.767 305.015 233.767H300.577ZM302.264 227.781V232.387H305.05C305.835 232.387 306.454 232.185 306.905 231.78C307.362 231.37 307.59 230.808 307.59 230.093C307.59 228.552 306.752 227.781 305.077 227.781H302.264ZM302.264 226.428H304.813C305.551 226.428 306.14 226.243 306.58 225.874C307.025 225.505 307.248 225.004 307.248 224.371C307.248 223.668 307.042 223.158 306.632 222.842C306.222 222.52 305.598 222.358 304.76 222.358H302.264V226.428ZM313.488 232.387H319.552V233.767H311.792V220.97H313.488V232.387ZM330.741 227.781C330.741 229.035 330.53 230.131 330.108 231.068C329.686 232 329.088 232.712 328.315 233.204C327.542 233.696 326.639 233.942 325.608 233.942C324.6 233.942 323.707 233.696 322.927 233.204C322.148 232.706 321.542 232 321.108 231.086C320.68 230.166 320.46 229.103 320.449 227.896V226.973C320.449 225.742 320.663 224.655 321.09 223.712C321.518 222.769 322.122 222.048 322.901 221.55C323.686 221.046 324.583 220.794 325.59 220.794C326.616 220.794 327.518 221.043 328.297 221.541C329.083 222.033 329.686 222.751 330.108 223.694C330.53 224.632 330.741 225.725 330.741 226.973V227.781ZM329.062 226.955C329.062 225.438 328.757 224.274 328.148 223.466C327.539 222.651 326.686 222.244 325.59 222.244C324.524 222.244 323.683 222.651 323.068 223.466C322.458 224.274 322.145 225.399 322.127 226.841V227.781C322.127 229.252 322.435 230.409 323.05 231.253C323.671 232.091 324.524 232.51 325.608 232.51C326.698 232.51 327.542 232.114 328.139 231.323C328.737 230.526 329.044 229.387 329.062 227.904V226.955ZM342.685 229.706C342.527 231.06 342.026 232.105 341.182 232.844C340.344 233.576 339.228 233.942 337.833 233.942C336.322 233.942 335.109 233.4 334.195 232.316C333.287 231.232 332.833 229.782 332.833 227.966V226.735C332.833 225.546 333.043 224.5 333.465 223.598C333.893 222.695 334.497 222.004 335.276 221.523C336.055 221.037 336.958 220.794 337.983 220.794C339.342 220.794 340.432 221.175 341.252 221.937C342.073 222.692 342.55 223.741 342.685 225.083H340.989C340.842 224.063 340.523 223.325 340.031 222.868C339.544 222.411 338.862 222.183 337.983 222.183C336.905 222.183 336.058 222.581 335.443 223.378C334.833 224.175 334.529 225.309 334.529 226.779V228.019C334.529 229.407 334.819 230.512 335.399 231.332C335.979 232.152 336.791 232.562 337.833 232.562C338.771 232.562 339.489 232.352 339.987 231.93C340.491 231.502 340.825 230.761 340.989 229.706H342.685ZM348.249 227.816L346.684 229.442V233.767H344.997V220.97H346.684V227.298L352.371 220.97H354.41L349.374 226.621L354.805 233.767H352.784L348.249 227.816Z" fill="#1F236A"/>
<path d="M463.485 231V218.203H467.669C469.058 218.203 470.101 218.49 470.798 219.064C471.501 219.639 471.853 220.488 471.853 221.613C471.853 222.211 471.683 222.741 471.343 223.204C471.003 223.661 470.54 224.016 469.954 224.268C470.646 224.461 471.19 224.83 471.589 225.375C471.993 225.914 472.195 226.559 472.195 227.309C472.195 228.457 471.823 229.359 471.079 230.016C470.335 230.672 469.283 231 467.924 231H463.485ZM465.173 225.015V229.62H467.959C468.744 229.62 469.362 229.418 469.813 229.014C470.271 228.604 470.499 228.041 470.499 227.326C470.499 225.785 469.661 225.015 467.985 225.015H465.173ZM465.173 223.661H467.722C468.46 223.661 469.049 223.477 469.488 223.107C469.934 222.738 470.156 222.237 470.156 221.604C470.156 220.901 469.951 220.392 469.541 220.075C469.131 219.753 468.507 219.592 467.669 219.592H465.173V223.661ZM476.396 229.62H482.461V231H474.7V218.203H476.396V229.62ZM493.649 225.015C493.649 226.269 493.438 227.364 493.017 228.302C492.595 229.233 491.997 229.945 491.224 230.438C490.45 230.93 489.548 231.176 488.517 231.176C487.509 231.176 486.615 230.93 485.836 230.438C485.057 229.939 484.45 229.233 484.017 228.319C483.589 227.399 483.369 226.336 483.357 225.129V224.206C483.357 222.976 483.571 221.889 483.999 220.945C484.427 220.002 485.03 219.281 485.81 218.783C486.595 218.279 487.491 218.027 488.499 218.027C489.524 218.027 490.427 218.276 491.206 218.774C491.991 219.267 492.595 219.984 493.017 220.928C493.438 221.865 493.649 222.958 493.649 224.206V225.015ZM491.971 224.188C491.971 222.671 491.666 221.508 491.057 220.699C490.447 219.885 489.595 219.478 488.499 219.478C487.433 219.478 486.592 219.885 485.977 220.699C485.367 221.508 485.054 222.633 485.036 224.074V225.015C485.036 226.485 485.344 227.643 485.959 228.486C486.58 229.324 487.433 229.743 488.517 229.743C489.606 229.743 490.45 229.348 491.048 228.557C491.646 227.76 491.953 226.62 491.971 225.138V224.188ZM505.594 226.939C505.436 228.293 504.935 229.339 504.091 230.077C503.253 230.81 502.137 231.176 500.742 231.176C499.23 231.176 498.018 230.634 497.104 229.55C496.195 228.466 495.741 227.016 495.741 225.199V223.969C495.741 222.779 495.952 221.733 496.374 220.831C496.802 219.929 497.405 219.237 498.185 218.757C498.964 218.271 499.866 218.027 500.892 218.027C502.251 218.027 503.341 218.408 504.161 219.17C504.981 219.926 505.459 220.975 505.594 222.316H503.897C503.751 221.297 503.432 220.559 502.939 220.102C502.453 219.645 501.771 219.416 500.892 219.416C499.813 219.416 498.967 219.814 498.352 220.611C497.742 221.408 497.438 222.542 497.438 224.013V225.252C497.438 226.641 497.728 227.745 498.308 228.565C498.888 229.386 499.699 229.796 500.742 229.796C501.68 229.796 502.397 229.585 502.896 229.163C503.399 228.735 503.733 227.994 503.897 226.939H505.594ZM511.157 225.05L509.593 226.676V231H507.905V218.203H509.593V224.531L515.279 218.203H517.318L512.282 223.854L517.714 231H515.692L511.157 225.05Z" fill="white"/>
<path d="M548.668 99.5349V86.738H552.852C554.241 86.738 555.284 87.0251 555.981 87.5994C556.684 88.1736 557.036 89.0232 557.036 90.1482C557.036 90.7458 556.866 91.2761 556.526 91.739C556.186 92.196 555.723 92.5505 555.137 92.8025C555.829 92.9958 556.374 93.365 556.772 93.9099C557.176 94.449 557.378 95.0935 557.378 95.8435C557.378 96.9919 557.006 97.8943 556.262 98.5505C555.518 99.2068 554.466 99.5349 553.107 99.5349H548.668ZM550.356 93.5496V98.155H553.142C553.927 98.155 554.545 97.9529 554.997 97.5486C555.454 97.1384 555.682 96.5759 555.682 95.8611C555.682 94.3201 554.844 93.5496 553.168 93.5496H550.356ZM550.356 92.196H552.905C553.643 92.196 554.232 92.0115 554.671 91.6423C555.117 91.2732 555.339 90.7722 555.339 90.1394C555.339 89.4363 555.134 88.9265 554.724 88.6101C554.314 88.2878 553.69 88.1267 552.852 88.1267H550.356V92.196ZM561.58 98.155H567.644V99.5349H559.883V86.738H561.58V98.155ZM578.833 93.5496C578.833 94.8035 578.622 95.8992 578.2 96.8367C577.778 97.7683 577.18 98.4802 576.407 98.9724C575.633 99.4646 574.731 99.7107 573.7 99.7107C572.692 99.7107 571.798 99.4646 571.019 98.9724C570.24 98.4744 569.633 97.7683 569.2 96.8542C568.772 95.9343 568.552 94.8708 568.541 93.6638V92.741C568.541 91.5105 568.754 90.4236 569.182 89.4802C569.61 88.5369 570.213 87.8162 570.993 87.3181C571.778 86.8142 572.674 86.5623 573.682 86.5623C574.708 86.5623 575.61 86.8113 576.389 87.3093C577.174 87.8015 577.778 88.5193 578.2 89.4626C578.622 90.4001 578.833 91.4929 578.833 92.741V93.5496ZM577.154 92.7234C577.154 91.2058 576.849 90.0427 576.24 89.2341C575.63 88.4197 574.778 88.0125 573.682 88.0125C572.616 88.0125 571.775 88.4197 571.16 89.2341C570.55 90.0427 570.237 91.1677 570.219 92.6091V93.5496C570.219 95.0203 570.527 96.1775 571.142 97.0212C571.763 97.8591 572.616 98.2781 573.7 98.2781C574.79 98.2781 575.633 97.8826 576.231 97.0916C576.829 96.2947 577.136 95.155 577.154 93.6726V92.7234ZM590.777 95.4744C590.619 96.8279 590.118 97.8738 589.274 98.6121C588.436 99.3445 587.32 99.7107 585.925 99.7107C584.414 99.7107 583.201 99.1687 582.287 98.0847C581.378 97.0007 580.924 95.5505 580.924 93.7341V92.5037C580.924 91.3142 581.135 90.2683 581.557 89.366C581.985 88.4636 582.588 87.7722 583.368 87.2917C584.147 86.8054 585.049 86.5623 586.075 86.5623C587.434 86.5623 588.524 86.9431 589.344 87.7048C590.165 88.4607 590.642 89.5095 590.777 90.8513H589.081C588.934 89.8318 588.615 89.0935 588.123 88.6365C587.636 88.1794 586.954 87.9509 586.075 87.9509C584.997 87.9509 584.15 88.3494 583.535 89.1462C582.925 89.9431 582.621 91.0769 582.621 92.5476V93.7869C582.621 95.1755 582.911 96.28 583.491 97.1003C584.071 97.9207 584.882 98.3308 585.925 98.3308C586.863 98.3308 587.581 98.1199 588.079 97.698C588.583 97.2703 588.917 96.5291 589.081 95.4744H590.777ZM596.34 93.5847L594.776 95.2107V99.5349H593.088V86.738H594.776V93.0662L600.462 86.738H602.501L597.465 92.3894L602.897 99.5349H600.875L596.34 93.5847Z" fill="white"/>
<path d="M712.269 97.5349V84.738H716.452C717.841 84.738 718.884 85.0251 719.581 85.5994C720.284 86.1736 720.636 87.0232 720.636 88.1482C720.636 88.7458 720.466 89.2761 720.126 89.739C719.786 90.196 719.323 90.5505 718.737 90.8025C719.429 90.9958 719.974 91.365 720.372 91.9099C720.776 92.449 720.979 93.0935 720.979 93.8435C720.979 94.9919 720.606 95.8943 719.862 96.5505C719.118 97.2068 718.066 97.5349 716.707 97.5349H712.269ZM713.956 91.5496V96.155H716.742C717.527 96.155 718.146 95.9529 718.597 95.5486C719.054 95.1384 719.282 94.5759 719.282 93.8611C719.282 92.3201 718.444 91.5496 716.769 91.5496H713.956ZM713.956 90.196H716.505C717.243 90.196 717.832 90.0115 718.271 89.6423C718.717 89.2732 718.939 88.7722 718.939 88.1394C718.939 87.4363 718.734 86.9265 718.324 86.6101C717.914 86.2878 717.29 86.1267 716.452 86.1267H713.956V90.196ZM725.18 96.155H731.244V97.5349H723.483V84.738H725.18V96.155ZM742.433 91.5496C742.433 92.8035 742.222 93.8992 741.8 94.8367C741.378 95.7683 740.78 96.4802 740.007 96.9724C739.233 97.4646 738.331 97.7107 737.3 97.7107C736.292 97.7107 735.398 97.4646 734.619 96.9724C733.84 96.4744 733.233 95.7683 732.8 94.8542C732.372 93.9343 732.152 92.8708 732.141 91.6638V90.741C732.141 89.5105 732.354 88.4236 732.782 87.4802C733.21 86.5369 733.813 85.8162 734.593 85.3181C735.378 84.8142 736.274 84.5623 737.282 84.5623C738.308 84.5623 739.21 84.8113 739.989 85.3093C740.774 85.8015 741.378 86.5193 741.8 87.4626C742.222 88.4001 742.433 89.4929 742.433 90.741V91.5496ZM740.754 90.7234C740.754 89.2058 740.449 88.0427 739.84 87.2341C739.23 86.4197 738.378 86.0125 737.282 86.0125C736.216 86.0125 735.375 86.4197 734.76 87.2341C734.15 88.0427 733.837 89.1677 733.819 90.6091V91.5496C733.819 93.0203 734.127 94.1775 734.742 95.0212C735.363 95.8591 736.216 96.2781 737.3 96.2781C738.39 96.2781 739.233 95.8826 739.831 95.0916C740.429 94.2947 740.736 93.155 740.754 91.6726V90.7234ZM754.377 93.4744C754.219 94.8279 753.718 95.8738 752.874 96.6121C752.036 97.3445 750.92 97.7107 749.525 97.7107C748.014 97.7107 746.801 97.1687 745.887 96.0847C744.979 95.0007 744.524 93.5505 744.524 91.7341V90.5037C744.524 89.3142 744.735 88.2683 745.157 87.366C745.585 86.4636 746.188 85.7722 746.968 85.2917C747.747 84.8054 748.649 84.5623 749.675 84.5623C751.034 84.5623 752.124 84.9431 752.944 85.7048C753.765 86.4607 754.242 87.5095 754.377 88.8513H752.681C752.534 87.8318 752.215 87.0935 751.723 86.6365C751.236 86.1794 750.554 85.9509 749.675 85.9509C748.597 85.9509 747.75 86.3494 747.135 87.1462C746.525 87.9431 746.221 89.0769 746.221 90.5476V91.7869C746.221 93.1755 746.511 94.28 747.091 95.1003C747.671 95.9207 748.482 96.3308 749.525 96.3308C750.463 96.3308 751.181 96.1199 751.679 95.698C752.183 95.2703 752.517 94.5291 752.681 93.4744H754.377ZM759.94 91.5847L758.376 93.2107V97.5349H756.688V84.738H758.376V91.0662L764.062 84.738H766.102L761.065 90.3894L766.497 97.5349H764.476L759.94 91.5847Z" fill="white"/>
<path d="M791.76 231V218.203H795.943C797.332 218.203 798.375 218.49 799.072 219.064C799.775 219.639 800.127 220.488 800.127 221.613C800.127 222.211 799.957 222.741 799.617 223.204C799.277 223.661 798.814 224.016 798.229 224.268C798.92 224.461 799.465 224.83 799.863 225.375C800.268 225.914 800.47 226.559 800.47 227.309C800.47 228.457 800.098 229.359 799.354 230.016C798.609 230.672 797.558 231 796.198 231H791.76ZM793.447 225.015V229.62H796.233C797.019 229.62 797.637 229.418 798.088 229.014C798.545 228.604 798.773 228.041 798.773 227.326C798.773 225.785 797.936 225.015 796.26 225.015H793.447ZM793.447 223.661H795.996C796.734 223.661 797.323 223.477 797.763 223.107C798.208 222.738 798.431 222.237 798.431 221.604C798.431 220.901 798.226 220.392 797.815 220.075C797.405 219.753 796.781 219.592 795.943 219.592H793.447V223.661ZM804.671 229.62H810.735V231H802.975V218.203H804.671V229.62ZM821.924 225.015C821.924 226.269 821.713 227.364 821.291 228.302C820.869 229.233 820.271 229.945 819.498 230.438C818.725 230.93 817.822 231.176 816.791 231.176C815.783 231.176 814.89 230.93 814.11 230.438C813.331 229.939 812.725 229.233 812.291 228.319C811.863 227.399 811.644 226.336 811.632 225.129V224.206C811.632 222.976 811.846 221.889 812.273 220.945C812.701 220.002 813.305 219.281 814.084 218.783C814.869 218.279 815.766 218.027 816.773 218.027C817.799 218.027 818.701 218.276 819.48 218.774C820.266 219.267 820.869 219.984 821.291 220.928C821.713 221.865 821.924 222.958 821.924 224.206V225.015ZM820.245 224.188C820.245 222.671 819.94 221.508 819.331 220.699C818.722 219.885 817.869 219.478 816.773 219.478C815.707 219.478 814.866 219.885 814.251 220.699C813.642 221.508 813.328 222.633 813.311 224.074V225.015C813.311 226.485 813.618 227.643 814.233 228.486C814.854 229.324 815.707 229.743 816.791 229.743C817.881 229.743 818.725 229.348 819.322 228.557C819.92 227.76 820.228 226.62 820.245 225.138V224.188ZM833.868 226.939C833.71 228.293 833.209 229.339 832.365 230.077C831.527 230.81 830.411 231.176 829.017 231.176C827.505 231.176 826.292 230.634 825.378 229.55C824.47 228.466 824.016 227.016 824.016 225.199V223.969C824.016 222.779 824.227 221.733 824.648 220.831C825.076 219.929 825.68 219.237 826.459 218.757C827.238 218.271 828.141 218.027 829.166 218.027C830.525 218.027 831.615 218.408 832.436 219.17C833.256 219.926 833.733 220.975 833.868 222.316H832.172C832.025 221.297 831.706 220.559 831.214 220.102C830.728 219.645 830.045 219.416 829.166 219.416C828.088 219.416 827.241 219.814 826.626 220.611C826.017 221.408 825.712 222.542 825.712 224.013V225.252C825.712 226.641 826.002 227.745 826.582 228.565C827.162 229.386 827.974 229.796 829.017 229.796C829.954 229.796 830.672 229.585 831.17 229.163C831.674 228.735 832.008 227.994 832.172 226.939H833.868ZM839.432 225.05L837.867 226.676V231H836.18V218.203H837.867V224.531L843.554 218.203H845.593L840.557 223.854L845.988 231H843.967L839.432 225.05Z" fill="#1F236A"/>
</svg>
