<svg width="893" height="315" viewBox="0 0 893 315" fill="none" xmlns="http://www.w3.org/2000/svg">
<path opacity="0.99" d="M75.2148 174.301L37.8727 151.835L0 130.276L0.785067 86.7036L0.519879 43.1251L38.6471 22.0189L76.2545 0L113.597 22.466L151.469 44.0256L150.684 87.5978L150.949 131.176L112.822 152.283L75.2148 174.301Z" fill="#844BB7"/>
<path opacity="0.99" d="M159.215 314.301L121.873 291.835L84 270.276L84.7851 226.704L84.5199 183.125L122.647 162.019L160.255 140L197.597 162.466L235.469 184.026L234.684 227.598L234.949 271.176L196.822 292.283L159.215 314.301Z" fill="#CBD5DD"/>
<path opacity="0.99" d="M324.215 313.301L286.873 290.835L249 269.276L249.785 225.704L249.52 182.125L287.647 161.019L325.255 139L362.597 161.466L400.469 183.026L399.684 226.598L399.949 270.176L361.822 291.283L324.215 313.301Z" fill="#CBD5DD"/>
<path opacity="0.99" d="M487.523 313.535L450.181 291.069L412.308 269.509L413.093 225.937L412.828 182.359L450.955 161.252L488.563 139.233L525.905 161.699L563.777 183.259L562.992 226.831L563.258 270.41L525.13 291.516L487.523 313.535Z" fill="#1F236A" stroke="#1A1A1A"/>
<path opacity="0.99" d="M572.215 174.301L534.873 151.835L497 130.276L497.785 86.7036L497.52 43.1251L535.647 22.0189L573.255 0L610.597 22.466L648.469 44.0256L647.684 87.5978L647.949 131.176L609.822 152.283L572.215 174.301Z" fill="#1F236A"/>
<path opacity="0.99" d="M736.215 174.301L698.873 151.835L661 130.276L661.785 86.7036L661.52 43.1251L699.647 22.0189L737.255 0L774.597 22.466L812.469 44.0256L811.684 87.5978L811.949 131.176L773.822 152.283L736.215 174.301Z" fill="#1F236A"/>
<path opacity="0.99" d="M816.215 314.301L778.873 291.835L741 270.276L741.785 226.704L741.52 183.125L779.647 162.019L817.255 140L854.597 162.466L892.469 184.026L891.684 227.598L891.949 271.176L853.822 292.283L816.215 314.301Z" fill="#CBD5DD"/>
<path d="M49.4854 96V83.2031H53.6689C55.0576 83.2031 56.1006 83.4902 56.7979 84.0645C57.501 84.6387 57.8525 85.4883 57.8525 86.6133C57.8525 87.2109 57.6826 87.7412 57.3428 88.2041C57.0029 88.6611 56.54 89.0156 55.9541 89.2676C56.6455 89.4609 57.1904 89.8301 57.5889 90.375C57.9932 90.9141 58.1953 91.5586 58.1953 92.3086C58.1953 93.457 57.8232 94.3594 57.0791 95.0156C56.335 95.6719 55.2832 96 53.9238 96H49.4854ZM51.1729 90.0146V94.6201H53.959C54.7441 94.6201 55.3623 94.418 55.8135 94.0137C56.2705 93.6035 56.499 93.041 56.499 92.3262C56.499 90.7852 55.6611 90.0146 53.9854 90.0146H51.1729ZM51.1729 88.6611H53.7217C54.46 88.6611 55.0488 88.4766 55.4883 88.1074C55.9336 87.7383 56.1562 87.2373 56.1562 86.6045C56.1562 85.9014 55.9512 85.3916 55.541 85.0752C55.1309 84.7529 54.5068 84.5918 53.6689 84.5918H51.1729V88.6611ZM62.3965 94.6201H68.4609V96H60.7002V83.2031H62.3965V94.6201ZM79.6494 90.0146C79.6494 91.2686 79.4385 92.3643 79.0166 93.3018C78.5947 94.2334 77.9971 94.9453 77.2236 95.4375C76.4502 95.9297 75.5479 96.1758 74.5166 96.1758C73.5088 96.1758 72.6152 95.9297 71.8359 95.4375C71.0566 94.9395 70.4502 94.2334 70.0166 93.3193C69.5889 92.3994 69.3691 91.3359 69.3574 90.1289V89.2061C69.3574 87.9756 69.5713 86.8887 69.999 85.9453C70.4268 85.002 71.0303 84.2812 71.8096 83.7832C72.5947 83.2793 73.4912 83.0273 74.499 83.0273C75.5244 83.0273 76.4268 83.2764 77.2061 83.7744C77.9912 84.2666 78.5947 84.9844 79.0166 85.9277C79.4385 86.8652 79.6494 87.958 79.6494 89.2061V90.0146ZM77.9707 89.1885C77.9707 87.6709 77.666 86.5078 77.0566 85.6992C76.4473 84.8848 75.5947 84.4775 74.499 84.4775C73.4326 84.4775 72.5918 84.8848 71.9766 85.6992C71.3672 86.5078 71.0537 87.6328 71.0361 89.0742V90.0146C71.0361 91.4854 71.3438 92.6426 71.959 93.4863C72.5801 94.3242 73.4326 94.7432 74.5166 94.7432C75.6064 94.7432 76.4502 94.3477 77.0479 93.5566C77.6455 92.7598 77.9531 91.6201 77.9707 90.1377V89.1885ZM91.5938 91.9395C91.4355 93.293 90.9346 94.3389 90.0908 95.0771C89.2529 95.8096 88.1367 96.1758 86.7422 96.1758C85.2305 96.1758 84.0176 95.6338 83.1035 94.5498C82.1953 93.4658 81.7412 92.0156 81.7412 90.1992V88.9688C81.7412 87.7793 81.9521 86.7334 82.374 85.8311C82.8018 84.9287 83.4053 84.2373 84.1846 83.7568C84.9639 83.2705 85.8662 83.0273 86.8916 83.0273C88.251 83.0273 89.3408 83.4082 90.1611 84.1699C90.9814 84.9258 91.459 85.9746 91.5938 87.3164H89.8975C89.751 86.2969 89.4316 85.5586 88.9395 85.1016C88.4531 84.6445 87.7705 84.416 86.8916 84.416C85.8135 84.416 84.9668 84.8145 84.3516 85.6113C83.7422 86.4082 83.4375 87.542 83.4375 89.0127V90.252C83.4375 91.6406 83.7275 92.7451 84.3076 93.5654C84.8877 94.3857 85.6992 94.7959 86.7422 94.7959C87.6797 94.7959 88.3975 94.585 88.8955 94.1631C89.3994 93.7354 89.7334 92.9941 89.8975 91.9395H91.5938ZM97.1572 90.0498L95.5928 91.6758V96H93.9053V83.2031H95.5928V89.5312L101.279 83.2031H103.318L98.2822 88.8545L103.714 96H101.692L97.1572 90.0498Z" fill="white"/>
<path d="M132.977 232.767V219.97H137.16C138.549 219.97 139.592 220.257 140.289 220.831C140.992 221.405 141.344 222.255 141.344 223.38C141.344 223.978 141.174 224.508 140.834 224.971C140.494 225.428 140.031 225.782 139.445 226.034C140.137 226.228 140.682 226.597 141.08 227.142C141.484 227.681 141.687 228.325 141.687 229.075C141.687 230.224 141.314 231.126 140.57 231.782C139.826 232.438 138.774 232.767 137.415 232.767H132.977ZM134.664 226.781V231.387H137.45C138.235 231.387 138.854 231.185 139.305 230.78C139.762 230.37 139.99 229.808 139.99 229.093C139.99 227.552 139.152 226.781 137.477 226.781H134.664ZM134.664 225.428H137.213C137.951 225.428 138.54 225.243 138.979 224.874C139.425 224.505 139.647 224.004 139.647 223.371C139.647 222.668 139.442 222.158 139.032 221.842C138.622 221.52 137.998 221.358 137.16 221.358H134.664V225.428ZM145.888 231.387H151.952V232.767H144.191V219.97H145.888V231.387ZM163.141 226.781C163.141 228.035 162.93 229.131 162.508 230.068C162.086 231 161.488 231.712 160.715 232.204C159.941 232.696 159.039 232.942 158.008 232.942C157 232.942 156.106 232.696 155.327 232.204C154.548 231.706 153.941 231 153.508 230.086C153.08 229.166 152.86 228.103 152.849 226.896V225.973C152.849 224.742 153.062 223.655 153.49 222.712C153.918 221.769 154.521 221.048 155.301 220.55C156.086 220.046 156.982 219.794 157.99 219.794C159.016 219.794 159.918 220.043 160.697 220.541C161.482 221.033 162.086 221.751 162.508 222.694C162.93 223.632 163.141 224.725 163.141 225.973V226.781ZM161.462 225.955C161.462 224.438 161.157 223.274 160.548 222.466C159.938 221.651 159.086 221.244 157.99 221.244C156.924 221.244 156.083 221.651 155.468 222.466C154.858 223.274 154.545 224.399 154.527 225.841V226.781C154.527 228.252 154.835 229.409 155.45 230.253C156.071 231.091 156.924 231.51 158.008 231.51C159.098 231.51 159.941 231.114 160.539 230.323C161.137 229.526 161.444 228.387 161.462 226.904V225.955ZM175.085 228.706C174.927 230.06 174.426 231.105 173.582 231.844C172.744 232.576 171.628 232.942 170.233 232.942C168.722 232.942 167.509 232.4 166.595 231.316C165.687 230.232 165.232 228.782 165.232 226.966V225.735C165.232 224.546 165.443 223.5 165.865 222.598C166.293 221.695 166.896 221.004 167.676 220.523C168.455 220.037 169.357 219.794 170.383 219.794C171.742 219.794 172.832 220.175 173.652 220.937C174.473 221.692 174.95 222.741 175.085 224.083H173.389C173.242 223.063 172.923 222.325 172.431 221.868C171.944 221.411 171.262 221.183 170.383 221.183C169.305 221.183 168.458 221.581 167.843 222.378C167.233 223.175 166.929 224.309 166.929 225.779V227.019C166.929 228.407 167.219 229.512 167.799 230.332C168.379 231.152 169.19 231.562 170.233 231.562C171.171 231.562 171.889 231.352 172.387 230.93C172.891 230.502 173.225 229.761 173.389 228.706H175.085ZM180.648 226.816L179.084 228.442V232.767H177.396V219.97H179.084V226.298L184.771 219.97H186.81L181.773 225.621L187.205 232.767H185.184L180.648 226.816Z" fill="#1F236A"/>
<path d="M298.577 231.767V218.97H302.76C304.149 218.97 305.192 219.257 305.889 219.831C306.592 220.405 306.944 221.255 306.944 222.38C306.944 222.978 306.774 223.508 306.434 223.971C306.094 224.428 305.631 224.782 305.045 225.034C305.737 225.228 306.282 225.597 306.68 226.142C307.084 226.681 307.287 227.325 307.287 228.075C307.287 229.224 306.915 230.126 306.17 230.782C305.426 231.438 304.375 231.767 303.015 231.767H298.577ZM300.264 225.781V230.387H303.05C303.835 230.387 304.454 230.185 304.905 229.78C305.362 229.37 305.59 228.808 305.59 228.093C305.59 226.552 304.752 225.781 303.077 225.781H300.264ZM300.264 224.428H302.813C303.551 224.428 304.14 224.243 304.58 223.874C305.025 223.505 305.248 223.004 305.248 222.371C305.248 221.668 305.042 221.158 304.632 220.842C304.222 220.52 303.598 220.358 302.76 220.358H300.264V224.428ZM311.488 230.387H317.552V231.767H309.792V218.97H311.488V230.387ZM328.741 225.781C328.741 227.035 328.53 228.131 328.108 229.068C327.686 230 327.088 230.712 326.315 231.204C325.542 231.696 324.639 231.942 323.608 231.942C322.6 231.942 321.707 231.696 320.927 231.204C320.148 230.706 319.542 230 319.108 229.086C318.68 228.166 318.46 227.103 318.449 225.896V224.973C318.449 223.742 318.663 222.655 319.09 221.712C319.518 220.769 320.122 220.048 320.901 219.55C321.686 219.046 322.583 218.794 323.59 218.794C324.616 218.794 325.518 219.043 326.297 219.541C327.083 220.033 327.686 220.751 328.108 221.694C328.53 222.632 328.741 223.725 328.741 224.973V225.781ZM327.062 224.955C327.062 223.438 326.757 222.274 326.148 221.466C325.539 220.651 324.686 220.244 323.59 220.244C322.524 220.244 321.683 220.651 321.068 221.466C320.458 222.274 320.145 223.399 320.127 224.841V225.781C320.127 227.252 320.435 228.409 321.05 229.253C321.671 230.091 322.524 230.51 323.608 230.51C324.698 230.51 325.542 230.114 326.139 229.323C326.737 228.526 327.044 227.387 327.062 225.904V224.955ZM340.685 227.706C340.527 229.06 340.026 230.105 339.182 230.844C338.344 231.576 337.228 231.942 335.833 231.942C334.322 231.942 333.109 231.4 332.195 230.316C331.287 229.232 330.833 227.782 330.833 225.966V224.735C330.833 223.546 331.043 222.5 331.465 221.598C331.893 220.695 332.497 220.004 333.276 219.523C334.055 219.037 334.958 218.794 335.983 218.794C337.342 218.794 338.432 219.175 339.252 219.937C340.073 220.692 340.55 221.741 340.685 223.083H338.989C338.842 222.063 338.523 221.325 338.031 220.868C337.544 220.411 336.862 220.183 335.983 220.183C334.905 220.183 334.058 220.581 333.443 221.378C332.833 222.175 332.529 223.309 332.529 224.779V226.019C332.529 227.407 332.819 228.512 333.399 229.332C333.979 230.152 334.791 230.562 335.833 230.562C336.771 230.562 337.489 230.352 337.987 229.93C338.491 229.502 338.825 228.761 338.989 227.706H340.685ZM346.249 225.816L344.684 227.442V231.767H342.997V218.97H344.684V225.298L350.371 218.97H352.41L347.374 224.621L352.805 231.767H350.784L346.249 225.816Z" fill="#1F236A"/>
<path d="M461.485 229V216.203H465.669C467.058 216.203 468.101 216.49 468.798 217.064C469.501 217.639 469.853 218.488 469.853 219.613C469.853 220.211 469.683 220.741 469.343 221.204C469.003 221.661 468.54 222.016 467.954 222.268C468.646 222.461 469.19 222.83 469.589 223.375C469.993 223.914 470.195 224.559 470.195 225.309C470.195 226.457 469.823 227.359 469.079 228.016C468.335 228.672 467.283 229 465.924 229H461.485ZM463.173 223.015V227.62H465.959C466.744 227.62 467.362 227.418 467.813 227.014C468.271 226.604 468.499 226.041 468.499 225.326C468.499 223.785 467.661 223.015 465.985 223.015H463.173ZM463.173 221.661H465.722C466.46 221.661 467.049 221.477 467.488 221.107C467.934 220.738 468.156 220.237 468.156 219.604C468.156 218.901 467.951 218.392 467.541 218.075C467.131 217.753 466.507 217.592 465.669 217.592H463.173V221.661ZM474.396 227.62H480.461V229H472.7V216.203H474.396V227.62ZM491.649 223.015C491.649 224.269 491.438 225.364 491.017 226.302C490.595 227.233 489.997 227.945 489.224 228.438C488.45 228.93 487.548 229.176 486.517 229.176C485.509 229.176 484.615 228.93 483.836 228.438C483.057 227.939 482.45 227.233 482.017 226.319C481.589 225.399 481.369 224.336 481.357 223.129V222.206C481.357 220.976 481.571 219.889 481.999 218.945C482.427 218.002 483.03 217.281 483.81 216.783C484.595 216.279 485.491 216.027 486.499 216.027C487.524 216.027 488.427 216.276 489.206 216.774C489.991 217.267 490.595 217.984 491.017 218.928C491.438 219.865 491.649 220.958 491.649 222.206V223.015ZM489.971 222.188C489.971 220.671 489.666 219.508 489.057 218.699C488.447 217.885 487.595 217.478 486.499 217.478C485.433 217.478 484.592 217.885 483.977 218.699C483.367 219.508 483.054 220.633 483.036 222.074V223.015C483.036 224.485 483.344 225.643 483.959 226.486C484.58 227.324 485.433 227.743 486.517 227.743C487.606 227.743 488.45 227.348 489.048 226.557C489.646 225.76 489.953 224.62 489.971 223.138V222.188ZM503.594 224.939C503.436 226.293 502.935 227.339 502.091 228.077C501.253 228.81 500.137 229.176 498.742 229.176C497.23 229.176 496.018 228.634 495.104 227.55C494.195 226.466 493.741 225.016 493.741 223.199V221.969C493.741 220.779 493.952 219.733 494.374 218.831C494.802 217.929 495.405 217.237 496.185 216.757C496.964 216.271 497.866 216.027 498.892 216.027C500.251 216.027 501.341 216.408 502.161 217.17C502.981 217.926 503.459 218.975 503.594 220.316H501.897C501.751 219.297 501.432 218.559 500.939 218.102C500.453 217.645 499.771 217.416 498.892 217.416C497.813 217.416 496.967 217.814 496.352 218.611C495.742 219.408 495.438 220.542 495.438 222.013V223.252C495.438 224.641 495.728 225.745 496.308 226.565C496.888 227.386 497.699 227.796 498.742 227.796C499.68 227.796 500.397 227.585 500.896 227.163C501.399 226.735 501.733 225.994 501.897 224.939H503.594ZM509.157 223.05L507.593 224.676V229H505.905V216.203H507.593V222.531L513.279 216.203H515.318L510.282 221.854L515.714 229H513.692L509.157 223.05Z" fill="white"/>
<path d="M546.668 97.5349V84.738H550.852C552.241 84.738 553.284 85.0251 553.981 85.5994C554.684 86.1736 555.036 87.0232 555.036 88.1482C555.036 88.7458 554.866 89.2761 554.526 89.739C554.186 90.196 553.723 90.5505 553.137 90.8025C553.829 90.9958 554.374 91.365 554.772 91.9099C555.176 92.449 555.378 93.0935 555.378 93.8435C555.378 94.9919 555.006 95.8943 554.262 96.5505C553.518 97.2068 552.466 97.5349 551.107 97.5349H546.668ZM548.356 91.5496V96.155H551.142C551.927 96.155 552.545 95.9529 552.997 95.5486C553.454 95.1384 553.682 94.5759 553.682 93.8611C553.682 92.3201 552.844 91.5496 551.168 91.5496H548.356ZM548.356 90.196H550.905C551.643 90.196 552.232 90.0115 552.671 89.6423C553.117 89.2732 553.339 88.7722 553.339 88.1394C553.339 87.4363 553.134 86.9265 552.724 86.6101C552.314 86.2878 551.69 86.1267 550.852 86.1267H548.356V90.196ZM559.58 96.155H565.644V97.5349H557.883V84.738H559.58V96.155ZM576.833 91.5496C576.833 92.8035 576.622 93.8992 576.2 94.8367C575.778 95.7683 575.18 96.4802 574.407 96.9724C573.633 97.4646 572.731 97.7107 571.7 97.7107C570.692 97.7107 569.798 97.4646 569.019 96.9724C568.24 96.4744 567.633 95.7683 567.2 94.8542C566.772 93.9343 566.552 92.8708 566.541 91.6638V90.741C566.541 89.5105 566.754 88.4236 567.182 87.4802C567.61 86.5369 568.213 85.8162 568.993 85.3181C569.778 84.8142 570.674 84.5623 571.682 84.5623C572.708 84.5623 573.61 84.8113 574.389 85.3093C575.174 85.8015 575.778 86.5193 576.2 87.4626C576.622 88.4001 576.833 89.4929 576.833 90.741V91.5496ZM575.154 90.7234C575.154 89.2058 574.849 88.0427 574.24 87.2341C573.63 86.4197 572.778 86.0125 571.682 86.0125C570.616 86.0125 569.775 86.4197 569.16 87.2341C568.55 88.0427 568.237 89.1677 568.219 90.6091V91.5496C568.219 93.0203 568.527 94.1775 569.142 95.0212C569.763 95.8591 570.616 96.2781 571.7 96.2781C572.79 96.2781 573.633 95.8826 574.231 95.0916C574.829 94.2947 575.136 93.155 575.154 91.6726V90.7234ZM588.777 93.4744C588.619 94.8279 588.118 95.8738 587.274 96.6121C586.436 97.3445 585.32 97.7107 583.925 97.7107C582.414 97.7107 581.201 97.1687 580.287 96.0847C579.378 95.0007 578.924 93.5505 578.924 91.7341V90.5037C578.924 89.3142 579.135 88.2683 579.557 87.366C579.985 86.4636 580.588 85.7722 581.368 85.2917C582.147 84.8054 583.049 84.5623 584.075 84.5623C585.434 84.5623 586.524 84.9431 587.344 85.7048C588.165 86.4607 588.642 87.5095 588.777 88.8513H587.081C586.934 87.8318 586.615 87.0935 586.123 86.6365C585.636 86.1794 584.954 85.9509 584.075 85.9509C582.997 85.9509 582.15 86.3494 581.535 87.1462C580.925 87.9431 580.621 89.0769 580.621 90.5476V91.7869C580.621 93.1755 580.911 94.28 581.491 95.1003C582.071 95.9207 582.882 96.3308 583.925 96.3308C584.863 96.3308 585.581 96.1199 586.079 95.698C586.583 95.2703 586.917 94.5291 587.081 93.4744H588.777ZM594.34 91.5847L592.776 93.2107V97.5349H591.088V84.738H592.776V91.0662L598.462 84.738H600.501L595.465 90.3894L600.897 97.5349H598.875L594.34 91.5847Z" fill="white"/>
<path d="M710.269 95.5349V82.738H714.452C715.841 82.738 716.884 83.0251 717.581 83.5994C718.284 84.1736 718.636 85.0232 718.636 86.1482C718.636 86.7458 718.466 87.2761 718.126 87.739C717.786 88.196 717.323 88.5505 716.737 88.8025C717.429 88.9958 717.974 89.365 718.372 89.9099C718.776 90.449 718.979 91.0935 718.979 91.8435C718.979 92.9919 718.606 93.8943 717.862 94.5505C717.118 95.2068 716.066 95.5349 714.707 95.5349H710.269ZM711.956 89.5496V94.155H714.742C715.527 94.155 716.146 93.9529 716.597 93.5486C717.054 93.1384 717.282 92.5759 717.282 91.8611C717.282 90.3201 716.444 89.5496 714.769 89.5496H711.956ZM711.956 88.196H714.505C715.243 88.196 715.832 88.0115 716.271 87.6423C716.717 87.2732 716.939 86.7722 716.939 86.1394C716.939 85.4363 716.734 84.9265 716.324 84.6101C715.914 84.2878 715.29 84.1267 714.452 84.1267H711.956V88.196ZM723.18 94.155H729.244V95.5349H721.483V82.738H723.18V94.155ZM740.433 89.5496C740.433 90.8035 740.222 91.8992 739.8 92.8367C739.378 93.7683 738.78 94.4802 738.007 94.9724C737.233 95.4646 736.331 95.7107 735.3 95.7107C734.292 95.7107 733.398 95.4646 732.619 94.9724C731.84 94.4744 731.233 93.7683 730.8 92.8542C730.372 91.9343 730.152 90.8708 730.141 89.6638V88.741C730.141 87.5105 730.354 86.4236 730.782 85.4802C731.21 84.5369 731.813 83.8162 732.593 83.3181C733.378 82.8142 734.274 82.5623 735.282 82.5623C736.308 82.5623 737.21 82.8113 737.989 83.3093C738.774 83.8015 739.378 84.5193 739.8 85.4626C740.222 86.4001 740.433 87.4929 740.433 88.741V89.5496ZM738.754 88.7234C738.754 87.2058 738.449 86.0427 737.84 85.2341C737.23 84.4197 736.378 84.0125 735.282 84.0125C734.216 84.0125 733.375 84.4197 732.76 85.2341C732.15 86.0427 731.837 87.1677 731.819 88.6091V89.5496C731.819 91.0203 732.127 92.1775 732.742 93.0212C733.363 93.8591 734.216 94.2781 735.3 94.2781C736.39 94.2781 737.233 93.8826 737.831 93.0916C738.429 92.2947 738.736 91.155 738.754 89.6726V88.7234ZM752.377 91.4744C752.219 92.8279 751.718 93.8738 750.874 94.6121C750.036 95.3445 748.92 95.7107 747.525 95.7107C746.014 95.7107 744.801 95.1687 743.887 94.0847C742.979 93.0007 742.524 91.5505 742.524 89.7341V88.5037C742.524 87.3142 742.735 86.2683 743.157 85.366C743.585 84.4636 744.188 83.7722 744.968 83.2917C745.747 82.8054 746.649 82.5623 747.675 82.5623C749.034 82.5623 750.124 82.9431 750.944 83.7048C751.765 84.4607 752.242 85.5095 752.377 86.8513H750.681C750.534 85.8318 750.215 85.0935 749.723 84.6365C749.236 84.1794 748.554 83.9509 747.675 83.9509C746.597 83.9509 745.75 84.3494 745.135 85.1462C744.525 85.9431 744.221 87.0769 744.221 88.5476V89.7869C744.221 91.1755 744.511 92.28 745.091 93.1003C745.671 93.9207 746.482 94.3308 747.525 94.3308C748.463 94.3308 749.181 94.1199 749.679 93.698C750.183 93.2703 750.517 92.5291 750.681 91.4744H752.377ZM757.94 89.5847L756.376 91.2107V95.5349H754.688V82.738H756.376V89.0662L762.062 82.738H764.102L759.065 88.3894L764.497 95.5349H762.476L757.94 89.5847Z" fill="white"/>
<path d="M789.76 229V216.203H793.943C795.332 216.203 796.375 216.49 797.072 217.064C797.775 217.639 798.127 218.488 798.127 219.613C798.127 220.211 797.957 220.741 797.617 221.204C797.277 221.661 796.814 222.016 796.229 222.268C796.92 222.461 797.465 222.83 797.863 223.375C798.268 223.914 798.47 224.559 798.47 225.309C798.47 226.457 798.098 227.359 797.354 228.016C796.609 228.672 795.558 229 794.198 229H789.76ZM791.447 223.015V227.62H794.233C795.019 227.62 795.637 227.418 796.088 227.014C796.545 226.604 796.773 226.041 796.773 225.326C796.773 223.785 795.936 223.015 794.26 223.015H791.447ZM791.447 221.661H793.996C794.734 221.661 795.323 221.477 795.763 221.107C796.208 220.738 796.431 220.237 796.431 219.604C796.431 218.901 796.226 218.392 795.815 218.075C795.405 217.753 794.781 217.592 793.943 217.592H791.447V221.661ZM802.671 227.62H808.735V229H800.975V216.203H802.671V227.62ZM819.924 223.015C819.924 224.269 819.713 225.364 819.291 226.302C818.869 227.233 818.271 227.945 817.498 228.438C816.725 228.93 815.822 229.176 814.791 229.176C813.783 229.176 812.89 228.93 812.11 228.438C811.331 227.939 810.725 227.233 810.291 226.319C809.863 225.399 809.644 224.336 809.632 223.129V222.206C809.632 220.976 809.846 219.889 810.273 218.945C810.701 218.002 811.305 217.281 812.084 216.783C812.869 216.279 813.766 216.027 814.773 216.027C815.799 216.027 816.701 216.276 817.48 216.774C818.266 217.267 818.869 217.984 819.291 218.928C819.713 219.865 819.924 220.958 819.924 222.206V223.015ZM818.245 222.188C818.245 220.671 817.94 219.508 817.331 218.699C816.722 217.885 815.869 217.478 814.773 217.478C813.707 217.478 812.866 217.885 812.251 218.699C811.642 219.508 811.328 220.633 811.311 222.074V223.015C811.311 224.485 811.618 225.643 812.233 226.486C812.854 227.324 813.707 227.743 814.791 227.743C815.881 227.743 816.725 227.348 817.322 226.557C817.92 225.76 818.228 224.62 818.245 223.138V222.188ZM831.868 224.939C831.71 226.293 831.209 227.339 830.365 228.077C829.527 228.81 828.411 229.176 827.017 229.176C825.505 229.176 824.292 228.634 823.378 227.55C822.47 226.466 822.016 225.016 822.016 223.199V221.969C822.016 220.779 822.227 219.733 822.648 218.831C823.076 217.929 823.68 217.237 824.459 216.757C825.238 216.271 826.141 216.027 827.166 216.027C828.525 216.027 829.615 216.408 830.436 217.17C831.256 217.926 831.733 218.975 831.868 220.316H830.172C830.025 219.297 829.706 218.559 829.214 218.102C828.728 217.645 828.045 217.416 827.166 217.416C826.088 217.416 825.241 217.814 824.626 218.611C824.017 219.408 823.712 220.542 823.712 222.013V223.252C823.712 224.641 824.002 225.745 824.582 226.565C825.162 227.386 825.974 227.796 827.017 227.796C827.954 227.796 828.672 227.585 829.17 227.163C829.674 226.735 830.008 225.994 830.172 224.939H831.868ZM837.432 223.05L835.867 224.676V229H834.18V216.203H835.867V222.531L841.554 216.203H843.593L838.557 221.854L843.988 229H841.967L837.432 223.05Z" fill="#1F236A"/>
</svg>
