<svg width="555" height="387" viewBox="0 0 555 387" fill="none" xmlns="http://www.w3.org/2000/svg">
<path d="M62.9573 49.2952L185.191 82.8725" stroke="#0A0F5F" stroke-linecap="round"/>
<path d="M282.538 113.792L391.715 137.834" stroke="#0A0F5F" stroke-linecap="round"/>
<path d="M473.686 109.47L514.389 60.6372" stroke="#0A0F5F" stroke-linecap="round"/>
<path d="M242.539 146.934L272.092 242.09" stroke="#0A0F5F" stroke-linecap="round"/>
<path d="M408.997 184.3L325.975 260.441L408.997 184.3Z" fill="#FF5500"/>
<path d="M408.997 184.3L325.975 260.441" stroke="#0A0F5F" stroke-linecap="round"/>
<path d="M94.9836 328.007L234.882 298.496" stroke="#0A0F5F" stroke-linecap="round"/>
<path d="M327.155 316.964L452.811 365.144" stroke="#0A0F5F" stroke-linecap="round"/>
<path d="M240.095 266.639L40.3171 77.4077" stroke="#0A0F5F" stroke-linecap="round"/>
<path d="M193.402 128.505L67.9741 294.561" stroke="#0A0F5F" stroke-linecap="round"/>
<path d="M280.923 79.8177L493.825 28.7153" stroke="#0A0F5F" stroke-linecap="round"/>
<path d="M539.85 71.1262L511.835 329.161" stroke="#0A0F5F" stroke-linecap="round"/>
<path d="M458.517 193.368L483.847 331.698" stroke="#0A0F5F" stroke-linecap="round"/>
<path fill-rule="evenodd" clip-rule="evenodd" d="M534.514 1C524.29 1 515.945 4.0186 515.358 7.8438C514.571 9.2401 515.327 15.8095 515.327 16.7813C515.327 16.8961 515.344 17.0115 515.358 17.125V17.1562C514.571 18.5525 515.327 25.122 515.327 26.0938C515.327 26.2086 515.344 26.3239 515.358 26.4375V26.5C514.571 27.8963 515.327 34.4344 515.327 35.4062C515.327 39.432 523.909 42.7187 534.515 42.7187C545.121 42.7187 553.734 39.432 553.734 35.4062C553.734 34.7367 553.998 29.463 553.734 27.1562C553.744 27.0696 553.734 26.9935 553.734 26.9062C553.734 26.7694 553.691 26.6348 553.672 26.5C553.692 26.365 553.734 26.2305 553.734 26.0937C553.734 25.4243 553.998 20.1504 553.734 17.8437C553.744 17.7571 553.734 17.681 553.734 17.5937C553.734 17.4569 553.691 17.3223 553.672 17.1875C553.692 17.0525 553.734 16.918 553.734 16.7812C553.734 16.1117 553.998 10.838 553.734 8.5312C553.744 8.4446 553.734 8.36852 553.734 8.2812C553.734 4.2554 545.12 1 534.514 1Z" fill="#5A98FF" stroke="#E8EDF2"/>
<path d="M553.714 8.34009C553.714 12.3659 545.117 15.6295 534.511 15.6295C523.905 15.6295 515.308 12.3659 515.308 8.34009" stroke="#E8EDF2"/>
<path d="M554.014 18.3401C554.014 22.3659 545.416 25.6295 534.811 25.6295C524.205 25.6295 515.608 22.3659 515.608 18.3401" stroke="#E8EDF2"/>
<path d="M553.714 28.3401C553.714 32.3659 545.117 35.6295 534.511 35.6295C523.905 35.6295 515.308 32.3659 515.308 28.3401" stroke="#E8EDF2"/>
<path fill-rule="evenodd" clip-rule="evenodd" d="M441.514 122C431.29 122 422.945 125.019 422.358 128.844C421.571 130.24 422.327 136.809 422.327 137.781C422.327 137.896 422.344 138.011 422.358 138.125V138.156C421.571 139.553 422.327 146.122 422.327 147.094C422.327 147.209 422.344 147.324 422.358 147.438V147.5C421.571 148.896 422.327 155.434 422.327 156.406C422.327 160.432 430.909 163.719 441.515 163.719C452.121 163.719 460.734 160.432 460.734 156.406C460.734 155.737 460.998 150.463 460.734 148.156C460.744 148.07 460.734 147.994 460.734 147.906C460.734 147.769 460.691 147.635 460.672 147.5C460.692 147.365 460.734 147.23 460.734 147.094C460.734 146.424 460.998 141.15 460.734 138.844C460.744 138.757 460.734 138.681 460.734 138.594C460.734 138.457 460.691 138.322 460.672 138.187C460.692 138.053 460.734 137.918 460.734 137.781C460.734 137.112 460.998 131.838 460.734 129.531C460.744 129.445 460.734 129.369 460.734 129.281C460.734 125.255 452.12 122 441.514 122Z" fill="#5A98FF" stroke="#E8EDF2"/>
<path d="M460.714 129.34C460.714 133.366 452.117 136.63 441.511 136.63C430.905 136.63 422.308 133.366 422.308 129.34" stroke="#E8EDF2"/>
<path d="M461.014 139.34C461.014 143.366 452.416 146.63 441.811 146.63C431.205 146.63 422.608 143.366 422.608 139.34" stroke="#E8EDF2"/>
<path d="M460.714 149.34C460.714 153.366 452.117 156.63 441.511 156.63C430.905 156.63 422.308 153.366 422.308 149.34" stroke="#E8EDF2"/>
<path fill-rule="evenodd" clip-rule="evenodd" d="M500.514 344C490.29 344 481.945 347.019 481.358 350.844C480.571 352.24 481.327 358.809 481.327 359.781C481.327 359.896 481.344 360.011 481.358 360.125V360.156C480.571 361.553 481.327 368.122 481.327 369.094C481.327 369.209 481.344 369.324 481.358 369.438V369.5C480.571 370.896 481.327 377.434 481.327 378.406C481.327 382.432 489.909 385.719 500.515 385.719C511.121 385.719 519.734 382.432 519.734 378.406C519.734 377.737 519.998 372.463 519.734 370.156C519.744 370.07 519.734 369.994 519.734 369.906C519.734 369.769 519.691 369.635 519.672 369.5C519.692 369.365 519.734 369.23 519.734 369.094C519.734 368.424 519.998 363.15 519.734 360.844C519.744 360.757 519.734 360.681 519.734 360.594C519.734 360.457 519.691 360.322 519.672 360.187C519.692 360.053 519.734 359.918 519.734 359.781C519.734 359.112 519.998 353.838 519.734 351.531C519.744 351.445 519.734 351.369 519.734 351.281C519.734 347.255 511.12 344 500.514 344Z" fill="#5A98FF" stroke="#E8EDF2"/>
<path d="M519.714 351.34C519.714 355.366 511.117 358.63 500.511 358.63C489.905 358.63 481.308 355.366 481.308 351.34" stroke="#E8EDF2"/>
<path d="M520.014 361.34C520.014 365.366 511.416 368.63 500.811 368.63C490.205 368.63 481.608 365.366 481.608 361.34" stroke="#E8EDF2"/>
<path d="M519.714 371.34C519.714 375.366 511.117 378.63 500.511 378.63C489.905 378.63 481.308 375.366 481.308 371.34" stroke="#E8EDF2"/>
<path fill-rule="evenodd" clip-rule="evenodd" d="M280.514 263C270.29 263 261.945 266.019 261.358 269.844C260.571 271.24 261.327 277.809 261.327 278.781C261.327 278.896 261.344 279.011 261.358 279.125V279.156C260.571 280.553 261.327 287.122 261.327 288.094C261.327 288.209 261.344 288.324 261.358 288.438V288.5C260.571 289.896 261.327 296.434 261.327 297.406C261.327 301.432 269.909 304.719 280.515 304.719C291.121 304.719 299.734 301.432 299.734 297.406C299.734 296.737 299.998 291.463 299.734 289.156C299.744 289.07 299.734 288.994 299.734 288.906C299.734 288.769 299.691 288.635 299.672 288.5C299.692 288.365 299.734 288.23 299.734 288.094C299.734 287.424 299.998 282.15 299.734 279.844C299.744 279.757 299.734 279.681 299.734 279.594C299.734 279.457 299.691 279.322 299.672 279.187C299.692 279.053 299.734 278.918 299.734 278.781C299.734 278.112 299.998 272.838 299.734 270.531C299.744 270.445 299.734 270.369 299.734 270.281C299.734 266.255 291.12 263 280.514 263Z" fill="#5A98FF" stroke="#E8EDF2"/>
<path d="M299.714 270.34C299.714 274.366 291.117 277.63 280.511 277.63C269.905 277.63 261.308 274.366 261.308 270.34" stroke="#E8EDF2"/>
<path d="M300.014 280.34C300.014 284.366 291.416 287.63 280.811 287.63C270.205 287.63 261.608 284.366 261.608 280.34" stroke="#E8EDF2"/>
<path d="M299.714 290.34C299.714 294.366 291.117 297.63 280.511 297.63C269.905 297.63 261.308 294.366 261.308 290.34" stroke="#E8EDF2"/>
<path fill-rule="evenodd" clip-rule="evenodd" d="M48.514 305C38.29 305 29.945 308.019 29.358 311.844C28.571 313.24 29.327 319.809 29.327 320.781C29.327 320.896 29.344 321.011 29.358 321.125V321.156C28.571 322.553 29.327 329.122 29.327 330.094C29.327 330.209 29.344 330.324 29.358 330.438V330.5C28.571 331.896 29.327 338.434 29.327 339.406C29.327 343.432 37.909 346.719 48.515 346.719C59.121 346.719 67.734 343.432 67.734 339.406C67.734 338.737 67.9976 333.463 67.734 331.156C67.744 331.07 67.734 330.994 67.734 330.906C67.734 330.769 67.691 330.635 67.672 330.5C67.692 330.365 67.734 330.23 67.734 330.094C67.734 329.424 67.9976 324.15 67.734 321.844C67.744 321.757 67.734 321.681 67.734 321.594C67.734 321.457 67.691 321.322 67.672 321.187C67.692 321.053 67.734 320.918 67.734 320.781C67.734 320.112 67.9976 314.838 67.734 312.531C67.744 312.445 67.734 312.369 67.734 312.281C67.734 308.255 59.1199 305 48.514 305Z" fill="#5A98FF" stroke="#E8EDF2"/>
<path d="M67.7141 312.34C67.7141 316.366 59.1165 319.63 48.5111 319.63C37.9051 319.63 29.3081 316.366 29.3081 312.34" stroke="#E8EDF2"/>
<path d="M68.0139 322.34C68.0139 326.366 59.4163 329.63 48.8109 329.63C38.2049 329.63 29.6079 326.366 29.6079 322.34" stroke="#E8EDF2"/>
<path d="M67.7141 332.34C67.7141 336.366 59.1165 339.63 48.5111 339.63C37.9051 339.63 29.3081 336.366 29.3081 332.34" stroke="#E8EDF2"/>
<path fill-rule="evenodd" clip-rule="evenodd" d="M232.514 67C222.29 67 213.945 70.0186 213.358 73.8438C212.571 75.2401 213.327 81.8095 213.327 82.7813C213.327 82.8961 213.344 83.0115 213.358 83.125V83.1562C212.571 84.5525 213.327 91.122 213.327 92.0938C213.327 92.2086 213.344 92.3239 213.358 92.4375V92.5C212.571 93.8963 213.327 100.434 213.327 101.406C213.327 105.432 221.909 108.719 232.515 108.719C243.121 108.719 251.734 105.432 251.734 101.406C251.734 100.737 251.998 95.463 251.734 93.1562C251.744 93.0696 251.734 92.9935 251.734 92.9062C251.734 92.7694 251.691 92.6348 251.672 92.5C251.692 92.365 251.734 92.2305 251.734 92.0937C251.734 91.4243 251.998 86.1504 251.734 83.8437C251.744 83.7571 251.734 83.681 251.734 83.5937C251.734 83.4569 251.691 83.3223 251.672 83.1875C251.692 83.0525 251.734 82.918 251.734 82.7812C251.734 82.1117 251.998 76.838 251.734 74.5312C251.744 74.4446 251.734 74.3685 251.734 74.2812C251.734 70.2554 243.12 67 232.514 67Z" fill="#5A98FF" stroke="#E8EDF2"/>
<path d="M251.714 74.3401C251.714 78.3659 243.117 81.6295 232.511 81.6295C221.905 81.6295 213.308 78.3659 213.308 74.3401" stroke="#E8EDF2"/>
<path d="M252.014 84.3401C252.014 88.3659 243.416 91.6295 232.811 91.6295C222.205 91.6295 213.608 88.3659 213.608 84.3401" stroke="#E8EDF2"/>
<path d="M251.714 94.3401C251.714 98.3659 243.117 101.63 232.511 101.63C221.905 101.63 213.308 98.3659 213.308 94.3401" stroke="#E8EDF2"/>
<path fill-rule="evenodd" clip-rule="evenodd" d="M20.514 11C10.29 11 1.945 14.0186 1.358 17.8438C0.571001 19.2401 1.327 25.8095 1.327 26.7813C1.327 26.8961 1.344 27.0115 1.358 27.125V27.1562C0.571001 28.5525 1.327 35.122 1.327 36.0938C1.327 36.2086 1.344 36.3239 1.358 36.4375V36.5C0.571001 37.8963 1.327 44.4344 1.327 45.4062C1.327 49.432 9.90898 52.7187 20.515 52.7187C31.121 52.7187 39.734 49.432 39.734 45.4062C39.734 44.7367 39.9976 39.463 39.734 37.1562C39.744 37.0696 39.734 36.9935 39.734 36.9062C39.734 36.7694 39.691 36.6348 39.672 36.5C39.692 36.365 39.734 36.2305 39.734 36.0937C39.734 35.4243 39.9976 30.1504 39.734 27.8437C39.744 27.7571 39.734 27.681 39.734 27.5937C39.734 27.4569 39.691 27.3223 39.672 27.1875C39.692 27.0525 39.734 26.918 39.734 26.7812C39.734 26.1117 39.9976 20.838 39.734 18.5312C39.744 18.4446 39.734 18.3685 39.734 18.2812C39.734 14.2554 31.1199 11 20.514 11Z" fill="#5A98FF" stroke="#E8EDF2"/>
<path d="M39.7141 18.3401C39.7141 22.3659 31.1165 25.6295 20.5111 25.6295C9.90511 25.6295 1.30811 22.3659 1.30811 18.3401" stroke="#E8EDF2"/>
<path d="M40.0139 28.3401C40.0139 32.3659 31.4163 35.6295 20.8109 35.6295C10.2049 35.6295 1.60791 32.3659 1.60791 28.3401" stroke="#E8EDF2"/>
<path d="M39.7141 38.3401C39.7141 42.3659 31.1165 45.6295 20.5111 45.6295C9.90511 45.6295 1.30811 42.3659 1.30811 38.3401" stroke="#E8EDF2"/>
</svg>
