<svg width="298" height="270" viewBox="0 0 298 270" fill="none" xmlns="http://www.w3.org/2000/svg">
<path d="M109.666 200.237C70.9679 196.852 43.3193 151.562 47.9108 99.0806C52.5024 46.5988 87.5954 6.79855 126.293 10.1842C164.991 13.5698 192.64 58.8592 188.048 111.341C183.457 163.823 148.364 203.623 109.666 200.237Z" fill="#7E9FA8"/>
<path d="M48.907 99.1677C46.7202 124.163 51.669 147.354 61.3861 164.638C71.1061 181.926 85.533 193.214 102.307 194.681C119.081 196.149 135.248 187.538 147.823 172.2C160.394 156.867 169.294 134.887 171.481 109.892C173.668 84.896 168.719 61.7049 159.002 44.4214C149.282 27.1328 134.855 15.8454 118.081 14.3779C101.308 12.9103 85.1397 21.5211 72.5653 36.8592C59.9945 52.1927 51.0939 74.1722 48.907 99.1677Z" fill="#AFDDE9" stroke="black" stroke-width="2"/>
<path fill-rule="evenodd" clip-rule="evenodd" d="M155.299 82.1474L146.541 81.3811L130.318 130.965L128.448 130.802L118.879 80.1335L109.77 79.3366L91.5449 127.573L89.5609 127.4L82.3112 75.7618L73.5526 74.9955L82.3582 134.391L96.9558 135.668L113.316 91.2546L121.713 137.834L136.311 139.111L155.299 82.1474Z" fill="white"/>
<path d="M125.678 246.561C101.383 233.643 95.8896 196.461 113.409 163.512C130.928 130.563 164.825 114.325 189.12 127.243C213.415 140.161 218.908 177.343 201.389 210.292C183.87 243.241 149.973 259.479 125.678 246.561Z" fill="#307947"/>
<path d="M114.292 163.981C105.972 179.629 102.796 196.061 104.341 209.954C105.886 223.853 112.133 235.103 122.554 240.644C132.975 246.185 145.795 245.073 158.182 238.582C170.564 232.094 182.411 220.272 190.731 204.624C199.05 188.977 202.227 172.545 200.682 158.651C199.136 144.752 192.889 133.503 182.468 127.962C172.047 122.421 159.228 123.533 146.841 130.024C134.459 136.512 122.612 148.334 114.292 163.981Z" fill="#4CB76D" stroke="black" stroke-width="2"/>
<path fill-rule="evenodd" clip-rule="evenodd" d="M188.116 182.193L182.617 179.269L158.315 207.109L157.142 206.485L164.926 170.8L159.207 167.759L133.973 194.167L132.728 193.504L142.293 157.828L136.794 154.905L126.097 196.069L135.261 200.942L158.221 176.511L150.804 209.207L159.969 214.079L188.116 182.193Z" fill="white"/>
<path d="M142.851 208.803C79.0868 208.803 27.3959 183.903 27.3959 153.187C27.3959 122.471 79.0868 97.5714 142.851 97.5714C206.615 97.5714 258.306 122.471 258.306 153.187C258.306 183.903 206.615 208.803 142.851 208.803Z" stroke="#5A98FF"/>
<path d="M143.829 261.491C98.9783 261.491 62.6195 243.581 62.6195 221.487C62.6195 199.393 98.9783 181.483 143.829 181.483C188.68 181.483 225.039 199.393 225.039 221.487C225.039 243.581 188.68 261.491 143.829 261.491Z" stroke="#5A98FF"/>
<path d="M150.679 142.454C69.6227 142.454 3.91394 111.438 3.91394 73.1785C3.91394 34.9186 69.6227 3.90285 150.679 3.90285C231.735 3.90285 297.443 34.9186 297.443 73.1785C297.443 111.438 231.735 142.454 150.679 142.454Z" stroke="#5A98FF"/>
<path d="M7.82733 72.2028C3.50435 72.2028 -0.000116348 68.7081 -0.000116348 64.3971C-0.000116348 60.0861 3.50435 56.5914 7.82733 56.5914C12.1503 56.5914 15.6548 60.0861 15.6548 64.3971C15.6548 68.7081 12.1503 72.2028 7.82733 72.2028Z" fill="#6600DE"/>
<path d="M203.514 15.6114C199.191 15.6114 195.686 12.1167 195.686 7.80571C195.686 3.49474 199.191 0 203.514 0C207.837 0 211.341 3.49474 211.341 7.80571C211.341 12.1167 207.837 15.6114 203.514 15.6114Z" fill="#6600DE"/>
<path d="M225.039 138.551C220.716 138.551 217.212 135.057 217.212 130.746C217.212 126.435 220.716 122.94 225.039 122.94C229.362 122.94 232.867 126.435 232.867 130.746C232.867 135.057 229.362 138.551 225.039 138.551Z" fill="#6600DE"/>
<path d="M29.353 146.357C26.1108 146.357 23.4825 143.736 23.4825 140.503C23.4825 137.27 26.1108 134.648 29.353 134.648C32.5953 134.648 35.2236 137.27 35.2236 140.503C35.2236 143.736 32.5953 146.357 29.353 146.357Z" fill="#6600DE"/>
<path d="M62.6196 199.046C59.3774 199.046 56.7491 196.425 56.7491 193.191C56.7491 189.958 59.3774 187.337 62.6196 187.337C65.8619 187.337 68.4902 189.958 68.4902 193.191C68.4902 196.425 65.8619 199.046 62.6196 199.046Z" fill="#6600DE"/>
<path d="M232.867 193.191C229.624 193.191 226.996 190.57 226.996 187.337C226.996 184.104 229.624 181.483 232.867 181.483C236.109 181.483 238.737 184.104 238.737 187.337C238.737 190.57 236.109 193.191 232.867 193.191Z" fill="#6600DE"/>
<path d="M197.643 111.231C194.401 111.231 191.772 108.61 191.772 105.377C191.772 102.144 194.401 99.5228 197.643 99.5228C200.885 99.5228 203.514 102.144 203.514 105.377C203.514 108.61 200.885 111.231 197.643 111.231Z" fill="#6600DE"/>
<path d="M223.082 218.56C220.921 218.56 219.169 216.812 219.169 214.657C219.169 212.501 220.921 210.754 223.082 210.754C225.244 210.754 226.996 212.501 226.996 214.657C226.996 216.812 225.244 218.56 223.082 218.56Z" fill="#6600DE"/>
<path d="M138.937 265.394C136.776 265.394 135.024 263.647 135.024 261.491C135.024 259.336 136.776 257.588 138.937 257.588C141.099 257.588 142.851 259.336 142.851 261.491C142.851 263.647 141.099 265.394 138.937 265.394Z" fill="#6600DE"/>
<path d="M62.6195 230.268C60.458 230.268 58.7058 228.521 58.7058 226.366C58.7058 224.21 60.458 222.463 62.6195 222.463C64.781 222.463 66.5332 224.21 66.5332 226.366C66.5332 228.521 64.781 230.268 62.6195 230.268Z" fill="#6600DE"/>
<path d="M39.1371 31.2228C36.9756 31.2228 35.2233 29.4755 35.2233 27.32C35.2233 25.1645 36.9756 23.4171 39.1371 23.4171C41.2985 23.4171 43.0508 25.1645 43.0508 27.32C43.0508 29.4755 41.2985 31.2228 39.1371 31.2228Z" fill="#6600DE"/>
<path d="M293.53 64.3971C291.368 64.3971 289.616 62.6497 289.616 60.4943C289.616 58.3388 291.368 56.5914 293.53 56.5914C295.691 56.5914 297.443 58.3388 297.443 60.4943C297.443 62.6497 295.691 64.3971 293.53 64.3971Z" fill="#6600DE"/>
<path d="M258.306 158.066C256.145 158.066 254.392 156.318 254.392 154.163C254.392 152.007 256.145 150.26 258.306 150.26C260.467 150.26 262.22 152.007 262.22 154.163C262.22 156.318 260.467 158.066 258.306 158.066Z" fill="#6600DE"/>
<path d="M117.412 103.426C115.25 103.426 113.498 101.678 113.498 99.5228C113.498 97.3673 115.25 95.6199 117.412 95.6199C119.573 95.6199 121.326 97.3673 121.326 99.5228C121.326 101.678 119.573 103.426 117.412 103.426Z" fill="#6600DE"/>
</svg>
