<svg width="312" height="358" viewBox="0 0 312 358" fill="none" xmlns="http://www.w3.org/2000/svg">
<path d="M122.138 324.282L122.38 324.136V323.854V301.441L142.186 289.382L142.426 289.236V288.955V266.479L162.139 254.298L162.376 254.151V253.873V231.572L182.253 219.452L182.493 219.305V219.025V196.594L283.799 136.5V249.725L102.5 356.949V336.112L122.138 324.282Z" fill="#CBD5DD" stroke="black"/>
<path d="M0.5 276.106L1.35418 276.607L6.17556 279.435L25.4611 290.746L102.348 335.839L101.759 357.008L0.5 298V297.929V297.84V297.751V297.662V297.573V297.484V297.396V297.308V297.22V297.132V297.044V296.957V296.869V296.782V296.695V296.608V296.522V296.435V296.349V296.263V296.177V296.091V296.006V295.92V295.835V295.75V295.665V295.581V295.496V295.412V295.327V295.243V295.16V295.076V294.993V294.909V294.826V294.743V294.661V294.578V294.496V294.413V294.331V294.249V294.168V294.086V294.005V293.924V293.843V293.762V293.681V293.601V293.52V293.44V293.36V293.281V293.201V293.122V293.042V292.963V292.884V292.806V292.727V292.649V292.571V292.493V292.415V292.337V292.26V292.182V292.105V292.028V291.951V291.875V291.798V291.722V291.646V291.57V291.494V291.419V291.344V291.268V291.193V291.119V291.044V290.969V290.895V290.821V290.747V290.673V290.6V290.526V290.453V290.38V290.307V290.234V290.162V290.089V290.017V289.945V289.873V289.801V289.73V289.659V289.587V289.516V289.446V289.375V289.305V289.234V289.164V289.094V289.025V288.955V288.886V288.816V288.747V288.679V288.61V288.541V288.473V288.405V288.337V288.269V288.201V288.134V288.067V288V287.933V287.866V287.799V287.733V287.667V287.601V287.535V287.469V287.404V287.338V287.273V287.208V287.143V287.079V287.014V286.95V286.886V286.822V286.758V286.694V286.631V286.568V286.505V286.442V286.379V286.317V286.254V286.192V286.13V286.068V286.007V285.945V285.884V285.823V285.762V285.701V285.64V285.58V285.52V285.46V285.4V285.34V285.281V285.221V285.162V285.103V285.044V284.986V284.927V284.869V284.811V284.753V284.695V284.637V284.58V284.523V284.466V284.409V284.352V284.295V284.239V284.183V284.127V284.071V284.015V283.96V283.904V283.849V283.794V283.74V283.685V283.63V283.576V283.522V283.468V283.414V283.361V283.308V283.254V283.201V283.148V283.096V283.043V282.991V282.939V282.887V282.835V282.783V282.732V282.681V282.63V282.579V282.528V282.477V282.427V282.377V282.327V282.277V282.227V282.178V282.128V282.079V282.03V281.981V281.933V281.884V281.836V281.788V281.74V281.692V281.645V281.597V281.55V281.503V281.456V281.409V281.363V281.316V281.27V281.224V281.178V281.133V281.087V281.042V280.997V280.952V280.907V280.863V280.818V280.774V280.73V280.686V280.642V280.599V280.555V280.512V280.469V280.426V280.384V280.341V280.299V280.257V280.215V280.173V280.132V280.09V280.049V280.008V279.967V279.926V279.886V279.845V279.805V279.765V279.725V279.686V279.646V279.607V279.568V279.529V279.49V279.451V279.413V279.375V279.337V279.299V279.261V279.223V279.186V279.149V279.112V279.075V279.038V279.002V278.965V278.929V278.893V278.857V278.822V278.786V278.751V278.716V278.681V278.646V278.612V278.577V278.543V278.509V278.475V278.442V278.408V278.375V278.342V278.309V278.276V278.243V278.211V278.179V278.146V278.115V278.083V278.051V278.02V277.989V277.958V277.927V277.896V277.865V277.835V277.805V277.775V277.745V277.716V277.686V277.657V277.628V277.599V277.57V277.541V277.513V277.485V277.457V277.429V277.401V277.374V277.346V277.319V277.292V277.265V277.239V277.212V277.186V277.16V277.134V277.108V277.082V277.057V277.032V277.007V276.982V276.957V276.933V276.908V276.884V276.86V276.836V276.812V276.789V276.766V276.743V276.72V276.697V276.674V276.652V276.63V276.607V276.586V276.564V276.542V276.521V276.5V276.479V276.458V276.437V276.417V276.396V276.376V276.356V276.337V276.317V276.297V276.278V276.259V276.24V276.221V276.203V276.185V276.166V276.148V276.13V276.113V276.106Z" fill="#BCC6D0" stroke="black"/>
<path d="M40.5 206.301L41.3689 206.81L46.2345 209.664L65.6968 221.078L143.299 266.591L143.333 288.235L40.5 228.195V228.123V228.034V227.945V227.856V227.767V227.679V227.59V227.502V227.414V227.326V227.239V227.151V227.064V226.977V226.89V226.803V226.716V226.63V226.543V226.457V226.371V226.286V226.2V226.115V226.03V225.944V225.86V225.775V225.69V225.606V225.522V225.438V225.354V225.27V225.187V225.104V225.021V224.938V224.855V224.772V224.69V224.608V224.526V224.444V224.362V224.281V224.199V224.118V224.037V223.956V223.876V223.795V223.715V223.635V223.555V223.475V223.395V223.316V223.237V223.158V223.079V223V222.922V222.843V222.765V222.687V222.609V222.531V222.454V222.377V222.3V222.223V222.146V222.069V221.993V221.917V221.84V221.765V221.689V221.613V221.538V221.463V221.388V221.313V221.238V221.164V221.089V221.015V220.941V220.868V220.794V220.72V220.647V220.574V220.501V220.429V220.356V220.284V220.211V220.139V220.068V219.996V219.924V219.853V219.782V219.711V219.64V219.569V219.499V219.429V219.359V219.289V219.219V219.149V219.08V219.011V218.942V218.873V218.804V218.736V218.667V218.599V218.531V218.463V218.396V218.328V218.261V218.194V218.127V218.06V217.994V217.927V217.861V217.795V217.729V217.664V217.598V217.533V217.467V217.402V217.338V217.273V217.209V217.144V217.08V217.016V216.952V216.889V216.825V216.762V216.699V216.636V216.574V216.511V216.449V216.387V216.325V216.263V216.201V216.14V216.078V216.017V215.956V215.895V215.835V215.774V215.714V215.654V215.594V215.535V215.475V215.416V215.356V215.297V215.239V215.18V215.121V215.063V215.005V214.947V214.889V214.832V214.774V214.717V214.66V214.603V214.546V214.49V214.433V214.377V214.321V214.265V214.21V214.154V214.099V214.044V213.989V213.934V213.879V213.825V213.771V213.717V213.663V213.609V213.555V213.502V213.449V213.396V213.343V213.29V213.238V213.185V213.133V213.081V213.029V212.978V212.926V212.875V212.824V212.773V212.722V212.672V212.621V212.571V212.521V212.471V212.422V212.372V212.323V212.274V212.225V212.176V212.127V212.079V212.03V211.982V211.934V211.887V211.839V211.792V211.744V211.697V211.65V211.604V211.557V211.511V211.465V211.419V211.373V211.327V211.282V211.236V211.191V211.146V211.102V211.057V211.013V210.968V210.924V210.88V210.837V210.793V210.75V210.707V210.664V210.621V210.578V210.536V210.493V210.451V210.409V210.368V210.326V210.285V210.243V210.202V210.161V210.121V210.08V210.04V209.999V209.959V209.92V209.88V209.84V209.801V209.762V209.723V209.684V209.646V209.607V209.569V209.531V209.493V209.455V209.418V209.38V209.343V209.306V209.269V209.233V209.196V209.16V209.124V209.088V209.052V209.016V208.981V208.946V208.91V208.876V208.841V208.806V208.772V208.738V208.704V208.67V208.636V208.603V208.569V208.536V208.503V208.47V208.438V208.405V208.373V208.341V208.309V208.277V208.246V208.214V208.183V208.152V208.121V208.09V208.06V208.03V207.999V207.969V207.94V207.91V207.88V207.851V207.822V207.793V207.764V207.736V207.707V207.679V207.651V207.623V207.596V207.568V207.541V207.513V207.486V207.46V207.433V207.407V207.38V207.354V207.328V207.302V207.277V207.251V207.226V207.201V207.176V207.151V207.127V207.103V207.078V207.054V207.031V207.007V206.983V206.96V206.937V206.914V206.891V206.869V206.846V206.824V206.802V206.78V206.758V206.737V206.715V206.694V206.673V206.652V206.632V206.611V206.591V206.571V206.551V206.531V206.511V206.492V206.473V206.454V206.435V206.416V206.397V206.379V206.361V206.343V206.325V206.307V206.301Z" fill="#BCC6D0" stroke="black"/>
<path d="M20.5 241.203L21.3727 241.715L26.2497 244.576L45.7575 256.017L123.539 301.635L123.352 323.149L20.5 263.098V263.026V262.937V262.848V262.759V262.67V262.582V262.493V262.405V262.317V262.229V262.141V262.054V261.967V261.879V261.792V261.706V261.619V261.533V261.446V261.36V261.274V261.189V261.103V261.018V260.932V260.847V260.762V260.678V260.593V260.509V260.425V260.341V260.257V260.173V260.09V260.007V259.923V259.84V259.758V259.675V259.593V259.511V259.428V259.347V259.265V259.183V259.102V259.021V258.94V258.859V258.778V258.698V258.618V258.537V258.458V258.378V258.298V258.219V258.14V258.06V257.982V257.903V257.824V257.746V257.668V257.59V257.512V257.434V257.357V257.28V257.202V257.125V257.049V256.972V256.896V256.819V256.743V256.667V256.592V256.516V256.441V256.366V256.291V256.216V256.141V256.067V255.992V255.918V255.844V255.77V255.697V255.623V255.55V255.477V255.404V255.331V255.259V255.186V255.114V255.042V254.97V254.899V254.827V254.756V254.685V254.614V254.543V254.472V254.402V254.332V254.261V254.192V254.122V254.052V253.983V253.914V253.845V253.776V253.707V253.639V253.57V253.502V253.434V253.366V253.299V253.231V253.164V253.097V253.03V252.963V252.897V252.83V252.764V252.698V252.632V252.566V252.501V252.435V252.37V252.305V252.24V252.176V252.111V252.047V251.983V251.919V251.855V251.792V251.728V251.665V251.602V251.539V251.476V251.414V251.352V251.289V251.227V251.166V251.104V251.042V250.981V250.92V250.859V250.798V250.738V250.677V250.617V250.557V250.497V250.437V250.378V250.318V250.259V250.2V250.141V250.083V250.024V249.966V249.908V249.85V249.792V249.734V249.677V249.62V249.563V249.506V249.449V249.393V249.336V249.28V249.224V249.168V249.112V249.057V249.002V248.946V248.892V248.837V248.782V248.728V248.673V248.619V248.565V248.512V248.458V248.405V248.352V248.299V248.246V248.193V248.14V248.088V248.036V247.984V247.932V247.881V247.829V247.778V247.727V247.676V247.625V247.575V247.524V247.474V247.424V247.374V247.324V247.275V247.225V247.176V247.127V247.079V247.03V246.981V246.933V246.885V246.837V246.789V246.742V246.694V246.647V246.6V246.553V246.507V246.46V246.414V246.367V246.321V246.276V246.23V246.185V246.139V246.094V246.049V246.004V245.96V245.915V245.871V245.827V245.783V245.74V245.696V245.653V245.609V245.566V245.524V245.481V245.439V245.396V245.354V245.312V245.27V245.229V245.187V245.146V245.105V245.064V245.023V244.983V244.943V244.902V244.862V244.822V244.783V244.743V244.704V244.665V244.626V244.587V244.549V244.51V244.472V244.434V244.396V244.358V244.321V244.283V244.246V244.209V244.172V244.135V244.099V244.063V244.026V243.991V243.955V243.919V243.884V243.848V243.813V243.778V243.744V243.709V243.675V243.64V243.606V243.573V243.539V243.505V243.472V243.439V243.406V243.373V243.34V243.308V243.276V243.244V243.212V243.18V243.148V243.117V243.086V243.055V243.024V242.993V242.963V242.932V242.902V242.872V242.842V242.813V242.783V242.754V242.725V242.696V242.667V242.639V242.61V242.582V242.554V242.526V242.498V242.471V242.443V242.416V242.389V242.362V242.336V242.309V242.283V242.257V242.231V242.205V242.18V242.154V242.129V242.104V242.079V242.054V242.03V242.005V241.981V241.957V241.933V241.91V241.886V241.863V241.84V241.817V241.794V241.771V241.749V241.727V241.705V241.683V241.661V241.64V241.618V241.597V241.576V241.555V241.534V241.514V241.494V241.474V241.454V241.434V241.414V241.395V241.375V241.356V241.337V241.319V241.3V241.282V241.264V241.246V241.228V241.21V241.203Z" fill="#BCC6D0" stroke="black"/>
<path d="M60.5 171.398L61.391 171.921L66.323 174.813L86.0509 186.383L164.716 232.519L164.748 254.158L60.5 193.292V193.221V193.131V193.042V192.953V192.865V192.776V192.688V192.599V192.511V192.424V192.336V192.248V192.161V192.074V191.987V191.9V191.813V191.727V191.641V191.555V191.469V191.383V191.297V191.212V191.127V191.042V190.957V190.872V190.788V190.703V190.619V190.535V190.451V190.368V190.284V190.201V190.118V190.035V189.952V189.87V189.787V189.705V189.623V189.541V189.459V189.378V189.296V189.215V189.134V189.053V188.973V188.892V188.812V188.732V188.652V188.572V188.493V188.413V188.334V188.255V188.176V188.097V188.019V187.94V187.862V187.784V187.706V187.629V187.551V187.474V187.397V187.32V187.243V187.167V187.09V187.014V186.938V186.862V186.786V186.711V186.635V186.56V186.485V186.41V186.336V186.261V186.187V186.113V186.039V185.965V185.891V185.818V185.745V185.671V185.599V185.526V185.453V185.381V185.309V185.237V185.165V185.093V185.022V184.95V184.879V184.808V184.737V184.667V184.596V184.526V184.456V184.386V184.316V184.247V184.177V184.108V184.039V183.97V183.902V183.833V183.765V183.697V183.629V183.561V183.493V183.426V183.358V183.291V183.224V183.158V183.091V183.025V182.958V182.892V182.826V182.761V182.695V182.63V182.565V182.5V182.435V182.37V182.306V182.242V182.177V182.114V182.05V181.986V181.923V181.86V181.796V181.734V181.671V181.608V181.546V181.484V181.422V181.36V181.298V181.237V181.176V181.114V181.054V180.993V180.932V180.872V180.811V180.751V180.692V180.632V180.572V180.513V180.454V180.395V180.336V180.277V180.219V180.16V180.102V180.044V179.987V179.929V179.872V179.814V179.757V179.7V179.644V179.587V179.531V179.474V179.418V179.363V179.307V179.251V179.196V179.141V179.086V179.031V178.977V178.922V178.868V178.814V178.76V178.706V178.653V178.599V178.546V178.493V178.44V178.387V178.335V178.283V178.23V178.178V178.127V178.075V178.024V177.972V177.921V177.87V177.82V177.769V177.719V177.668V177.618V177.568V177.519V177.469V177.42V177.371V177.322V177.273V177.224V177.176V177.128V177.08V177.032V176.984V176.936V176.889V176.842V176.795V176.748V176.701V176.654V176.608V176.562V176.516V176.47V176.424V176.379V176.334V176.289V176.244V176.199V176.154V176.11V176.066V176.022V175.978V175.934V175.89V175.847V175.804V175.761V175.718V175.675V175.633V175.591V175.549V175.507V175.465V175.423V175.382V175.341V175.3V175.259V175.218V175.177V175.137V175.097V175.057V175.017V174.977V174.938V174.898V174.859V174.82V174.782V174.743V174.705V174.666V174.628V174.59V174.553V174.515V174.478V174.44V174.403V174.367V174.33V174.293V174.257V174.221V174.185V174.149V174.114V174.078V174.043V174.008V173.973V173.938V173.904V173.869V173.835V173.801V173.767V173.733V173.7V173.667V173.633V173.6V173.568V173.535V173.503V173.47V173.438V173.406V173.374V173.343V173.311V173.28V173.249V173.218V173.188V173.157V173.127V173.097V173.067V173.037V173.007V172.978V172.948V172.919V172.89V172.862V172.833V172.805V172.776V172.748V172.72V172.693V172.665V172.638V172.611V172.584V172.557V172.53V172.504V172.478V172.451V172.425V172.4V172.374V172.349V172.323V172.298V172.273V172.249V172.224V172.2V172.176V172.152V172.128V172.104V172.081V172.057V172.034V172.011V171.989V171.966V171.943V171.921V171.899V171.877V171.856V171.834V171.813V171.791V171.77V171.75V171.729V171.708V171.688V171.668V171.648V171.628V171.609V171.589V171.57V171.551V171.532V171.513V171.495V171.476V171.458V171.44V171.422V171.404V171.398Z" fill="#BCC6D0" stroke="black"/>
<path d="M80.5 136.49L81.3741 136.997L86.2491 139.825L105.749 151.138L183.503 196.244L183.722 218.657L80.5 158.39V158.318V158.229V158.139V158.051V157.962V157.873V157.785V157.697V157.609V157.521V157.433V157.346V157.258V157.171V157.084V156.997V156.911V156.824V156.738V156.652V156.566V156.48V156.395V156.309V156.224V156.139V156.054V155.969V155.885V155.801V155.716V155.632V155.549V155.465V155.381V155.298V155.215V155.132V155.049V154.967V154.884V154.802V154.72V154.638V154.557V154.475V154.394V154.312V154.231V154.151V154.07V153.99V153.909V153.829V153.749V153.669V153.59V153.51V153.431V153.352V153.273V153.195V153.116V153.038V152.959V152.881V152.804V152.726V152.648V152.571V152.494V152.417V152.34V152.264V152.187V152.111V152.035V151.959V151.883V151.808V151.732V151.657V151.582V151.507V151.433V151.358V151.284V151.21V151.136V151.062V150.988V150.915V150.842V150.769V150.696V150.623V150.55V150.478V150.406V150.334V150.262V150.19V150.119V150.047V149.976V149.905V149.835V149.764V149.693V149.623V149.553V149.483V149.413V149.344V149.275V149.205V149.136V149.067V148.999V148.93V148.862V148.794V148.726V148.658V148.59V148.523V148.456V148.388V148.322V148.255V148.188V148.122V148.056V147.99V147.924V147.858V147.792V147.727V147.662V147.597V147.532V147.467V147.403V147.339V147.275V147.211V147.147V147.083V147.02V146.957V146.894V146.831V146.768V146.706V146.643V146.581V146.519V146.457V146.396V146.334V146.273V146.212V146.151V146.09V146.029V145.969V145.909V145.849V145.789V145.729V145.669V145.61V145.551V145.492V145.433V145.374V145.316V145.258V145.199V145.142V145.084V145.026V144.969V144.911V144.854V144.797V144.741V144.684V144.628V144.572V144.516V144.46V144.404V144.349V144.293V144.238V144.183V144.128V144.074V144.019V143.965V143.911V143.857V143.803V143.75V143.696V143.643V143.59V143.537V143.485V143.432V143.38V143.328V143.276V143.224V143.172V143.121V143.07V143.018V142.967V142.917V142.866V142.816V142.766V142.716V142.666V142.616V142.566V142.517V142.468V142.419V142.37V142.322V142.273V142.225V142.177V142.129V142.081V142.033V141.986V141.939V141.892V141.845V141.798V141.752V141.705V141.659V141.613V141.567V141.522V141.476V141.431V141.386V141.341V141.296V141.251V141.207V141.163V141.119V141.075V141.031V140.988V140.944V140.901V140.858V140.815V140.773V140.73V140.688V140.646V140.604V140.562V140.52V140.479V140.438V140.397V140.356V140.315V140.275V140.234V140.194V140.154V140.114V140.074V140.035V139.996V139.957V139.918V139.879V139.84V139.802V139.763V139.725V139.687V139.65V139.612V139.575V139.538V139.501V139.464V139.427V139.391V139.354V139.318V139.282V139.246V139.211V139.175V139.14V139.105V139.07V139.035V139.001V138.966V138.932V138.898V138.864V138.831V138.797V138.764V138.731V138.698V138.665V138.632V138.6V138.567V138.535V138.503V138.472V138.44V138.409V138.377V138.346V138.316V138.285V138.254V138.224V138.194V138.164V138.134V138.104V138.075V138.046V138.017V137.988V137.959V137.93V137.902V137.874V137.846V137.818V137.79V137.762V137.735V137.708V137.681V137.654V137.627V137.601V137.575V137.549V137.523V137.497V137.471V137.446V137.421V137.396V137.371V137.346V137.321V137.297V137.273V137.249V137.225V137.201V137.178V137.155V137.131V137.108V137.086V137.063V137.041V137.018V136.996V136.974V136.953V136.931V136.91V136.889V136.868V136.847V136.826V136.806V136.785V136.765V136.745V136.725V136.706V136.686V136.667V136.648V136.629V136.61V136.592V136.573V136.555V136.537V136.519V136.502V136.49Z" fill="#BCC6D0" stroke="black"/>
<path d="M102.377 334.801L0.974956 275.54L20.1273 263.849L122.014 323.417L102.377 334.801Z" fill="#F1F3FC" stroke="black"/>
<path d="M143.151 265.448L40.975 205.735L60.1273 194.044L161.915 253.554L143.151 265.448Z" fill="#F1F3FC" stroke="black"/>
<path d="M122.479 299.958L20.975 240.637L40.1273 228.946L141.781 288.378L122.479 299.958Z" fill="#F1F3FC" stroke="black"/>
<path d="M162.654 230.255L60.975 170.832L80.1273 159.141L181.58 218.455L162.654 230.255Z" fill="#F1F3FC" stroke="black"/>
<path d="M182.873 195.48L80.9821 135.933L182.534 75.1419L283.514 135.935L182.873 195.48Z" fill="#F1F3FC" stroke="black"/>
<path d="M215.042 102.326C195.266 100.596 181.137 77.4517 183.483 50.6324C185.83 23.813 203.763 3.47421 223.539 5.20433C243.314 6.93446 257.443 30.0784 255.097 56.8977C252.75 83.717 234.817 104.056 215.042 102.326Z" fill="#460F87"/>
<path d="M211.237 99.9956C193.658 98.4577 181.233 76.357 183.484 50.6324C185.734 24.9077 201.809 5.30044 219.387 6.83833C236.965 8.37622 249.39 30.4769 247.14 56.2016C244.889 81.9262 228.815 101.533 211.237 99.9956Z" fill="#6600DE"/>
<path fill-rule="evenodd" clip-rule="evenodd" d="M238.361 41.9791L233.886 41.5875L225.595 66.9262L224.64 66.8426L219.75 40.95L215.095 40.5427L205.781 65.1927L204.768 65.104L201.063 38.7159L196.587 38.3243L201.087 68.6766L208.547 69.3293L216.907 46.6331L221.198 70.4362L228.658 71.0888L238.361 41.9791Z" fill="white"/>
<path d="M223.224 125.998C210.809 119.397 208.002 100.396 216.954 83.5581C225.907 66.7205 243.229 58.4224 255.645 65.0238C268.06 71.6251 270.867 90.6261 261.914 107.464C252.962 124.301 235.639 132.599 223.224 125.998Z" fill="#460F87"/>
<path d="M221.388 123.426C210.352 117.558 208.367 99.7084 216.954 83.5581C225.542 67.4078 241.449 59.0722 252.485 64.9401C263.521 70.8079 265.506 88.6572 256.919 104.808C248.331 120.958 232.424 129.293 221.388 123.426Z" fill="#6600DE"/>
<path fill-rule="evenodd" clip-rule="evenodd" d="M255.131 93.1046L252.321 91.6105L239.903 105.837L239.303 105.519L243.281 87.2823L240.358 85.7285L227.463 99.2234L226.827 98.8849L231.715 80.6537L228.905 79.1596L223.438 100.196L228.122 102.686L239.854 90.2012L236.064 106.909L240.748 109.399L255.131 93.1046Z" fill="white"/>
<path d="M232 106.703C199.415 106.703 173 93.9783 173 78.2819C173 62.5856 199.415 49.8611 232 49.8611C264.585 49.8611 291 62.5856 291 78.2819C291 93.9783 264.585 106.703 232 106.703Z" stroke="#5A98FF"/>
<path d="M232.5 133.628C209.58 133.628 191 124.475 191 113.185C191 101.894 209.58 92.7417 232.5 92.7417C255.42 92.7417 274 101.894 274 113.185C274 124.475 255.42 133.628 232.5 133.628Z" stroke="#5A98FF"/>
<path d="M236 72.7972C194.579 72.7972 161 56.9475 161 37.3958C161 17.8442 194.579 1.99445 236 1.99445C277.421 1.99445 311 17.8442 311 37.3958C311 56.9475 277.421 72.7972 236 72.7972Z" stroke="#5A98FF"/>
<path d="M163 36.8972C160.791 36.8972 159 35.1113 159 32.9083C159 30.7053 160.791 28.9194 163 28.9194C165.209 28.9194 167 30.7053 167 32.9083C167 35.1113 165.209 36.8972 163 36.8972Z" fill="#A168D3"/>
<path d="M263 7.97778C260.791 7.97778 259 6.19189 259 3.98889C259 1.78589 260.791 0 263 0C265.209 0 267 1.78589 267 3.98889C267 6.19189 265.209 7.97778 263 7.97778Z" fill="#A168D3"/>
<path d="M274 70.8028C271.791 70.8028 270 69.0169 270 66.8139C270 64.6109 271.791 62.825 274 62.825C276.209 62.825 278 64.6109 278 66.8139C278 69.0169 276.209 70.8028 274 70.8028Z" fill="#A168D3"/>
<path d="M174 74.7917C172.343 74.7917 171 73.4523 171 71.8C171 70.1478 172.343 68.8083 174 68.8083C175.657 68.8083 177 70.1478 177 71.8C177 73.4523 175.657 74.7917 174 74.7917Z" fill="#A168D3"/>
<path d="M191 101.717C189.343 101.717 188 100.377 188 98.725C188 97.0728 189.343 95.7333 191 95.7333C192.657 95.7333 194 97.0728 194 98.725C194 100.377 192.657 101.717 191 101.717Z" fill="#A168D3"/>
<path d="M278 98.725C276.343 98.725 275 97.3856 275 95.7333C275 94.0811 276.343 92.7417 278 92.7417C279.657 92.7417 281 94.0811 281 95.7333C281 97.3856 279.657 98.725 278 98.725Z" fill="#A168D3"/>
<path d="M260 56.8417C258.343 56.8417 257 55.5023 257 53.85C257 52.1978 258.343 50.8583 260 50.8583C261.657 50.8583 263 52.1978 263 53.85C263 55.5023 261.657 56.8417 260 56.8417Z" fill="#A168D3"/>
<path d="M273 111.689C271.895 111.689 271 110.796 271 109.694C271 108.593 271.895 107.7 273 107.7C274.105 107.7 275 108.593 275 109.694C275 110.796 274.105 111.689 273 111.689Z" fill="#A168D3"/>
<path d="M230 135.622C228.895 135.622 228 134.729 228 133.628C228 132.526 228.895 131.633 230 131.633C231.105 131.633 232 132.526 232 133.628C232 134.729 231.105 135.622 230 135.622Z" fill="#A168D3"/>
<path d="M191 117.672C189.895 117.672 189 116.779 189 115.678C189 114.576 189.895 113.683 191 113.683C192.105 113.683 193 114.576 193 115.678C193 116.779 192.105 117.672 191 117.672Z" fill="#A168D3"/>
<path d="M179 15.9556C177.895 15.9556 177 15.0626 177 13.9611C177 12.8596 177.895 11.9667 179 11.9667C180.105 11.9667 181 12.8596 181 13.9611C181 15.0626 180.105 15.9556 179 15.9556Z" fill="#A168D3"/>
<path d="M309 32.9083C307.895 32.9083 307 32.0154 307 30.9139C307 29.8124 307.895 28.9194 309 28.9194C310.105 28.9194 311 29.8124 311 30.9139C311 32.0154 310.105 32.9083 309 32.9083Z" fill="#A168D3"/>
<path d="M291 80.775C289.895 80.775 289 79.882 289 78.7805C289 77.679 289.895 76.7861 291 76.7861C292.105 76.7861 293 77.679 293 78.7805C293 79.882 292.105 80.775 291 80.775Z" fill="#A168D3"/>
<path d="M219 52.8528C217.895 52.8528 217 51.9598 217 50.8583C217 49.7568 217.895 48.8639 219 48.8639C220.105 48.8639 221 49.7568 221 50.8583C221 51.9598 220.105 52.8528 219 52.8528Z" fill="#A168D3"/>
<path fill-rule="evenodd" clip-rule="evenodd" d="M82.6506 210.275C86.5667 198.793 84.7841 193.361 77.3029 193.979C69.8217 194.596 67.8193 199.352 71.2956 208.246C69.7743 212.674 69.0502 215.071 69.1232 215.437C70.5019 222.343 77.1407 216.772 77.8811 216.772C78.7154 216.772 79.0178 214.906 78.7883 211.173L82.6506 210.275Z" fill="#D3DAE0"/>
<path fill-rule="evenodd" clip-rule="evenodd" d="M97.0588 218.982C93.4818 229.371 92.72 236.042 88.0411 236.448C84.9218 236.719 83.2123 235.378 82.9125 232.424C85.7785 227.205 87.6668 224.931 88.5775 225.601C89.9436 226.605 94.7474 214.449 94.8912 213.598C95.035 212.748 94.9905 206.605 96.7231 206.916C98.4556 207.227 100.636 208.594 97.0588 218.982Z" fill="#D3DAE0"/>
<path fill-rule="evenodd" clip-rule="evenodd" d="M74.3544 202.526C75.0707 202.882 75.1876 203.2 74.705 203.479C74.2223 203.759 73.1602 204.019 71.5186 204.259" fill="#D3DAE0"/>
<path d="M82.5453 234.267V232.724L83.4503 233.974L85.122 236.283C86.5259 234.924 87.4251 233.91 87.855 233.228C88.3094 232.508 88.8095 231.254 89.3452 229.423C87.927 225.627 86.6367 222.592 85.4746 220.31C84.2882 217.98 83.2624 216.492 82.4077 215.765C81.7442 215.201 81.1732 214.887 80.6497 214.724C80.1289 214.562 79.6255 214.54 79.0812 214.601C78.5527 214.66 78.0033 214.795 77.357 214.953C77.3235 214.961 77.2897 214.97 77.2556 214.978C76.5748 215.145 75.8067 215.328 74.9209 215.443C73.1149 215.677 71.9938 215.413 70.92 215.03C70.6941 214.949 70.4745 214.865 70.2536 214.781C69.4414 214.47 68.6132 214.153 67.3954 213.972C66.7891 213.881 66.2464 214.111 65.7373 214.622C65.2179 215.145 64.7685 215.932 64.401 216.85C63.6662 218.686 63.3231 220.88 63.3231 222.026C63.3231 223.176 63.1896 224.086 63.0598 224.971C63.0484 225.049 63.037 225.126 63.0258 225.204C62.8868 226.161 62.7628 227.129 62.8067 228.438C62.8713 230.362 62.8445 232.145 62.8234 233.552C62.8147 234.132 62.807 234.647 62.807 235.083C62.807 235.777 62.9354 237.213 63.0695 238.712C63.0892 238.933 63.1091 239.154 63.1286 239.375C63.204 240.227 63.2746 241.06 63.3153 241.732C63.3356 242.068 63.3488 242.369 63.3511 242.615C63.3532 242.847 63.3468 243.075 63.3121 243.238C62.8736 245.293 62.6974 247.374 62.7836 249.482L82.5453 250.207V234.267Z" fill="#5A98FF" stroke="black"/>
<path fill-rule="evenodd" clip-rule="evenodd" d="M79.2756 198.291C78.6091 198.288 76.9378 199.745 77.0276 203.034C77.1174 206.324 73.5423 208.971 71.4465 208.61C69.3506 208.249 67.4383 199.669 68.8916 194.914C70.3449 190.16 78.4481 189.841 81.2297 190.643C84.0113 191.445 84.8232 195.052 84.0113 196.672C83.1993 198.291 79.9422 198.294 79.2756 198.291Z" fill="#32C098"/>
<path fill-rule="evenodd" clip-rule="evenodd" d="M79.2746 205.7C80.0476 207.623 82.3975 207.188 82.3975 209.434C82.3975 211.679 78.4104 211.875 77.5711 211.287C76.7317 210.699 76.8894 208.266 77.1595 207.253C77.4295 206.239 76.2473 201.811 75.9254 201.029C75.6034 200.247 74.1601 199.946 74.455 198.982C74.7499 198.019 76.1711 196.461 76.6126 196.429C76.9069 196.407 77.4861 196.92 78.3504 197.968C78.2224 199.413 78.1493 200.434 78.1311 201.029C78.1039 201.921 78.5016 203.777 79.2746 205.7Z" fill="#32C098"/>
<path fill-rule="evenodd" clip-rule="evenodd" d="M62.3114 249.468C62.2339 252.631 62.3317 255.176 62.605 257.102C63.6135 264.211 65.346 270.745 65.5137 271.478C65.6757 272.186 64.5222 275.977 65.5137 283.113C65.8151 285.282 66.6458 290.324 68.0059 298.239H71.2731L71.6745 275.876C71.8946 274.365 72.0047 273.435 72.0047 273.085C72.0047 272.559 73.5662 267.439 73.5662 264.76C73.5662 262.081 70.5456 257.583 73.5662 258.156C75.5799 258.539 78.3493 261.266 81.8744 266.338C79.7702 269.153 78.4568 271.284 77.9342 272.731C77.4116 274.179 76.7986 276.881 76.0952 280.837L78.6314 282.098L87.3492 267.624C87.9781 266.84 88.2925 266.103 88.2925 265.414C88.2925 264.725 88.197 264.141 88.006 263.661L83.0663 250.522L62.3114 249.468Z" fill="#0A0F5F"/>
<path d="M79.0472 282.006L76.2628 281.732C75.4821 282.277 75.2993 282.731 75.3494 283.084C75.3545 283.12 75.3786 283.189 75.4985 283.29C75.6215 283.394 75.8105 283.501 76.07 283.611C76.5212 283.801 77.0845 283.957 77.6789 284.121C77.7739 284.147 77.8696 284.174 77.9658 284.201C78.2173 284.271 78.4769 284.427 78.6735 284.545C78.6885 284.554 78.7032 284.562 78.7175 284.571C78.9519 284.711 79.1369 284.816 79.3065 284.867C79.4602 284.914 79.9637 285.012 80.5789 285.047C81.1967 285.082 81.8553 285.048 82.3488 284.874C83.2954 284.542 83.9191 284.169 84.2516 283.882C84.2314 283.883 84.2107 283.883 84.1895 283.884C83.8165 283.893 83.2951 283.905 82.7498 283.88C81.9816 283.845 81.0842 283.735 80.2825 283.418C79.9881 283.302 79.7424 283.07 79.5345 282.8C79.367 282.583 79.2051 282.316 79.0472 282.006ZM84.6575 283.887C84.6582 283.887 84.6533 283.885 84.6408 283.883C84.6505 283.887 84.6568 283.888 84.6575 283.887Z" fill="#5A98FF" stroke="black"/>
<path d="M70.9617 298.669H68.2847C67.4855 299.221 67.2988 299.68 67.3494 300.036C67.3545 300.073 67.3786 300.141 67.4985 300.243C67.6215 300.347 67.8105 300.454 68.07 300.563C68.5212 300.753 69.0845 300.909 69.6789 301.074C69.7739 301.1 69.8696 301.126 69.9658 301.153C70.2173 301.224 70.4769 301.379 70.6735 301.497C70.6885 301.506 70.7032 301.515 70.7175 301.524C70.9519 301.664 71.1369 301.769 71.3065 301.82C71.4602 301.867 71.9637 301.965 72.5789 302C73.1967 302.035 73.8553 302 74.3488 301.827C75.2954 301.495 75.9191 301.122 76.2516 300.835C76.2314 300.836 76.2107 300.836 76.1895 300.837C75.8165 300.846 75.2951 300.858 74.7498 300.833C73.9816 300.798 73.0842 300.688 72.2825 300.371C71.9633 300.244 71.7066 299.96 71.4952 299.649C71.3177 299.387 71.1403 299.059 70.9617 298.669ZM76.6575 300.84C76.6582 300.84 76.6533 300.838 76.6408 300.836C76.6505 300.84 76.6568 300.841 76.6575 300.84Z" fill="#5A98FF" stroke="black"/>
<path fill-rule="evenodd" clip-rule="evenodd" d="M31.5036 180.834C32.3203 177.968 33.6038 166.267 24.128 167.245C17.8108 167.897 16.3495 172.993 19.7443 182.531C18.2175 186.618 17.4907 188.83 17.564 189.167C18.9477 195.541 25.6109 190.4 26.3539 190.4C27.1913 190.4 27.4948 188.677 27.2644 185.232C29.5461 184.21 30.9592 182.744 31.5036 180.834Z" fill="#D3DAE0"/>
<path fill-rule="evenodd" clip-rule="evenodd" d="M14.4296 194.922C7.84814 203.656 4.17873 207.049 6.50895 211.183C8.06243 213.939 9.82546 213.452 11.798 209.723C14.1896 207.41 14.8479 206.058 13.773 205.668C12.1607 205.082 19.51 194.345 20.1336 193.755C20.7572 193.164 25.8806 189.804 24.6348 188.528C23.3891 187.253 21.0111 186.188 14.4296 194.922Z" fill="#D3DAE0"/>
<path fill-rule="evenodd" clip-rule="evenodd" d="M48.3283 196.292C42.6958 205.667 40.5958 212.017 35.8901 211.405C32.7529 210.997 31.3345 209.318 31.6349 206.369C35.5207 201.89 37.846 200.076 38.6107 200.927C39.7579 202.202 46.9597 191.366 47.2735 190.567C47.5874 189.767 48.784 183.758 50.4333 184.435C52.0826 185.113 53.9608 186.918 48.3283 196.292Z" fill="#D3DAE0"/>
<path d="M31.1457 208.082V206.964L31.979 207.709L32.8851 208.52C34.0186 207.868 34.8777 207.208 35.4798 206.547C36.1214 205.842 36.9644 204.595 38.0116 202.776C36.5845 199.029 35.2855 196.029 34.1149 193.772C32.913 191.453 31.8737 189.972 31.0072 189.248C30.3347 188.686 29.7551 188.373 29.2226 188.21C28.6925 188.048 28.1802 188.026 27.627 188.087C27.0905 188.146 26.5329 188.28 25.8784 188.438C25.8443 188.446 25.8099 188.454 25.7753 188.463C25.0854 188.629 24.3077 188.811 23.4109 188.925C22.4794 189.044 21.7652 188.965 21.1513 188.777C20.6162 188.613 20.1692 188.369 19.7649 188.147C19.716 188.12 19.6678 188.094 19.6201 188.068C19.1693 187.823 18.7377 187.607 18.1819 187.481C17.6278 187.354 16.9224 187.312 15.9364 187.461C14.0584 187.744 12.6172 189.023 11.4678 190.655C10.4129 192.153 9.65067 193.881 9.04229 195.261C8.9877 195.384 8.93436 195.505 8.88215 195.623C8.08235 197.426 7.20036 201.457 6.25186 207.793C6.41638 208.409 6.68167 208.873 7.03084 209.212C7.39628 209.566 7.88262 209.812 8.51702 209.93C9.17224 210.053 9.63955 210.002 9.96523 209.848C10.2695 209.704 10.5108 209.441 10.6709 208.997C10.7429 208.649 10.8283 208.335 10.9495 208.135C10.9944 208.062 11.1685 207.793 11.5078 207.807C11.6758 207.814 11.7999 207.893 11.8752 207.96C11.9482 208.026 11.9976 208.1 12.0303 208.158C12.1675 208.399 12.243 208.706 12.2886 209.015C12.3355 209.334 12.3566 209.701 12.3601 210.092C12.367 210.872 12.3036 211.786 12.2129 212.673C12.0316 214.445 11.7357 216.162 11.6425 216.592C11.1985 218.636 11.02 220.706 11.107 222.802L31.1457 223.525V208.082Z" fill="#0A0F5F" stroke="black"/>
<path d="M27.314 245.497C26.8286 246.841 26.2693 249.315 25.6401 252.951L27.8806 253.493L35.6254 240.284L35.6439 240.253L35.6667 240.224C36.256 239.489 36.5 238.86 36.5 238.327C36.5 237.681 36.4101 237.164 36.249 236.759L36.2489 236.76L36.2455 236.75L31.4244 223.927L11.1993 223.43C11.2436 226.089 11.3933 228.307 11.6462 230.089C12.4922 236.052 13.9588 241.484 14.5071 243.514C14.61 243.895 14.6806 244.157 14.7086 244.279C14.7477 244.45 14.7394 244.692 14.7262 244.914C14.7115 245.163 14.6827 245.482 14.648 245.854C14.6422 245.916 14.6363 245.979 14.6302 246.044C14.5622 246.77 14.4749 247.701 14.4093 248.8C14.2663 251.195 14.2267 254.377 14.7165 257.902C15.0124 260.032 15.8757 265.62 17.3075 274.673H19.3186L20.2122 253.74V253.733V253.716V253.698V253.681V253.664V253.647V253.629V253.612V253.595V253.578V253.561V253.544V253.527V253.51V253.493V253.476V253.459V253.442V253.426V253.409V253.392V253.375V253.359V253.342V253.325V253.309V253.292V253.276V253.259V253.243V253.226V253.21V253.193V253.177V253.161V253.144V253.128V253.112V253.095V253.079V253.063V253.047V253.031V253.015V252.999V252.983V252.967V252.951V252.935V252.919V252.903V252.887V252.872V252.856V252.84V252.824V252.809V252.793V252.777V252.762V252.746V252.731V252.715V252.7V252.684V252.669V252.653V252.638V252.623V252.607V252.592V252.577V252.562V252.547V252.531V252.516V252.501V252.486V252.471V252.456V252.441V252.426V252.411V252.396V252.382V252.367V252.352V252.337V252.322V252.308V252.293V252.278V252.264V252.249V252.235V252.22V252.206V252.191V252.177V252.162V252.148V252.134V252.119V252.105V252.091V252.077V252.063V252.048V252.034V252.02V252.006V251.992V251.978V251.964V251.95V251.936V251.922V251.908V251.895V251.881V251.867V251.853V251.84V251.826V251.812V251.799V251.785V251.771V251.758V251.744V251.731V251.718V251.704V251.691V251.677V251.664V251.651V251.638V251.624V251.611V251.598V251.585V251.572V251.559V251.546V251.532V251.52V251.507V251.494V251.481V251.468V251.455V251.442V251.429V251.417V251.404V251.391V251.379V251.366V251.353V251.341V251.328V251.316V251.303V251.291V251.278V251.266V251.254V251.241V251.229V251.217V251.204V251.192V251.18V251.168V251.156V251.144V251.132V251.12V251.108V251.096V251.084V251.072V251.06V251.048V251.036V251.024V251.013V251.001V250.989V250.978V250.966V250.954V250.943V250.931V250.92V250.908V250.897V250.885V250.874V250.862V250.851V250.84V250.828V250.817V250.806V250.795V250.784V250.772V250.761V250.75V250.739V250.728V250.717V250.706V250.695V250.684V250.674V250.663V250.652V250.641V250.63V250.62V250.609V250.598V250.588V250.577V250.567V250.556V250.546V250.535V250.525V250.514V250.504V250.493V250.483V250.473V250.463V250.452V250.442V250.432V250.422V250.412V250.402V250.392V250.382V250.372V250.362V250.352V250.342V250.332V250.322V250.312V250.302V250.293V250.283V250.273V250.264V250.254V250.244V250.235V250.225V250.216V250.206V250.197V250.187V250.178V250.168V250.159V250.15V250.141V250.131V250.122V250.113V250.104V250.095V250.085V250.076V250.067V250.058V250.049V250.04V250.032V250.023V250.014V250.005V249.996V249.987V249.979V249.97V249.961V249.953V249.944V249.935V249.927V249.918V249.91V249.901V249.893V249.884V249.876V249.868V249.859V249.851V249.843V249.835V249.826V249.818V249.81V249.802V249.794V249.786V249.778V249.77V249.762V249.754V249.746V249.738V249.73V249.722V249.715V249.707V249.699V249.692V249.684V249.676V249.669V249.661V249.653V249.646V249.639V249.631V249.624V249.616V249.609V249.602V249.594V249.587V249.58V249.572V249.565V249.558V249.551V249.544V249.537V249.53V249.523V249.516V249.509V249.502V249.495V249.488V249.481V249.475V249.468V249.461V249.454V249.448V249.441V249.434V249.428V249.421V249.415V249.408V249.402V249.395V249.389V249.383V249.376V249.37V249.364V249.357V249.351V249.345V249.339V249.333V249.327V249.32V249.314V249.308V249.302V249.296V249.291V249.285V249.279V249.273V249.267V249.261V249.256V249.25V249.244V249.239V249.233V249.227V249.222V249.216V249.211V249.205V249.2V249.194V249.189V249.184V249.178V249.173V249.168V249.162V249.157V249.152V249.147V249.142V249.137V249.132V249.127V249.122V249.117V249.112V249.107V249.102V249.097V249.092V249.087V249.083V249.078V249.073V249.069V249.064V249.059V249.055V249.05V249.046V249.041V249.037V249.032V249.028V249.024V249.019V249.015V249.011V249.006V249.002V248.998V248.994V248.99V248.986V248.981V248.977V248.973V248.969V248.965V248.962V248.958V248.954V248.95V248.946V248.942V248.939V248.935V248.931V248.928V248.924V248.92V248.917V248.913V248.91V248.906V248.903V248.899V248.896V248.893V248.889V248.886V248.883V248.88V248.876V248.873V248.87V248.867V248.864V248.861V248.858V248.855V248.852V248.849V248.846V248.843V248.84V248.837V248.835V248.832V248.829V248.826V248.824V248.821V248.819V248.816V248.813V248.811V248.808V248.806V248.804V248.801V248.799V248.796V248.794V248.792V248.79V248.787V248.785V248.783V248.781V248.779V248.777C20.2122 248.662 20.2458 248.432 20.2853 248.181C20.3286 247.906 20.3901 247.541 20.4633 247.113C20.4968 246.917 20.5327 246.708 20.5706 246.487C20.6988 245.741 20.8492 244.867 20.9996 243.951C21.3923 241.562 21.7737 238.963 21.7737 237.673V237.663V237.652V237.642V237.631V237.621V237.61V237.6V237.589V237.579V237.568V237.557V237.547V237.536V237.526V237.515V237.504V237.494V237.483V237.473V237.462V237.451V237.441V237.43V237.419V237.408V237.398V237.387V237.376V237.366V237.355V237.344V237.333V237.323V237.312V237.301V237.29V237.279V237.269V237.258V237.247V237.236V237.225V237.214V237.203V237.193V237.182V237.171V237.16V237.149V237.138V237.127V237.116V237.105V237.094V237.083V237.072V237.061V237.05V237.039V237.028V237.017V237.006V236.995V236.984V236.973V236.962V236.951V236.939V236.928V236.917V236.906V236.895V236.884V236.873V236.861V236.85V236.839V236.828V236.817V236.805V236.794V236.783V236.772V236.76V236.749V236.738V236.727V236.715V236.704V236.693V236.681V236.67V236.659V236.647V236.636V236.625V236.613V236.602V236.59V236.579V236.568V236.556V236.545V236.533V236.522V236.51V236.499V236.487V236.476V236.464V236.453V236.441V236.43V236.418V236.407V236.395V236.384V236.372V236.36V236.349V236.337V236.326V236.314V236.302V236.291V236.279V236.267V236.256V236.244V236.232V236.221V236.209V236.197V236.185V236.174V236.162V236.15V236.138V236.127V236.115V236.103V236.091V236.079V236.068V236.056V236.044V236.032V236.02V236.008V235.996V235.984V235.973V235.961V235.949V235.937V235.925V235.913V235.901V235.889V235.877V235.865V235.853V235.841V235.829V235.817V235.805V235.793V235.781V235.769V235.757V235.745V235.732V235.72V235.708V235.696V235.684V235.672V235.66V235.648V235.635V235.623V235.611V235.599V235.587V235.574V235.562V235.55V235.538V235.525V235.513V235.501V235.489V235.476V235.464V235.452V235.439V235.427V235.415V235.402V235.39V235.378V235.365V235.353V235.34V235.328V235.316V235.303V235.291V235.278V235.266V235.253V235.241V235.228V235.216V235.203V235.191V235.178V235.166V235.153V235.141V235.128V235.116V235.103V235.09V235.078V235.065V235.053V235.04V235.027V235.015V235.002V234.989V234.977V234.964V234.951V234.939V234.926V234.913V234.9V234.888V234.875V234.862V234.849V234.837V234.824V234.811V234.798V234.785V234.773V234.76V234.747V234.734V234.721V234.708V234.695V234.683V234.67V234.657V234.644V234.631V234.618V234.605V234.592V234.579V234.566V234.553V234.54V234.527V234.514V234.501V234.488V234.475V234.462V234.449V234.436V234.423V234.41V234.396V234.383V234.37V234.357V234.344V234.331V234.318V234.305V234.291V234.278V234.265V234.252V234.239V234.225V234.212V234.199V234.186V234.172V234.159V234.146V234.132V234.119V234.106V234.093V234.079V234.066V234.052V234.039V234.026V234.012V233.999V233.986V233.972V233.959V233.945V233.932V233.918V233.905V233.892V233.878V233.865V233.851V233.838V233.824V233.811V233.797V233.783V233.77V233.756V233.743V233.729V233.716V233.702V233.688V233.675V233.661V233.648V233.634V233.62V233.607V233.593V233.579V233.566V233.552V233.538V233.524V233.511V233.497V233.483V233.469V233.456V233.442V233.428V233.414V233.401V233.387V233.373V233.359V233.345V233.331V233.317V233.304V233.29V233.276V233.262V233.248V233.234V233.22V233.206V233.192V233.178V233.164V233.15V233.136V233.122V233.108V233.094V233.08V233.066V233.052V233.038V233.024V233.01V232.996V232.982V232.968V232.954V232.94V232.925V232.911V232.897V232.883V232.869V232.855V232.84V232.826V232.812V232.798V232.784V232.769V232.755V232.741V232.727V232.712V232.698V232.684V232.67V232.655V232.641V232.627V232.612V232.598V232.584V232.569V232.555V232.54V232.526V232.512V232.497V232.483V232.468V232.454V232.439V232.425V232.41V232.396V232.382V232.367V232.352V232.338V232.323V232.309V232.294V232.28V232.265V232.251V232.236V232.221V232.207V232.192V232.178V232.163V232.148V232.134V232.119V232.104V232.09V232.075V232.06V232.046V232.031V232.016V232.001V231.987V231.972V231.957V231.942V231.928V231.913V231.898V231.883V231.868V231.854V231.839V231.824V231.809V231.794V231.779V231.764V231.749V231.735V231.72V231.705V231.69V231.675V231.66V231.645V231.63V231.615V231.6V231.585V231.57V231.555V231.54V231.525V231.51V231.495V231.48V231.465V231.449V231.434V231.419V231.404V231.389V231.374V231.359V231.344V231.328V231.313V231.298V231.283V231.268V231.252V231.237V231.222V231.207V231.191V231.176V231.161V231.146V231.13V231.115V231.1V231.084V231.069V229.875L22.6246 230.713L30.9328 238.894L31.2454 239.202L30.9807 239.552C29.0154 242.15 27.8094 244.125 27.314 245.497Z" fill="#5A98FF" stroke="black"/>
<path fill-rule="evenodd" clip-rule="evenodd" d="M25.1327 253.294C24.185 253.912 23.7588 254.558 23.8543 255.232C23.9661 256.02 25.4745 256.381 26.8313 256.76C27.213 256.867 27.6851 257.28 28.1621 257.424C28.5678 257.546 30.3421 257.835 31.5144 257.424C33.8536 256.603 34.5655 255.455 33.5491 255.455C32.8019 255.455 30.9202 255.606 29.4663 255.031C29.1161 254.892 28.7519 254.42 28.374 253.613L25.1327 253.294Z" fill="#0A0F5F"/>
<path fill-rule="evenodd" clip-rule="evenodd" d="M17.0038 275.233C16.142 275.851 15.7588 276.497 15.8543 277.171C15.9661 277.959 17.4745 278.32 18.8313 278.699C19.213 278.805 19.6851 279.219 20.1621 279.363C20.5678 279.485 22.3421 279.774 23.5144 279.363C25.8536 278.541 26.5655 277.394 25.5491 277.394C24.8019 277.394 22.7758 277.437 21.322 276.862C20.9717 276.724 20.4655 276.181 19.8033 275.233H17.0038Z" fill="#0A0F5F"/>
<path fill-rule="evenodd" clip-rule="evenodd" d="M29.5008 180.145C25.6547 180.145 24.3419 183.067 21.5272 182.549C18.7124 182.031 17.5653 180.517 16.8696 178.661C16.1739 176.805 16.0885 177.808 16.4791 172.6C16.8696 167.392 22.757 164.757 25.9854 165.287C29.2139 165.816 34.1803 168.314 33.8737 173.43C33.5671 178.545 33.3469 180.145 29.5008 180.145Z" fill="#FFD42A"/>
<path fill-rule="evenodd" clip-rule="evenodd" d="M146.846 39.942C147.399 37.2439 148.025 35.7293 148.724 35.3981C149.772 34.9014 152.091 35.6618 150.763 39.408C149.877 41.9054 149.198 43.3546 148.724 43.7555L146.846 39.942Z" fill="#D3DAE0"/>
<path fill-rule="evenodd" clip-rule="evenodd" d="M124.292 144.597C123.344 145.215 122.918 145.861 123.014 146.534C123.125 147.323 124.634 147.684 125.99 148.063C126.372 148.169 126.844 148.583 127.321 148.727C127.727 148.849 129.501 149.138 130.674 148.727C133.013 147.905 133.725 146.758 132.708 146.758C131.961 146.758 130.079 146.908 128.626 146.334C128.275 146.195 127.911 145.722 127.533 144.916L124.292 144.597Z" fill="#0A0F5F"/>
<path fill-rule="evenodd" clip-rule="evenodd" d="M111.164 149.583C110.302 150.201 109.919 150.847 110.014 151.521C110.126 152.309 111.635 152.67 112.991 153.049C113.373 153.155 113.845 153.569 114.322 153.713C114.728 153.835 116.502 154.124 117.675 153.713C120.014 152.892 120.726 151.744 119.709 151.744C118.962 151.744 116.936 151.787 115.482 151.212C115.132 151.074 114.626 150.531 113.963 149.583H111.164Z" fill="#0A0F5F"/>
<path d="M115.578 105.204C115.578 101.024 115.938 98.7867 116.601 97.5246C116.921 96.9155 117.311 96.5377 117.777 96.2732C118.257 96.0009 118.84 95.836 119.572 95.6911C121.044 95.3996 123.374 95.0572 125.711 95.3613C128.042 95.6647 130.325 96.6022 131.805 98.8226C132.622 100.049 132.942 101.973 133.13 104.165C133.185 104.797 133.228 105.452 133.272 106.109C133.375 107.665 133.479 109.237 133.734 110.574C134.283 113.454 134.613 114.816 135.235 116.553C135.537 117.396 135.803 118.072 136.026 118.639C136.087 118.794 136.145 118.942 136.199 119.082C136.455 119.74 136.633 120.233 136.742 120.722C136.956 121.677 136.922 122.668 136.536 124.856C136.292 126.246 135.386 128.583 133.769 131.907C132.19 135.156 129.954 139.305 127.061 144.355L125.177 144.21C125.703 139.19 126.208 135.668 126.687 133.621C127.334 130.86 128.331 128.857 129.139 127.236C129.253 127.006 129.364 126.783 129.47 126.567C129.888 125.71 130.243 124.917 130.376 124.166C130.515 123.386 130.418 122.643 129.947 121.911C129.019 120.47 127.62 119.205 126.091 118.001C125.356 117.423 124.582 116.852 123.806 116.28L123.702 116.204C122.889 115.604 122.076 115.003 121.291 114.38C118.134 111.875 115.578 109.13 115.578 105.204Z" fill="#4884E7" stroke="black"/>
<path d="M111.666 109.536C111.017 107.575 110.715 106.155 110.719 104.75C110.723 103.344 111.033 101.916 111.668 99.937C112.259 98.0953 113.056 96.9501 113.965 96.2192C114.876 95.4872 115.943 95.1342 117.142 94.9567C118.101 94.8146 119.109 94.7884 120.172 94.7608C120.454 94.7535 120.739 94.746 121.028 94.7363C122.389 94.6907 123.813 94.5938 125.192 94.1874C125.712 94.0342 126.018 94.1386 126.241 94.3516C126.505 94.6034 126.729 95.0815 126.875 95.8259C127.164 97.3021 127.087 99.4953 126.836 101.918C126.593 104.269 126.194 106.779 125.847 108.963L125.822 109.122C125.473 111.314 125.173 113.212 125.173 114.197C125.173 115.969 124.66 117.658 123.785 120.07C123.625 120.513 123.452 120.98 123.269 121.474C122.463 123.655 121.458 126.375 120.377 130.023C119.47 133.084 117.234 139.489 113.662 149.255L111.614 149.714C110.608 142.038 111.091 136.618 112.941 133.343C113.122 133.023 113.351 132.71 113.609 132.358C113.754 132.159 113.909 131.948 114.07 131.715C114.49 131.107 114.91 130.402 115.081 129.596C115.549 127.394 115.373 124.921 115.002 122.615C114.727 120.914 114.34 119.267 114.011 117.871C113.894 117.377 113.785 116.914 113.691 116.491C113.111 113.881 112.595 112.329 111.897 110.231C111.823 110.007 111.746 109.775 111.666 109.536Z" fill="#5A98FF" stroke="black"/>
<path fill-rule="evenodd" clip-rule="evenodd" d="M105.553 101.25C104.836 104.628 104.93 106.316 105.837 106.316C107.196 106.316 109.301 103.594 109.205 100.988C109.141 99.251 107.924 99.3384 105.553 101.25Z" fill="#D3DAE0"/>
<path d="M112.022 74.8085C115.737 68.752 119.779 64.8561 125.466 63.8665C128.439 63.349 129.59 63.179 130.57 63.2587C131.053 63.298 131.506 63.3995 132.14 63.5702C132.331 63.6217 132.54 63.6798 132.77 63.7437C133.295 63.8896 133.931 64.0666 134.728 64.268C135.774 64.5322 136.769 63.9471 137.671 62.9167C138.587 61.8705 139.531 60.2354 140.509 58.0478C142.391 53.8391 144.457 47.4567 146.709 38.9182L149.528 43.1503C147.56 52.699 145.668 59.4981 143.858 63.5806C143.039 65.4289 142.298 66.6556 141.498 67.6689C140.694 68.6871 139.82 69.504 138.701 70.5377C136.802 72.2915 136.263 74.2507 135.95 75.3839C135.877 75.6505 135.816 75.8713 135.753 76.033C135.01 77.942 133.938 81.5811 133.281 86.4025C132.863 89.473 132.767 92.4515 132.692 94.853L132.69 94.9239C132.653 96.1 132.621 97.1273 132.559 97.9658C132.494 98.8377 132.4 99.4395 132.266 99.7794C131.768 101.038 130.655 101.629 128.994 101.942C128.165 102.097 127.233 102.177 126.222 102.243C125.958 102.26 125.689 102.276 125.416 102.293C124.65 102.339 123.851 102.387 123.05 102.463C118.818 102.864 114.923 101.842 112.884 100.098C112.407 99.6897 112.24 99.342 112.202 99.0303C112.161 98.6982 112.254 98.3168 112.476 97.8192C112.623 97.4897 112.804 97.1542 113.008 96.7768C113.119 96.5719 113.236 96.3546 113.358 96.1193C113.694 95.4713 114.039 94.7335 114.282 93.8874C115.584 89.3378 116.368 86.2061 116.698 84.3179C116.859 83.3966 116.927 82.6987 116.857 82.2744C116.839 82.1621 116.806 82.0338 116.739 81.9161C116.669 81.7923 116.545 81.6548 116.347 81.5965C116.157 81.5402 115.985 81.5843 115.867 81.6364C115.751 81.6881 115.65 81.7641 115.567 81.8386C115.365 82.0179 115.206 82.2752 115.073 82.5468C114.936 82.827 114.806 83.1654 114.681 83.544C114.43 84.3008 114.183 85.2648 113.924 86.3382C113.812 86.8025 113.698 87.2885 113.58 87.7899C113.149 89.6224 112.67 91.6613 112.08 93.6045C111.438 95.7217 110.767 97.5981 110.205 99.0102C109.923 99.7166 109.67 100.304 109.463 100.745C109.255 101.186 109.11 101.44 109.04 101.535C109.036 101.537 109.002 101.563 108.912 101.605C108.803 101.655 108.651 101.707 108.466 101.756C108.095 101.852 107.632 101.919 107.186 101.921C106.729 101.924 106.344 101.859 106.094 101.735C105.974 101.676 105.904 101.613 105.864 101.555C105.828 101.503 105.8 101.431 105.802 101.317C105.808 100.939 105.966 99.4744 106.266 97.3553C106.563 95.2525 106.997 92.5397 107.546 89.689C108.095 86.8373 108.759 83.8541 109.517 81.2079C110.278 78.5512 111.123 76.2739 112.022 74.8085Z" fill="#0A0F5F" stroke="black"/>
<path fill-rule="evenodd" clip-rule="evenodd" d="M125.772 60.5954C121.22 49.8598 122.151 44.7356 128.565 45.2229C134.301 45.6587 137.88 50.6463 133.498 59.1294C133.028 60.039 132.173 60.8873 130.934 61.6741C131.629 63.1491 132.04 64.1611 132.166 64.7101C132.88 67.8041 131.354 71.3119 128.052 71.6892C124.851 72.0549 122.875 67.1763 123.831 63.8707C124.027 63.1954 124.674 62.1036 125.772 60.5954Z" fill="#D3DAE0"/>
<path fill-rule="evenodd" clip-rule="evenodd" d="M126.005 63.2615C125.581 65.2467 125.712 67.0652 126.399 68.717C127.429 71.1948 129.58 70.3151 130.439 74.2086C131.299 78.1021 130.864 85.4729 130.099 85.4729C129.333 85.4729 130.132 80.047 128.229 75.3113C126.327 70.5756 124.103 71.3314 123.442 69.8815C123.001 68.9149 123.001 66.8781 123.442 63.771L126.005 63.2615Z" fill="#5A98FF"/>
<path fill-rule="evenodd" clip-rule="evenodd" d="M131.599 62.9443C132.006 65.1409 131.866 67.0652 131.18 68.717C130.15 71.1948 127.999 70.3151 127.139 74.2086C126.28 78.1021 126.714 85.4728 127.48 85.4728C128.246 85.4728 127.447 80.047 129.349 75.3113C131.252 70.5756 133.476 71.3314 134.137 69.8815C134.577 68.9149 134.577 66.7766 134.137 63.4666L131.599 62.9443Z" fill="#5A98FF"/>
<path fill-rule="evenodd" clip-rule="evenodd" d="M128.839 51.9772C127.944 52.6453 127.271 53.6982 126.518 57.9939C125.765 62.2896 127.459 71.0169 126.518 72.1276C125.14 73.7547 122.615 75.4813 120.238 74.5344C118.316 73.7687 119.553 70.9452 118.604 70.2455C114.961 67.56 116.274 56.1452 119.4 49.553C122.525 42.9609 129.212 43.2074 132.15 44.0641C135.088 44.9209 137.764 49.1365 136.441 51.6636C135.119 54.1907 129.532 51.4598 128.839 51.9772Z" fill="#FF7F2A"/>
<path fill-rule="evenodd" clip-rule="evenodd" d="M177.569 177.613C180.148 176.619 181.704 176.619 182.238 177.613C183.038 179.106 178.732 181.21 177.911 181.082C177.364 180.997 177.25 179.841 177.569 177.613Z" fill="#D3DAE0"/>
<path fill-rule="evenodd" clip-rule="evenodd" d="M102.157 199.917C100.482 200.547 98.0397 204.155 99.94 204.505C101.207 204.738 102.66 203.938 104.3 202.106C103.988 200.227 103.274 199.497 102.157 199.917Z" fill="#D3DAE0"/>
<path fill-rule="evenodd" clip-rule="evenodd" d="M117.973 210.6C116.691 214.594 116.66 216.542 117.973 220.509C118.792 222.985 119.348 224.554 119.984 227.415C120.715 230.702 122.27 236.084 121.373 240.308C121.073 241.719 119.879 242.864 119.287 243.913C117.308 247.417 116.536 254.155 116.973 264.128L120.373 263.581C124.296 251.619 126.717 244.086 127.637 240.981C130.279 232.067 132.454 228.751 132.454 225.012C132.454 221.274 137.089 202.974 131.831 204.523C126.574 206.073 120.424 202.96 117.973 210.6Z" fill="#141B87"/>
<path d="M133.206 255.081L130.422 254.807C129.641 255.352 129.458 255.806 129.508 256.159C129.513 256.195 129.537 256.264 129.657 256.365C129.78 256.469 129.969 256.576 130.229 256.686C130.68 256.876 131.243 257.032 131.838 257.196C131.933 257.222 132.028 257.249 132.125 257.276C132.376 257.346 132.636 257.502 132.832 257.62C132.847 257.629 132.862 257.637 132.876 257.646C133.111 257.786 133.296 257.891 133.465 257.942C133.619 257.989 134.122 258.087 134.738 258.122C135.355 258.157 136.014 258.123 136.507 257.949C137.454 257.617 138.078 257.244 138.41 256.957C138.39 256.958 138.369 256.958 138.348 256.959C137.975 256.968 137.454 256.98 136.908 256.955C136.14 256.92 135.243 256.81 134.441 256.493C134.147 256.377 133.901 256.145 133.693 255.875C133.526 255.658 133.364 255.391 133.206 255.081ZM138.816 256.962C138.817 256.962 138.812 256.96 138.8 256.958C138.809 256.962 138.815 256.963 138.816 256.962Z" fill="#5A98FF" stroke="black"/>
<path d="M120.12 263.767H117.443C116.644 264.318 116.458 264.777 116.508 265.134C116.513 265.17 116.537 265.239 116.657 265.34C116.78 265.444 116.969 265.551 117.229 265.661C117.68 265.851 118.243 266.007 118.838 266.171C118.933 266.197 119.028 266.224 119.125 266.251C119.376 266.321 119.636 266.477 119.832 266.595C119.847 266.604 119.862 266.612 119.876 266.621C120.111 266.761 120.296 266.866 120.465 266.917C120.619 266.964 121.122 267.062 121.738 267.097C122.355 267.132 123.014 267.098 123.507 266.924C124.454 266.592 125.078 266.219 125.41 265.932C125.39 265.933 125.369 265.933 125.348 265.934C124.975 265.943 124.454 265.955 123.908 265.93C123.14 265.895 122.243 265.785 121.441 265.468C121.122 265.342 120.865 265.057 120.654 264.746C120.476 264.485 120.299 264.156 120.12 263.767ZM125.816 265.937C125.817 265.937 125.812 265.935 125.8 265.933C125.809 265.937 125.815 265.938 125.816 265.937Z" fill="#5A98FF" stroke="black"/>
<path fill-rule="evenodd" clip-rule="evenodd" d="M125.722 200.927C122.522 201.552 121 202.677 121 211.522C121 220.366 132.73 223.706 136.515 229.504C138.208 232.097 134.564 234.677 132.944 241.499C132.403 243.776 131.646 248.072 130.674 254.39L133.143 254.598C140.208 242.924 144.017 235.534 144.571 232.429C145.402 227.771 144.79 227.877 143.15 223.364C142.496 221.562 142.149 220.151 141.56 217.11C140.795 213.152 141.335 207.322 139.408 204.469C136.001 199.425 128.922 200.302 125.722 200.927Z" fill="#0A0F5F"/>
<path d="M104.311 202.256L102.325 199.641C108.445 193.215 113.089 188.68 116.264 186.023C118.66 184.017 121.85 182.102 124.726 180.645C126.162 179.917 127.511 179.306 128.635 178.859C129.772 178.406 130.642 178.133 131.133 178.058C131.506 178.001 132.123 177.867 132.903 177.697C133.317 177.607 133.776 177.506 134.27 177.402C135.714 177.098 137.494 176.752 139.399 176.493C143.236 175.971 147.488 175.821 150.54 177.013C150.846 177.132 151.147 177.25 151.445 177.367C157.324 179.673 161.875 181.458 167.724 179.766C171.469 178.683 174.725 177.929 177.496 177.503L178.297 181.205C172.5 183.893 168.434 185.372 166.057 185.696C162.961 186.117 160.103 186.163 157.646 186.202C156.742 186.217 155.892 186.23 155.104 186.261C153.662 186.318 152.399 186.435 151.437 186.754C150.456 187.078 149.701 187.644 149.444 188.636C149.165 189.713 148.595 190.924 147.859 192.223C147.146 193.483 146.294 194.797 145.432 196.126L145.357 196.243C144.474 197.606 143.585 198.982 142.854 200.299C142.125 201.612 141.535 202.898 141.268 204.083C140.639 206.874 140.706 208.644 140.748 209.748C140.758 210.022 140.767 210.255 140.764 210.452C140.755 210.927 140.677 211.074 140.515 211.199C140.277 211.384 139.796 211.556 138.755 211.783C136.772 212.215 132.414 212.495 128.23 212.243C126.141 212.117 124.121 211.859 122.479 211.432C120.805 210.996 119.642 210.412 119.126 209.719C118.629 209.051 118.605 208.354 118.918 207.472C119.226 206.605 119.833 205.643 120.566 204.48C120.61 204.411 120.654 204.342 120.698 204.271C122.254 201.801 124.192 198.612 124.165 194.33C124.156 192.884 123.718 191.759 122.618 191.317C121.6 190.908 120.212 191.188 118.579 191.916C115.334 193.36 110.571 196.826 104.311 202.256Z" fill="#5A98FF" stroke="black"/>
<path fill-rule="evenodd" clip-rule="evenodd" d="M147.251 171.11C146.565 172.593 145.102 173.384 142.86 173.482C143.69 177.203 144.107 179.303 144.111 179.781C144.119 180.498 144.129 182.476 142.318 182.577C139.822 182.716 134.406 179.875 134.149 176.789C134.125 176.507 135.089 174.726 137.038 171.447C135.281 162.418 137.235 158.1 142.9 158.493C151.398 159.082 148.279 168.886 147.251 171.11Z" fill="#D3DAE0"/>
<path fill-rule="evenodd" clip-rule="evenodd" d="M141.288 159.703C140.166 159.687 139.13 160.017 139.15 162.674C139.161 164.112 141.03 176.6 139.797 181.823C138.75 186.256 135.566 183.946 133.607 183.976C131.648 184.006 126.876 187.553 126.955 183.542C127.071 177.702 133.27 168.17 133.265 162.669C133.261 158.368 139.144 155.392 142.476 156.62C145.808 157.848 150.622 153.718 150.494 159.831C150.366 165.944 142.411 159.718 141.288 159.703Z" fill="#AFDDE9"/>
</svg>
