<?xml version="1.0" encoding="UTF-8"?>
<svg width="312px" height="358px" viewBox="0 0 312 358" version="1.1" xmlns="http://www.w3.org/2000/svg" xmlns:xlink="http://www.w3.org/1999/xlink">
    <!-- Generator: Sketch 48.2 (47327) - http://www.bohemiancoding.com/sketch -->
    <title>Decentralized and fair by default</title>
    <desc>Created with Sketch.</desc>
    <defs></defs>
    <g id="WEB-DESIGN-WITNET/new-header-sec-v." stroke="none" stroke-width="1" fill="none" fill-rule="evenodd" transform="translate(-849.000000, -2097.000000)">
        <g id="//BODY" transform="translate(-575.000000, 851.000000)">
            <g id="section1" transform="translate(719.000000, 0.000000)">
                <g id="Group-11" transform="translate(705.000000, 1246.000000)">
                    <g>
                        <g id="Group-6" transform="translate(0.000000, 73.794444)">
                            <polygon id="Path-3" fill="#CBD5DD" points="102 284.031439 102 262.035238 121.880057 250.059233 121.880057 227.365763 141.926061 215.160387 141.926061 192.405623 161.875993 180.078173 161.875993 157.496477 181.992759 145.230321 181.992759 122.515218 284.299175 61.8277778 284.299175 176.215863"></polygon>
                            <path d="M0,201.438889 C0,201.438889 0,209.123687 0,224.493284 L102.235143,284.070348 L102.856179,261.762873 C34.2853928,221.546884 0,201.438889 0,201.438889 Z" id="Fill-16" fill="#BCC6D0"></path>
                            <path d="M40,131.633333 C40,131.633333 40,139.318132 40,154.687729 L143.834278,215.31228 L143.798815,192.510164 C74.5996051,151.92561 40,131.633333 40,131.633333 Z" id="Fill-16-Copy-2" fill="#BCC6D0"></path>
                            <path d="M20,166.536111 C20,166.536111 20,174.22091 20,189.590506 L123.84416,250.220827 L124.04187,227.55549 C54.6806232,186.875904 20,166.536111 20,166.536111 Z" id="Fill-16-Copy" fill="#BCC6D0"></path>
                            <path d="M60,96.7305556 C60,96.7305556 60,104.415354 60,119.784951 L165.249123,181.235572 L165.215393,158.438192 C95.0717975,117.299768 60,96.7305556 60,96.7305556 Z" id="Fill-16-Copy-3" fill="#BCC6D0"></path>
                            <path d="M80,61.8277778 C80,61.8277778 80,69.5125762 80,84.8821731 L184.231031,145.738372 L184,122.159722 C114.666667,81.9384259 80,61.8277778 80,61.8277778 Z" id="Fill-16-Copy-4" fill="#BCC6D0"></path>
                            <polygon id="Fill-14" fill="#F1F3FC" points="0 201.755109 20.1217562 189.472222 123.008116 249.624581 102.376372 261.585355"></polygon>
                            <polygon id="Fill-14-Copy-2" fill="#F1F3FC" points="40 131.949554 60.1217562 119.666667 162.876109 179.741847 143.161498 192.238638"></polygon>
                            <polygon id="Fill-14-Copy" fill="#F1F3FC" points="20 166.852332 40.1217562 154.569444 142.762187 214.578021 122.482272 226.744467"></polygon>
                            <polygon id="Fill-14-Copy-3" fill="#F1F3FC" points="60 97.0467761 80.1217562 84.7638889 182.547451 144.64692 162.662527 157.044255"></polygon>
                            <polygon id="Fill-14-Copy-4" fill="#F1F3FC" points="80 62.1439984 182.535214 0.764274643 284.489503 62.1439984 182.874941 122.265614"></polygon>
                        </g>
                        <g id="Group-10" transform="translate(159.000000, 0.000000)">
                            <g id="coin" transform="translate(60.223492, 53.877348) scale(-1, 1) rotate(-5.000000) translate(-60.223492, -53.877348) translate(24.223492, 5.013459)">
                                <ellipse id="Oval" fill="#1B6EF9" cx="35.9433788" cy="48.7461874" rx="35.9433788" ry="48.7461874"></ellipse>
                                <ellipse id="Oval" fill="#5A98FF" cx="39.9370876" cy="48.7461874" rx="31.9496701" ry="46.7565471"></ellipse>
                                <polygon id="Fill-10" fill="#FFFFFF" points="17.9716894 35.3429466 22.4646118 35.3429466 28.5150805 61.3077526 29.4742362 61.3077526 36.6023408 35.9398387 41.27498 35.9398387 48.4044157 61.3077526 49.4221459 61.3077526 55.412709 35.3429466 59.9056314 35.3429466 52.7775268 65.1875512 45.2893229 65.1875512 38.9386604 41.8490704 32.5893291 65.1875512 25.1011252 65.1875512"></polygon>
                            </g>
                            <g id="coin" transform="translate(80.223492, 95.822371) scale(-1, 1) rotate(-28.000000) translate(-80.223492, -95.822371) translate(54.723492, 60.919593)">
                                <ellipse id="Oval" fill="#1B6EF9" cx="25.4600845" cy="34.5288087" rx="25.4600845" ry="34.5288087"></ellipse>
                                <ellipse id="Oval" fill="#6BA3FF" cx="28.2889828" cy="34.5288087" rx="22.6311862" ry="33.1194696"></ellipse>
                                <polygon id="Fill-10" fill="#FFFFFF" points="12.7300423 25.0347752 15.9125528 25.0347752 20.1983337 43.4266509 20.8777408 43.4266509 25.9268527 25.4575769 29.2366637 25.4575769 34.2867186 43.4266509 35.0076162 43.4266509 39.2509636 25.0347752 42.4334742 25.0347752 37.3843622 46.1748622 32.080178 46.1748622 27.5817582 29.6433142 23.0842814 46.1748622 17.7800972 46.1748622"></polygon>
                            </g>
                            <g id="Group-9">
                                <ellipse id="Oval-7-Copy" stroke="#5A98FF" transform="translate(73.000000, 78.281944) scale(-1, 1) translate(-73.000000, -78.281944) " cx="73" cy="78.2819444" rx="59" ry="28.4208333"></ellipse>
                                <ellipse id="Oval-7" stroke="#5A98FF" transform="translate(73.500000, 113.184722) scale(-1, 1) translate(-73.500000, -113.184722) " cx="73.5" cy="113.184722" rx="41.5" ry="20.4430556"></ellipse>
                                <ellipse id="Oval-7-Copy-2" stroke="#5A98FF" transform="translate(77.000000, 37.395833) scale(-1, 1) translate(-77.000000, -37.395833) " cx="77" cy="37.3958333" rx="75" ry="35.4013889"></ellipse>
                                <ellipse id="Oval-8" fill="#A168D3" transform="translate(4.000000, 32.908333) scale(-1, 1) translate(-4.000000, -32.908333) " cx="4" cy="32.9083333" rx="4" ry="3.98888889"></ellipse>
                                <ellipse id="Oval-8-Copy" fill="#A168D3" transform="translate(104.000000, 3.988889) scale(-1, 1) translate(-104.000000, -3.988889) " cx="104" cy="3.98888889" rx="4" ry="3.98888889"></ellipse>
                                <ellipse id="Oval-8-Copy-2" fill="#A168D3" transform="translate(115.000000, 66.813889) scale(-1, 1) translate(-115.000000, -66.813889) " cx="115" cy="66.8138889" rx="4" ry="3.98888889"></ellipse>
                                <ellipse id="Oval-8-Copy-3" fill="#A168D3" transform="translate(15.000000, 71.800000) scale(-1, 1) translate(-15.000000, -71.800000) " cx="15" cy="71.8" rx="3" ry="2.99166667"></ellipse>
                                <ellipse id="Oval-8-Copy-4" fill="#A168D3" transform="translate(32.000000, 98.725000) scale(-1, 1) translate(-32.000000, -98.725000) " cx="32" cy="98.725" rx="3" ry="2.99166667"></ellipse>
                                <ellipse id="Oval-8-Copy-5" fill="#A168D3" transform="translate(119.000000, 95.733333) scale(-1, 1) translate(-119.000000, -95.733333) " cx="119" cy="95.7333333" rx="3" ry="2.99166667"></ellipse>
                                <ellipse id="Oval-8-Copy-6" fill="#A168D3" transform="translate(101.000000, 53.850000) scale(-1, 1) translate(-101.000000, -53.850000) " cx="101" cy="53.85" rx="3" ry="2.99166667"></ellipse>
                                <ellipse id="Oval-8-Copy-7" fill="#A168D3" transform="translate(114.000000, 109.694444) scale(-1, 1) translate(-114.000000, -109.694444) " cx="114" cy="109.694444" rx="2" ry="1.99444444"></ellipse>
                                <ellipse id="Oval-8-Copy-8" fill="#A168D3" transform="translate(71.000000, 133.627778) scale(-1, 1) translate(-71.000000, -133.627778) " cx="71" cy="133.627778" rx="2" ry="1.99444444"></ellipse>
                                <ellipse id="Oval-8-Copy-9" fill="#A168D3" transform="translate(32.000000, 115.677778) scale(-1, 1) translate(-32.000000, -115.677778) " cx="32" cy="115.677778" rx="2" ry="1.99444444"></ellipse>
                                <ellipse id="Oval-8-Copy-10" fill="#A168D3" transform="translate(20.000000, 13.961111) scale(-1, 1) translate(-20.000000, -13.961111) " cx="20" cy="13.9611111" rx="2" ry="1.99444444"></ellipse>
                                <ellipse id="Oval-8-Copy-11" fill="#A168D3" transform="translate(150.000000, 30.913889) scale(-1, 1) translate(-150.000000, -30.913889) " cx="150" cy="30.9138889" rx="2" ry="1.99444444"></ellipse>
                                <ellipse id="Oval-8-Copy-12" fill="#A168D3" transform="translate(132.000000, 78.780556) scale(-1, 1) translate(-132.000000, -78.780556) " cx="132" cy="78.7805556" rx="2" ry="1.99444444"></ellipse>
                                <ellipse id="Oval-8-Copy-13" fill="#A168D3" transform="translate(60.000000, 50.858333) scale(-1, 1) translate(-60.000000, -50.858333) " cx="60" cy="50.8583333" rx="2" ry="1.99444444"></ellipse>
                            </g>
                        </g>
                        <g id="Group-5" transform="translate(81.500000, 246.313889) scale(-1, 1) translate(-81.500000, -246.313889) translate(62.000000, 189.472222)">
                            <g id="Group-8">
                                <g id="Group-7">
                                    <g id="Group-26">
                                        <path d="M18.3497315,20.803213 C14.4336329,9.32089359 16.2161831,3.88860126 23.697382,4.50633596 C31.178581,5.12407066 33.181029,9.87995066 29.7047261,18.773976 C31.2260049,23.2019307 31.9501263,25.5988266 31.8770905,25.9646639 C30.4984196,32.870437 23.859581,27.3002208 23.1192205,27.3002208 C22.2849046,27.3002208 21.9825124,25.4336303 22.2120438,21.7004493 L18.3497315,20.803213 Z" id="Path-23" fill="#D3DAE0"></path>
                                        <path d="M5.12145506,27.8462059 C5.12145506,38.8329895 3.66994187,45.3885827 7.96150661,47.2964381 C10.8225498,48.5683417 12.8756973,47.8564526 14.1209493,45.1607707 C13.1100368,39.2938092 12.0650485,36.5285966 10.9859844,36.8651329 C9.3673883,37.3699373 8.78299054,24.3120098 8.92384046,23.4612476 C9.06469037,22.6104855 11.1066991,16.8165407 9.3673883,16.5463318 C7.62807748,16.276123 5.12145506,16.8594223 5.12145506,27.8462059 Z" id="Path-27" fill="#D3DAE0" transform="translate(9.503039, 32.204232) rotate(-19.000000) translate(-9.503039, -32.204232) "></path>
                                        <g id="Group-25" transform="translate(27.620369, 14.152378) scale(-1, 1) rotate(42.000000) translate(-27.620369, -14.152378) translate(26.620369, 12.157933)" fill="#D3DAE0">
                                            <path d="M0.989125276,0.525998869 C1.75958795,0.311120174 2.05907233,0.469084707 1.88757842,0.999892468 C1.71608451,1.53070023 1.10054711,2.43439454 0.0409662036,3.7109754" id="Path-28"></path>
                                        </g>
                                        <path d="M17.9546598,44.7952191 L17.9546598,61.2538063 L38.69298,60.4926361 C38.8281871,58.1854239 38.6561512,55.9083485 38.1768723,53.6614097 C38.002067,52.8418935 38.69298,47.2602177 38.69298,45.6109285 C38.69298,44.0911354 38.6021098,41.690758 38.69298,38.9829029 C38.7838503,36.2750478 38.1768723,34.9716276 38.1768723,32.5534371 C38.1768723,30.1352467 36.7555399,23.5238062 33.5307968,24.005001 C30.3060538,24.4861959 29.567254,25.9184388 26.1433672,25.4746578 C22.7194804,25.0308767 21.0753798,23.5246307 18.268351,25.9120837 C16.3969985,27.503719 14.0170051,32.1768848 11.1283709,39.931581 C11.6834765,41.8548121 12.2146988,43.2185647 12.7220378,44.0228386 C13.2293769,44.8271126 14.3041159,46.0092568 15.9462548,47.5692713 L17.9546598,44.7952191 Z" id="Path-26" fill="#5A98FF"></path>
                                        <path d="M21.7242691,8.81869129 C22.3907858,8.81559718 24.0620649,10.2727318 23.9722892,13.5621619 C23.8825135,16.851592 27.4575818,19.4989938 29.5534366,19.1377559 C31.6492914,18.7765181 33.5616047,10.1971192 32.1083264,5.44223904 C30.6550481,0.687358872 22.551838,0.368858479 19.7702418,1.17100762 C16.9886457,1.97315675 16.1766935,5.58025261 16.9886457,7.19930921 C17.800598,8.81836581 21.0577525,8.82178541 21.7242691,8.81869129 Z" id="Path-30" fill="#0A0F5F"></path>
                                        <path d="M21.725673,16.2278964 C20.9526619,18.150982 18.6028462,17.7160584 18.6028462,19.9615765 C18.6028462,22.2070946 22.5898807,22.4030171 23.4292491,21.814905 C24.2686175,21.2267929 24.1108739,18.7941097 23.8408213,17.7805939 C23.5707687,16.7670781 24.7530188,12.3384049 25.0749418,11.5565609 C25.3968648,10.7747169 26.840168,10.4736209 26.5452684,9.5099977 C26.2503688,8.54637447 24.8291921,6.98926144 24.3877495,6.95677324 C24.0934544,6.93511444 23.5141744,7.44809281 22.6499094,8.49570835 C22.7779531,9.94117542 22.8510432,10.9614596 22.8691797,11.5565609 C22.8963845,12.4492129 22.4986841,14.3048108 21.725673,16.2278964 Z" id="Path-31" fill="#0A0F5F"></path>
                                    </g>
                                </g>
                                <path d="M38.6885951,59.9953664 C38.7660941,63.1589041 38.668212,65.703768 38.3949486,67.629958 C37.3864209,74.7389099 35.6539355,81.2729179 35.4862547,82.005739 C35.3242727,82.7136538 36.4777652,86.5051893 35.4862547,93.6410764 C35.1848942,95.8099631 34.354148,100.851828 32.994016,108.76667 L29.7268984,108.76667 L29.3254468,86.4035403 C29.1053493,84.8931027 28.9953005,83.9627657 28.9953005,83.6125293 C28.9953005,83.0871747 27.4337269,77.9669934 27.4337269,75.28792 C27.4337269,72.6088466 30.4543052,68.110506 27.4337269,68.6839845 C25.420008,69.0663034 22.6506076,71.7934058 19.1255258,76.8652915 C21.2297446,79.6806985 22.5431622,81.8120153 23.0657786,83.259242 C23.588395,84.7064687 24.201399,87.408467 24.9047905,91.3652369 L22.3685117,92.6259311 L13.650709,78.1518743 C13.0218839,77.3675469 12.7074713,76.6308126 12.7074713,75.9416714 C12.7074713,75.2525303 12.8029756,74.6683726 12.9939843,74.1891983 L17.9336951,61.0502597 L38.6885951,59.9953664 Z" id="Path-4" fill="#0A0F5F"></path>
                                <path d="M24.8673469,91.7444444 C25.8150476,92.3624955 26.2411546,93.0082296 26.145668,93.6816469 C26.0338883,94.4699709 24.5254577,94.8308707 23.1687128,95.209882 C22.7869804,95.3165202 22.3148752,95.7299863 21.8378892,95.8738629 C21.4321715,95.9962424 19.6579427,96.2854627 18.4856137,95.8738629 C16.1464287,95.0525849 15.4344859,93.9052145 16.4509139,93.9052145 C17.1980925,93.9052145 19.0798167,94.0555464 20.5336523,93.4807233 C20.8839451,93.3422232 21.2480654,92.8696705 21.6260131,92.0630651 L24.8673469,91.7444444 Z" id="Path-5" fill="#5A98FF"></path>
                                <path d="M32.8673469,108.697222 C33.8150476,109.315273 34.2411546,109.961007 34.145668,110.634425 C34.0338883,111.422749 32.5254577,111.783649 31.1687128,112.16266 C30.7869804,112.269298 30.3148752,112.682764 29.8378892,112.826641 C29.4321715,112.94902 27.6579427,113.238241 26.4856137,112.826641 C24.1464287,112.005363 23.4344859,110.857992 24.4509139,110.857992 C25.1980925,110.857992 27.0798167,111.008324 28.5336523,110.433501 C28.8839451,110.295001 29.2770255,109.716241 29.7128933,108.697222 L32.8673469,108.697222 Z" id="Path-5-Copy" fill="#5A98FF"></path>
                            </g>
                        </g>
                        <g id="Group-5-Copy" transform="translate(30.000000, 222.380556) scale(-1, 1) translate(-30.000000, -222.380556) translate(0.000000, 164.541667)">
                            <g id="Group-7">
                                <g id="Group-26">
                                    <path d="M28.4964608,16.2922654 C27.6797608,13.426719 26.3962585,1.72511409 35.8721006,2.70343645 C42.1893287,3.35565137 43.6505464,8.45095431 40.2557535,17.9893453 C41.7825982,22.0760042 42.509369,24.2881534 42.4360659,24.6257928 C41.0523509,30.999286 34.3892229,25.8584083 33.6461536,25.8584083 C32.8087852,25.8584083 32.5052866,24.13569 32.7356578,20.6902533 C30.4539931,19.6686257 29.0409274,18.2026297 28.4964608,16.2922654 Z" id="Path-23" fill="#D3DAE0"></path>
                                    <g id="Group-25" transform="translate(30.219379, 34.530358) scale(-1, 1) rotate(42.000000) translate(-30.219379, -34.530358) translate(14.219379, 8.602580)" fill="#D3DAE0">
                                        <path d="M2.10278954,32.7978446 C2.10278954,43.7339043 1.21457551,48.6524417 5.56336111,50.5514889 C8.46255151,51.8175204 9.5775607,50.3676623 8.90838868,46.2019146 C9.42658956,42.9157443 9.1389642,41.4401504 8.04551261,41.7751329 C6.40533522,42.2776067 5.81314549,29.2799652 5.95587341,28.4331308 C6.09860132,27.5862964 8.16783685,21.8191012 6.40533522,21.5501398 C4.64283359,21.2811785 2.10278954,21.8617848 2.10278954,32.7978446 Z" id="Path-27" transform="translate(5.593199, 36.249277) rotate(-5.000000) translate(-5.593199, -36.249277) "></path>
                                        <path d="M19.953187,12.2187087 C19.953187,23.1547685 18.4823203,29.6800958 22.8311059,31.579143 C25.7302963,32.8451744 27.8108191,32.1365719 29.0726744,29.4533355 C28.0482831,23.6134606 26.9893616,20.8610145 25.89591,21.195997 C24.2557326,21.6984708 23.6635429,8.70082929 23.8062708,7.85399492 C23.9489988,7.00716055 26.0182343,1.23996529 24.2557326,0.971003937 C22.493231,0.702042589 19.953187,1.2826489 19.953187,12.2187087 Z" id="Path-27-Copy" transform="translate(24.393192, 16.556615) scale(-1, 1) rotate(11.000000) translate(-24.393192, -16.556615) "></path>
                                    </g>
                                    <path d="M28.3540552,43.5401774 L28.3540552,59.5014188 L49.3688864,58.7437627 C49.5058963,56.4472025 49.3315666,54.1806399 48.8458973,51.9440748 C48.6687613,51.1283421 47.6725427,45.1512335 48.4041939,43.8627796 C48.548711,43.6082818 48.6959455,43.8504453 48.8458973,44.58927 C49.2360507,45.7171174 50.1456354,46.1473816 51.5746516,45.8800626 C53.0036677,45.6127437 53.8978887,44.7451062 54.2573145,43.2771504 C53.3052007,36.8972552 52.4109798,32.7644476 51.5746516,30.8787275 C50.3201593,28.0501475 48.284265,23.0500583 44.1378741,22.424584 C39.9914833,21.7991096 40.121484,24.3291878 36.6519454,23.8874556 C33.1824068,23.4457234 31.5163849,21.9464314 28.671929,24.322862 C26.7756251,25.9071491 24.3638985,30.5587397 21.4367492,38.277634 C22.5409207,40.2126132 23.4453843,41.5672629 24.1501402,42.3415831 C24.854896,43.1159033 25.8653002,43.8651323 27.1813526,44.58927 L28.3540552,43.5401774 Z" id="Path-26" fill="#0A0F5F"></path>
                                    <path d="M49.3078934,58.375784 C49.2751079,61.2777605 49.1220835,63.6918437 48.8488202,65.6180337 C47.8402924,72.7269856 45.9464642,79.1164404 45.7787834,79.8492616 C45.6168014,80.5571763 46.7702939,86.2935142 45.7787834,93.4294013 C45.4774229,95.598288 44.5910293,101.332303 43.1196024,110.631446 L40.2022819,110.631446 L39.2878292,89.2087594 C39.2878292,86.243268 39.2878292,84.5854041 39.2878292,84.2351676 C39.2878292,83.709813 37.7262556,75.8105159 37.7262556,73.1314425 C37.7262556,71.3453936 37.7262556,69.1440818 37.7262556,66.527507 L29.4180545,74.708814 C31.3875598,77.3127697 32.6336206,79.3383608 33.156237,80.7855875 C33.6788534,82.2328142 34.2706738,84.899462 34.9316981,88.785531 L31.8759309,89.5244906 L23.9432377,75.9953968 C23.3144126,75.2110694 23,74.4743351 23,73.785194 C23,73.0960528 23.0955043,72.5118951 23.286513,72.0327209 L28.2262238,58.8937822 L49.3078934,58.375784 Z" id="Path-4" fill="#5A98FF"></path>
                                    <path d="M34.8673469,88.7527778 C35.8150476,89.3708288 36.2411546,90.016563 36.145668,90.6899803 C36.0338883,91.4783042 34.5254577,91.8392041 33.1687128,92.2182154 C32.7869804,92.3248536 32.3148752,92.7383196 31.8378892,92.8821962 C31.4321715,93.0045757 29.6579427,93.2937961 28.4856137,92.8821962 C26.1464287,92.0609182 25.4344859,90.9135478 26.4509139,90.9135478 C27.1980925,90.9135478 29.0798167,91.0638798 30.5336523,90.4890567 C30.8839451,90.3505565 31.2480654,89.8780038 31.6260131,89.0713984 L34.8673469,88.7527778 Z" id="Path-5" fill="#0A0F5F"></path>
                                    <path d="M42.9961708,110.691667 C43.8579889,111.309718 44.2411546,111.955452 44.145668,112.628869 C44.0338883,113.417193 42.5254577,113.778093 41.1687128,114.157104 C40.7869804,114.263742 40.3148752,114.677209 39.8378892,114.821085 C39.4321715,114.943465 37.6579427,115.232685 36.4856137,114.821085 C34.1464287,113.999807 33.4344859,112.852437 34.4509139,112.852437 C35.1980925,112.852437 37.224171,112.895335 38.6780066,112.320512 C39.0282995,112.182012 39.5345276,111.639063 40.1966909,110.691667 L42.9961708,110.691667 Z" id="Path-5-Copy" fill="#0A0F5F"></path>
                                    <path d="M30.499144,15.6034006 C34.3452279,15.6034006 35.6580422,18.5249047 38.472808,18.0072576 C41.2875737,17.4896105 42.4346229,15.9754725 43.1303406,14.1194193 C43.8260584,12.263366 43.9114338,13.2659517 43.5208872,8.05799148 C43.1303406,2.85003124 37.2430066,0.215434432 34.0145426,0.744938756 C30.7860786,1.27444308 25.8197177,3.77213689 26.1263131,8.88789269 C26.4329085,14.0036485 26.6530601,15.6034006 30.499144,15.6034006 Z" id="Path-30" fill="#0A0F5F"></path>
                                </g>
                            </g>
                        </g>
                        <g id="Group-44" transform="translate(105.000000, 34.902778)">
                            <path d="M41.8458703,5.03922347 C42.3986017,2.34108868 43.0243746,0.826459686 43.723189,0.495336486 C44.7714105,-0.00134831436 47.090514,0.758997515 45.7624388,4.50518519 C44.8770553,7.00264363 44.1973053,8.45182471 43.723189,8.8527284 L41.8458703,5.03922347 Z" id="Path-2" fill="#D3DAE0"></path>
                            <path d="M26.8673469,109.694444 C27.8150476,110.312495 28.2411546,110.95823 28.145668,111.631647 C28.0338883,112.419971 26.5254577,112.780871 25.1687128,113.159882 C24.7869804,113.26652 24.3148752,113.679986 23.8378892,113.823863 C23.4321715,113.946242 21.6579427,114.235463 20.4856137,113.823863 C18.1464287,113.002585 17.4344859,111.855214 18.4509139,111.855214 C19.1980925,111.855214 21.0798167,112.005546 22.5336523,111.430723 C22.8839451,111.292223 23.2480654,110.81967 23.6260131,110.013065 L26.8673469,109.694444 Z" id="Path-5" fill="#0A0F5F" transform="translate(23.079389, 111.865792) scale(-1, 1) translate(-23.079389, -111.865792) "></path>
                            <path d="M13.9961708,114.680556 C14.8579889,115.298607 15.2411546,115.944341 15.145668,116.617758 C15.0338883,117.406082 13.5254577,117.766982 12.1687128,118.145993 C11.7869804,118.252631 11.3148752,118.666097 10.8378892,118.809974 C10.4321715,118.932353 8.65794273,119.221574 7.48561367,118.809974 C5.14642873,117.988696 4.43448588,116.841326 5.4509139,116.841326 C6.19809245,116.841326 8.22417099,116.884224 9.67800659,116.309401 C10.0282995,116.170901 10.5345276,115.627952 11.1966909,114.680556 L13.9961708,114.680556 Z" id="Path-5-Copy" fill="#0A0F5F" transform="translate(10.079977, 116.851903) scale(-1, 1) translate(-10.079977, -116.851903) "></path>
                            <path d="M14.474874,60.2978191 C11.4945195,60.8880141 10.0775174,61.9504533 10.0775174,70.3010149 C10.0775174,78.6515765 21.0011495,81.8051679 24.5263009,87.2791439 C26.1030191,89.7275259 22.7093194,92.1636058 21.2003313,98.6043129 C20.6967498,100.753714 20.172051,104.474421 19.6262349,109.766432 L22.3373944,109.975199 C28.2823527,99.6171166 31.5127867,92.9721585 32.0286964,90.0403241 C32.8025609,85.6425726 32.232569,85.7429815 30.7056074,81.4817515 C30.0960884,79.7807913 29.7727488,78.4482836 29.2250204,75.5773516 C28.5121327,71.840733 29.015157,66.3361837 27.2206838,63.6426145 C24.0474747,58.8795125 17.4552285,59.7076242 14.474874,60.2978191 Z" id="Path-100" fill="#4884E7"></path>
                            <path d="M6.19140412,64.8814536 C4.90999144,68.8752054 4.87824219,70.8232575 6.19140412,74.7903889 C7.01104832,77.2665771 7.56652036,78.8358209 8.20254088,81.6963394 C8.93348941,84.9837991 10.4888273,90.3654719 9.59183883,94.5895569 C9.29214121,96.0008885 8.09720462,97.1460567 7.50521331,98.1942798 C5.52632684,101.698241 5.08839044,107.439591 6.19140412,115.418329 L9.03740518,114.780706 C12.6627437,104.873657 14.9355197,98.3676511 15.8557333,95.2626878 C18.4977208,86.3481549 20.673054,83.032171 20.673054,79.2938705 C20.673054,75.55557 25.307742,57.2553926 20.0501012,58.8050286 C14.7924605,60.3546645 8.64281129,57.2412049 6.19140412,64.8814536 Z" id="Path-102" fill="#5A98FF"></path>
                            <path d="M0.553085277,66.3475298 C-0.164584445,69.7248021 -0.0701670363,71.4134383 0.836337503,71.4134383 C2.19609431,71.4134383 4.30061908,68.6914393 4.20461209,66.0855144 C4.14060744,64.3482311 2.92343183,64.4355696 0.553085277,66.3475298 Z" id="Path-9" fill="#D3DAE0"></path>
                            <path d="M20.379488,28.4710694 C14.4836106,29.4971882 10.3398858,33.540178 6.59504448,39.6442192 C2.85020319,45.7482605 0.329744969,64.7462592 0.301565136,66.4054695 C0.272869031,68.0950776 3.98799789,67.5014784 4.42291844,66.953474 C4.85783899,66.4054695 6.26522309,63.1076264 7.55850708,58.8469753 C9.07220693,53.8601765 9.86807289,48.2277935 10.8988521,47.309115 C11.9089776,46.4088442 11.4052272,49.7496853 8.80049343,58.8469753 C7.88432163,62.0467958 5.38101378,63.7128359 7.55850708,65.5751229 C9.73600037,67.43741 13.7842022,68.4669154 18.0965483,68.0582307 C22.4088943,67.649546 26.543824,68.0582307 27.7303375,65.0606628 C28.3943531,63.3831159 27.9475173,57.649724 28.7760884,51.5672429 C29.4280709,46.7810861 30.4913176,43.1805244 31.2188629,41.311614 C31.6010729,40.3297973 31.8075673,38.0641457 34.0397698,36.0022301 C36.2719723,33.9403145 37.6504117,32.6345895 39.3148617,28.8804458 C41.1610806,24.716325 43.075897,17.804167 45.0593107,8.14397196 L41.5073483,2.81097623 C36.7861682,20.9610866 32.9005292,29.6509098 29.8504313,28.8804458 C25.2752844,27.7247497 26.2753655,27.4449505 20.379488,28.4710694 Z" id="Path-29" fill="#0A0F5F"></path>
                            <path d="M20.7720299,25.6926235 C16.2204048,14.9570178 17.1512447,9.8328368 23.5645496,10.3200806 C29.3008144,10.755887 32.8801699,15.743556 28.4979209,24.2266425 C28.0280339,25.1362421 27.173336,25.9844735 25.9338273,26.7713369 C26.6288607,28.2463367 27.0396765,29.258316 27.1662746,29.8072747 C27.8798011,32.9012894 26.3540103,36.4091332 23.0517681,36.7864574 C19.8514129,37.1521398 17.8753132,32.2734915 18.8313437,28.9679148 C19.0266595,28.29259 19.6735548,27.2008262 20.7720299,25.6926235 Z" id="Path-23" fill="#D3DAE0"></path>
                            <path d="M21.0049977,28.3587322 C20.5808147,30.3438682 20.71205,32.1623704 21.3987037,33.8142388 C22.4286842,36.2920413 24.5794749,35.4122621 25.4391597,39.3057999 C26.2988444,43.1993377 25.864191,50.5700519 25.0983511,50.5700519 C24.3325112,50.5700519 25.1315672,45.1441862 23.2289407,40.4085064 C21.3263142,35.6728267 19.1025804,36.4286298 18.4416009,34.9787237 C18.0009479,34.0121197 18.0009479,31.9752823 18.4416009,28.8682115 L21.0049977,28.3587322 Z" id="Path-33" fill="#5A98FF"></path>
                            <path d="M24.5346586,28.041548 C24.1277387,30.2381401 24.2676055,32.1623704 24.9542592,33.8142388 C25.9842397,36.2920413 28.1350305,35.4122621 28.9947152,39.3057999 C29.8544,43.1993377 29.4197466,50.5700519 28.6539067,50.5700519 C27.8880668,50.5700519 28.6871228,45.1441862 26.7844962,40.4085064 C24.8818697,35.6728267 22.6581359,36.4286298 21.9971564,34.9787237 C21.5565034,34.0121197 21.5565034,31.8738021 21.9971564,28.5637711 L24.5346586,28.041548 Z" id="Path-33-Copy" fill="#5A98FF" transform="translate(25.566875, 39.305800) scale(-1, 1) translate(-25.566875, -39.305800) "></path>
                            <path d="M23.8384978,17.0744259 C22.944044,17.7425326 22.2710132,18.7954449 21.5179979,23.0911359 C20.7649826,27.3868269 22.4589792,36.1140546 21.5179979,37.2247912 C20.1395785,38.8518807 17.6150401,40.5785022 15.2380428,39.6316188 C13.3158246,38.8658979 14.5524306,36.0423711 13.6032352,35.3426702 C9.96020921,32.6572075 11.2739305,21.2424393 14.3992347,14.6502509 C17.5245388,8.05806245 24.2115795,8.30462742 27.1496301,9.1613414 C30.0876806,10.0180554 32.7630801,14.2337099 31.4407308,16.7608174 C30.1183815,19.2879249 24.5312503,16.5569788 23.8384978,17.0744259 Z" id="Path-30" fill="#101675"></path>
                        </g>
                        <g id="Group-27" transform="translate(99.000000, 151.577778)">
                            <path d="M78.5690449,26.0355783 C81.1482295,25.040716 82.7045377,25.040716 83.2379697,26.0355783 C84.0381176,27.5278717 79.7324581,29.6323583 78.9113227,29.5043038 C78.3638991,29.4189341 78.2498065,28.2626923 78.5690449,26.0355783 Z" id="Path-8" fill="#D3DAE0"></path>
                            <path d="M3.15682469,48.339312 C1.48174464,48.9688202 -0.960264904,52.5772128 0.940004083,52.9268438 C2.20685007,53.1599311 3.6602297,52.360228 5.30014298,50.5277342 C4.98798415,48.6491139 4.27354473,47.9196399 3.15682469,48.339312 Z" id="Path-7" fill="#D3DAE0"></path>
                            <path d="M18.9730019,59.0220937 C17.6915892,63.0158455 17.65984,64.9638976 18.9730019,68.931029 C19.7926461,71.4072172 20.3481181,72.976461 20.9841387,75.8369795 C21.7150872,79.1244392 23.2704251,84.506112 22.3734366,88.730197 C22.073739,90.1415286 20.8788024,91.2866968 20.2868111,92.3349199 C18.3079246,95.838881 17.5366549,102.577453 17.9730019,112.550636 L21.3734366,112.003494 C25.2958193,100.04168 27.7171175,92.5082912 28.6373311,89.4033279 C31.2793186,80.488795 33.4546518,77.1728111 33.4546518,73.4345106 C33.4546518,69.6962101 38.0893397,51.3960327 32.831699,52.9456687 C27.5740583,54.4953046 21.4244091,51.381845 18.9730019,59.0220937 Z" id="Path-102" fill="#141B87"></path>
                            <path d="M38.8673469,102.713889 C39.8150476,103.33194 40.2411546,103.977674 40.145668,104.651091 C40.0338883,105.439415 38.5254577,105.800315 37.1687128,106.179326 C36.7869804,106.285965 36.3148752,106.699431 35.8378892,106.843307 C35.4321715,106.965687 33.6579427,107.254907 32.4856137,106.843307 C30.1464287,106.022029 29.4344859,104.874659 30.4509139,104.874659 C31.1980925,104.874659 33.0798167,105.024991 34.5336523,104.450168 C34.8839451,104.311668 35.2480654,103.839115 35.6260131,103.03251 L38.8673469,102.713889 Z" id="Path-5" fill="#5A98FF" transform="translate(35.079389, 104.885236) scale(-1, 1) translate(-35.079389, -104.885236) "></path>
                            <path d="M25.8673469,111.688889 C26.8150476,112.30694 27.2411546,112.952674 27.145668,113.626091 C27.0338883,114.414415 25.5254577,114.775315 24.1687128,115.154326 C23.7869804,115.260965 23.3148752,115.674431 22.8378892,115.818307 C22.4321715,115.940687 20.6579427,116.229907 19.4856137,115.818307 C17.1464287,114.997029 16.4344859,113.849659 17.4509139,113.849659 C18.1980925,113.849659 20.0798167,113.999991 21.5336523,113.425168 C21.8839451,113.286668 22.2770255,112.707908 22.7128933,111.688889 L25.8673469,111.688889 Z" id="Path-5-Copy" fill="#5A98FF" transform="translate(22.079389, 113.860236) scale(-1, 1) translate(-22.079389, -113.860236) "></path>
                            <path d="M26.721851,49.3489413 C23.521567,49.974047 22,51.0993307 22,59.9438376 C22,68.7883446 33.7297202,72.1284746 37.5150033,77.9262426 C39.2080723,80.5194493 35.5639411,83.0996262 33.9436002,89.9213085 C33.4028579,92.1978493 32.6462447,96.4947311 31.6737606,102.811954 L34.1432892,103.02061 C41.2077984,91.3459591 45.0170431,83.9560056 45.5710233,80.8507499 C46.4019936,76.1928663 45.7899402,76.2992145 44.1502996,71.7859278 C43.4958022,69.9843538 43.1486025,68.5730267 42.5604556,65.5322757 C41.7949617,61.5746318 42.3351057,55.7444821 40.4082129,52.8915851 C37.000843,47.8467402 29.9221349,48.7238356 26.721851,49.3489413 Z" id="Path-100" fill="#0A0F5F"></path>
                            <path d="M2.66977157,48.0271904 C8.93657789,41.4356165 13.6942487,36.7804701 16.9427839,34.0617512 C21.8155868,29.9836729 29.8503863,26.3226225 32.057814,25.9857681 C34.2652417,25.6489138 45.3591311,22.4846424 51.7221803,24.9694633 C58.0852294,27.4542843 62.6315919,29.4303311 68.5848178,27.7080496 C72.553635,26.559862 75.9871529,25.7777807 78.8853713,25.3618057 L79.870405,29.9115972 C73.8844247,32.704624 69.6357961,34.2719181 67.1245193,34.6134796 C58.5909076,35.7741455 51.7221803,34.1151292 50.927698,37.1835538 C49.7466149,41.7450964 43.7618943,48.1544757 42.7556958,52.6152361 C41.2139894,59.4500531 43.9490478,59.803254 39.8614298,60.6939081 C35.7738119,61.5845621 22.2292676,61.8080941 19.724411,58.4391907 C17.2195544,55.0702873 24.7162915,51.0030285 24.6652665,42.755641 C24.6312499,37.2573827 18.1547364,40.141051 5.23572586,51.4066461 L2.66977157,48.0271904 Z" id="Path-90" fill="#5A98FF"></path>
                            <g id="Group-28" transform="translate(39.917127, 19.835433) rotate(19.000000) translate(-39.917127, -19.835433) translate(31.417127, 2.384044)">
                                <path d="M16.2810553,14.4520039 C16.1158184,16.0773551 14.9894645,17.3013596 12.9019936,18.1240173 C14.8975976,21.3723685 15.9754868,23.2217462 16.1356613,23.6721503 C16.3759231,24.3477565 17.0296777,26.2148769 15.3502433,26.8998192 C13.0355292,27.8438546 6.98944106,26.9208821 5.74187977,24.086592 C5.62783788,23.8275043 5.95873133,21.8302017 6.73456014,18.0946843 C2.13367111,10.1296065 2.57546112,5.41071344 8.05993017,3.93800509 C16.2866338,1.72894255 16.5289108,12.0139771 16.2810553,14.4520039 Z" id="Path-23" fill="#D3DAE0"></path>
                                <path d="M6.92916899,5.60676662 C5.86273655,5.95742896 4.99051415,6.60667846 5.87481861,9.11268683 C6.3532134,10.4683979 12.1865383,21.6672612 12.7208634,27.0079857 C13.1742289,31.5394976 9.41194877,30.3926424 7.56915756,31.0585061 C5.72636635,31.7243698 2.36926409,36.6320207 1.13855932,32.8139351 C-0.653616494,27.2539659 2.10419297,16.2237263 0.30876501,11.023909 C-1.09506497,6.9582158 3.49815935,2.22954026 7.04828251,2.30557508 C10.5984057,2.3816099 13.8059899,-3.09092868 15.6751944,2.73091472 C17.5443988,8.55275812 7.99560142,5.25610428 6.92916899,5.60676662 Z" id="Path-30" fill="#0A0F5F"></path>
                            </g>
                        </g>
                    </g>
                </g>
            </g>
        </g>
    </g>
</svg>