<svg width="48" height="48" viewBox="0 0 48 48" fill="none" xmlns="http://www.w3.org/2000/svg">
<path d="M24.0979 46.1958C36.3023 46.1958 46.1958 36.3022 46.1958 24.0979C46.1958 11.8936 36.3023 2 24.0979 2C11.8936 2 2 11.8936 2 24.0979C2 36.3022 11.8936 46.1958 24.0979 46.1958Z" stroke="#3D3D3D" stroke-width="2.2" stroke-linecap="round"/>
<path d="M34.7616 14.2168L34.2779 14.2195C33.3125 14.2195 31.5339 14.9009 30.1328 15.807L29.5216 16.2038L28.6381 15.9897C26.0272 15.3659 23.3477 15.3615 20.626 15.9786L19.7194 16.1842L19.0242 15.7671C17.4313 14.8092 15.8716 14.2233 14.9196 14.2233H14.433L14.2505 14.8054C14.1496 15.126 14.0293 15.5955 13.9811 15.8511C13.8471 16.5617 13.8715 18.0177 14.0332 18.7535L14.1781 19.4053L13.9579 19.643C13.2575 20.3883 12.602 21.8151 12.3822 23.0754C12.0752 24.835 12.3458 27.3232 13.0281 28.9991C13.9138 31.1746 15.6933 32.6834 18.2537 33.428C18.9122 33.6197 20.7782 33.99 21.0837 33.99C21.1357 33.99 21.0563 34.1167 20.907 34.2709C20.5435 34.6464 20.133 35.4742 20.0032 36.0928C19.8824 36.6691 19.7976 36.7363 18.8967 36.9706C18.497 37.0726 18.0936 37.104 17.4745 37.0838C16.7257 37.0558 16.536 37.0148 16.0493 36.7827C15.2931 36.4223 14.8656 36.0278 14.2824 35.1606C13.4603 33.9382 12.6638 33.3287 11.6377 33.1388C11.1481 33.0485 10.5815 33.1163 10.4095 33.2895C10.2718 33.4274 10.4982 33.7845 10.9078 34.0774C11.1 34.2147 11.4059 34.4345 11.5885 34.5668C12.0965 34.9362 12.6591 35.7391 13.2048 36.8811C13.477 37.4508 13.8386 38.0777 14.0101 38.2744C14.7154 39.0836 15.9141 39.6501 17.1674 39.7633C17.8772 39.8278 19.0047 39.7746 19.5774 39.6473L19.8497 39.5895V41.368C19.8497 43.3703 19.8005 43.5801 19.2849 43.7956C19.067 43.8864 18.0937 44.2159 17.8655 44.189L18.6534 46.7815C19.6459 47.0612 20.6606 47.2771 21.6949 47.4159H27.4244C28.2369 47.3089 29.0431 47.1519 29.8402 46.958V43.7629C29.7645 43.7181 29.6831 43.6867 29.6143 43.6184L29.3912 43.3953L29.342 39.8788C29.3011 36.9491 29.2686 36.2798 29.148 35.864C28.9558 35.2015 28.7172 34.7435 28.3427 34.3287C28.173 34.1409 28.0742 33.9869 28.1225 33.9869C28.4222 33.9869 30.2928 33.6141 30.9439 33.425C33.2764 32.7466 34.999 31.4034 35.929 29.5405C36.2317 28.9342 36.5694 27.8667 36.743 26.9539C36.9307 25.9662 36.9556 23.5598 36.7864 22.8087C36.5288 21.6649 35.9015 20.3803 35.2135 19.5934L34.9673 19.3155L35.1121 18.9477C35.225 18.6601 35.2601 18.2785 35.2628 17.1981C35.2658 15.9089 35.248 15.7653 35.0137 15.0199L34.7616 14.2168Z" fill="#3D3D3D"/>
</svg>
