<svg width="48" height="48" viewBox="0 0 48 48" fill="none" xmlns="http://www.w3.org/2000/svg">
<path d="M24.0979 46.1958C36.3023 46.1958 46.1958 36.3022 46.1958 24.0979C46.1958 11.8936 36.3023 2 24.0979 2C11.8936 2 2 11.8936 2 24.0979C2 36.3022 11.8936 46.1958 24.0979 46.1958Z" stroke="white" stroke-width="2.2" stroke-linecap="round"/>
<path d="M34.7616 14.2166L34.2779 14.2193C33.3125 14.2193 31.5339 14.9007 30.1328 15.8067L29.5216 16.2036L28.6381 15.9894C26.0272 15.3656 23.3477 15.3613 20.626 15.9783L19.7194 16.1839L19.0242 15.7669C17.4313 14.809 15.8716 14.2231 14.9196 14.2231H14.433L14.2505 14.8052C14.1496 15.1258 14.0293 15.5952 13.9811 15.8509C13.8471 16.5614 13.8715 18.0174 14.0332 18.7533L14.1781 19.405L13.9579 19.6428C13.2575 20.388 12.602 21.8148 12.3822 23.0751C12.0752 24.8347 12.3458 27.323 13.0281 28.9988C13.9138 31.1744 15.6933 32.6832 18.2537 33.4278C18.9122 33.6195 20.7782 33.9897 21.0837 33.9897C21.1357 33.9897 21.0563 34.1165 20.907 34.2706C20.5435 34.6462 20.133 35.474 20.0032 36.0926C19.8824 36.6688 19.7976 36.7361 18.8967 36.9703C18.497 37.0723 18.0936 37.1037 17.4745 37.0836C16.7257 37.0555 16.536 37.0145 16.0493 36.7825C15.2931 36.4221 14.8656 36.0276 14.2824 35.1603C13.4603 33.938 12.6638 33.3284 11.6377 33.1385C11.1481 33.0483 10.5815 33.116 10.4095 33.2892C10.2718 33.4271 10.4982 33.7842 10.9078 34.0771C11.1 34.2145 11.4059 34.4343 11.5885 34.5666C12.0965 34.9359 12.6591 35.7389 13.2048 36.8808C13.477 37.4505 13.8386 38.0775 14.0101 38.2741C14.7154 39.0834 15.9141 39.6498 17.1674 39.7631C17.8772 39.8275 19.0047 39.7743 19.5774 39.6471L19.8497 39.5893V41.3678C19.8497 43.3701 19.8005 43.5799 19.2849 43.7953C19.067 43.8861 18.0937 44.2157 17.8655 44.1888L18.6534 46.7812C19.6459 47.0609 20.6606 47.2768 21.6949 47.4157H27.4244C28.2369 47.3086 29.0431 47.1517 29.8402 46.9577V43.7627C29.7645 43.7178 29.6831 43.6865 29.6143 43.6181L29.3912 43.395L29.342 39.8785C29.3011 36.9489 29.2686 36.2796 29.148 35.8637C28.9558 35.2013 28.7172 34.7432 28.3427 34.3284C28.173 34.1407 28.0742 33.9867 28.1225 33.9867C28.4222 33.9867 30.2928 33.6139 30.9439 33.4247C33.2764 32.7464 34.999 31.4032 35.929 29.5403C36.2317 28.9339 36.5694 27.8665 36.743 26.9536C36.9307 25.9659 36.9556 23.5596 36.7864 22.8085C36.5288 21.6647 35.9015 20.3801 35.2135 19.5932L34.9673 19.3152L35.1121 18.9474C35.225 18.6599 35.2601 18.2783 35.2628 17.1978C35.2658 15.9086 35.248 15.765 35.0137 15.0197L34.7616 14.2166Z" fill="white"/>
</svg>
