<svg width="1561" height="1065" viewBox="0 0 1561 1065" fill="none" xmlns="http://www.w3.org/2000/svg">
<rect width="1561" height="1065" fill="#E8EDF2"/>
<rect x="833" y="240" width="126" height="48" fill="#22266C"/>
<path d="M863.531 266.586C863.32 268.391 862.652 269.785 861.527 270.77C860.41 271.746 858.922 272.234 857.062 272.234C855.047 272.234 853.43 271.512 852.211 270.066C851 268.621 850.395 266.688 850.395 264.266V262.625C850.395 261.039 850.676 259.645 851.238 258.441C851.809 257.238 852.613 256.316 853.652 255.676C854.691 255.027 855.895 254.703 857.262 254.703C859.074 254.703 860.527 255.211 861.621 256.227C862.715 257.234 863.352 258.633 863.531 260.422H861.27C861.074 259.062 860.648 258.078 859.992 257.469C859.344 256.859 858.434 256.555 857.262 256.555C855.824 256.555 854.695 257.086 853.875 258.148C853.062 259.211 852.656 260.723 852.656 262.684V264.336C852.656 266.188 853.043 267.66 853.816 268.754C854.59 269.848 855.672 270.395 857.062 270.395C858.312 270.395 859.27 270.113 859.934 269.551C860.605 268.98 861.051 267.992 861.27 266.586H863.531ZM879.738 264.02C879.738 265.691 879.457 267.152 878.895 268.402C878.332 269.645 877.535 270.594 876.504 271.25C875.473 271.906 874.27 272.234 872.895 272.234C871.551 272.234 870.359 271.906 869.32 271.25C868.281 270.586 867.473 269.645 866.895 268.426C866.324 267.199 866.031 265.781 866.016 264.172V262.941C866.016 261.301 866.301 259.852 866.871 258.594C867.441 257.336 868.246 256.375 869.285 255.711C870.332 255.039 871.527 254.703 872.871 254.703C874.238 254.703 875.441 255.035 876.48 255.699C877.527 256.355 878.332 257.312 878.895 258.57C879.457 259.82 879.738 261.277 879.738 262.941V264.02ZM877.5 262.918C877.5 260.895 877.094 259.344 876.281 258.266C875.469 257.18 874.332 256.637 872.871 256.637C871.449 256.637 870.328 257.18 869.508 258.266C868.695 259.344 868.277 260.844 868.254 262.766V264.02C868.254 265.98 868.664 267.523 869.484 268.648C870.312 269.766 871.449 270.324 872.895 270.324C874.348 270.324 875.473 269.797 876.27 268.742C877.066 267.68 877.477 266.16 877.5 264.184V262.918ZM886.02 254.938L891.598 268.859L897.176 254.938H900.094V272H897.844V265.355L898.055 258.184L892.453 272H890.73L885.141 258.219L885.363 265.355V272H883.113V254.938H886.02ZM906.973 254.938L912.551 268.859L918.129 254.938H921.047V272H918.797V265.355L919.008 258.184L913.406 272H911.684L906.094 258.219L906.316 265.355V272H904.066V254.938H906.973ZM927.434 272H925.184V254.938H927.434V272ZM942.996 256.789H937.512V272H935.273V256.789H929.801V254.938H942.996V256.789Z" fill="white"/>
<rect x="833" y="369" width="116" height="50" fill="#22266C"/>
<path d="M858.648 397.229H854.64V404.132H852.378V387.069H858.027C859.949 387.069 861.425 387.507 862.457 388.382C863.496 389.257 864.015 390.53 864.015 392.202C864.015 393.265 863.726 394.19 863.148 394.979C862.578 395.769 861.781 396.358 860.757 396.749L864.765 403.991V404.132H862.351L858.648 397.229ZM854.64 395.39H858.097C859.214 395.39 860.101 395.101 860.757 394.522C861.421 393.944 861.753 393.171 861.753 392.202C861.753 391.147 861.437 390.339 860.804 389.776C860.179 389.214 859.273 388.929 858.085 388.921H854.64V395.39ZM876.824 396.245H869.429V402.292H878.019V404.132H867.179V387.069H877.902V388.921H869.429V394.405H876.824V396.245ZM886.468 401.144L891.343 387.069H893.804L887.476 404.132H885.484L879.167 387.069H881.617L886.468 401.144ZM905.746 396.245H898.351V402.292H906.941V404.132H896.101V387.069H906.824V388.921H898.351V394.405H905.746V396.245ZM919.164 399.679H912.015L910.41 404.132H908.089L914.605 387.069H916.574L923.101 404.132H920.792L919.164 399.679ZM912.695 397.827H918.496L915.589 389.847L912.695 397.827ZM927.66 402.292H935.746V404.132H925.398V387.069H927.66V402.292Z" fill="white"/>
<rect x="60" y="434" width="107" height="57" fill="#723ECB"/>
<path d="M93.9922 453.938V465.539C93.9844 467.148 93.4766 468.465 92.4688 469.488C91.4688 470.512 90.1094 471.086 88.3906 471.211L87.793 471.234C85.9258 471.234 84.4375 470.73 83.3281 469.723C82.2188 468.715 81.6562 467.328 81.6406 465.562V453.938H83.8672V465.492C83.8672 466.727 84.207 467.688 84.8867 468.375C85.5664 469.055 86.5352 469.395 87.793 469.395C89.0664 469.395 90.0391 469.055 90.7109 468.375C91.3906 467.695 91.7305 466.738 91.7305 465.504V453.938H93.9922ZM103.801 464.098H99.793V471H97.5312V453.938H103.18C105.102 453.938 106.578 454.375 107.609 455.25C108.648 456.125 109.168 457.398 109.168 459.07C109.168 460.133 108.879 461.059 108.301 461.848C107.73 462.637 106.934 463.227 105.91 463.617L109.918 470.859V471H107.504L103.801 464.098ZM99.793 462.258H103.25C104.367 462.258 105.254 461.969 105.91 461.391C106.574 460.812 106.906 460.039 106.906 459.07C106.906 458.016 106.59 457.207 105.957 456.645C105.332 456.082 104.426 455.797 103.238 455.789H99.793V462.258ZM114.594 469.16H122.68V471H112.332V453.938H114.594V469.16ZM137.762 471H135.582V456.551L131.211 458.156V456.188L137.422 453.855H137.762V471Z" fill="white"/>
<rect x="59" y="554" width="108" height="55" fill="#723ECB"/>
<path d="M93.9922 572.938V584.539C93.9844 586.148 93.4766 587.465 92.4688 588.488C91.4688 589.512 90.1094 590.086 88.3906 590.211L87.793 590.234C85.9258 590.234 84.4375 589.73 83.3281 588.723C82.2188 587.715 81.6562 586.328 81.6406 584.562V572.938H83.8672V584.492C83.8672 585.727 84.207 586.688 84.8867 587.375C85.5664 588.055 86.5352 588.395 87.793 588.395C89.0664 588.395 90.0391 588.055 90.7109 587.375C91.3906 586.695 91.7305 585.738 91.7305 584.504V572.938H93.9922ZM103.801 583.098H99.793V590H97.5312V572.938H103.18C105.102 572.938 106.578 573.375 107.609 574.25C108.648 575.125 109.168 576.398 109.168 578.07C109.168 579.133 108.879 580.059 108.301 580.848C107.73 581.637 106.934 582.227 105.91 582.617L109.918 589.859V590H107.504L103.801 583.098ZM99.793 581.258H103.25C104.367 581.258 105.254 580.969 105.91 580.391C106.574 579.812 106.906 579.039 106.906 578.07C106.906 577.016 106.59 576.207 105.957 575.645C105.332 575.082 104.426 574.797 103.238 574.789H99.793V581.258ZM114.594 588.16H122.68V590H112.332V572.938H114.594V588.16ZM141.816 590H130.637V588.441L136.543 581.879C137.418 580.887 138.02 580.082 138.348 579.465C138.684 578.84 138.852 578.195 138.852 577.531C138.852 576.641 138.582 575.91 138.043 575.34C137.504 574.77 136.785 574.484 135.887 574.484C134.809 574.484 133.969 574.793 133.367 575.41C132.773 576.02 132.477 576.871 132.477 577.965H130.309C130.309 576.395 130.812 575.125 131.82 574.156C132.836 573.188 134.191 572.703 135.887 572.703C137.473 572.703 138.727 573.121 139.648 573.957C140.57 574.785 141.031 575.891 141.031 577.273C141.031 578.953 139.961 580.953 137.82 583.273L133.25 588.23H141.816V590Z" fill="white"/>
<rect x="60" y="670" width="107" height="58" fill="#723ECB"/>
<path d="M93.9922 689.938V701.539C93.9844 703.148 93.4766 704.465 92.4688 705.488C91.4688 706.512 90.1094 707.086 88.3906 707.211L87.793 707.234C85.9258 707.234 84.4375 706.73 83.3281 705.723C82.2188 704.715 81.6562 703.328 81.6406 701.562V689.938H83.8672V701.492C83.8672 702.727 84.207 703.688 84.8867 704.375C85.5664 705.055 86.5352 705.395 87.793 705.395C89.0664 705.395 90.0391 705.055 90.7109 704.375C91.3906 703.695 91.7305 702.738 91.7305 701.504V689.938H93.9922ZM103.801 700.098H99.793V707H97.5312V689.938H103.18C105.102 689.938 106.578 690.375 107.609 691.25C108.648 692.125 109.168 693.398 109.168 695.07C109.168 696.133 108.879 697.059 108.301 697.848C107.73 698.637 106.934 699.227 105.91 699.617L109.918 706.859V707H107.504L103.801 700.098ZM99.793 698.258H103.25C104.367 698.258 105.254 697.969 105.91 697.391C106.574 696.812 106.906 696.039 106.906 695.07C106.906 694.016 106.59 693.207 105.957 692.645C105.332 692.082 104.426 691.797 103.238 691.789H99.793V698.258ZM114.594 705.16H122.68V707H112.332V689.938H114.594V705.16ZM133.789 697.414H135.418C136.441 697.398 137.246 697.129 137.832 696.605C138.418 696.082 138.711 695.375 138.711 694.484C138.711 692.484 137.715 691.484 135.723 691.484C134.785 691.484 134.035 691.754 133.473 692.293C132.918 692.824 132.641 693.531 132.641 694.414H130.473C130.473 693.062 130.965 691.941 131.949 691.051C132.941 690.152 134.199 689.703 135.723 689.703C137.332 689.703 138.594 690.129 139.508 690.98C140.422 691.832 140.879 693.016 140.879 694.531C140.879 695.273 140.637 695.992 140.152 696.688C139.676 697.383 139.023 697.902 138.195 698.246C139.133 698.543 139.855 699.035 140.363 699.723C140.879 700.41 141.137 701.25 141.137 702.242C141.137 703.773 140.637 704.988 139.637 705.887C138.637 706.785 137.336 707.234 135.734 707.234C134.133 707.234 132.828 706.801 131.82 705.934C130.82 705.066 130.32 703.922 130.32 702.5H132.5C132.5 703.398 132.793 704.117 133.379 704.656C133.965 705.195 134.75 705.465 135.734 705.465C136.781 705.465 137.582 705.191 138.137 704.645C138.691 704.098 138.969 703.312 138.969 702.289C138.969 701.297 138.664 700.535 138.055 700.004C137.445 699.473 136.566 699.199 135.418 699.184H133.789V697.414Z" fill="white"/>
<path d="M218.402 314.547H211.254L209.648 319H207.328L213.844 301.938H215.812L222.34 319H220.031L218.402 314.547ZM211.934 312.695H217.734L214.828 304.715L211.934 312.695ZM226.898 317.16H234.984V319H224.637V301.938H226.898V317.16ZM239.965 319H237.715V301.938H239.965V319ZM256.641 313.586C256.43 315.391 255.762 316.785 254.637 317.77C253.52 318.746 252.031 319.234 250.172 319.234C248.156 319.234 246.539 318.512 245.32 317.066C244.109 315.621 243.504 313.688 243.504 311.266V309.625C243.504 308.039 243.785 306.645 244.348 305.441C244.918 304.238 245.723 303.316 246.762 302.676C247.801 302.027 249.004 301.703 250.371 301.703C252.184 301.703 253.637 302.211 254.73 303.227C255.824 304.234 256.461 305.633 256.641 307.422H254.379C254.184 306.062 253.758 305.078 253.102 304.469C252.453 303.859 251.543 303.555 250.371 303.555C248.934 303.555 247.805 304.086 246.984 305.148C246.172 306.211 245.766 307.723 245.766 309.684V311.336C245.766 313.188 246.152 314.66 246.926 315.754C247.699 316.848 248.781 317.395 250.172 317.395C251.422 317.395 252.379 317.113 253.043 316.551C253.715 315.98 254.16 314.992 254.379 313.586H256.641ZM269.367 311.113H261.973V317.16H270.562V319H259.723V301.938H270.445V303.789H261.973V309.273H269.367V311.113ZM282.996 313.621L283.324 315.871L283.805 313.844L287.18 301.938H289.078L292.371 313.844L292.84 315.906L293.203 313.609L295.852 301.938H298.113L293.977 319H291.926L288.41 306.566L288.141 305.266L287.871 306.566L284.227 319H282.176L278.051 301.938H280.301L282.996 313.621ZM303.035 319H300.785V301.938H303.035V319ZM318.598 303.789H313.113V319H310.875V303.789H305.402V301.938H318.598V303.789ZM334.242 319H331.98L323.391 305.852V319H321.129V301.938H323.391L332.004 315.145V301.938H334.242V319ZM347.883 311.113H340.488V317.16H349.078V319H338.238V301.938H348.961V303.789H340.488V309.273H347.883V311.113ZM356.906 311.395C354.977 310.84 353.57 310.16 352.688 309.355C351.812 308.543 351.375 307.543 351.375 306.355C351.375 305.012 351.91 303.902 352.98 303.027C354.059 302.145 355.457 301.703 357.176 301.703C358.348 301.703 359.391 301.93 360.305 302.383C361.227 302.836 361.938 303.461 362.438 304.258C362.945 305.055 363.199 305.926 363.199 306.871H360.938C360.938 305.84 360.609 305.031 359.953 304.445C359.297 303.852 358.371 303.555 357.176 303.555C356.066 303.555 355.199 303.801 354.574 304.293C353.957 304.777 353.648 305.453 353.648 306.32C353.648 307.016 353.941 307.605 354.527 308.09C355.121 308.566 356.125 309.004 357.539 309.402C358.961 309.801 360.07 310.242 360.867 310.727C361.672 311.203 362.266 311.762 362.648 312.402C363.039 313.043 363.234 313.797 363.234 314.664C363.234 316.047 362.695 317.156 361.617 317.992C360.539 318.82 359.098 319.234 357.293 319.234C356.121 319.234 355.027 319.012 354.012 318.566C352.996 318.113 352.211 317.496 351.656 316.715C351.109 315.934 350.836 315.047 350.836 314.055H353.098C353.098 315.086 353.477 315.902 354.234 316.504C355 317.098 356.02 317.395 357.293 317.395C358.48 317.395 359.391 317.152 360.023 316.668C360.656 316.184 360.973 315.523 360.973 314.688C360.973 313.852 360.68 313.207 360.094 312.754C359.508 312.293 358.445 311.84 356.906 311.395ZM371.156 311.395C369.227 310.84 367.82 310.16 366.938 309.355C366.062 308.543 365.625 307.543 365.625 306.355C365.625 305.012 366.16 303.902 367.23 303.027C368.309 302.145 369.707 301.703 371.426 301.703C372.598 301.703 373.641 301.93 374.555 302.383C375.477 302.836 376.188 303.461 376.688 304.258C377.195 305.055 377.449 305.926 377.449 306.871H375.188C375.188 305.84 374.859 305.031 374.203 304.445C373.547 303.852 372.621 303.555 371.426 303.555C370.316 303.555 369.449 303.801 368.824 304.293C368.207 304.777 367.898 305.453 367.898 306.32C367.898 307.016 368.191 307.605 368.777 308.09C369.371 308.566 370.375 309.004 371.789 309.402C373.211 309.801 374.32 310.242 375.117 310.727C375.922 311.203 376.516 311.762 376.898 312.402C377.289 313.043 377.484 313.797 377.484 314.664C377.484 316.047 376.945 317.156 375.867 317.992C374.789 318.82 373.348 319.234 371.543 319.234C370.371 319.234 369.277 319.012 368.262 318.566C367.246 318.113 366.461 317.496 365.906 316.715C365.359 315.934 365.086 315.047 365.086 314.055H367.348C367.348 315.086 367.727 315.902 368.484 316.504C369.25 317.098 370.27 317.395 371.543 317.395C372.73 317.395 373.641 317.152 374.273 316.668C374.906 316.184 375.223 315.523 375.223 314.688C375.223 313.852 374.93 313.207 374.344 312.754C373.758 312.293 372.695 311.84 371.156 311.395ZM399.445 319H397.184L388.594 305.852V319H386.332V301.938H388.594L397.207 315.145V301.938H399.445V319ZM416.566 311.02C416.566 312.691 416.285 314.152 415.723 315.402C415.16 316.645 414.363 317.594 413.332 318.25C412.301 318.906 411.098 319.234 409.723 319.234C408.379 319.234 407.188 318.906 406.148 318.25C405.109 317.586 404.301 316.645 403.723 315.426C403.152 314.199 402.859 312.781 402.844 311.172V309.941C402.844 308.301 403.129 306.852 403.699 305.594C404.27 304.336 405.074 303.375 406.113 302.711C407.16 302.039 408.355 301.703 409.699 301.703C411.066 301.703 412.27 302.035 413.309 302.699C414.355 303.355 415.16 304.312 415.723 305.57C416.285 306.82 416.566 308.277 416.566 309.941V311.02ZM414.328 309.918C414.328 307.895 413.922 306.344 413.109 305.266C412.297 304.18 411.16 303.637 409.699 303.637C408.277 303.637 407.156 304.18 406.336 305.266C405.523 306.344 405.105 307.844 405.082 309.766V311.02C405.082 312.98 405.492 314.523 406.312 315.648C407.141 316.766 408.277 317.324 409.723 317.324C411.176 317.324 412.301 316.797 413.098 315.742C413.895 314.68 414.305 313.16 414.328 311.184V309.918ZM419.941 319V301.938H424.758C426.242 301.938 427.555 302.266 428.695 302.922C429.836 303.578 430.715 304.512 431.332 305.723C431.957 306.934 432.273 308.324 432.281 309.895V310.984C432.281 312.594 431.969 314.004 431.344 315.215C430.727 316.426 429.84 317.355 428.684 318.004C427.535 318.652 426.195 318.984 424.664 319H419.941ZM422.191 303.789V317.16H424.559C426.293 317.16 427.641 316.621 428.602 315.543C429.57 314.465 430.055 312.93 430.055 310.938V309.941C430.055 308.004 429.598 306.5 428.684 305.43C427.777 304.352 426.488 303.805 424.816 303.789H422.191ZM445.336 311.113H437.941V317.16H446.531V319H435.691V301.938H446.414V303.789H437.941V309.273H445.336V311.113Z" fill="black"/>
<path d="M355.805 481.443C355.805 490.184 348.347 497.27 339.147 497.27C329.946 497.27 322.488 490.184 322.488 481.443C322.488 472.701 329.946 465.615 339.147 465.615C348.347 465.615 355.805 472.701 355.805 481.443V481.443Z" fill="#5A98FF"/>
<path d="M387.025 400.452C387.025 400.452 365.519 430.297 339.265 430.297C313.01 430.297 291.917 400.452 291.917 400.452C291.917 400.452 313.01 369.915 339.265 369.915C365.519 369.915 387.025 400.452 387.025 400.452Z" fill="#D3DAE0" stroke="#BCC6D0" stroke-miterlimit="10"/>
<path d="M339.471 423.461C352.603 423.461 363.248 412.749 363.248 399.536C363.248 386.323 352.603 375.611 339.471 375.611C326.34 375.611 315.694 386.323 315.694 399.536C315.694 412.749 326.34 423.461 339.471 423.461Z" fill="#22266C"/>
<path d="M339.471 409.79C333.849 409.79 329.281 405.449 329.281 400.106C329.281 394.763 333.849 390.422 339.471 390.422C345.093 390.422 349.661 394.763 349.661 400.106C349.661 405.449 345.093 409.79 339.471 409.79Z" fill="#D3DAE0"/>
<path d="M360.334 655.755C360.334 664.496 352.876 671.582 343.675 671.582C334.475 671.582 327.017 664.496 327.017 655.755C327.017 647.013 334.475 639.927 343.675 639.927C352.876 639.927 360.334 647.013 360.334 655.755V655.755Z" fill="#713ECB"/>
<path d="M223.7 835.1V818.037H229.278C231.129 818.037 232.52 818.42 233.45 819.186C234.387 819.951 234.856 821.084 234.856 822.584C234.856 823.381 234.629 824.088 234.176 824.705C233.723 825.314 233.106 825.787 232.325 826.123C233.247 826.381 233.973 826.873 234.504 827.6C235.043 828.318 235.313 829.178 235.313 830.178C235.313 831.709 234.817 832.912 233.825 833.787C232.833 834.662 231.43 835.1 229.618 835.1H223.7ZM225.95 827.119V833.26H229.665C230.711 833.26 231.536 832.99 232.137 832.451C232.747 831.904 233.051 831.154 233.051 830.201C233.051 828.146 231.934 827.119 229.7 827.119H225.95ZM225.95 825.314H229.348C230.333 825.314 231.118 825.068 231.704 824.576C232.297 824.084 232.594 823.416 232.594 822.572C232.594 821.635 232.321 820.955 231.774 820.533C231.227 820.104 230.395 819.889 229.278 819.889H225.95V825.314ZM251.778 827.119C251.778 828.791 251.497 830.252 250.934 831.502C250.372 832.744 249.575 833.693 248.543 834.35C247.512 835.006 246.309 835.334 244.934 835.334C243.59 835.334 242.399 835.006 241.36 834.35C240.321 833.686 239.512 832.744 238.934 831.525C238.364 830.299 238.071 828.881 238.055 827.271V826.041C238.055 824.4 238.34 822.951 238.911 821.693C239.481 820.436 240.286 819.475 241.325 818.811C242.372 818.139 243.567 817.803 244.911 817.803C246.278 817.803 247.481 818.135 248.52 818.799C249.567 819.455 250.372 820.412 250.934 821.67C251.497 822.92 251.778 824.377 251.778 826.041V827.119ZM249.54 826.018C249.54 823.994 249.133 822.443 248.321 821.365C247.508 820.279 246.372 819.736 244.911 819.736C243.489 819.736 242.368 820.279 241.547 821.365C240.735 822.443 240.317 823.943 240.293 825.865V827.119C240.293 829.08 240.704 830.623 241.524 831.748C242.352 832.865 243.489 833.424 244.934 833.424C246.387 833.424 247.512 832.896 248.309 831.842C249.106 830.779 249.516 829.26 249.54 827.283V826.018ZM255.153 835.1V818.037H260.731C262.583 818.037 263.973 818.42 264.903 819.186C265.84 819.951 266.309 821.084 266.309 822.584C266.309 823.381 266.083 824.088 265.629 824.705C265.176 825.314 264.559 825.787 263.778 826.123C264.7 826.381 265.426 826.873 265.958 827.6C266.497 828.318 266.766 829.178 266.766 830.178C266.766 831.709 266.27 832.912 265.278 833.787C264.286 834.662 262.883 835.1 261.071 835.1H255.153ZM257.403 827.119V833.26H261.118C262.165 833.26 262.989 832.99 263.59 832.451C264.2 831.904 264.504 831.154 264.504 830.201C264.504 828.146 263.387 827.119 261.153 827.119H257.403ZM257.403 825.314H260.801C261.786 825.314 262.571 825.068 263.157 824.576C263.75 824.084 264.047 823.416 264.047 822.572C264.047 821.635 263.774 820.955 263.227 820.533C262.68 820.104 261.848 819.889 260.731 819.889H257.403V825.314ZM279.739 829.721L280.067 831.971L280.547 829.943L283.922 818.037H285.821L289.114 829.943L289.583 832.006L289.946 829.709L292.594 818.037H294.856L290.719 835.1H288.668L285.153 822.666L284.883 821.365L284.614 822.666L280.969 835.1H278.918L274.793 818.037H277.043L279.739 829.721ZM299.778 835.1H297.528V818.037H299.778V835.1ZM315.34 819.889H309.856V835.1H307.618V819.889H302.145V818.037H315.34V819.889ZM330.985 835.1H328.723L320.133 821.951V835.1H317.872V818.037H320.133L328.747 831.244V818.037H330.985V835.1ZM344.625 827.213H337.231V833.26H345.821V835.1H334.981V818.037H345.704V819.889H337.231V825.373H344.625V827.213ZM353.649 827.494C351.719 826.939 350.313 826.26 349.43 825.455C348.555 824.643 348.118 823.643 348.118 822.455C348.118 821.111 348.653 820.002 349.723 819.127C350.801 818.244 352.2 817.803 353.918 817.803C355.09 817.803 356.133 818.029 357.047 818.482C357.969 818.936 358.68 819.561 359.18 820.357C359.688 821.154 359.942 822.025 359.942 822.971H357.68C357.68 821.939 357.352 821.131 356.696 820.545C356.04 819.951 355.114 819.654 353.918 819.654C352.809 819.654 351.942 819.9 351.317 820.393C350.7 820.877 350.391 821.553 350.391 822.42C350.391 823.115 350.684 823.705 351.27 824.189C351.864 824.666 352.868 825.104 354.282 825.502C355.704 825.9 356.813 826.342 357.61 826.826C358.415 827.303 359.008 827.861 359.391 828.502C359.782 829.143 359.977 829.896 359.977 830.764C359.977 832.146 359.438 833.256 358.36 834.092C357.282 834.92 355.84 835.334 354.036 835.334C352.864 835.334 351.77 835.111 350.754 834.666C349.739 834.213 348.954 833.596 348.399 832.814C347.852 832.033 347.579 831.146 347.579 830.154H349.84C349.84 831.186 350.219 832.002 350.977 832.604C351.743 833.197 352.762 833.494 354.036 833.494C355.223 833.494 356.133 833.252 356.766 832.768C357.399 832.283 357.715 831.623 357.715 830.787C357.715 829.951 357.422 829.307 356.836 828.854C356.25 828.393 355.188 827.939 353.649 827.494ZM367.899 827.494C365.969 826.939 364.563 826.26 363.68 825.455C362.805 824.643 362.368 823.643 362.368 822.455C362.368 821.111 362.903 820.002 363.973 819.127C365.051 818.244 366.45 817.803 368.168 817.803C369.34 817.803 370.383 818.029 371.297 818.482C372.219 818.936 372.93 819.561 373.43 820.357C373.938 821.154 374.192 822.025 374.192 822.971H371.93C371.93 821.939 371.602 821.131 370.946 820.545C370.29 819.951 369.364 819.654 368.168 819.654C367.059 819.654 366.192 819.9 365.567 820.393C364.95 820.877 364.641 821.553 364.641 822.42C364.641 823.115 364.934 823.705 365.52 824.189C366.114 824.666 367.118 825.104 368.532 825.502C369.954 825.9 371.063 826.342 371.86 826.826C372.665 827.303 373.258 827.861 373.641 828.502C374.032 829.143 374.227 829.896 374.227 830.764C374.227 832.146 373.688 833.256 372.61 834.092C371.532 834.92 370.09 835.334 368.286 835.334C367.114 835.334 366.02 835.111 365.004 834.666C363.989 834.213 363.204 833.596 362.649 832.814C362.102 832.033 361.829 831.146 361.829 830.154H364.09C364.09 831.186 364.469 832.002 365.227 832.604C365.993 833.197 367.012 833.494 368.286 833.494C369.473 833.494 370.383 833.252 371.016 832.768C371.649 832.283 371.965 831.623 371.965 830.787C371.965 829.951 371.672 829.307 371.086 828.854C370.5 828.393 369.438 827.939 367.899 827.494ZM402.141 835.1H399.879L391.29 821.951V835.1H389.028V818.037H391.29L399.903 831.244V818.037H402.141V835.1ZM419.262 827.119C419.262 828.791 418.981 830.252 418.418 831.502C417.856 832.744 417.059 833.693 416.028 834.35C414.997 835.006 413.793 835.334 412.418 835.334C411.075 835.334 409.883 835.006 408.844 834.35C407.805 833.686 406.997 832.744 406.418 831.525C405.848 830.299 405.555 828.881 405.54 827.271V826.041C405.54 824.4 405.825 822.951 406.395 821.693C406.965 820.436 407.77 819.475 408.809 818.811C409.856 818.139 411.051 817.803 412.395 817.803C413.762 817.803 414.965 818.135 416.004 818.799C417.051 819.455 417.856 820.412 418.418 821.67C418.981 822.92 419.262 824.377 419.262 826.041V827.119ZM417.024 826.018C417.024 823.994 416.618 822.443 415.805 821.365C414.993 820.279 413.856 819.736 412.395 819.736C410.973 819.736 409.852 820.279 409.032 821.365C408.219 822.443 407.801 823.943 407.778 825.865V827.119C407.778 829.08 408.188 830.623 409.008 831.748C409.836 832.865 410.973 833.424 412.418 833.424C413.872 833.424 414.997 832.896 415.793 831.842C416.59 830.779 417 829.26 417.024 827.283V826.018ZM422.637 835.1V818.037H427.454C428.938 818.037 430.25 818.365 431.391 819.021C432.532 819.678 433.411 820.611 434.028 821.822C434.653 823.033 434.969 824.424 434.977 825.994V827.084C434.977 828.693 434.665 830.104 434.04 831.314C433.422 832.525 432.536 833.455 431.379 834.104C430.231 834.752 428.891 835.084 427.36 835.1H422.637ZM424.887 819.889V833.26H427.254C428.989 833.26 430.336 832.721 431.297 831.643C432.266 830.564 432.75 829.029 432.75 827.037V826.041C432.75 824.104 432.293 822.6 431.379 821.529C430.473 820.451 429.184 819.904 427.512 819.889H424.887ZM448.032 827.213H440.637V833.26H449.227V835.1H438.387V818.037H449.11V819.889H440.637V825.373H448.032V827.213Z" fill="black"/>
<path d="M391.554 743.38C391.554 743.38 370.048 773.224 343.794 773.224C317.539 773.224 296.446 743.38 296.446 743.38C296.446 743.38 317.539 712.842 343.794 712.842C370.048 712.842 391.554 743.38 391.554 743.38Z" fill="#D3DAE0" stroke="#BCC6D0" stroke-miterlimit="10"/>
<path d="M344 766.388C357.132 766.388 367.777 755.677 367.777 742.463C367.777 729.25 357.132 718.538 344 718.538C330.868 718.538 320.223 729.25 320.223 742.463C320.223 755.677 330.868 766.388 344 766.388Z" fill="#22266C"/>
<path d="M344 752.717C338.378 752.717 333.81 748.376 333.81 743.033C333.81 737.69 338.378 733.349 344 733.349C349.622 733.349 354.19 737.69 354.19 743.033C354.19 748.376 349.622 752.717 344 752.717Z" fill="#D3DAE0"/>
<rect x="1433" y="524" width="100.165" height="48" fill="#22266C"/>
<path d="M1463.88 542.789H1458.4V558H1456.16V542.789H1450.69V540.938H1463.88V542.789ZM1474.9 553.547H1467.75L1466.14 558H1463.82L1470.34 540.938H1472.31L1478.83 558H1476.53L1474.9 553.547ZM1468.43 551.695H1474.23L1471.32 543.715L1468.43 551.695ZM1483.39 556.16H1491.48V558H1481.13V540.938H1483.39V556.16ZM1496.31 556.16H1504.39V558H1494.04V540.938H1496.31V556.16ZM1509.35 549.504L1513.8 540.938H1516.36L1510.47 551.637V558H1508.22V551.637L1502.34 540.938H1504.92L1509.35 549.504Z" fill="white"/>
<rect x="511.196" y="165.49" width="288.98" height="328.51" fill="#CBD5DD" stroke="#723ECB" stroke-width="2" stroke-dasharray="3 3"/>
<rect x="568.393" y="201.824" width="174.588" height="57.098" fill="#5A98FF"/>
<path d="M609.439 232.689C607.51 232.134 606.104 231.455 605.221 230.65C604.346 229.837 603.908 228.837 603.908 227.65C603.908 226.306 604.443 225.197 605.514 224.322C606.592 223.439 607.99 222.998 609.709 222.998C610.881 222.998 611.924 223.224 612.838 223.677C613.76 224.13 614.471 224.755 614.971 225.552C615.479 226.349 615.732 227.22 615.732 228.166H613.471C613.471 227.134 613.143 226.326 612.486 225.74C611.83 225.146 610.904 224.849 609.709 224.849C608.6 224.849 607.732 225.095 607.107 225.587C606.49 226.072 606.182 226.748 606.182 227.615C606.182 228.31 606.475 228.9 607.061 229.384C607.654 229.861 608.658 230.298 610.072 230.697C611.494 231.095 612.604 231.537 613.4 232.021C614.205 232.498 614.799 233.056 615.182 233.697C615.572 234.337 615.768 235.091 615.768 235.958C615.768 237.341 615.229 238.451 614.15 239.287C613.072 240.115 611.631 240.529 609.826 240.529C608.654 240.529 607.561 240.306 606.545 239.861C605.529 239.408 604.744 238.791 604.189 238.009C603.643 237.228 603.369 236.341 603.369 235.349H605.631C605.631 236.38 606.01 237.197 606.768 237.798C607.533 238.392 608.553 238.689 609.826 238.689C611.014 238.689 611.924 238.447 612.557 237.962C613.189 237.478 613.506 236.818 613.506 235.982C613.506 235.146 613.213 234.501 612.627 234.048C612.041 233.587 610.979 233.134 609.439 232.689ZM617.748 233.837C617.748 232.595 617.99 231.478 618.475 230.486C618.967 229.494 619.646 228.728 620.514 228.189C621.389 227.65 622.385 227.38 623.502 227.38C625.229 227.38 626.623 227.978 627.686 229.173C628.756 230.369 629.291 231.958 629.291 233.943V234.095C629.291 235.33 629.053 236.439 628.576 237.423C628.107 238.4 627.432 239.162 626.549 239.708C625.674 240.255 624.666 240.529 623.525 240.529C621.807 240.529 620.412 239.931 619.342 238.736C618.279 237.541 617.748 235.958 617.748 233.99V233.837ZM619.928 234.095C619.928 235.501 620.252 236.63 620.9 237.482C621.557 238.333 622.432 238.759 623.525 238.759C624.627 238.759 625.502 238.33 626.15 237.47C626.799 236.603 627.123 235.392 627.123 233.837C627.123 232.447 626.791 231.322 626.127 230.462C625.471 229.595 624.596 229.162 623.502 229.162C622.432 229.162 621.568 229.587 620.912 230.439C620.256 231.291 619.928 232.509 619.928 234.095ZM639.838 239.041C638.994 240.033 637.756 240.529 636.123 240.529C634.771 240.529 633.74 240.138 633.029 239.357C632.326 238.568 631.971 237.404 631.963 235.865V227.615H634.131V235.806C634.131 237.728 634.912 238.689 636.475 238.689C638.131 238.689 639.232 238.072 639.779 236.837V227.615H641.947V240.294H639.885L639.838 239.041ZM651.381 229.56C651.053 229.505 650.697 229.478 650.314 229.478C648.893 229.478 647.928 230.083 647.42 231.294V240.294H645.252V227.615H647.361L647.396 229.08C648.107 227.947 649.115 227.38 650.42 227.38C650.842 227.38 651.162 227.435 651.381 227.544V229.56ZM658.236 238.759C659.01 238.759 659.686 238.525 660.264 238.056C660.842 237.587 661.162 237.001 661.225 236.298H663.275C663.236 237.025 662.986 237.716 662.525 238.373C662.064 239.029 661.447 239.552 660.674 239.943C659.908 240.333 659.096 240.529 658.236 240.529C656.51 240.529 655.135 239.955 654.111 238.806C653.096 237.65 652.588 236.072 652.588 234.072V233.708C652.588 232.474 652.814 231.376 653.268 230.416C653.721 229.455 654.369 228.708 655.213 228.177C656.064 227.646 657.068 227.38 658.225 227.38C659.646 227.38 660.826 227.806 661.764 228.658C662.709 229.509 663.213 230.615 663.275 231.974H661.225C661.162 231.154 660.85 230.482 660.287 229.958C659.732 229.427 659.045 229.162 658.225 229.162C657.123 229.162 656.268 229.56 655.658 230.357C655.057 231.146 654.756 232.291 654.756 233.791V234.201C654.756 235.662 655.057 236.787 655.658 237.576C656.26 238.365 657.119 238.759 658.236 238.759ZM670.975 240.529C669.256 240.529 667.857 239.966 666.779 238.841C665.701 237.708 665.162 236.197 665.162 234.306V233.908C665.162 232.65 665.4 231.529 665.877 230.544C666.361 229.552 667.033 228.779 667.893 228.224C668.76 227.662 669.697 227.38 670.705 227.38C672.354 227.38 673.635 227.923 674.549 229.009C675.463 230.095 675.92 231.65 675.92 233.673V234.576H667.33C667.361 235.826 667.725 236.837 668.42 237.611C669.123 238.376 670.014 238.759 671.092 238.759C671.857 238.759 672.506 238.603 673.037 238.291C673.568 237.978 674.033 237.564 674.432 237.048L675.756 238.08C674.693 239.712 673.1 240.529 670.975 240.529ZM670.705 229.162C669.83 229.162 669.096 229.482 668.502 230.123C667.908 230.755 667.541 231.646 667.4 232.794H673.752V232.63C673.689 231.529 673.393 230.677 672.861 230.076C672.33 229.466 671.611 229.162 670.705 229.162ZM691.717 235.49H688.623L687.686 240.294H686.01L686.947 235.49H684.146V233.884H687.252L688.061 229.736H685.037V228.107H688.377L689.338 223.232H691.014L690.053 228.107H693.146L694.107 223.232H695.795L694.834 228.107H697.225V229.736H694.518L693.709 233.884H696.346V235.49H693.404L692.467 240.294H690.779L691.717 235.49ZM688.928 233.884H692.021L692.83 229.736H689.736L688.928 233.884ZM706.084 240.294H703.904V225.845L699.533 227.451V225.482L705.744 223.15H706.084V240.294Z" fill="white"/>
<rect x="570.588" y="298.451" width="174.588" height="57.098" fill="#5A98FF"/>
<path d="M609.439 329.316C607.509 328.762 606.103 328.082 605.22 327.277C604.345 326.465 603.908 325.465 603.908 324.277C603.908 322.934 604.443 321.824 605.513 320.949C606.591 320.066 607.99 319.625 609.708 319.625C610.88 319.625 611.923 319.852 612.837 320.305C613.759 320.758 614.47 321.383 614.97 322.18C615.478 322.977 615.732 323.848 615.732 324.793H613.47C613.47 323.762 613.142 322.953 612.486 322.367C611.83 321.773 610.904 321.477 609.708 321.477C608.599 321.477 607.732 321.723 607.107 322.215C606.49 322.699 606.181 323.375 606.181 324.242C606.181 324.938 606.474 325.527 607.06 326.012C607.654 326.488 608.658 326.926 610.072 327.324C611.494 327.723 612.603 328.164 613.4 328.648C614.205 329.125 614.798 329.684 615.181 330.324C615.572 330.965 615.767 331.719 615.767 332.586C615.767 333.969 615.228 335.078 614.15 335.914C613.072 336.742 611.63 337.156 609.826 337.156C608.654 337.156 607.56 336.934 606.544 336.488C605.529 336.035 604.744 335.418 604.189 334.637C603.642 333.855 603.369 332.969 603.369 331.977H605.63C605.63 333.008 606.009 333.824 606.767 334.426C607.533 335.02 608.552 335.316 609.826 335.316C611.013 335.316 611.923 335.074 612.556 334.59C613.189 334.105 613.505 333.445 613.505 332.609C613.505 331.773 613.212 331.129 612.626 330.676C612.041 330.215 610.978 329.762 609.439 329.316ZM617.748 330.465C617.748 329.223 617.99 328.105 618.474 327.113C618.966 326.121 619.646 325.355 620.513 324.816C621.388 324.277 622.384 324.008 623.501 324.008C625.228 324.008 626.623 324.605 627.685 325.801C628.755 326.996 629.291 328.586 629.291 330.57V330.723C629.291 331.957 629.052 333.066 628.576 334.051C628.107 335.027 627.431 335.789 626.548 336.336C625.673 336.883 624.666 337.156 623.525 337.156C621.806 337.156 620.412 336.559 619.341 335.363C618.279 334.168 617.748 332.586 617.748 330.617V330.465ZM619.927 330.723C619.927 332.129 620.251 333.258 620.9 334.109C621.556 334.961 622.431 335.387 623.525 335.387C624.626 335.387 625.501 334.957 626.15 334.098C626.798 333.23 627.123 332.02 627.123 330.465C627.123 329.074 626.791 327.949 626.126 327.09C625.47 326.223 624.595 325.789 623.501 325.789C622.431 325.789 621.568 326.215 620.912 327.066C620.255 327.918 619.927 329.137 619.927 330.723ZM639.837 335.668C638.994 336.66 637.755 337.156 636.123 337.156C634.771 337.156 633.74 336.766 633.029 335.984C632.326 335.195 631.97 334.031 631.962 332.492V324.242H634.13V332.434C634.13 334.355 634.912 335.316 636.474 335.316C638.13 335.316 639.232 334.699 639.779 333.465V324.242H641.947V336.922H639.884L639.837 335.668ZM651.38 326.188C651.052 326.133 650.697 326.105 650.314 326.105C648.892 326.105 647.927 326.711 647.419 327.922V336.922H645.251V324.242H647.361L647.396 325.707C648.107 324.574 649.115 324.008 650.419 324.008C650.841 324.008 651.162 324.062 651.38 324.172V326.188ZM658.236 335.387C659.009 335.387 659.685 335.152 660.263 334.684C660.841 334.215 661.162 333.629 661.224 332.926H663.275C663.236 333.652 662.986 334.344 662.525 335C662.064 335.656 661.447 336.18 660.673 336.57C659.908 336.961 659.095 337.156 658.236 337.156C656.509 337.156 655.134 336.582 654.111 335.434C653.095 334.277 652.587 332.699 652.587 330.699V330.336C652.587 329.102 652.814 328.004 653.267 327.043C653.72 326.082 654.369 325.336 655.212 324.805C656.064 324.273 657.068 324.008 658.224 324.008C659.646 324.008 660.826 324.434 661.763 325.285C662.708 326.137 663.212 327.242 663.275 328.602H661.224C661.162 327.781 660.849 327.109 660.287 326.586C659.732 326.055 659.044 325.789 658.224 325.789C657.123 325.789 656.267 326.188 655.658 326.984C655.056 327.773 654.755 328.918 654.755 330.418V330.828C654.755 332.289 655.056 333.414 655.658 334.203C656.259 334.992 657.119 335.387 658.236 335.387ZM670.974 337.156C669.255 337.156 667.857 336.594 666.779 335.469C665.701 334.336 665.162 332.824 665.162 330.934V330.535C665.162 329.277 665.4 328.156 665.876 327.172C666.361 326.18 667.033 325.406 667.892 324.852C668.759 324.289 669.697 324.008 670.705 324.008C672.353 324.008 673.634 324.551 674.548 325.637C675.462 326.723 675.919 328.277 675.919 330.301V331.203H667.33C667.361 332.453 667.724 333.465 668.419 334.238C669.123 335.004 670.013 335.387 671.091 335.387C671.857 335.387 672.505 335.23 673.037 334.918C673.568 334.605 674.033 334.191 674.431 333.676L675.755 334.707C674.693 336.34 673.099 337.156 670.974 337.156ZM670.705 325.789C669.83 325.789 669.095 326.109 668.501 326.75C667.908 327.383 667.541 328.273 667.4 329.422H673.751V329.258C673.689 328.156 673.392 327.305 672.861 326.703C672.33 326.094 671.611 325.789 670.705 325.789ZM691.716 332.117H688.623L687.685 336.922H686.009L686.947 332.117H684.146V330.512H687.251L688.06 326.363H685.037V324.734H688.376L689.337 319.859H691.013L690.052 324.734H693.146L694.107 319.859H695.794L694.833 324.734H697.224V326.363H694.517L693.708 330.512H696.345V332.117H693.404L692.466 336.922H690.779L691.716 332.117ZM688.927 330.512H692.021L692.83 326.363H689.736L688.927 330.512ZM710.138 336.922H698.958V335.363L704.865 328.801C705.74 327.809 706.341 327.004 706.669 326.387C707.005 325.762 707.173 325.117 707.173 324.453C707.173 323.562 706.904 322.832 706.365 322.262C705.826 321.691 705.107 321.406 704.208 321.406C703.13 321.406 702.291 321.715 701.689 322.332C701.095 322.941 700.798 323.793 700.798 324.887H698.63C698.63 323.316 699.134 322.047 700.142 321.078C701.158 320.109 702.513 319.625 704.208 319.625C705.794 319.625 707.048 320.043 707.97 320.879C708.892 321.707 709.353 322.812 709.353 324.195C709.353 325.875 708.283 327.875 706.142 330.195L701.572 335.152H710.138V336.922Z" fill="white"/>
<rect x="568.393" y="395.079" width="174.588" height="57.098" fill="#5A98FF"/>
<path d="M609.439 424.846C607.51 424.291 606.104 423.611 605.221 422.807C604.346 421.994 603.908 420.994 603.908 419.807C603.908 418.463 604.443 417.354 605.514 416.479C606.592 415.596 607.99 415.154 609.709 415.154C610.881 415.154 611.924 415.381 612.838 415.834C613.76 416.287 614.471 416.912 614.971 417.709C615.479 418.506 615.732 419.377 615.732 420.322H613.471C613.471 419.291 613.143 418.482 612.486 417.896C611.83 417.303 610.904 417.006 609.709 417.006C608.6 417.006 607.732 417.252 607.107 417.744C606.49 418.229 606.182 418.904 606.182 419.771C606.182 420.467 606.475 421.057 607.061 421.541C607.654 422.018 608.658 422.455 610.072 422.854C611.494 423.252 612.604 423.693 613.4 424.178C614.205 424.654 614.799 425.213 615.182 425.854C615.572 426.494 615.768 427.248 615.768 428.115C615.768 429.498 615.229 430.607 614.15 431.443C613.072 432.271 611.631 432.686 609.826 432.686C608.654 432.686 607.561 432.463 606.545 432.018C605.529 431.564 604.744 430.947 604.189 430.166C603.643 429.385 603.369 428.498 603.369 427.506H605.631C605.631 428.537 606.01 429.354 606.768 429.955C607.533 430.549 608.553 430.846 609.826 430.846C611.014 430.846 611.924 430.604 612.557 430.119C613.189 429.635 613.506 428.975 613.506 428.139C613.506 427.303 613.213 426.658 612.627 426.205C612.041 425.744 610.979 425.291 609.439 424.846ZM617.748 425.994C617.748 424.752 617.99 423.635 618.475 422.643C618.967 421.65 619.646 420.885 620.514 420.346C621.389 419.807 622.385 419.537 623.502 419.537C625.229 419.537 626.623 420.135 627.686 421.33C628.756 422.525 629.291 424.115 629.291 426.1V426.252C629.291 427.486 629.053 428.596 628.576 429.58C628.107 430.557 627.432 431.318 626.549 431.865C625.674 432.412 624.666 432.686 623.525 432.686C621.807 432.686 620.412 432.088 619.342 430.893C618.279 429.697 617.748 428.115 617.748 426.146V425.994ZM619.928 426.252C619.928 427.658 620.252 428.787 620.9 429.639C621.557 430.49 622.432 430.916 623.525 430.916C624.627 430.916 625.502 430.486 626.15 429.627C626.799 428.76 627.123 427.549 627.123 425.994C627.123 424.604 626.791 423.479 626.127 422.619C625.471 421.752 624.596 421.318 623.502 421.318C622.432 421.318 621.568 421.744 620.912 422.596C620.256 423.447 619.928 424.666 619.928 426.252ZM639.838 431.197C638.994 432.189 637.756 432.686 636.123 432.686C634.771 432.686 633.74 432.295 633.029 431.514C632.326 430.725 631.971 429.561 631.963 428.021V419.771H634.131V427.963C634.131 429.885 634.912 430.846 636.475 430.846C638.131 430.846 639.232 430.229 639.779 428.994V419.771H641.947V432.451H639.885L639.838 431.197ZM651.381 421.717C651.053 421.662 650.697 421.635 650.314 421.635C648.893 421.635 647.928 422.24 647.42 423.451V432.451H645.252V419.771H647.361L647.396 421.236C648.107 420.104 649.115 419.537 650.42 419.537C650.842 419.537 651.162 419.592 651.381 419.701V421.717ZM658.236 430.916C659.01 430.916 659.686 430.682 660.264 430.213C660.842 429.744 661.162 429.158 661.225 428.455H663.275C663.236 429.182 662.986 429.873 662.525 430.529C662.064 431.186 661.447 431.709 660.674 432.1C659.908 432.49 659.096 432.686 658.236 432.686C656.51 432.686 655.135 432.111 654.111 430.963C653.096 429.807 652.588 428.229 652.588 426.229V425.865C652.588 424.631 652.814 423.533 653.268 422.572C653.721 421.611 654.369 420.865 655.213 420.334C656.064 419.803 657.068 419.537 658.225 419.537C659.646 419.537 660.826 419.963 661.764 420.814C662.709 421.666 663.213 422.771 663.275 424.131H661.225C661.162 423.311 660.85 422.639 660.287 422.115C659.732 421.584 659.045 421.318 658.225 421.318C657.123 421.318 656.268 421.717 655.658 422.514C655.057 423.303 654.756 424.447 654.756 425.947V426.357C654.756 427.818 655.057 428.943 655.658 429.732C656.26 430.521 657.119 430.916 658.236 430.916ZM670.975 432.686C669.256 432.686 667.857 432.123 666.779 430.998C665.701 429.865 665.162 428.354 665.162 426.463V426.064C665.162 424.807 665.4 423.686 665.877 422.701C666.361 421.709 667.033 420.936 667.893 420.381C668.76 419.818 669.697 419.537 670.705 419.537C672.354 419.537 673.635 420.08 674.549 421.166C675.463 422.252 675.92 423.807 675.92 425.83V426.732H667.33C667.361 427.982 667.725 428.994 668.42 429.768C669.123 430.533 670.014 430.916 671.092 430.916C671.857 430.916 672.506 430.76 673.037 430.447C673.568 430.135 674.033 429.721 674.432 429.205L675.756 430.236C674.693 431.869 673.1 432.686 670.975 432.686ZM670.705 421.318C669.83 421.318 669.096 421.639 668.502 422.279C667.908 422.912 667.541 423.803 667.4 424.951H673.752V424.787C673.689 423.686 673.393 422.834 672.861 422.232C672.33 421.623 671.611 421.318 670.705 421.318ZM691.717 427.646H688.623L687.686 432.451H686.01L686.947 427.646H684.146V426.041H687.252L688.061 421.893H685.037V420.264H688.377L689.338 415.389H691.014L690.053 420.264H693.146L694.107 415.389H695.795L694.834 420.264H697.225V421.893H694.518L693.709 426.041H696.346V427.646H693.404L692.467 432.451H690.779L691.717 427.646ZM688.928 426.041H692.021L692.83 421.893H689.736L688.928 426.041ZM702.111 422.865H703.74C704.764 422.85 705.568 422.58 706.154 422.057C706.74 421.533 707.033 420.826 707.033 419.936C707.033 417.936 706.037 416.936 704.045 416.936C703.107 416.936 702.357 417.205 701.795 417.744C701.24 418.275 700.963 418.982 700.963 419.865H698.795C698.795 418.514 699.287 417.393 700.271 416.502C701.264 415.604 702.521 415.154 704.045 415.154C705.654 415.154 706.916 415.58 707.83 416.432C708.744 417.283 709.201 418.467 709.201 419.982C709.201 420.725 708.959 421.443 708.475 422.139C707.998 422.834 707.346 423.354 706.518 423.697C707.455 423.994 708.178 424.486 708.686 425.174C709.201 425.861 709.459 426.701 709.459 427.693C709.459 429.225 708.959 430.439 707.959 431.338C706.959 432.236 705.658 432.686 704.057 432.686C702.455 432.686 701.15 432.252 700.143 431.385C699.143 430.518 698.643 429.373 698.643 427.951H700.822C700.822 428.85 701.115 429.568 701.701 430.107C702.287 430.646 703.072 430.916 704.057 430.916C705.104 430.916 705.904 430.643 706.459 430.096C707.014 429.549 707.291 428.764 707.291 427.74C707.291 426.748 706.986 425.986 706.377 425.455C705.768 424.924 704.889 424.65 703.74 424.635H702.111V422.865Z" fill="white"/>
<path d="M592.971 120.547H585.823L584.217 125H581.897L588.413 107.938H590.381L596.909 125H594.6L592.971 120.547ZM586.502 118.695H592.303L589.397 110.715L586.502 118.695ZM611.663 122.762C611.084 123.59 610.276 124.211 609.237 124.625C608.206 125.031 607.002 125.234 605.627 125.234C604.237 125.234 603.002 124.91 601.924 124.262C600.846 123.605 600.01 122.676 599.417 121.473C598.831 120.27 598.53 118.875 598.514 117.289V115.801C598.514 113.23 599.112 111.238 600.307 109.824C601.51 108.41 603.198 107.703 605.37 107.703C607.151 107.703 608.584 108.16 609.67 109.074C610.756 109.98 611.42 111.27 611.663 112.941H609.413C608.991 110.684 607.647 109.555 605.381 109.555C603.874 109.555 602.729 110.086 601.948 111.148C601.174 112.203 600.784 113.734 600.776 115.742V117.137C600.776 119.051 601.213 120.574 602.088 121.707C602.963 122.832 604.147 123.395 605.639 123.395C606.483 123.395 607.221 123.301 607.854 123.113C608.487 122.926 609.01 122.609 609.424 122.164V118.332H605.475V116.504H611.663V122.762ZM621.682 118.098H617.674V125H615.413V107.938H621.061C622.983 107.938 624.459 108.375 625.491 109.25C626.53 110.125 627.049 111.398 627.049 113.07C627.049 114.133 626.76 115.059 626.182 115.848C625.612 116.637 624.815 117.227 623.792 117.617L627.799 124.859V125H625.385L621.682 118.098ZM617.674 116.258H621.131C622.249 116.258 623.135 115.969 623.792 115.391C624.456 114.812 624.788 114.039 624.788 113.07C624.788 112.016 624.471 111.207 623.838 110.645C623.213 110.082 622.307 109.797 621.12 109.789H617.674V116.258ZM639.858 117.113H632.463V123.16H641.053V125H630.213V107.938H640.936V109.789H632.463V115.273H639.858V117.113ZM656.452 122.762C655.874 123.59 655.065 124.211 654.026 124.625C652.995 125.031 651.792 125.234 650.417 125.234C649.026 125.234 647.792 124.91 646.713 124.262C645.635 123.605 644.799 122.676 644.206 121.473C643.62 120.27 643.319 118.875 643.303 117.289V115.801C643.303 113.23 643.901 111.238 645.096 109.824C646.299 108.41 647.987 107.703 650.159 107.703C651.94 107.703 653.374 108.16 654.459 109.074C655.545 109.98 656.209 111.27 656.452 112.941H654.202C653.78 110.684 652.436 109.555 650.17 109.555C648.663 109.555 647.518 110.086 646.737 111.148C645.963 112.203 645.573 113.734 645.565 115.742V117.137C645.565 119.051 646.002 120.574 646.877 121.707C647.752 122.832 648.936 123.395 650.428 123.395C651.272 123.395 652.01 123.301 652.643 123.113C653.276 122.926 653.799 122.609 654.213 122.164V118.332H650.264V116.504H656.452V122.762ZM669.635 120.547H662.487L660.881 125H658.561L665.077 107.938H667.045L673.573 125H671.264L669.635 120.547ZM663.167 118.695H668.967L666.061 110.715L663.167 118.695ZM686.135 109.789H680.651V125H678.413V109.789H672.94V107.938H686.135V109.789ZM691.081 125H688.831V107.938H691.081V125ZM708.331 117.02C708.331 118.691 708.049 120.152 707.487 121.402C706.924 122.645 706.127 123.594 705.096 124.25C704.065 124.906 702.862 125.234 701.487 125.234C700.143 125.234 698.952 124.906 697.913 124.25C696.874 123.586 696.065 122.645 695.487 121.426C694.917 120.199 694.624 118.781 694.608 117.172V115.941C694.608 114.301 694.893 112.852 695.463 111.594C696.034 110.336 696.838 109.375 697.877 108.711C698.924 108.039 700.12 107.703 701.463 107.703C702.831 107.703 704.034 108.035 705.073 108.699C706.12 109.355 706.924 110.312 707.487 111.57C708.049 112.82 708.331 114.277 708.331 115.941V117.02ZM706.092 115.918C706.092 113.895 705.686 112.344 704.874 111.266C704.061 110.18 702.924 109.637 701.463 109.637C700.042 109.637 698.92 110.18 698.1 111.266C697.288 112.344 696.87 113.844 696.846 115.766V117.02C696.846 118.98 697.256 120.523 698.077 121.648C698.905 122.766 700.042 123.324 701.487 123.324C702.94 123.324 704.065 122.797 704.862 121.742C705.659 120.68 706.069 119.16 706.092 117.184V115.918ZM724.819 125H722.557L713.967 111.852V125H711.706V107.938H713.967L722.581 121.145V107.938H724.819V125Z" fill="black"/>
<rect x="509" y="599.216" width="288.98" height="328.51" fill="#CBD5DD" stroke="#723ECB" stroke-width="2" stroke-dasharray="3 3"/>
<rect x="566.197" y="635.549" width="174.588" height="57.098" fill="#5A98FF"/>
<path d="M605.047 665.316C603.118 664.761 601.711 664.082 600.829 663.277C599.954 662.464 599.516 661.464 599.516 660.277C599.516 658.933 600.051 657.824 601.122 656.949C602.2 656.066 603.598 655.625 605.317 655.625C606.489 655.625 607.532 655.851 608.446 656.304C609.368 656.757 610.079 657.382 610.579 658.179C611.086 658.976 611.34 659.847 611.34 660.792H609.079C609.079 659.761 608.75 658.953 608.094 658.367C607.438 657.773 606.512 657.476 605.317 657.476C604.208 657.476 603.34 657.722 602.715 658.214C602.098 658.699 601.79 659.375 601.79 660.242C601.79 660.937 602.083 661.527 602.668 662.011C603.262 662.488 604.266 662.925 605.68 663.324C607.102 663.722 608.211 664.164 609.008 664.648C609.813 665.125 610.407 665.683 610.79 666.324C611.18 666.964 611.375 667.718 611.375 668.585C611.375 669.968 610.836 671.078 609.758 671.914C608.68 672.742 607.239 673.156 605.434 673.156C604.262 673.156 603.168 672.933 602.153 672.488C601.137 672.035 600.352 671.417 599.797 670.636C599.25 669.855 598.977 668.968 598.977 667.976H601.239C601.239 669.007 601.618 669.824 602.375 670.425C603.141 671.019 604.161 671.316 605.434 671.316C606.622 671.316 607.532 671.074 608.165 670.589C608.797 670.105 609.114 669.445 609.114 668.609C609.114 667.773 608.821 667.128 608.235 666.675C607.649 666.214 606.586 665.761 605.047 665.316ZM613.356 666.464C613.356 665.222 613.598 664.105 614.083 663.113C614.575 662.121 615.254 661.355 616.122 660.816C616.997 660.277 617.993 660.007 619.11 660.007C620.836 660.007 622.231 660.605 623.293 661.8C624.364 662.996 624.899 664.585 624.899 666.57V666.722C624.899 667.957 624.661 669.066 624.184 670.05C623.715 671.027 623.04 671.789 622.157 672.335C621.282 672.882 620.274 673.156 619.133 673.156C617.415 673.156 616.02 672.558 614.95 671.363C613.887 670.167 613.356 668.585 613.356 666.617V666.464ZM615.536 666.722C615.536 668.128 615.86 669.257 616.508 670.109C617.165 670.96 618.04 671.386 619.133 671.386C620.235 671.386 621.11 670.957 621.758 670.097C622.407 669.23 622.731 668.019 622.731 666.464C622.731 665.074 622.399 663.949 621.735 663.089C621.079 662.222 620.204 661.789 619.11 661.789C618.04 661.789 617.176 662.214 616.52 663.066C615.864 663.917 615.536 665.136 615.536 666.722ZM635.446 671.667C634.602 672.66 633.364 673.156 631.731 673.156C630.379 673.156 629.348 672.765 628.637 671.984C627.934 671.195 627.579 670.031 627.571 668.492V660.242H629.739V668.433C629.739 670.355 630.52 671.316 632.083 671.316C633.739 671.316 634.84 670.699 635.387 669.464V660.242H637.555V672.921H635.493L635.446 671.667ZM646.989 662.187C646.661 662.132 646.305 662.105 645.922 662.105C644.5 662.105 643.536 662.71 643.028 663.921V672.921H640.86V660.242H642.969L643.004 661.707C643.715 660.574 644.723 660.007 646.028 660.007C646.45 660.007 646.77 660.062 646.989 660.171V662.187ZM653.844 671.386C654.618 671.386 655.293 671.152 655.872 670.683C656.45 670.214 656.77 669.628 656.833 668.925H658.883C658.844 669.652 658.594 670.343 658.133 671C657.672 671.656 657.055 672.179 656.282 672.57C655.516 672.96 654.704 673.156 653.844 673.156C652.118 673.156 650.743 672.582 649.719 671.433C648.704 670.277 648.196 668.699 648.196 666.699V666.335C648.196 665.101 648.422 664.003 648.875 663.042C649.329 662.082 649.977 661.335 650.821 660.804C651.672 660.273 652.676 660.007 653.833 660.007C655.254 660.007 656.434 660.433 657.372 661.285C658.317 662.136 658.821 663.242 658.883 664.601H656.833C656.77 663.781 656.458 663.109 655.895 662.585C655.34 662.054 654.653 661.789 653.833 661.789C652.731 661.789 651.875 662.187 651.266 662.984C650.665 663.773 650.364 664.917 650.364 666.417V666.828C650.364 668.289 650.665 669.414 651.266 670.203C651.868 670.992 652.727 671.386 653.844 671.386ZM666.583 673.156C664.864 673.156 663.465 672.593 662.387 671.468C661.309 670.335 660.77 668.824 660.77 666.933V666.535C660.77 665.277 661.008 664.156 661.485 663.171C661.969 662.179 662.641 661.406 663.5 660.851C664.368 660.289 665.305 660.007 666.313 660.007C667.961 660.007 669.243 660.55 670.157 661.636C671.071 662.722 671.528 664.277 671.528 666.3V667.203H662.938C662.969 668.453 663.333 669.464 664.028 670.238C664.731 671.003 665.622 671.386 666.7 671.386C667.465 671.386 668.114 671.23 668.645 670.917C669.176 670.605 669.641 670.191 670.04 669.675L671.364 670.707C670.301 672.339 668.708 673.156 666.583 673.156ZM666.313 661.789C665.438 661.789 664.704 662.109 664.11 662.75C663.516 663.382 663.149 664.273 663.008 665.421H669.36V665.257C669.297 664.156 669 663.304 668.469 662.703C667.938 662.093 667.219 661.789 666.313 661.789ZM687.325 668.117H684.231L683.293 672.921H681.618L682.555 668.117H679.754V666.511H682.86L683.668 662.363H680.645V660.734H683.985L684.946 655.859H686.622L685.661 660.734H688.754L689.715 655.859H691.403L690.442 660.734H692.833V662.363H690.125L689.317 666.511H691.954V668.117H689.012L688.075 672.921H686.387L687.325 668.117ZM684.536 666.511H687.629L688.438 662.363H685.344L684.536 666.511ZM701.692 672.921H699.512V658.472L695.141 660.078V658.109L701.352 655.777H701.692V672.921Z" fill="white"/>
<rect x="568.393" y="732.176" width="174.588" height="57.098" fill="#5A98FF"/>
<path d="M605.047 763.042C603.118 762.487 601.711 761.807 600.829 761.002C599.954 760.19 599.516 759.19 599.516 758.002C599.516 756.659 600.051 755.549 601.122 754.674C602.2 753.792 603.598 753.35 605.317 753.35C606.489 753.35 607.532 753.577 608.446 754.03C609.368 754.483 610.079 755.108 610.579 755.905C611.086 756.702 611.34 757.573 611.34 758.518H609.079C609.079 757.487 608.75 756.678 608.094 756.092C607.438 755.499 606.512 755.202 605.317 755.202C604.208 755.202 603.34 755.448 602.715 755.94C602.098 756.424 601.79 757.1 601.79 757.967C601.79 758.663 602.083 759.252 602.668 759.737C603.262 760.213 604.266 760.651 605.68 761.049C607.102 761.448 608.211 761.889 609.008 762.374C609.813 762.85 610.407 763.409 610.79 764.049C611.18 764.69 611.375 765.444 611.375 766.311C611.375 767.694 610.836 768.803 609.758 769.639C608.68 770.467 607.239 770.881 605.434 770.881C604.262 770.881 603.168 770.659 602.153 770.213C601.137 769.76 600.352 769.143 599.797 768.362C599.25 767.581 598.977 766.694 598.977 765.702H601.239C601.239 766.733 601.618 767.549 602.375 768.151C603.141 768.745 604.161 769.042 605.434 769.042C606.622 769.042 607.532 768.799 608.165 768.315C608.797 767.831 609.114 767.17 609.114 766.334C609.114 765.499 608.821 764.854 608.235 764.401C607.649 763.94 606.586 763.487 605.047 763.042ZM613.356 764.19C613.356 762.948 613.598 761.831 614.083 760.838C614.575 759.846 615.254 759.081 616.122 758.542C616.997 758.002 617.993 757.733 619.11 757.733C620.836 757.733 622.231 758.331 623.293 759.526C624.364 760.721 624.899 762.311 624.899 764.295V764.448C624.899 765.682 624.661 766.792 624.184 767.776C623.715 768.752 623.04 769.514 622.157 770.061C621.282 770.608 620.274 770.881 619.133 770.881C617.415 770.881 616.02 770.284 614.95 769.088C613.887 767.893 613.356 766.311 613.356 764.342V764.19ZM615.536 764.448C615.536 765.854 615.86 766.983 616.508 767.834C617.165 768.686 618.04 769.112 619.133 769.112C620.235 769.112 621.11 768.682 621.758 767.823C622.407 766.956 622.731 765.745 622.731 764.19C622.731 762.799 622.399 761.674 621.735 760.815C621.079 759.948 620.204 759.514 619.11 759.514C618.04 759.514 617.176 759.94 616.52 760.792C615.864 761.643 615.536 762.862 615.536 764.448ZM635.446 769.393C634.602 770.385 633.364 770.881 631.731 770.881C630.379 770.881 629.348 770.491 628.637 769.709C627.934 768.92 627.579 767.756 627.571 766.217V757.967H629.739V766.159C629.739 768.081 630.52 769.042 632.083 769.042C633.739 769.042 634.84 768.424 635.387 767.19V757.967H637.555V770.647H635.493L635.446 769.393ZM646.989 759.913C646.661 759.858 646.305 759.831 645.922 759.831C644.5 759.831 643.536 760.436 643.028 761.647V770.647H640.86V757.967H642.969L643.004 759.432C643.715 758.299 644.723 757.733 646.028 757.733C646.45 757.733 646.77 757.788 646.989 757.897V759.913ZM653.844 769.112C654.618 769.112 655.293 768.877 655.872 768.409C656.45 767.94 656.77 767.354 656.833 766.651H658.883C658.844 767.377 658.594 768.069 658.133 768.725C657.672 769.381 657.055 769.905 656.282 770.295C655.516 770.686 654.704 770.881 653.844 770.881C652.118 770.881 650.743 770.307 649.719 769.159C648.704 768.002 648.196 766.424 648.196 764.424V764.061C648.196 762.827 648.422 761.729 648.875 760.768C649.329 759.807 649.977 759.061 650.821 758.53C651.672 757.999 652.676 757.733 653.833 757.733C655.254 757.733 656.434 758.159 657.372 759.01C658.317 759.862 658.821 760.967 658.883 762.327H656.833C656.77 761.506 656.458 760.834 655.895 760.311C655.34 759.78 654.653 759.514 653.833 759.514C652.731 759.514 651.875 759.913 651.266 760.709C650.665 761.499 650.364 762.643 650.364 764.143V764.553C650.364 766.014 650.665 767.139 651.266 767.928C651.868 768.717 652.727 769.112 653.844 769.112ZM666.583 770.881C664.864 770.881 663.465 770.319 662.387 769.194C661.309 768.061 660.77 766.549 660.77 764.659V764.26C660.77 763.002 661.008 761.881 661.485 760.897C661.969 759.905 662.641 759.131 663.5 758.577C664.368 758.014 665.305 757.733 666.313 757.733C667.961 757.733 669.243 758.276 670.157 759.362C671.071 760.448 671.528 762.002 671.528 764.026V764.928H662.938C662.969 766.178 663.333 767.19 664.028 767.963C664.731 768.729 665.622 769.112 666.7 769.112C667.465 769.112 668.114 768.956 668.645 768.643C669.176 768.331 669.641 767.917 670.04 767.401L671.364 768.432C670.301 770.065 668.708 770.881 666.583 770.881ZM666.313 759.514C665.438 759.514 664.704 759.834 664.11 760.475C663.516 761.108 663.149 761.999 663.008 763.147H669.36V762.983C669.297 761.881 669 761.03 668.469 760.428C667.938 759.819 667.219 759.514 666.313 759.514ZM687.325 765.842H684.231L683.293 770.647H681.618L682.555 765.842H679.754V764.237H682.86L683.668 760.088H680.645V758.459H683.985L684.946 753.584H686.622L685.661 758.459H688.754L689.715 753.584H691.403L690.442 758.459H692.833V760.088H690.125L689.317 764.237H691.954V765.842H689.012L688.075 770.647H686.387L687.325 765.842ZM684.536 764.237H687.629L688.438 760.088H685.344L684.536 764.237ZM705.747 770.647H694.567V769.088L700.473 762.526C701.348 761.534 701.95 760.729 702.278 760.112C702.614 759.487 702.782 758.842 702.782 758.178C702.782 757.288 702.512 756.557 701.973 755.987C701.434 755.417 700.715 755.131 699.817 755.131C698.739 755.131 697.899 755.44 697.297 756.057C696.704 756.667 696.407 757.518 696.407 758.612H694.239C694.239 757.042 694.743 755.772 695.75 754.803C696.766 753.834 698.122 753.35 699.817 753.35C701.403 753.35 702.657 753.768 703.579 754.604C704.5 755.432 704.961 756.538 704.961 757.92C704.961 759.6 703.891 761.6 701.75 763.92L697.18 768.877H705.747V770.647Z" fill="white"/>
<rect x="566.197" y="828.804" width="174.588" height="57.098" fill="#5A98FF"/>
<path d="M609.439 856.375C607.51 855.82 606.104 855.14 605.221 854.335C604.346 853.523 603.908 852.523 603.908 851.335C603.908 849.992 604.443 848.882 605.514 848.007C606.592 847.125 607.99 846.683 609.709 846.683C610.881 846.683 611.924 846.91 612.838 847.363C613.76 847.816 614.471 848.441 614.971 849.238C615.479 850.035 615.732 850.906 615.732 851.851H613.471C613.471 850.82 613.143 850.011 612.486 849.425C611.83 848.832 610.904 848.535 609.709 848.535C608.6 848.535 607.732 848.781 607.107 849.273C606.49 849.757 606.182 850.433 606.182 851.3C606.182 851.996 606.475 852.585 607.061 853.07C607.654 853.546 608.658 853.984 610.072 854.382C611.494 854.781 612.604 855.222 613.4 855.707C614.205 856.183 614.799 856.742 615.182 857.382C615.572 858.023 615.768 858.777 615.768 859.644C615.768 861.027 615.229 862.136 614.15 862.972C613.072 863.8 611.631 864.214 609.826 864.214C608.654 864.214 607.561 863.992 606.545 863.546C605.529 863.093 604.744 862.476 604.189 861.695C603.643 860.914 603.369 860.027 603.369 859.035H605.631C605.631 860.066 606.01 860.882 606.768 861.484C607.533 862.078 608.553 862.375 609.826 862.375C611.014 862.375 611.924 862.132 612.557 861.648C613.189 861.164 613.506 860.503 613.506 859.667C613.506 858.832 613.213 858.187 612.627 857.734C612.041 857.273 610.979 856.82 609.439 856.375ZM617.748 857.523C617.748 856.281 617.99 855.164 618.475 854.171C618.967 853.179 619.646 852.414 620.514 851.875C621.389 851.335 622.385 851.066 623.502 851.066C625.229 851.066 626.623 851.664 627.686 852.859C628.756 854.054 629.291 855.644 629.291 857.628V857.781C629.291 859.015 629.053 860.125 628.576 861.109C628.107 862.085 627.432 862.847 626.549 863.394C625.674 863.941 624.666 864.214 623.525 864.214C621.807 864.214 620.412 863.617 619.342 862.421C618.279 861.226 617.748 859.644 617.748 857.675V857.523ZM619.928 857.781C619.928 859.187 620.252 860.316 620.9 861.167C621.557 862.019 622.432 862.445 623.525 862.445C624.627 862.445 625.502 862.015 626.15 861.156C626.799 860.289 627.123 859.078 627.123 857.523C627.123 856.132 626.791 855.007 626.127 854.148C625.471 853.281 624.596 852.847 623.502 852.847C622.432 852.847 621.568 853.273 620.912 854.125C620.256 854.976 619.928 856.195 619.928 857.781ZM639.838 862.726C638.994 863.718 637.756 864.214 636.123 864.214C634.771 864.214 633.74 863.824 633.029 863.042C632.326 862.253 631.971 861.089 631.963 859.55V851.3H634.131V859.492C634.131 861.414 634.912 862.375 636.475 862.375C638.131 862.375 639.232 861.757 639.779 860.523V851.3H641.947V863.98H639.885L639.838 862.726ZM651.381 853.246C651.053 853.191 650.697 853.164 650.314 853.164C648.893 853.164 647.928 853.769 647.42 854.98V863.98H645.252V851.3H647.361L647.396 852.765C648.107 851.632 649.115 851.066 650.42 851.066C650.842 851.066 651.162 851.121 651.381 851.23V853.246ZM658.236 862.445C659.01 862.445 659.686 862.21 660.264 861.742C660.842 861.273 661.162 860.687 661.225 859.984H663.275C663.236 860.71 662.986 861.402 662.525 862.058C662.064 862.714 661.447 863.238 660.674 863.628C659.908 864.019 659.096 864.214 658.236 864.214C656.51 864.214 655.135 863.64 654.111 862.492C653.096 861.335 652.588 859.757 652.588 857.757V857.394C652.588 856.16 652.814 855.062 653.268 854.101C653.721 853.14 654.369 852.394 655.213 851.863C656.064 851.332 657.068 851.066 658.225 851.066C659.646 851.066 660.826 851.492 661.764 852.343C662.709 853.195 663.213 854.3 663.275 855.66H661.225C661.162 854.839 660.85 854.167 660.287 853.644C659.732 853.113 659.045 852.847 658.225 852.847C657.123 852.847 656.268 853.246 655.658 854.042C655.057 854.832 654.756 855.976 654.756 857.476V857.886C654.756 859.347 655.057 860.472 655.658 861.261C656.26 862.05 657.119 862.445 658.236 862.445ZM670.975 864.214C669.256 864.214 667.857 863.652 666.779 862.527C665.701 861.394 665.162 859.882 665.162 857.992V857.593C665.162 856.335 665.4 855.214 665.877 854.23C666.361 853.238 667.033 852.464 667.893 851.91C668.76 851.347 669.697 851.066 670.705 851.066C672.354 851.066 673.635 851.609 674.549 852.695C675.463 853.781 675.92 855.335 675.92 857.359V858.261H667.33C667.361 859.511 667.725 860.523 668.42 861.296C669.123 862.062 670.014 862.445 671.092 862.445C671.857 862.445 672.506 862.289 673.037 861.976C673.568 861.664 674.033 861.25 674.432 860.734L675.756 861.765C674.693 863.398 673.1 864.214 670.975 864.214ZM670.705 852.847C669.83 852.847 669.096 853.167 668.502 853.808C667.908 854.441 667.541 855.332 667.4 856.48H673.752V856.316C673.689 855.214 673.393 854.363 672.861 853.761C672.33 853.152 671.611 852.847 670.705 852.847ZM691.717 859.175H688.623L687.686 863.98H686.01L686.947 859.175H684.146V857.57H687.252L688.061 853.421H685.037V851.792H688.377L689.338 846.917H691.014L690.053 851.792H693.146L694.107 846.917H695.795L694.834 851.792H697.225V853.421H694.518L693.709 857.57H696.346V859.175H693.404L692.467 863.98H690.779L691.717 859.175ZM688.928 857.57H692.021L692.83 853.421H689.736L688.928 857.57ZM702.111 854.394H703.74C704.764 854.378 705.568 854.109 706.154 853.585C706.74 853.062 707.033 852.355 707.033 851.464C707.033 849.464 706.037 848.464 704.045 848.464C703.107 848.464 702.357 848.734 701.795 849.273C701.24 849.804 700.963 850.511 700.963 851.394H698.795C698.795 850.042 699.287 848.921 700.271 848.031C701.264 847.132 702.521 846.683 704.045 846.683C705.654 846.683 706.916 847.109 707.83 847.96C708.744 848.812 709.201 849.996 709.201 851.511C709.201 852.253 708.959 852.972 708.475 853.667C707.998 854.363 707.346 854.882 706.518 855.226C707.455 855.523 708.178 856.015 708.686 856.703C709.201 857.39 709.459 858.23 709.459 859.222C709.459 860.753 708.959 861.968 707.959 862.867C706.959 863.765 705.658 864.214 704.057 864.214C702.455 864.214 701.15 863.781 700.143 862.914C699.143 862.046 698.643 860.902 698.643 859.48H700.822C700.822 860.378 701.115 861.097 701.701 861.636C702.287 862.175 703.072 862.445 704.057 862.445C705.104 862.445 705.904 862.171 706.459 861.625C707.014 861.078 707.291 860.292 707.291 859.269C707.291 858.277 706.986 857.515 706.377 856.984C705.768 856.453 704.889 856.179 703.74 856.164H702.111V854.394Z" fill="white"/>
<path d="M599.56 985.802H592.411L590.806 990.255H588.485L595.001 973.192H596.97L603.497 990.255H601.188L599.56 985.802ZM593.091 983.95H598.892L595.985 975.97L593.091 983.95ZM618.251 988.017C617.673 988.845 616.864 989.466 615.825 989.88C614.794 990.286 613.591 990.489 612.216 990.489C610.825 990.489 609.591 990.165 608.513 989.517C607.435 988.86 606.599 987.931 606.005 986.728C605.419 985.524 605.118 984.13 605.103 982.544V981.056C605.103 978.485 605.7 976.493 606.896 975.079C608.099 973.665 609.786 972.958 611.958 972.958C613.739 972.958 615.173 973.415 616.259 974.329C617.345 975.235 618.009 976.524 618.251 978.196H616.001C615.579 975.938 614.235 974.81 611.97 974.81C610.462 974.81 609.317 975.341 608.536 976.403C607.763 977.458 607.372 978.989 607.364 980.997V982.392C607.364 984.306 607.802 985.829 608.677 986.962C609.552 988.087 610.735 988.649 612.228 988.649C613.071 988.649 613.81 988.556 614.442 988.368C615.075 988.181 615.599 987.864 616.013 987.419V983.587H612.063V981.759H618.251V988.017ZM628.271 983.353H624.263V990.255H622.001V973.192H627.649C629.571 973.192 631.048 973.63 632.079 974.505C633.118 975.38 633.638 976.653 633.638 978.325C633.638 979.388 633.349 980.313 632.771 981.103C632.2 981.892 631.403 982.481 630.38 982.872L634.388 990.114V990.255H631.974L628.271 983.353ZM624.263 981.513H627.72C628.837 981.513 629.724 981.224 630.38 980.646C631.044 980.067 631.376 979.294 631.376 978.325C631.376 977.271 631.06 976.462 630.427 975.899C629.802 975.337 628.896 975.052 627.708 975.044H624.263V981.513ZM646.446 982.368H639.052V988.415H647.642V990.255H636.802V973.192H647.524V975.044H639.052V980.528H646.446V982.368ZM663.04 988.017C662.462 988.845 661.653 989.466 660.614 989.88C659.583 990.286 658.38 990.489 657.005 990.489C655.614 990.489 654.38 990.165 653.302 989.517C652.224 988.86 651.388 987.931 650.794 986.728C650.208 985.524 649.907 984.13 649.892 982.544V981.056C649.892 978.485 650.489 976.493 651.685 975.079C652.888 973.665 654.575 972.958 656.747 972.958C658.528 972.958 659.962 973.415 661.048 974.329C662.134 975.235 662.798 976.524 663.04 978.196H660.79C660.368 975.938 659.024 974.81 656.759 974.81C655.251 974.81 654.106 975.341 653.325 976.403C652.552 977.458 652.161 978.989 652.153 980.997V982.392C652.153 984.306 652.591 985.829 653.466 986.962C654.341 988.087 655.524 988.649 657.017 988.649C657.86 988.649 658.599 988.556 659.231 988.368C659.864 988.181 660.388 987.864 660.802 987.419V983.587H656.853V981.759H663.04V988.017ZM676.224 985.802H669.075L667.47 990.255H665.149L671.665 973.192H673.634L680.161 990.255H677.853L676.224 985.802ZM669.755 983.95H675.556L672.649 975.97L669.755 983.95ZM692.724 975.044H687.239V990.255H685.001V975.044H679.528V973.192H692.724V975.044ZM697.669 990.255H695.419V973.192H697.669V990.255ZM714.919 982.274C714.919 983.946 714.638 985.407 714.075 986.657C713.513 987.899 712.716 988.849 711.685 989.505C710.653 990.161 709.45 990.489 708.075 990.489C706.731 990.489 705.54 990.161 704.501 989.505C703.462 988.841 702.653 987.899 702.075 986.681C701.505 985.454 701.212 984.036 701.196 982.427V981.196C701.196 979.556 701.481 978.106 702.052 976.849C702.622 975.591 703.427 974.63 704.466 973.966C705.513 973.294 706.708 972.958 708.052 972.958C709.419 972.958 710.622 973.29 711.661 973.954C712.708 974.61 713.513 975.567 714.075 976.825C714.638 978.075 714.919 979.532 714.919 981.196V982.274ZM712.681 981.173C712.681 979.149 712.274 977.599 711.462 976.521C710.649 975.435 709.513 974.892 708.052 974.892C706.63 974.892 705.509 975.435 704.688 976.521C703.876 977.599 703.458 979.099 703.435 981.021V982.274C703.435 984.235 703.845 985.778 704.665 986.903C705.493 988.021 706.63 988.579 708.075 988.579C709.528 988.579 710.653 988.052 711.45 986.997C712.247 985.935 712.657 984.415 712.681 982.438V981.173ZM731.407 990.255H729.146L720.556 977.106V990.255H718.294V973.192H720.556L729.169 986.399V973.192H731.407V990.255Z" fill="black"/>
<path d="M1198.34 433.716C1198.34 442.313 1190.96 449.283 1181.86 449.283C1172.75 449.283 1165.37 442.313 1165.37 433.716C1165.37 425.118 1172.75 418.148 1181.86 418.148C1190.96 418.148 1198.34 425.118 1198.34 433.716V433.716Z" fill="#0A0F5F"/>
<path d="M1107.5 207.938L1113.08 221.859L1118.66 207.938H1121.58V225H1119.33V218.355L1119.54 211.184L1113.94 225H1112.21L1106.62 211.219L1106.85 218.355V225H1104.6V207.938H1107.5ZM1127.96 225H1125.71V207.938H1127.96V225ZM1145.2 225H1142.94L1134.35 211.852V225H1132.09V207.938H1134.35L1142.96 221.145V207.938H1145.2V225ZM1158.84 217.113H1151.45V223.16H1160.04V225H1149.2V207.938H1159.92V209.789H1151.45V215.273H1158.84V217.113ZM1169.1 218.098H1165.09V225H1162.83V207.938H1168.48C1170.4 207.938 1171.88 208.375 1172.91 209.25C1173.95 210.125 1174.46 211.398 1174.46 213.07C1174.46 214.133 1174.18 215.059 1173.6 215.848C1173.03 216.637 1172.23 217.227 1171.21 217.617L1175.21 224.859V225H1172.8L1169.1 218.098ZM1165.09 216.258H1168.55C1169.66 216.258 1170.55 215.969 1171.21 215.391C1171.87 214.812 1172.2 214.039 1172.2 213.07C1172.2 212.016 1171.89 211.207 1171.25 210.645C1170.63 210.082 1169.72 209.797 1168.54 209.789H1165.09V216.258ZM1196.7 225H1194.43L1185.84 211.852V225H1183.58V207.938H1185.84L1194.46 221.145V207.938H1196.7V225ZM1213.82 217.02C1213.82 218.691 1213.54 220.152 1212.97 221.402C1212.41 222.645 1211.61 223.594 1210.58 224.25C1209.55 224.906 1208.35 225.234 1206.97 225.234C1205.63 225.234 1204.44 224.906 1203.4 224.25C1202.36 223.586 1201.55 222.645 1200.97 221.426C1200.4 220.199 1200.11 218.781 1200.09 217.172V215.941C1200.09 214.301 1200.38 212.852 1200.95 211.594C1201.52 210.336 1202.32 209.375 1203.36 208.711C1204.41 208.039 1205.61 207.703 1206.95 207.703C1208.32 207.703 1209.52 208.035 1210.56 208.699C1211.61 209.355 1212.41 210.312 1212.97 211.57C1213.54 212.82 1213.82 214.277 1213.82 215.941V217.02ZM1211.58 215.918C1211.58 213.895 1211.17 212.344 1210.36 211.266C1209.55 210.18 1208.41 209.637 1206.95 209.637C1205.53 209.637 1204.41 210.18 1203.59 211.266C1202.77 212.344 1202.36 213.844 1202.33 215.766V217.02C1202.33 218.98 1202.74 220.523 1203.56 221.648C1204.39 222.766 1205.53 223.324 1206.97 223.324C1208.43 223.324 1209.55 222.797 1210.35 221.742C1211.14 220.68 1211.55 219.16 1211.58 217.184V215.918ZM1217.19 225V207.938H1222.01C1223.49 207.938 1224.8 208.266 1225.95 208.922C1227.09 209.578 1227.96 210.512 1228.58 211.723C1229.21 212.934 1229.52 214.324 1229.53 215.895V216.984C1229.53 218.594 1229.22 220.004 1228.59 221.215C1227.98 222.426 1227.09 223.355 1225.93 224.004C1224.79 224.652 1223.45 224.984 1221.91 225H1217.19ZM1219.44 209.789V223.16H1221.81C1223.54 223.16 1224.89 222.621 1225.85 221.543C1226.82 220.465 1227.3 218.93 1227.3 216.938V215.941C1227.3 214.004 1226.85 212.5 1225.93 211.43C1225.03 210.352 1223.74 209.805 1222.07 209.789H1219.44ZM1242.59 217.113H1235.19V223.16H1243.78V225H1232.94V207.938H1243.66V209.789H1235.19V215.273H1242.59V217.113Z" fill="black"/>
<path fill-rule="evenodd" clip-rule="evenodd" d="M1128.15 378.033L1138.69 388.726L1177.03 350.513L1215.26 389.014L1226.37 377.788L1187.82 339.331L1207.81 319.693L1227.55 340.05L1230.36 310.408L1223.66 303.583L1225.41 301.763L1214.61 290.985L1212.52 293.189L1199.7 280.319L1183.06 296.89L1195.93 309.84L1177.19 328.714L1159.44 311.423L1173.81 297.098L1157.49 280.878L1143.27 295.062L1141.75 293.382L1130.75 304.394L1132.26 305.963L1118.3 319.806L1134.75 336.198L1148.84 322.067L1166.16 339.75L1128.15 378.033Z" fill="#0A0F5F"/>
<rect x="1070" y="515.517" width="224.354" height="61.8722" fill="#C4C4C4" stroke="#713ECB" stroke-width="2" stroke-dasharray="3 3"/>
<path d="M1157.85 538.115H1152.36V553.326H1150.12V538.115H1144.65V536.263H1157.85V538.115ZM1168.86 548.873H1161.71L1160.11 553.326H1157.79L1164.3 536.263H1166.27L1172.8 553.326H1170.49L1168.86 548.873ZM1162.39 547.021H1168.2L1165.29 539.041L1162.39 547.021ZM1177.36 551.486H1185.45V553.326H1175.1V536.263H1177.36V551.486ZM1190.27 551.486H1198.36V553.326H1188.01V536.263H1190.27V551.486ZM1203.32 544.83L1207.77 536.263H1210.32L1204.44 546.962V553.326H1202.19V546.962L1196.31 536.263H1198.89L1203.32 544.83Z" fill="black"/>
<path d="M1390.6 548.134L1341.02 581.129V515.139L1390.6 548.134Z" fill="#CC262E"/>
<path d="M1030.69 393.907L980.199 427.504V360.311L1030.69 393.907Z" fill="#CC262E"/>
<rect x="833" y="682" width="116" height="50" fill="#22266C"/>
<path d="M858.648 710.229H854.64V717.132H852.378V700.069H858.027C859.949 700.069 861.425 700.507 862.457 701.382C863.496 702.257 864.015 703.53 864.015 705.202C864.015 706.265 863.726 707.19 863.148 707.979C862.578 708.769 861.781 709.358 860.757 709.749L864.765 716.991V717.132H862.351L858.648 710.229ZM854.64 708.39H858.097C859.214 708.39 860.101 708.101 860.757 707.522C861.421 706.944 861.753 706.171 861.753 705.202C861.753 704.147 861.437 703.339 860.804 702.776C860.179 702.214 859.273 701.929 858.085 701.921H854.64V708.39ZM876.824 709.245H869.429V715.292H878.019V717.132H867.179V700.069H877.902V701.921H869.429V707.405H876.824V709.245ZM886.468 714.144L891.343 700.069H893.804L887.476 717.132H885.484L879.167 700.069H881.617L886.468 714.144ZM905.746 709.245H898.351V715.292H906.941V717.132H896.101V700.069H906.824V701.921H898.351V707.405H905.746V709.245ZM919.164 712.679H912.015L910.41 717.132H908.089L914.605 700.069H916.574L923.101 717.132H920.792L919.164 712.679ZM912.695 710.827H918.496L915.589 702.847L912.695 710.827ZM927.66 715.292H935.746V717.132H925.398V700.069H927.66V715.292Z" fill="white"/>
<rect x="833" y="816" width="126" height="48" fill="#22266C"/>
<path d="M863.531 842.586C863.32 844.391 862.652 845.785 861.527 846.77C860.41 847.746 858.922 848.234 857.062 848.234C855.047 848.234 853.43 847.512 852.211 846.066C851 844.621 850.395 842.688 850.395 840.266V838.625C850.395 837.039 850.676 835.645 851.238 834.441C851.809 833.238 852.613 832.316 853.652 831.676C854.691 831.027 855.895 830.703 857.262 830.703C859.074 830.703 860.527 831.211 861.621 832.227C862.715 833.234 863.352 834.633 863.531 836.422H861.27C861.074 835.062 860.648 834.078 859.992 833.469C859.344 832.859 858.434 832.555 857.262 832.555C855.824 832.555 854.695 833.086 853.875 834.148C853.062 835.211 852.656 836.723 852.656 838.684V840.336C852.656 842.188 853.043 843.66 853.816 844.754C854.59 845.848 855.672 846.395 857.062 846.395C858.312 846.395 859.27 846.113 859.934 845.551C860.605 844.98 861.051 843.992 861.27 842.586H863.531ZM879.738 840.02C879.738 841.691 879.457 843.152 878.895 844.402C878.332 845.645 877.535 846.594 876.504 847.25C875.473 847.906 874.27 848.234 872.895 848.234C871.551 848.234 870.359 847.906 869.32 847.25C868.281 846.586 867.473 845.645 866.895 844.426C866.324 843.199 866.031 841.781 866.016 840.172V838.941C866.016 837.301 866.301 835.852 866.871 834.594C867.441 833.336 868.246 832.375 869.285 831.711C870.332 831.039 871.527 830.703 872.871 830.703C874.238 830.703 875.441 831.035 876.48 831.699C877.527 832.355 878.332 833.312 878.895 834.57C879.457 835.82 879.738 837.277 879.738 838.941V840.02ZM877.5 838.918C877.5 836.895 877.094 835.344 876.281 834.266C875.469 833.18 874.332 832.637 872.871 832.637C871.449 832.637 870.328 833.18 869.508 834.266C868.695 835.344 868.277 836.844 868.254 838.766V840.02C868.254 841.98 868.664 843.523 869.484 844.648C870.312 845.766 871.449 846.324 872.895 846.324C874.348 846.324 875.473 845.797 876.27 844.742C877.066 843.68 877.477 842.16 877.5 840.184V838.918ZM886.02 830.938L891.598 844.859L897.176 830.938H900.094V848H897.844V841.355L898.055 834.184L892.453 848H890.73L885.141 834.219L885.363 841.355V848H883.113V830.938H886.02ZM906.973 830.938L912.551 844.859L918.129 830.938H921.047V848H918.797V841.355L919.008 834.184L913.406 848H911.684L906.094 834.219L906.316 841.355V848H904.066V830.938H906.973ZM927.434 848H925.184V830.938H927.434V848ZM942.996 832.789H937.512V848H935.273V832.789H929.801V830.938H942.996V832.789Z" fill="white"/>
<path d="M1030.69 709.965L980.199 743.562V676.368L1030.69 709.965Z" fill="#CC262E"/>
</svg>
