<svg width="1210" height="765" viewBox="0 0 1210 765" fill="none" xmlns="http://www.w3.org/2000/svg">
<rect width="1210" height="765" fill="#E8EDF2"/>
<path d="M158.911 415.722L92.689 389.122L158.911 256.122L225.133 389.122L158.911 415.722Z" fill="#5A98FF" stroke="white"/>
<path d="M159.411 257.126L225.133 389.122L159.411 415.521V257.126Z" fill="#5A98FF" stroke="white"/>
<path d="M158.911 415.722L92.9794 389.238L158.911 336.272L224.843 389.238L158.911 415.722Z" stroke="white"/>
<path d="M224.843 389.238L159.411 415.521V389.384V336.673L224.843 389.238Z" fill="#5A98FF" stroke="white"/>
<path d="M223.752 404.193L158.911 469.306L94.0703 404.193L158.725 430.163L158.911 430.238L159.098 430.163L223.752 404.193Z" fill="#5A98FF" stroke="white"/>
<path d="M159.411 468.804V430.037L223.752 404.193L159.411 468.804Z" fill="#5A98FF" stroke="white"/>
<path d="M1007.34 321.002C1003.98 321.049 1000.32 321.942 996.609 324.101L978.194 335.512V335.506L903 382.111C907.868 385.356 916.113 387.044 924.59 382.111L1018.2 324.099L1017.28 323.53C1014.64 322.004 1011.19 320.947 1007.34 321.002ZM1029 330.793L1023.61 334.138L1002.67 347.113C1000.91 348.073 999.212 349.137 997.572 350.277L924.613 395.501L997.581 440.732C999.213 441.865 1000.9 442.921 1002.66 443.876L1029 460.206L1055.31 443.9C1057.08 442.934 1058.79 441.864 1060.44 440.716L1133.39 395.499L1060.41 350.261C1058.79 349.136 1057.11 348.088 1055.37 347.138L1029 330.793ZM1029 351.963C1053.16 351.963 1072.62 371.388 1072.62 395.501C1072.62 419.614 1053.16 439.036 1029 439.036C1004.84 439.036 985.383 419.614 985.383 395.501C985.383 371.388 1004.84 351.963 1029 351.963ZM977.33 376.198C975.065 382.21 973.819 388.713 973.819 395.501C973.819 402.287 975.064 408.789 977.327 414.799L946.192 395.499L977.33 376.198ZM1080.68 376.204L1111.81 395.502L1080.68 414.8C1082.94 408.79 1084.19 402.288 1084.19 395.502C1084.19 388.716 1082.94 382.215 1080.68 376.204ZM1144.14 405.794C1140.79 405.842 1137.12 406.733 1133.41 408.891L1039.81 466.901L1040.73 467.47C1043.37 468.996 1046.81 470.053 1050.67 469.998C1054.02 469.951 1057.69 469.059 1061.4 466.901L1079.81 455.49V455.491L1155 408.889L1154.02 408.28C1151.38 406.776 1147.96 405.74 1144.14 405.794Z" fill="#6600DE"/>
<path d="M609.427 544.892C609.427 552.565 602.839 558.784 594.713 558.784C586.587 558.784 580 552.565 580 544.892C580 537.22 586.587 531 594.713 531C602.839 531 609.427 537.22 609.427 544.892V544.892Z" fill="#22266C"/>
<path d="M535.485 509V496.203H539.669C541.058 496.203 542.101 496.49 542.798 497.064C543.501 497.639 543.853 498.488 543.853 499.613C543.853 500.211 543.683 500.741 543.343 501.204C543.003 501.661 542.54 502.016 541.954 502.268C542.646 502.461 543.19 502.83 543.589 503.375C543.993 503.914 544.195 504.559 544.195 505.309C544.195 506.457 543.823 507.359 543.079 508.016C542.335 508.672 541.283 509 539.924 509H535.485ZM537.173 503.015V507.62H539.959C540.744 507.62 541.362 507.418 541.813 507.014C542.271 506.604 542.499 506.041 542.499 505.326C542.499 503.785 541.661 503.015 539.985 503.015H537.173ZM537.173 501.661H539.722C540.46 501.661 541.049 501.477 541.488 501.107C541.934 500.738 542.156 500.237 542.156 499.604C542.156 498.901 541.951 498.392 541.541 498.075C541.131 497.753 540.507 497.592 539.669 497.592H537.173V501.661ZM551.394 503.823H548.388V509H546.691V496.203H550.928C552.369 496.203 553.477 496.531 554.25 497.188C555.029 497.844 555.419 498.799 555.419 500.053C555.419 500.85 555.202 501.544 554.769 502.136C554.341 502.728 553.743 503.17 552.976 503.463L555.981 508.895V509H554.171L551.394 503.823ZM548.388 502.443H550.98C551.818 502.443 552.483 502.227 552.976 501.793C553.474 501.359 553.723 500.779 553.723 500.053C553.723 499.262 553.485 498.655 553.011 498.233C552.542 497.812 551.862 497.598 550.972 497.592H548.388V502.443ZM559.603 509H557.915V496.203H559.603V509ZM562.696 509V496.203H566.309C567.422 496.203 568.406 496.449 569.262 496.941C570.117 497.434 570.776 498.134 571.239 499.042C571.708 499.95 571.945 500.993 571.951 502.171V502.988C571.951 504.195 571.717 505.253 571.248 506.161C570.785 507.069 570.12 507.767 569.253 508.253C568.392 508.739 567.387 508.988 566.238 509H562.696ZM564.384 497.592V507.62H566.159C567.46 507.62 568.471 507.216 569.191 506.407C569.918 505.599 570.281 504.447 570.281 502.953V502.206C570.281 500.753 569.938 499.625 569.253 498.822C568.573 498.014 567.606 497.604 566.353 497.592H564.384ZM583.957 507.321C583.523 507.942 582.917 508.408 582.138 508.719C581.364 509.023 580.462 509.176 579.431 509.176C578.388 509.176 577.462 508.933 576.653 508.446C575.845 507.954 575.218 507.257 574.772 506.354C574.333 505.452 574.107 504.406 574.096 503.217V502.101C574.096 500.173 574.544 498.679 575.44 497.618C576.343 496.558 577.608 496.027 579.237 496.027C580.573 496.027 581.648 496.37 582.463 497.056C583.277 497.735 583.775 498.702 583.957 499.956H582.27C581.953 498.263 580.945 497.416 579.246 497.416C578.115 497.416 577.257 497.814 576.671 498.611C576.091 499.402 575.798 500.551 575.792 502.057V503.103C575.792 504.538 576.12 505.681 576.776 506.53C577.433 507.374 578.32 507.796 579.439 507.796C580.072 507.796 580.626 507.726 581.101 507.585C581.575 507.444 581.968 507.207 582.278 506.873V503.999H579.316V502.628H583.957V507.321ZM594.012 503.085H588.466V507.62H594.908V509H586.778V496.203H594.82V497.592H588.466V501.705H594.012V503.085ZM611.309 509H609.612L603.17 499.139V509H601.474V496.203H603.17L609.63 506.108V496.203H611.309V509ZM624.149 503.015C624.149 504.269 623.938 505.364 623.517 506.302C623.095 507.233 622.497 507.945 621.724 508.438C620.95 508.93 620.048 509.176 619.017 509.176C618.009 509.176 617.115 508.93 616.336 508.438C615.557 507.939 614.95 507.233 614.517 506.319C614.089 505.399 613.869 504.336 613.857 503.129V502.206C613.857 500.976 614.071 499.889 614.499 498.945C614.927 498.002 615.53 497.281 616.31 496.783C617.095 496.279 617.991 496.027 618.999 496.027C620.024 496.027 620.927 496.276 621.706 496.774C622.491 497.267 623.095 497.984 623.517 498.928C623.938 499.865 624.149 500.958 624.149 502.206V503.015ZM622.471 502.188C622.471 500.671 622.166 499.508 621.557 498.699C620.947 497.885 620.095 497.478 618.999 497.478C617.933 497.478 617.092 497.885 616.477 498.699C615.867 499.508 615.554 500.633 615.536 502.074V503.015C615.536 504.485 615.844 505.643 616.459 506.486C617.08 507.324 617.933 507.743 619.017 507.743C620.106 507.743 620.95 507.348 621.548 506.557C622.146 505.76 622.453 504.62 622.471 503.138V502.188ZM626.681 509V496.203H630.293C631.406 496.203 632.391 496.449 633.246 496.941C634.102 497.434 634.761 498.134 635.224 499.042C635.692 499.95 635.93 500.993 635.936 502.171V502.988C635.936 504.195 635.701 505.253 635.232 506.161C634.77 507.069 634.104 507.767 633.237 508.253C632.376 508.739 631.371 508.988 630.223 509H626.681ZM628.368 497.592V507.62H630.144C631.444 507.62 632.455 507.216 633.176 506.407C633.902 505.599 634.266 504.447 634.266 502.953V502.206C634.266 500.753 633.923 499.625 633.237 498.822C632.558 498.014 631.591 497.604 630.337 497.592H628.368ZM645.727 503.085H640.181V507.62H646.623V509H638.493V496.203H646.535V497.592H640.181V501.705H645.727V503.085Z" fill="black"/>
<path d="M498 660.45L519.997 618.263H661.211L683.186 660.45" stroke="#22266C" stroke-width="7.5"/>
<path d="M498 538L519.997 580.189H661.211L683.186 538" stroke="#22266C" stroke-width="7.5"/>
<path d="M598.427 141.892C598.427 149.565 591.839 155.784 583.713 155.784C575.587 155.784 569 149.565 569 141.892C569 134.22 575.587 128 583.713 128C591.839 128 598.427 134.22 598.427 141.892V141.892Z" fill="#22266C"/>
<path d="M528.485 101V88.2031H532.669C534.058 88.2031 535.101 88.4902 535.798 89.0645C536.501 89.6387 536.853 90.4883 536.853 91.6133C536.853 92.2109 536.683 92.7412 536.343 93.2041C536.003 93.6611 535.54 94.0156 534.954 94.2676C535.646 94.4609 536.19 94.8301 536.589 95.375C536.993 95.9141 537.195 96.5586 537.195 97.3086C537.195 98.457 536.823 99.3594 536.079 100.016C535.335 100.672 534.283 101 532.924 101H528.485ZM530.173 95.0146V99.6201H532.959C533.744 99.6201 534.362 99.418 534.813 99.0137C535.271 98.6035 535.499 98.041 535.499 97.3262C535.499 95.7852 534.661 95.0146 532.985 95.0146H530.173ZM530.173 93.6611H532.722C533.46 93.6611 534.049 93.4766 534.488 93.1074C534.934 92.7383 535.156 92.2373 535.156 91.6045C535.156 90.9014 534.951 90.3916 534.541 90.0752C534.131 89.7529 533.507 89.5918 532.669 89.5918H530.173V93.6611ZM544.394 95.8232H541.388V101H539.691V88.2031H543.928C545.369 88.2031 546.477 88.5312 547.25 89.1875C548.029 89.8438 548.419 90.7988 548.419 92.0527C548.419 92.8496 548.202 93.5439 547.769 94.1357C547.341 94.7275 546.743 95.1699 545.976 95.4629L548.981 100.895V101H547.171L544.394 95.8232ZM541.388 94.4434H543.98C544.818 94.4434 545.483 94.2266 545.976 93.793C546.474 93.3594 546.723 92.7793 546.723 92.0527C546.723 91.2617 546.485 90.6553 546.011 90.2334C545.542 89.8115 544.862 89.5977 543.972 89.5918H541.388V94.4434ZM552.603 101H550.915V88.2031H552.603V101ZM555.696 101V88.2031H559.309C560.422 88.2031 561.406 88.4492 562.262 88.9414C563.117 89.4336 563.776 90.1338 564.239 91.042C564.708 91.9502 564.945 92.9932 564.951 94.1709V94.9883C564.951 96.1953 564.717 97.2529 564.248 98.1611C563.785 99.0693 563.12 99.7666 562.253 100.253C561.392 100.739 560.387 100.988 559.238 101H555.696ZM557.384 89.5918V99.6201H559.159C560.46 99.6201 561.471 99.2158 562.191 98.4072C562.918 97.5986 563.281 96.4473 563.281 94.9531V94.2061C563.281 92.7529 562.938 91.625 562.253 90.8223C561.573 90.0137 560.606 89.6035 559.353 89.5918H557.384ZM576.957 99.3213C576.523 99.9424 575.917 100.408 575.138 100.719C574.364 101.023 573.462 101.176 572.431 101.176C571.388 101.176 570.462 100.933 569.653 100.446C568.845 99.9541 568.218 99.2568 567.772 98.3545C567.333 97.4521 567.107 96.4062 567.096 95.2168V94.1006C567.096 92.1729 567.544 90.6787 568.44 89.6182C569.343 88.5576 570.608 88.0273 572.237 88.0273C573.573 88.0273 574.648 88.3701 575.463 89.0557C576.277 89.7354 576.775 90.7021 576.957 91.9561H575.27C574.953 90.2627 573.945 89.416 572.246 89.416C571.115 89.416 570.257 89.8145 569.671 90.6113C569.091 91.4023 568.798 92.5508 568.792 94.0566V95.1025C568.792 96.5381 569.12 97.6807 569.776 98.5303C570.433 99.374 571.32 99.7959 572.439 99.7959C573.072 99.7959 573.626 99.7256 574.101 99.585C574.575 99.4443 574.968 99.207 575.278 98.873V95.999H572.316V94.6279H576.957V99.3213ZM587.012 95.085H581.466V99.6201H587.908V101H579.778V88.2031H587.82V89.5918H581.466V93.7051H587.012V95.085ZM604.309 101H602.612L596.17 91.1387V101H594.474V88.2031H596.17L602.63 98.1084V88.2031H604.309V101ZM617.149 95.0146C617.149 96.2686 616.938 97.3643 616.517 98.3018C616.095 99.2334 615.497 99.9453 614.724 100.438C613.95 100.93 613.048 101.176 612.017 101.176C611.009 101.176 610.115 100.93 609.336 100.438C608.557 99.9395 607.95 99.2334 607.517 98.3193C607.089 97.3994 606.869 96.3359 606.857 95.1289V94.2061C606.857 92.9756 607.071 91.8887 607.499 90.9453C607.927 90.002 608.53 89.2812 609.31 88.7832C610.095 88.2793 610.991 88.0273 611.999 88.0273C613.024 88.0273 613.927 88.2764 614.706 88.7744C615.491 89.2666 616.095 89.9844 616.517 90.9277C616.938 91.8652 617.149 92.958 617.149 94.2061V95.0146ZM615.471 94.1885C615.471 92.6709 615.166 91.5078 614.557 90.6992C613.947 89.8848 613.095 89.4775 611.999 89.4775C610.933 89.4775 610.092 89.8848 609.477 90.6992C608.867 91.5078 608.554 92.6328 608.536 94.0742V95.0146C608.536 96.4854 608.844 97.6426 609.459 98.4863C610.08 99.3242 610.933 99.7432 612.017 99.7432C613.106 99.7432 613.95 99.3477 614.548 98.5566C615.146 97.7598 615.453 96.6201 615.471 95.1377V94.1885ZM619.681 101V88.2031H623.293C624.406 88.2031 625.391 88.4492 626.246 88.9414C627.102 89.4336 627.761 90.1338 628.224 91.042C628.692 91.9502 628.93 92.9932 628.936 94.1709V94.9883C628.936 96.1953 628.701 97.2529 628.232 98.1611C627.77 99.0693 627.104 99.7666 626.237 100.253C625.376 100.739 624.371 100.988 623.223 101H619.681ZM621.368 89.5918V99.6201H623.144C624.444 99.6201 625.455 99.2158 626.176 98.4072C626.902 97.5986 627.266 96.4473 627.266 94.9531V94.2061C627.266 92.7529 626.923 91.625 626.237 90.8223C625.558 90.0137 624.591 89.6035 623.337 89.5918H621.368ZM638.727 95.085H633.181V99.6201H639.623V101H631.493V88.2031H639.535V89.5918H633.181V93.7051H638.727V95.085Z" fill="black"/>
<path d="M487 257.45L508.997 215.263H650.211L672.186 257.45" stroke="#22266C" stroke-width="7.5"/>
<path d="M487 135L508.997 177.189H650.211L672.186 135" stroke="#22266C" stroke-width="7.5"/>
<path d="M717 581C802.178 576.335 844.593 559.073 903 481" stroke="#C4C4C4" stroke-width="3"/>
<path d="M717 187C802.178 191.619 844.593 208.708 903 286" stroke="#C4C4C4" stroke-width="3"/>
<path d="M433 187C347.822 191.619 305.407 208.708 247 286" stroke="#C4C4C4" stroke-width="3"/>
<path d="M441 580C355.822 575.381 313.407 558.292 255 481" stroke="#C4C4C4" stroke-width="3"/>
<path d="M276.665 121.823H273.659V127H271.963V114.203H276.199C277.641 114.203 278.748 114.531 279.521 115.188C280.301 115.844 280.69 116.799 280.69 118.053C280.69 118.85 280.474 119.544 280.04 120.136C279.612 120.728 279.015 121.17 278.247 121.463L281.253 126.895V127H279.442L276.665 121.823ZM273.659 120.443H276.252C277.09 120.443 277.755 120.227 278.247 119.793C278.745 119.359 278.994 118.779 278.994 118.053C278.994 117.262 278.757 116.655 278.282 116.233C277.813 115.812 277.134 115.598 276.243 115.592H273.659V120.443ZM290.297 121.085H284.751V125.62H291.193V127H283.063V114.203H291.105V115.592H284.751V119.705H290.297V121.085ZM303.067 121.015C303.067 122.251 302.871 123.317 302.479 124.214C302.086 125.104 301.535 125.802 300.826 126.306L303.111 128.099L301.96 129.162L299.262 127.018C298.84 127.123 298.395 127.176 297.926 127.176C296.918 127.176 296.024 126.93 295.245 126.438C294.466 125.939 293.859 125.233 293.426 124.319C292.998 123.399 292.778 122.336 292.767 121.129V120.206C292.767 118.976 292.98 117.889 293.408 116.945C293.836 116.002 294.439 115.281 295.219 114.783C296.004 114.279 296.9 114.027 297.908 114.027C298.939 114.027 299.845 114.276 300.624 114.774C301.409 115.272 302.013 115.99 302.435 116.928C302.856 117.859 303.067 118.949 303.067 120.197V121.015ZM301.38 120.188C301.38 118.683 301.078 117.522 300.475 116.708C299.877 115.888 299.021 115.478 297.908 115.478C296.848 115.478 296.01 115.885 295.395 116.699C294.785 117.508 294.472 118.633 294.454 120.074V121.015C294.454 122.479 294.759 123.634 295.368 124.478C295.983 125.321 296.836 125.743 297.926 125.743C299.016 125.743 299.859 125.348 300.457 124.557C301.055 123.76 301.362 122.62 301.38 121.138V120.188ZM314.678 114.203V122.904C314.672 124.111 314.291 125.099 313.535 125.866C312.785 126.634 311.766 127.064 310.477 127.158L310.028 127.176C308.628 127.176 307.512 126.798 306.68 126.042C305.848 125.286 305.426 124.246 305.414 122.922V114.203H307.084V122.869C307.084 123.795 307.339 124.516 307.849 125.031C308.358 125.541 309.085 125.796 310.028 125.796C310.983 125.796 311.713 125.541 312.217 125.031C312.727 124.521 312.981 123.804 312.981 122.878V114.203H314.678ZM324.574 121.085H319.028V125.62H325.471V127H317.341V114.203H325.383V115.592H319.028V119.705H324.574V121.085ZM331.342 121.296C329.895 120.88 328.84 120.37 328.178 119.767C327.521 119.157 327.193 118.407 327.193 117.517C327.193 116.509 327.595 115.677 328.397 115.021C329.206 114.358 330.255 114.027 331.544 114.027C332.423 114.027 333.205 114.197 333.891 114.537C334.582 114.877 335.115 115.346 335.49 115.943C335.871 116.541 336.062 117.194 336.062 117.903H334.365C334.365 117.13 334.119 116.523 333.627 116.084C333.135 115.639 332.44 115.416 331.544 115.416C330.712 115.416 330.062 115.601 329.593 115.97C329.13 116.333 328.898 116.84 328.898 117.49C328.898 118.012 329.118 118.454 329.558 118.817C330.003 119.175 330.756 119.503 331.816 119.802C332.883 120.101 333.715 120.432 334.312 120.795C334.916 121.152 335.361 121.571 335.648 122.052C335.941 122.532 336.088 123.098 336.088 123.748C336.088 124.785 335.684 125.617 334.875 126.244C334.066 126.865 332.985 127.176 331.632 127.176C330.753 127.176 329.933 127.009 329.171 126.675C328.409 126.335 327.82 125.872 327.404 125.286C326.994 124.7 326.789 124.035 326.789 123.291H328.485C328.485 124.064 328.77 124.677 329.338 125.128C329.912 125.573 330.677 125.796 331.632 125.796C332.522 125.796 333.205 125.614 333.68 125.251C334.154 124.888 334.392 124.393 334.392 123.766C334.392 123.139 334.172 122.655 333.732 122.315C333.293 121.97 332.496 121.63 331.342 121.296ZM347.101 115.592H342.987V127H341.309V115.592H337.204V114.203H347.101V115.592Z" fill="black"/>
<path d="M290.561 162.136H294.129V163.674H290.561V167.717H288.926V163.674H285.357V162.136H288.926V158.4H290.561V162.136ZM308.068 163.085H302.522V167.62H308.965V169H300.835V156.203H308.877V157.592H302.522V161.705H308.068V163.085ZM320.083 157.592H315.97V169H314.291V157.592H310.187V156.203H320.083V157.592ZM331.816 169H330.12V163.085H323.669V169H321.981V156.203H323.669V161.705H330.12V156.203H331.816V169Z" fill="#5A98FF"/>
<path d="M846.665 123.823H843.659V129H841.963V116.203H846.199C847.641 116.203 848.748 116.531 849.521 117.188C850.301 117.844 850.69 118.799 850.69 120.053C850.69 120.85 850.474 121.544 850.04 122.136C849.612 122.728 849.015 123.17 848.247 123.463L851.253 128.895V129H849.442L846.665 123.823ZM843.659 122.443H846.252C847.09 122.443 847.755 122.227 848.247 121.793C848.745 121.359 848.994 120.779 848.994 120.053C848.994 119.262 848.757 118.655 848.282 118.233C847.813 117.812 847.134 117.598 846.243 117.592H843.659V122.443ZM860.297 123.085H854.751V127.62H861.193V129H853.063V116.203H861.105V117.592H854.751V121.705H860.297V123.085ZM873.067 123.015C873.067 124.251 872.871 125.317 872.479 126.214C872.086 127.104 871.535 127.802 870.826 128.306L873.111 130.099L871.96 131.162L869.262 129.018C868.84 129.123 868.395 129.176 867.926 129.176C866.918 129.176 866.024 128.93 865.245 128.438C864.466 127.939 863.859 127.233 863.426 126.319C862.998 125.399 862.778 124.336 862.767 123.129V122.206C862.767 120.976 862.98 119.889 863.408 118.945C863.836 118.002 864.439 117.281 865.219 116.783C866.004 116.279 866.9 116.027 867.908 116.027C868.939 116.027 869.845 116.276 870.624 116.774C871.409 117.272 872.013 117.99 872.435 118.928C872.856 119.859 873.067 120.949 873.067 122.197V123.015ZM871.38 122.188C871.38 120.683 871.078 119.522 870.475 118.708C869.877 117.888 869.021 117.478 867.908 117.478C866.848 117.478 866.01 117.885 865.395 118.699C864.785 119.508 864.472 120.633 864.454 122.074V123.015C864.454 124.479 864.759 125.634 865.368 126.478C865.983 127.321 866.836 127.743 867.926 127.743C869.016 127.743 869.859 127.348 870.457 126.557C871.055 125.76 871.362 124.62 871.38 123.138V122.188ZM884.678 116.203V124.904C884.672 126.111 884.291 127.099 883.535 127.866C882.785 128.634 881.766 129.064 880.477 129.158L880.028 129.176C878.628 129.176 877.512 128.798 876.68 128.042C875.848 127.286 875.426 126.246 875.414 124.922V116.203H877.084V124.869C877.084 125.795 877.339 126.516 877.849 127.031C878.358 127.541 879.085 127.796 880.028 127.796C880.983 127.796 881.713 127.541 882.217 127.031C882.727 126.521 882.981 125.804 882.981 124.878V116.203H884.678ZM894.574 123.085H889.028V127.62H895.471V129H887.341V116.203H895.383V117.592H889.028V121.705H894.574V123.085ZM901.342 123.296C899.895 122.88 898.84 122.37 898.178 121.767C897.521 121.157 897.193 120.407 897.193 119.517C897.193 118.509 897.595 117.677 898.397 117.021C899.206 116.358 900.255 116.027 901.544 116.027C902.423 116.027 903.205 116.197 903.891 116.537C904.582 116.877 905.115 117.346 905.49 117.943C905.871 118.541 906.062 119.194 906.062 119.903H904.365C904.365 119.13 904.119 118.523 903.627 118.084C903.135 117.639 902.44 117.416 901.544 117.416C900.712 117.416 900.062 117.601 899.593 117.97C899.13 118.333 898.898 118.84 898.898 119.49C898.898 120.012 899.118 120.454 899.558 120.817C900.003 121.175 900.756 121.503 901.816 121.802C902.883 122.101 903.715 122.432 904.312 122.795C904.916 123.152 905.361 123.571 905.648 124.052C905.941 124.532 906.088 125.098 906.088 125.748C906.088 126.785 905.684 127.617 904.875 128.244C904.066 128.865 902.985 129.176 901.632 129.176C900.753 129.176 899.933 129.009 899.171 128.675C898.409 128.335 897.82 127.872 897.404 127.286C896.994 126.7 896.789 126.035 896.789 125.291H898.485C898.485 126.064 898.77 126.677 899.338 127.128C899.912 127.573 900.677 127.796 901.632 127.796C902.522 127.796 903.205 127.614 903.68 127.251C904.154 126.888 904.392 126.393 904.392 125.766C904.392 125.139 904.172 124.655 903.732 124.315C903.293 123.97 902.496 123.63 901.342 123.296ZM917.101 117.592H912.987V129H911.309V117.592H907.204V116.203H917.101V117.592Z" fill="black"/>
<path d="M861.87 164.136H865.438V165.674H861.87V169.717H860.235V165.674H856.667V164.136H860.235V160.4H861.87V164.136ZM874.904 166.966L875.15 168.653L875.511 167.133L878.042 158.203H879.466L881.936 167.133L882.287 168.68L882.56 166.957L884.546 158.203H886.242L883.14 171H881.602L878.965 161.675L878.763 160.699L878.561 161.675L875.827 171H874.289L871.195 158.203H872.883L874.904 166.966ZM889.934 171H888.246V158.203H889.934V171ZM901.605 159.592H897.492V171H895.813V159.592H891.709V158.203H901.605V159.592Z" fill="#6600DE"/>
<path d="M878.338 598.823H875.332V604H873.636V591.203H877.872C879.313 591.203 880.421 591.531 881.194 592.188C881.974 592.844 882.363 593.799 882.363 595.053C882.363 595.85 882.146 596.544 881.713 597.136C881.285 597.728 880.688 598.17 879.92 598.463L882.926 603.895V604H881.115L878.338 598.823ZM875.332 597.443H877.925C878.763 597.443 879.428 597.227 879.92 596.793C880.418 596.359 880.667 595.779 880.667 595.053C880.667 594.262 880.43 593.655 879.955 593.233C879.486 592.812 878.807 592.598 877.916 592.592H875.332V597.443ZM891.97 598.085H886.424V602.62H892.866V604H884.736V591.203H892.778V592.592H886.424V596.705H891.97V598.085ZM898.737 598.296C897.29 597.88 896.235 597.37 895.573 596.767C894.917 596.157 894.589 595.407 894.589 594.517C894.589 593.509 894.99 592.677 895.793 592.021C896.602 591.358 897.65 591.027 898.939 591.027C899.818 591.027 900.601 591.197 901.286 591.537C901.978 591.877 902.511 592.346 902.886 592.943C903.267 593.541 903.457 594.194 903.457 594.903H901.761C901.761 594.13 901.515 593.523 901.022 593.084C900.53 592.639 899.836 592.416 898.939 592.416C898.107 592.416 897.457 592.601 896.988 592.97C896.525 593.333 896.294 593.84 896.294 594.49C896.294 595.012 896.514 595.454 896.953 595.817C897.398 596.175 898.151 596.503 899.212 596.802C900.278 597.101 901.11 597.432 901.708 597.795C902.312 598.152 902.757 598.571 903.044 599.052C903.337 599.532 903.483 600.098 903.483 600.748C903.483 601.785 903.079 602.617 902.271 603.244C901.462 603.865 900.381 604.176 899.027 604.176C898.148 604.176 897.328 604.009 896.566 603.675C895.805 603.335 895.216 602.872 894.8 602.286C894.39 601.7 894.185 601.035 894.185 600.291H895.881C895.881 601.064 896.165 601.677 896.733 602.128C897.308 602.573 898.072 602.796 899.027 602.796C899.918 602.796 900.601 602.614 901.075 602.251C901.55 601.888 901.787 601.393 901.787 600.766C901.787 600.139 901.567 599.655 901.128 599.315C900.688 598.97 899.892 598.63 898.737 598.296ZM914.663 591.203V599.904C914.657 601.111 914.276 602.099 913.521 602.866C912.771 603.634 911.751 604.064 910.462 604.158L910.014 604.176C908.613 604.176 907.497 603.798 906.665 603.042C905.833 602.286 905.411 601.246 905.399 599.922V591.203H907.069V599.869C907.069 600.795 907.324 601.516 907.834 602.031C908.344 602.541 909.07 602.796 910.014 602.796C910.969 602.796 911.698 602.541 912.202 602.031C912.712 601.521 912.967 600.804 912.967 599.878V591.203H914.663ZM919.022 602.62H925.087V604H917.326V591.203H919.022V602.62ZM933.428 592.592H929.314V604H927.636V592.592H923.531V591.203H933.428V592.592Z" fill="black"/>
<path d="M253.338 598.823H250.332V604H248.636V591.203H252.872C254.313 591.203 255.421 591.531 256.194 592.188C256.974 592.844 257.363 593.799 257.363 595.053C257.363 595.85 257.146 596.544 256.713 597.136C256.285 597.728 255.688 598.17 254.92 598.463L257.926 603.895V604H256.115L253.338 598.823ZM250.332 597.443H252.925C253.763 597.443 254.428 597.227 254.92 596.793C255.418 596.359 255.667 595.779 255.667 595.053C255.667 594.262 255.43 593.655 254.955 593.233C254.486 592.812 253.807 592.598 252.916 592.592H250.332V597.443ZM266.97 598.085H261.424V602.62H267.866V604H259.736V591.203H267.778V592.592H261.424V596.705H266.97V598.085ZM273.737 598.296C272.29 597.88 271.235 597.37 270.573 596.767C269.917 596.157 269.589 595.407 269.589 594.517C269.589 593.509 269.99 592.677 270.793 592.021C271.602 591.358 272.65 591.027 273.939 591.027C274.818 591.027 275.601 591.197 276.286 591.537C276.978 591.877 277.511 592.346 277.886 592.943C278.267 593.541 278.457 594.194 278.457 594.903H276.761C276.761 594.13 276.515 593.523 276.022 593.084C275.53 592.639 274.836 592.416 273.939 592.416C273.107 592.416 272.457 592.601 271.988 592.97C271.525 593.333 271.294 593.84 271.294 594.49C271.294 595.012 271.514 595.454 271.953 595.817C272.398 596.175 273.151 596.503 274.212 596.802C275.278 597.101 276.11 597.432 276.708 597.795C277.312 598.152 277.757 598.571 278.044 599.052C278.337 599.532 278.483 600.098 278.483 600.748C278.483 601.785 278.079 602.617 277.271 603.244C276.462 603.865 275.381 604.176 274.027 604.176C273.148 604.176 272.328 604.009 271.566 603.675C270.805 603.335 270.216 602.872 269.8 602.286C269.39 601.7 269.185 601.035 269.185 600.291H270.881C270.881 601.064 271.165 601.677 271.733 602.128C272.308 602.573 273.072 602.796 274.027 602.796C274.918 602.796 275.601 602.614 276.075 602.251C276.55 601.888 276.787 601.393 276.787 600.766C276.787 600.139 276.567 599.655 276.128 599.315C275.688 598.97 274.892 598.63 273.737 598.296ZM289.663 591.203V599.904C289.657 601.111 289.276 602.099 288.521 602.866C287.771 603.634 286.751 604.064 285.462 604.158L285.014 604.176C283.613 604.176 282.497 603.798 281.665 603.042C280.833 602.286 280.411 601.246 280.399 599.922V591.203H282.069V599.869C282.069 600.795 282.324 601.516 282.834 602.031C283.344 602.541 284.07 602.796 285.014 602.796C285.969 602.796 286.698 602.541 287.202 602.031C287.712 601.521 287.967 600.804 287.967 599.878V591.203H289.663ZM294.022 602.62H300.087V604H292.326V591.203H294.022V602.62ZM308.428 592.592H304.314V604H302.636V592.592H298.531V591.203H308.428V592.592Z" fill="black"/>
</svg>
