<svg width="389" height="66" viewBox="0 0 389 66" fill="none" xmlns="http://www.w3.org/2000/svg">
<path d="M140.649 16.5093V20.2947H143.568V22.3608H140.649V32.0554C140.649 32.6815 140.779 33.1535 141.039 33.4713C141.299 33.7796 141.742 33.9337 142.369 33.9337C142.677 33.9337 143.101 33.8759 143.64 33.7603V35.9275C142.937 36.1202 142.253 36.2165 141.588 36.2165C140.394 36.2165 139.493 35.8553 138.887 35.1329C138.28 34.4105 137.976 33.3847 137.976 32.0554V22.3608H135.13V20.2947H137.976V16.5093H140.649ZM149.376 22.1874C150.561 20.733 152.102 20.0057 153.999 20.0057C157.303 20.0057 158.969 21.8696 158.998 25.5972V35.9275H156.325V25.5827C156.316 24.4558 156.056 23.6226 155.545 23.0832C155.044 22.5438 154.259 22.2741 153.19 22.2741C152.323 22.2741 151.562 22.5053 150.907 22.9676C150.252 23.4299 149.742 24.0368 149.376 24.7881V35.9275H146.703V13.7353H149.376V22.1874ZM169.488 36.2165C167.368 36.2165 165.644 35.523 164.315 34.136C162.986 32.7393 162.321 30.8755 162.321 28.5446V28.0533C162.321 26.5026 162.615 25.1204 163.203 23.9067C163.8 22.6835 164.628 21.7299 165.688 21.046C166.757 20.3525 167.913 20.0057 169.155 20.0057C171.188 20.0057 172.767 20.6752 173.894 22.014C175.021 23.3529 175.585 25.2697 175.585 27.7644V28.8769H164.994C165.033 30.418 165.481 31.6653 166.338 32.6189C167.205 33.5629 168.303 34.0348 169.632 34.0348C170.576 34.0348 171.375 33.8422 172.03 33.4569C172.685 33.0716 173.258 32.5611 173.75 31.9254L175.382 33.1968C174.072 35.2099 172.107 36.2165 169.488 36.2165ZM169.155 22.2019C168.076 22.2019 167.171 22.5968 166.439 23.3866C165.707 24.1668 165.254 25.2648 165.081 26.6808H172.912V26.4785C172.835 25.1204 172.469 24.0705 171.814 23.3288C171.159 22.5775 170.273 22.2019 169.155 22.2019ZM291.415 28.2845C291.415 30.6636 290.871 32.5804 289.782 34.0348C288.694 35.4893 287.22 36.2165 285.361 36.2165C283.464 36.2165 281.971 35.6145 280.882 34.4105V41.9379H278.209V20.2947H280.651L280.781 22.0285C281.869 20.68 283.382 20.0057 285.318 20.0057C287.196 20.0057 288.679 20.7137 289.768 22.1296C290.866 23.5455 291.415 25.5153 291.415 28.0389V28.2845ZM288.742 27.9811C288.742 26.2184 288.366 24.8266 287.615 23.8056C286.864 22.7846 285.833 22.2741 284.523 22.2741C282.905 22.2741 281.691 22.9917 280.882 24.4269V31.8965C281.682 33.3221 282.905 34.0348 284.552 34.0348C285.833 34.0348 286.849 33.5291 287.601 32.5178C288.361 31.4968 288.742 29.9845 288.742 27.9811ZM302.381 22.6931C301.976 22.6257 301.538 22.592 301.066 22.592C299.313 22.592 298.124 23.3384 297.497 24.8314V35.9275H294.825V20.2947H297.425L297.469 22.1007C298.345 20.7041 299.588 20.0057 301.196 20.0057C301.716 20.0057 302.111 20.0732 302.381 20.208V22.6931ZM303.855 27.9666C303.855 26.4351 304.153 25.0578 304.75 23.8345C305.357 22.6112 306.195 21.6673 307.264 21.0027C308.343 20.3381 309.571 20.0057 310.949 20.0057C313.077 20.0057 314.797 20.7426 316.107 22.2163C317.426 23.69 318.086 25.6501 318.086 28.0967V28.2845C318.086 29.8064 317.792 31.1741 317.205 32.3877C316.627 33.5918 315.794 34.5309 314.705 35.2051C313.626 35.8794 312.384 36.2165 310.977 36.2165C308.858 36.2165 307.139 35.4796 305.82 34.0059C304.51 32.5322 303.855 30.5817 303.855 28.1545V27.9666ZM306.542 28.2845C306.542 30.0183 306.942 31.4101 307.741 32.46C308.55 33.5099 309.629 34.0348 310.977 34.0348C312.336 34.0348 313.414 33.5051 314.214 32.4455C315.013 31.3764 315.413 29.8834 315.413 27.9666C315.413 26.2521 315.004 24.8651 314.185 23.8056C313.376 22.7364 312.297 22.2019 310.949 22.2019C309.629 22.2019 308.565 22.7268 307.756 23.7767C306.946 24.8266 306.542 26.3292 306.542 28.2845ZM325.064 16.5093V20.2947H327.983V22.3608H325.064V32.0554C325.064 32.6815 325.194 33.1535 325.454 33.4713C325.715 33.7796 326.158 33.9337 326.784 33.9337C327.092 33.9337 327.516 33.8759 328.055 33.7603V35.9275C327.352 36.1202 326.668 36.2165 326.003 36.2165C324.809 36.2165 323.908 35.8553 323.302 35.1329C322.695 34.4105 322.391 33.3847 322.391 32.0554V22.3608H319.545V20.2947H322.391V16.5093H325.064ZM330.121 27.9666C330.121 26.4351 330.42 25.0578 331.017 23.8345C331.624 22.6112 332.462 21.6673 333.531 21.0027C334.61 20.3381 335.838 20.0057 337.215 20.0057C339.344 20.0057 341.063 20.7426 342.373 22.2163C343.693 23.69 344.353 25.6501 344.353 28.0967V28.2845C344.353 29.8064 344.059 31.1741 343.471 32.3877C342.893 33.5918 342.06 34.5309 340.972 35.2051C339.893 35.8794 338.65 36.2165 337.244 36.2165C335.125 36.2165 333.406 35.4796 332.086 34.0059C330.776 32.5322 330.121 30.5817 330.121 28.1545V27.9666ZM332.809 28.2845C332.809 30.0183 333.208 31.4101 334.008 32.46C334.817 33.5099 335.896 34.0348 337.244 34.0348C338.602 34.0348 339.681 33.5051 340.48 32.4455C341.28 31.3764 341.68 29.8834 341.68 27.9666C341.68 26.2521 341.27 24.8651 340.452 23.8056C339.642 22.7364 338.564 22.2019 337.215 22.2019C335.896 22.2019 334.831 22.7268 334.022 23.7767C333.213 24.8266 332.809 26.3292 332.809 28.2845ZM353.975 34.0348C354.929 34.0348 355.762 33.7459 356.474 33.1679C357.187 32.59 357.582 31.8676 357.659 31.0007H360.188C360.139 31.8965 359.831 32.7489 359.263 33.558C358.695 34.3671 357.934 35.0125 356.98 35.4941C356.036 35.9757 355.034 36.2165 353.975 36.2165C351.846 36.2165 350.151 35.5085 348.889 34.0926C347.637 32.6671 347.011 30.7214 347.011 28.2556V27.8077C347.011 26.2858 347.29 24.9325 347.849 23.7478C348.408 22.5631 349.207 21.6432 350.247 20.9882C351.297 20.3332 352.535 20.0057 353.96 20.0057C355.714 20.0057 357.168 20.5307 358.324 21.5806C359.489 22.6305 360.111 23.9934 360.188 25.6694H357.659C357.582 24.658 357.197 23.8297 356.503 23.1843C355.819 22.5293 354.972 22.2019 353.96 22.2019C352.602 22.2019 351.548 22.6931 350.796 23.6756C350.055 24.6484 349.684 26.0595 349.684 27.9088V28.4145C349.684 30.2157 350.055 31.6027 350.796 32.5756C351.538 33.5484 352.598 34.0348 353.975 34.0348ZM362.485 27.9666C362.485 26.4351 362.783 25.0578 363.381 23.8345C363.987 22.6112 364.825 21.6673 365.895 21.0027C366.973 20.3381 368.201 20.0057 369.579 20.0057C371.708 20.0057 373.427 20.7426 374.737 22.2163C376.056 23.69 376.716 25.6501 376.716 28.0967V28.2845C376.716 29.8064 376.422 31.1741 375.835 32.3877C375.257 33.5918 374.424 34.5309 373.335 35.2051C372.257 35.8794 371.014 36.2165 369.608 36.2165C367.489 36.2165 365.769 35.4796 364.45 34.0059C363.14 32.5322 362.485 30.5817 362.485 28.1545V27.9666ZM365.172 28.2845C365.172 30.0183 365.572 31.4101 366.371 32.46C367.18 33.5099 368.259 34.0348 369.608 34.0348C370.966 34.0348 372.045 33.5051 372.844 32.4455C373.644 31.3764 374.043 29.8834 374.043 27.9666C374.043 26.2521 373.634 24.8651 372.815 23.8056C372.006 22.7364 370.927 22.2019 369.579 22.2019C368.259 22.2019 367.195 22.7268 366.386 23.7767C365.577 24.8266 365.172 26.3292 365.172 28.2845ZM382.972 35.9275H380.299V13.7353H382.972V35.9275Z" fill="#3D3D3D"/>
<path d="M190.986 29.2959L191.391 32.0699L191.983 29.5704L196.144 14.8911H198.485L202.545 29.5704L203.123 32.1132L203.571 29.2814L206.836 14.8911H209.624L204.524 35.9275H201.996L197.661 20.5981L197.329 18.9944L196.997 20.5981L192.503 35.9275H189.975L184.889 14.8911H187.663L190.986 29.2959ZM215.201 35.9275H212.528V20.2947H215.201V35.9275ZM212.312 16.1481C212.312 15.7147 212.442 15.3487 212.702 15.0501C212.971 14.7515 213.366 14.6022 213.886 14.6022C214.407 14.6022 214.802 14.7515 215.071 15.0501C215.341 15.3487 215.476 15.7147 215.476 16.1481C215.476 16.5816 215.341 16.9428 215.071 17.2317C214.802 17.5207 214.407 17.6652 213.886 17.6652C213.366 17.6652 212.971 17.5207 212.702 17.2317C212.442 16.9428 212.312 16.5816 212.312 16.1481ZM223.119 16.5093V20.2947H226.037V22.3608H223.119V32.0554C223.119 32.6815 223.249 33.1535 223.509 33.4713C223.769 33.7796 224.212 33.9337 224.838 33.9337C225.146 33.9337 225.57 33.8759 226.11 33.7603V35.9275C225.406 36.1202 224.723 36.2165 224.058 36.2165C222.864 36.2165 221.963 35.8553 221.356 35.1329C220.749 34.4105 220.446 33.3847 220.446 32.0554V22.3608H217.6V20.2947H220.446V16.5093H223.119ZM231.701 20.2947L231.788 22.2596C232.982 20.757 234.542 20.0057 236.469 20.0057C239.773 20.0057 241.439 21.8696 241.468 25.5972V35.9275H238.795V25.5827C238.785 24.4558 238.525 23.6226 238.015 23.0832C237.514 22.5438 236.729 22.2741 235.66 22.2741C234.793 22.2741 234.032 22.5053 233.377 22.9676C232.722 23.4299 232.211 24.0368 231.845 24.7881V35.9275H229.173V20.2947H231.701ZM251.986 36.2165C249.867 36.2165 248.143 35.523 246.814 34.136C245.484 32.7393 244.82 30.8755 244.82 28.5446V28.0533C244.82 26.5026 245.114 25.1204 245.701 23.9067C246.298 22.6835 247.127 21.7299 248.186 21.046C249.255 20.3525 250.411 20.0057 251.654 20.0057C253.686 20.0057 255.266 20.6752 256.393 22.014C257.52 23.3529 258.083 25.2697 258.083 27.7644V28.8769H247.493C247.531 30.418 247.979 31.6653 248.836 32.6189C249.703 33.5629 250.801 34.0348 252.13 34.0348C253.074 34.0348 253.874 33.8422 254.529 33.4569C255.184 33.0716 255.757 32.5611 256.248 31.9254L257.881 33.1968C256.571 35.2099 254.606 36.2165 251.986 36.2165ZM251.654 22.2019C250.575 22.2019 249.67 22.5968 248.937 23.3866C248.205 24.1668 247.753 25.2648 247.579 26.6808H255.41V26.4785C255.333 25.1204 254.967 24.0705 254.312 23.3288C253.657 22.5775 252.771 22.2019 251.654 22.2019ZM264.816 16.5093V20.2947H267.734V22.3608H264.816V32.0554C264.816 32.6815 264.946 33.1535 265.206 33.4713C265.466 33.7796 265.909 33.9337 266.535 33.9337C266.843 33.9337 267.267 33.8759 267.807 33.7603V35.9275C267.104 36.1202 266.42 36.2165 265.755 36.2165C264.561 36.2165 263.66 35.8553 263.053 35.1329C262.446 34.4105 262.143 33.3847 262.143 32.0554V22.3608H259.297V20.2947H262.143V16.5093H264.816Z" fill="#6600DE"/>
<path d="M49.4428 8.9224C37.5101 8.9224 27.7889 19.8136 27.7889 33.1809C27.7889 46.5482 37.5101 57.4382 49.4428 57.4382C61.3754 57.4382 71.0978 46.5482 71.0978 33.1809C71.0978 19.8136 61.3754 8.9224 49.4428 8.9224ZM49.4428 14.0056C58.923 14.0056 66.5601 22.5609 66.5601 33.1809C66.5601 43.801 58.923 52.355 49.4428 52.355C39.9625 52.355 32.3265 43.801 32.3265 33.1809C32.3265 22.5609 39.9625 14.0056 49.4428 14.0056ZM49.4433 4.68188L47.3261 6.15485L8.48059 33.1805L49.4423 61.6785L90.405 33.1799L49.4433 4.68188ZM49.4423 10.5731L81.9372 33.1805L49.4432 55.7873L16.9483 33.1799L49.4423 10.5731Z" fill="#6600DE"/>
<path d="M94.625 37.7134C93.3078 37.7344 91.8699 38.1267 90.4146 39.0773L53.6826 64.6267L54.043 64.8775C55.0802 65.5495 56.4325 66.0149 57.9443 65.9908C59.2614 65.9699 60.6994 65.5772 62.1547 64.6267L69.3809 59.6004V59.6015L98.8846 39.0772L98.499 38.8088C97.4653 38.1463 96.1234 37.6895 94.625 37.7134V37.7134Z" fill="#6600DE"/>
<path d="M40.9423 0.370027C39.6252 0.390963 38.1872 0.783619 36.732 1.73417L29.5058 6.76049V6.75772L0 27.2834C1.91024 28.7126 5.14571 29.4561 8.47204 27.2834L45.204 1.734L44.8437 1.48319C43.8064 0.81118 42.4541 0.345779 40.9423 0.36985V0.370027Z" fill="#6600DE"/>
</svg>
