<svg width="48" height="48" viewBox="0 0 48 48" fill="none" xmlns="http://www.w3.org/2000/svg">
<path d="M24.0979 46.1958C36.3023 46.1958 46.1958 36.3022 46.1958 24.0979C46.1958 11.8936 36.3023 2 24.0979 2C11.8936 2 2 11.8936 2 24.0979C2 36.3022 11.8936 46.1958 24.0979 46.1958Z" stroke="white" stroke-width="2.2" stroke-linecap="round"/>
<path d="M11.0671 14.79V14.9369L21.8704 24.8855C23.1065 26.0237 25.0646 26.0239 26.3007 24.8856L37.1287 14.9144V14.79H11.0671Z" fill="white"/>
<path d="M37.1287 16.8091L29.0793 24.2214L37.1287 32.2708V16.8091ZM11.0671 16.832V32.44L19.1926 24.3145L11.0671 16.832ZM28.0515 25.168L27.3292 25.833C25.541 27.4798 22.6297 27.4798 20.8415 25.833L20.2205 25.2613L12.0762 33.4055H36.2888L28.0515 25.168Z" fill="white"/>
</svg>
