<svg width="274" height="282" viewBox="0 0 274 282" fill="none" xmlns="http://www.w3.org/2000/svg">
<circle cx="129.5" cy="145.5" r="38.5" stroke="#6600DE" stroke-width="2"/>
<line x1="128" y1="106" x2="128" y2="60" stroke="#6600DE" stroke-width="2"/>
<line x1="100.183" y1="118.281" x2="78.1843" y2="94.9419" stroke="#6600DE" stroke-width="2"/>
<line x1="128" y1="226" x2="128" y2="185" stroke="#6600DE" stroke-width="2"/>
<line x1="154.255" y1="115.214" x2="228.007" y2="44.5792" stroke="#6600DE" stroke-width="2"/>
<line x1="35.8406" y1="248.436" x2="108.861" y2="178.292" stroke="#6600DE" stroke-width="2"/>
<circle cx="130" cy="47" r="13" stroke="#6600DE" stroke-width="2"/>
<circle cx="247.5" cy="26.5" r="25.5" stroke="#6600DE" stroke-width="2"/>
<circle cx="130.5" cy="246.5" r="19.5" stroke="#6600DE" stroke-width="2"/>
<circle cx="20.5" cy="261.5" r="19.5" stroke="#6600DE" stroke-width="2"/>
<path d="M84 80.5C84 91.293 75.4703 100 65 100C54.5297 100 46 91.293 46 80.5C46 69.707 54.5297 61 65 61C75.4703 61 84 69.707 84 80.5Z" stroke="#6600DE" stroke-width="2"/>
</svg>
