<svg width="274" height="282" viewBox="0 0 274 282" fill="none" xmlns="http://www.w3.org/2000/svg">
<circle cx="129.5" cy="145.5" r="39" stroke="#6600DE"/>
<line x1="128.5" y1="106" x2="128.5" y2="60" stroke="#6600DE"/>
<line x1="100.547" y1="117.938" x2="78.5481" y2="94.599" stroke="#6600DE"/>
<line x1="128.5" y1="226" x2="128.5" y2="185" stroke="#6600DE"/>
<line x1="154.601" y1="115.575" x2="228.353" y2="44.9403" stroke="#6600DE"/>
<line x1="36.1869" y1="248.797" x2="109.208" y2="178.653" stroke="#6600DE"/>
<circle cx="130" cy="47" r="13.5" stroke="#6600DE"/>
<circle cx="247.5" cy="26.5" r="26" stroke="#6600DE"/>
<circle cx="130.5" cy="246.5" r="20" stroke="#6600DE"/>
<circle cx="20.5" cy="261.5" r="20" stroke="#6600DE"/>
<path d="M84.5 80.5C84.5 91.5574 75.758 100.5 65 100.5C54.242 100.5 45.5 91.5574 45.5 80.5C45.5 69.4426 54.242 60.5 65 60.5C75.758 60.5 84.5 69.4426 84.5 80.5Z" stroke="#6600DE"/>
</svg>
