<?xml version="1.0" encoding="UTF-8"?>
<svg width="246px" height="205px" viewBox="0 0 246 205" version="1.1" xmlns="http://www.w3.org/2000/svg" xmlns:xlink="http://www.w3.org/1999/xlink">
    <!-- Generator: Sketch 48.2 (47327) - http://www.bohemiancoding.com/sketch -->
    <title>Realistic solution to the oracle problem</title>
    <desc>Created with Sketch.</desc>
    <defs></defs>
    <g id="WEB-DESIGN-WITNET/new-header-sec-v." stroke="none" stroke-width="1" fill="none" fill-rule="evenodd" transform="translate(-239.000000, -1044.000000)">
        <g id="//BODY" transform="translate(-575.000000, 851.000000)">
            <g id="section1" transform="translate(719.000000, 0.000000)">
                <g id="conteiner1" transform="translate(5.000000, 142.000000)">
                    <g id="ilustracja" transform="translate(54.000000, 46.000000)">
                        <g>
                            <path d="M37.8571369,102.334354 C35.2019612,123.399813 36.5722041,135.837867 41.9678656,139.648516 C50.0613578,145.364489 117.025108,119.947058 158.062091,122.305312 C199.099073,124.663567 246.663895,141.384928 260.034555,143.32271 C273.405215,145.260491 279.86185,139.783718 279.86185,132.641316 C279.86185,125.498915 283.825628,105.086435 279.86185,101.420778 C262.934762,85.7667987 208.308591,81.3890079 160.987364,78.8770797 C117.187202,76.5520584 76.1437929,84.3711497 37.8571369,102.334354 Z" id="Path-141" fill="#E8E8E8"></path>
                            <path d="M50.4667359,88.0661819 C37.207607,97.392548 34.3016503,104.018454 41.7488659,107.943899 C52.9196893,113.832066 117.025108,85.7079275 158.062091,88.0661819 C199.099073,90.4244364 246.663895,107.145797 260.034555,109.083579 C273.405215,111.021361 287.005092,108.054505 279.804837,97.5859286 C272.604583,87.117352 227.931703,68.9531261 162.23146,65.4655942 C118.431297,63.1405729 81.1763895,70.6741021 50.4667359,88.0661819 Z" id="Path-141" fill="#F5F5F5"></path>
                            <g id="Group-2" transform="translate(171.505376, 5.706522)">
                                <path d="M11.2475065,37.8503411 C11.0350233,32.6828431 11.738376,30.3546357 13.3575644,30.8657188 C14.9767528,31.376802 15.1976827,33.7050094 14.0203541,37.8503411 C15.2573447,52.3090128 14.0129416,59.5383486 10.2871449,59.5383486 C6.56134826,59.5383486 6.88146877,52.3090128 11.2475065,37.8503411 Z" id="Path-122" fill="#EFEFEF" transform="translate(11.238863, 45.167535) rotate(-35.000000) translate(-11.238863, -45.167535) "></path>
                                <g id="Group-16" transform="translate(32.014337, 97.581522) scale(-1, 1) translate(-32.014337, -97.581522) translate(6.860215, 63.913043)">
                                    <path d="M30.8533576,21.382452 C34.1934245,22.7200834 38.0653625,21.8342846 37.8288608,24.2955419 C37.6744904,25.9020638 37.6712619,35.8135274 37.8191753,54.0299327 C37.8223348,54.4190456 37.7251843,55.7057055 38.2076648,56.4963291 C38.6901453,57.2869527 44.2366861,61.5020184 45.3093497,60.2626741 C46.3820133,59.0233297 42.7982983,57.4578848 42.2105374,56.1240528 C42.0812411,55.8306351 41.9419005,55.6624625 41.8792248,55.3544443 C41.8374409,55.1490989 41.8374409,54.862893 41.8792248,54.4958266 L45.3093497,23.8229622 C45.5820573,20.7890882 44.9112357,18.5169178 43.2968852,17.0064509 C40.8753594,14.7407506 40.6756687,14.5430779 35.1845949,10.1483001 C29.6935211,5.75352236 24.1295345,1.60099463 23.8694002,1.45767439 C23.6092658,1.31435415 15.0703551,-0.797578898 13.8327659,0.330047746 C12.5951766,1.45767439 10.0829289,11.7209051 16.9761645,15.9444447 C23.8694002,20.1679843 27.5132908,20.0448205 30.8533576,21.382452 Z" id="Path-19-Copy" fill="#F5F7F9"></path>
                                    <path d="M30.8533576,21.382452 C34.1934245,22.7200834 38.0653625,21.8342846 37.8288608,24.2955419 C37.6744904,25.9020638 37.6712619,35.8135274 37.8191753,54.0299327 C37.8212817,54.2893413 39.1746315,54.4446393 41.8792248,54.4958266 L45.3093497,23.8229622 C45.5820573,20.7890882 44.9112357,18.5169178 43.2968852,17.0064509 C40.8753594,14.7407506 40.6756687,14.5430779 35.1845949,10.1483001 C29.6935211,5.75352236 24.1295345,1.60099463 23.8694002,1.45767439 C23.6092658,1.31435415 15.0703551,-0.797578898 13.8327659,0.330047746 C12.5951766,1.45767439 10.0829289,11.7209051 16.9761645,15.9444447 C23.8694002,20.1679843 27.5132908,20.0448205 30.8533576,21.382452 Z" id="Path-19-Copy" fill="#D3DAE0"></path>
                                    <path d="M19.7962409,24.2196266 C23.0818632,25.5449109 26.8906871,24.6672885 26.6580404,27.1058268 C26.5061863,28.6975194 26.5030104,38.5174935 26.6485128,56.565749 C26.6516208,56.9512702 26.4722796,57.0194171 26.6580404,57.7335756 C26.8438011,58.4477341 27.1780508,58.9460761 27.3791772,59.3393165 C29.7140397,63.9044175 33.3113326,65.0696428 33.3113326,62.7563231 C33.3113326,61.8358959 32.3315186,61.7563993 30.9682938,58.640539 C30.8411051,58.3498297 30.7040358,58.1832095 30.6423817,57.8780345 C30.601279,57.6745846 30.601279,57.3910205 30.6423817,57.0273424 L34.0165942,26.6376094 C34.2848565,23.6317401 33.6249696,21.3805433 32.0369337,19.8840191 C29.6548798,17.6392327 21.3659375,9.95083095 15.9643706,5.59661997 C10.5628036,1.24240898 13.182019,4.62076556 12.9261249,4.47876827 C12.6702309,4.33677098 2.35008286,2.74749587 1.13266683,3.86471376 C-0.0847492008,4.98193165 -1.8027195,13.3283342 4.97815345,17.5128877 C11.7590264,21.6974412 16.5106186,22.8943424 19.7962409,24.2196266 Z" id="Path-19" fill="#EEF1F5"></path>
                                    <path d="M48.719229,55.4800004 C48.9832076,55.6260618 48.580519,55.5602293 48.7270763,56.2375386 C48.9838357,57.4241425 49.4714832,59.2581696 47.4253764,59.8303135 C46.8496859,59.9912913 44.6226454,60.0718845 43.9033029,60.2890763 C43.2914401,60.4738166 40.023528,61.6616522 38.2555388,61.0403137 C34.7278143,59.8005373 35.9352064,58.0793898 37.4680813,58.0793898 C38.5949011,58.0793898 39.6750122,57.758685 41.8675414,56.8909496 C42.395818,56.681874 43.3688824,55.7373294 44.7867345,54.0573159 C45.0662857,54.467083 45.6467196,54.7882417 46.5280361,55.0207921 C47.8500109,55.3696176 48.4552504,55.3339389 48.719229,55.4800004 Z" id="Path-5-Copy-3" fill="#BCC5CD" transform="translate(42.464967, 57.637946) scale(-1, 1) rotate(-29.000000) translate(-42.464967, -57.637946) "></path>
                                    <path d="M19.7962409,24.2196266 C23.0818632,25.5449109 26.8906871,24.6672885 26.6580404,27.1058268 C26.5061863,28.6975194 26.5030104,38.5174935 26.6485128,56.565749 C26.6505848,56.8227631 27.9818745,56.9766276 30.6423817,57.0273424 L34.0165942,26.6376094 C34.2848565,23.6317401 33.6249696,21.3805433 32.0369337,19.8840191 C29.6548798,17.6392327 21.3659375,9.95083095 15.9643706,5.59661997 C10.5628036,1.24240898 13.182019,4.62076556 12.9261249,4.47876827 C12.6702309,4.33677098 2.35008286,2.74749587 1.13266683,3.86471376 C-0.0847492008,4.98193165 -1.8027195,13.3283342 4.97815345,17.5128877 C11.7590264,21.6974412 16.5106186,22.8943424 19.7962409,24.2196266 Z" id="Path-19" fill="#D3DAE0"></path>
                                    <path d="M37.6938298,58.6889773 C37.9578084,58.8350387 37.5551198,58.7692062 37.7016772,59.4465156 C37.9584365,60.6331194 38.446084,62.4671465 36.3999772,63.0392904 C35.8242867,63.2002682 33.5972462,63.2808615 32.8779037,63.4980532 C32.2660409,63.6827936 28.9981288,64.8706292 27.2301396,64.2492906 C23.7024152,63.0095142 24.9098072,61.2883667 26.4426821,61.2883667 C27.569502,61.2883667 28.6496131,60.9676619 30.8421423,60.0999265 C31.3704189,59.8908509 32.3434833,58.9463064 33.7613354,57.2662929 C34.0408866,57.6760599 34.6213204,57.9972186 35.5026369,58.229769 C36.8246117,58.5785945 37.4298512,58.5429158 37.6938298,58.6889773 Z" id="Path-5-Copy-3" fill="#BCC5CD" transform="translate(31.439568, 60.846923) scale(-1, 1) rotate(-26.000000) translate(-31.439568, -60.846923) "></path>
                                </g>
                                <path d="M33.0004204,18.3731893 C32.1168605,15.1947445 30.2074895,3.81812303 40.8809224,4.60401979 C47.9965444,5.12795097 49.583544,10.5002294 45.6419213,20.7208551 C46.5323849,23.7524175 46.9379646,25.4554524 46.8586604,25.8299598 C46.6723075,26.709997 54.6891796,27.4264865 54.3488004,28.0049 C53.1045786,30.1192321 44.1328728,38.497351 38.0854231,37.557485 C35.844383,37.2091932 32.0646066,33.5899723 32.0646066,31.2533909 C32.0646066,30.3047039 28.8365218,30.1884562 30.6181152,28.6058164 C31.0838475,28.1920933 36.4842171,26.9164638 36.9320089,26.4022069 C37.4548365,25.8017766 37.8393079,24.5944888 38.0854231,22.7803434 C35.2844612,21.9612039 33.5894603,20.4921525 33.0004204,18.3731893 Z" id="Path-23" fill="#F5F7F9"></path>
                                <path d="M42.404811,7.34104155 C47.2757843,7.17269564 45.8686298,17.7973549 50.0069595,17.0689735 C54.1452892,16.3405921 48.0306947,14.6541186 48.7149995,9.75513653 C49.3993043,4.85615446 42.9943732,1.27872691 39.5735462,2.23801006 C37.9856002,2.68330877 35.4808582,3.66273464 32.991155,5.35525502 C30.1174241,7.30884055 28.6679719,6.34424802 29.5759798,7.65314387 C30.4424771,8.90220186 29.3593107,14.8467452 34.4188376,13.4374232 C39.4783644,12.0281013 39.5805971,7.43864932 42.404811,7.34104155 Z" id="Path-30" fill="#0A0F5F" transform="translate(40.381040, 9.593320) rotate(10.000000) translate(-40.381040, -9.593320) "></path>
                                <path d="M36.4716032,31.1988593 C35.6605068,29.5816694 35.0072634,28.5941505 34.5118729,28.2363025 C32.7637002,26.9735006 30.7921266,27.9336468 30.6635809,28.2363025 C28.9258858,32.3276381 30.5025322,39.7970038 30.6635809,43.8089261 C30.9824155,51.7514858 31.6872306,55.433049 31.6872306,57.5627042 C31.6872306,58.6682547 32.2100097,61.2259262 33.2555679,65.2357185 C34.5849265,67.901349 37.1221575,69.3763186 40.8672608,69.6606275 C46.4849158,70.0870907 55.0348865,69.5892166 55.6600845,67.8760595 C56.2852824,66.1629024 54.6957896,61.3539425 54.8574589,57.5627042 C55.6600845,38.7406771 50.5877044,27.1787676 49.1242963,27.1787676 C48.2875443,27.1787676 47.5701682,27.777998 46.9721681,28.976459 C44.8602292,32.7032468 42.8252601,34.3680082 40.8672608,33.9707433 C38.9092615,33.5734784 37.4440423,32.6495171 36.4716032,31.1988593 Z" id="Path-124" fill="#141A74"></path>
                                <path d="M20.852331,26.6086963 C18.0606962,26.4728236 14.8893592,29.6860427 17.8254109,35.8133787 C19.7827788,39.8982694 21.5904085,43.3226486 23.2483002,46.0865162 C24.6163002,48.5379675 25.205103,50.0601636 25.0147084,50.6531044 C24.8243138,51.2460453 24.1311051,51.3382855 22.9350824,50.9298249 L23.9629491,59.1420775 C28.878985,59.806696 31.9141246,58.9074521 33.0683679,56.4443459 C34.7715371,52.809855 32.6840546,48.0762373 28.3305359,36.1508067 C25.3292452,27.9294834 23.6439657,26.744569 20.852331,26.6086963 Z" id="Path-123" fill="#0A0F5F" transform="translate(25.156978, 42.979238) rotate(51.000000) translate(-25.156978, -42.979238) "></path>
                                <path d="M35.5001012,51.6174529 C30.1272739,50.6916561 27.4408602,51.1841511 27.4408602,53.0949379 C27.4408602,55.0057247 30.3793003,55.7689205 36.2561805,55.3845254 C51.5874866,56.8058851 59.7192259,57.161225 60.6513982,56.4505452 C62.0496568,55.3845254 63.3405238,50.3662738 58.3831604,50.2287577 C55.0782515,50.1370804 47.4505651,50.5999788 35.5001012,51.6174529 Z" id="Path-121" fill="#F5F7F9" transform="translate(44.677979, 53.511638) rotate(12.000000) translate(-44.677979, -53.511638) "></path>
                                <path d="M50.559686,26.8337685 C47.7680513,26.6978958 45.1174847,29.911115 48.0535364,36.038451 C50.0109042,40.1233417 52.055888,43.2935819 54.1884877,45.5491717 C55.7325476,48.6933812 56.4093803,50.5619563 56.2189857,51.1548972 C56.0285911,51.747838 54.8364084,51.747838 52.6424374,51.1548972 L53.6703042,59.3671497 C59.9853876,60.7848155 63.720051,60.2620953 64.8742943,57.7989891 C66.5774635,54.1644982 65.6076302,47.9638816 61.2541115,36.038451 C58.2528208,27.8171278 53.3513208,26.9696412 50.559686,26.8337685 Z" id="Path-123" fill="#0A0F5F"></path>
                            </g>
                            <path d="M71.7450407,77.8194157 L70.9359024,73.0434783 C66.6656007,74.2590039 63.3872878,75.1152736 61.1009639,75.6122876 C58.8146399,76.1093016 55.8234268,75.7193977 52.1273247,74.4425761 C48.0083975,82.0177774 46.988528,88.3326019 49.0677161,93.3870494 C51.1469042,98.4414969 53.5882211,103.07335 56.3916669,107.282609 C67.4172564,104.076608 74.7749352,101.632984 78.4647034,99.9517358 C87.3709455,95.893594 91.260192,92.0789368 91.4583055,90.9638567 C91.7795337,89.1558267 85.2084454,84.7743464 71.7450407,77.8194157 Z" id="Path-118" fill="#D3DAE0"></path>
                            <g id="Group-13" transform="translate(42.304659, 22.826087)">
                                <path d="M33.3664253,78.4476693 C36.7064922,79.7853008 40.5784302,78.8995019 40.3419284,81.3607593 C40.1875581,82.9672812 40.1843296,92.8787448 40.332243,111.09515 C40.3354025,111.484263 40.238252,112.770923 40.7207325,113.561546 C41.203213,114.35217 46.7497538,118.567236 47.8224174,117.327891 C48.895081,116.088547 45.311366,114.523102 44.7236051,113.18927 C44.5943088,112.895852 44.4549682,112.72768 44.3922924,112.419662 C44.3505086,112.214316 44.3505086,111.92811 44.3922924,111.561044 L47.8224174,80.8881796 C48.0951249,77.8543056 47.4243034,75.5821352 45.8099529,74.0716683 C43.3884271,71.805968 43.1887364,71.6082953 37.6976626,67.2135175 C32.2065888,62.8187398 26.6426022,58.666212 26.3824678,58.5228918 C26.1223335,58.3795715 17.5834228,56.2676385 16.3458335,57.3952651 C15.1082443,58.5228918 12.5959966,68.7861225 19.4892322,73.0096621 C26.3824678,77.2332017 30.0263585,77.1100379 33.3664253,78.4476693 Z" id="Path-19-Copy" fill="#F5F7F9"></path>
                                <path d="M50.3415439,111.352941 C50.7689117,111.746601 51.0266861,112.28792 51.1148671,112.976896 C51.2673788,114.168503 51.8523432,115.993693 49.8062364,116.565836 C49.2305459,116.726814 47.0035054,116.807408 46.2841629,117.024599 C45.6723001,117.20934 42.404388,118.397175 40.6363988,117.775837 C37.1086744,116.53606 38.3160664,114.814913 39.8489413,114.814913 C40.9757612,114.814913 42.0095398,114.589913 44.202069,113.722178 C44.7303456,113.513102 45.3449307,112.928708 46.0458242,111.968996 C46.3061112,112.141911 46.8523228,112.139699 47.684459,111.962359 C48.5165952,111.78502 49.4022902,111.58188 50.3415439,111.352941 Z" id="Path-5-Copy-3" fill="#BCC5CD" transform="translate(44.825587, 114.653520) scale(-1, 1) rotate(-20.000000) translate(-44.825587, -114.653520) "></path>
                                <path d="M30.3863398,44.8262835 L47.9016574,55.1324863 C51.4893626,54.9452847 53.5675446,55.1603822 54.1362034,55.7777787 C55.0290486,56.7471465 55.6894394,59.3151456 52.6181422,59.3465854 C50.5706107,59.3675453 48.7216074,59.1229362 47.0711321,58.6127581 L27.6249772,48.557244 C26.0597038,46.2307421 25.8786713,44.6501697 27.0818796,43.8155268 C28.2850879,42.9808839 29.3865746,43.3178028 30.3863398,44.8262835 Z" id="Path-120-Copy" fill="#F5F7F9" transform="translate(40.589606, 51.358696) rotate(23.000000) translate(-40.589606, -51.358696) "></path>
                                <path d="M10.1330369,16.0905806 C9.24947701,12.9121358 7.34010603,1.53551433 18.0135389,2.32141109 C25.1291609,2.84534227 26.7161605,8.21762071 22.7745378,18.4382464 C23.5022374,23.4158913 23.8264351,26.0919674 23.747131,26.4664748 C23.560778,27.346512 27.761607,27.9333743 27.4212277,28.5117879 C26.1770059,30.62612 21.2654893,36.2147423 15.2180396,35.2748763 C12.9769995,34.9265845 9.19722312,31.3073637 9.19722312,28.9707822 C9.19722312,28.0220952 8.74882385,24.6506262 10.5304172,23.0679864 C10.9961495,22.6542633 13.6168336,24.6338551 14.0646253,24.1195982 C14.587453,23.5191679 14.9719244,22.3118801 15.2180396,20.4977347 C12.4170777,19.6785952 10.7220768,18.2095438 10.1330369,16.0905806 Z" id="Path-23" fill="#F5F7F9" transform="translate(18.293907, 18.831522) scale(-1, 1) translate(-18.293907, -18.831522) "></path>
                                <path d="M22.3093086,81.284844 C25.5949309,82.6101283 29.4037547,81.7325059 29.1711081,84.1710442 C29.019254,85.7627368 29.0160781,95.5827109 29.1615805,113.630966 C29.1646885,114.016488 28.9853473,114.084635 29.1711081,114.798793 C29.3568688,115.512951 29.6911185,116.011293 29.8922449,116.404534 C32.2271074,120.969635 35.8244003,122.13486 35.8244003,119.821541 C35.8244003,118.901113 34.8445863,118.821617 33.4813615,115.705756 C33.3541728,115.415047 33.2171035,115.248427 33.1554494,114.943252 C33.1143467,114.739802 33.1143467,114.456238 33.1554494,114.09256 L36.5296619,83.7028268 C36.7979242,80.6969575 36.1380373,78.4457607 34.5500014,76.9492365 C32.1679475,74.7044501 31.9715118,74.508602 26.5699449,70.154391 C21.1683779,65.80018 15.6950867,61.685983 15.4391926,61.5439857 C15.1832985,61.4019884 10.6276954,58.4849316 9.41027939,59.6021495 C8.19286335,60.7193674 5.83171375,71.4951677 12.6125867,75.6797212 C19.3934597,79.8642747 19.0236863,79.9595598 22.3093086,81.284844 Z" id="Path-19" fill="#EEF1F5"></path>
                                <path d="M38.9078521,113.635549 C39.33522,114.02921 39.5929944,114.570529 39.6811753,115.259505 C39.8336871,116.451112 40.4186515,118.276301 38.3725447,118.848445 C37.7968542,119.009423 35.5698137,119.090016 34.8504712,119.307208 C34.2386084,119.491948 30.9706963,120.679784 29.202707,120.058445 C25.6749826,118.818669 26.8823746,117.097521 28.4152496,117.097521 C29.5420694,117.097521 30.575848,116.872522 32.7683772,116.004786 C33.2966538,115.795711 33.9112389,115.211317 34.6121325,114.251604 C34.8724195,114.42452 35.4186311,114.422308 36.2507673,114.244968 C37.0829035,114.067628 37.9685984,113.864489 38.9078521,113.635549 Z" id="Path-5-Copy-3" fill="#5A98FF" transform="translate(33.391896, 116.936129) scale(-1, 1) rotate(-20.000000) translate(-33.391896, -116.936129) "></path>
                                <path d="M38.9078521,113.635549 C39.33522,114.02921 39.5929944,114.570529 39.6811753,115.259505 C39.8336871,116.451112 40.4186515,118.276301 38.3725447,118.848445 C37.7968542,119.009423 35.5698137,119.090016 34.8504712,119.307208 C34.2386084,119.491948 30.9706963,120.679784 29.202707,120.058445 C25.6749826,118.818669 26.8823746,117.097521 28.4152496,117.097521 C29.5420694,117.097521 30.575848,116.872522 32.7683772,116.004786 C33.2966538,115.795711 33.9112389,115.211317 34.6121325,114.251604 C34.8724195,114.42452 35.4186311,114.422308 36.2507673,114.244968 C37.0829035,114.067628 37.9685984,113.864489 38.9078521,113.635549 Z" id="Path-5-Copy-3" fill="#BCC5CD" transform="translate(33.391896, 116.936129) scale(-1, 1) rotate(-20.000000) translate(-33.391896, -116.936129) "></path>
                                <path d="M29.4403812,54.9933287 L28.6312429,50.2173913 C24.3609412,51.4329169 21.0826283,52.2891867 18.7963044,52.7862006 C16.5099804,53.2832146 13.5187673,52.8933108 9.82266516,51.6164892 C5.70373803,59.1916905 4.68386852,65.5065149 6.76305662,70.5609624 C8.84224472,75.61541 11.2835616,80.2472631 14.0870074,84.4565217 C25.1125969,81.2505212 32.4702757,78.8068969 36.1600439,77.1256488 C45.066286,73.0675071 48.9555325,69.2528498 49.153646,68.1377698 C49.4748742,66.3297398 42.9037859,61.9482594 29.4403812,54.9933287 Z" id="Path-118" fill="#D3DAE0"></path>
                                <path d="M4.59330509,53.6938242 L20.4897715,63.086712 C24.1908711,63.1252292 26.2477363,63.3421257 26.660367,63.7374016 C27.6470796,64.6826137 28.1976708,67.3043545 25.1578772,67.3360572 C23.1313482,67.3571924 21.4214879,67.0057874 20.0282965,66.2818423 L1.22588842,57.4076111 C-0.250553927,55.3070091 -0.393341858,53.8358962 0.797524622,52.9942725 C1.9883911,52.1526488 3.25365126,52.3858327 4.59330509,53.6938242 Z" id="Path-120" fill="#EEF1F5"></path>
                                <path d="M31.1960657,28.2882288 L33.1577061,41.8030145 C32.4819202,42.6297137 31.9556914,43.1465397 31.5790199,43.3534925 C31.2023484,43.5604454 30.4330748,43.7554011 29.2711991,43.9383597 L28.3943886,39.4878546 L28.3943886,51.8091181 C25.3375552,52.8277528 22.2228011,53.3370701 19.0501261,53.3370701 C15.8774512,53.3370701 12.7412357,52.8277528 9.64147987,51.8091181 L7.10696734,45.5695222 C6.73294797,50.2047494 6.07876342,53.278263 5.1444137,54.790063 C4.21006398,56.3018631 2.49525941,56.3018631 0,54.790063 C1.05528279,45.66991 1.71721294,39.358 1.98579046,35.8543328 C2.25436798,32.3506656 4.42796146,29.8286309 8.5065709,28.2882288 C14.7334346,34.6924882 19.6366209,36.5685447 23.2161299,33.9163984 C26.7956389,31.2642521 27.3415808,27.7335604 24.8539558,23.3243233 C25.4146052,23.0976924 26.3840169,23.0976924 27.7621911,23.3243233 C29.1403652,23.5509541 30.2849901,25.2055892 31.1960657,28.2882288 Z" id="Path-119" fill="#0A0F5F"></path>
                                <path d="M13.6495276,7.99496135 C14.0136662,7.99331756 16.2569763,10.8117647 16.820688,14.1914009 C17.4014889,17.6734925 16.2967936,21.7455688 16.2462595,23.5461026 C16.205635,24.9935556 15.6401572,28.6796232 17.8389398,30.4678994 C20.2014211,32.3893123 26.4773288,31.9867067 27.853704,31.7560195 C30.1784765,31.3663762 26.3994497,12.0076157 24.2565849,6.24824148 C22.1137202,0.488867272 13.8075396,-0.60235699 10.7221263,0.262867991 C7.63671302,1.12809297 6.22788962,4.50187269 7.12852655,6.24824148 C8.02916349,7.99461027 12.9102113,7.99829876 13.6495276,7.99496135 Z" id="Path-30" fill="#0A0F5F" transform="translate(17.722222, 15.978261) scale(-1, 1) translate(-17.722222, -15.978261) "></path>
                            </g>
                            <g id="Group-13" transform="translate(250.397849, 81.603261) scale(-1, 1) translate(-250.397849, -81.603261) translate(221.813620, 19.402174)">
                                <path d="M33.3664253,78.4476693 C36.7064922,79.7853008 40.5784302,78.8995019 40.3419284,81.3607593 C40.1875581,82.9672812 40.1843296,92.8787448 40.332243,111.09515 C40.3354025,111.484263 40.238252,112.770923 40.7207325,113.561546 C41.203213,114.35217 46.7497538,118.567236 47.8224174,117.327891 C48.895081,116.088547 45.311366,114.523102 44.7236051,113.18927 C44.5943088,112.895852 44.4549682,112.72768 44.3922924,112.419662 C44.3505086,112.214316 44.3505086,111.92811 44.3922924,111.561044 L47.8224174,80.8881796 C48.0951249,77.8543056 47.4243034,75.5821352 45.8099529,74.0716683 C43.3884271,71.805968 43.1887364,71.6082953 37.6976626,67.2135175 C32.2065888,62.8187398 26.6426022,58.666212 26.3824678,58.5228918 C26.1223335,58.3795715 17.5834228,56.2676385 16.3458335,57.3952651 C15.1082443,58.5228918 12.5959966,68.7861225 19.4892322,73.0096621 C26.3824678,77.2332017 30.0263585,77.1100379 33.3664253,78.4476693 Z" id="Path-19-Copy" fill="#F5F7F9"></path>
                                <path d="M33.3664253,78.4476693 C36.7064922,79.7853008 40.5784302,78.8995019 40.3419284,81.3607593 C40.1875581,82.9672812 40.1843296,92.8787448 40.332243,111.09515 C40.3354025,111.484263 40.238252,112.770923 40.7207325,113.561546 C41.203213,114.35217 46.7497538,118.567236 47.8224174,117.327891 C48.895081,116.088547 45.311366,114.523102 44.7236051,113.18927 C44.5943088,112.895852 44.4549682,112.72768 44.3922924,112.419662 C44.3505086,112.214316 44.3505086,111.92811 44.3922924,111.561044 L47.8224174,80.8881796 C48.0951249,77.8543056 47.4243034,75.5821352 45.8099529,74.0716683 C43.3884271,71.805968 43.1887364,71.6082953 37.6976626,67.2135175 C32.2065888,62.8187398 26.6426022,58.666212 26.3824678,58.5228918 C26.1223335,58.3795715 17.5834228,56.2676385 16.3458335,57.3952651 C15.1082443,58.5228918 12.5959966,68.7861225 19.4892322,73.0096621 C26.3824678,77.2332017 30.0263585,77.1100379 33.3664253,78.4476693 Z" id="Path-19-Copy" fill="#F5F7F9"></path>
                                <path d="M33.3664253,78.4476693 C36.7064922,79.7853008 40.5784302,78.8995019 40.3419284,81.3607593 C40.1875581,82.9672812 40.1843296,92.8787448 40.332243,111.09515 C40.3343494,111.354559 41.6876992,111.509857 44.3922924,111.561044 L47.8224174,80.8881796 C48.0951249,77.8543056 47.4243034,75.5821352 45.8099529,74.0716683 C43.3884271,71.805968 43.1887364,71.6082953 37.6976626,67.2135175 C32.2065888,62.8187398 26.6426022,58.666212 26.3824678,58.5228918 C26.1223335,58.3795715 17.5834228,56.2676385 16.3458335,57.3952651 C15.1082443,58.5228918 12.5959966,68.7861225 19.4892322,73.0096621 C26.3824678,77.2332017 30.0263585,77.1100379 33.3664253,78.4476693 Z" id="Path-19-Copy" fill="#D3DAE0"></path>
                                <path d="M30.3863398,44.8262835 L47.9016574,55.1324863 C51.4893626,54.9452847 53.5675446,55.1603822 54.1362034,55.7777787 C55.0290486,56.7471465 55.6894394,59.3151456 52.6181422,59.3465854 C50.5706107,59.3675453 48.7216074,59.1229362 47.0711321,58.6127581 L27.6249772,48.557244 C26.0597038,46.2307421 25.8786713,44.6501697 27.0818796,43.8155268 C28.2850879,42.9808839 29.3865746,43.3178028 30.3863398,44.8262835 Z" id="Path-120-Copy" fill="#F5F7F9" transform="translate(40.589606, 51.358696) rotate(23.000000) translate(-40.589606, -51.358696) "></path>
                                <path d="M10.1330369,16.0905806 C9.24947701,12.9121358 7.34010603,1.53551433 18.0135389,2.32141109 C25.1291609,2.84534227 26.7161605,8.21762071 22.7745378,18.4382464 C23.5022374,23.4158913 23.8264351,26.0919674 23.747131,26.4664748 C23.560778,27.346512 27.761607,27.9333743 27.4212277,28.5117879 C26.1770059,30.62612 21.2654893,36.2147423 15.2180396,35.2748763 C12.9769995,34.9265845 9.19722312,31.3073637 9.19722312,28.9707822 C9.19722312,28.0220952 8.74882385,24.6506262 10.5304172,23.0679864 C10.9961495,22.6542633 13.6168336,24.6338551 14.0646253,24.1195982 C14.587453,23.5191679 14.9719244,22.3118801 15.2180396,20.4977347 C12.4170777,19.6785952 10.7220768,18.2095438 10.1330369,16.0905806 Z" id="Path-23" fill="#F5F7F9" transform="translate(18.293907, 18.831522) scale(-1, 1) translate(-18.293907, -18.831522) "></path>
                                <path d="M22.3093086,81.284844 C25.5949309,82.6101283 29.4037547,81.7325059 29.1711081,84.1710442 C29.019254,85.7627368 29.0160781,95.5827109 29.1615805,113.630966 C29.1646885,114.016488 28.9853473,114.084635 29.1711081,114.798793 C29.3568688,115.512951 29.6911185,116.011293 29.8922449,116.404534 C32.2271074,120.969635 35.8244003,122.13486 35.8244003,119.821541 C35.8244003,118.901113 34.8445863,118.821617 33.4813615,115.705756 C33.3541728,115.415047 33.2171035,115.248427 33.1554494,114.943252 C33.1143467,114.739802 33.1143467,114.456238 33.1554494,114.09256 L36.5296619,83.7028268 C36.7979242,80.6969575 36.1380373,78.4457607 34.5500014,76.9492365 C32.1679475,74.7044501 31.9715118,74.508602 26.5699449,70.154391 C21.1683779,65.80018 15.6950867,61.685983 15.4391926,61.5439857 C15.1832985,61.4019884 10.6276954,58.4849316 9.41027939,59.6021495 C8.19286335,60.7193674 5.83171375,71.4951677 12.6125867,75.6797212 C19.3934597,79.8642747 19.0236863,79.9595598 22.3093086,81.284844 Z" id="Path-19" fill="#EEF1F5"></path>
                                <path d="M22.3093086,81.284844 C25.5949309,82.6101283 29.4037547,81.7325059 29.1711081,84.1710442 C29.019254,85.7627368 29.0160781,95.5827109 29.1615805,113.630966 C29.1646885,114.016488 28.9853473,114.084635 29.1711081,114.798793 C29.3568688,115.512951 29.6911185,116.011293 29.8922449,116.404534 C32.2271074,120.969635 35.8244003,122.13486 35.8244003,119.821541 C35.8244003,118.901113 34.8445863,118.821617 33.4813615,115.705756 C33.3541728,115.415047 33.2171035,115.248427 33.1554494,114.943252 C33.1143467,114.739802 33.1143467,114.456238 33.1554494,114.09256 L36.5296619,83.7028268 C36.7979242,80.6969575 36.1380373,78.4457607 34.5500014,76.9492365 C32.1679475,74.7044501 31.9715118,74.508602 26.5699449,70.154391 C21.1683779,65.80018 15.6950867,61.685983 15.4391926,61.5439857 C15.1832985,61.4019884 10.6276954,58.4849316 9.41027939,59.6021495 C8.19286335,60.7193674 5.83171375,71.4951677 12.6125867,75.6797212 C19.3934597,79.8642747 19.0236863,79.9595598 22.3093086,81.284844 Z" id="Path-19" fill="#EEF1F5"></path>
                                <path d="M51.2426427,112.545218 C51.5066213,112.691279 51.1039327,112.625447 51.2504901,113.302756 C51.5072495,114.48936 51.994897,116.323387 49.9487902,116.895531 C49.3730996,117.056509 47.1460592,117.137102 46.4267166,117.354294 C45.8148538,117.539034 42.5469418,118.72687 40.7789525,118.105531 C37.2512281,116.865755 38.4586201,115.144607 39.9914951,115.144607 C41.1183149,115.144607 42.198426,114.823902 44.3909552,113.956167 C44.9192318,113.747091 45.8922962,112.802547 47.3101483,111.122533 C47.5896995,111.5323 48.1701333,111.853459 49.0514499,112.086009 C50.3734246,112.434835 50.9786642,112.399156 51.2426427,112.545218 Z" id="Path-5-Copy-3" fill="#BCC5CD" transform="translate(44.988381, 114.703164) scale(-1, 1) rotate(-26.000000) translate(-44.988381, -114.703164) "></path>
                                <path d="M22.3093086,81.284844 C25.5949309,82.6101283 29.4037547,81.7325059 29.1711081,84.1710442 C29.019254,85.7627368 29.0160781,95.5827109 29.1615805,113.630966 C29.1636525,113.887981 30.4949422,114.041845 33.1554494,114.09256 L36.5296619,83.7028268 C36.7979242,80.6969575 36.1380373,78.4457607 34.5500014,76.9492365 C32.1679475,74.7044501 31.9715118,74.508602 26.5699449,70.154391 C21.1683779,65.80018 15.6950867,61.685983 15.4391926,61.5439857 C15.1832985,61.4019884 10.6276954,58.4849316 9.41027939,59.6021495 C8.19286335,60.7193674 5.83171375,71.4951677 12.6125867,75.6797212 C19.3934597,79.8642747 19.0236863,79.9595598 22.3093086,81.284844 Z" id="Path-19" fill="#D3DAE0"></path>
                                <path d="M39.808951,114.827826 C40.0729296,114.973888 39.670241,114.908055 39.8167983,115.585365 C40.0735577,116.771969 40.5612052,118.605996 38.5150984,119.17814 C37.9394079,119.339117 35.7123674,119.419711 34.9930249,119.636902 C34.3811621,119.821643 31.11325,121.009478 29.3452608,120.38814 C25.8175364,119.148363 27.0249284,117.427216 28.5578033,117.427216 C29.6846231,117.427216 30.7647342,117.106511 32.9572634,116.238776 C33.4855401,116.0297 34.4586044,115.085156 35.8764565,113.405142 C36.1560077,113.814909 36.7364416,114.136068 37.6177581,114.368618 C38.9397329,114.717444 39.5449724,114.681765 39.808951,114.827826 Z" id="Path-5-Copy-3" fill="#BCC5CD" transform="translate(33.554689, 116.985772) scale(-1, 1) rotate(-29.000000) translate(-33.554689, -116.985772) "></path>
                                <path d="M32.1792317,30.3752705 L36.5096056,43.7636768 C35.9783098,45.3809688 35.5243261,46.2930912 35.1476546,46.500044 C34.5826473,46.8104733 33.1477253,49.0073828 31.1960657,46.500044 C29.8949592,44.8284848 28.9610669,42.4910883 28.3943886,39.4878546 L27.9855466,60.2749857 C24.1093879,63.9867093 20.5849711,65.8425711 17.4122962,65.8425711 C14.2396212,65.8425711 11.2710461,64.5309607 8.5065709,61.9077398 L7.10696734,45.5695222 C6.73294797,50.2047494 6.07876342,53.278263 5.1444137,54.790063 C4.21006398,56.3018631 2.49525941,56.3018631 0,54.790063 C1.05528279,45.66991 1.71721294,39.358 1.98579046,35.8543328 C2.25436798,32.3506656 4.42796146,29.8286309 8.5065709,28.2882288 C14.7334346,34.6924882 19.6366209,36.5685447 23.2161299,33.9163984 C26.7956389,31.2642521 27.3486195,27.642718 24.8750718,23.0517961 C25.2772351,23.0517961 26.12991,23.0517961 27.4330964,23.0517961 C28.7362828,23.0517961 30.3183279,25.4929542 32.1792317,30.3752705 Z" id="Path-119" fill="#141A74"></path>
                                <path d="M4.59330509,53.6938242 L20.4897715,63.086712 C24.1908711,63.1252292 26.2477363,63.3421257 26.660367,63.7374016 C27.6470796,64.6826137 28.1976708,67.3043545 25.1578772,67.3360572 C23.1313482,67.3571924 21.4214879,67.0057874 20.0282965,66.2818423 L1.22588842,57.4076111 C-0.250553927,55.3070091 -0.393341858,53.8358962 0.797524622,52.9942725 C1.9883911,52.1526488 3.25365126,52.3858327 4.59330509,53.6938242 Z" id="Path-120" fill="#EEF1F5"></path>
                                <path d="M13.6495276,7.99496135 C14.0136662,7.99331756 16.2569763,10.8117647 16.820688,14.1914009 C17.4014889,17.6734925 16.2967936,21.7455688 16.2462595,23.5461026 C16.205635,24.9935556 15.6401572,28.6796232 17.8389398,30.4678994 C20.2014211,32.3893123 26.4773288,31.9867067 27.853704,31.7560195 C30.1784765,31.3663762 26.3994497,12.0076157 24.2565849,6.24824148 C22.1137202,0.488867272 13.8075396,-0.60235699 10.7221263,0.262867991 C7.63671302,1.12809297 6.22788962,4.50187269 7.12852655,6.24824148 C8.02916349,7.99461027 12.9102113,7.99829876 13.6495276,7.99496135 Z" id="Path-30" fill="#0A0F5F" transform="translate(17.722222, 15.978261) scale(-1, 1) translate(-17.722222, -15.978261) "></path>
                            </g>
                            <g id="Group" transform="translate(85.752688, 0.000000)">
                                <path d="M39.0832712,89.8607128 C42.423338,91.1983443 46.2952761,90.3125454 46.0587743,92.7738027 C45.9044039,94.3803247 46.2896649,103.890082 46.4375784,122.106487 C46.4407379,122.4956 45.9550979,124.183966 46.4375784,124.97459 C46.9200588,125.765214 52.4665997,129.980279 53.5392633,128.740935 C54.6119269,127.501591 51.0282118,125.936146 50.4404509,124.602314 C50.3111547,124.308896 50.1718141,124.140723 50.1091383,123.832705 C50.0673545,123.62736 50.0673545,123.341154 50.1091383,122.974087 L53.5392633,92.3012231 C53.8119708,89.2673491 53.1411493,86.9951787 51.5267988,85.4847118 C49.105273,83.2190115 48.9055822,83.0213387 43.4145085,78.626561 C37.9234347,74.2317832 32.3594481,70.0792555 32.0993137,69.9359353 C31.8391794,69.792615 23.3002687,67.680682 22.0626794,68.8083086 C20.8250902,69.9359353 18.3128425,80.1991659 25.2060781,84.4227056 C32.0993137,88.6462452 35.7432044,88.5230814 39.0832712,89.8607128 Z" id="Path-19-Copy" fill="#F5F7F9"></path>
                                <path d="M57.0443576,123.880722 C57.3083362,124.026783 56.9056476,123.960951 57.052205,124.63826 C57.3089644,125.824864 57.7966119,127.658891 55.7505051,128.231035 C55.1748145,128.392013 52.9477741,128.472606 52.2284315,128.689798 C51.6165687,128.874538 48.3486567,130.062374 46.5806674,129.441035 C43.052943,128.201259 44.260335,126.480111 45.79321,126.480111 C46.9200298,126.480111 48.0001409,126.159406 50.1926701,125.291671 C50.7209467,125.082595 51.6940111,124.138051 53.1118632,122.458037 C53.3914144,122.867804 53.9718482,123.188963 54.8531648,123.421514 C56.1751395,123.770339 56.7803791,123.73466 57.0443576,123.880722 Z" id="Path-5-Copy-3" fill="#BCC5CD" transform="translate(50.790096, 126.038668) scale(-1, 1) rotate(-29.000000) translate(-50.790096, -126.038668) "></path>
                                <path d="M39.0832712,89.8607128 C42.423338,91.1983443 46.2952761,90.3125454 46.0587743,92.7738027 C45.9558607,93.8448174 48.449357,93.6872908 53.5392633,92.3012231 C53.8119708,89.2673491 53.1411493,86.9951787 51.5267988,85.4847118 C49.105273,83.2190115 48.9055822,83.0213387 43.4145085,78.626561 C37.9234347,74.2317832 32.3594481,70.0792555 32.0993137,69.9359353 C31.8391794,69.792615 23.3002687,67.680682 22.0626794,68.8083086 C20.8250902,69.9359353 18.3128425,80.1991659 25.2060781,84.4227056 C32.0993137,88.6462452 35.7432044,88.5230814 39.0832712,89.8607128 Z" id="Path-19-Copy" fill="#D3DAE0"></path>
                                <path d="M28.0261545,92.6978875 C31.3117768,94.0231717 35.1206006,93.1455494 34.8879539,95.5840876 C34.7360999,97.1757803 34.732924,106.995754 34.8784264,125.04401 C34.8815344,125.429531 34.7021932,125.497678 34.8879539,126.211836 C35.0737147,126.925995 35.4079644,127.424337 35.6090908,127.817577 C37.9439532,132.382678 41.5412462,133.547904 41.5412462,131.234584 C41.5412462,130.314157 40.5614321,130.23466 39.1982074,127.1188 C39.0710187,126.828091 38.9339494,126.66147 38.8722953,126.356295 C38.8311926,126.152845 38.8311926,125.869281 38.8722953,125.505603 L42.2465078,95.1158702 C42.51477,92.110001 41.8548832,89.8588042 40.2668473,88.3622799 C37.8847934,86.1174936 29.5958511,78.4290918 24.1942841,74.0748808 C18.7927172,69.7206699 21.4119326,73.0990264 21.1560385,72.9570291 C20.9001444,72.8150318 10.5799964,71.2257567 9.36258039,72.3429746 C8.14516436,73.4601925 6.42719406,81.8065951 13.208067,85.9911486 C19.98894,90.1757021 24.7405322,91.3726033 28.0261545,92.6978875 Z" id="Path-19" fill="#EEF1F5"></path>
                                <path d="M45.6106659,126.163331 C45.8746445,126.309392 45.4719559,126.243559 45.6185132,126.920869 C45.8752726,128.107473 46.3629201,129.9415 44.3168133,130.513644 C43.7411228,130.674621 41.5140823,130.755215 40.7947398,130.972406 C40.182877,131.157147 36.9149649,132.344982 35.1469757,131.723644 C31.6192513,130.483867 32.8266433,128.76272 34.3595182,128.76272 C35.486338,128.76272 36.5664491,128.442015 38.7589783,127.57428 C39.287255,127.365204 40.2603193,126.42066 41.6781714,124.740646 C41.9577226,125.150413 42.5381565,125.471572 43.419473,125.704122 C44.7414478,126.052948 45.3466873,126.017269 45.6106659,126.163331 Z" id="Path-5-Copy-3" fill="#BCC5CD" transform="translate(39.356404, 128.321276) scale(-1, 1) rotate(-29.000000) translate(-39.356404, -128.321276) "></path>
                                <path d="M28.0261545,92.6978875 C31.3117768,94.0231717 35.1206006,93.1455494 34.8879539,95.5840876 C34.7328562,97.2097798 37.1857074,97.0537073 42.2465078,95.1158702 C42.51477,92.110001 41.8548832,89.8588042 40.2668473,88.3622799 C37.8847934,86.1174936 29.5958511,78.4290918 24.1942841,74.0748808 C18.7927172,69.7206699 21.4119326,73.0990264 21.1560385,72.9570291 C20.9001444,72.8150318 10.5799964,71.2257567 9.36258039,72.3429746 C8.14516436,73.4601925 6.42719406,81.8065951 13.208067,85.9911486 C19.98894,90.1757021 24.7405322,91.3726033 28.0261545,92.6978875 Z" id="Path-19" fill="#D3DAE0"></path>
                                <g id="Group-15">
                                    <path d="M35.7532403,22.7106479 C36.8497262,21.9794012 39.3628795,23.1292507 40.169574,25.0202887 C40.9762685,26.9113267 42.2194966,28.6689351 43.3054532,30.4435493 C44.3914098,32.2181634 51.6621899,37.691918 52.4897776,40.3424584 C53.3173653,42.9929989 54.2198257,47.6530771 50.9919622,47.6227284 C47.7640987,47.5923797 42.7068766,38.3548801 41.8421152,35.2930624 C40.9773539,32.2312448 40.169574,30.5419209 39.3628795,29.9244818 C38.5561849,29.3070428 35.1131486,26.8610944 34.7913391,25.4859843 C34.4695296,24.1108742 34.6567543,23.4418946 35.7532403,22.7106479 Z" id="Path-95-Copy" fill="#F5F7F9" transform="translate(43.959787, 35.055559) rotate(75.000000) translate(-43.959787, -35.055559) "></path>
                                    <path d="M13.3818794,34.5648721 C14.7133237,35.3090635 15.7867807,36.0869149 16.6022504,36.8984263 C17.825455,38.1156933 20.5738338,39.9592654 21.7956016,39.206965 C23.0173693,38.4546646 25.5147853,32.66163 25.82346,32.0552915 C26.0292432,31.6510658 26.6333422,32.4875926 27.6357569,34.5648721 L28.6295507,48.4847249 L29.5807192,55.1751037 L32.2553476,68.7465648 C30.9159069,70.3280121 29.3760433,71.4182268 27.6357569,72.0172088 C25.8954704,72.6161909 22.847962,72.8221055 18.4932317,72.6349526 C19.4403165,63.8087212 19.9138589,59.2743531 19.9138589,59.0318483 C19.9138589,58.668091 15.8778585,46.8722591 15.85918,46.3714905 C15.8467276,46.0376447 15.0209608,42.1021053 13.3818794,34.5648721 Z" id="Path-96" fill="#D3DAE0"></path>
                                    <path d="M11.276406,22.9384067 C10.3928462,19.7599618 8.48347521,8.38334042 19.1569081,9.16923718 C26.27253,9.69316836 27.8595297,15.0654468 23.917907,25.2860725 C24.6456066,30.2637174 24.9698043,32.9397935 24.8905002,33.3143009 C24.7041472,34.1943381 28.9049762,34.7812004 28.5645969,35.359614 C27.3203751,37.4739461 22.4088585,43.0625684 16.3614088,42.1227024 C14.1203687,41.7744106 10.3405923,38.1551897 10.3405923,35.8186083 C10.3405923,34.8699213 9.89219303,31.4984523 11.6737864,29.9158125 C12.1395187,29.5020893 14.7602028,31.4816812 15.2079945,30.9674243 C15.7308222,30.366994 16.1152936,29.1597061 16.3614088,27.3455608 C13.5604469,26.5264213 11.865446,25.0573699 11.276406,22.9384067 Z" id="Path-23" fill="#F5F7F9" transform="translate(19.437276, 25.679348) scale(-1, 1) translate(-19.437276, -25.679348) "></path>
                                    <path d="M17.8768361,13.0650564 C23.6672392,14.9105432 20.645112,17.2636844 24.1054876,18.35305 C27.5658631,19.4424155 30.9293201,19.1545752 31.2573338,16.4744957 C31.4625275,14.797933 29.7282557,17.1044832 28.1436935,11.6444837 C26.5591312,6.18448426 19.4508826,4.2524602 16.0300557,5.21174334 C12.6092287,6.17102649 8.36978876,10.452332 10.0644642,12.8952109 C11.7591396,15.3380898 14.4527938,11.9737636 17.8768361,13.0650564 Z" id="Path-30" fill="#0A0F5F" transform="translate(20.476444, 11.961555) rotate(-31.000000) translate(-20.476444, -11.961555) "></path>
                                    <path d="M13.7924092,32.3416031 C15.0873287,33.4673559 13.8404184,37.8162991 18.5625294,40.8549909 C23.2846404,43.8936827 23.3910138,59.3767985 23.2038483,66.9392572 C23.0166827,74.501716 22.3463096,73.4371824 20.0260393,75.204225 C17.7057691,76.9712676 9.23379674,77.9946105 6.00573713,75.204225 C3.85369739,73.343968 4.2561883,71.4606593 7.21320985,69.5542989 C8.88531924,65.2994397 9.60485063,61.0311021 9.37180403,56.7492862 C9.13875742,52.4674703 8.76576148,50.3327347 8.25281619,50.3450793 C8.25701108,54.6742648 8.09640214,57.3008713 7.77098938,58.2248989 C7.59214295,58.7327433 7.67080873,59.6679801 5.87968002,60.2818082 C5.38503135,60.4513266 4.44046018,60.5395938 3.76429639,60.2818082 C3.28870647,60.1004909 3.06296526,59.791517 2.78227294,59.5193103 C1.50561183,58.2812439 1.42309413,56.1824419 2.27662732,46.8684343 C3.13016051,37.5544266 5.03385996,37.1848442 6.41247628,35.2980084 C7.7910926,33.4111727 12.4974898,31.2158503 13.7924092,32.3416031 Z" id="Path-93" fill="#0A0F5F"></path>
                                    <path d="M2.33074024,58.5155719 C3.36749701,57.7887065 5.74375072,58.9316666 6.50650199,60.8113744 C7.26925326,62.6910822 8.44475863,64.4381599 9.47155965,66.2021413 C10.4983607,67.9661228 17.1192007,74.5692758 17.901707,77.2039355 C18.0531435,77.7138143 17.062257,76.3383692 16.0495249,75.9232346 C15.48999,75.6938726 13.4430205,75.9797904 13.0443344,76.5389678 C12.1716548,77.7629452 12.3565277,78.3245143 12.2033349,78.124396 C10.195724,75.5018205 8.93205533,73.3800225 8.08793449,71.0225985 C7.03385031,68.0787979 6.50650199,66.2999236 5.74375072,65.6861839 C4.98099945,65.0724442 1.72551648,62.6411509 1.42123696,61.2742798 C1.11695744,59.9074087 1.29398347,59.2424373 2.33074024,58.5155719 Z" id="Path-95" fill="#F5F7F9" transform="translate(9.602113, 68.229277) rotate(185.000000) translate(-9.602113, -68.229277) "></path>
                                    <path d="M24.8952927,30.8178334 C24.3359834,32.0621896 26.8941779,36.9080804 24.8952927,39.6088293 C22.8964075,42.3095782 29.7097704,70.4083168 30.9210813,70.5177027 C32.1323922,70.6270886 34.7885197,71.2107246 34.7494706,69.2439812 C34.7104215,67.2772377 32.6605411,66.3808608 32.5658766,65.188261 C32.502767,64.3931945 31.7025087,56.4289375 30.1651019,41.2954899 C32.3203703,45.0040943 34.0853738,46.7382433 35.4601124,46.497937 C37.5222203,46.1374775 36.6700137,40.1053812 37.2025959,38.6754395 C37.7351782,37.2454978 32.3820855,30.6175508 29.6754703,29.9351737 C26.968855,29.2527967 25.454602,29.5734773 24.8952927,30.8178334 Z" id="Path-94" fill="#0A0F5F"></path>
                                </g>
                            </g>
                            <g id="Group-7" transform="translate(77.749104, 60.489130)">
                                <g id="Group-5" transform="translate(0.000000, 18.260870)">
                                    <polygon id="Path-147-Copy" fill="#8E43D0" points="-2.27373675e-13 4.17218602 1.57745224 11.7616491 5.97941454 9.684683 17.3899839 24.6799057 33.3548704 17.663937 33.3548704 15.6619521 14.3390958 6.78768447 15.1132351 3.96718283 -2.27373675e-13 0.0588201669"></polygon>
                                    <polygon id="Path-147" fill="#A168D3" points="0 0 2.0123504 9.58225366 6.32741563 7.61951496 17.7239947 21.9800011 33.4164318 15.6433718 11.5556719 5.49909783 15.2109517 3.92977079"></polygon>
                                </g>
                                <g id="Group-5-Copy-2" transform="translate(50.308244, 0.000000)">
                                    <polygon id="Path-147" fill="#8E43D0" points="3.69335548 4.17050146 0.224979405 8.78759578 0.224979405 9.97578422 3.3261506 9.2085378 5.92488907 23.2770047 21.6486753 18.5113353 21.6486753 17.4296224 10.5094591 7.53860119 12.3046184 5.58132854 6.94805432 5.58132854"></polygon>
                                    <polygon id="Path-147" fill="#A168D3" points="2.65081381 0.563976864 0.224979405 8.83447987 3.69335548 7.94560225 6.59557523 21.7283981 21.6486753 17.3700309 9.18861631 6.51509601 12.5522293 5.52882901"></polygon>
                                </g>
                                <g id="Group-6" transform="translate(103.474910, 11.983696) scale(-1, 1) translate(-103.474910, -11.983696) translate(92.612903, 0.000000)">
                                    <polygon id="Path-147" fill="#8E43D0" points="3.69335548 4.17050146 0.224979405 8.78759578 0.224979405 9.97578422 3.3261506 9.2085378 5.92488907 23.2770047 21.6486753 18.5113353 21.6486753 17.4296224 10.5094591 7.53860119 12.3046184 5.58132854 6.94805432 5.58132854"></polygon>
                                    <polygon id="Path-147" fill="#A168D3" points="2.65081381 0.563976864 0.224979405 8.83447987 3.69335548 7.94560225 6.59557523 21.7283981 21.6486753 17.3700309 9.18861631 6.51509601 12.5522293 5.52882901"></polygon>
                                </g>
                                <g id="Group-5-Copy" transform="translate(138.347670, 26.250000) scale(-1, 1) translate(-138.347670, -26.250000) translate(121.197133, 13.695652)">
                                    <polygon id="Path-147-Copy" fill="#8E43D0" points="-2.27373675e-13 4.17218602 1.57745224 11.7616491 5.97941454 9.684683 17.3899839 24.6799057 33.3548704 17.663937 33.3548704 15.6619521 14.3390958 6.78768447 15.1132351 3.96718283 -2.27373675e-13 0.0588201669"></polygon>
                                    <polygon id="Path-147" fill="#A168D3" points="0 0 2.0123504 9.58225366 6.32741563 7.61951496 17.7239947 21.9800011 33.4164318 15.6433718 11.5556719 5.49909783 15.2109517 3.92977079"></polygon>
                                </g>
                            </g>
                            <g id="Group-4" transform="translate(113.193548, 76.467391)">
                                <g id="Group-3" transform="translate(10.290323, 0.000000)">
                                    <path d="M12.8453151,111.847826 C9.03686349,89.1829347 9.48604774,76.6487363 14.1928678,74.2452309 C18.899688,71.8417256 28.0322369,73.0434783 41.5905147,77.850489 C49.2523717,80.0730621 54.0353591,82.6627895 55.9394769,85.6196711 C58.7956535,90.0549934 57.1716548,99.5655124 45.7330124,97.8467643 C38.1072509,96.7009322 29.5673417,92.6252344 20.1132849,85.6196711 L17.894911,111.847826 L12.8453151,111.847826 Z" id="Path-145-Copy" fill="#141A74"></path>
                                    <path d="M2.56798536,115.271739 C-1.25983329,92.6068477 -0.808364806,80.0726493 3.92239082,77.669144 C8.65314644,75.2656386 17.832137,76.4673913 31.4593625,81.274402 C46.5620407,84.0288166 55.0702802,86.8844648 56.9840809,89.8413463 C59.8547821,94.2766687 55.8810062,104.161248 44.3841951,102.4425 C36.7196544,101.296668 25.2158943,96.8303628 9.87291483,89.0435841 L7.64325987,115.271739 L2.56798536,115.271739 Z" id="Path-145" fill="#0A0F5F"></path>
                                    <path d="M16.2183846,47.0296634 L32.7772037,57.8676109 C36.6325158,57.9120538 38.7750837,58.162319 39.2049074,58.6184065 C40.232733,59.7090359 40.8062655,62.7341214 37.6398139,62.7707015 C35.5288461,62.7950882 33.7477417,62.389621 32.2965006,61.5542997 L12.7106589,51.3148021 C11.1726981,48.8910305 11.0239607,47.1935926 12.2644466,46.2224883 C13.5049325,45.2513841 14.8229118,45.5204424 16.2183846,47.0296634 Z" id="Path-120" fill="#EEF1F5" transform="translate(25.725806, 54.211957) scale(-1, 1) rotate(-142.000000) translate(-25.725806, -54.211957) "></path>
                                    <path d="M32.9321032,28.8347011 C31.5763184,23.9575136 29.3880411,5.70144176 45.765967,6.90736671 C56.6845843,7.71131667 59.1197673,15.954848 53.071516,31.6379607 C54.1495511,43.2714691 54.6277242,49.3755562 54.5060354,49.9502218 C54.2200848,51.3006012 36.142868,53.8630603 36.8299852,53.0739551 C37.6322419,52.1526204 39.0028461,46.7660517 40.9417978,36.9142488 C36.5058579,34.7793421 33.8359597,32.0861595 32.9321032,28.8347011 Z" id="Path-23" fill="#F5F7F9"></path>
                                    <path d="M32.9618402,61.5425577 C30.1897372,67.21648 27.4250376,70.0534411 24.6677415,70.0534411 C20.5317974,70.0534411 16.7193315,67.2639204 17.1900139,65.1405585 C17.6606964,63.0171967 21.6476757,56.03063 27.5948173,51.3988133 C33.5419589,46.7669965 35.1275919,45.179462 43.8268672,44.394958 C52.5261425,43.6104539 58.0707322,42.6222716 60.2849807,44.2398635 C62.4992293,45.8574554 64.9528889,48.1340769 63.6790775,54.6464882 C62.8298699,58.9880958 61.2737936,70.4725606 59.0108487,89.0998828 C58.6488794,91.4734667 57.4289367,92.9825302 55.3510207,93.6270734 C46.901972,96.2478611 37.5269517,93.7426359 32.0790986,90.7880921 C28.4471966,88.8183962 26.3737664,84.610772 25.8588081,78.1652194 L32.9618402,61.5425577 Z" id="Path-143" fill="#5A98FF"></path>
                                    <path d="M34.3010753,46.7934783 C35.6756548,43.6552835 38.2645938,41.9728792 42.0678921,41.7462653 C47.7728397,41.4063446 53.5540394,39.7733305 54.5752723,39.9605484 C55.5965052,40.1477662 57.3394094,41.5967478 57.1549067,43.3695652 C57.0319049,44.5514435 49.4139611,45.6927478 34.3010753,46.7934783 Z" id="Path-144" fill="#357DF4"></path>
                                    <path d="M33.0007134,11.0454722 C32.7994066,9.70032364 30.9428405,11.5622598 29.9980589,8.54542551 C29.3682045,6.53420264 29.8384648,4.8152886 31.4088398,3.38868336 C31.5600264,4.22809835 31.7640383,4.81027995 32.0208754,5.13522813 C32.2777125,5.46017632 32.756753,5.74218706 33.457997,5.98126034 C33.1890417,4.12944809 33.1890417,2.803372 33.457997,2.00303207 C33.7269523,1.20269215 34.3078696,0.53501479 35.2007491,0 C35.372577,0.89206526 35.5088001,1.55974262 35.6094184,2.00303207 C35.7100367,2.44632153 35.9561422,2.72263271 36.3477348,2.83196561 C36.4385647,1.85952515 36.5712369,1.15639703 36.7457516,0.722581247 C36.9202663,0.288765459 37.1673402,0.0479050437 37.4869733,0 C37.9431215,1.20383531 38.3416549,1.9870796 38.6825732,2.34973285 C39.5232923,3.24405108 40.6909956,3.46114424 41.7417829,3.61751355 C44.276695,3.99473782 55.7736679,4.54416065 57.1325419,9.29622659 C58.491416,14.0482925 58.9137401,8.18442777 59.4950769,9.29622659 C60.0764137,10.4080254 59.7234282,11.6091009 59.0612289,12.9185394 C58.7660858,13.5021579 60.1711705,13.6906518 60.7030725,14.3928816 C61.3645751,15.2662133 60.9121781,17.0328128 61.3790232,17.4302569 C62.1652437,18.099598 61.6740012,17.7280049 59.9052957,16.3154776 C59.8823121,20.4990515 59.1470301,23.9968387 57.6994496,26.8088393 C55.5280789,31.0268401 55.4070276,33.3504648 53.7125024,33.6580034 C52.0179772,33.965542 43.8372302,34.9478608 42.5271641,33.3504648 C41.2170979,31.7530688 40.5812394,28.4436053 39.5981088,27.4948815 C39.1167786,27.0303965 38.1304778,25.6984735 37.4869733,24.8154058 C36.8161014,23.8947825 36.5806436,22.7457316 35.8776682,22.7471034 C34.5003944,22.749791 34.7682983,25.5686199 33.9526612,23.9444305 C33.1370242,22.3202411 34.1984439,18.6439016 33.9526612,17.9384058 C33.7694973,17.4126511 32.777116,16.3129195 32.4868747,14.0031792 C32.3876491,13.2135424 33.15355,12.0667386 33.0007134,11.0454722 Z" id="Path-146" fill="#0A0F5F"></path>
                                </g>
                                <path d="M0,124.541321 C10.0831335,107.042691 20.247183,96.7631449 30.4921484,93.7026833 C45.8595966,89.1119908 49.8558843,99.5410404 54.4195699,99.2525979 C68.1940918,98.3819949 67.9023591,88.7540419 70.1969866,87.463215 C78.6667665,90.7204007 89.8221524,102.507614 103.663144,122.824854 C78.6506752,129.575932 60.9183042,133.13197 50.4660314,133.492968 C40.0137585,133.853966 23.191748,130.870084 0,124.541321 Z" id="Path-142" fill="#E8E8E8"></path>
                            </g>
                        </g>
                    </g>
                </g>
            </g>
        </g>
    </g>
</svg>