<svg width="49" height="49" viewBox="0 0 49 49" fill="none" xmlns="http://www.w3.org/2000/svg">
<path d="M24.5 47C36.9264 47 47 36.9264 47 24.5C47 12.0736 36.9264 2 24.5 2C12.0736 2 2 12.0736 2 24.5C2 36.9264 12.0736 47 24.5 47Z" stroke="white" stroke-width="2.2" stroke-linecap="round"/>
<path d="M36.2875 13.0409C35.8636 13.0352 35.3412 13.1991 35.3412 13.1991L9.46304 23.3858C9.46304 23.3858 8.2968 23.5062 8.14855 23.9609C8.03064 24.3228 8.72365 24.9468 8.72365 24.9468L15.7888 27.4937L17.8525 34.0171L15.912 27.4937L31.6855 17.2655L32.2603 17.4299L32.0552 17.8819L19.5677 29.1782L19.0615 35.1812L18.9927 35.8325L19.0058 35.844L18.9927 35.9964L18.3307 35.5289L18.3356 35.546L19.4856 36.4494L19.5664 36.3684L19.6086 36.4083L23.6753 32.3008C23.6753 32.3008 23.6525 32.2837 23.6514 32.2837L23.7573 32.1774L30.576 37.4352C30.576 37.4352 31.3661 37.6516 31.7262 37.5174C31.9439 37.4364 32.2189 37.0244 32.2189 37.0244L37.3947 14.4324C37.3947 14.4324 37.0969 13.3581 36.6553 13.1179C36.5588 13.0665 36.4284 13.0442 36.2871 13.042L36.2875 13.0409Z" fill="white"/>
</svg>
