<svg width="313" height="168" viewBox="0 0 313 168" fill="none" xmlns="http://www.w3.org/2000/svg">
<path fill-rule="evenodd" clip-rule="evenodd" d="M12.8159 125.38C12.8933 124.172 13.9534 122.646 15.9963 120.802C18.0391 118.959 20.0524 118.038 22.036 118.038C25.1817 124.975 36.4177 128.444 55.7439 128.444C75.0702 128.444 86.4468 124.559 89.8737 116.79C93.4307 117.537 95.6872 118.142 96.6433 118.607C99.1088 119.804 100.805 121.277 101.732 123.024C91.5126 133.791 76.6933 139.174 57.2737 139.174C37.8541 139.174 23.0349 134.576 12.8159 125.38Z" fill="#AB6818"/>
<path fill-rule="evenodd" clip-rule="evenodd" d="M55.6548 129.261C74.7504 129.261 90.2304 123.827 90.2304 117.124C90.2304 115.848 90.5958 112.377 89.5884 111.101C85.3024 105.67 71.6645 102.917 56.203 102.917C38.0878 102.917 22.6082 106.393 21.0793 112.809C20.9965 113.156 21.0793 116.78 21.0793 117.124C21.0793 123.827 36.5593 129.261 55.6548 129.261Z" fill="#AB6818"/>
<path d="M89.2303 112.269C89.2303 113.529 88.5052 114.87 86.8745 116.224C85.2499 117.572 82.8391 118.831 79.7721 119.907C73.6472 122.057 65.1204 123.406 55.6547 123.406C46.1889 123.406 37.6622 122.057 31.5373 119.907C28.4702 118.831 26.0594 117.572 24.4349 116.224C22.8042 114.87 22.0791 113.529 22.0791 112.269C22.0791 111.009 22.8042 109.668 24.4349 108.314C26.0594 106.966 28.4702 105.707 31.5373 104.631C37.6622 102.481 46.1889 101.132 55.6547 101.132C65.1204 101.132 73.6472 102.481 79.7721 104.631C82.8391 105.707 85.2499 106.966 86.8745 108.314C88.5052 109.668 89.2303 111.009 89.2303 112.269Z" fill="#F7931A" stroke="black" stroke-width="2"/>
<path d="M55.6418 159.639C36.6673 159.639 22.7154 155.099 13.5869 146.202V127.048C24.3289 135.231 38.8804 139.267 57.1305 139.267C75.382 139.267 89.9354 134.693 100.674 125.44V144.374C89.568 154.519 74.5947 159.639 55.6418 159.639Z" fill="#F7931A" stroke="black" stroke-width="2"/>
<path d="M309.574 75.805L176.863 141.588L2.4028 60.8515L132.953 1.75981L309.574 75.805Z" fill="#BCC5CD" stroke="black" stroke-width="2"/>
<path d="M214.202 33.144L88.6698 89.583C80.1145 80.0328 70.9534 73.0607 61.1799 68.7039C51.6555 64.4582 34.4187 59.5243 9.54354 53.8941L134.384 1.03246C162.364 5.46631 180.351 9.29926 188.473 12.5145C196.28 15.6048 204.859 22.437 214.202 33.144Z" fill="#E8EDF2" stroke="black" stroke-width="2"/>
<path d="M129.069 101.252C119.371 96.7015 106.88 93.0192 91.6209 90.1883L216.596 34.118C232.291 36.214 243.87 38.7667 251.393 41.7519C258.85 44.7113 275.931 53.4872 302.7 68.1286L174.373 129.801C154.442 115.598 139.331 106.066 129.069 101.252Z" fill="#E8EDF2" stroke="black" stroke-width="2"/>
<path d="M88.6335 90.5148L87.9356 89.8432L214.142 31.7307L216.081 32.9748L90.6396 90.7216L88.6335 90.5148Z" fill="#BCC5CD" stroke="black"/>
<path d="M239.111 37.2299L239.146 37.2981L239.191 37.3601C240.077 38.5783 240.826 40.4728 241.319 42.7562C241.81 45.0231 242.032 47.598 241.918 50.1213C241.803 52.649 241.353 55.0823 240.528 57.0852C239.702 59.092 238.535 60.5892 237.031 61.389C236.407 61.7206 229.577 64.8088 220.252 69.0246C216.055 70.9222 211.353 73.0483 206.484 75.2543C192.498 81.591 177.189 88.5636 168.753 92.5784C170.263 88.6663 170.069 84.2528 169.382 80.5449C168.523 75.9138 166.848 72.1311 166.372 71.2825C163.814 66.7245 160.874 62.7461 157.704 59.9585C155.721 58.2151 153.609 56.9043 151.417 56.2372C157.816 53.5997 166.468 50.0506 175.276 46.4373C179.129 44.8569 183.011 43.2643 186.749 41.7303C193.738 38.8612 200.219 36.1972 205.041 34.203C207.452 33.206 209.45 32.3758 210.891 31.7709C212.295 31.1813 213.239 30.7776 213.47 30.6549C216.802 28.8831 221.983 28.054 226.985 28.945C231.967 29.8323 236.619 32.3925 239.111 37.2299Z" fill="#D3DAE0" stroke="black" stroke-width="2"/>
<path d="M217.215 92.6689L217.073 92.5428C217.079 92.4455 217.091 92.3163 217.112 92.1592C217.164 91.7648 217.274 91.1953 217.506 90.514C217.969 89.1539 218.92 87.3409 220.878 85.578C222.561 84.0621 224.858 82.8632 227.793 81.9992L307.931 153.548C305.396 154.62 303.263 155.98 301.541 157.636C299.795 159.315 298.477 161.491 297.578 164.146L237.211 110.454L221.976 96.9035L218.167 93.5158L217.215 92.6689Z" fill="#DEE3E8" stroke="black"/>
<path d="M210.211 68.0662L225.555 81.7627C223.346 82.6217 221.657 83.6041 220.525 84.7271C219.376 85.8669 218.114 87.6386 216.738 90.0157C211.832 85.3809 208.134 81.8655 205.645 79.4688C204.361 78.2328 203.4 77.2962 202.762 76.6577C202.442 76.3378 202.206 76.0962 202.051 75.9305C202.016 75.8925 201.986 75.8596 201.961 75.8317C201.997 75.5525 202.108 74.8909 202.419 74.0108C202.832 72.8428 203.591 71.3091 204.974 69.7972C205.968 68.7115 207.669 68.0952 210.211 68.0662Z" fill="#BCC5CD" stroke="black"/>
<path d="M306.074 161.99C304.513 163.447 302.888 164.505 301.538 165.05C300.861 165.322 300.279 165.455 299.823 165.461C299.366 165.467 299.091 165.347 298.934 165.178C298.777 165.01 298.677 164.727 298.714 164.272C298.752 163.817 298.925 163.246 299.244 162.59C299.881 161.281 301.051 159.734 302.612 158.278C304.174 156.822 305.799 155.763 307.149 155.219C307.825 154.946 308.408 154.813 308.864 154.807C309.321 154.802 309.596 154.922 309.753 155.09C309.91 155.258 310.01 155.541 309.973 155.996C309.935 156.451 309.762 157.023 309.442 157.679C308.805 158.987 307.636 160.534 306.074 161.99Z" fill="#BCC5CD" stroke="black"/>
<path d="M165.981 72.0363C168.251 77.3824 169.18 82.6731 168.868 86.8932C168.554 91.1425 167.004 94.154 164.485 95.2232C161.967 96.2923 158.723 95.3153 155.449 92.5893C152.197 89.8819 149.036 85.5384 146.767 80.1924C144.498 74.8464 143.569 69.5557 143.88 65.3355C144.194 61.0863 145.744 58.0747 148.263 57.0056C150.782 55.9364 154.025 56.9134 157.299 59.6395C160.552 62.3468 163.712 66.6903 165.981 72.0363Z" fill="#BCC5CD" stroke="black"/>
</svg>
