<svg width="313" height="202" viewBox="0 0 313 202" fill="none" xmlns="http://www.w3.org/2000/svg">
<path fill-rule="evenodd" clip-rule="evenodd" d="M12.8159 159.109C12.8933 157.9 13.9534 156.374 15.9963 154.53C18.0391 152.687 20.0524 151.766 22.036 151.766C25.1817 158.703 36.4177 162.172 55.7439 162.172C75.0702 162.172 86.4468 158.287 89.8737 150.518C93.4307 151.265 95.6872 151.87 96.6433 152.335C99.1088 153.532 100.805 155.005 101.732 156.752C91.5126 167.519 76.6933 172.902 57.2737 172.902C37.8541 172.902 23.0349 168.304 12.8159 159.109Z" fill="#460F87"/>
<path fill-rule="evenodd" clip-rule="evenodd" d="M55.6548 162.989C74.7504 162.989 90.2304 157.555 90.2304 150.852C90.2304 149.576 90.5958 146.105 89.5884 144.829C85.3024 139.398 71.6645 136.645 56.203 136.645C38.0878 136.645 22.6082 140.121 21.0793 146.537C20.9965 146.884 21.0793 150.508 21.0793 150.852C21.0793 157.555 36.5593 162.989 55.6548 162.989Z" fill="#460F87"/>
<path d="M89.7303 145.997C89.7303 147.465 88.884 148.934 87.1938 150.336C85.5067 151.737 83.0355 153.02 79.9377 154.107C73.7468 156.28 65.1614 157.634 55.6547 157.634C46.1479 157.634 37.5626 156.28 31.3717 154.107C28.2739 153.02 25.8026 151.737 24.1155 150.336C22.4254 148.934 21.5791 147.465 21.5791 145.997C21.5791 144.529 22.4254 143.06 24.1155 141.658C25.8026 140.257 28.2739 138.974 31.3717 137.887C37.5626 135.714 46.1479 134.36 55.6547 134.36C65.1614 134.36 73.7468 135.714 79.9377 137.887C83.0355 138.974 85.5067 140.257 87.1938 141.658C88.884 143.06 89.7303 144.529 89.7303 145.997Z" fill="#6600DE" stroke="black"/>
<path d="M55.6418 193.868C36.4924 193.868 22.3412 189.261 13.0869 180.141V159.753C23.7872 168.267 38.4884 172.495 57.1305 172.495C75.7733 172.495 90.4755 167.703 101.174 158.062V178.322C89.9384 188.669 74.78 193.868 55.6418 193.868Z" fill="#6600DE" stroke="black"/>
<path d="M310.777 109.495L176.87 175.871L1.2014 94.5745L132.945 34.9425L310.777 109.495Z" fill="#BCC5CD" stroke="black"/>
<path d="M306.921 108.782L177.343 172.657L174.613 165.076L304.509 103.082L306.921 108.782Z" fill="#D3DAE0" stroke="black"/>
<path d="M215.021 67.0522L88.5408 123.917C79.953 114.269 70.766 107.253 60.9763 102.889C51.3097 98.5795 33.6102 93.5407 7.91699 87.7679L134.321 34.2443C162.37 38.6858 180.46 42.533 188.657 45.7777C196.695 48.9596 205.485 56.0278 215.021 67.0522Z" fill="#E8EDF2" stroke="black"/>
<path d="M128.857 135.432C118.878 130.75 105.904 126.982 89.9472 124.119L216.521 67.3316C232.298 69.4326 243.974 71.9978 251.577 75.0152C259.148 78.0197 276.543 86.968 303.795 101.885L174.323 164.108C154.276 149.812 139.116 140.246 128.857 135.432Z" fill="#E8EDF2" stroke="black"/>
<path d="M87.7713 125.096L87.9007 125.242L88.0955 125.262C102.223 126.705 114.955 130.099 126.295 135.436C137.625 140.769 153.347 150.762 173.472 165.436C174.424 167.966 175.113 169.843 175.542 171.071C175.568 171.147 175.594 171.22 175.618 171.291C171.389 168.081 163.711 163.928 154.571 159.467C145.275 154.929 134.424 150.052 124.056 145.498C118.859 143.215 113.79 141.015 109.096 138.979C104.417 136.948 100.111 135.08 96.4245 133.452C92.7363 131.824 89.6826 130.443 87.5126 129.39C86.4265 128.864 85.5702 128.423 84.9691 128.077C84.6676 127.903 84.4401 127.759 84.283 127.645C84.2044 127.587 84.1511 127.543 84.1176 127.511C84.1065 127.5 84.0994 127.492 84.0952 127.488C84.0322 127.37 83.9424 127.271 83.8598 127.192C83.767 127.103 83.654 127.012 83.527 126.919C83.2729 126.734 82.9318 126.522 82.5112 126.282C80.4193 125.092 72.7703 121.779 59.6273 116.36C46.5641 110.975 28.034 103.494 4.0378 93.9175L7.24578 88.8082C32.346 94.3053 49.8916 99.3136 59.9197 103.827C69.9706 108.351 79.2553 115.435 87.7713 125.096Z" fill="#D3DAE0" stroke="black"/>
<path d="M88.6335 124.243L87.9356 123.571L214.142 65.4587L216.081 66.7029L90.6396 124.45L88.6335 124.243Z" fill="#BCC5CD" stroke="black"/>
<mask id="path-11-inside-1" fill="white">
<path fill-rule="evenodd" clip-rule="evenodd" d="M178.717 120.735C183.131 121.735 186.28 121.735 188.164 120.733C195.275 116.952 196.978 106.126 191.339 94.5098C185.7 82.8933 174.82 78.4825 167.709 82.2635C165.57 83.4009 163.967 85.2527 162.925 87.5755"/>
</mask>
<path fill-rule="evenodd" clip-rule="evenodd" d="M178.717 120.735C183.131 121.735 186.28 121.735 188.164 120.733C195.275 116.952 196.978 106.126 191.339 94.5098C185.7 82.8933 174.82 78.4825 167.709 82.2635C165.57 83.4009 163.967 85.2527 162.925 87.5755" fill="#DEE3E8"/>
<path d="M191.339 94.5098L190.44 94.9464L190.44 94.9464L191.339 94.5098ZM178.496 121.71C180.747 122.22 182.716 122.485 184.389 122.485C186.055 122.485 187.494 122.222 188.633 121.616L187.694 119.85C186.949 120.246 185.872 120.485 184.389 120.485C182.914 120.485 181.101 120.25 178.938 119.759L178.496 121.71ZM188.633 121.616C192.539 119.54 194.883 115.562 195.524 110.69C196.165 105.826 195.124 100.018 192.239 94.0731L190.44 94.9464C193.193 100.618 194.12 106.031 193.541 110.429C192.963 114.82 190.9 118.146 187.694 119.85L188.633 121.616ZM192.239 94.0731C186.473 82.1938 175.064 77.2203 167.239 81.3805L168.178 83.1464C174.576 79.7446 184.928 83.5929 190.44 94.9464L192.239 94.0731ZM167.239 81.3805C164.875 82.6374 163.131 84.6724 162.012 87.1662L163.837 87.9848C164.802 85.8331 166.264 84.1643 168.178 83.1464L167.239 81.3805Z" fill="black" mask="url(#path-11-inside-1)"/>
<mask id="path-13-inside-2" fill="white">
<path fill-rule="evenodd" clip-rule="evenodd" d="M167.332 90.3129L168.823 89.7431C169.41 89.5185 170.069 89.5836 170.602 89.9187C173.761 91.907 176.311 94.7474 178.253 98.4397C180.167 102.08 181.17 106.014 181.263 110.242L181.263 110.242C181.281 111.057 180.803 111.801 180.055 112.123L178.892 112.624C178.555 107.744 177.375 103.35 175.35 99.4439C173.326 95.5373 170.653 92.4937 167.332 90.3129Z"/>
</mask>
<path fill-rule="evenodd" clip-rule="evenodd" d="M167.332 90.3129L168.823 89.7431C169.41 89.5185 170.069 89.5836 170.602 89.9187C173.761 91.907 176.311 94.7474 178.253 98.4397C180.167 102.08 181.17 106.014 181.263 110.242L181.263 110.242C181.281 111.057 180.803 111.801 180.055 112.123L178.892 112.624C178.555 107.744 177.375 103.35 175.35 99.4439C173.326 95.5373 170.653 92.4937 167.332 90.3129Z" fill="#BCC5CD"/>
<path d="M167.332 90.3129L166.975 89.3788L165.149 90.0764L166.783 91.1488L167.332 90.3129ZM168.823 89.7431L169.18 90.6772L169.18 90.6772L168.823 89.7431ZM170.602 89.9187L170.069 90.765L170.069 90.765L170.602 89.9187ZM178.253 98.4397L179.138 97.9743L179.138 97.9743L178.253 98.4397ZM181.263 110.242L180.263 110.264L180.293 111.619L181.579 111.191L181.263 110.242ZM181.263 110.242L182.263 110.22L182.233 108.865L180.947 109.293L181.263 110.242ZM180.055 112.123L180.45 113.041L180.45 113.041L180.055 112.123ZM178.892 112.624L177.894 112.692L177.992 114.1L179.288 113.542L178.892 112.624ZM167.689 91.247L169.18 90.6772L168.466 88.809L166.975 89.3788L167.689 91.247ZM169.18 90.6772C169.473 90.5649 169.803 90.5974 170.069 90.765L171.135 89.0724C170.336 88.5697 169.347 88.4721 168.466 88.809L169.18 90.6772ZM170.069 90.765C173.062 92.6489 175.498 95.3498 177.367 98.9052L179.138 97.9743C177.124 94.145 174.459 91.1652 171.135 89.0724L170.069 90.765ZM177.367 98.9052C179.208 102.404 180.174 106.186 180.263 110.264L182.263 110.22C182.167 105.842 181.126 101.755 179.138 97.9743L177.367 98.9052ZM181.579 111.191L181.579 111.191L180.947 109.293L180.947 109.293L181.579 111.191ZM180.263 110.264C180.272 110.671 180.033 111.043 179.659 111.204L180.45 113.041C181.573 112.558 182.29 111.442 182.263 110.22L180.263 110.264ZM179.659 111.204L178.496 111.705L179.288 113.542L180.45 113.041L179.659 111.204ZM179.89 112.555C179.544 107.554 178.332 103.025 176.238 98.9838L174.462 99.9039C176.417 103.676 177.566 107.934 177.894 112.692L179.89 112.555ZM176.238 98.9838C174.144 94.9417 171.36 91.7617 167.88 89.477L166.783 91.1488C169.946 93.2257 172.509 96.133 174.462 99.9039L176.238 98.9838Z" fill="black" mask="url(#path-13-inside-2)"/>
<path d="M237.327 92.7758C236.813 93.7812 235.681 94.7506 234.4 95.6021C233.356 96.2957 232.269 96.8759 231.443 97.3116C231.469 97.109 231.51 96.8528 231.564 96.5376C231.594 96.3647 231.627 96.1782 231.663 95.9789C231.865 94.8413 232.143 93.2856 232.305 91.466C232.687 87.1868 232.443 81.384 229.118 75.8329C224.788 68.6033 219.831 65.804 215.947 64.8103C214.219 64.3682 212.717 64.2868 211.594 64.3225C212.335 63.9314 213.188 63.56 214.369 63.0463C215.105 62.7258 215.969 62.3499 217.012 61.8793C218.851 61.0493 222.35 61.1187 226.088 62.7584C229.796 64.385 233.665 67.5302 236.234 72.7259C238.192 76.6848 238.747 81.1584 238.663 84.938C238.621 86.8249 238.421 88.5291 238.16 89.8959C237.898 91.2752 237.582 92.2758 237.327 92.7758Z" fill="#BCC5CD" stroke="black"/>
<path d="M214.663 106.927C212.857 107.888 204.981 111.77 191.02 118.581C193.228 114.839 194.384 110.988 194.47 107.035C194.568 102.554 193.292 97.9761 190.673 93.3081C188.053 88.6407 184.862 85.2897 181.086 83.2993C178.189 81.7725 174.972 81.0595 171.447 81.1473C178.853 78.0808 184.671 75.6542 188.901 73.8679C193.68 71.85 196.461 70.6372 197.199 70.2446C200.582 68.446 204.207 68.6945 207.668 70.6683C211.147 72.6518 214.456 76.3809 217.102 81.5168C219.739 86.6343 220.829 92.1144 220.397 96.7577C219.965 101.407 218.019 105.143 214.663 106.927Z" fill="#D3DAE0" stroke="black"/>
<path d="M217.215 126.397L217.073 126.271C217.079 126.174 217.091 126.044 217.112 125.887C217.164 125.493 217.274 124.923 217.506 124.242C217.969 122.882 218.92 121.069 220.878 119.306C222.561 117.79 224.858 116.591 227.793 115.727L307.931 187.276C305.396 188.348 303.263 189.708 301.541 191.364C299.795 193.043 298.477 195.22 297.578 197.874L237.211 144.182L221.976 130.632L218.167 127.244L217.215 126.397Z" fill="#DEE3E8" stroke="black"/>
<mask id="path-18-inside-3" fill="white">
<path fill-rule="evenodd" clip-rule="evenodd" d="M148.004 90.3818L159.665 86.7715C160.013 86.6637 160.384 86.6531 160.738 86.7408C167.83 88.4993 172.865 93.0622 175.843 100.43C178.767 107.663 179.537 114.775 178.155 121.764H178.155C178.039 122.352 177.664 122.857 177.135 123.14L166.223 128.967"/>
</mask>
<path fill-rule="evenodd" clip-rule="evenodd" d="M148.004 90.3818L159.665 86.7715C160.013 86.6637 160.384 86.6531 160.738 86.7408C167.83 88.4993 172.865 93.0622 175.843 100.43C178.767 107.663 179.537 114.775 178.155 121.764H178.155C178.039 122.352 177.664 122.857 177.135 123.14L166.223 128.967" fill="#D3DAE0"/>
<path d="M159.665 86.7715L159.961 87.7268L159.961 87.7268L159.665 86.7715ZM160.738 86.7408L160.978 85.7702L160.978 85.7702L160.738 86.7408ZM175.843 100.43L174.916 100.804L175.843 100.43ZM178.155 121.764L177.174 121.57L176.938 122.764H178.155V121.764ZM178.155 121.764L179.136 121.958L179.372 120.764H178.155V121.764ZM177.135 123.14L177.606 124.022L177.606 124.022L177.135 123.14ZM148.3 91.3371L159.961 87.7268L159.369 85.8163L147.709 89.4265L148.3 91.3371ZM159.961 87.7268C160.135 87.6729 160.32 87.6676 160.497 87.7114L160.978 85.7702C160.448 85.6387 159.891 85.6546 159.369 85.8163L159.961 87.7268ZM160.497 87.7114C167.248 89.3853 172.046 93.7038 174.916 100.804L176.77 100.055C173.685 92.4206 168.412 87.6134 160.978 85.7702L160.497 87.7114ZM174.916 100.804C177.774 107.875 178.515 114.789 177.174 121.57L179.136 121.958C180.56 114.76 179.759 107.451 176.77 100.055L174.916 100.804ZM178.155 122.764H178.155V120.764H178.155V122.764ZM177.174 121.57C177.116 121.864 176.929 122.117 176.664 122.258L177.606 124.022C178.4 123.598 178.961 122.84 179.136 121.958L177.174 121.57ZM176.664 122.258L165.752 128.085L166.694 129.849L177.606 124.022L176.664 122.258Z" fill="black" mask="url(#path-18-inside-3)"/>
<path d="M218.951 82.9763C216.397 77.0827 212.293 72.4242 206.655 69.0073C207.616 67.3046 208.725 66.1038 209.969 65.367C211.304 64.5762 212.832 64.2969 214.58 64.551C215.792 64.7271 218.647 65.7464 221.715 68.1787C224.769 70.6004 228.016 74.4088 230.042 80.1411C232.064 85.864 232.367 91.7104 230.95 97.6924C228.611 98.9537 226.612 99.7451 224.948 100.088C223.237 100.44 221.927 100.308 220.96 99.7815C220.959 99.781 220.958 99.7806 220.957 99.7801C220.943 99.7729 220.914 99.7584 220.895 99.6387C220.869 99.4828 220.88 99.2426 220.931 98.867C220.96 98.6525 221.002 98.3998 221.049 98.113C221.158 97.4571 221.296 96.6225 221.379 95.6575C221.622 92.8249 221.423 88.6811 218.951 82.9763Z" fill="#D3DAE0" stroke="black"/>
<path d="M223.217 89.9396C223.277 90.5941 222.904 91.212 222.296 91.4633L221.451 91.8127C221.234 88.4272 220.112 84.8582 218.111 81.1105C217.134 79.2822 214.987 76.4505 211.708 72.6363L212.418 72.2335C212.418 72.2335 212.418 72.2335 212.418 72.2335C212.891 71.9654 213.471 71.9739 213.936 72.2556C217.249 74.2647 219.583 77.1294 220.944 80.8686C222.218 84.3672 222.971 87.3865 223.217 89.9328C223.217 89.9351 223.217 89.9373 223.217 89.9396Z" fill="#BCC5CD" stroke="black"/>
<path d="M210.211 101.794L225.555 115.491C223.346 116.35 221.657 117.332 220.525 118.455C219.376 119.595 218.114 121.367 216.738 123.744C211.832 119.109 208.134 115.594 205.645 113.197C204.361 111.961 203.4 111.024 202.762 110.386C202.442 110.066 202.206 109.824 202.051 109.659C202.016 109.621 201.986 109.588 201.961 109.56C201.997 109.281 202.108 108.619 202.419 107.739C202.832 106.571 203.591 105.037 204.974 103.525C205.968 102.44 207.669 101.823 210.211 101.794Z" fill="#BCC5CD" stroke="black"/>
<path d="M306.074 195.719C304.513 197.175 302.888 198.234 301.538 198.778C300.861 199.05 300.279 199.184 299.823 199.189C299.366 199.195 299.091 199.075 298.934 198.907C298.777 198.738 298.677 198.455 298.714 198.001C298.752 197.545 298.925 196.974 299.244 196.318C299.881 195.009 301.051 193.462 302.612 192.006C304.174 190.55 305.799 189.491 307.149 188.947C307.825 188.674 308.408 188.541 308.864 188.535C309.321 188.53 309.596 188.65 309.753 188.818C309.91 188.987 310.01 189.269 309.973 189.724C309.935 190.179 309.762 190.751 309.442 191.407C308.805 192.715 307.636 194.262 306.074 195.719Z" fill="#BCC5CD" stroke="black"/>
<path d="M166.302 105.963C168.571 111.309 169.5 116.6 169.188 120.82C168.874 125.069 167.324 128.081 164.806 129.15C162.287 130.219 159.044 129.242 155.769 126.516C152.517 123.809 149.356 119.465 147.087 114.119C144.818 108.773 143.889 103.482 144.201 99.2622C144.514 95.013 146.064 92.0014 148.583 90.9322C151.102 89.8631 154.345 90.8401 157.62 93.5661C160.872 96.2735 164.032 100.617 166.302 105.963Z" fill="#BCC5CD" stroke="black"/>
<path fill-rule="evenodd" clip-rule="evenodd" d="M43.3365 83.2724C41.3266 96.8769 40.0467 106.306 39.4969 111.56C37.0589 134.86 38.7418 142.94 38.7418 143.709C38.7418 144.961 40.1652 145.613 43.0121 145.666C49.5412 116.59 54.0215 101.274 56.4528 99.718C60.0999 97.3835 64.0881 131.467 65.5293 134.522C65.8002 135.097 66.7977 135.747 67.4732 136.078C67.9399 136.307 68.6941 136.431 69.7357 136.452L71.4039 75.5086C65.9442 79.2315 61.4033 81.4092 57.7813 82.0418C54.1593 82.6743 49.3444 83.0845 43.3365 83.2724Z" fill="#0A0F5F"/>
<path d="M40.3535 145.385C39.7022 144.978 39.1451 144.599 38.6851 144.25C38.4997 144.374 38.2851 144.615 38.0601 145.051C37.9867 145.194 37.9041 145.342 37.8233 145.487L37.811 145.509C37.7248 145.663 37.6397 145.817 37.5593 145.973C37.3973 146.287 37.2678 146.589 37.2042 146.878C37.1418 147.161 37.1464 147.417 37.2354 147.656C37.3243 147.895 37.515 148.164 37.9074 148.446C37.9972 148.51 38.1928 148.617 38.4839 148.762C38.7174 148.877 38.9876 149.005 39.2714 149.14C39.3288 149.167 39.3868 149.194 39.4451 149.222C40.1084 149.536 40.8694 149.901 41.2369 150.176C41.2956 150.22 41.375 150.282 41.4724 150.358C41.8597 150.66 42.532 151.185 43.326 151.687C44.3398 152.327 45.4291 152.847 46.2624 152.856C47.21 152.866 47.8361 152.743 48.225 152.577C48.6094 152.413 48.7163 152.23 48.7444 152.124C48.7743 152.012 48.7519 151.848 48.6088 151.655C48.4668 151.463 48.23 151.281 47.9342 151.174C46.731 150.736 45.7329 150.092 43.858 148.426C43.3521 147.976 42.9543 147.182 42.624 146.141C41.8318 146.092 41.073 145.836 40.3535 145.385Z" fill="#BCC5CD" stroke="black"/>
<path d="M67.1103 136.14C66.459 135.732 65.9019 135.353 65.442 135.004C65.2566 135.128 65.0419 135.369 64.8169 135.806C64.7435 135.948 64.6609 136.096 64.5802 136.241L64.5679 136.263C64.4817 136.418 64.3966 136.571 64.3162 136.727C64.1541 137.041 64.0246 137.343 63.961 137.632C63.8987 137.916 63.9032 138.171 63.9923 138.41C64.0811 138.649 64.2718 138.919 64.6643 139.2C64.754 139.264 64.9496 139.372 65.2407 139.516C65.4742 139.632 65.7445 139.76 66.0283 139.894C66.0857 139.921 66.1436 139.949 66.2019 139.976C66.8653 140.291 67.6263 140.655 67.9937 140.93C68.0525 140.974 68.1318 141.036 68.2292 141.112C68.6166 141.414 69.2889 141.939 70.0828 142.441C71.0967 143.082 72.1859 143.601 73.0193 143.61C73.9668 143.62 74.593 143.497 74.9818 143.331C75.3662 143.167 75.4731 142.984 75.5012 142.878C75.5312 142.766 75.5087 142.602 75.3656 142.409C75.2236 142.217 74.9869 142.036 74.691 141.928C73.4878 141.49 72.4897 140.846 70.6149 139.18C70.109 138.73 69.7111 137.937 69.3809 136.895C68.5886 136.846 67.8298 136.59 67.1103 136.14Z" fill="#BCC5CD" stroke="black"/>
<path d="M77.0724 28.0699L77.3948 27.9546L77.4037 27.6123L77.8854 9.27646H81.9151C82.8518 16.4435 83.3802 21.9721 83.5036 25.8705C83.5667 27.8608 83.5235 29.4087 83.3802 30.5258C83.3086 31.0846 83.2138 31.5198 83.1021 31.8419C82.9877 32.1722 82.8712 32.3372 82.7878 32.4091C82.3111 32.8201 81.2074 33.4242 79.6887 34.0985C78.1909 34.7635 76.3451 35.473 74.4328 36.1044C72.52 36.736 70.5499 37.2865 68.8025 37.6366C67.0385 37.99 65.5581 38.1271 64.5966 37.9727C62.6504 37.66 61.1025 36.4376 60.1847 34.9487C59.2588 33.4464 59.0223 31.759 59.5582 30.5353C60.1007 29.2963 61.2351 28.4567 62.8936 28.0371C64.5601 27.6155 66.7149 27.6322 69.1849 28.0908C72.5579 28.717 75.2082 28.7372 77.0724 28.0699Z" fill="#4E90FF" stroke="black"/>
<path fill-rule="evenodd" clip-rule="evenodd" d="M59.4719 21.899C59.8391 18.3323 59.481 3.28588 47.2984 6.5182C39.1766 8.67307 38.5221 15.5766 45.3347 27.2287C44.1856 32.6936 43.6954 35.6155 43.8643 35.9946C45.7115 40.1409 54.6648 41.4907 58.0926 40.1095C60.5796 39.1073 59.6117 36.3759 59.2559 35.3875C59.0188 34.7286 57.4227 32.0232 54.4677 27.2712C57.559 26.0675 59.2271 24.2768 59.4719 21.899Z" fill="#D3DAE0"/>
<path fill-rule="evenodd" clip-rule="evenodd" d="M73.241 24.6003C73.0651 24.5261 73.5829 23.7042 74.7942 22.1344C76.6112 19.7798 81.023 19.7371 79.0036 23.541C77.6574 26.0768 77.0353 27.1383 77.1374 26.7255L73.241 24.6003Z" fill="#D3DAE0"/>
<path fill-rule="evenodd" clip-rule="evenodd" d="M77.6786 8.69129C77.4856 8.53627 77.4843 7.49882 77.6747 5.57893C77.9602 2.69911 81.1675 1.38007 81.4529 5.58371C81.6431 8.38614 81.7017 9.42366 81.6287 8.69628L77.6786 8.69129Z" fill="#D3DAE0"/>
<path fill-rule="evenodd" clip-rule="evenodd" d="M46.1553 9.22919C44.5761 9.74231 43.2844 10.6922 44.5937 14.3583C45.9029 18.0244 44.5636 21.6701 41.9391 22.0736C39.3146 22.477 37.2317 19.4354 37.2218 13.5244C37.2119 7.61333 42.7309 4.572 46.3321 4.39965C49.9333 4.2273 56.3397 -3.49599 59.107 5.02094C61.8743 13.5379 47.7346 8.71606 46.1553 9.22919Z" fill="#32C098"/>
<path d="M67.0835 42.9867L67.0834 42.9867L67.0862 42.9979C69.7236 53.5587 71.2513 61.836 71.6803 67.8429C71.8948 70.8475 71.8326 73.2617 71.5068 75.0997C71.179 76.9485 70.597 78.1428 69.837 78.7974C67.6795 80.6555 63.0718 82.9409 58.1781 84.1962C54.7922 85.0647 51.3008 85.5673 48.4997 85.7504C47.0987 85.8419 45.8798 85.8529 44.9387 85.7919C44.4678 85.7615 44.0753 85.7135 43.7687 85.6515C43.4508 85.5871 43.2681 85.5158 43.1845 85.4627C43.0683 85.3888 42.9145 85.185 42.7951 84.7213C42.68 84.2746 42.6194 83.6742 42.6101 82.9413C42.5915 81.4787 42.7775 79.5872 43.0558 77.5559C43.3335 75.5288 43.6998 73.3852 44.0358 71.4223L44.0455 71.3654C44.3764 69.4318 44.6784 67.6673 44.8297 66.3882C45.1524 63.6592 44.0653 61.3559 42.5685 58.8811C42.1964 58.266 41.7987 57.6395 41.3864 56.99C40.1234 55.0003 38.7237 52.7954 37.5078 50.0458C36.4778 47.7169 36.4633 45.3708 37.4706 42.9737C38.4554 40.6302 40.4272 38.2162 43.4388 35.7394C46.2326 37.5683 48.705 38.8153 50.8511 39.4593C53.074 40.1264 54.9965 40.1606 56.5651 39.4645C57.3445 39.1186 57.9529 38.6358 58.3487 37.9992C58.7454 37.3614 58.9025 36.6112 58.851 35.7771C58.7559 34.2349 57.9445 32.3477 56.5059 30.1394C58.3551 29.0104 60.0342 28.3805 61.548 28.2161C61.7078 28.1987 62.0078 28.2907 62.4525 28.8663C62.8803 29.4201 63.3481 30.3056 63.8484 31.5535C64.846 34.0417 65.9253 37.8467 67.0835 42.9867Z" fill="#5A98FF" stroke="black"/>
<path d="M36.9694 40.4905C37.7421 39.7087 38.5319 39.3353 39.2999 39.2025C40.0759 39.0684 40.8635 39.1745 41.6309 39.4064C42.3998 39.6387 43.1267 39.9902 43.7793 40.3282C43.8999 40.3907 44.0202 40.454 44.1392 40.5167C44.6341 40.7772 45.1056 41.0255 45.4739 41.1462C46.3147 41.4216 48.8761 42.0879 51.5655 42.5204C52.9117 42.7368 54.3047 42.8972 55.5392 42.9181C56.7528 42.9387 57.8919 42.8274 58.6771 42.441C59.2217 42.173 59.8984 41.5467 60.6902 40.6545C61.4979 39.7443 62.4734 38.5005 63.6151 36.9287C65.8473 33.8556 68.7354 29.5 72.2775 23.8668L77.0358 26.4265C74.5911 30.8545 72.5865 34.3853 71.0212 37.0206C69.3968 39.7553 68.2632 41.4951 67.6077 42.2797C67.5549 42.3429 67.5002 42.4086 67.4436 42.4766C65.3012 45.0494 60.4177 50.9137 51.0267 51.4355C41.1547 51.984 37.9303 50.6661 36.3999 49.0761C34.8564 47.4724 33.8216 43.6756 36.9694 40.4905Z" fill="#3D83F9" stroke="black"/>
</svg>
