<svg width="51" height="51" viewBox="0 0 51 51" fill="none" xmlns="http://www.w3.org/2000/svg">
<path d="M22.1829 38.415C24.6038 38.2022 26.4201 37.6831 28.4503 36.6251C31.7009 34.9311 34.3686 31.9156 35.7885 28.3303C36.5758 26.3423 36.9255 24.6786 36.9866 22.6302L37.0217 21.4503L37.367 21.1971C38.1198 20.6451 39.9146 18.6909 39.7262 18.6281C39.6945 18.6221 39.4359 18.6949 39.1516 18.7998C38.6127 18.9989 37.442 19.3017 36.9131 19.3792L36.606 19.4208L37.0034 19.1289C37.509 18.7563 38.0448 18.1979 38.3861 17.6872C38.6687 17.2646 39.0744 16.4152 39.0199 16.3607C39.0021 16.3428 38.7045 16.4703 38.3586 16.6437C37.689 16.9799 36.6447 17.3612 35.9149 17.5351L35.4707 17.6412L35.0232 17.259C33.8978 16.3013 32.7566 15.8788 31.2852 15.8762C29.1165 15.8727 27.2733 16.9895 26.2096 18.9521C25.7331 19.8311 25.5051 21.0716 25.6199 22.1603C25.6577 22.5192 25.6801 22.8218 25.6695 22.8323C25.614 22.8919 24.1378 22.7053 23.3567 22.5467C21.1243 22.0931 19.1432 21.2528 17.2934 19.9746C16.3107 19.2955 14.9805 18.093 14.2033 17.1809C14.0952 17.054 13.9852 16.9501 13.9588 16.9501C13.8621 16.9501 13.5163 17.8153 13.3621 18.4432C12.8225 20.6399 13.6411 22.9249 15.4753 24.342L15.6867 24.5054L15.2908 24.4695C14.8021 24.4338 13.9494 24.1912 13.5515 23.9886C13.3877 23.9045 13.2285 23.8365 13.1979 23.8365C13.0597 23.8365 13.1703 24.8246 13.3872 25.5279C13.94 27.3203 15.3524 28.7515 17.1252 29.3158C17.4041 29.4046 17.5414 29.4755 17.4905 29.503C17.3175 29.5995 16.1722 29.6747 15.6898 29.6205C15.4218 29.5907 15.1912 29.5787 15.1775 29.5906C15.1389 29.6264 15.4811 30.411 15.687 30.7549C16.2339 31.6682 17.1424 32.4937 18.1323 32.9768C18.5975 33.2033 19.5867 33.4912 19.9073 33.4924C20.0257 33.4928 20.1856 33.5103 20.2627 33.5282C20.3897 33.558 20.3673 33.5918 20.0256 33.8398C18.8397 34.7028 17.3278 35.3695 15.8174 35.6954C14.8631 35.901 14.1972 35.9618 13.1266 35.9391C12.56 35.9272 12.0964 35.9212 12.0964 35.9331C12.0965 35.9377 12.3259 36.0811 12.6062 36.2504C15.3345 37.8924 18.9133 38.7003 22.1828 38.4124L22.1829 38.415Z" fill="white"/>
<path d="M25.5 49C38.4787 49 49 38.4787 49 25.5C49 12.5213 38.4787 2 25.5 2C12.5213 2 2 12.5213 2 25.5C2 38.4787 12.5213 49 25.5 49Z" stroke="white" stroke-width="2.2" stroke-linecap="round"/>
</svg>
