<svg width="285" height="272" viewBox="0 0 285 272" fill="none" xmlns="http://www.w3.org/2000/svg">
<circle cx="8.83117" cy="119.221" r="7.83117" stroke="#6600DE" stroke-width="2"/>
<circle cx="84.7792" cy="263.169" r="7.83117" stroke="#6600DE" stroke-width="2"/>
<circle cx="188.104" cy="235.792" r="7.83117" stroke="#6600DE" stroke-width="2"/>
<circle cx="275.533" cy="101.558" r="7.83117" stroke="#6600DE" stroke-width="2"/>
<circle cx="173.974" cy="8.83117" r="7.83117" stroke="#6600DE" stroke-width="2"/>
<path d="M209.676 122.364V123.364H210.676H214.479C218.842 123.364 222.398 126.915 222.429 131.285C222.429 131.286 222.429 131.287 222.429 131.288L222.429 151.18C222.429 155.545 218.877 159.096 214.512 159.096H210.709H209.709V160.096V182.978C209.709 191.737 202.583 198.893 193.794 198.893H74.9925C69.2507 198.893 64.5844 194.227 64.5844 188.485V76.5681V76.5677V76.5674V76.567V76.5666V76.5662V76.5658V76.5654V76.5651V76.5647V76.5643V76.5639V76.5635V76.5631V76.5627V76.5624V76.562V76.5616V76.5612V76.5608V76.5604V76.5601V76.5597V76.5593V76.5589V76.5585V76.5581V76.5578V76.5574V76.557V76.5566V76.5562V76.5558V76.5554V76.5551V76.5547V76.5543V76.5539V76.5535V76.5531V76.5528V76.5524V76.552V76.5516V76.5512V76.5508V76.5505V76.5501V76.5497V76.5493V76.5489V76.5485V76.5481V76.5478V76.5474V76.547V76.5466V76.5462V76.5458V76.5455V76.5451V76.5447V76.5443V76.5439V76.5435V76.5432V76.5428V76.5424V76.542V76.5416V76.5412V76.5408V76.5405V76.5401V76.5397V76.5393V76.5389V76.5385V76.5382V76.5378V76.5374V76.537V76.5366V76.5362V76.5359V76.5355V76.5351V76.5347V76.5343V76.5339V76.5336V76.5332V76.5328V76.5324V76.532V76.5316V76.5312V76.5309V76.5305V76.5301V76.5297V76.5293V76.5289V76.5286V76.5282V76.5278V76.5274V76.527V76.5266V76.5263V76.5259V76.5255V76.5251V76.5247V76.5243V76.5239V76.5236V76.5232V76.5228V76.5224V76.522V76.5216V76.5213V76.5209V76.5205V76.5201V76.5197V76.5193V76.519V76.5186V76.5182V76.5178V76.5174V76.517V76.5166V76.5163V76.5159V76.5155V76.5151V76.5147V76.5143V76.514V76.5136V76.5132V76.5128V76.5124V76.512V76.5117V76.5113V76.5109V76.5105V76.5101V76.5097V76.5093V76.509V76.5086V76.5082V76.5078V76.5074V76.507V76.5067V76.5063V76.5059V76.5055V76.5051V76.5047V76.5044V76.504V76.5036V76.5032V76.5028V76.5024V76.502V76.5017V76.5013V76.5009V76.5005V76.5001V76.4997V76.4994V76.499V76.4986V76.4982V76.4978V76.4974V76.4971V76.4967V76.4963V76.4959V76.4955V76.4951V76.4948V76.4944V76.494V76.4936V76.4932V76.4928V76.4924V76.4921V76.4917V76.4913V76.4909V76.4905V76.4901V76.4898V76.4894V76.489V76.4886V76.4882V76.4878V76.4875V76.4871V76.4867V76.4863V76.4859V76.4855V76.4851V76.4848V76.4844V76.484V76.4836V76.4832V76.4828V76.4825V76.4821V76.4817V76.4813V76.4809V76.4805V76.4802V76.4798V76.4794V76.479V76.4786V76.4782V76.4778V76.4775V76.4771V76.4767V76.4763V76.4759V76.4755V76.4752V76.4748V76.4744V76.474V76.4736V76.4732V76.4729V76.4725V76.4721V76.4717V76.4713V76.4709V76.4705V76.4702V76.4698V76.4694V76.469V76.4686V76.4682V76.4679V76.4675V76.4671V76.4667V76.4663V76.4659V76.4656V76.4652V76.4648V76.4644V76.464V76.4636V76.4632V76.4629V76.4625V76.4621V76.4617V76.4613V76.4609V76.4606V76.4602V76.4598V76.4594V76.459V76.4586V76.4583V76.4579V76.4575V76.4571V76.4567V76.4563V76.4559V76.4556V76.4552V76.4548V76.4544V76.454V76.4536V76.4533V76.4529V76.4525V76.4521V76.4517V76.4513V76.451V76.4506V76.4502V76.4498V76.4494V76.449V76.4487V76.4483V76.4479V76.4475V76.4471V76.4467V76.4463V76.446V76.4456V76.4452V76.4448V76.4444V76.444V76.4437V76.4433V76.4429V76.4425V76.4421V76.4417V76.4414V76.441V76.4406V76.4402V76.4398V76.4394V76.439V76.4387V76.4383V76.4379V76.4375V76.4371V76.4367V76.4364V76.436V76.4356V76.4352V76.4348V76.4344V76.4341V76.4337V76.4333V76.4329V76.4325V76.4321V76.4317V76.4314V76.431V76.4306V76.4302V76.4298V76.4294V76.4291V76.4287V76.4283V76.4279V76.4275V76.4271V76.4268V76.4264V76.426V76.4256V76.4252V76.4248V76.4244V76.4241V76.4237V76.4233V76.4229V76.4225V76.4221V76.4218V76.4214V76.421V76.4206V76.4202V76.4198V76.4195V76.4191V76.4187V76.4183V76.4179V76.4175V76.4171V76.4168V76.4164V76.416V76.4156V76.4152V76.4148V76.4145V76.4141V76.4137V76.4133V76.4129V76.4125V76.4122V76.4118V76.4114V76.411V76.4106V76.4102V76.4099V76.4095V76.4091V76.4087V76.4083V76.4079V76.4075V76.4072V76.4068V76.4064V76.406V76.4056V76.4052V76.4049V76.4045V76.4041V76.4037V76.4033V76.4029V76.4026V76.4022V76.4018V76.4014V76.401V76.4006V76.4002V76.3999V76.3995V76.3991V76.3987V76.3983V76.3979V76.3976V76.3972V76.3968V76.3964V76.396V76.3956V76.3953V76.3949V76.3945V76.3941V76.3937V76.3933V76.3929V76.3926V76.3922V76.3918V76.3914V76.391V76.3906V76.3903V76.3899V76.3895V76.3891V76.3887V76.3883V76.388V76.3876V76.3872V76.3868V76.3864V76.386V76.3856V76.3853V76.3849V76.3845V76.3841V76.3837V76.3833V76.383V76.3826V76.3822V76.3818V76.3814V76.381V76.3807V76.3803V76.3799V76.3795V76.3791V76.3787V76.3783V76.378C64.679 69.3573 70.4262 63.7014 77.4511 63.7014H178.878C184.619 63.7014 189.285 68.3667 189.286 74.1076C189.286 74.1083 189.286 74.1089 189.286 74.1095L189.253 82.5961L189.249 83.6H190.253H193.761C202.52 83.6 209.676 90.7261 209.676 99.5154V122.364ZM183.419 74.0806V74.0767C183.419 71.5782 181.352 69.5691 178.878 69.5691H77.4511C73.5808 69.5691 70.452 72.7448 70.452 76.6009C70.452 80.4642 73.5879 83.6 77.4511 83.6H182.386H183.382L183.386 82.6038L183.419 74.0806ZM71.8536 88.19L70.4193 87.4985V89.0908V188.452C70.4193 190.978 72.4793 192.993 74.9597 192.993H193.761C199.296 192.993 203.809 188.48 203.809 182.945V160.096V159.096H202.809H175.96C171.596 159.096 168.044 155.545 168.044 151.18V131.281C168.044 126.916 171.596 123.364 175.96 123.364H202.809H203.809V122.364V99.5154C203.809 93.9803 199.296 89.4676 193.761 89.4676H77.4511C75.4421 89.4676 73.5577 89.0116 71.8536 88.19ZM214.479 153.229C215.621 153.229 216.528 152.322 216.528 151.18V131.281C216.528 130.118 215.568 129.232 214.479 129.232H175.993C174.831 129.232 173.944 130.192 173.944 131.281V151.18C173.944 152.322 174.851 153.229 175.993 153.229H214.479Z" stroke="#6600DE" stroke-width="2"/>
<line x1="132.351" y1="62.7014" x2="132.351" y2="7.94817" stroke="#6600DE" stroke-width="2"/>
<line x1="8.83347" y1="158.844" x2="63.5866" y2="158.971" stroke="#6600DE" stroke-width="2"/>
<line x1="7.83116" y1="159.907" x2="7.83123" y2="128.052" stroke="#6600DE" stroke-width="2"/>
<line x1="165.183" y1="9.52645" x2="133.332" y2="8.94802" stroke="#6600DE" stroke-width="2"/>
<line x1="83.7792" y1="254.338" x2="83.7792" y2="199.584" stroke="#6600DE" stroke-width="2"/>
<line x1="211.948" y1="102.325" x2="266.701" y2="102.325" stroke="#6600DE" stroke-width="2"/>
<line x1="188.455" y1="199.561" x2="189.104" y2="226.937" stroke="#6600DE" stroke-width="2"/>
</svg>
