<svg width="405" height="66" viewBox="0 0 405 66" fill="none" xmlns="http://www.w3.org/2000/svg">
<path d="M157.649 23.7056V27.491H160.568V29.5571H157.649V39.2518C157.649 39.8778 157.779 40.3498 158.039 40.6677C158.299 40.9759 158.742 41.13 159.369 41.13C159.677 41.13 160.101 41.0722 160.64 40.9566V43.1238C159.937 43.3165 159.253 43.4128 158.588 43.4128C157.394 43.4128 156.493 43.0516 155.887 42.3292C155.28 41.6068 154.976 40.581 154.976 39.2518V29.5571H152.13V27.491H154.976V23.7056H157.649ZM166.376 29.3837C167.561 27.9293 169.102 27.2021 170.999 27.2021C174.303 27.2021 175.969 29.0659 175.998 32.7935V43.1238H173.325V32.779C173.316 31.6521 173.056 30.8189 172.545 30.2795C172.044 29.7401 171.259 29.4704 170.19 29.4704C169.323 29.4704 168.562 29.7016 167.907 30.1639C167.252 30.6263 166.742 31.2331 166.376 31.9844V43.1238H163.703V20.9316H166.376V29.3837ZM186.488 43.4128C184.368 43.4128 182.644 42.7193 181.315 41.3323C179.986 39.9356 179.321 38.0718 179.321 35.7409V35.2496C179.321 33.6989 179.615 32.3167 180.203 31.103C180.8 29.8798 181.628 28.9262 182.688 28.2423C183.757 27.5488 184.913 27.2021 186.155 27.2021C188.188 27.2021 189.767 27.8715 190.894 29.2104C192.021 30.5492 192.585 32.466 192.585 34.9607V36.0732H181.994C182.033 37.6143 182.481 38.8617 183.338 39.8152C184.205 40.7592 185.303 41.2311 186.632 41.2311C187.576 41.2311 188.375 41.0385 189.03 40.6532C189.685 40.2679 190.258 39.7574 190.75 39.1217L192.382 40.3932C191.072 42.4063 189.107 43.4128 186.488 43.4128ZM186.155 29.3982C185.076 29.3982 184.171 29.7931 183.439 30.5829C182.707 31.3631 182.254 32.4612 182.081 33.8771H189.912V33.6748C189.835 32.3167 189.469 31.2668 188.814 30.5251C188.159 29.7738 187.273 29.3982 186.155 29.3982ZM207.986 36.4922L208.391 39.2662L208.983 36.7667L213.144 22.0875H215.485L219.545 36.7667L220.123 39.3096L220.571 36.4777L223.836 22.0875H226.624L221.524 43.1238H218.996L214.661 27.7944L214.329 26.1907L213.997 27.7944L209.503 43.1238H206.975L201.889 22.0875H204.663L207.986 36.4922ZM232.201 43.1238H229.528V27.491H232.201V43.1238ZM229.312 23.3444C229.312 22.911 229.442 22.545 229.702 22.2464C229.971 21.9478 230.366 21.7985 230.886 21.7985C231.407 21.7985 231.802 21.9478 232.071 22.2464C232.341 22.545 232.476 22.911 232.476 23.3444C232.476 23.7779 232.341 24.1391 232.071 24.428C231.802 24.717 231.407 24.8615 230.886 24.8615C230.366 24.8615 229.971 24.717 229.702 24.428C229.442 24.1391 229.312 23.7779 229.312 23.3444ZM240.119 23.7056V27.491H243.037V29.5571H240.119V39.2518C240.119 39.8778 240.249 40.3498 240.509 40.6677C240.769 40.9759 241.212 41.13 241.838 41.13C242.146 41.13 242.57 41.0722 243.11 40.9566V43.1238C242.406 43.3165 241.723 43.4128 241.058 43.4128C239.864 43.4128 238.963 43.0516 238.356 42.3292C237.749 41.6068 237.446 40.581 237.446 39.2518V29.5571H234.6V27.491H237.446V23.7056H240.119ZM248.701 27.491L248.788 29.456C249.982 27.9534 251.542 27.2021 253.469 27.2021C256.773 27.2021 258.439 29.0659 258.468 32.7935V43.1238H255.795V32.779C255.785 31.6521 255.525 30.8189 255.015 30.2795C254.514 29.7401 253.729 29.4704 252.66 29.4704C251.793 29.4704 251.032 29.7016 250.377 30.1639C249.722 30.6263 249.211 31.2331 248.845 31.9844V43.1238H246.173V27.491H248.701ZM268.986 43.4128C266.867 43.4128 265.143 42.7193 263.814 41.3323C262.484 39.9356 261.82 38.0718 261.82 35.7409V35.2496C261.82 33.6989 262.114 32.3167 262.701 31.103C263.298 29.8798 264.127 28.9262 265.186 28.2423C266.255 27.5488 267.411 27.2021 268.654 27.2021C270.686 27.2021 272.266 27.8715 273.393 29.2104C274.52 30.5492 275.083 32.466 275.083 34.9607V36.0732H264.493C264.531 37.6143 264.979 38.8617 265.836 39.8152C266.703 40.7592 267.801 41.2311 269.13 41.2311C270.074 41.2311 270.874 41.0385 271.529 40.6532C272.184 40.2679 272.757 39.7574 273.248 39.1217L274.881 40.3932C273.571 42.4063 271.606 43.4128 268.986 43.4128ZM268.654 29.3982C267.575 29.3982 266.67 29.7931 265.937 30.5829C265.205 31.3631 264.753 32.4612 264.579 33.8771H272.41V33.6748C272.333 32.3167 271.967 31.2668 271.312 30.5251C270.657 29.7738 269.771 29.3982 268.654 29.3982ZM281.816 23.7056V27.491H284.734V29.5571H281.816V39.2518C281.816 39.8778 281.946 40.3498 282.206 40.6677C282.466 40.9759 282.909 41.13 283.535 41.13C283.843 41.13 284.267 41.0722 284.807 40.9566V43.1238C284.104 43.3165 283.42 43.4128 282.755 43.4128C281.561 43.4128 280.66 43.0516 280.053 42.3292C279.446 41.6068 279.143 40.581 279.143 39.2518V29.5571H276.297V27.491H279.143V23.7056H281.816ZM308.415 35.4808C308.415 37.8599 307.871 39.7767 306.782 41.2311C305.694 42.6856 304.22 43.4128 302.361 43.4128C300.464 43.4128 298.971 42.8108 297.882 41.6068V49.1342H295.209V27.491H297.651L297.781 29.2248C298.869 27.8763 300.382 27.2021 302.318 27.2021C304.196 27.2021 305.679 27.91 306.768 29.3259C307.866 30.7418 308.415 32.7116 308.415 35.2352V35.4808ZM305.742 35.1774C305.742 33.4147 305.366 32.0229 304.615 31.0019C303.864 29.9809 302.833 29.4704 301.523 29.4704C299.905 29.4704 298.691 30.188 297.882 31.6232V39.0928C298.682 40.5184 299.905 41.2311 301.552 41.2311C302.833 41.2311 303.849 40.7255 304.601 39.7141C305.361 38.6931 305.742 37.1809 305.742 35.1774ZM319.381 29.8894C318.976 29.822 318.538 29.7883 318.066 29.7883C316.313 29.7883 315.124 30.5348 314.497 32.0277V43.1238H311.825V27.491H314.425L314.469 29.297C315.345 27.9004 316.588 27.2021 318.196 27.2021C318.716 27.2021 319.111 27.2695 319.381 27.4043V29.8894ZM320.855 35.163C320.855 33.6315 321.153 32.2541 321.75 31.0308C322.357 29.8075 323.195 28.8636 324.264 28.199C325.343 27.5344 326.571 27.2021 327.949 27.2021C330.077 27.2021 331.797 27.9389 333.107 29.4126C334.426 30.8863 335.086 32.8464 335.086 35.293V35.4808C335.086 37.0027 334.792 38.3704 334.205 39.5841C333.627 40.7881 332.794 41.7272 331.705 42.4014C330.626 43.0757 329.384 43.4128 327.977 43.4128C325.858 43.4128 324.139 42.676 322.82 41.2022C321.51 39.7285 320.855 37.7781 320.855 35.3508V35.163ZM323.542 35.4808C323.542 37.2146 323.942 38.6064 324.741 39.6563C325.55 40.7062 326.629 41.2311 327.977 41.2311C329.336 41.2311 330.414 40.7014 331.214 39.6419C332.013 38.5727 332.413 37.0797 332.413 35.163C332.413 33.4485 332.004 32.0614 331.185 31.0019C330.376 29.9328 329.297 29.3982 327.949 29.3982C326.629 29.3982 325.565 29.9231 324.756 30.973C323.946 32.0229 323.542 33.5255 323.542 35.4808ZM342.064 23.7056V27.491H344.983V29.5571H342.064V39.2518C342.064 39.8778 342.194 40.3498 342.454 40.6677C342.715 40.9759 343.158 41.13 343.784 41.13C344.092 41.13 344.516 41.0722 345.055 40.9566V43.1238C344.352 43.3165 343.668 43.4128 343.003 43.4128C341.809 43.4128 340.908 43.0516 340.302 42.3292C339.695 41.6068 339.391 40.581 339.391 39.2518V29.5571H336.545V27.491H339.391V23.7056H342.064ZM347.121 35.163C347.121 33.6315 347.42 32.2541 348.017 31.0308C348.624 29.8075 349.462 28.8636 350.531 28.199C351.61 27.5344 352.838 27.2021 354.215 27.2021C356.344 27.2021 358.063 27.9389 359.373 29.4126C360.693 30.8863 361.353 32.8464 361.353 35.293V35.4808C361.353 37.0027 361.059 38.3704 360.471 39.5841C359.893 40.7881 359.06 41.7272 357.972 42.4014C356.893 43.0757 355.65 43.4128 354.244 43.4128C352.125 43.4128 350.406 42.676 349.086 41.2022C347.776 39.7285 347.121 37.7781 347.121 35.3508V35.163ZM349.809 35.4808C349.809 37.2146 350.208 38.6064 351.008 39.6563C351.817 40.7062 352.896 41.2311 354.244 41.2311C355.602 41.2311 356.681 40.7014 357.48 39.6419C358.28 38.5727 358.68 37.0797 358.68 35.163C358.68 33.4485 358.27 32.0614 357.452 31.0019C356.642 29.9328 355.564 29.3982 354.215 29.3982C352.896 29.3982 351.831 29.9231 351.022 30.973C350.213 32.0229 349.809 33.5255 349.809 35.4808ZM370.975 41.2311C371.929 41.2311 372.762 40.9422 373.474 40.3643C374.187 39.7863 374.582 39.0639 374.659 38.197H377.188C377.139 39.0928 376.831 39.9453 376.263 40.7544C375.695 41.5634 374.934 42.2088 373.98 42.6904C373.036 43.172 372.034 43.4128 370.975 43.4128C368.846 43.4128 367.151 42.7048 365.889 41.2889C364.637 39.8634 364.011 37.9177 364.011 35.4519V35.004C364.011 33.4822 364.29 32.1289 364.849 30.9441C365.408 29.7594 366.207 28.8395 367.247 28.1845C368.297 27.5296 369.535 27.2021 370.96 27.2021C372.714 27.2021 374.168 27.727 375.324 28.7769C376.489 29.8268 377.111 31.1897 377.188 32.8657H374.659C374.582 31.8543 374.197 31.026 373.503 30.3806C372.819 29.7257 371.972 29.3982 370.96 29.3982C369.602 29.3982 368.548 29.8894 367.796 30.8719C367.055 31.8447 366.684 33.2558 366.684 35.1052V35.6108C366.684 37.412 367.055 38.7991 367.796 39.7719C368.538 40.7447 369.598 41.2311 370.975 41.2311ZM379.485 35.163C379.485 33.6315 379.783 32.2541 380.381 31.0308C380.987 29.8075 381.825 28.8636 382.895 28.199C383.973 27.5344 385.201 27.2021 386.579 27.2021C388.708 27.2021 390.427 27.9389 391.737 29.4126C393.056 30.8863 393.716 32.8464 393.716 35.293V35.4808C393.716 37.0027 393.422 38.3704 392.835 39.5841C392.257 40.7881 391.424 41.7272 390.335 42.4014C389.257 43.0757 388.014 43.4128 386.608 43.4128C384.489 43.4128 382.769 42.676 381.45 41.2022C380.14 39.7285 379.485 37.7781 379.485 35.3508V35.163ZM382.172 35.4808C382.172 37.2146 382.572 38.6064 383.371 39.6563C384.18 40.7062 385.259 41.2311 386.608 41.2311C387.966 41.2311 389.045 40.7014 389.844 39.6419C390.644 38.5727 391.043 37.0797 391.043 35.163C391.043 33.4485 390.634 32.0614 389.815 31.0019C389.006 29.9328 387.927 29.3982 386.579 29.3982C385.259 29.3982 384.195 29.9231 383.386 30.973C382.577 32.0229 382.172 33.5255 382.172 35.4808ZM399.972 43.1238H397.299V20.9316H399.972V43.1238Z" fill="white"/>
<path d="M49.4428 8.5535C37.5101 8.5535 27.7889 19.4448 27.7889 32.8121C27.7889 46.1793 37.5101 57.0693 49.4428 57.0693C61.3754 57.0693 71.0978 46.1793 71.0978 32.8121C71.0978 19.4448 61.3754 8.5535 49.4428 8.5535ZM49.4428 13.6367C58.923 13.6367 66.5601 22.192 66.5601 32.8121C66.5601 43.4321 58.923 51.9861 49.4428 51.9861C39.9625 51.9861 32.3265 43.4321 32.3265 32.8121C32.3265 22.192 39.9625 13.6367 49.4428 13.6367ZM49.4433 4.31299L47.3261 5.78596L8.48059 32.8116L49.4423 61.3097L90.405 32.811L49.4433 4.31299ZM49.4423 10.2042L81.9372 32.8116L49.4432 55.4184L16.9483 32.811L49.4423 10.2042Z" fill="white"/>
<path d="M94.625 37.3445C93.3078 37.3654 91.8699 37.7578 90.4146 38.7083L53.6826 64.2577L54.043 64.5086C55.0802 65.1805 56.4325 65.6459 57.9443 65.6219C59.2614 65.601 60.6994 65.2083 62.1547 64.2577L69.3809 59.2314V59.2325L98.8846 38.7082L98.499 38.4398C97.4653 37.7773 96.1234 37.3205 94.625 37.3444V37.3445Z" fill="white"/>
<path d="M40.9423 0.00106955C39.6252 0.0220057 38.1872 0.414662 36.732 1.36521L29.5058 6.39153V6.38877L0 26.9145C1.91024 28.3436 5.14571 29.0872 8.47204 26.9145L45.204 1.36504L44.8437 1.11423C43.8064 0.442222 42.4541 -0.023179 40.9423 0.000892067V0.00106955Z" fill="white"/>
</svg>
