<svg width="289" height="280" viewBox="0 0 289 280" fill="none" xmlns="http://www.w3.org/2000/svg">
<path d="M172.91 113.729L172.994 113.926L173.13 114.093L212.193 161.881L212.24 161.938L212.292 161.99L236.813 186.593H35.6362L31.9245 164.825C55.9046 109.801 74.0647 68.6108 86.4061 41.2495C92.5931 27.533 97.3131 17.3022 100.569 10.5491C102.199 7.16873 103.453 4.67997 104.335 3.06643C104.589 2.60318 104.805 2.22462 104.985 1.92452C105.221 2.05709 105.496 2.21133 105.809 2.38727C107.027 3.07167 108.824 4.08323 111.202 5.42207C115.882 8.05722 122.809 11.9596 131.981 17.1293L172.91 113.729Z" fill="#F5F7F9" stroke="black" stroke-width="3"/>
<path d="M134.834 21.7085L186.707 110.99L186.713 111L186.72 111.01C204.206 138.083 217.166 158.169 225.598 171.268C229.565 177.43 232.53 182.045 234.493 185.115C234.019 184.624 233.5 184.088 232.934 183.507C229.802 180.289 225.26 175.681 219.309 169.685C207.421 157.706 189.906 140.181 166.765 117.11L134.834 21.7085Z" fill="#B0B5BB" stroke="black"/>
<path d="M32.8073 159.044L38.8404 125.996L97.0091 14.3653L32.8073 159.044Z" fill="#B0B5BB" stroke="black"/>
<path d="M134.881 98.0904C141.047 98.7445 146.761 92.4078 147.643 83.9369C148.526 75.466 144.242 68.0688 138.075 67.4147C131.909 66.7606 126.195 73.0973 125.313 81.5682C124.431 90.039 128.714 97.4363 134.881 98.0904Z" fill="#460F87"/>
<path d="M136.187 97.596C141.668 98.1774 146.797 92.062 147.644 83.9369C148.49 75.8118 144.732 68.7537 139.251 68.1723C133.77 67.5909 128.64 73.7062 127.794 81.8314C126.948 89.9565 130.705 97.0145 136.187 97.596Z" fill="#6600DE"/>
<path fill-rule="evenodd" clip-rule="evenodd" d="M131.334 77.943L132.73 78.0911L133.758 86.4602L134.056 86.4918L137.102 78.7447L138.553 78.8987L139.937 87.1156L140.253 87.1491L142.965 79.1768L144.36 79.3248L141.168 88.4805L138.842 88.2337L137.634 80.681L134.897 87.8152L132.571 87.5685L131.334 77.943Z" fill="white"/>
<path d="M70.5703 121.933C76.7368 122.587 82.4508 116.251 83.3329 107.78C84.2151 99.3089 79.9313 91.9116 73.7649 91.2575C67.5985 90.6034 61.8845 96.9401 61.0023 105.411C60.1202 113.882 64.4039 121.279 70.5703 121.933Z" fill="#460F87"/>
<path d="M71.8766 121.439C77.3579 122.02 82.4873 115.905 83.3334 107.78C84.1796 99.6546 80.4221 92.5966 74.9408 92.0151C69.4596 91.4337 64.3302 97.5491 63.484 105.674C62.6379 113.799 66.3954 120.857 71.8766 121.439Z" fill="#6600DE"/>
<path fill-rule="evenodd" clip-rule="evenodd" d="M67.0244 101.786L68.4201 101.934L69.4488 110.303L69.7467 110.335L72.7922 102.588L74.2437 102.742L75.6271 110.958L75.9433 110.992L78.6549 103.02L80.0506 103.168L76.8584 112.323L74.5323 112.077L73.3243 104.524L70.5872 111.658L68.2611 111.411L67.0244 101.786Z" fill="white"/>
<path d="M33.0579 204.746C34.3685 205.326 34.4269 205.352 34.4295 205.353C34.4296 205.353 34.4296 205.353 34.4296 205.353L34.4292 205.354L34.4277 205.357L34.4216 205.371L34.3974 205.426L34.3006 205.645L33.9132 206.521L32.3636 210.024L26.1652 224.039L2.30357 277.991H229.514L205.151 246.163L205.108 246.108L205.071 246.049L167.253 185.809L167.154 185.652L167.097 185.476L127.427 63.5723C118.526 57.0404 111.807 52.111 107.269 48.7841C104.966 47.0964 103.226 45.8213 102.047 44.9586C101.816 44.7897 101.607 44.6366 101.419 44.4994C101.385 44.5624 101.35 44.6283 101.314 44.6971C100.741 45.7849 99.9441 47.4442 98.9488 49.6128C96.9619 53.9415 94.2261 60.2106 90.9923 67.7867C84.5265 82.9347 76.0891 103.263 67.7112 123.639C59.3338 144.014 51.0182 164.431 44.7968 179.755C41.6862 187.416 39.0991 193.805 37.2898 198.278C36.3851 200.514 35.6749 202.271 35.1908 203.47L34.6383 204.838L34.4968 205.189L34.461 205.277L34.452 205.3L34.4497 205.305C34.4492 205.307 34.449 205.307 33.0579 204.746ZM33.0579 204.746L34.4297 205.353L34.4397 205.33L34.449 205.307L33.0579 204.746Z" fill="#FAFCFF" stroke="black" stroke-width="3"/>
<path d="M129.519 67.8186L180.076 179.72L180.08 179.73L180.085 179.739C197.134 213.684 209.77 238.869 217.992 255.293C221.996 263.293 224.954 269.214 226.864 273.057C226.372 272.401 225.828 271.679 225.231 270.891C222.177 266.856 217.749 261.079 211.947 253.56C200.353 238.536 183.27 216.555 160.698 187.617L129.519 67.8186Z" fill="#D3DAE0" stroke="black"/>
<path d="M4.28947 275.433L10.065 244.073L89.7915 68.8948L4.28947 275.433Z" fill="#D3DAE0" stroke="black"/>
<path d="M196.847 217.14C204.217 212.671 205.305 200.841 199.278 190.718C193.251 180.595 182.391 176.011 175.022 180.48C167.652 184.949 166.564 196.778 172.591 206.902C178.618 217.025 189.478 221.609 196.847 217.14Z" fill="#460F87"/>
<path d="M197.885 215.493C204.435 211.52 205.059 200.428 199.278 190.718C193.497 181.008 183.501 176.357 176.95 180.329C170.4 184.301 169.776 195.393 175.557 205.103C181.338 214.814 191.334 219.465 197.885 215.493Z" fill="#6600DE"/>
<path fill-rule="evenodd" clip-rule="evenodd" d="M176.262 197.816L177.93 196.804L185.989 205.206L186.345 204.99L183.312 193.846L185.047 192.794L193.373 200.728L193.75 200.499L190.162 189.387L191.83 188.375L195.865 201.202L193.085 202.888L185.502 195.542L188.37 205.747L185.59 207.433L176.262 197.816Z" fill="white"/>
<path d="M282.243 229.961C285.975 224.964 283.536 216.757 276.796 211.631C270.056 206.505 261.567 206.401 257.836 211.398C254.104 216.396 256.543 224.603 263.283 229.729C270.023 234.855 278.512 234.959 282.243 229.961Z" fill="#460F87"/>
<path d="M282.496 228.577C285.813 224.135 283.261 216.547 276.796 211.631C270.331 206.714 262.401 206.329 259.084 210.772C255.767 215.214 258.319 222.801 264.784 227.718C271.249 232.635 279.179 233.019 282.496 228.577Z" fill="#6600DE"/>
<path fill-rule="evenodd" clip-rule="evenodd" d="M263.306 222.652L264.151 221.521L271.788 224.942L271.969 224.7L266.958 218.076L267.836 216.899L275.527 219.934L275.718 219.678L270.344 213.226L271.189 212.095L277.321 219.572L275.913 221.457L268.876 218.612L273.526 224.655L272.118 226.54L263.306 222.652Z" fill="white"/>
<path d="M168.223 258.815L154.257 276.666H270.424V276.624V276.454V276.285V276.116V275.947V275.779V275.611V275.443V275.276V275.109V274.942V274.776V274.61V274.444V274.279V274.114V273.949V273.785V273.621V273.458V273.294V273.131V272.969V272.806V272.645V272.483V272.322V272.161V272V271.84V271.68V271.52V271.361V271.202V271.044V270.886V270.728V270.57V270.413V270.256V270.1V269.943V269.788V269.632V269.477V269.322V269.168V269.013V268.86V268.706V268.553V268.4V268.248V268.096V267.944V267.792V267.641V267.49V267.34V267.19V267.04V266.891V266.742V266.593V266.444V266.296V266.149V266.001V265.854V265.707V265.561V265.415V265.269V265.124V264.979V264.834V264.69V264.546V264.402V264.259V264.116V263.973V263.831V263.689V263.547V263.406V263.265V263.124V262.984V262.844V262.704V262.565V262.426V262.287V262.149V262.011V261.873V261.736V261.599V261.463V261.326V261.19V261.055V260.92V260.785V260.65V260.516V260.382V260.248V260.115V259.982V259.85V259.718V259.586V259.454V259.323V259.192V259.062V258.931V258.802V258.672V258.543V258.414V258.286V258.157V258.03V257.902V257.775V257.648V257.522V257.396V257.27V257.144V257.019V256.894V256.77V256.646V256.522V256.399V256.276V256.153V256.03V255.908V255.787V255.665V255.544V255.423V255.303V255.183V255.063V254.944V254.825V254.706V254.588V254.47V254.352V254.235V254.118V254.001V253.885V253.769V253.653V253.538V253.423V253.308V253.194V253.08V252.966V252.853V252.74V252.627V252.515V252.403V252.291V252.18V252.069V251.959V251.848V251.739V251.629V251.52V251.411V251.302V251.194V251.086V250.979V250.871V250.764V250.658V250.552V250.446V250.34V250.235V250.13V250.026V249.922V249.818V249.714V249.611V249.508V249.406V249.304V249.202V249.1V248.999V248.898V248.798V248.698V248.598V248.498V248.399V248.301V248.202V248.104V248.006V247.909V247.812V247.715V247.619V247.523V247.427V247.331V247.236V247.142V247.047V246.953V246.859V246.766V246.673V246.58V246.488V246.396V246.304V246.213V246.122V246.031V245.941V245.851V245.761V245.672V245.583V245.494V245.406V245.318V245.23V245.143V245.056V244.97V244.883V244.797V244.712V244.626V244.542V244.457V244.373V244.289V244.205V244.122V244.039V243.956V243.874V243.792V243.711V243.63V243.549V243.468V243.388V243.308V243.229V243.149V243.071V242.992V242.914V242.836V242.759V242.681V242.605V242.528V242.452V242.376V242.301V242.225V242.151V242.076V242.002V241.928V241.855V241.782V241.709V241.637V241.564V241.493V241.421V241.35V241.279V241.209V241.139V241.069V241V240.931V240.862V240.794V240.726V240.658V240.591V240.523V240.457V240.39V240.324V240.259V240.193V240.128V240.064V239.999V239.935V239.872V239.808V239.745V239.683V239.62V239.559V239.497V239.436V239.375V239.314V239.254V239.194V239.134V239.075V239.016V238.957V238.899V238.841V238.784V238.726V238.67V238.613V238.557V238.501V238.445V238.39V238.335V238.281V238.226V238.173V238.119V238.066V238.013V237.961V237.908V237.857V237.805V237.754V237.703V237.653V237.602V237.553V237.503V237.454V237.405V237.357V237.309V237.261V237.213V237.166V237.12V237.073V237.027V236.981V236.936V236.891V236.846V236.802V236.758V236.714V236.67V236.627V236.585V236.542V236.5V236.458V236.417V236.376V236.335V236.295V236.255V236.215V236.176V236.137V236.098V236.06V236.022V235.984V235.947V235.91V235.873V235.837V235.801V235.766V235.73V235.695V235.661V235.626V235.592V235.559V235.526V235.493V235.46V235.428V235.396V235.364V235.333V235.302V235.272V235.241V235.212V235.182V235.153V235.124V235.095V235.067V235.039V235.012V234.985V234.958V234.931V234.905V234.879V234.854V234.829V234.804V234.779V234.755V234.731V234.708V234.685V234.662V234.639V234.617V234.596V234.574V234.553V234.532V234.512V234.492V234.472V234.453V234.434V234.415V234.396V234.378V234.361V234.343V234.326V234.309V234.293V234.277V234.261V234.246V234.231V234.216V234.202V234.201L270.423 234.198L270.089 233.388C269.796 232.678 269.366 231.638 268.818 230.314C267.723 227.665 266.158 223.882 264.275 219.345C260.51 210.271 255.477 198.182 250.407 186.117C245.336 174.052 240.231 162.017 236.319 153.051C234.362 148.565 232.709 144.859 231.51 142.304C231.044 141.311 230.653 140.505 230.343 139.9C229.636 140.406 228.637 141.123 227.345 142.049C224.625 144 220.611 146.881 215.303 150.692L191.356 222.691L191.296 222.87L191.195 223.028L168.304 258.701L168.267 258.76L168.223 258.815ZM229.727 138.799C229.727 138.799 229.729 138.802 229.733 138.807C229.729 138.801 229.727 138.799 229.727 138.799Z" fill="#FCFDFF" stroke="black" stroke-width="3"/>
<path d="M212.209 156.506L182.709 220.992L182.705 221.001L182.7 221.011C172.427 241.211 164.813 256.198 159.859 265.972C158.042 269.558 156.582 272.441 155.481 274.623C157.306 272.246 159.869 268.946 163.17 264.722C170.151 255.787 180.436 242.716 194.024 225.512L212.209 156.506Z" fill="#D3DAE0" stroke="black"/>
<path d="M270.112 230.684V216.514L235.668 149.945L270.112 230.684Z" fill="#E5E5E5" stroke="black"/>
</svg>
