<svg width="423" height="239" viewBox="0 0 423 239" fill="none" xmlns="http://www.w3.org/2000/svg">
<path d="M353.135 114.06L353.011 114.039L352.892 114.078L251.433 147.416C244.696 146.661 239.492 145.242 235.788 143.184C232.077 141.123 229.891 138.434 229.139 135.13C228.369 131.747 228.588 128.626 229.776 125.75C230.965 122.871 233.141 120.203 236.339 117.753L260.352 100.819L304.815 87.2513H337.286C345.244 88.9697 351.159 91.2453 355.076 94.0512C358.985 96.8512 360.877 100.155 360.877 103.97C360.877 107.951 360.184 110.698 358.902 112.328C357.658 113.908 355.784 114.525 353.135 114.06Z" fill="#0A0F5F" stroke="black"/>
<path d="M246.776 131.75C247.965 128.871 250.141 126.203 253.339 123.753L277.352 106.819L321.798 93.2565L348.736 95.1213C352.952 95.9468 356.052 97.3136 358.093 99.18C360.123 101.035 361.141 103.416 361.141 106.364C361.141 112.246 357.46 117.062 349.812 120.775L264.26 146.339C264.26 146.339 264.259 146.34 264.259 146.34C258.832 147.944 254.653 148.254 251.667 147.366C248.733 146.493 246.893 144.447 246.139 141.13C245.369 137.747 245.588 134.626 246.776 131.75Z" fill="#1F236A" stroke="black"/>
<path d="M250.471 138.022C249.774 135.652 250.319 133.32 252.205 130.98L282.682 112.063L320.377 101.11L349.925 101.764C351.848 102.607 353.179 103.571 353.975 104.633C354.771 105.694 355.054 106.88 354.823 108.225C354.361 110.924 352.309 112.944 348.409 114.21L256.039 141.533C254.473 141.524 253.259 141.213 252.357 140.643C251.452 140.07 250.82 139.21 250.471 138.022Z" fill="#BCC5CD" stroke="black"/>
<path fill-rule="evenodd" clip-rule="evenodd" d="M287.874 114.216L267.688 125.941C259.155 130.472 255.23 133.796 255.912 135.915C256.593 138.033 262.518 137.238 273.686 133.53L335.7 114.952C347.012 112.241 352.668 109.792 352.668 107.604C352.668 105.416 347.647 104.633 337.604 105.255L314.146 106.561L287.874 114.216Z" fill="#D3DAE0"/>
<path opacity="0.5" d="M303.776 150.75C304.965 147.871 307.141 145.203 310.339 142.753L334.352 125.819L378.798 112.257L405.736 114.121C409.952 114.947 413.052 116.314 415.093 118.18C417.123 120.035 418.141 122.416 418.141 125.364C418.141 131.246 414.46 136.062 406.812 139.775L321.26 165.339C321.26 165.339 321.259 165.34 321.259 165.34C315.832 166.944 311.653 167.254 308.667 166.366C305.733 165.493 303.893 163.447 303.139 160.13C302.369 156.747 302.588 153.626 303.776 150.75Z" fill="#EFF9FF" stroke="black"/>
<path d="M410.135 133.06L410.011 133.039L409.892 133.078L308.433 166.416C301.696 165.661 296.492 164.242 292.788 162.184C289.077 160.123 286.891 157.434 286.139 154.13C285.369 150.747 285.588 147.626 286.776 144.75C287.965 141.871 290.141 139.203 293.339 136.753L317.352 119.819L361.815 106.251H394.286C402.244 107.97 408.159 110.245 412.076 113.051C415.985 115.851 417.877 119.155 417.877 122.97C417.877 126.951 417.184 129.698 415.902 131.328C414.658 132.908 412.784 133.525 410.135 133.06Z" fill="#0A0F5F" stroke="black"/>
<path d="M303.471 151.094C304.661 148.215 306.836 145.547 310.035 143.097L334.047 126.163L378.494 112.6L405.431 114.465C409.648 115.291 412.748 116.657 414.789 118.524C416.818 120.379 417.836 122.76 417.836 125.708C417.836 131.59 414.155 136.405 406.508 140.119L320.955 165.683C320.955 165.683 320.955 165.683 320.954 165.683C315.527 167.287 311.348 167.598 308.362 166.709C305.429 165.837 303.589 163.791 302.834 160.474C302.064 157.091 302.283 153.97 303.471 151.094Z" fill="#1F236A" stroke="black"/>
<path d="M307.471 157.022C306.774 154.652 307.319 152.32 309.205 149.98L339.682 131.063L377.377 120.11L406.925 120.764C408.848 121.607 410.179 122.571 410.975 123.633C411.771 124.694 412.054 125.88 411.823 127.225C411.361 129.924 409.309 131.944 405.409 133.21L313.039 160.533C311.473 160.524 310.259 160.213 309.357 159.643C308.452 159.07 307.82 158.21 307.471 157.022Z" fill="#BCC5CD" stroke="black"/>
<path fill-rule="evenodd" clip-rule="evenodd" d="M344.874 133.216L324.688 144.941C316.155 149.472 312.23 152.796 312.912 154.915C313.593 157.033 319.518 156.238 330.686 152.53L392.7 133.952C404.012 131.241 409.668 128.792 409.668 126.604C409.668 124.416 404.647 123.633 394.604 124.255L371.146 125.561L344.874 133.216Z" fill="#D3DAE0"/>
<path d="M195.992 179.054L162.557 169.383L163.15 161.897L195.992 170.823V179.054Z" fill="#E3E7EC" stroke="black"/>
<path d="M236.408 155.99C238.655 159.73 239.564 163.768 239.24 167.261C238.916 170.754 237.365 173.666 234.727 175.251C232.088 176.836 228.79 176.839 225.553 175.485C222.316 174.131 219.178 171.432 216.931 167.693C214.684 163.953 213.775 159.915 214.099 156.422C214.423 152.929 215.974 150.017 218.612 148.432C221.251 146.847 224.549 146.845 227.786 148.198C231.023 149.552 234.161 152.251 236.408 155.99Z" fill="#460F87" stroke="black"/>
<path d="M236.408 155.99C238.565 159.581 239.515 163.409 239.33 166.68C239.144 169.956 237.829 172.618 235.517 174.008C233.205 175.397 230.237 175.307 227.258 173.934C224.282 172.562 221.348 169.926 219.191 166.335C217.033 162.745 216.083 158.917 216.269 155.645C216.455 152.37 217.769 149.707 220.081 148.318C222.393 146.929 225.362 147.018 228.341 148.392C231.317 149.764 234.25 152.4 236.408 155.99Z" fill="#6600DE" stroke="black"/>
<path d="M227.464 166.375L225.254 158.327L225.484 158.189L225.859 159.511L227.94 166.847L226.488 167.72L220.1 161.194L220.488 160.961L226.352 167.018L226.628 167.303L226.968 167.099L227.24 166.936L227.565 166.74L227.464 166.375ZM226.686 159.014L225.695 158.062L225.926 157.924L231.993 163.653L232.269 163.914L232.594 163.718L232.882 163.545L233.223 163.34L233.1 162.962L230.489 154.951L230.876 154.719L233.639 163.423L232.188 164.295L226.686 159.014Z" fill="white" stroke="white"/>
<path d="M235.698 172.8L235.795 172.913L235.939 172.954L242.139 174.725L239.955 177.002L205.934 185.9L196.783 179.233V170.739L206.196 148.577L213.189 146.698L235.698 172.8Z" fill="#E8EDF2" stroke="black"/>
<path d="M180.842 138.685L211.47 146.231L205.906 147.649L175.813 139.593L180.842 138.685Z" fill="#BCC5CD" stroke="black"/>
<path d="M169.528 175.382L164.247 170.832L196.293 180.096L203.291 185.026L169.528 175.382Z" fill="#D3DAE0" stroke="black"/>
<path d="M172.851 140.006L205.304 148.447L195.956 170.138L163.524 160.936L172.851 140.006Z" fill="#D3DAE0" stroke="black"/>
<mask id="path-18-inside-1" fill="white">
<path fill-rule="evenodd" clip-rule="evenodd" d="M173.26 152.189L171.188 150.439V140.36L184.748 128.751L187.553 129.761"/>
</mask>
<path fill-rule="evenodd" clip-rule="evenodd" d="M173.26 152.189L171.188 150.439V140.36L184.748 128.751L187.553 129.761" fill="#AEBBC6"/>
<path d="M171.188 150.439H170.188V150.903L170.543 151.203L171.188 150.439ZM171.188 140.36L170.538 139.6L170.188 139.899V140.36H171.188ZM184.748 128.751L185.087 127.81L184.539 127.614L184.098 127.992L184.748 128.751ZM173.906 151.425L171.833 149.675L170.543 151.203L172.615 152.953L173.906 151.425ZM172.188 150.439V140.36H170.188V150.439H172.188ZM171.838 141.119L185.398 129.511L184.098 127.992L170.538 139.6L171.838 141.119ZM184.409 129.692L187.215 130.702L187.892 128.82L185.087 127.81L184.409 129.692Z" fill="black" mask="url(#path-18-inside-1)"/>
<path d="M174.657 152.136L173.688 151.343V141.571L187.467 130.324L189.233 131.02V137.354L174.657 152.136Z" fill="#BCC5CD" stroke="black"/>
<path fill-rule="evenodd" clip-rule="evenodd" d="M192.784 0.00192261H187.608L177.267 19.7355L182.326 21.3828L192.784 0.00192261Z" fill="#ACB6BE"/>
<path fill-rule="evenodd" clip-rule="evenodd" d="M178.662 50.1935L170.557 56.5903L176.086 57.872L184.015 51.7867L178.662 50.1935Z" fill="#ACB6BE"/>
<path fill-rule="evenodd" clip-rule="evenodd" d="M179.885 137.607L183.221 138.809L183.868 59.9502L179.885 61.4655V137.607Z" fill="#BCC5CD"/>
<path fill-rule="evenodd" clip-rule="evenodd" d="M201.221 30.2548L274.84 17.8029L290.436 22.8343L301.049 34.5742L313.037 60.1647L298.304 71.662L284.29 50.0909L277.935 46.2149L270.098 44.7325L200.456 41.4283L201.221 30.2548Z" fill="#BCC5CD"/>
<path d="M274.371 41.4578L274.308 41.4373L274.242 41.4339L201.999 37.6993V33.5648L273.328 20.2266L288.638 25.7577L298.361 35.8704L309.931 60.6065L300.102 67.4618L283.829 44.6392L283.734 44.505L283.577 44.454L274.371 41.4578Z" fill="#D3DAE0" stroke="black"/>
<path d="M277.311 48.5209L277.245 48.4097L277.133 48.3446L272.877 45.8667L277.456 46.4078L284.079 50.4059L297.144 70.8821L288.976 68.1108L277.311 48.5209Z" fill="#B0B5BB" stroke="black"/>
<path d="M194.901 139.012L184.307 149.501L183.59 138.155L184.378 60.0349L184.385 59.3187L183.71 59.5588L176.412 62.1555V57.9459L184.173 52.2623L184.391 52.1027L184.377 51.8329L182.793 21.4307L193.08 0.5H194.364L201.174 25.4792L194.901 139.012Z" fill="#D3DAE0" stroke="black"/>
<path fill-rule="evenodd" clip-rule="evenodd" d="M177.275 19.7165L178.74 50.2724L183.993 51.9059L182.367 21.3181L177.275 19.7165Z" fill="#BCC5CD"/>
<path fill-rule="evenodd" clip-rule="evenodd" d="M170.608 56.3582V61.3232L175.888 62.8397V57.7159L170.608 56.3582Z" fill="#BCC5CD"/>
<path d="M201.905 30.0484L202.082 25.6728L256.645 16.0857L266.835 18.6873L201.905 30.0484Z" fill="#B0B5BB" stroke="black"/>
<path d="M269.247 18.5165L268.732 18.409L269.362 8.61759L269.474 7.5667L275.092 5.27715L274.658 17.6378L269.247 18.5165Z" fill="#CFD9E2" stroke="black" stroke-width="0.5"/>
<path d="M269.03 7.64342L268.948 18.4629L256.837 15.3917V6.07059L269.03 7.64342Z" fill="#D3DAE0" stroke="black" stroke-width="0.5"/>
<path d="M269.218 7.17044L257.909 5.75928L264.922 3.95062L274.328 5.08025L269.218 7.17044Z" fill="#BCC5CD" stroke="black" stroke-width="0.5"/>
<mask id="path-34-inside-2" fill="white">
<path fill-rule="evenodd" clip-rule="evenodd" d="M181.963 153.144L179.891 151.394V141.315L193.451 129.707L196.256 130.716"/>
</mask>
<path fill-rule="evenodd" clip-rule="evenodd" d="M181.963 153.144L179.891 151.394V141.315L193.451 129.707L196.256 130.716" fill="#AEBBC6"/>
<path d="M179.891 151.394H178.891V151.858L179.245 152.158L179.891 151.394ZM179.891 141.315L179.24 140.555L178.891 140.855V141.315H179.891ZM193.451 129.707L193.789 128.766L193.242 128.569L192.8 128.947L193.451 129.707ZM182.608 152.38L180.536 150.63L179.245 152.158L181.318 153.908L182.608 152.38ZM180.891 151.394V141.315H178.891V151.394H180.891ZM180.541 142.074L194.101 130.466L192.8 128.947L179.24 140.555L180.541 142.074ZM193.112 130.647L195.917 131.657L196.594 129.775L193.789 128.766L193.112 130.647Z" fill="black" mask="url(#path-34-inside-2)"/>
<path d="M183.742 153.349L182.772 152.557V142.784L196.552 131.537L198.317 132.233V138.567L183.742 153.349Z" fill="#BCC5CD" stroke="black"/>
<path d="M324.737 101.965L324.705 101.988L324.676 102.016L310.875 115.572L228.656 91.9064L247.643 72.4985L279.582 55.3586L350.06 81.3877L350.405 81.5152L350.63 81.2235L357.925 71.7381L395.447 61.2253L410.449 65.9253L378.85 76.127L378.837 76.1309L348.688 84.9927L348.607 85.0163L348.539 85.0647L324.737 101.965Z" fill="#D3DAE0" stroke="black"/>
<path d="M235.009 106.081L228.213 97.8667L311.076 122.931L314.991 130.006L235.009 106.081Z" fill="#BCC5CD" stroke="black" stroke-width="0.5"/>
<path d="M422.294 90.423L339.235 114.293L347.079 106.928L359.425 99.9404L376.306 93.7753L422.294 80.9705V90.423Z" fill="#D3DAE0" stroke="black"/>
<path d="M347.473 106.556L347.454 106.568L347.437 106.582L337.663 114.914C329.016 117.435 322.495 119.33 318.099 120.596C315.897 121.23 314.229 121.707 313.095 122.026C312.528 122.186 312.094 122.306 311.795 122.387C311.645 122.427 311.53 122.457 311.449 122.477C311.427 122.483 311.408 122.487 311.392 122.491C311.379 122.494 311.368 122.496 311.359 122.499C311.347 122.496 311.331 122.492 311.313 122.487C311.253 122.472 311.165 122.448 311.049 122.416C310.818 122.352 310.478 122.255 310.028 122.124C309.13 121.863 307.8 121.47 306.037 120.946C302.51 119.897 297.254 118.322 290.268 116.219C276.326 112.024 255.495 105.73 227.776 97.3393V92.3612L310.899 115.38L311.04 115.419L311.143 115.315L324.367 101.987L348.6 85.7219L412.099 66.0671L422.323 74.2552V80.0915L374.23 94.166L374.221 94.1685L374.213 94.1715L359.344 99.6658L359.324 99.6733L359.305 99.6841L347.473 106.556Z" fill="#E8EDF2" stroke="black" stroke-width="0.5"/>
<path d="M416.965 100.423L315.505 130.227L311.37 122.883L422.138 91.0197L416.965 100.423Z" fill="#BCC5CD" stroke="black" stroke-width="0.5"/>
<path d="M403.769 61.327V62.9554L395.786 60.5895L395.647 60.5483L395.507 60.5878L357.637 71.3227L357.501 71.3612L357.405 71.4653L353.016 76.2393L309.211 59.066V52.2131L341.27 41.3934L394.05 56.8614L394.066 56.866L394.082 56.8695L399.069 57.988L403.769 61.327Z" fill="#BCC5CD" stroke="black"/>
<path fill-rule="evenodd" clip-rule="evenodd" d="M273 101.531L273.753 62.3602L307.725 71.6835V107.364L304.39 110.568L273 101.531Z" fill="#0A0F5F"/>
<path fill-rule="evenodd" clip-rule="evenodd" d="M273.727 62.4045L286.876 18.2741L320.283 28.0798L307.281 72.3031L273.727 62.4045Z" fill="#0A0F5F"/>
<path fill-rule="evenodd" clip-rule="evenodd" d="M320.127 28.1063L353.295 17.2786V65.8812V76.5741L342.27 79.9525L318.092 96.6718L307.578 107.368L307.214 72.3838L320.127 28.1063Z" fill="#0A0F5F"/>
<path fill-rule="evenodd" clip-rule="evenodd" d="M286.905 18.58L295.836 8.3968L325.48 17.3346L320.342 28.2497L286.905 18.58Z" fill="#1F236A"/>
<path fill-rule="evenodd" clip-rule="evenodd" d="M295.441 8.57408L319.451 1L348.461 9.37741L325.24 17.3131L295.441 8.57408Z" fill="#1F236A"/>
<path fill-rule="evenodd" clip-rule="evenodd" d="M314.329 93.8411L305.75 106.389L275.459 98.5184L275.818 77.0581L314.329 93.8411Z" fill="#ADADAD"/>
<path fill-rule="evenodd" clip-rule="evenodd" d="M314.159 93.9072L340.728 77.5087L296.661 66.8528L275.983 77.0458L314.159 93.9072Z" fill="#CFCFCF"/>
<path fill-rule="evenodd" clip-rule="evenodd" d="M286.596 81.9227L305.072 90.376L305.332 81.5494L286.596 73.4694V81.9227Z" fill="#E8EDF2"/>
<path fill-rule="evenodd" clip-rule="evenodd" d="M315.482 82.7326C318.463 66.764 318.679 57.9079 316.131 56.1641C313.583 54.4203 313.193 61.0975 314.962 76.1958V84.1493L315.482 82.7326Z" fill="#E8EDF2"/>
<path fill-rule="evenodd" clip-rule="evenodd" d="M286.569 73.4347L305.113 81.4187L315.48 76.4453C317.639 70.6084 318.179 64.4306 317.1 57.9118C315.48 48.1335 298.653 52.6789 297.724 57.9118C297.105 61.4003 296.987 65.0892 297.37 68.9783L286.569 73.4347Z" fill="#D3DAE0"/>
<path fill-rule="evenodd" clip-rule="evenodd" d="M305.029 90.3667L315.193 84.1531L315.506 76.2781L305.029 81.4754V90.3667Z" fill="#BCC5CD"/>
<path fill-rule="evenodd" clip-rule="evenodd" d="M298.82 98.1269C298.665 99.8956 298.503 101.097 298.334 101.731C297.737 103.974 297.027 104.721 297.213 105.397C297.413 106.123 298.999 106.751 299.78 105.397C300.3 104.495 300.7 103.273 300.981 101.731L301.166 102.462L301.713 100.657L301.166 98.1269H298.82Z" fill="#D3DAE0"/>
<path fill-rule="evenodd" clip-rule="evenodd" d="M298.793 98.2522C296.927 90.3421 296.157 84.6785 296.483 81.2612C296.809 77.844 298.416 74.7432 301.303 71.9589L293.048 79.1689V94.2529L291.244 94.5823C288.894 87.8494 288.231 82.206 289.256 77.6519C290.281 73.0978 293.044 69.4075 297.545 66.5809L310.41 69.5659C311.176 72.0209 310.286 74.3185 307.742 76.4586C305.198 78.5987 302.677 80.3091 300.18 81.5898L301.303 98.2522H298.793Z" fill="#0A0F5F"/>
<path fill-rule="evenodd" clip-rule="evenodd" d="M289.226 96.286C288.019 97.4302 285.16 97.2706 285.639 98.3347C286.118 99.3988 290.233 98.235 290.433 97.9305C290.634 97.626 291.568 96.9084 291.922 97.4692C292.157 97.843 292.875 97.7768 294.076 97.2704C293.972 95.6506 293.829 94.7961 293.646 94.7069C293.463 94.6177 293.29 94.4373 293.126 94.1657L291.231 94.7069C290.699 94.9968 290.031 95.5232 289.226 96.286Z" fill="#D3DAE0"/>
<path fill-rule="evenodd" clip-rule="evenodd" d="M281.527 79.043V63.8939H283.177V79.9582L281.527 79.043Z" fill="#CFCFCF"/>
<path fill-rule="evenodd" clip-rule="evenodd" d="M291.875 55.7755C293.106 54.7279 294.09 54.3694 294.826 54.7001C295.93 55.1962 296.33 56.7587 294.826 57.4782C293.322 58.1976 285.717 62.5066 285.488 62.6268C285.26 62.7471 283.549 65.5592 282.109 64.5702C280.67 63.5811 282.443 61.4296 283.549 61.282C284.287 61.1836 287.062 59.3481 291.875 55.7755Z" fill="#D3DAE0"/>
<path fill-rule="evenodd" clip-rule="evenodd" d="M301.933 47.71C298.137 38.5602 298.913 34.1929 304.262 34.6082C309.046 34.9796 311.896 38.6473 308.241 45.8774C307.849 46.6526 307.078 47.2635 305.927 47.71C307.364 48.8822 308.135 49.7023 308.241 50.1702C308.836 52.8071 306.273 54.1777 303.519 54.4993C300.85 54.811 299.517 53.3188 300.314 50.5015C300.477 49.9259 301.017 48.9954 301.933 47.71Z" fill="#D3DAE0"/>
<path d="M298.605 54.4478L297.669 54.1807C297.025 55.3346 296.444 56.1709 295.929 56.7122C295.401 57.2679 295.018 57.434 294.77 57.434C294.177 57.434 293.539 57.0529 292.888 56.0199C293.906 54.6907 294.75 53.6333 295.422 52.8454C296.15 51.9908 296.645 51.4914 296.924 51.2912C297.027 51.2181 297.139 51.1361 297.26 51.048C297.757 50.6866 298.395 50.2222 299.037 49.8423C299.435 49.6067 299.812 49.4174 300.136 49.3088C300.459 49.2005 300.652 49.199 300.749 49.2274C300.754 49.2344 300.761 49.2466 300.77 49.2666C300.806 49.3417 300.84 49.4659 300.87 49.659C300.898 49.8372 300.917 50.0392 300.94 50.2722C300.941 50.2869 300.943 50.3018 300.944 50.3168C300.968 50.5622 300.995 50.8348 301.038 51.1087C301.124 51.6484 301.283 52.2585 301.668 52.7505C302.073 53.2668 302.683 53.5975 303.546 53.6508C305.01 53.7413 305.826 52.6873 306.352 51.6912C306.564 51.2913 306.75 50.8607 306.918 50.4695C306.962 50.3674 307.005 50.268 307.047 50.1725C307.251 49.7086 307.426 49.3481 307.609 49.1088C307.612 49.1083 307.615 49.1078 307.618 49.1073C307.672 49.0988 307.759 49.0995 307.881 49.1158C307.998 49.1317 308.122 49.1582 308.247 49.1866C308.262 49.19 308.278 49.1935 308.294 49.1973C308.394 49.2203 308.514 49.2478 308.605 49.2595C308.838 49.2891 309.161 49.4152 309.545 49.6717C309.923 49.9243 310.333 50.2859 310.737 50.7487C311.546 51.6743 312.306 52.9787 312.725 54.5532C313.145 56.1301 313.26 58.918 313.226 61.431C313.209 62.6769 313.155 63.8359 313.088 64.7156C313.055 65.1561 313.018 65.5216 312.982 65.7908C312.966 65.9104 312.95 66.0064 312.936 66.079C312.87 66.0771 312.769 66.0652 312.627 66.0321C312.258 65.946 311.729 65.7469 311.028 65.4185C310.809 61.5595 310.701 59.4358 310.701 59.0138C310.701 58.4475 310.518 57.9323 310.164 57.4844L309.19 56.2526L309.273 57.8207L309.861 69.0398C306.093 68.5305 303.706 68.1547 302.673 67.9122C301.653 67.6728 300.118 67.1307 298.054 66.2719L298.605 54.4478ZM300.742 49.2193C300.742 49.2192 300.743 49.2198 300.744 49.2213C300.743 49.2201 300.742 49.2193 300.742 49.2193Z" fill="#5A98FF" stroke="black"/>
<path fill-rule="evenodd" clip-rule="evenodd" d="M304.632 39.5862C304.313 39.5848 302.654 42.0178 302.161 44.979C301.653 48.0299 302.316 51.6344 302.361 53.212C302.396 54.4802 303.781 58.4641 301.858 60.0309C299.792 61.7145 294.51 61.5875 293.417 60.7697C290.375 58.4933 295.808 41.7127 297.682 36.6664C299.556 31.6201 304.691 31.3049 307.389 32.063C310.088 32.8211 310.3 35.473 310.088 37.0897C309.877 38.7064 305.278 39.5891 304.632 39.5862Z" fill="#FF7F2A"/>
<path d="M305.422 29.0955C307.421 29.2107 308.845 30.051 309.77 31.6109C310.679 33.1457 311.131 35.4236 311.063 38.5042C309.065 39.0195 307.195 39.2745 305.451 39.2745C303.744 39.2745 301.314 38.4324 298.122 36.6485C298.604 33.9822 299.452 32.0648 300.619 30.8332C301.818 29.5688 303.399 28.979 305.422 29.0955Z" fill="#AFDDE9" stroke="black"/>
<path fill-rule="evenodd" clip-rule="evenodd" d="M309.836 66.1208C310.777 64.8065 311.644 64.2208 312.439 64.3636C313.63 64.5778 314.396 65.9972 313.111 67.0591C311.825 68.121 305.489 74.1418 305.296 74.3137C305.104 74.4856 304.124 77.6282 302.488 77.0168C300.852 76.4054 302.051 73.8889 303.089 73.478C303.781 73.204 306.03 70.7516 309.836 66.1208Z" fill="#D3DAE0"/>
<g opacity="0.5">
<path opacity="0.5" fill-rule="evenodd" clip-rule="evenodd" d="M275.726 65.6035L303.864 74.1853V106.082L275.726 98.4549V65.6035Z" fill="#EFF9FF"/>
<path opacity="0.5" fill-rule="evenodd" clip-rule="evenodd" d="M276.381 63.1721L287.923 21.8298L316.191 29.8706L304.417 71.3403L276.381 63.1721Z" fill="#EFF9FF"/>
<path opacity="0.5" fill-rule="evenodd" clip-rule="evenodd" d="M319.329 31.7423L339.963 24.8611L340.568 77.6737L325.787 86.7728L314.226 93.988L305.764 106.586L307.007 72.4783L319.329 31.7423Z" fill="#EFF9FF"/>
<path opacity="0.5" fill-rule="evenodd" clip-rule="evenodd" d="M343.818 23.5481L344.87 75.9383L351.374 74.5554V20.3635L343.818 23.5481Z" fill="#EFF9FF"/>
</g>
<path fill-rule="evenodd" clip-rule="evenodd" d="M325.187 17.1703L348.359 9.32097L353.225 17.3838L320.129 28.3664L325.187 17.1703Z" fill="#0A1064"/>
<path fill-rule="evenodd" clip-rule="evenodd" d="M305.725 108.025L306.956 72.3675L319.606 30.5858L320.339 28.2453L286.947 18.2021L286.14 20.9925L315.933 29.6133L304.015 70.9725L275.711 62.7638V65.4201L304.015 74.1264L303.779 107.561L305.725 108.025Z" fill="#0A0F5F"/>
<path d="M132.339 112.614L132.367 112.68L132.413 112.735L162.176 148.813L162.192 148.832L162.209 148.849L181.976 168.5H26.6094L23.6589 151.355C41.9678 109.728 55.8311 78.5712 65.2491 57.8827C69.9636 47.5264 73.5627 39.7967 76.0474 34.691C77.2903 32.1368 78.2511 30.2461 78.9316 29.0132C79.2732 28.3944 79.5371 27.9543 79.7263 27.6816C79.7449 27.6548 79.7623 27.6304 79.7784 27.6082C79.8085 27.6249 79.8409 27.6429 79.8755 27.6621C80.1185 27.7969 80.4719 27.9935 80.936 28.2519C81.8642 28.7687 83.2341 29.5325 85.0459 30.5433C88.6443 32.5507 93.9852 35.5323 101.069 39.488L132.339 112.614ZM79.9251 27.4302C79.9251 27.4303 79.9243 27.431 79.9226 27.4323C79.9243 27.4308 79.9251 27.4302 79.9251 27.4302Z" fill="#F5F7F9" stroke="black"/>
<path d="M103.22 44.4549L142.156 110.855L142.162 110.865L142.169 110.875C155.492 131.313 165.366 146.477 171.791 156.366C174.404 160.386 176.445 163.535 177.917 165.811C177.802 165.694 177.684 165.574 177.564 165.451C175.177 163.021 171.716 159.542 167.181 155.015C158.127 145.974 144.788 132.751 127.166 115.344L103.22 44.4549Z" fill="#B0B5BB" stroke="black"/>
<path d="M25.2945 146.113L29.7074 122.162L72.2546 41.2586L25.2945 146.113Z" fill="#B0B5BB" stroke="black"/>
<path d="M102.77 101.053C107.468 101.547 111.822 96.7628 112.494 90.3677C113.166 83.9727 109.902 78.3882 105.204 77.8944C100.506 77.4005 96.1519 82.1844 95.4797 88.5795C94.8076 94.9745 98.0715 100.559 102.77 101.053Z" fill="#460F87"/>
<path d="M103.765 100.68C107.941 101.119 111.849 96.5018 112.494 90.3677C113.139 84.2337 110.276 78.9053 106.1 78.4663C101.923 78.0274 98.015 82.6441 97.3702 88.7782C96.7255 94.9122 99.5885 100.241 103.765 100.68Z" fill="#6600DE"/>
<path fill-rule="evenodd" clip-rule="evenodd" d="M100.068 85.8427L101.131 85.9545L101.915 92.2727L102.142 92.2966L104.463 86.4479L105.568 86.5642L106.623 92.7675L106.863 92.7928L108.93 86.7741L109.993 86.8859L107.561 93.7979L105.788 93.6116L104.868 87.9098L102.783 93.2957L101.01 93.1094L100.068 85.8427Z" fill="white"/>
<path d="M53.7699 119.053C58.4683 119.547 62.822 114.763 63.4941 108.368C64.1663 101.973 60.9024 96.3882 56.204 95.8944C51.5056 95.4005 47.1519 100.184 46.4797 106.579C45.8076 112.974 49.0715 118.559 53.7699 119.053Z" fill="#460F87"/>
<path d="M54.7648 118.68C58.9412 119.119 62.8494 114.502 63.4942 108.368C64.1389 102.234 61.2759 96.9053 57.0996 96.4663C52.9232 96.0274 49.015 100.644 48.3702 106.778C47.7255 112.912 50.5885 118.241 54.7648 118.68Z" fill="#6600DE"/>
<path fill-rule="evenodd" clip-rule="evenodd" d="M51.0679 103.843L52.1313 103.954L52.9151 110.273L53.1421 110.297L55.4625 104.448L56.5685 104.564L57.6225 110.767L57.8634 110.793L59.9295 104.774L60.9929 104.886L58.5607 111.798L56.7884 111.612L55.868 105.91L53.7825 111.296L52.0102 111.109L51.0679 103.843Z" fill="white"/>
<path d="M25.1879 181.572C25.6444 181.776 25.6444 181.776 25.6444 181.776L25.6441 181.777L25.6429 181.779L25.6383 181.79L25.6199 181.831L25.5461 181.996L25.2509 182.657L24.0702 185.303L19.3475 195.883L0.770732 237.5H176.17L156.823 212.457L156.808 212.439L156.796 212.419L127.981 166.941L127.948 166.889L127.928 166.83L97.6392 74.6058C90.7746 69.6145 85.5993 65.8528 82.1132 63.3206C80.3591 62.0464 79.0328 61.0836 78.1343 60.4322C77.6849 60.1064 77.3428 59.8586 77.1076 59.6887C77.0955 59.68 77.0837 59.6715 77.0722 59.6631C76.9565 59.8458 76.8074 60.1074 76.6248 60.4509C76.1799 61.2879 75.5666 62.5533 74.8072 64.1927C73.2897 67.4686 71.2024 72.2078 68.738 77.9285C63.8098 89.3684 57.3797 104.718 50.9961 120.102C44.6126 135.485 38.2763 150.899 33.5359 162.468C31.1656 168.253 29.1944 173.076 27.8157 176.453C27.1264 178.141 26.5852 179.468 26.2163 180.373L25.7953 181.406L25.6874 181.671L25.6601 181.738L25.6532 181.755L25.6515 181.759C25.6511 181.76 25.651 181.76 25.1879 181.572ZM25.1879 181.572L25.6444 181.776L25.6478 181.768L25.651 181.76L25.1879 181.572Z" fill="#FAFCFF" stroke="black"/>
<path d="M99.1541 79.5173L137.098 162.731L137.102 162.74L137.107 162.75C150.097 188.376 159.724 207.389 165.989 219.789C168.658 225.072 170.717 229.155 172.165 232.036C172.016 231.841 171.862 231.639 171.704 231.432C169.377 228.385 166.002 224.023 161.581 218.347C152.75 207.008 139.739 190.42 122.549 168.583L99.1541 79.5173Z" fill="#D3DAE0" stroke="black"/>
<path d="M3.59014 233.856L7.78261 211.3L65.6566 85.3031L3.59014 233.856Z" fill="#D3DAE0" stroke="black"/>
<path d="M149.984 190.929C155.599 187.555 156.428 178.624 151.836 170.982C147.244 163.339 138.97 159.879 133.355 163.252C127.74 166.626 126.911 175.557 131.503 183.199C136.095 190.842 144.369 194.302 149.984 190.929Z" fill="#460F87"/>
<path d="M150.775 189.685C155.766 186.686 156.241 178.312 151.836 170.982C147.432 163.651 139.815 160.139 134.824 163.138C129.833 166.137 129.357 174.511 133.762 181.842C138.167 189.172 145.783 192.684 150.775 189.685Z" fill="#6600DE"/>
<path fill-rule="evenodd" clip-rule="evenodd" d="M134.3 176.34L135.571 175.576L141.711 181.919L141.982 181.756L139.671 173.343L140.993 172.549L147.337 178.539L147.625 178.366L144.89 169.977L146.161 169.213L149.236 178.897L147.117 180.169L141.34 174.623L143.525 182.328L141.407 183.601L134.3 176.34Z" fill="white"/>
<path d="M215.05 200.608C217.893 196.835 216.035 190.639 210.9 186.769C205.764 182.9 199.296 182.821 196.453 186.594C193.61 190.367 195.468 196.563 200.604 200.433C205.739 204.302 212.207 204.381 215.05 200.608Z" fill="#460F87"/>
<path d="M215.243 199.563C217.77 196.209 215.825 190.481 210.9 186.769C205.974 183.058 199.932 182.767 197.405 186.121C194.877 189.475 196.822 195.203 201.748 198.915C206.673 202.626 212.715 202.917 215.243 199.563Z" fill="#6600DE"/>
<path fill-rule="evenodd" clip-rule="evenodd" d="M200.621 195.09L201.265 194.236L207.084 196.819L207.221 196.636L203.403 191.635L204.073 190.747L209.933 193.038L210.078 192.845L205.984 187.974L206.627 187.12L211.299 192.765L210.227 194.188L204.865 192.04L208.408 196.602L207.335 198.025L200.621 195.09Z" fill="white"/>
<path d="M127.667 222.003L116.22 236.5H206.688V236.48V236.351V236.222V236.093V235.964V235.836V235.708V235.58V235.452V235.325V235.198V235.071V234.944V234.818V234.692V234.566V234.441V234.315V234.19V234.065V233.941V233.817V233.693V233.569V233.445V233.322V233.199V233.076V232.954V232.832V232.71V232.588V232.466V232.345V232.224V232.103V231.983V231.863V231.743V231.623V231.504V231.384V231.266V231.147V231.028V230.91V230.792V230.675V230.557V230.44V230.323V230.207V230.09V229.974V229.858V229.743V229.627V229.512V229.397V229.283V229.168V229.054V228.941V228.827V228.714V228.601V228.488V228.375V228.263V228.151V228.039V227.928V227.816V227.705V227.594V227.484V227.374V227.264V227.154V227.044V226.935V226.826V226.717V226.609V226.501V226.393V226.285V226.178V226.07V225.963V225.857V225.75V225.644V225.538V225.433V225.327V225.222V225.117V225.012V224.908V224.804V224.7V224.596V224.493V224.39V224.287V224.184V224.082V223.98V223.878V223.776V223.675V223.574V223.473V223.373V223.272V223.172V223.072V222.973V222.874V222.775V222.676V222.577V222.479V222.381V222.283V222.186V222.088V221.991V221.895V221.798V221.702V221.606V221.51V221.415V221.319V221.224V221.13V221.035V220.941V220.847V220.753V220.66V220.567V220.474V220.381V220.289V220.197V220.105V220.013V219.922V219.831V219.74V219.649V219.559V219.469V219.379V219.289V219.2V219.111V219.022V218.933V218.845V218.757V218.669V218.581V218.494V218.407V218.32V218.234V218.147V218.061V217.976V217.89V217.805V217.72V217.635V217.55V217.466V217.382V217.298V217.215V217.132V217.049V216.966V216.883V216.801V216.719V216.638V216.556V216.475V216.394V216.313V216.233V216.153V216.073V215.993V215.914V215.835V215.756V215.677V215.599V215.52V215.443V215.365V215.288V215.21V215.134V215.057V214.981V214.904V214.829V214.753V214.678V214.603V214.528V214.453V214.379V214.305V214.231V214.158V214.084V214.011V213.938V213.866V213.794V213.722V213.65V213.578V213.507V213.436V213.365V213.295V213.225V213.155V213.085V213.015V212.946V212.877V212.808V212.74V212.672V212.604V212.536V212.469V212.402V212.335V212.268V212.202V212.135V212.07V212.004V211.938V211.873V211.808V211.744V211.679V211.615V211.551V211.488V211.425V211.361V211.299V211.236V211.174V211.112V211.05V210.988V210.927V210.866V210.805V210.744V210.684V210.624V210.564V210.505V210.446V210.387V210.328V210.269V210.211V210.153V210.095V210.038V209.981V209.924V209.867V209.81V209.754V209.698V209.643V209.587V209.532V209.477V209.422V209.368V209.314V209.26V209.206V209.153V209.099V209.047V208.994V208.942V208.889V208.838V208.786V208.735V208.683V208.633V208.582V208.532V208.481V208.432V208.382V208.333V208.284V208.235V208.186V208.138V208.09V208.042V207.995V207.947V207.9V207.853V207.807V207.761V207.715V207.669V207.623V207.578V207.533V207.488V207.444V207.4V207.356V207.312V207.268V207.225V207.182V207.14V207.097V207.055V207.013V206.971V206.93V206.889V206.848V206.807V206.767V206.727V206.687V206.647V206.608V206.569V206.53V206.491V206.453V206.415V206.377V206.339V206.302V206.265V206.228V206.191V206.155V206.119V206.083V206.047V206.012V205.977V205.942V205.908V205.873V205.839V205.806V205.772V205.739V205.706V205.673V205.641V205.608V205.576V205.545V205.513V205.482V205.451V205.42V205.39V205.359V205.33V205.3V205.27V205.241V205.212V205.184V205.155V205.127V205.099V205.071V205.044V205.017V204.99V204.963V204.937V204.911V204.885V204.859V204.834V204.809V204.784V204.759V204.735V204.711V204.687V204.664V204.64V204.617V204.594V204.572V204.549V204.527V204.506V204.484V204.463V204.442V204.421V204.4V204.38V204.36V204.34V204.321V204.302V204.283V204.264V204.245V204.227V204.209V204.191V204.174V204.157V204.14V204.123V204.107V204.091V204.075V204.059V204.043V204.028V204.013V203.999V203.984V203.97V203.956V203.943V203.929V203.916V203.903V203.891V203.878V203.866V203.854V203.843V203.831V203.82V203.809V203.799V203.789V203.778V203.769V203.759V203.75V203.741V203.732V203.723V203.715V203.707V203.699V203.692V203.685L206.639 203.567L206.384 202.955C206.161 202.419 205.833 201.634 205.416 200.634C204.582 198.634 203.389 195.778 201.954 192.353C199.085 185.502 195.25 176.374 191.386 167.265C187.523 158.155 183.631 149.067 180.649 142.293C179.158 138.906 177.895 136.102 176.978 134.165C176.519 133.195 176.149 132.449 175.883 131.959C175.825 131.851 175.773 131.759 175.727 131.681C175.6 131.77 175.442 131.882 175.253 132.016C174.709 132.402 173.907 132.972 172.845 133.727C170.744 135.22 167.629 137.435 163.501 140.371L145.19 194.921L145.17 194.981L145.135 195.034L127.694 221.965L127.682 221.985L127.667 222.003Z" fill="#FCFDFF" stroke="black"/>
<path d="M161.219 146.457L139.32 193.889L139.315 193.899L139.311 193.908C131.483 209.158 125.682 220.473 121.907 227.851C120.819 229.979 119.899 231.779 119.148 233.252C120.459 231.568 122.153 229.409 124.232 226.773C129.549 220.031 137.38 210.17 147.725 197.192L161.219 146.457Z" fill="#D3DAE0" stroke="black"/>
<path d="M205.688 200.575V190.487L180.94 143.095L205.688 200.575Z" fill="#E5E5E5" stroke="black"/>
</svg>
