<?xml version="1.0" encoding="UTF-8"?>
<svg width="404px" height="256px" viewBox="0 0 404 256" version="1.1" xmlns="http://www.w3.org/2000/svg" xmlns:xlink="http://www.w3.org/1999/xlink">
    <!-- Generator: Sketch 48.2 (47327) - http://www.bohemiancoding.com/sketch -->
    <title>Minable native token</title>
    <desc>Created with Sketch.</desc>
    <defs></defs>
    <g id="WEB-DESIGN-WITNET/new-header-sec-v." stroke="none" stroke-width="1" fill="none" fill-rule="evenodd" transform="translate(-174.000000, -1678.000000)">
        <g id="//BODY" transform="translate(-575.000000, 851.000000)">
            <g id="section1" transform="translate(719.000000, 0.000000)">
                <g id="conteiner-3" transform="translate(0.000000, 827.000000)">
                    <g id="ilustration">
                        <g>
                            <g id="kopareczka" transform="translate(172.000000, 0.000000)">
                                <g id="Group-3" transform="translate(67.000000, 87.000000)">
                                    <path d="M31.9411836,13.6130686 L7.85531403,30.5989958 C1.34672818,35.5803861 -1.11730042,41.5439621 0.463228235,48.4897237 C2.04375689,55.4354853 9.65517513,59.66346 23.297483,61.1736478 L124.860383,27.8016011 C130.412606,28.7743512 133.188717,25.2468268 133.188717,17.2190276 C133.188717,9.19122848 125.17627,3.45155261 109.151376,2.84217094e-14 L76.5528362,0 L31.9411836,13.6130686 Z" id="Path-71-Copy" fill="#0A0F5F"></path>
                                    <path d="M48.9411836,19.6130686 L24.855314,36.5989958 C18.3467282,41.5803861 15.8826996,47.5439621 17.4632282,54.4897237 C19.0437569,61.4354853 25.2938523,63.2947476 36.2135146,60.0675105 L121.806148,34.4915594 C129.570593,30.7305846 133.452815,25.7710876 133.452815,19.6130686 C133.452815,13.4550496 129.17293,9.54178564 120.613161,7.87327682 L93.5528362,6 L48.9411836,19.6130686 Z" id="Path-71" fill="#1F236A"></path>
                                    <path d="M54.2892049,24.8509275 L23.6817554,43.8485083 C21.6712046,46.3103711 21.0450313,48.8313469 21.8032355,51.4114357 C22.5614397,53.9915245 24.60137,55.2815689 27.9230264,55.2815689 L120.368716,27.9363088 C124.368934,26.639008 126.622131,24.513063 127.128308,21.5584737 C127.634486,18.6038844 125.874015,16.256177 121.846896,14.5153515 L92.1234871,13.856967 L54.2892049,24.8509275 Z" id="Path-71" fill="#BCC5CD"></path>
                                    <path d="M59.6861254,27.4651177 L39.5,39.1899065 C30.9671782,43.7203711 27.0416406,47.0448593 27.7233872,49.1633709 C28.4051338,51.2818826 34.330064,50.4868655 45.4981779,46.7783197 L107.511634,28.2007245 C118.82346,25.4896667 124.479372,23.0401929 124.479372,20.8523031 C124.479372,18.6644133 119.458305,17.8814312 109.41617,18.5033568 L85.9580341,19.8100378 L59.6861254,27.4651177 Z" id="Path-71" fill="#D3DAE0"></path>
                                </g>
                                <g id="Group" transform="translate(124.000000, 106.000000)">
                                    <path d="M48.9411836,19.6130686 L24.855314,36.5989958 C18.3467282,41.5803861 15.8826996,47.5439621 17.4632282,54.4897237 C19.0437569,61.4354853 25.2938523,63.2947476 36.2135146,60.0675105 L121.806148,34.4915594 C129.570593,30.7305846 133.452815,25.7710876 133.452815,19.6130686 C133.452815,13.4550496 129.17293,9.54178564 120.613161,7.87327682 L93.5528362,6 L48.9411836,19.6130686 Z" id="Path-71" fill="#EFF9FF" opacity="0.5"></path>
                                    <path d="M31.9411836,13.6130686 L7.85531403,30.5989958 C1.34672818,35.5803861 -1.11730042,41.5439621 0.463228235,48.4897237 C2.04375689,55.4354853 9.65517513,59.66346 23.297483,61.1736478 L124.860383,27.8016011 C130.412606,28.7743512 133.188717,25.2468268 133.188717,17.2190276 C133.188717,9.19122848 125.17627,3.45155261 109.151376,2.84217094e-14 L76.5528362,0 L31.9411836,13.6130686 Z" id="Path-71-Copy" fill="#0A0F5F"></path>
                                    <path d="M48.6362855,19.9568229 L24.5504159,36.94275 C18.0418301,41.9241403 15.5778015,47.8877163 17.1583301,54.8334779 C18.7388588,61.7792396 24.9889542,63.6385018 35.9086165,60.4112648 L121.50125,34.8353136 C129.265695,31.0743388 133.147917,26.1148419 133.147917,19.9568229 C133.147917,13.7988038 128.868032,9.8855399 120.308263,8.21703108 L93.2479381,6.34375426 L48.6362855,19.9568229 Z" id="Path-71" fill="#1F236A"></path>
                                    <path d="M54.2892049,24.8509275 L23.6817554,43.8485083 C21.6712046,46.3103711 21.0450313,48.8313469 21.8032355,51.4114357 C22.5614397,53.9915245 24.60137,55.2815689 27.9230264,55.2815689 L120.368716,27.9363088 C124.368934,26.639008 126.622131,24.513063 127.128308,21.5584737 C127.634486,18.6038844 125.874015,16.256177 121.846896,14.5153515 L92.1234871,13.856967 L54.2892049,24.8509275 Z" id="Path-71" fill="#BCC5CD"></path>
                                    <path d="M59.6861254,27.4651177 L39.5,39.1899065 C30.9671782,43.7203711 27.0416406,47.0448593 27.7233872,49.1633709 C28.4051338,51.2818826 34.330064,50.4868655 45.4981779,46.7783197 L107.511634,28.2007245 C118.82346,25.4896667 124.479372,23.0401929 124.479372,20.8523031 C124.479372,18.6644133 119.458305,17.8814312 109.41617,18.5033568 L85.9580341,19.8100378 L59.6861254,27.4651177 Z" id="Path-71" fill="#D3DAE0"></path>
                                </g>
                                <g id="Group-Copy" transform="translate(65.000000, 95.000000)"></g>
                                <g id="Group-6" transform="translate(0.000000, 138.000000)">
                                    <polygon id="Path-36" fill="#E3E7EC" points="1.51122881 23.5048239 0.837887755 31.9991522 35.3035618 41.9675741 35.3035618 32.689799"></polygon>
                                    <g id="Group-13-Copy" transform="translate(65.784136, 24.323717) rotate(-31.000000) translate(-65.784136, -24.323717) translate(53.784136, 7.823717)">
                                        <ellipse id="Oval" fill="#1B6EF9" cx="11.8609079" cy="16.1440136" rx="11.8609079" ry="16.1440136"></ellipse>
                                        <ellipse id="Oval" fill="#5A98FF" cx="13.1787866" cy="16.1440136" rx="10.5430293" ry="15.4850742"></ellipse>
                                        <polygon id="Fill-10" fill="#FFFFFF" points="5.93045397 11.7050592 7.41306746 11.7050592 9.40965363 20.3042175 9.72616415 20.3042175 12.0783579 11.902741 13.6202759 11.902741 15.972909 20.3042175 16.3087484 20.3042175 18.2855664 11.7050592 19.7681799 11.7050592 17.4159861 21.5891492 14.9449636 21.5891492 12.8493169 13.8597908 10.7541095 21.5891492 8.28308702 21.5891492"></polygon>
                                    </g>
                                    <polygon id="Path-37" fill="#E8EDF2" points="35.0947972 32.8854491 44.6430969 10.4061198 52.1745146 8.38201741 74.8885051 34.7218226 81.8862192 36.7206537 79.0299725 39.6990445 44.6430969 48.6925814 35.0947972 41.7363842"></polygon>
                                    <polygon id="Path-39" fill="#BCC5CD" points="44.7153489 10.4144213 52.338635 8.47130642 19.6695606 0.422600364 12.3373727 1.74712236"></polygon>
                                    <polygon id="Path-35" fill="#D3DAE0" points="0.997370399 31.9640074 35.3246447 41.8880114 44.8046775 48.5666533 8.09661919 38.0813444"></polygon>
                                    <polygon id="Path-38" fill="#D3DAE0" points="44.8055549 10.3582619 11.3787845 1.66408645 1.64425636 23.5078074 35.0536525 32.9875123"></polygon>
                                </g>
                                <g id="Group-10" transform="translate(10.000000, 129.000000)">
                                    <polyline id="Path-41" fill="#AEBBC6" points="2.07231856 23.4374291 0 21.6874004 0 11.6082758 13.5600675 0 16.3651044 1.00934603"></polyline>
                                    <polygon id="Path-40" fill="#BCC5CD" points="2 12.58279 2 22.8291655 3.50525829 24.0599199 18.5445673 8.80769776 18.5445673 1.92864083 16.1903115 1"></polygon>
                                </g>
                                <g id="Group-8" transform="translate(9.000000, 0.000000)">
                                    <polygon id="Path-43" fill="#ACB6BE" points="22.596039 0.250583118 17.4202345 0.250583118 7.07860892 19.9841981 12.1382878 21.6314365"></polygon>
                                    <polygon id="Path-45" fill="#ACB6BE" points="8.47442971 50.4421014 0.36907508 56.8389315 5.89791267 58.1206576 13.8271992 52.0353789"></polygon>
                                    <polygon id="Path-47" fill="#BCC5CD" points="9.69742883 137.855809 13.0328901 139.057891 13.6806555 60.1988167 9.69742883 61.7141631"></polygon>
                                    <polygon id="Path-50" fill="#BCC5CD" points="31.0328059 30.503416 104.651352 18.0515846 120.247633 23.082917 130.860898 34.8228698 142.848276 60.4133226 128.115329 71.9106288 114.101825 50.3395076 107.74629 46.4635339 99.9099209 44.9811067 30.2673106 41.6769852"></polygon>
                                    <polygon id="Path-49" fill="#D3DAE0" points="31.3104955 38.4227468 104.028541 42.1819103 113.234244 45.1780911 129.794209 68.403669 140.374025 61.0244522 128.590534 35.8322158 118.729632 25.5757522 103.181667 19.958776 31.3104955 33.3983167"></polygon>
                                    <polygon id="Path-51" fill="#B0B5BB" points="100.356985 45.3363158 106.693406 49.0253932 118.453004 68.7737449 128.142938 72.0614201 114.249962 50.286943 107.433558 46.1725704"></polygon>
                                    <polygon id="Path-42" fill="#D3DAE0" points="12.9017441 138.417028 13.6896818 60.2785087 5.72401331 63.1127143 5.72401331 57.9409966 13.6896818 52.1075888 12.0984087 21.5755349 22.5805284 0.248653192 24.5578059 0.248653192 31.4894274 25.6745099 25.2013237 139.480532 13.6896818 150.87908"></polygon>
                                    <polygon id="Path-44" fill="#BCC5CD" points="7.08725255 19.9651475 8.55220754 50.5210306 13.8050645 52.1545996 12.1791616 21.5667932"></polygon>
                                    <polygon id="Path-46" fill="#BCC5CD" points="0.420577745 56.606904 0.420577745 61.5718671 5.7003973 63.0883884 5.7003973 57.9645568"></polygon>
                                    <polygon id="Path-48" fill="#B0B5BB" points="31.4103151 25.4987637 86.4764929 15.8232477 99.0253501 19.0273317 31.1927349 30.8964462"></polygon>
                                    <polygon id="Path-52" fill="#CFD9E2" points="99.0534647 19.0193269 98.2808023 18.8580586 98.9246241 8.84491261 99.0534647 7.64021788 105.166982 5.14847328 104.712302 18.1003321"></polygon>
                                    <polygon id="Path-53" fill="#D3DAE0" points="99.0074082 19.0322473 86.3987012 15.8348462 86.3987012 6.03493035 99.0933717 7.67247268"></polygon>
                                    <polygon id="Path-54" fill="#BCC5CD" points="86.3873982 6.09353384 94.7165884 3.94544111 105.126285 5.19554923 99.064197 7.67527793"></polygon>
                                </g>
                                <g id="Group-9" transform="translate(18.000000, 129.000000)">
                                    <polyline id="Path-41" fill="#AEBBC6" points="2.77505694 24.3926228 0.702738387 22.6425941 0.702738387 12.5634695 14.2628059 0.955193699 17.0678428 1.96453973"></polyline>
                                    <polygon id="Path-40" fill="#BCC5CD" points="3.08460389 13.7958168 3.08460389 24.0421923 4.58986217 25.2729467 19.6291712 10.0207246 19.6291712 3.14166764 17.2749154 2.21302682"></polygon>
                                </g>
                                <g id="Group-5" transform="translate(66.000000, 41.000000)">
                                    <polygon id="Path-55" fill="#D3DAE0" points="52.3561467 14.0602312 20.1510527 31.3428264 0.525351754 51.4039107 83.8290534 75.3818523 97.8388401 61.6216146 121.640504 44.7210418 151.803013 35.8554156 184.910757 25.1667556 168.266632 19.9524615 130.442453 30.5501876 123.045412 40.1673036"></polygon>
                                    <polygon id="Path-57" fill="#BCC5CD" points="0.30370335 56.6361293 7.67664546 65.5479036 88.3185437 89.6695504 84.0575457 81.9695862"></polygon>
                                    <polygon id="Path-59" fill="#D3DAE0" points="110.195579 74.593664 119.592079 65.7710303 132.026272 58.733624 148.965057 52.5475884 195.605764 39.5609526 195.605764 50.0482577"></polygon>
                                    <path d="M0.338455487,51.2811651 L0.338455487,56.7734617 C55.9538999,73.6093465 83.8977236,82.0186166 84.1699267,82.0012721 C84.4421298,81.9839275 93.2508553,79.4459612 110.596103,74.387373 L120.410812,66.0211103 L132.243151,59.1489557 L147.112023,53.6546302 L195.385418,39.5275024 L195.385418,33.3838186 L184.963827,25.0377322 L121.302817,44.7425455 L97.0192185,61.0424328 L83.7773923,74.387373 L0.338455487,51.2811651 Z" id="Path-56" fill="#E8EDF2"></path>
                                    <polygon id="Path-58" fill="#BCC5CD" points="88.1965774 89.7711627 189.946532 59.8820673 195.458694 49.8617742 83.8085599 81.9788857"></polygon>
                                    <polygon id="Path-70" fill="#BCC5CD" points="81.5236454 11.1028102 114.071737 0.117875885 167.003202 15.6302661 172.089223 16.7707581 177.081265 20.3175395 177.081265 22.8737704 168.455896 20.3175395 130.585508 31.0523939 125.964604 36.0784168 81.5236454 18.6556494"></polygon>
                                </g>
                                <g id="Group-2" transform="translate(118.000000, 6.000000)">
                                    <polygon id="Path-61" fill="#0A0F5F" points="0.430648926 100.949738 1.18326772 61.7790806 35.1557368 71.1023369 35.1557368 106.782858 31.821089 109.987352"></polygon>
                                    <polygon id="Path-63" fill="#0A0F5F" points="1.15788923 61.8233349 14.3069974 17.6929847 47.7141742 27.4986673 34.7121407 71.7219346"></polygon>
                                    <polygon id="Path-65" fill="#0A0F5F" points="47.5574536 27.5251652 80.7257893 16.6974435 80.7257893 65.3000302 80.7257893 75.9929391 69.7010334 79.3714077 45.5223907 96.0906593 35.0084644 106.786853 34.6447094 71.8026398"></polygon>
                                    <polygon id="Path-67" fill="#1F236A" points="14.3355134 17.9988376 23.2665712 7.8156839 52.9104888 16.7535013 47.77239 27.6686182"></polygon>
                                    <polygon id="Path-69" fill="#1F236A" points="22.8718374 7.99296222 46.8816363 0.418884792 75.8914413 8.79629759 52.670642 16.7319556"></polygon>
                                    <g id="Group-12" transform="translate(2.000000, 28.000000)">
                                        <g id="Group-11" transform="translate(0.000000, 23.000000)">
                                            <polygon id="Path-3" fill="#ADADAD" points="39.7590926 42.2599916 31.1805006 54.8075863 0.889922198 46.9373099 1.24844157 25.4770191"></polygon>
                                            <polygon id="Path-2" fill="#CFCFCF" points="39.5892955 42.3260803 66.158302 25.9275397 22.0912308 15.2716388 1.41331372 25.4646631"></polygon>
                                            <polygon id="Path-78" fill="#E8EDF2" points="12.0267663 30.3415732 30.5029624 38.794853 30.7624781 29.9683019 12.0267663 21.8882933"></polygon>
                                            <path d="M40.9124736,31.1515061 C43.8929549,15.182927 44.1092121,6.32674324 41.5612452,4.58295479 C39.0132782,2.83916635 38.6235693,9.51641888 40.3921184,24.6147124 L40.3921184,32.568193 L40.9124736,31.1515061 Z" id="Path-80" fill="#E8EDF2"></path>
                                            <path d="M11.9991075,21.8535597 L30.5433986,29.8375381 L40.9103833,24.8642266 C43.0697461,19.0273348 43.6095868,12.849472 42.5299054,6.33063802 C40.9103833,-3.4476129 24.0833178,1.09775017 23.1543655,6.33063802 C22.5350639,9.81922992 22.4169602,13.5080689 22.8000542,17.3971551 L11.9991075,21.8535597 Z" id="Path-77" fill="#D3DAE0"></path>
                                            <polygon id="Path-79" fill="#BCC5CD" points="30.4595086 38.785599 40.6227149 32.5719608 40.9359117 24.6969601 30.4595086 29.8942695"></polygon>
                                        </g>
                                        <path d="M24.2501413,69.5457607 C24.0951298,71.3144339 23.9332272,72.5157958 23.7644335,73.1498465 C23.1672489,75.3930905 22.4574992,76.1397469 22.6437245,76.8161565 C22.8435428,77.5419388 24.4294279,78.1698709 25.2099177,76.8161565 C25.7302442,75.9136802 26.1305987,74.6915768 26.4109811,73.1498465 L26.5961992,73.8809821 L27.143124,72.0756937 L26.5961992,69.5457607 L24.2501413,69.5457607 Z" id="Path-74" fill="#D3DAE0"></path>
                                        <path d="M24.2235497,69.6710322 C22.3570514,61.7610128 21.5869245,56.0973696 21.9131691,52.6801024 C22.2394137,49.2628353 23.8462744,46.1620635 26.7337512,43.3777871 L18.4779945,50.5877548 L18.4779945,65.6717933 L16.6739635,66.0011514 C14.3240302,59.2682966 13.6614663,53.6248321 14.6862717,49.0707579 C15.7110771,44.5166838 18.474026,40.8263678 22.9751182,37.9998099 L35.8408629,40.9848104 C36.6062871,43.4397769 35.7168833,45.7373321 33.1726516,47.8774759 C30.6284198,50.0176198 28.1075304,51.7280249 25.6099833,53.0086911 L26.7337512,69.6710322 L24.2235497,69.6710322 Z" id="Path-72" fill="#0A0F5F"></path>
                                        <path d="M14.6565182,67.7048837 C13.4495232,68.8490947 10.5904505,68.689505 11.0692196,69.7535855 C11.5479886,70.8176659 15.6628509,69.6538699 15.8635131,69.3493513 C16.0641753,69.0448327 16.9986591,68.3272387 17.3519723,68.8880408 C17.5875144,69.261909 18.3055561,69.1956557 19.5060973,68.6892812 C19.4025393,67.0695093 19.2593264,66.2150069 19.0764586,66.1257739 C18.8935907,66.036541 18.7203475,65.8561353 18.5567289,65.5845567 L16.6615734,66.1257739 C16.1295332,66.4157064 15.4611814,66.9420763 14.6565182,67.7048837 Z" id="Path-73" fill="#D3DAE0"></path>
                                        <polygon id="Path-5" fill="#CFCFCF" points="6.95715154 50.4619091 6.95715154 35.3128107 8.60695614 35.3128107 8.60695614 51.3771036"></polygon>
                                        <path d="M17.3056364,27.1943655 C18.5366837,26.1467631 19.5202104,25.7883158 20.2562163,26.1190237 C21.3602253,26.6150855 21.7601735,28.177583 20.2562163,28.8970443 C18.7522592,29.6165056 11.1473073,33.9254805 10.9190836,34.0457154 C10.6908598,34.1659503 8.9797387,36.9781117 7.5399811,35.9890495 C6.1002235,34.9999874 7.87322482,32.8484687 8.9797387,32.7008655 C9.71741462,32.6024633 12.4927138,30.7669634 17.3056364,27.1943655 Z" id="Path-76" fill="#D3DAE0"></path>
                                        <path d="M27.3636845,19.1288966 C23.5675846,9.97905542 24.3439142,5.61177116 29.6926733,6.0270438 C34.4767743,6.39847692 37.326423,10.0661984 33.6715844,17.2962416 C33.279694,18.0714836 32.5083631,18.6823685 31.3575917,19.1288966 C32.7946694,20.3011173 33.5660003,21.1211635 33.6715844,21.589035 C34.2666724,24.2260305 31.7041357,25.5966069 28.9500334,25.9181963 C26.2809058,26.2298634 24.9477945,24.7376996 25.7451333,21.9203921 C25.9080285,21.34482 26.4475456,20.4143215 27.3636845,19.1288966 Z" id="Path-23" fill="#D3DAE0"></path>
                                        <path d="M23.5362533,25.843434 L22.9685299,38.0170762 C25.2003228,38.9557245 26.873906,39.5559701 27.9892795,39.8178131 C29.1046529,40.079656 31.7156776,40.4852566 35.8223534,41.034615 L35.2024445,29.2133834 C35.4883489,29.5750592 35.6313012,29.9815085 35.6313012,30.4327315 C35.6313012,30.8839544 35.7462189,33.1268156 35.9760542,37.1613151 C37.6605321,37.9777138 38.6001082,38.1967562 38.7947827,37.8184425 C39.0867945,37.2509718 39.518503,29.1463444 38.6391105,25.843434 C37.759718,22.5405237 35.4464404,20.3540935 34.0992188,20.1823739 C33.797764,20.1439499 32.9514383,19.8389374 32.6750919,20.1823739 C31.716428,21.3737781 31.2985453,24.7122695 29.0070193,24.5706369 C26.0549335,24.3881769 27.3867955,20.5584133 26.3681028,20.1823739 C25.3494102,19.8063346 23.0740383,21.581023 22.0640643,22.3034077 C21.3907483,22.7849975 19.9411352,24.4853878 17.7152248,27.4045786 C18.4549205,28.7034475 19.283319,29.3528819 20.2004204,29.3528819 C21.1175217,29.3528819 22.229466,28.183066 23.5362533,25.843434 Z" id="Path-75" fill="#5A98FF"></path>
                                        <path d="M23.4582963,11.005109 C23.7767749,11.0036687 25.4356989,13.4366445 25.9287258,16.3978496 C26.436699,19.4488251 25.7736167,23.0532603 25.7294191,24.6308709 C25.6938886,25.8991154 24.3087459,29.8829581 26.231819,31.4498286 C28.2980644,33.1333523 33.5799683,33.0063616 34.6729693,32.1885534 C37.7152634,29.9122401 32.282192,13.1316143 30.4080251,8.08530546 C28.5338581,3.03899663 23.3992061,2.72375771 20.7006785,3.4818596 C18.0021509,4.23996149 17.7902682,6.89184555 18.001458,8.50856434 C18.2126478,10.1252831 22.8116843,11.0080332 23.4582963,11.005109 Z" id="Path-30" fill="#3A3E85" transform="translate(26.760154, 17.971575) scale(-1, 1) translate(-26.760154, -17.971575) "></path>
                                        <path d="M36.9822589,10.3108174 C37.2137345,3.69472224 35.1800948,0.262860718 30.8813397,0.0152327999 C26.5825847,-0.232395118 23.9554714,2.53909948 23,8.32971658 C26.3550358,10.2388106 28.9821491,11.1933575 30.8813397,11.1933575 C32.7805304,11.1933575 34.8141701,10.8991775 36.9822589,10.3108174 Z" id="Path-25" fill="#5A98FF"></path>
                                        <path d="M36.3056364,38.1943655 C37.5366837,37.1467631 38.5202104,36.7883158 39.2562163,37.1190237 C40.3602253,37.6150855 40.7601735,39.177583 39.2562163,39.8970443 C37.7522592,40.6165056 30.1473073,44.9254805 29.9190836,45.0457154 C29.6908598,45.1659503 27.9797387,47.9781117 26.5399811,46.9890495 C25.1002235,45.9999874 26.8732248,43.8484687 27.9797387,43.7008655 C28.7174146,43.6024633 31.4927138,41.7669634 36.3056364,38.1943655 Z" id="Path-76-Copy" fill="#D3DAE0" transform="translate(33.119944, 42.099733) rotate(-14.000000) translate(-33.119944, -42.099733) "></path>
                                    </g>
                                    <g id="Group-4" transform="translate(3.000000, 19.000000)" fill="#EFF9FF" opacity="0.5">
                                        <polygon id="Path-60" points="0.156935953 46.0223406 28.2943814 54.6041712 28.2943814 86.5004857 0.156935953 78.8737698"></polygon>
                                        <polygon id="Path-62" points="0.382061002 43.2656206 11.9239674 1.92331676 40.1914969 9.9641039 28.417563 51.433837"></polygon>
                                        <polygon id="Path-64" points="43.7595166 12.161197 64.3940326 5.2800162 64.9993216 58.0925475 50.2178512 67.1916688 38.6571059 74.4069198 30.1951036 87.0053135 31.4376368 52.8971499"></polygon>
                                        <path d="M68.2487681,3.96696373 L69.3005905,56.3572143 L75.8044685,54.9742557 L75.8044685,0.782422501 L68.2487681,3.96696373 Z" id="Path-66"></path>
                                    </g>
                                    <polygon id="Path-68" fill="#0A1064" points="52.6171929 16.5891969 75.7896573 8.73985301 80.6557479 16.8026894 47.5594078 27.7853084"></polygon>
                                    <polygon id="Path-4" fill="#0A0F5F" points="33.1559693 107.443463 34.3866275 71.7864277 47.0370558 30.0046583 47.7700114 27.6641736 14.3780869 17.6209535 13.571117 20.4113521 43.3633419 29.032176 31.4454806 70.3914227 3.14208989 62.1826312 3.14208989 64.8389881 31.4454806 73.5452879 31.2096449 106.97995"></polygon>
                                </g>
                            </g>
                            <g id="Group-7" transform="translate(30.000000, 44.000000)">
                                <g id="Group-14" transform="translate(23.000000, 0.000000)">
                                    <path d="M4,142 L0.952528015,124.290948 C37.6308068,40.8987805 56.4904371,-0.529903231 57.5314187,0.00489655273 C57.7108202,0.0970632624 64.9580761,4.14022644 79.2731866,12.1343861 L110.610514,85.4168387 L140.37357,121.494221 L161,142 L4,142 Z" id="Path-81" fill="#F5F7F9"></path>
                                    <path d="M79,13 L120.399554,83.601467 C147.046456,124.478282 159.897066,144.257177 158.951383,142.938152 C158.0057,141.619127 139.869435,123.511699 104.542588,88.615869 L79,13 Z" id="Path-83" fill="#B0B5BB"></path>
                                    <polygon id="Path-82" fill="#B0B5BB" points="57 0 7.04124451 94.9959803 1.85964716 123.119692"></polygon>
                                </g>
                                <g id="coin" transform="translate(105.205039, 62.875019) rotate(6.000000) translate(-105.205039, -62.875019) translate(96.205039, 50.875019)">
                                    <ellipse id="Oval" fill="#1B6EF9" cx="8.55405944" cy="11.6430253" rx="8.55405944" ry="11.6430253"></ellipse>
                                    <ellipse id="Oval" fill="#5A98FF" cx="9.50451049" cy="11.6430253" rx="7.60360839" ry="11.1677998"></ellipse>
                                    <polygon id="Fill-10" fill="#FFFFFF" points="4.27702972 8.4416617 5.34628715 8.4416617 6.78622049 14.6433548 7.01448715 14.6433548 8.71088386 8.58422936 9.82291159 8.58422936 11.5196251 14.6433548 11.7618317 14.6433548 13.1875083 8.4416617 14.2567657 8.4416617 12.560369 15.5700446 10.7782733 15.5700446 9.26689772 9.99564916 7.75583896 15.5700446 5.97374325 15.5700446"></polygon>
                                </g>
                                <g id="coin" transform="translate(56.205039, 80.875019) rotate(6.000000) translate(-56.205039, -80.875019) translate(47.205039, 68.875019)">
                                    <ellipse id="Oval" fill="#1B6EF9" cx="8.55405944" cy="11.6430253" rx="8.55405944" ry="11.6430253"></ellipse>
                                    <ellipse id="Oval" fill="#5A98FF" cx="9.50451049" cy="11.6430253" rx="7.60360839" ry="11.1677998"></ellipse>
                                    <polygon id="Fill-10" fill="#FFFFFF" points="4.27702972 8.4416617 5.34628715 8.4416617 6.78622049 14.6433548 7.01448715 14.6433548 8.71088386 8.58422936 9.82291159 8.58422936 11.5196251 14.6433548 11.7618317 14.6433548 13.1875083 8.4416617 14.2567657 8.4416617 12.560369 15.5700446 10.7782733 15.5700446 9.26689772 9.99564916 7.75583896 15.5700446 5.97374325 15.5700446"></polygon>
                                </g>
                                <g id="Group-14" transform="translate(0.000000, 32.000000)">
                                    <path d="M0.812132064,179 C17.604044,141.381159 26,122.571738 26,122.571738 C26,122.571738 76.3148524,-1.00505112 77.8265965,0.00617241506 C78.0002845,0.122354394 85.0167361,5.21901784 98.8759513,15.2961627 L129.215275,107.673339 L158.030462,153.151166 L178,179 L0.812132064,179 Z" id="Path-81" fill="#FAFCFF"></path>
                                    <path d="M98,15 L138.364565,103.523378 C164.345295,154.776615 176.874639,179.576306 175.952598,177.922452 C175.030557,176.268597 157.347699,153.564669 122.904024,109.810666 L98,15 Z" id="Path-83" fill="#D3DAE0"></path>
                                    <polygon id="Path-82" fill="#D3DAE0" points="78 0 8.1143256 152.147344 3.05171078 179.384331"></polygon>
                                </g>
                                <g id="coin" transform="translate(142.784136, 150.323717) rotate(-31.000000) translate(-142.784136, -150.323717) translate(130.784136, 133.823717)">
                                    <ellipse id="Oval" fill="#1B6EF9" cx="11.8609079" cy="16.1440136" rx="11.8609079" ry="16.1440136"></ellipse>
                                    <ellipse id="Oval" fill="#5A98FF" cx="13.1787866" cy="16.1440136" rx="10.5430293" ry="15.4850742"></ellipse>
                                    <polygon id="Fill-10" fill="#FFFFFF" points="5.93045397 11.7050592 7.41306746 11.7050592 9.40965363 20.3042175 9.72616415 20.3042175 12.0783579 11.902741 13.6202759 11.902741 15.972909 20.3042175 16.3087484 20.3042175 18.2855664 11.7050592 19.7681799 11.7050592 17.4159861 21.5891492 14.9449636 21.5891492 12.8493169 13.8597908 10.7541095 21.5891492 8.28308702 21.5891492"></polygon>
                                </g>
                                <g id="coin" transform="translate(207.117392, 166.459534) rotate(-53.000000) translate(-207.117392, -166.459534) translate(198.117392, 154.459534)">
                                    <ellipse id="Oval" fill="#1B6EF9" cx="8.55405944" cy="11.6430253" rx="8.55405944" ry="11.6430253"></ellipse>
                                    <ellipse id="Oval" fill="#5A98FF" cx="9.50451049" cy="11.6430253" rx="7.60360839" ry="11.1677998"></ellipse>
                                    <polygon id="Fill-10" fill="#FFFFFF" points="4.27702972 8.4416617 5.34628715 8.4416617 6.78622049 14.6433548 7.01448715 14.6433548 8.71088386 8.58422936 9.82291159 8.58422936 11.5196251 14.6433548 11.7618317 14.6433548 13.1875083 8.4416617 14.2567657 8.4416617 12.560369 15.5700446 10.7782733 15.5700446 9.26689772 9.99564916 7.75583896 15.5700446 5.97374325 15.5700446"></polygon>
                                </g>
                                <g id="Group-14" transform="translate(162.000000, 157.500000) scale(-1, 1) translate(-162.000000, -157.500000) translate(116.000000, 104.000000)">
                                    <path d="M0,106 C0,83.7229209 0,72.5843813 0,72.5843813 C0,72.5843813 30.4537264,-0.595169937 31.3687294,0.00365517316 C31.4738564,0.0724556747 35.7206561,3.09059157 44.1091284,9.05806285 L62.472403,63.7618655 L79.9131746,90.6928691 L92,106 L0,106 Z" id="Path-81" fill="#FCFDFF"></path>
                                    <path d="M44,10 L68.3222381,62.6795561 C83.977293,93.1799488 91.5270261,107.938047 90.9714374,106.953852 C90.4158487,105.969656 79.7607932,92.4587293 59.0062707,66.4210714 L44,10 Z" id="Path-83" fill="#D3DAE0"></path>
                                    <polygon id="Path-82" fill="#E5E5E5" points="32 0 1 59.3638554 1 72"></polygon>
                                </g>
                            </g>
                        </g>
                    </g>
                </g>
            </g>
        </g>
    </g>
</svg>