<svg xmlns="http://www.w3.org/2000/svg" viewBox="0 0 508 508">
  <path
    d="M319.462 229.855l39.316 24.415-39.316 24.457c2.855-7.605 4.537-15.843 4.537-24.457s-1.682-16.81-4.537-24.415m-130.041 0c-2.855 7.605-4.535 15.843-4.535 24.415 0 8.615 1.637 16.81 4.535 24.415l-39.314-24.415zm65.022-30.594c30.452 0 54.939 24.541 54.939 55.009s-24.531 54.966-54.939 54.966c-30.454 0-54.981-24.541-54.981-54.966s24.571-55.009 54.981-55.009m0-26.727l-6.807 4.202-26.923 16.726c-1.932 1.094-3.78 2.227-5.586 3.488l-92.196 57.32 92.196 57.278c1.848 1.26 3.738 2.438 5.713 3.53l33.643 20.887 33.099-20.592c.084-.042.166-.126.251-.169a67.99 67.99 0 0 0 6.008-3.74l92.154-57.194-92.196-57.278c-1.85-1.26-3.738-2.478-5.713-3.572zm145.077 94.721c-4.244.043-8.863 1.178-13.525 3.909L268.05 344.411l1.176.715c3.319 1.932 7.687 3.277 12.517 3.193 4.242-.043 8.861-1.176 13.525-3.907l117.903-73.289-1.22-.756c-3.317-1.848-7.601-3.152-12.431-3.11M227.141 160.18c-4.242.043-8.863 1.176-13.525 3.907l-23.186 14.416-94.758 58.873c6.132 4.12 16.506 6.221 27.218 0l117.945-73.245-1.178-.714c-3.317-1.977-7.641-3.321-12.515-3.237"
    fill="#41bea5" />
  <defs />
</svg>
