<?xml version="1.0" encoding="UTF-8"?>
<svg width="368px" height="353px" viewBox="0 0 368 353" version="1.1" xmlns="http://www.w3.org/2000/svg" xmlns:xlink="http://www.w3.org/1999/xlink">
    <!-- Generator: Sketch 48.2 (47327) - http://www.bohemiancoding.com/sketch -->
    <title>The door to a world where history is no loger written by the victors</title>
    <desc>Created with Sketch.</desc>
    <defs>
        <polygon id="path-1" points="0 0.628741667 89.8815367 0.628741667 89.8815367 71.5224917 0 71.5224917"></polygon>
        <path d="M0.726486788,22.1277167 C5.44853235,20.298175 8.80233872,15.7199667 8.80233872,10.3453417 C8.80233872,6.328425 6.92506082,2.75563333 4.00836378,0.440008333 L82.8287419,46.0186333 L82.8287419,46.000425 C87.5634344,47.8228417 90.9306781,52.408175 90.9306781,57.7930917 C90.9306781,63.1605917 87.5831952,67.7332583 82.8698444,69.5667583 L82.8698444,69.626925 L0.726486788,22.1277167 Z" id="path-3"></path>
        <linearGradient x1="84.5575639%" y1="8.52413372%" x2="18.2504024%" y2="87.311567%" id="linearGradient-5">
            <stop stop-color="#EBEFF2" offset="0%"></stop>
            <stop stop-color="#F4F9FE" offset="52.4653221%"></stop>
            <stop stop-color="#FFFFFF" stop-opacity="0" offset="100%"></stop>
        </linearGradient>
    </defs>
    <g id="WEB-DESIGN-WITNET/new-header-sec-v." stroke="none" stroke-width="1" fill="none" fill-rule="evenodd" transform="translate(-223.000000, -8087.000000)">
        <g id="//BODY" transform="translate(-575.000000, 851.000000)">
            <g id="section-10" transform="translate(700.000000, 7236.000000)">
                <g id="section9">
                    <g id="ilustration">
                        <g transform="translate(249.000000, 177.000000) scale(-1, 1) translate(-249.000000, -177.000000) ">
                            <g id="books" transform="translate(215.000000, 0.000000)">
                                <g id="book" transform="translate(4.485194, 103.416667)">
                                    <path d="M89.6324713,93.79445 L7.48832323,46.29445 L86.6501683,0.5187 C87.4540385,0.0539916667 143.823754,30.7912417 171.205136,46.624575 C170.448692,47.0623667 169.692248,47.4993667 168.935804,47.9371583 C142.50136,63.22345 116.066915,78.5081583 89.6324713,93.79445" id="Fill-1" fill="#F0F1F5"></path>
                                    <path d="M8.00099795,46.1560667 C3.45600934,48.0679417 0.263451253,52.5669833 0.263451253,57.81415 C0.263451253,62.324275 2.62210273,66.2818167 6.17114601,68.518275 C6.57505718,68.7724 11.2141073,71.4078583 11.2141073,71.4078583 L90.145146,117.049817 L90.145146,93.465275 L8.00099795,46.1560667 Z" id="Fill-3" fill="#D3DAE0"></path>
                                    <path d="M172.288662,69.5666 C167.566616,67.7370583 164.21281,63.1580583 164.21281,57.784225 C164.21281,53.7673083 166.090088,50.1945167 169.006785,47.8788917 L90.1864066,93.4575167 L90.1864066,93.4393083 C85.4517141,95.261725 82.0844704,99.8470583 82.0844704,105.231975 C82.0844704,110.599475 85.4327437,115.172142 90.1453041,117.005642 L90.1453041,117.065808 L172.288662,69.5666 Z" id="Fill-5" fill="#F8F8F8"></path>
                                </g>
                                <g id="book" transform="translate(4.485194, 78.083333)">
                                    <path d="M89.3692572,93.6359583 L7.22510911,46.1359583 C33.6121273,30.877375 59.9991456,15.6187917 86.3869542,0.360208333 C87.1908244,-0.1045 143.56054,30.63275 170.941922,46.4660833 C170.185478,46.903875 169.428244,47.3416667 168.671799,47.7794583 C142.237355,63.0649583 115.802911,78.3496667 89.3692572,93.6359583" id="Fill-7" fill="#F0F1F5"></path>
                                    <g id="Group-11" transform="translate(0.000000, 45.368833)">
                                        <mask id="mask-2" fill="white">
                                            <use xlink:href="#path-1"></use>
                                        </mask>
                                        <g id="Clip-10"></g>
                                        <path d="M7.73738861,0.628741667 C3.1924,2.54061667 -0.00015808656,7.03965833 -0.00015808656,12.286825 C-0.00015808656,16.79695 2.35849339,20.7544917 5.90832711,22.99095 C6.31144784,23.2458667 10.9512884,25.8805333 10.9512884,25.8805333 L89.8815367,71.5224917 L89.8815367,47.93795 L7.73738861,0.628741667 Z" id="Fill-9" fill="#D3DAE0" mask="url(#mask-2)"></path>
                                    </g>
                                    <path d="M172.025052,69.4081083 C167.303797,67.5785667 163.9492,63.0003583 163.9492,57.6257333 C163.9492,53.608025 165.826478,50.036025 168.743175,47.7211917 L89.9227973,93.299025 L89.9227973,93.2808167 C85.1881048,95.1032333 81.820861,99.6885667 81.820861,105.073483 C81.820861,110.440983 85.1691344,115.01365 89.8816948,116.84715 L89.8816948,116.907317 L172.025052,69.4081083 Z" id="Fill-12" fill="#F8F8F8"></path>
                                </g>
                                <g id="book" transform="translate(0.000000, 51.166667)">
                                    <path d="M89.955126,93.2810542 L7.8109779,45.7810542 L86.972823,0.00530416667 C87.7766932,-0.459404167 144.146408,30.2778458 171.527791,46.1111792 C170.771347,46.5489708 170.014903,46.9867625 169.258459,47.4237625 C142.824014,62.7092625 116.38957,77.9955542 89.955126,93.2810542" id="Fill-20" fill="#F0F1F5"></path>
                                    <path d="M8.32365262,45.6426708 C3.77866401,47.5545458 0.586105923,52.0535875 0.586105923,57.3007542 C0.586105923,61.8108792 2.9447574,65.7684208 6.49380068,68.0056708 C6.89771185,68.2597958 11.536762,70.8944625 11.536762,70.8944625 L90.4678007,116.536421 L90.4678007,92.9518792 L8.32365262,45.6426708 Z" id="Fill-22" fill="#D3DAE0"></path>
                                    <path d="M172.611316,69.0532833 C167.889271,67.2245333 164.535464,62.6455333 164.535464,57.2709083 C164.535464,53.2532 166.412742,49.6812 169.329439,47.365575 L90.5090613,92.9442 L90.5090613,92.9267833 C85.7743688,94.7484083 82.4071251,99.3345333 82.4071251,104.717867 C82.4071251,110.086158 85.754608,114.658825 90.4679588,116.492325 L90.4679588,116.553283 L172.611316,69.0532833 Z" id="Fill-24" fill="#F8F8F8"></path>
                                </g>
                                <g id="book" transform="translate(12.000000, 30.000000)">
                                    <path d="M83.3827563,93.8554875 L165.526904,46.3554875 L86.3650592,0.5797375 C85.5611891,0.115029167 29.1914738,30.8522792 1.81009112,46.6864042 C2.56653531,47.1234042 3.3229795,47.5604042 4.08021412,47.9981958 C30.5146583,63.2844875 56.9483121,78.5691958 83.3827563,93.8554875" id="Fill-39" fill="#F0F1F5"></path>
                                    <g id="Group-43" transform="translate(82.205011, 46.160500)" fill="#D3DAE0">
                                        <path d="M82.8092182,0.0566041667 C87.3542068,1.96847917 90.5467649,6.46752083 90.5467649,11.7146875 C90.5467649,16.2248125 88.1881134,20.1823542 84.6390702,22.4188125 C84.235159,22.6729375 79.5961089,25.3083958 79.5961089,25.3083958 L0.665070159,70.9503542 L0.665070159,47.3658125 L82.8092182,0.0566041667 Z" id="Fill-41"></path>
                                    </g>
                                    <g id="Group-50" transform="translate(0.000000, 47.500000)">
                                        <mask id="mask-4" fill="white">
                                            <use xlink:href="#path-3"></use>
                                        </mask>
                                        <use id="Mask" fill="#F8F8F8" xlink:href="#path-3"></use>
                                    </g>
                                </g>
                                <g id="book">
                                    <path d="M89.8856469,93.576425 L7.74149886,46.076425 C34.1285171,30.8178417 60.5163257,15.5592583 86.903344,0.300675 C87.7072141,-0.164033333 144.076929,30.5732167 171.458312,46.40655 C170.701868,46.8443417 169.945424,47.2813417 169.188189,47.7191333 C142.753745,63.0046333 116.319301,78.2901333 89.8856469,93.576425" id="Fill-14" fill="#F0F1F5"></path>
                                    <path d="M8.25377836,45.9376458 C3.70878975,47.8503125 0.516231663,52.3493542 0.516231663,57.5957292 C0.516231663,62.1058542 2.87488314,66.0633958 6.42471686,68.3006458 C6.82783759,68.5547708 11.4676781,71.1894375 11.4676781,71.1894375 L90.3979264,116.831396 L90.3979264,93.2468542 L8.25377836,45.9376458 Z" id="Fill-16" fill="#D3DAE0"></path>
                                    <path d="M172.541442,69.3482583 C167.820187,67.5195083 164.46559,62.9405083 164.46559,57.566675 C164.46559,53.5489667 166.342868,49.9769667 169.259565,47.6613417 L90.439187,93.239175 L90.439187,93.2217583 C85.7044945,95.044175 82.3372508,99.6295083 82.3372508,105.013633 C82.3372508,110.381925 85.6855241,114.9538 90.3980845,116.7873 L90.3980845,116.848258 L172.541442,69.3482583 Z" id="Fill-18" fill="#F8F8F8"></path>
                                </g>
                            </g>
                            <g id="DRZWI" transform="translate(0.599089, 106.583333)">
                                <polygon id="Fill-52" fill="#0A0F5F" points="271.611767 93.1449667 271.611767 18.9262167 242.515972 2.6737703 242.373523 75.6295762"></polygon>
                                <polygon id="Fill-54" fill="#9257C6" points="272.597515 18.6139042 271.557306 18.8656542 242.545797 2.69634 243.537648 2.3808621"></polygon>
                                <polygon id="Fill-56" fill="#231F20" points="272.59712 18.6900625 272.59712 92.5850208 271.611451 93.1447292 271.632002 18.8879792"></polygon>
                                <polygon id="Fill-58" fill="#A168D3" points="278.679738 102.909383 278.679738 29.6303417 271.58007 18.8652583 271.370606 93.2827167"></polygon>
                                <polygon id="Fill-60" fill="#9257C6" points="279.76271 29.6307375 278.679817 29.6307375 271.611767 18.9266125 272.597436 18.6139042"></polygon>
                                <polygon id="Fill-62" fill="#9257C6" points="279.76271 29.6307375 279.430728 102.909779 278.679817 102.909779 278.679817 29.6307375"></polygon>
                                <polygon id="Fill-64" fill="#A168D3" points="242.368836 75.6625917 242.525341 2.69705 226.374428 0.9823 226.374428 74.4299667"></polygon>
                                <polyline id="Fill-66" fill="#9257C6" points="226.374507 0.9823 227.71271 0.7353 243.587762 2.41363333 242.525421 2.69705"></polyline>
                                <path d="M271.421979,73.6022856 C240.814487,75.1135784 220.605873,77.5045433 210.796136,80.7751803 C196.08153,85.6811359 167.468741,100.089767 172.376327,124.701066 C177.283913,149.312365 164.400277,180.667111 95.4674442,191.028476 C49.5122224,197.936052 17.8580213,202.338206 0.504840829,204.234936 L81.4930524,246.430393 C145.942754,233.553279 185.91204,221.150075 201.400911,209.220783 C224.634218,191.326844 237.498851,167.048152 224.09837,133.262439 C215.164716,110.738631 230.939252,97.3344953 271.421979,93.0500336 L271.421979,73.6022856 Z" id="Path-7" fill="url(#linearGradient-5)"></path>
                            </g>
                            <g id="grass" transform="translate(164.000000, 157.000000)">
                                <g transform="translate(51.000000, 0.000000)">
                                    <g id="Group-22-Copy" transform="translate(3.000000, 0.000000)">
                                        <g id="Group-17-Copy" transform="translate(3.142857, 3.250000)">
                                            <path d="M4.26451798,18.0157998 C3.97940424,13.2293289 4.00913485,9.80714552 4.3537098,7.74924952 C5.23232339,2.50192852 8.30219204,-0.239156657 7.80251952,0.0163815514 C7.3753147,0.234858957 3.77478541,1.98231828 1.66399995,7.44301022 C1.1342705,8.8134429 0.603710909,13.1608019 0.0723211799,20.4850872 L4.26451798,18.0157998 Z" id="Path-8" fill="#95CC5E"></path>
                                            <path d="M4.05243057,18.1693994 C3.5240142,14.3020991 3.547696,10.7532699 4.12347596,7.52291179 C5.04594337,2.34749707 8.3252813,-0.235208746 7.80066887,0.0168277138 C7.35214117,0.232311231 5.19298477,1.70249404 2.97684467,7.0883558 C1.49941794,10.6789303 1.09954328,14.7969801 1.77722069,19.4425051 L4.05243057,18.1693994 Z" id="Path-8" fill="#B8E986"></path>
                                        </g>
                                        <g id="Group-17-Copy-5">
                                            <path d="M5.07737089,22.865941 C4.73205595,16.7908757 4.76806411,12.4473858 5.18539539,9.83547133 C6.2495265,3.17548766 9.96759187,-0.303541451 9.36241449,0.0207917268 C8.84500621,0.298086742 4.48423225,2.51599004 1.92775861,9.44678752 C1.28617783,11.1861626 0.643591623,16.7039001 0,26 L5.07737089,22.865941 Z" id="Path-8" fill="#95CC5E"></path>
                                            <path d="M4.75729236,22.7789119 C4.10852311,17.9304912 4.13759871,13.4813365 4.84451914,9.43144797 C5.97708907,2.94304879 10.0033338,-0.294880375 9.35923484,0.0210968454 C8.80854983,0.29124777 6.15762083,2.13441076 3.43672945,8.88664665 C1.62280186,13.3881372 1.13185117,18.5509217 1.96387738,24.375 L4.75729236,22.7789119 Z" id="Path-8" fill="#B8E986"></path>
                                        </g>
                                        <g id="Group-17" transform="translate(6.285714, 8.125000)">
                                            <path d="M2.658532,12.2232211 C2.34595439,9.70641462 2.34595439,7.4253604 2.658532,5.38005843 C3.1593182,2.10324341 4.90906107,0.391507259 4.62426113,0.551084201 C4.38076582,0.687517639 2.3285606,1.77876038 1.12546946,5.18881998 C0.647164264,6.54453539 0.331019136,9.39255057 0.177034071,13.7328655 L2.658532,12.2232211 Z" id="Path-8" fill="#95CC5E"></path>
                                            <path d="M2.658532,12.2525759 C2.34595439,9.71619955 2.34595439,7.4253604 2.658532,5.38005843 C3.1593182,2.10324341 4.93959483,0.468002638 4.65479489,0.62757958 C4.41129959,0.764013018 3.23914356,1.6948596 2.03605242,5.1049192 C1.23399165,7.37829227 1.05688874,9.98185779 1.50474369,12.9156158 L2.658532,12.2525759 Z" id="Path-8" fill="#BEBEBE"></path>
                                        </g>
                                    </g>
                                    <g id="Group-22" transform="translate(13.000000, 13.000000) scale(-1, 1) translate(-13.000000, -13.000000) translate(7.000000, 0.000000)">
                                        <g id="Group-17-Copy" transform="translate(3.142857, 3.176471)">
                                            <path d="M4.26451798,17.6082025 C3.97940424,12.9300229 4.00913485,9.5852644 4.3537098,7.57392713 C5.23232339,2.4453238 8.30219204,-0.233745873 7.80251952,0.016010928 C7.3753147,0.229545406 3.77478541,1.93746945 1.66399995,7.27461633 C1.1342705,8.61404373 0.603710909,12.8630462 0.0723211799,20.0216236 L4.26451798,17.6082025 Z" id="Path-8" fill="#95CC5E"></path>
                                            <path d="M4.05243057,17.758327 C3.5240142,13.9785222 3.547696,10.5099832 4.12347596,7.35271017 C5.04594337,2.29438627 8.3252813,-0.229887281 7.80066887,0.0164469963 C7.35214117,0.22705532 5.19298477,1.66397607 2.97684467,6.92798576 C1.49941794,10.4373255 1.09954328,14.4622068 1.77722069,19.0026294 L4.05243057,17.758327 Z" id="Path-8" fill="#B8E986"></path>
                                        </g>
                                        <g id="Group-17-Copy-5">
                                            <path d="M5.07737089,22.3486121 C4.73205595,16.4109917 4.76806411,12.1657708 5.18539539,9.61294935 C6.2495265,3.10364405 9.96759187,-0.296673998 9.36241449,0.0203213257 C8.84500621,0.291342698 4.48423225,2.45906719 1.92775861,9.2330593 C1.28617783,10.933082 0.643591623,16.3259838 0,25.4117647 L5.07737089,22.3486121 Z" id="Path-8" fill="#95CC5E"></path>
                                            <path d="M4.75729236,22.2635519 C4.10852311,17.5248239 4.13759871,13.1763289 4.84451914,9.21806679 C5.97708907,2.87646397 10.0033338,-0.288208873 9.35923484,0.0206195412 C8.80854983,0.284658454 6.15762083,2.08612093 3.43672945,8.68559129 C1.62280186,13.0852382 1.13185117,18.1312176 1.96387738,23.8235294 L4.75729236,22.2635519 Z" id="Path-8" fill="#B8E986"></path>
                                        </g>
                                        <g id="Group-17" transform="translate(6.285714, 7.941176)">
                                            <path d="M2.48149792,11.4180598 C2.16892031,8.95819465 2.16892031,6.72874799 2.48149792,4.72971982 C2.98228413,1.52704089 4.732027,-0.145968197 4.44722705,0.0099984067 C4.20373175,0.143345115 2.15152653,1.20989911 0.948435385,4.54280804 C0.470130193,5.86785116 0.153985065,8.6514316 0,12.8935494 L2.48149792,11.4180598 Z" id="Path-8" fill="#95CC5E"></path>
                                            <path d="M2.48149792,16.1827657 C2.16892031,13.7229005 2.16892031,11.4934539 2.48149792,9.49442571 C2.98228413,6.29174678 4.732027,4.61873769 4.44722705,4.77470429 C4.20373175,4.908051 2.15152653,5.97460499 0.948435385,9.30751392 C0.470130193,10.632557 0.153985065,13.4161375 0,17.6582553 L2.48149792,16.1827657 Z" id="Path-8-Copy" fill="#95CC5E"></path>
                                            <path d="M2.658532,11.9753683 C2.34595439,9.49637603 2.34595439,7.25736582 2.658532,5.25833765 C3.1593182,2.05565872 4.93959483,0.457414343 4.65479489,0.613380947 C4.41129959,0.746727656 3.23914356,1.65651436 2.03605242,4.98942329 C1.23399165,7.21136258 1.05688874,9.7560239 1.50474369,12.6234073 L2.658532,11.9753683 Z" id="Path-8" fill="#B8E986"></path>
                                        </g>
                                    </g>
                                    <g id="Group-17-Copy-3" transform="translate(4.000000, 18.500000) scale(-1, 1) translate(-4.000000, -18.500000) translate(0.000000, 8.000000)">
                                        <path d="M4.57297854,18.097503 C4.12873167,13.2138174 4.08202821,9.74911507 4.43286816,7.70339597 C5.32745654,2.48712421 8.45314099,-0.237741529 7.94438352,0.0162846191 C7.50941133,0.233469259 3.84341787,1.97058858 1.6942545,7.39896874 C1.1548936,8.76129235 0.613837448,13.2235107 0.071086041,20.7856239 L4.57297854,18.097503 Z" id="Path-8" fill="#95CC5E"></path>
                                        <path d="M4.12611113,18.0618881 C3.58808719,14.2174713 3.61219956,10.6896411 4.19844825,7.47839752 C5.1376878,2.33360655 8.47665006,-0.233816978 7.94249921,0.0167281415 C7.48581647,0.230936608 5.28740267,1.69242011 3.03096912,7.04641286 C1.52668008,10.6157414 1.11953498,14.709424 1.8095338,19.3274607 L4.12611113,18.0618881 Z" id="Path-8" fill="#B8E986"></path>
                                    </g>
                                    <g id="Group-17-Copy-4" transform="translate(8.000000, 22.000000) scale(-1, 1) translate(-8.000000, -22.000000) translate(5.000000, 14.000000)">
                                        <path d="M3.2310542,14.0713483 C3.01130833,10.3328466 3.03422262,7.65992974 3.29979706,6.05259774 C3.97697141,1.95414625 6.34301301,-0.186794739 5.95790013,0.0127949088 C5.62864031,0.183437995 2.85360234,1.54830156 1.22675548,5.81340771 C0.818476798,6.88379235 0.409558306,10.2793231 0,16 L3.2310542,14.0713483 Z" id="Path-8" fill="#D8D8D8"></path>
                                        <path d="M3.32463108,13.4570802 C2.95306324,10.5927825 2.96971562,7.96435881 3.37458824,5.57180926 C4.02324192,1.73866267 6.32918207,-0.174206252 5.96028905,0.0124633671 C5.64489672,0.172060221 4.12663738,1.26094421 2.56830868,5.2499574 C1.52942289,7.90929954 1.24824204,10.9593137 1.72476613,14.4 L3.32463108,13.4570802 Z" id="Path-8" fill="#BEBEBE"></path>
                                    </g>
                                    <g id="Group-17-Copy-6" transform="translate(8.000000, 22.000000) scale(-1, 1) translate(-8.000000, -22.000000) translate(5.000000, 14.000000)">
                                        <path d="M3.2310542,14.0713483 C3.01130833,10.3328466 3.03422262,7.65992974 3.29979706,6.05259774 C3.97697141,1.95414625 6.34301301,-0.186794739 5.95790013,0.0127949088 C5.62864031,0.183437995 2.85360234,1.54830156 1.22675548,5.81340771 C0.818476798,6.88379235 0.409558306,10.2793231 0,16 L3.2310542,14.0713483 Z" id="Path-8" fill="#95CC5E"></path>
                                        <path d="M3.32463108,13.4570802 C2.95306324,10.5927825 2.96971562,7.96435881 3.37458824,5.57180926 C4.02324192,1.73866267 6.32918207,-0.174206252 5.96028905,0.0124633671 C5.64489672,0.172060221 4.12663738,1.26094421 2.56830868,5.2499574 C1.52942289,7.90929954 1.24824204,10.9593137 1.72476613,14.4 L3.32463108,13.4570802 Z" id="Path-8" fill="#B8E986"></path>
                                    </g>
                                    <g id="Group-17-Copy-7" transform="translate(3.500000, 19.500000) scale(-1, 1) translate(-3.500000, -19.500000) translate(0.000000, 11.000000)">
                                        <path d="M4.11978353,14.8554947 C3.83650412,10.722465 3.83650412,7.83401905 4.11978353,6.19015678 C4.84210284,1.99855867 7.36588054,-0.191040074 6.95509347,0.0130857022 C6.603883,0.18760704 3.6438425,1.58349023 1.90853918,5.94553061 C1.47304192,7.04024218 1.03246691,10.6839408 0.586814136,16.8766263 L4.11978353,14.8554947 Z" id="Path-8" fill="#95CC5E"></path>
                                        <path d="M4.1366558,14.8270692 C3.74672833,11.1882429 3.76769666,8.14536696 4.19956079,5.69844129 C4.89145805,1.77817773 7.35112754,-0.178165485 6.95764165,0.0127466255 C6.62122317,0.175970681 5.00174654,1.28960203 3.33952926,5.36927462 C2.23138441,8.08905634 1.96345663,11.5572773 2.53574591,15.7739376 L4.1366558,14.8270692 Z" id="Path-8" fill="#B8E986"></path>
                                    </g>
                                    <g id="Group-22" transform="translate(11.000000, 5.000000)">
                                        <g id="Group-17-Copy" transform="translate(3.142857, 3.250000)">
                                            <path d="M4.26451798,18.0157998 C3.97940424,13.2293289 4.00913485,9.80714552 4.3537098,7.74924952 C5.23232339,2.50192852 8.30219204,-0.239156657 7.80251952,0.0163815514 C7.3753147,0.234858957 3.77478541,1.98231828 1.66399995,7.44301022 C1.1342705,8.8134429 0.603710909,13.1608019 0.0723211799,20.4850872 L4.26451798,18.0157998 Z" id="Path-8" fill="#95CC5E"></path>
                                            <path d="M4.12347596,18.2677938 C3.547696,14.3348972 3.547696,10.7532699 4.12347596,7.52291179 C5.04594337,2.34749707 8.3252813,-0.235208746 7.80066887,0.0168277138 C7.35214117,0.232311231 5.19298477,1.70249404 2.97684467,7.0883558 C1.49941794,10.6789303 1.11370079,14.8774095 1.81969322,19.6837933 L4.12347596,18.2677938 Z" id="Path-8" fill="#B8E986"></path>
                                        </g>
                                        <g id="Group-17-Copy-5">
                                            <path d="M5.07737089,22.865941 C4.73205595,16.7908757 4.76806411,12.4473858 5.18539539,9.83547133 C6.2495265,3.17548766 9.96759187,-0.303541451 9.36241449,0.0207917268 C8.84500621,0.298086742 4.48423225,2.51599004 1.92775861,9.44678752 C1.28617783,11.1861626 0.643591623,16.7039001 0,26 L5.07737089,22.865941 Z" id="Path-8" fill="#95CC5E"></path>
                                            <path d="M4.71348942,23.0626455 C4.09392213,18.025069 4.13759871,13.4813365 4.84451914,9.43144797 C5.97708907,2.94304879 10.0033338,-0.294880375 9.35923484,0.0210968454 C8.80854983,0.29124777 6.15762083,2.13441076 3.43672945,8.88664665 C1.62280186,13.3881372 1.13659303,18.6896771 1.97810295,24.7912663 L4.71348942,23.0626455 Z" id="Path-8" fill="#B8E986"></path>
                                        </g>
                                        <g id="Group-17" transform="translate(6.285714, 8.125000)">
                                            <path d="M2.658532,12.4192607 C2.34595439,9.77176117 2.34595439,7.4253604 2.658532,5.38005843 C3.1593182,2.10324341 4.90906107,0.391507259 4.62426113,0.551084201 C4.38076582,0.687517639 2.3285606,1.77876038 1.12546946,5.18881998 C0.647164264,6.54453539 0.341557626,9.43207963 0.208649543,13.8514527 L2.658532,12.4192607 Z" id="Path-8" fill="#95CC5E"></path>
                                            <path d="M2.658532,12.4121574 C2.34595439,9.76939341 2.34595439,7.4253604 2.658532,5.38005843 C3.1593182,2.10324341 4.93959483,0.468002638 4.65479489,0.62757958 C4.41129959,0.764013018 3.23914356,1.6948596 2.03605242,5.1049192 C1.23399165,7.37829227 1.07592949,10.0346223 1.56186592,13.0739094 L2.658532,12.4121574 Z" id="Path-8" fill="#B8E986"></path>
                                        </g>
                                    </g>
                                    <g id="Group-17-Copy-2" transform="translate(7.500000, 23.000000) scale(-1, 1) translate(-7.500000, -23.000000) translate(5.000000, 16.000000)">
                                        <path d="M2.81965515,11.6506285 C2.48813344,9.27486633 2.48813344,7.10803731 2.81965515,5.1501414 C3.35079203,2.01336122 5.20657992,0.37477618 4.90451938,0.527533594 C4.64626678,0.658136544 2.46968549,1.70274498 1.19367973,4.96707554 C0.686386341,6.26485439 0.336446583,8.96142393 0.143860453,13.0567841 L2.81965515,11.6506285 Z" id="Path-8" fill="#95CC5E"></path>
                                        <path d="M2.81965515,11.6459998 C2.48813344,9.27332344 2.48813344,7.10803731 2.81965515,5.1501414 C3.35079203,2.01336122 5.23896422,0.448002525 4.93690367,0.60075994 C4.67865108,0.731362889 3.4354553,1.6224297 2.15944953,4.88676026 C1.30877902,7.06298063 1.11416664,9.53889215 1.57561238,12.3144948 L2.81965515,11.6459998 Z" id="Path-8" fill="#B8E986"></path>
                                    </g>
                                    <g id="Group-17-Copy-8" transform="translate(10.500000, 23.500000) scale(-1, 1) translate(-10.500000, -23.500000) translate(8.000000, 16.000000)">
                                        <path d="M2.81965515,12.0351715 C2.48813344,9.55708516 2.48813344,7.31112409 2.81965515,5.2972883 C3.35079203,2.07088582 5.20657992,0.385484071 4.90451938,0.542605983 C4.64626678,0.676940445 2.46968549,1.75139483 1.19367973,5.10899198 C0.686386341,6.44385023 0.351080902,9.2480498 0.187763409,13.5215907 L2.81965515,12.0351715 Z" id="Path-8" fill="#95CC5E"></path>
                                        <path d="M3.15503358,13.6149884 C2.59992625,10.0836908 2.48813344,7.31112409 2.81965515,5.2972883 C3.35079203,2.07088582 5.23896422,0.460802597 4.93690367,0.61792451 C4.67865108,0.752258972 3.4354553,1.66878483 2.15944953,5.02638198 C1.30877902,7.26478008 1.14195254,10.4130998 1.65897008,14.4713412 L3.15503358,13.6149884 Z" id="Path-8" fill="#B8E986"></path>
                                    </g>
                                </g>
                                <g transform="translate(62.000000, 11.000000)">
                                    <g id="Group-22-Copy" transform="translate(2.000000, 0.000000)">
                                        <g id="Group-17-Copy" transform="translate(2.000000, 2.000000)">
                                            <path d="M2.71378417,11.086646 C2.53234815,8.14112551 2.55126763,6.03516647 2.7705426,4.76876893 C3.32966034,1.53964832 5.28321312,-0.147173327 4.9652397,0.0100809547 C4.69338208,0.144528589 2.40213617,1.21988817 1.05890906,4.58031398 C0.7218085,5.42365717 0.38417967,8.098955 0.0460225691,12.6062075 L2.71378417,11.086646 Z" id="Path-8" fill="#95CC5E"></path>
                                            <path d="M2.57881946,11.1811688 C2.24255449,8.80129175 2.25762473,6.61739686 2.62403016,4.62948418 C3.21105487,1.44461358 5.29790628,-0.144743844 4.96406201,0.0103555162 C4.67863529,0.142960757 3.30462667,1.04768864 1.8943557,4.36206511 C0.954175052,6.57164942 0.69970936,9.10583389 1.13095862,11.9646185 L2.57881946,11.1811688 Z" id="Path-8" fill="#B8E986"></path>
                                        </g>
                                        <g id="Group-17-Copy-5">
                                            <path d="M3.2310542,14.0713483 C3.01130833,10.3328466 3.03422262,7.65992974 3.29979706,6.05259774 C3.97697141,1.95414625 6.34301301,-0.186794739 5.95790013,0.0127949088 C5.62864031,0.183437995 2.85360234,1.54830156 1.22675548,5.81340771 C0.818476798,6.88379235 0.409558306,10.2793231 0,16 L3.2310542,14.0713483 Z" id="Path-8" fill="#95CC5E"></path>
                                            <path d="M3.02736786,14.0177919 C2.61451471,11.0341484 2.63301736,8.29620709 3.08287582,5.80396798 C3.80360214,1.81110695 6.36575785,-0.181464846 5.95587672,0.0129826741 C5.6054408,0.179229397 3.91848598,1.31348355 2.18700965,5.46870563 C1.0326921,8.23885368 0.720268929,11.4159518 1.24974015,15 L3.02736786,14.0177919 Z" id="Path-8" fill="#B8E986"></path>
                                        </g>
                                        <g id="Group-17" transform="translate(4.000000, 5.000000)">
                                            <path d="M1.69179309,7.5219822 C1.49288006,5.97317823 1.49288006,4.56945255 1.69179309,3.31080519 C2.01047522,1.29430364 3.12394795,0.240927544 2.94271163,0.339128739 C2.78776007,0.423087778 1.48181129,1.09462177 0.716207835,3.19311999 C0.411831804,4.0274064 0.210648541,5.78003112 0.112658045,8.45099417 L1.69179309,7.5219822 Z" id="Path-8" fill="#95CC5E"></path>
                                            <path d="M1.69179309,7.54004669 C1.49288006,5.97919972 1.49288006,4.56945255 1.69179309,3.31080519 C2.01047522,1.29430364 3.14337853,0.288001623 2.9621422,0.386202819 C2.80719065,0.470161857 2.06127318,1.04299052 1.29566972,3.14148874 C0.785267414,4.54048755 0.672565562,6.14268172 0.957564164,7.94807124 L1.69179309,7.54004669 Z" id="Path-8" fill="#BEBEBE"></path>
                                        </g>
                                    </g>
                                    <g id="Group-22" transform="translate(8.500000, 8.500000) scale(-1, 1) translate(-8.500000, -8.500000) translate(5.000000, 0.000000)">
                                        <g id="Group-17-Copy" transform="translate(2.000000, 2.000000)">
                                            <path d="M2.71378417,11.086646 C2.53234815,8.14112551 2.55126763,6.03516647 2.7705426,4.76876893 C3.32966034,1.53964832 5.28321312,-0.147173327 4.9652397,0.0100809547 C4.69338208,0.144528589 2.40213617,1.21988817 1.05890906,4.58031398 C0.7218085,5.42365717 0.38417967,8.098955 0.0460225691,12.6062075 L2.71378417,11.086646 Z" id="Path-8" fill="#95CC5E"></path>
                                            <path d="M2.57881946,11.1811688 C2.24255449,8.80129175 2.25762473,6.61739686 2.62403016,4.62948418 C3.21105487,1.44461358 5.29790628,-0.144743844 4.96406201,0.0103555162 C4.67863529,0.142960757 3.30462667,1.04768864 1.8943557,4.36206511 C0.954175052,6.57164942 0.69970936,9.10583389 1.13095862,11.9646185 L2.57881946,11.1811688 Z" id="Path-8" fill="#B8E986"></path>
                                        </g>
                                        <g id="Group-17-Copy-5">
                                            <path d="M3.2310542,14.0713483 C3.01130833,10.3328466 3.03422262,7.65992974 3.29979706,6.05259774 C3.97697141,1.95414625 6.34301301,-0.186794739 5.95790013,0.0127949088 C5.62864031,0.183437995 2.85360234,1.54830156 1.22675548,5.81340771 C0.818476798,6.88379235 0.409558306,10.2793231 0,16 L3.2310542,14.0713483 Z" id="Path-8" fill="#95CC5E"></path>
                                            <path d="M3.02736786,14.0177919 C2.61451471,11.0341484 2.63301736,8.29620709 3.08287582,5.80396798 C3.80360214,1.81110695 6.36575785,-0.181464846 5.95587672,0.0129826741 C5.6054408,0.179229397 3.91848598,1.31348355 2.18700965,5.46870563 C1.0326921,8.23885368 0.720268929,11.4159518 1.24974015,15 L3.02736786,14.0177919 Z" id="Path-8" fill="#B8E986"></path>
                                        </g>
                                        <g id="Group-17" transform="translate(4.000000, 5.000000)">
                                            <path d="M1.57913504,7.18914876 C1.38022202,5.64034478 1.38022202,4.23661911 1.57913504,2.97797174 C1.89781717,0.961470192 3.01128991,-0.091905902 2.83005358,0.00629529311 C2.67510202,0.0902543318 1.36915325,0.761788325 0.60354979,2.86028654 C0.299173759,3.69457295 0.0979904958,5.44719768 0,8.11816072 L1.57913504,7.18914876 Z" id="Path-8" fill="#95CC5E"></path>
                                            <path d="M1.57913504,10.1891488 C1.38022202,8.64034478 1.38022202,7.23661911 1.57913504,5.97797174 C1.89781717,3.96147019 3.01128991,2.9080941 2.83005358,3.00629529 C2.67510202,3.09025433 1.36915325,3.76178833 0.60354979,5.86028654 C0.299173759,6.69457295 0.0979904958,8.44719768 0,11.1181607 L1.57913504,10.1891488 Z" id="Path-8-Copy" fill="#95CC5E"></path>
                                            <path d="M1.69179309,7.54004669 C1.49288006,5.97919972 1.49288006,4.56945255 1.69179309,3.31080519 C2.01047522,1.29430364 3.14337853,0.288001623 2.9621422,0.386202819 C2.80719065,0.470161857 2.06127318,1.04299052 1.29566972,3.14148874 C0.785267414,4.54048755 0.672565562,6.14268172 0.957564164,7.94807124 L1.69179309,7.54004669 Z" id="Path-8" fill="#B8E986"></path>
                                        </g>
                                    </g>
                                    <g id="Group-17-Copy-3" transform="translate(2.500000, 11.500000) scale(-1, 1) translate(-2.500000, -11.500000) translate(0.000000, 5.000000)">
                                        <path d="M2.85811159,11.2032161 C2.58045729,8.1799822 2.55126763,6.03516647 2.7705426,4.76876893 C3.32966034,1.53964832 5.28321312,-0.147173327 4.9652397,0.0100809547 C4.69338208,0.144528589 2.40213617,1.21988817 1.05890906,4.58031398 C0.7218085,5.42365717 0.383648405,8.18598283 0.0444287756,12.867291 L2.85811159,11.2032161 Z" id="Path-8" fill="#95CC5E"></path>
                                        <path d="M2.57881946,11.1811688 C2.24255449,8.80129175 2.25762473,6.61739686 2.62403016,4.62948418 C3.21105487,1.44461358 5.29790628,-0.144743844 4.96406201,0.0103555162 C4.67863529,0.142960757 3.30462667,1.04768864 1.8943557,4.36206511 C0.954175052,6.57164942 0.69970936,9.10583389 1.13095862,11.9646185 L2.57881946,11.1811688 Z" id="Path-8" fill="#B8E986"></path>
                                    </g>
                                    <g id="Group-17-Copy-4" transform="translate(5.000000, 14.000000) scale(-1, 1) translate(-5.000000, -14.000000) translate(3.000000, 9.000000)">
                                        <path d="M2.15403614,8.79459271 C2.00753889,6.45802912 2.02281508,4.78745609 2.19986471,3.78287359 C2.65131427,1.22134141 4.22867534,-0.116746712 3.97193342,0.007996818 C3.75242688,0.114648747 1.90240156,0.967688476 0.817836985,3.63337982 C0.545651199,4.30237022 0.273038871,6.42457695 0,10 L2.15403614,8.79459271 Z" id="Path-8" fill="#D8D8D8"></path>
                                        <path d="M2.21642072,8.41067515 C1.96870882,6.62048904 1.97981041,4.97772425 2.24972549,3.48238079 C2.68216128,1.08666417 4.21945471,-0.108878908 3.97352603,0.00778960445 C3.76326448,0.107537638 2.75109159,0.788090128 1.71220579,3.28122338 C1.01961526,4.94331221 0.832161357,6.84957108 1.14984409,9 L2.21642072,8.41067515 Z" id="Path-8" fill="#BEBEBE"></path>
                                    </g>
                                    <g id="Group-17-Copy-6" transform="translate(5.000000, 14.000000) scale(-1, 1) translate(-5.000000, -14.000000) translate(3.000000, 9.000000)">
                                        <path d="M2.15403614,8.79459271 C2.00753889,6.45802912 2.02281508,4.78745609 2.19986471,3.78287359 C2.65131427,1.22134141 4.22867534,-0.116746712 3.97193342,0.007996818 C3.75242688,0.114648747 1.90240156,0.967688476 0.817836985,3.63337982 C0.545651199,4.30237022 0.273038871,6.42457695 0,10 L2.15403614,8.79459271 Z" id="Path-8" fill="#95CC5E"></path>
                                        <path d="M2.21642072,8.41067515 C1.96870882,6.62048904 1.97981041,4.97772425 2.24972549,3.48238079 C2.68216128,1.08666417 4.21945471,-0.108878908 3.97352603,0.00778960445 C3.76326448,0.107537638 2.75109159,0.788090128 1.71220579,3.28122338 C1.01961526,4.94331221 0.832161357,6.84957108 1.14984409,9 L2.21642072,8.41067515 Z" id="Path-8" fill="#B8E986"></path>
                                    </g>
                                    <g id="Group-17-Copy-7" transform="translate(2.500000, 12.500000) scale(-1, 1) translate(-2.500000, -12.500000) translate(0.000000, 7.000000)">
                                        <path d="M3.19986471,9.07835784 C3.02281508,6.5526175 3.02281508,4.78745609 3.19986471,3.78287359 C3.65131427,1.22134141 5.22867534,-0.116746712 4.97193342,0.007996818 C4.75242688,0.114648747 2.90240156,0.967688476 1.81783699,3.63337982 C1.5456512,4.30237022 1.27029182,6.52907491 0.991758835,10.3134939 L3.19986471,9.07835784 Z" id="Path-8" fill="#95CC5E"></path>
                                        <path d="M3.21040987,9.06098676 C2.96670521,6.83725958 2.97981041,4.97772425 3.24972549,3.48238079 C3.68216128,1.08666417 5.21945471,-0.108878908 4.97352603,0.00778960445 C4.76326448,0.107537638 3.75109159,0.788090128 2.71220579,3.28122338 C2.01961526,4.94331221 1.85216039,7.0627806 2.20984119,9.63962854 L3.21040987,9.06098676 Z" id="Path-8" fill="#B8E986"></path>
                                    </g>
                                    <g id="Group-22" transform="translate(7.000000, 3.000000)">
                                        <g id="Group-17-Copy" transform="translate(2.000000, 2.000000)">
                                            <path d="M2.71378417,11.086646 C2.53234815,8.14112551 2.55126763,6.03516647 2.7705426,4.76876893 C3.32966034,1.53964832 5.28321312,-0.147173327 4.9652397,0.0100809547 C4.69338208,0.144528589 2.40213617,1.21988817 1.05890906,4.58031398 C0.7218085,5.42365717 0.38417967,8.098955 0.0460225691,12.6062075 L2.71378417,11.086646 Z" id="Path-8" fill="#95CC5E"></path>
                                            <path d="M2.62403016,11.2417193 C2.25762473,8.82147522 2.25762473,6.61739686 2.62403016,4.62948418 C3.21105487,1.44461358 5.29790628,-0.144743844 4.96406201,0.0103555162 C4.67863529,0.142960757 3.30462667,1.04768864 1.8943557,4.36206511 C0.954175052,6.57164942 0.708718684,9.1553289 1.15798659,12.1131036 L2.62403016,11.2417193 Z" id="Path-8" fill="#B8E986"></path>
                                        </g>
                                        <g id="Group-17-Copy-5">
                                            <path d="M3.2310542,14.0713483 C3.01130833,10.3328466 3.03422262,7.65992974 3.29979706,6.05259774 C3.97697141,1.95414625 6.34301301,-0.186794739 5.95790013,0.0127949088 C5.62864031,0.183437995 2.85360234,1.54830156 1.22675548,5.81340771 C0.818476798,6.88379235 0.409558306,10.2793231 0,16 L3.2310542,14.0713483 Z" id="Path-8" fill="#95CC5E"></path>
                                            <path d="M2.99949326,14.1923972 C2.60522317,11.0923502 2.63301736,8.29620709 3.08287582,5.80396798 C3.80360214,1.81110695 6.36575785,-0.181464846 5.95587672,0.0129826741 C5.6054408,0.179229397 3.91848598,1.31348355 2.18700965,5.46870563 C1.0326921,8.23885368 0.723286475,11.5013398 1.25879279,15.2561639 L2.99949326,14.1923972 Z" id="Path-8" fill="#B8E986"></path>
                                        </g>
                                        <g id="Group-17" transform="translate(4.000000, 5.000000)">
                                            <path d="M1.69179309,7.64262199 C1.49288006,6.01339149 1.49288006,4.56945255 1.69179309,3.31080519 C2.01047522,1.29430364 3.12394795,0.240927544 2.94271163,0.339128739 C2.78776007,0.423087778 1.48181129,1.09462177 0.716207835,3.19311999 C0.411831804,4.0274064 0.217354853,5.80435669 0.132776982,8.52397088 L1.69179309,7.64262199 Z" id="Path-8" fill="#95CC5E"></path>
                                            <path d="M1.69179309,7.63825074 C1.49288006,6.0119344 1.49288006,4.56945255 1.69179309,3.31080519 C2.01047522,1.29430364 3.14337853,0.288001623 2.9621422,0.386202819 C2.80719065,0.470161857 2.06127318,1.04299052 1.29566972,3.14148874 C0.785267414,4.54048755 0.6846824,6.17515221 0.993914678,8.04548271 L1.69179309,7.63825074 Z" id="Path-8" fill="#B8E986"></path>
                                        </g>
                                    </g>
                                    <g id="Group-17-Copy-2" transform="translate(4.500000, 14.500000) scale(-1, 1) translate(-4.500000, -14.500000) translate(3.000000, 10.000000)">
                                        <path d="M1.69179309,7.48968973 C1.49288006,5.96241407 1.49288006,4.56945255 1.69179309,3.31080519 C2.01047522,1.29430364 3.12394795,0.240927544 2.94271163,0.339128739 C2.78776007,0.423087778 1.48181129,1.09462177 0.716207835,3.19311999 C0.411831804,4.0274064 0.20186795,5.76091538 0.0863162718,8.39364695 L1.69179309,7.48968973 Z" id="Path-8" fill="#95CC5E"></path>
                                        <path d="M1.69179309,7.48671417 C1.49288006,5.96142221 1.49288006,4.56945255 1.69179309,3.31080519 C2.01047522,1.29430364 3.14337853,0.288001623 2.9621422,0.386202819 C2.80719065,0.470161857 2.06127318,1.04299052 1.29566972,3.14148874 C0.785267414,4.54048755 0.668499983,6.13214495 0.945367426,7.91646094 L1.69179309,7.48671417 Z" id="Path-8" fill="#B8E986"></path>
                                    </g>
                                    <g id="Group-17-Copy-8" transform="translate(6.500000, 15.000000) scale(-1, 1) translate(-6.500000, -15.000000) translate(5.000000, 10.000000)">
                                        <path d="M1.69179309,7.5219822 C1.49288006,5.97317823 1.49288006,4.56945255 1.69179309,3.31080519 C2.01047522,1.29430364 3.12394795,0.240927544 2.94271163,0.339128739 C2.78776007,0.423087778 1.48181129,1.09462177 0.716207835,3.19311999 C0.411831804,4.0274064 0.210648541,5.78003112 0.112658045,8.45099417 L1.69179309,7.5219822 Z" id="Path-8" fill="#95CC5E"></path>
                                        <path d="M1.89302015,8.50936776 C1.55995575,6.30230675 1.49288006,4.56945255 1.69179309,3.31080519 C2.01047522,1.29430364 3.14337853,0.288001623 2.9621422,0.386202819 C2.80719065,0.470161857 2.06127318,1.04299052 1.29566972,3.14148874 C0.785267414,4.54048755 0.685171523,6.50818739 0.995382047,9.04458827 L1.89302015,8.50936776 Z" id="Path-8" fill="#B8E986"></path>
                                    </g>
                                </g>
                                <g transform="translate(0.000000, 51.000000)">
                                    <g id="Group-22-Copy" transform="translate(2.000000, 0.000000)">
                                        <g id="Group-17-Copy" transform="translate(2.000000, 2.000000)">
                                            <path d="M2.71378417,11.086646 C2.53234815,8.14112551 2.55126763,6.03516647 2.7705426,4.76876893 C3.32966034,1.53964832 5.28321312,-0.147173327 4.9652397,0.0100809547 C4.69338208,0.144528589 2.40213617,1.21988817 1.05890906,4.58031398 C0.7218085,5.42365717 0.38417967,8.098955 0.0460225691,12.6062075 L2.71378417,11.086646 Z" id="Path-8" fill="#95CC5E"></path>
                                            <path d="M2.57881946,11.1811688 C2.24255449,8.80129175 2.25762473,6.61739686 2.62403016,4.62948418 C3.21105487,1.44461358 5.29790628,-0.144743844 4.96406201,0.0103555162 C4.67863529,0.142960757 3.30462667,1.04768864 1.8943557,4.36206511 C0.954175052,6.57164942 0.69970936,9.10583389 1.13095862,11.9646185 L2.57881946,11.1811688 Z" id="Path-8" fill="#B8E986"></path>
                                        </g>
                                        <g id="Group-17-Copy-5">
                                            <path d="M3.2310542,14.0713483 C3.01130833,10.3328466 3.03422262,7.65992974 3.29979706,6.05259774 C3.97697141,1.95414625 6.34301301,-0.186794739 5.95790013,0.0127949088 C5.62864031,0.183437995 2.85360234,1.54830156 1.22675548,5.81340771 C0.818476798,6.88379235 0.409558306,10.2793231 0,16 L3.2310542,14.0713483 Z" id="Path-8" fill="#95CC5E"></path>
                                            <path d="M3.02736786,14.0177919 C2.61451471,11.0341484 2.63301736,8.29620709 3.08287582,5.80396798 C3.80360214,1.81110695 6.36575785,-0.181464846 5.95587672,0.0129826741 C5.6054408,0.179229397 3.91848598,1.31348355 2.18700965,5.46870563 C1.0326921,8.23885368 0.720268929,11.4159518 1.24974015,15 L3.02736786,14.0177919 Z" id="Path-8" fill="#B8E986"></path>
                                        </g>
                                        <g id="Group-17" transform="translate(4.000000, 5.000000)">
                                            <path d="M1.69179309,7.5219822 C1.49288006,5.97317823 1.49288006,4.56945255 1.69179309,3.31080519 C2.01047522,1.29430364 3.12394795,0.240927544 2.94271163,0.339128739 C2.78776007,0.423087778 1.48181129,1.09462177 0.716207835,3.19311999 C0.411831804,4.0274064 0.210648541,5.78003112 0.112658045,8.45099417 L1.69179309,7.5219822 Z" id="Path-8" fill="#95CC5E"></path>
                                            <path d="M1.69179309,7.54004669 C1.49288006,5.97919972 1.49288006,4.56945255 1.69179309,3.31080519 C2.01047522,1.29430364 3.14337853,0.288001623 2.9621422,0.386202819 C2.80719065,0.470161857 2.06127318,1.04299052 1.29566972,3.14148874 C0.785267414,4.54048755 0.672565562,6.14268172 0.957564164,7.94807124 L1.69179309,7.54004669 Z" id="Path-8" fill="#BEBEBE"></path>
                                        </g>
                                    </g>
                                    <g transform="translate(8.500000, 8.500000) scale(-1, 1) translate(-8.500000, -8.500000) translate(5.000000, 0.000000)">
                                        <g id="Group-17-Copy" transform="translate(2.000000, 2.000000)">
                                            <path d="M2.71378417,11.086646 C2.53234815,8.14112551 2.55126763,6.03516647 2.7705426,4.76876893 C3.32966034,1.53964832 5.28321312,-0.147173327 4.9652397,0.0100809547 C4.69338208,0.144528589 2.40213617,1.21988817 1.05890906,4.58031398 C0.7218085,5.42365717 0.38417967,8.098955 0.0460225691,12.6062075 L2.71378417,11.086646 Z" id="Path-8" fill="#95CC5E"></path>
                                            <path d="M2.57881946,11.1811688 C2.24255449,8.80129175 2.25762473,6.61739686 2.62403016,4.62948418 C3.21105487,1.44461358 5.29790628,-0.144743844 4.96406201,0.0103555162 C4.67863529,0.142960757 3.30462667,1.04768864 1.8943557,4.36206511 C0.954175052,6.57164942 0.69970936,9.10583389 1.13095862,11.9646185 L2.57881946,11.1811688 Z" id="Path-8" fill="#B8E986"></path>
                                        </g>
                                        <g id="Group-17-Copy-5">
                                            <path d="M3.2310542,14.0713483 C3.01130833,10.3328466 3.03422262,7.65992974 3.29979706,6.05259774 C3.97697141,1.95414625 6.34301301,-0.186794739 5.95790013,0.0127949088 C5.62864031,0.183437995 2.85360234,1.54830156 1.22675548,5.81340771 C0.818476798,6.88379235 0.409558306,10.2793231 0,16 L3.2310542,14.0713483 Z" id="Path-8" fill="#95CC5E"></path>
                                            <path d="M3.02736786,14.0177919 C2.61451471,11.0341484 2.63301736,8.29620709 3.08287582,5.80396798 C3.80360214,1.81110695 6.36575785,-0.181464846 5.95587672,0.0129826741 C5.6054408,0.179229397 3.91848598,1.31348355 2.18700965,5.46870563 C1.0326921,8.23885368 0.720268929,11.4159518 1.24974015,15 L3.02736786,14.0177919 Z" id="Path-8" fill="#B8E986"></path>
                                        </g>
                                        <g id="Group-17" transform="translate(4.000000, 5.000000)">
                                            <path d="M1.57913504,7.18914876 C1.38022202,5.64034478 1.38022202,4.23661911 1.57913504,2.97797174 C1.89781717,0.961470192 3.01128991,-0.091905902 2.83005358,0.00629529311 C2.67510202,0.0902543318 1.36915325,0.761788325 0.60354979,2.86028654 C0.299173759,3.69457295 0.0979904958,5.44719768 0,8.11816072 L1.57913504,7.18914876 Z" id="Path-8" fill="#95CC5E"></path>
                                            <path d="M1.57913504,10.1891488 C1.38022202,8.64034478 1.38022202,7.23661911 1.57913504,5.97797174 C1.89781717,3.96147019 3.01128991,2.9080941 2.83005358,3.00629529 C2.67510202,3.09025433 1.36915325,3.76178833 0.60354979,5.86028654 C0.299173759,6.69457295 0.0979904958,8.44719768 0,11.1181607 L1.57913504,10.1891488 Z" id="Path-8-Copy" fill="#95CC5E"></path>
                                            <path d="M1.69179309,7.54004669 C1.49288006,5.97919972 1.49288006,4.56945255 1.69179309,3.31080519 C2.01047522,1.29430364 3.14337853,0.288001623 2.9621422,0.386202819 C2.80719065,0.470161857 2.06127318,1.04299052 1.29566972,3.14148874 C0.785267414,4.54048755 0.672565562,6.14268172 0.957564164,7.94807124 L1.69179309,7.54004669 Z" id="Path-8" fill="#B8E986"></path>
                                        </g>
                                    </g>
                                    <g id="Group-17-Copy-3" transform="translate(2.500000, 11.500000) scale(-1, 1) translate(-2.500000, -11.500000) translate(0.000000, 5.000000)">
                                        <path d="M2.85811159,11.2032161 C2.58045729,8.1799822 2.55126763,6.03516647 2.7705426,4.76876893 C3.32966034,1.53964832 5.28321312,-0.147173327 4.9652397,0.0100809547 C4.69338208,0.144528589 2.40213617,1.21988817 1.05890906,4.58031398 C0.7218085,5.42365717 0.383648405,8.18598283 0.0444287756,12.867291 L2.85811159,11.2032161 Z" id="Path-8" fill="#95CC5E"></path>
                                        <path d="M2.57881946,11.1811688 C2.24255449,8.80129175 2.25762473,6.61739686 2.62403016,4.62948418 C3.21105487,1.44461358 5.29790628,-0.144743844 4.96406201,0.0103555162 C4.67863529,0.142960757 3.30462667,1.04768864 1.8943557,4.36206511 C0.954175052,6.57164942 0.69970936,9.10583389 1.13095862,11.9646185 L2.57881946,11.1811688 Z" id="Path-8" fill="#B8E986"></path>
                                    </g>
                                    <g id="Group-17-Copy-4" transform="translate(5.000000, 14.000000) scale(-1, 1) translate(-5.000000, -14.000000) translate(3.000000, 9.000000)">
                                        <path d="M2.15403614,8.79459271 C2.00753889,6.45802912 2.02281508,4.78745609 2.19986471,3.78287359 C2.65131427,1.22134141 4.22867534,-0.116746712 3.97193342,0.007996818 C3.75242688,0.114648747 1.90240156,0.967688476 0.817836985,3.63337982 C0.545651199,4.30237022 0.273038871,6.42457695 0,10 L2.15403614,8.79459271 Z" id="Path-8" fill="#D8D8D8"></path>
                                        <path d="M2.21642072,8.41067515 C1.96870882,6.62048904 1.97981041,4.97772425 2.24972549,3.48238079 C2.68216128,1.08666417 4.21945471,-0.108878908 3.97352603,0.00778960445 C3.76326448,0.107537638 2.75109159,0.788090128 1.71220579,3.28122338 C1.01961526,4.94331221 0.832161357,6.84957108 1.14984409,9 L2.21642072,8.41067515 Z" id="Path-8" fill="#BEBEBE"></path>
                                    </g>
                                    <g id="Group-17-Copy-6" transform="translate(5.000000, 14.000000) scale(-1, 1) translate(-5.000000, -14.000000) translate(3.000000, 9.000000)">
                                        <path d="M2.15403614,8.79459271 C2.00753889,6.45802912 2.02281508,4.78745609 2.19986471,3.78287359 C2.65131427,1.22134141 4.22867534,-0.116746712 3.97193342,0.007996818 C3.75242688,0.114648747 1.90240156,0.967688476 0.817836985,3.63337982 C0.545651199,4.30237022 0.273038871,6.42457695 0,10 L2.15403614,8.79459271 Z" id="Path-8" fill="#95CC5E"></path>
                                        <path d="M2.21642072,8.41067515 C1.96870882,6.62048904 1.97981041,4.97772425 2.24972549,3.48238079 C2.68216128,1.08666417 4.21945471,-0.108878908 3.97352603,0.00778960445 C3.76326448,0.107537638 2.75109159,0.788090128 1.71220579,3.28122338 C1.01961526,4.94331221 0.832161357,6.84957108 1.14984409,9 L2.21642072,8.41067515 Z" id="Path-8" fill="#B8E986"></path>
                                    </g>
                                    <g id="Group-17-Copy-7" transform="translate(2.500000, 12.500000) scale(-1, 1) translate(-2.500000, -12.500000) translate(0.000000, 7.000000)">
                                        <path d="M3.19986471,9.07835784 C3.02281508,6.5526175 3.02281508,4.78745609 3.19986471,3.78287359 C3.65131427,1.22134141 5.22867534,-0.116746712 4.97193342,0.007996818 C4.75242688,0.114648747 2.90240156,0.967688476 1.81783699,3.63337982 C1.5456512,4.30237022 1.27029182,6.52907491 0.991758835,10.3134939 L3.19986471,9.07835784 Z" id="Path-8" fill="#95CC5E"></path>
                                        <path d="M3.21040987,9.06098676 C2.96670521,6.83725958 2.97981041,4.97772425 3.24972549,3.48238079 C3.68216128,1.08666417 5.21945471,-0.108878908 4.97352603,0.00778960445 C4.76326448,0.107537638 3.75109159,0.788090128 2.71220579,3.28122338 C2.01961526,4.94331221 1.85216039,7.0627806 2.20984119,9.63962854 L3.21040987,9.06098676 Z" id="Path-8" fill="#B8E986"></path>
                                    </g>
                                    <g id="Group-22" transform="translate(7.000000, 3.000000)">
                                        <g id="Group-17-Copy" transform="translate(2.000000, 2.000000)">
                                            <path d="M2.71378417,11.086646 C2.53234815,8.14112551 2.55126763,6.03516647 2.7705426,4.76876893 C3.32966034,1.53964832 5.28321312,-0.147173327 4.9652397,0.0100809547 C4.69338208,0.144528589 2.40213617,1.21988817 1.05890906,4.58031398 C0.7218085,5.42365717 0.38417967,8.098955 0.0460225691,12.6062075 L2.71378417,11.086646 Z" id="Path-8" fill="#95CC5E"></path>
                                            <path d="M2.62403016,11.2417193 C2.25762473,8.82147522 2.25762473,6.61739686 2.62403016,4.62948418 C3.21105487,1.44461358 5.29790628,-0.144743844 4.96406201,0.0103555162 C4.67863529,0.142960757 3.30462667,1.04768864 1.8943557,4.36206511 C0.954175052,6.57164942 0.708718684,9.1553289 1.15798659,12.1131036 L2.62403016,11.2417193 Z" id="Path-8" fill="#B8E986"></path>
                                        </g>
                                        <g id="Group-17-Copy-5">
                                            <path d="M3.2310542,14.0713483 C3.01130833,10.3328466 3.03422262,7.65992974 3.29979706,6.05259774 C3.97697141,1.95414625 6.34301301,-0.186794739 5.95790013,0.0127949088 C5.62864031,0.183437995 2.85360234,1.54830156 1.22675548,5.81340771 C0.818476798,6.88379235 0.409558306,10.2793231 0,16 L3.2310542,14.0713483 Z" id="Path-8" fill="#95CC5E"></path>
                                            <path d="M2.99949326,14.1923972 C2.60522317,11.0923502 2.63301736,8.29620709 3.08287582,5.80396798 C3.80360214,1.81110695 6.36575785,-0.181464846 5.95587672,0.0129826741 C5.6054408,0.179229397 3.91848598,1.31348355 2.18700965,5.46870563 C1.0326921,8.23885368 0.723286475,11.5013398 1.25879279,15.2561639 L2.99949326,14.1923972 Z" id="Path-8" fill="#B8E986"></path>
                                        </g>
                                        <g id="Group-17" transform="translate(4.000000, 5.000000)">
                                            <path d="M1.69179309,7.64262199 C1.49288006,6.01339149 1.49288006,4.56945255 1.69179309,3.31080519 C2.01047522,1.29430364 3.12394795,0.240927544 2.94271163,0.339128739 C2.78776007,0.423087778 1.48181129,1.09462177 0.716207835,3.19311999 C0.411831804,4.0274064 0.217354853,5.80435669 0.132776982,8.52397088 L1.69179309,7.64262199 Z" id="Path-8" fill="#95CC5E"></path>
                                            <path d="M1.69179309,7.63825074 C1.49288006,6.0119344 1.49288006,4.56945255 1.69179309,3.31080519 C2.01047522,1.29430364 3.14337853,0.288001623 2.9621422,0.386202819 C2.80719065,0.470161857 2.06127318,1.04299052 1.29566972,3.14148874 C0.785267414,4.54048755 0.6846824,6.17515221 0.993914678,8.04548271 L1.69179309,7.63825074 Z" id="Path-8" fill="#B8E986"></path>
                                        </g>
                                    </g>
                                    <g id="Group-17-Copy-2" transform="translate(4.500000, 14.500000) scale(-1, 1) translate(-4.500000, -14.500000) translate(3.000000, 10.000000)">
                                        <path d="M1.69179309,7.48968973 C1.49288006,5.96241407 1.49288006,4.56945255 1.69179309,3.31080519 C2.01047522,1.29430364 3.12394795,0.240927544 2.94271163,0.339128739 C2.78776007,0.423087778 1.48181129,1.09462177 0.716207835,3.19311999 C0.411831804,4.0274064 0.20186795,5.76091538 0.0863162718,8.39364695 L1.69179309,7.48968973 Z" id="Path-8" fill="#95CC5E"></path>
                                        <path d="M1.69179309,7.48671417 C1.49288006,5.96142221 1.49288006,4.56945255 1.69179309,3.31080519 C2.01047522,1.29430364 3.14337853,0.288001623 2.9621422,0.386202819 C2.80719065,0.470161857 2.06127318,1.04299052 1.29566972,3.14148874 C0.785267414,4.54048755 0.668499983,6.13214495 0.945367426,7.91646094 L1.69179309,7.48671417 Z" id="Path-8" fill="#B8E986"></path>
                                    </g>
                                    <g id="Group-17-Copy-8" transform="translate(6.500000, 15.000000) scale(-1, 1) translate(-6.500000, -15.000000) translate(5.000000, 10.000000)">
                                        <path d="M1.69179309,7.5219822 C1.49288006,5.97317823 1.49288006,4.56945255 1.69179309,3.31080519 C2.01047522,1.29430364 3.12394795,0.240927544 2.94271163,0.339128739 C2.78776007,0.423087778 1.48181129,1.09462177 0.716207835,3.19311999 C0.411831804,4.0274064 0.210648541,5.78003112 0.112658045,8.45099417 L1.69179309,7.5219822 Z" id="Path-8" fill="#95CC5E"></path>
                                        <path d="M1.89302015,8.50936776 C1.55995575,6.30230675 1.49288006,4.56945255 1.69179309,3.31080519 C2.01047522,1.29430364 3.14337853,0.288001623 2.9621422,0.386202819 C2.80719065,0.470161857 2.06127318,1.04299052 1.29566972,3.14148874 C0.785267414,4.54048755 0.685171523,6.50818739 0.995382047,9.04458827 L1.89302015,8.50936776 Z" id="Path-8" fill="#B8E986"></path>
                                    </g>
                                </g>
                                <g transform="translate(15.000000, 148.000000)">
                                    <g id="Group-22-Copy" transform="translate(2.000000, 0.000000)">
                                        <g id="Group-17-Copy" transform="translate(2.000000, 2.000000)">
                                            <path d="M2.71378417,11.086646 C2.53234815,8.14112551 2.55126763,6.03516647 2.7705426,4.76876893 C3.32966034,1.53964832 5.28321312,-0.147173327 4.9652397,0.0100809547 C4.69338208,0.144528589 2.40213617,1.21988817 1.05890906,4.58031398 C0.7218085,5.42365717 0.38417967,8.098955 0.0460225691,12.6062075 L2.71378417,11.086646 Z" id="Path-8" fill="#95CC5E"></path>
                                            <path d="M2.57881946,11.1811688 C2.24255449,8.80129175 2.25762473,6.61739686 2.62403016,4.62948418 C3.21105487,1.44461358 5.29790628,-0.144743844 4.96406201,0.0103555162 C4.67863529,0.142960757 3.30462667,1.04768864 1.8943557,4.36206511 C0.954175052,6.57164942 0.69970936,9.10583389 1.13095862,11.9646185 L2.57881946,11.1811688 Z" id="Path-8" fill="#B8E986"></path>
                                        </g>
                                        <g id="Group-17-Copy-5">
                                            <path d="M3.2310542,14.0713483 C3.01130833,10.3328466 3.03422262,7.65992974 3.29979706,6.05259774 C3.97697141,1.95414625 6.34301301,-0.186794739 5.95790013,0.0127949088 C5.62864031,0.183437995 2.85360234,1.54830156 1.22675548,5.81340771 C0.818476798,6.88379235 0.409558306,10.2793231 0,16 L3.2310542,14.0713483 Z" id="Path-8" fill="#95CC5E"></path>
                                            <path d="M3.02736786,14.0177919 C2.61451471,11.0341484 2.63301736,8.29620709 3.08287582,5.80396798 C3.80360214,1.81110695 6.36575785,-0.181464846 5.95587672,0.0129826741 C5.6054408,0.179229397 3.91848598,1.31348355 2.18700965,5.46870563 C1.0326921,8.23885368 0.720268929,11.4159518 1.24974015,15 L3.02736786,14.0177919 Z" id="Path-8" fill="#B8E986"></path>
                                        </g>
                                        <g id="Group-17" transform="translate(4.000000, 5.000000)">
                                            <path d="M1.69179309,7.5219822 C1.49288006,5.97317823 1.49288006,4.56945255 1.69179309,3.31080519 C2.01047522,1.29430364 3.12394795,0.240927544 2.94271163,0.339128739 C2.78776007,0.423087778 1.48181129,1.09462177 0.716207835,3.19311999 C0.411831804,4.0274064 0.210648541,5.78003112 0.112658045,8.45099417 L1.69179309,7.5219822 Z" id="Path-8" fill="#95CC5E"></path>
                                            <path d="M1.69179309,7.54004669 C1.49288006,5.97919972 1.49288006,4.56945255 1.69179309,3.31080519 C2.01047522,1.29430364 3.14337853,0.288001623 2.9621422,0.386202819 C2.80719065,0.470161857 2.06127318,1.04299052 1.29566972,3.14148874 C0.785267414,4.54048755 0.672565562,6.14268172 0.957564164,7.94807124 L1.69179309,7.54004669 Z" id="Path-8" fill="#BEBEBE"></path>
                                        </g>
                                    </g>
                                    <g id="Group-22" transform="translate(8.500000, 8.500000) scale(-1, 1) translate(-8.500000, -8.500000) translate(5.000000, 0.000000)">
                                        <g id="Group-17-Copy" transform="translate(2.000000, 2.000000)">
                                            <path d="M2.71378417,11.086646 C2.53234815,8.14112551 2.55126763,6.03516647 2.7705426,4.76876893 C3.32966034,1.53964832 5.28321312,-0.147173327 4.9652397,0.0100809547 C4.69338208,0.144528589 2.40213617,1.21988817 1.05890906,4.58031398 C0.7218085,5.42365717 0.38417967,8.098955 0.0460225691,12.6062075 L2.71378417,11.086646 Z" id="Path-8" fill="#95CC5E"></path>
                                            <path d="M2.57881946,11.1811688 C2.24255449,8.80129175 2.25762473,6.61739686 2.62403016,4.62948418 C3.21105487,1.44461358 5.29790628,-0.144743844 4.96406201,0.0103555162 C4.67863529,0.142960757 3.30462667,1.04768864 1.8943557,4.36206511 C0.954175052,6.57164942 0.69970936,9.10583389 1.13095862,11.9646185 L2.57881946,11.1811688 Z" id="Path-8" fill="#B8E986"></path>
                                        </g>
                                        <g id="Group-17-Copy-5">
                                            <path d="M3.2310542,14.0713483 C3.01130833,10.3328466 3.03422262,7.65992974 3.29979706,6.05259774 C3.97697141,1.95414625 6.34301301,-0.186794739 5.95790013,0.0127949088 C5.62864031,0.183437995 2.85360234,1.54830156 1.22675548,5.81340771 C0.818476798,6.88379235 0.409558306,10.2793231 0,16 L3.2310542,14.0713483 Z" id="Path-8" fill="#95CC5E"></path>
                                            <path d="M3.02736786,14.0177919 C2.61451471,11.0341484 2.63301736,8.29620709 3.08287582,5.80396798 C3.80360214,1.81110695 6.36575785,-0.181464846 5.95587672,0.0129826741 C5.6054408,0.179229397 3.91848598,1.31348355 2.18700965,5.46870563 C1.0326921,8.23885368 0.720268929,11.4159518 1.24974015,15 L3.02736786,14.0177919 Z" id="Path-8" fill="#B8E986"></path>
                                        </g>
                                        <g id="Group-17" transform="translate(4.000000, 5.000000)">
                                            <path d="M1.57913504,7.18914876 C1.38022202,5.64034478 1.38022202,4.23661911 1.57913504,2.97797174 C1.89781717,0.961470192 3.01128991,-0.091905902 2.83005358,0.00629529311 C2.67510202,0.0902543318 1.36915325,0.761788325 0.60354979,2.86028654 C0.299173759,3.69457295 0.0979904958,5.44719768 0,8.11816072 L1.57913504,7.18914876 Z" id="Path-8" fill="#95CC5E"></path>
                                            <path d="M1.57913504,10.1891488 C1.38022202,8.64034478 1.38022202,7.23661911 1.57913504,5.97797174 C1.89781717,3.96147019 3.01128991,2.9080941 2.83005358,3.00629529 C2.67510202,3.09025433 1.36915325,3.76178833 0.60354979,5.86028654 C0.299173759,6.69457295 0.0979904958,8.44719768 0,11.1181607 L1.57913504,10.1891488 Z" id="Path-8-Copy" fill="#95CC5E"></path>
                                            <path d="M1.69179309,7.54004669 C1.49288006,5.97919972 1.49288006,4.56945255 1.69179309,3.31080519 C2.01047522,1.29430364 3.14337853,0.288001623 2.9621422,0.386202819 C2.80719065,0.470161857 2.06127318,1.04299052 1.29566972,3.14148874 C0.785267414,4.54048755 0.672565562,6.14268172 0.957564164,7.94807124 L1.69179309,7.54004669 Z" id="Path-8" fill="#B8E986"></path>
                                        </g>
                                    </g>
                                    <g id="Group-17-Copy-3" transform="translate(2.500000, 11.500000) scale(-1, 1) translate(-2.500000, -11.500000) translate(0.000000, 5.000000)">
                                        <path d="M2.85811159,11.2032161 C2.58045729,8.1799822 2.55126763,6.03516647 2.7705426,4.76876893 C3.32966034,1.53964832 5.28321312,-0.147173327 4.9652397,0.0100809547 C4.69338208,0.144528589 2.40213617,1.21988817 1.05890906,4.58031398 C0.7218085,5.42365717 0.383648405,8.18598283 0.0444287756,12.867291 L2.85811159,11.2032161 Z" id="Path-8" fill="#95CC5E"></path>
                                        <path d="M2.57881946,11.1811688 C2.24255449,8.80129175 2.25762473,6.61739686 2.62403016,4.62948418 C3.21105487,1.44461358 5.29790628,-0.144743844 4.96406201,0.0103555162 C4.67863529,0.142960757 3.30462667,1.04768864 1.8943557,4.36206511 C0.954175052,6.57164942 0.69970936,9.10583389 1.13095862,11.9646185 L2.57881946,11.1811688 Z" id="Path-8" fill="#B8E986"></path>
                                    </g>
                                    <g id="Group-17-Copy-4" transform="translate(5.000000, 14.000000) scale(-1, 1) translate(-5.000000, -14.000000) translate(3.000000, 9.000000)">
                                        <path d="M2.15403614,8.79459271 C2.00753889,6.45802912 2.02281508,4.78745609 2.19986471,3.78287359 C2.65131427,1.22134141 4.22867534,-0.116746712 3.97193342,0.007996818 C3.75242688,0.114648747 1.90240156,0.967688476 0.817836985,3.63337982 C0.545651199,4.30237022 0.273038871,6.42457695 0,10 L2.15403614,8.79459271 Z" id="Path-8" fill="#D8D8D8"></path>
                                        <path d="M2.21642072,8.41067515 C1.96870882,6.62048904 1.97981041,4.97772425 2.24972549,3.48238079 C2.68216128,1.08666417 4.21945471,-0.108878908 3.97352603,0.00778960445 C3.76326448,0.107537638 2.75109159,0.788090128 1.71220579,3.28122338 C1.01961526,4.94331221 0.832161357,6.84957108 1.14984409,9 L2.21642072,8.41067515 Z" id="Path-8" fill="#BEBEBE"></path>
                                    </g>
                                    <g id="Group-17-Copy-6" transform="translate(5.000000, 14.000000) scale(-1, 1) translate(-5.000000, -14.000000) translate(3.000000, 9.000000)">
                                        <path d="M2.15403614,8.79459271 C2.00753889,6.45802912 2.02281508,4.78745609 2.19986471,3.78287359 C2.65131427,1.22134141 4.22867534,-0.116746712 3.97193342,0.007996818 C3.75242688,0.114648747 1.90240156,0.967688476 0.817836985,3.63337982 C0.545651199,4.30237022 0.273038871,6.42457695 0,10 L2.15403614,8.79459271 Z" id="Path-8" fill="#95CC5E"></path>
                                        <path d="M2.21642072,8.41067515 C1.96870882,6.62048904 1.97981041,4.97772425 2.24972549,3.48238079 C2.68216128,1.08666417 4.21945471,-0.108878908 3.97352603,0.00778960445 C3.76326448,0.107537638 2.75109159,0.788090128 1.71220579,3.28122338 C1.01961526,4.94331221 0.832161357,6.84957108 1.14984409,9 L2.21642072,8.41067515 Z" id="Path-8" fill="#B8E986"></path>
                                    </g>
                                    <g id="Group-17-Copy-7" transform="translate(2.500000, 12.500000) scale(-1, 1) translate(-2.500000, -12.500000) translate(0.000000, 7.000000)">
                                        <path d="M3.19986471,9.07835784 C3.02281508,6.5526175 3.02281508,4.78745609 3.19986471,3.78287359 C3.65131427,1.22134141 5.22867534,-0.116746712 4.97193342,0.007996818 C4.75242688,0.114648747 2.90240156,0.967688476 1.81783699,3.63337982 C1.5456512,4.30237022 1.27029182,6.52907491 0.991758835,10.3134939 L3.19986471,9.07835784 Z" id="Path-8" fill="#95CC5E"></path>
                                        <path d="M3.21040987,9.06098676 C2.96670521,6.83725958 2.97981041,4.97772425 3.24972549,3.48238079 C3.68216128,1.08666417 5.21945471,-0.108878908 4.97352603,0.00778960445 C4.76326448,0.107537638 3.75109159,0.788090128 2.71220579,3.28122338 C2.01961526,4.94331221 1.85216039,7.0627806 2.20984119,9.63962854 L3.21040987,9.06098676 Z" id="Path-8" fill="#B8E986"></path>
                                    </g>
                                    <g id="Group-22" transform="translate(7.000000, 3.000000)">
                                        <g id="Group-17-Copy" transform="translate(2.000000, 2.000000)">
                                            <path d="M2.71378417,11.086646 C2.53234815,8.14112551 2.55126763,6.03516647 2.7705426,4.76876893 C3.32966034,1.53964832 5.28321312,-0.147173327 4.9652397,0.0100809547 C4.69338208,0.144528589 2.40213617,1.21988817 1.05890906,4.58031398 C0.7218085,5.42365717 0.38417967,8.098955 0.0460225691,12.6062075 L2.71378417,11.086646 Z" id="Path-8" fill="#95CC5E"></path>
                                            <path d="M2.62403016,11.2417193 C2.25762473,8.82147522 2.25762473,6.61739686 2.62403016,4.62948418 C3.21105487,1.44461358 5.29790628,-0.144743844 4.96406201,0.0103555162 C4.67863529,0.142960757 3.30462667,1.04768864 1.8943557,4.36206511 C0.954175052,6.57164942 0.708718684,9.1553289 1.15798659,12.1131036 L2.62403016,11.2417193 Z" id="Path-8" fill="#B8E986"></path>
                                        </g>
                                        <g id="Group-17-Copy-5">
                                            <path d="M3.2310542,14.0713483 C3.01130833,10.3328466 3.03422262,7.65992974 3.29979706,6.05259774 C3.97697141,1.95414625 6.34301301,-0.186794739 5.95790013,0.0127949088 C5.62864031,0.183437995 2.85360234,1.54830156 1.22675548,5.81340771 C0.818476798,6.88379235 0.409558306,10.2793231 0,16 L3.2310542,14.0713483 Z" id="Path-8" fill="#95CC5E"></path>
                                            <path d="M2.99949326,14.1923972 C2.60522317,11.0923502 2.63301736,8.29620709 3.08287582,5.80396798 C3.80360214,1.81110695 6.36575785,-0.181464846 5.95587672,0.0129826741 C5.6054408,0.179229397 3.91848598,1.31348355 2.18700965,5.46870563 C1.0326921,8.23885368 0.723286475,11.5013398 1.25879279,15.2561639 L2.99949326,14.1923972 Z" id="Path-8" fill="#B8E986"></path>
                                        </g>
                                        <g id="Group-17" transform="translate(4.000000, 5.000000)">
                                            <path d="M1.69179309,7.64262199 C1.49288006,6.01339149 1.49288006,4.56945255 1.69179309,3.31080519 C2.01047522,1.29430364 3.12394795,0.240927544 2.94271163,0.339128739 C2.78776007,0.423087778 1.48181129,1.09462177 0.716207835,3.19311999 C0.411831804,4.0274064 0.217354853,5.80435669 0.132776982,8.52397088 L1.69179309,7.64262199 Z" id="Path-8" fill="#95CC5E"></path>
                                            <path d="M1.69179309,7.63825074 C1.49288006,6.0119344 1.49288006,4.56945255 1.69179309,3.31080519 C2.01047522,1.29430364 3.14337853,0.288001623 2.9621422,0.386202819 C2.80719065,0.470161857 2.06127318,1.04299052 1.29566972,3.14148874 C0.785267414,4.54048755 0.6846824,6.17515221 0.993914678,8.04548271 L1.69179309,7.63825074 Z" id="Path-8" fill="#B8E986"></path>
                                        </g>
                                    </g>
                                    <g id="Group-17-Copy-2" transform="translate(4.500000, 14.500000) scale(-1, 1) translate(-4.500000, -14.500000) translate(3.000000, 10.000000)">
                                        <path d="M1.69179309,7.48968973 C1.49288006,5.96241407 1.49288006,4.56945255 1.69179309,3.31080519 C2.01047522,1.29430364 3.12394795,0.240927544 2.94271163,0.339128739 C2.78776007,0.423087778 1.48181129,1.09462177 0.716207835,3.19311999 C0.411831804,4.0274064 0.20186795,5.76091538 0.0863162718,8.39364695 L1.69179309,7.48968973 Z" id="Path-8" fill="#95CC5E"></path>
                                        <path d="M1.69179309,7.48671417 C1.49288006,5.96142221 1.49288006,4.56945255 1.69179309,3.31080519 C2.01047522,1.29430364 3.14337853,0.288001623 2.9621422,0.386202819 C2.80719065,0.470161857 2.06127318,1.04299052 1.29566972,3.14148874 C0.785267414,4.54048755 0.668499983,6.13214495 0.945367426,7.91646094 L1.69179309,7.48671417 Z" id="Path-8" fill="#B8E986"></path>
                                    </g>
                                    <g id="Group-17-Copy-8" transform="translate(6.500000, 15.000000) scale(-1, 1) translate(-6.500000, -15.000000) translate(5.000000, 10.000000)">
                                        <path d="M1.69179309,7.5219822 C1.49288006,5.97317823 1.49288006,4.56945255 1.69179309,3.31080519 C2.01047522,1.29430364 3.12394795,0.240927544 2.94271163,0.339128739 C2.78776007,0.423087778 1.48181129,1.09462177 0.716207835,3.19311999 C0.411831804,4.0274064 0.210648541,5.78003112 0.112658045,8.45099417 L1.69179309,7.5219822 Z" id="Path-8" fill="#95CC5E"></path>
                                        <path d="M1.89302015,8.50936776 C1.55995575,6.30230675 1.49288006,4.56945255 1.69179309,3.31080519 C2.01047522,1.29430364 3.14337853,0.288001623 2.9621422,0.386202819 C2.80719065,0.470161857 2.06127318,1.04299052 1.29566972,3.14148874 C0.785267414,4.54048755 0.685171523,6.50818739 0.995382047,9.04458827 L1.89302015,8.50936776 Z" id="Path-8" fill="#B8E986"></path>
                                    </g>
                                </g>
                            </g>
                            <g id="roks" transform="translate(184.502808, 265.013019) scale(-1, 1) rotate(3.000000) translate(-184.502808, -265.013019) translate(121.502808, 202.013019)">
                                <path d="M63.6726429,2.01579238 C62.0603748,2.01579238 60.4214082,2.35954262 59.5275056,3.28308802 C58.633603,4.20663343 58.2291207,4.99327847 59.100412,5.91991783 C59.9717032,6.84655719 61.3411105,7.9308934 64.7352823,7.59432764 C68.1294542,7.25776187 68.9976313,4.02589594 67.874286,3.23747536 C66.7509406,2.44905477 65.284911,2.01579238 63.6726429,2.01579238 Z" id="Path-21-Copy" fill="#D3DAE0" transform="translate(63.477318, 4.836416) rotate(-199.000000) translate(-63.477318, -4.836416) "></path>
                                <path d="M5.05115149,4.62910005 C3.62482643,4.62910005 2.17488205,4.93320554 1.38407329,5.75023837 C0.593264525,6.56727119 0.235431269,7.26319238 1.0062364,8.08296234 C1.77704152,8.9027323 2.98851492,9.86201191 5.99123662,9.5642623 C8.99395832,9.2665127 9.76200848,6.40737818 8.76821866,5.70988621 C7.77442884,5.01239425 6.47747655,4.62910005 5.05115149,4.62910005 Z" id="Path-21-Copy-5" fill="#D3DAE0" transform="translate(4.878353, 7.124421) rotate(-199.000000) translate(-4.878353, -7.124421) "></path>
                                <path d="M73.1330532,22.1823155 C72.1517545,22.1823155 71.154206,22.3915373 70.6101367,22.9536485 C70.0660675,23.5157596 69.8198815,23.9945471 70.3501884,24.5585413 C70.8804953,25.1225356 71.713978,25.7825112 73.7798232,25.5776622 C75.8456684,25.3728132 76.3740799,23.4057547 75.6903616,22.9258865 C75.0066432,22.4460184 74.1143518,22.1823155 73.1330532,22.1823155 Z" id="Path-21-Copy-13" fill="#D3DAE0" transform="translate(73.014169, 23.899074) rotate(-199.000000) translate(-73.014169, -23.899074) "></path>
                                <path d="M44.75341,65.9247205 C43.7292638,65.9247205 42.6881582,66.1430778 42.1203326,66.7297331 C41.5525071,67.3163883 41.2955716,67.8160816 41.8490339,68.4047021 C42.4024962,68.9933227 43.2723721,69.6821156 45.4284206,69.4683221 C47.5844691,69.2545285 48.1359533,67.2015801 47.422381,66.7007589 C46.7088087,66.1999378 45.7775562,65.9247205 44.75341,65.9247205 Z" id="Path-21-Copy-9" fill="#D3DAE0" transform="translate(44.629335, 67.716439) rotate(-211.000000) translate(-44.629335, -67.716439) "></path>
                                <path d="M61.7933571,6.11005485 C60.645616,6.11005485 59.628867,6.30890467 58.9925157,6.96635801 C58.3561645,7.62381134 57.9182236,8.22966711 58.5384782,8.88932297 C59.1587329,9.54897883 60.1335863,10.3208959 62.5498287,10.0813015 C64.9660712,9.84170714 65.4497418,7.8123702 64.650055,7.2511095 C63.8503681,6.68984879 62.9410983,6.11005485 61.7933571,6.11005485 Z" id="Path-21-Copy-2" fill="#CFD3D7" transform="translate(61.622583, 8.118000) rotate(-197.000000) translate(-61.622583, -8.118000) "></path>
                                <path d="M43.8069566,24.1683615 C42.7706,24.1683615 41.6457553,24.3275737 41.0711599,24.9212232 C40.4965645,25.5148728 40.5783638,26.2987426 41.1384247,26.8943809 C41.6984856,27.4900193 42.3082611,27.9705539 44.490015,27.7542114 C46.6717688,27.5378689 47.1218267,25.4834797 46.3997469,24.9766875 C45.677667,24.4698954 44.8433131,24.1683615 43.8069566,24.1683615 Z" id="Path-21-Copy-3" fill="#CFD3D7" transform="translate(43.698029, 25.987682) rotate(-191.000000) translate(-43.698029, -25.987682) "></path>
                                <path d="M75.3222894,65.844632 C73.7100213,65.844632 71.9600914,66.0923196 71.0661888,67.015865 C70.1722861,67.9394104 70.2995419,69.1588828 71.1708331,70.0855221 C72.0421243,71.0121615 72.990757,71.759733 76.3849288,71.4231672 C79.7791007,71.0866015 80.4792593,67.8905717 79.3559139,67.1021512 C78.2325686,66.3137306 76.9345575,65.844632 75.3222894,65.844632 Z" id="Path-21-Copy-6" fill="#CFD3D7" transform="translate(75.152830, 68.674964) rotate(-211.000000) translate(-75.152830, -68.674964) "></path>
                                <path d="M67.69505,117.875831 C66.0827819,117.875831 64.332852,118.123518 63.4389494,119.047064 C62.5450468,119.970609 62.6723025,121.190081 63.5435937,122.116721 C64.414885,123.04336 65.3635176,123.790932 68.7576895,123.454366 C72.1518613,123.1178 72.8520199,119.92177 71.7286746,119.13335 C70.6053292,118.344929 69.3073181,117.875831 67.69505,117.875831 Z" id="Path-21-Copy-10" fill="#CFD3D7" transform="translate(67.525591, 120.706162) rotate(-211.000000) translate(-67.525591, -120.706162) "></path>
                                <path d="M77.3222894,17.844632 C75.7100213,17.844632 73.9600914,18.0923196 73.0661888,19.015865 C72.1722861,19.9394104 72.2995419,21.1588828 73.1708331,22.0855221 C74.0421243,23.0121615 74.990757,23.759733 78.3849288,23.4231672 C81.7791007,23.0866015 82.4792593,19.8905717 81.3559139,19.1021512 C80.2325686,18.3137306 78.9345575,17.844632 77.3222894,17.844632 Z" id="Path-21-Copy-4" fill="#CFD3D7" transform="translate(77.152830, 20.674964) rotate(-191.000000) translate(-77.152830, -20.674964) "></path>
                                <path d="M61.0936866,116.935402 C59.4814185,116.935402 57.7314886,117.18309 56.8375859,118.106635 C55.9436833,119.030181 56.0709391,120.249653 56.9422303,121.176292 C57.8135215,122.102932 58.7621542,122.850503 62.156326,122.513937 C65.5504979,122.177372 66.2506565,118.981342 65.1273111,118.192921 C64.0039658,117.404501 62.7059547,116.935402 61.0936866,116.935402 Z" id="Path-21-Copy-14" fill="#C3C5C6" transform="translate(60.924228, 119.765734) rotate(-204.000000) translate(-60.924228, -119.765734) "></path>
                                <path d="M48.738837,39.7328975 C47.6640209,39.7328975 46.2724241,39.729939 45.6765052,40.3456192 C45.0805864,40.9612993 42.0807116,42.6393785 42.6615566,43.2571212 C43.2424016,43.874864 47.3937356,43.2328686 49.6564552,43.0084975 C51.9191748,42.7841264 51.6253598,40.4405455 50.8764833,39.9149461 C50.1276068,39.3893467 49.8136531,39.7328975 48.738837,39.7328975 Z" id="Path-21-Copy-7" fill="#5A98FF" transform="translate(47.005442, 41.570512) scale(-1, 1) rotate(-223.000000) translate(-47.005442, -41.570512) "></path>
                                <path d="M44.4714269,38.7287293 C43.5454419,38.8709213 42.0918502,39.4234013 41.2448172,39.6648216 C40.3977842,39.9062418 37.155154,40.5594179 37.8176854,42.0388737 C38.4802168,43.5183294 41.4839859,42.8135656 43.7467055,42.5891945 C46.0094251,42.3648235 47.3749807,40.1539301 46.6261042,39.6283307 C45.8772277,39.1027313 45.3974119,38.5865373 44.4714269,38.7287293 Z" id="Path-21-Copy-12" fill="#5A98FF" transform="translate(42.280722, 40.829530) scale(-1, 1) rotate(-213.000000) translate(-42.280722, -40.829530) "></path>
                                <path d="M84.9839661,84.5466567 C83.7294033,84.5466567 82.367721,84.7393912 81.6721438,85.4580345 C80.9765665,86.1766778 81.0755887,87.1255924 81.7535712,87.8466432 C82.4315537,88.5676941 83.1697183,89.1494059 85.8108434,88.8875122 C88.4519685,88.6256184 88.9967866,86.1386748 88.1226719,85.5251768 C87.2485572,84.9116789 86.2385289,84.5466567 84.9839661,84.5466567 Z" id="Path-21-Copy-11" fill="#C3C5C6" transform="translate(84.852104, 86.749038) rotate(-208.000000) translate(-84.852104, -86.749038) "></path>
                                <path d="M115.062562,112.598152 C114.047104,112.598152 112.944943,112.754154 112.381934,113.335832 C111.818926,113.917511 111.899076,114.685573 112.447843,115.2692 C112.996609,115.852827 113.594088,116.323671 115.731846,116.111691 C117.869603,115.899712 118.310585,113.88675 117.603067,113.390178 C116.895548,112.893606 116.078019,112.598152 115.062562,112.598152 Z" id="Path-21-Copy-16" fill="#C3C5C6" transform="translate(114.955831, 114.380785) rotate(-208.000000) translate(-114.955831, -114.380785) "></path>
                                <path d="M113.983966,106.546657 C112.729403,106.546657 111.367721,106.739391 110.672144,107.458034 C109.976567,108.176678 110.075589,109.125592 110.753571,109.846643 C111.431554,110.567694 112.169718,111.149406 114.810843,110.887512 C117.451969,110.625618 117.996787,108.138675 117.122672,107.525177 C116.248557,106.911679 115.238529,106.546657 113.983966,106.546657 Z" id="Path-21-Copy-17" fill="#C3C5C6" transform="translate(113.852104, 108.749038) rotate(-208.000000) translate(-113.852104, -108.749038) "></path>
                                <path d="M120.64729,105.874803 C119.035022,105.874803 117.285092,106.122491 116.39119,107.046036 C115.497287,107.969581 115.624543,109.189054 116.495834,110.115693 C117.367125,111.042333 118.315758,111.789904 121.70993,111.453338 C125.104102,111.116773 125.80426,107.920743 124.680915,107.132322 C123.55757,106.343902 122.259558,105.874803 120.64729,105.874803 Z" id="Path-21-Copy-18" fill="#CFD3D7" transform="translate(120.477831, 108.705135) rotate(-208.000000) translate(-120.477831, -108.705135) "></path>
                                <path d="M77.3222894,55.844632 C75.7100213,55.844632 73.9600914,56.0923196 73.0661888,57.015865 C72.1722861,57.9394104 72.2995419,59.1588828 73.1708331,60.0855221 C74.0421243,61.0121615 74.990757,61.759733 78.3849288,61.4231672 C81.7791007,61.0866015 82.4792593,57.8905717 81.3559139,57.1021512 C80.2325686,56.3137306 78.9345575,55.844632 77.3222894,55.844632 Z" id="Path-21-Copy-8" fill="#C3C5C6" transform="translate(77.152830, 58.674964) rotate(-209.000000) translate(-77.152830, -58.674964) "></path>
                            </g>
                            <g id="old" transform="translate(43.000000, 50.000000)"></g>
                            <g id="Group-7" transform="translate(199.000000, 194.500000) scale(-1, 1) translate(-199.000000, -194.500000) translate(178.000000, 141.000000)">
                                <g id="Group-26">
                                    <path d="M0.96606105,28.0862578 C0.96606105,37.3018501 -0.242871813,42.8006091 3.33147646,44.400897 C5.71437531,45.4677557 7.42439598,44.8706309 8.46153846,42.6095229 C7.61957206,37.6883806 6.74922469,35.3689509 5.85049636,35.6512338 C4.50240387,36.0746581 4.01567205,25.1218133 4.1329828,24.4082034 C4.25029354,23.6945935 5.95103694,18.8346968 4.50240387,18.6080486 C3.05377079,18.3814005 0.96606105,18.8706654 0.96606105,28.0862578 Z" id="Path-27" fill="#D3DAE0"></path>
                                    <g id="Group-25" transform="translate(22.345247, 32.014685) scale(-1, 1) rotate(42.000000) translate(-22.345247, -32.014685) translate(12.345247, 15.014685)" fill="#D3DAE0">
                                        <path d="M7.62327737,16.2102155 C7.62327737,25.5501561 6.35785562,31.1231111 10.0992197,32.7449921 C12.5934625,33.8262461 14.383386,33.2210642 15.4689903,30.9294465 C14.5876819,25.9419021 13.6766665,23.5911757 12.735944,23.8772675 C11.3248602,24.3064052 10.8153852,13.205771 10.9381775,12.4825322 C11.0609697,11.7592934 12.8411824,6.83382097 11.3248602,6.60411457 C9.80853794,6.37440816 7.62327737,6.87027491 7.62327737,16.2102155 Z" id="Path-27" transform="translate(11.443120, 19.915004) rotate(19.000000) translate(-11.443120, -19.915004) "></path>
                                        <path d="M0.964878446,0.447155268 C1.63656385,0.264485407 1.8976528,0.398772146 1.74814529,0.850015487 C1.59863778,1.30125883 1.06201543,2.0694956 0.138278229,3.15472579" id="Path-28"></path>
                                    </g>
                                    <path d="M28.4006363,46.7412364 C27.0532042,51.5647154 25.8466325,60.1210541 24.7809211,72.4102527 C24.1478514,94.1472004 23.8313165,105.168915 23.8313165,105.475397 C23.8313165,105.880301 22.5179066,106.109876 21.1200107,105.971184 C20.9390608,105.953231 20.7697291,105.88581 20.6120154,105.768921 C20.6302187,105.612573 20.6302187,105.489496 20.6120154,105.39969 C17.9155922,92.0968198 17.0533077,83.5888155 17.7317691,79.9599189 C18.7597668,74.4614529 15.7453999,64.4327867 15.4242831,58.8290955 C15.1031664,53.2254042 16.659499,43.2657829 22.7461458,42.0037878 C28.8327926,40.7417926 30.4217845,39.506018 28.4006363,46.7412364 Z" id="Path-17-Copy" fill="#0A0F5F" transform="translate(22.307692, 73.525744) scale(-1, 1) translate(-22.307692, -73.525744) "></path>
                                    <path d="M11.2721469,54 L9,79.3046578 L16.9854247,101.916403 C17.3775724,103.562713 17.9111413,104.385869 18.5861314,104.385869 C19.2611215,104.385869 19.6607199,103.562713 19.7849267,101.916403 C19.7245604,97.0213692 19.2152751,92.6548714 18.2570707,88.8169099 C17.2988663,84.9789484 16.0023508,81.9720947 14.3675243,79.7963489 C16.4670407,71.5028812 18.1502576,67.3561474 19.4171748,67.3561474 C20.5323613,67.3561474 23.2174646,63.9522825 27.4724846,57.1445527 L24.2958187,53.4458903 L11.2721469,54 Z" id="Path-21" fill="#0A0F5F"></path>
                                    <g id="Group-36" transform="translate(15.824558, 14.249472) rotate(1.000000) translate(-15.824558, -14.249472) translate(7.324558, 0.749472)">
                                        <path d="M2.45388174,19.4630561 C-1.49124853,8.82747844 0.304516442,3.79578013 7.84117665,4.36796117 C15.3778369,4.9401422 17.3951299,9.34530892 13.8930557,17.5834613 C15.6528235,20.654519 16.4959188,22.3594775 16.4223415,22.6983368 C15.0334499,29.0948569 8.95907614,25.264132 8.21322701,25.264132 C7.37272599,25.264132 6.74992597,23.6074638 6.34482694,20.2941275 L2.45388174,19.4630561 Z" id="Path-23" fill="#D3DAE0"></path>
                                        <path d="M5.9179872,8.36231009 C6.58944501,8.35944415 8.27311405,9.7091252 8.18267279,12.7559825 C8.09223154,15.8028399 11.6938033,18.2550141 13.8051956,17.920415 C15.9165878,17.585816 17.8430779,9.63908849 16.3790258,5.23484787 C14.9149737,0.830607252 6.75169114,0.535594062 3.94947388,1.27859024 C1.14725662,2.02158642 0.32928504,5.36268389 1.14725662,6.86234625 C1.96522819,8.36200862 5.24652939,8.36517604 5.9179872,8.36231009 Z" id="Path-30" fill="#0A0F5F"></path>
                                        <path d="M4.5593784,15.2251375 C3.78063666,17.0064089 1.41340075,16.6035579 1.41340075,18.6834845 C1.41340075,20.7634111 5.42999281,20.9448857 6.2755838,20.4001428 C7.1211748,19.8554 6.96226172,17.6021103 6.69020712,16.6633343 C6.41815251,15.7245583 7.60916711,11.6224692 7.93347666,10.8982808 C8.25778622,10.1740924 9.71178928,9.8952001 9.41470346,9.00263743 C9.11761763,8.11007476 7.68590514,6.66778805 7.24118996,6.63769563 C6.94471316,6.61763402 6.36113868,7.09278378 5.49046649,8.06314491 C5.61945947,9.40201877 5.69309144,10.3470641 5.71136241,10.8982808 C5.73876885,11.7251058 5.33812014,13.4438662 4.5593784,15.2251375 Z" id="Path-31" fill="#0A0F5F"></path>
                                    </g>
                                    <path d="M10.4426208,41.695544 C10.23114,44.6421773 9.94913016,47.5838763 9.59659125,50.5206412 C9.06778289,54.9257885 9.45721216,58.8972952 10.4426208,59.4182815 C11.4280294,59.9392679 17.8366875,59.8532416 21.2250375,59.4182815 C23.4839375,59.1283082 26.2555492,58.390337 29.5398726,57.204368 C29.5851979,51.5729289 29.4051497,47.1880321 28.9997282,44.0496774 C28.423345,39.5879132 28.1629828,36.1455004 28.1629828,34.8975229 C28.1629828,34.6339644 28.529448,36.528828 29.2623785,40.5821135 C30.4538538,40.6136214 31.4801193,40.5118851 32.341175,40.2769045 C33.2022307,40.041924 34.2167109,39.6335999 35.3846154,39.0519324 C34.1937018,31.1871545 32.9531618,26.3843765 31.6629955,24.6435983 C30.52958,23.1143188 28.3699284,21.6688742 26.5483036,21.6688742 C25.2129537,21.6688742 22.6517506,22.697614 22.2143994,23.4591847 C21.4821421,24.7342832 20.69297,25.6917793 17.7701817,25.3151751 C14.8473935,24.9385709 13.2445197,24.4950508 10.8876629,26.1826281 C9.316425,27.3076796 7.22566558,31.102848 4.61538462,37.5681331 C5.2355846,39.1370532 5.76401265,40.2655887 6.20066876,40.9537397 C6.63732488,41.6418907 7.47981974,42.6738699 8.72815335,44.0496774 L10.4426208,41.695544 Z" id="Path-26" fill="#5A98FF"></path>
                                    <path d="M5.38578229,21.7566956 C6.01179818,21.5535197 6.25513506,21.7028811 6.11579292,22.20478 C5.97645079,22.7066789 5.47631469,23.5611562 4.61538462,24.7682119" id="Path-28" fill="#D3DAE0"></path>
                                </g>
                            </g>
                        </g>
                    </g>
                </g>
            </g>
        </g>
    </g>
</svg>