<?xml version="1.0" encoding="UTF-8"?>
<svg width="287px" height="249px" viewBox="0 0 287 249" version="1.1" xmlns="http://www.w3.org/2000/svg" xmlns:xlink="http://www.w3.org/1999/xlink">
    <!-- Generator: Sketch 48.2 (47327) - http://www.bohemiancoding.com/sketch -->
    <title>Smart contracts with real power</title>
    <desc>Created with Sketch.</desc>
    <defs>
        <linearGradient x1="84.8650687%" y1="61.2093051%" x2="14.5941879%" y2="41.8646833%" id="linearGradient-1">
            <stop stop-color="#EBEFF2" offset="0%"></stop>
            <stop stop-color="#F4F9FE" offset="52.4653221%"></stop>
            <stop stop-color="#FFFFFF" offset="100%"></stop>
        </linearGradient>
        <linearGradient x1="42.3992517%" y1="-6.62356238%" x2="67.3319298%" y2="50%" id="linearGradient-2">
            <stop stop-color="#EBEFF2" offset="0%"></stop>
            <stop stop-color="#2C3293" stop-opacity="0.622877038" offset="44.8348484%"></stop>
            <stop stop-color="#0A0F5F" stop-opacity="0.901777627" offset="100%"></stop>
        </linearGradient>
    </defs>
    <g id="WEB-DESIGN-WITNET/new-header-sec-v." stroke="none" stroke-width="1" fill="none" fill-rule="evenodd" transform="translate(-899.000000, -999.000000)">
        <g id="//BODY" transform="translate(-575.000000, 851.000000)">
            <g id="section1" transform="translate(719.000000, 0.000000)">
                <g id="conteiner2" transform="translate(668.000000, 112.000000)">
                    <g id="ilustracja" transform="translate(87.000000, 36.000000)">
                        <g>
                            <g id="Group">
                                <g id="Group-12">
                                    <g id="Group-24" transform="translate(21.000000, 184.000000)">
                                        <path d="M16.9230854,13.5846346 L16.1682025,14.6627191 C15.9607339,14.959015 15.6094324,15.1201789 15.249518,15.084177 L7.06299367,14.2652856 C6.70170377,14.2291461 6.38838992,14.0000112 6.24445457,13.6666659 L2.71725679,5.49789626 L3.84194395,3.89167654 L4.10964284,3.75898863 L4.20690668,3.92799724 L7.56739363,11.7614837 C7.67677751,12.0637911 7.77155828,12.2430153 7.85173594,12.2991563 C7.93191359,12.3552973 8.09828749,12.3950238 8.35085763,12.4183358 L16.1718707,13.180977 L16.9230854,13.5846346 Z" id="Rectangle-12-Copy" fill="#BCC5CD" transform="translate(9.820171, 9.424072) rotate(-35.000000) translate(-9.820171, -9.424072) "></path>
                                        <path d="M4.4185054,3.47302072 L12.1169299,4.58128705 C12.4434839,4.6282978 12.7258363,4.83335068 12.871578,5.12933527 L16.4354089,12.3670674 C16.6793795,12.8625437 16.4754939,13.4619839 15.9800175,13.7059545 C15.8132177,13.7880861 15.6268237,13.8220901 15.4417673,13.804148 L7.40341813,13.0247906 C7.03921086,12.9894789 6.72337262,12.7580641 6.57994379,12.4214308 L3.35603748,4.85478976 C3.13955678,4.34670064 3.37595211,3.75932075 3.88404123,3.54284006 C4.05244755,3.47108745 4.2373183,3.446937 4.4185054,3.47302072 Z" id="Rectangle-12" fill="#D3DAE0" transform="translate(9.907125, 8.635816) rotate(-35.000000) translate(-9.907125, -8.635816) "></path>
                                    </g>
                                    <g id="Group-11">
                                        <path d="M139.94869,6.18800167 C139.541018,4.41476228 138.798269,3.45904472 137.720445,3.32084901 C136.64262,3.18265329 135.666482,3.51931067 134.792031,4.33082116 L8.57635642,73.0056151 C6.98287369,73.9100463 5.81961375,74.9741088 5.08657659,76.1978027 C4.35353944,77.4214965 3.94893873,79.029657 3.87277446,81.0222842 L3.28101932,193.786588 L0,191.762227 L1.59872116e-14,78.4817348 C1.55398288e-14,74.8285776 1.99207309,71.4661334 5.19609104,69.7111899 L129.533573,1.60756025 C133.009273,-0.296191888 137.37018,0.97812318 139.273932,4.45382262 C139.57317,5.0001441 139.799996,5.58310454 139.94869,6.18800167 Z" id="Rectangle-10-Copy" fill="#D3DAE0"></path>
                                        <path d="M7.74050143,72.3202019 L134.305054,2.9967344 C136.242589,1.93548413 138.673585,2.6458535 139.734835,4.58338879 C140.05749,5.17246339 140.226617,5.8333013 140.226617,6.50495238 L140.226617,117.465541 L3.26935706,193.658854 L2.54461788,81.1551647 C2.52093627,77.4789888 4.51622801,74.0862399 7.74050143,72.3202019 Z" id="Rectangle-10" fill="#F4F5F7"></path>
                                        <polygon id="Rectangle-10" fill="#0A0F5F" points="12.3033747 78.4811596 130.429416 13.7797357 130.429416 115.434121 12.3033747 182.89811"></polygon>
                                        <path d="M224.856623,176.244264 L102.775628,246.90098 C99.1090253,249.023097 94.5951583,249.054638 90.8992574,246.983968 L3.21038218,197.855296 L3.21038218,193.764069 L92.1072431,242.814077 L101.897346,242.814077 L223.077562,172.232753 C222.730004,167.536145 223.201689,165.47594 224.492616,166.052138 C225.375481,166.446199 226.236829,167.855623 227.076661,170.280408 L227.076658,170.280409 C227.860483,172.543493 226.929462,175.044569 224.856623,176.244264 Z" id="Rectangle" fill="#D3DAE0"></path>
                                        <path d="M3.04507897,193.742937 L140.369182,117.388938 L223.336025,164.785078 C225.73378,166.154834 226.567138,169.209005 225.197382,171.60676 C224.760468,172.371578 224.129267,173.007405 223.36766,173.449892 L102.817277,243.488638 C99.1287395,245.631647 94.5797975,245.655354 90.8691239,243.550906 L3.04507897,193.742937 Z" id="Rectangle" fill="#E8EDF2"></path>
                                        <path d="M104.752013,200.507143 L150.143515,174.351075 C152.576827,172.948921 155.56718,172.925379 158.022266,174.289049 L179.332849,186.125946 C181.264073,187.198639 181.96005,189.633794 180.887358,191.565018 C180.53189,192.204986 180.007612,192.735131 179.371639,193.097698 L133.387523,219.313179 C130.925578,220.716731 127.904807,220.713046 125.446293,219.303491 L104.759563,207.443038 C102.84307,206.344243 102.180195,203.89987 103.27899,201.983377 C103.630828,201.369708 104.139111,200.860317 104.752013,200.507143 Z" id="Rectangle-11" fill="#D3DAE0"></path>
                                        <path d="M17,89.2482166 L82.1039639,54" id="Path-16" stroke="#8FB6FF" stroke-width="2" stroke-linecap="round" stroke-linejoin="round"></path>
                                        <path d="M16.6492861,108.424441 C16.6492861,108.424441 24.0995241,104.282961 39,96" id="Path-16-Copy-2" stroke="#8FB6FF" stroke-width="2" stroke-linecap="round" stroke-linejoin="round"></path>
                                        <path d="M44,93.2482166 L64,82" id="Path-16-Copy-4" stroke="#8FB6FF" stroke-width="2" stroke-linecap="round" stroke-linejoin="round"></path>
                                        <path d="M16.5250235,98.4318778 L119,44" id="Path-16-Copy" stroke="#FFFFFF" stroke-width="2" stroke-linecap="round" stroke-linejoin="round"></path>
                                        <path d="M16.5562048,116.540319 L59,93" id="Path-16-Copy-3" stroke="#FFFFFF" stroke-width="2" stroke-linecap="round" stroke-linejoin="round"></path>
                                        <path d="M17,124.870199 L50.0065152,107" id="Path-16" stroke="#8FB6FF" stroke-width="2" stroke-linecap="round" stroke-linejoin="round"></path>
                                        <path d="M81,95.8701991 L114.006515,78" id="Path-16-Copy-12" stroke="#8FB6FF" stroke-width="2" stroke-linecap="round" stroke-linejoin="round"></path>
                                        <path d="M17,144.424441 C17,144.424441 25.0415548,140.082766 41.1246643,131.399415" id="Path-16-Copy-2" stroke="#8FB6FF" stroke-width="2" stroke-linecap="round" stroke-linejoin="round"></path>
                                        <path d="M95,104.842269 C95,105.230384 102.450238,101.282961 117.350714,93" id="Path-16-Copy-13" stroke="#8FB6FF" stroke-width="2" stroke-linecap="round" stroke-linejoin="round"></path>
                                        <path d="M17,134.043734 L41.6798858,121.618066" id="Path-16-Copy" stroke="#FFFFFF" stroke-width="2" stroke-linecap="round" stroke-linejoin="round"></path>
                                        <path d="M95,95.0437344 L109.969695,87" id="Path-16-Copy-14" stroke="#FFFFFF" stroke-width="2" stroke-linecap="round" stroke-linejoin="round"></path>
                                        <path d="M16.5562048,152.540319 L40,140" id="Path-16-Copy-3" stroke="#FFFFFF" stroke-width="2" stroke-linecap="round" stroke-linejoin="round"></path>
                                        <path d="M17,161.424441 C17,161.424441 49.6666667,142.949627 115,106" id="Path-16-Copy-2" stroke="#8FB6FF" stroke-width="2" stroke-linecap="round" stroke-linejoin="round"></path>
                                    </g>
                                    <g id="Group-24-Copy-20" transform="translate(42.000000, 197.000000)">
                                        <path d="M16.9230854,13.5846346 L16.1682025,14.6627191 C15.9607339,14.959015 15.6094324,15.1201789 15.249518,15.084177 L7.06299367,14.2652856 C6.70170377,14.2291461 6.38838992,14.0000112 6.24445457,13.6666659 L2.71725679,5.49789626 L3.84194395,3.89167654 L4.10964284,3.75898863 L4.20690668,3.92799724 L7.56739363,11.7614837 C7.67677751,12.0637911 7.77155828,12.2430153 7.85173594,12.2991563 C7.93191359,12.3552973 8.09828749,12.3950238 8.35085763,12.4183358 L16.1718707,13.180977 L16.9230854,13.5846346 Z" id="Rectangle-12-Copy" fill="#BCC5CD" transform="translate(9.820171, 9.424072) rotate(-35.000000) translate(-9.820171, -9.424072) "></path>
                                        <path d="M4.4185054,3.47302072 L12.1169299,4.58128705 C12.4434839,4.6282978 12.7258363,4.83335068 12.871578,5.12933527 L16.4354089,12.3670674 C16.6793795,12.8625437 16.4754939,13.4619839 15.9800175,13.7059545 C15.8132177,13.7880861 15.6268237,13.8220901 15.4417673,13.804148 L7.40341813,13.0247906 C7.03921086,12.9894789 6.72337262,12.7580641 6.57994379,12.4214308 L3.35603748,4.85478976 C3.13955678,4.34670064 3.37595211,3.75932075 3.88404123,3.54284006 C4.05244755,3.47108745 4.2373183,3.446937 4.4185054,3.47302072 Z" id="Rectangle-12" fill="#D3DAE0" transform="translate(9.907125, 8.635816) rotate(-35.000000) translate(-9.907125, -8.635816) "></path>
                                    </g>
                                    <g id="Group-24-Copy" transform="translate(32.000000, 178.000000)">
                                        <path d="M17.1992748,13.5105184 L16.4267001,14.59027 C16.2187837,14.8808544 15.871622,15.0384252 15.5160144,15.0036149 L7.16524975,14.1861611 C6.805953,14.1509897 6.49350737,13.9248897 6.34777335,13.5945978 L2.76201135,5.4678176 L3.90502139,3.8703448 L4.1770815,3.73837946 L4.27592992,3.9064677 L7.69116436,11.6972958 C7.80233028,11.9979569 7.89865517,12.1762051 7.98013905,12.2320404 C8.06162292,12.2878756 8.2307073,12.3273858 8.4873922,12.3505708 L16.4358216,13.109059 L17.1992748,13.5105184 Z" id="Rectangle-12-Copy" fill="#BCC5CD" transform="translate(9.980643, 9.373382) rotate(-35.000000) translate(-9.980643, -9.373382) "></path>
                                        <path d="M4.47198542,3.45251252 L12.3255475,4.55893038 C12.6502786,4.60467882 12.9319422,4.80673752 13.0793401,5.09968297 L16.6953511,12.2863143 C16.9435859,12.779668 16.7448778,13.3808444 16.2515241,13.6290792 C16.083444,13.7136501 15.8949141,13.749085 15.7075982,13.7313122 L7.51002057,12.9535165 C7.14781038,12.9191496 6.8328471,12.6907657 6.68760807,12.3571747 L3.41561253,4.84192128 C3.19514754,4.33554826 3.4269218,3.74632963 3.93329482,3.52586465 C4.10263875,3.45213558 4.28909349,3.42674651 4.47198542,3.45251252 Z" id="Rectangle-12" fill="#D3DAE0" transform="translate(10.067250, 8.589259) rotate(-35.000000) translate(-10.067250, -8.589259) "></path>
                                    </g>
                                    <g id="Group-24-Copy-21" transform="translate(53.000000, 191.317278)">
                                        <path d="M17.1992748,13.5105184 L16.4267001,14.59027 C16.2187837,14.8808544 15.871622,15.0384252 15.5160144,15.0036149 L7.16524975,14.1861611 C6.805953,14.1509897 6.49350737,13.9248897 6.34777335,13.5945978 L2.76201135,5.4678176 L3.90502139,3.8703448 L4.1770815,3.73837946 L4.27592992,3.9064677 L7.69116436,11.6972958 C7.80233028,11.9979569 7.89865517,12.1762051 7.98013905,12.2320404 C8.06162292,12.2878756 8.2307073,12.3273858 8.4873922,12.3505708 L16.4358216,13.109059 L17.1992748,13.5105184 Z" id="Rectangle-12-Copy" fill="#BCC5CD" transform="translate(9.980643, 9.373382) rotate(-35.000000) translate(-9.980643, -9.373382) "></path>
                                        <path d="M4.47198542,3.45251252 L12.3255475,4.55893038 C12.6502786,4.60467882 12.9319422,4.80673752 13.0793401,5.09968297 L16.6953511,12.2863143 C16.9435859,12.779668 16.7448778,13.3808444 16.2515241,13.6290792 C16.083444,13.7136501 15.8949141,13.749085 15.7075982,13.7313122 L7.51002057,12.9535165 C7.14781038,12.9191496 6.8328471,12.6907657 6.68760807,12.3571747 L3.41561253,4.84192128 C3.19514754,4.33554826 3.4269218,3.74632963 3.93329482,3.52586465 C4.10263875,3.45213558 4.28909349,3.42674651 4.47198542,3.45251252 Z" id="Rectangle-12" fill="#D3DAE0" transform="translate(10.067250, 8.589259) rotate(-35.000000) translate(-10.067250, -8.589259) "></path>
                                    </g>
                                    <g id="Group-24-Copy-2" transform="translate(53.483487, 180.974204) rotate(-3.000000) translate(-53.483487, -180.974204) translate(43.483487, 171.474204)">
                                        <path d="M17.1992748,13.5105184 L16.4267001,14.59027 C16.2187837,14.8808544 15.871622,15.0384252 15.5160144,15.0036149 L7.16524975,14.1861611 C6.805953,14.1509897 6.49350737,13.9248897 6.34777335,13.5945978 L2.76201135,5.4678176 L3.90502139,3.8703448 L4.1770815,3.73837946 L4.27592992,3.9064677 L7.69116436,11.6972958 C7.80233028,11.9979569 7.89865517,12.1762051 7.98013905,12.2320404 C8.06162292,12.2878756 8.2307073,12.3273858 8.4873922,12.3505708 L16.4358216,13.109059 L17.1992748,13.5105184 Z" id="Rectangle-12-Copy" fill="#BCC5CD" transform="translate(9.980643, 9.373382) rotate(-35.000000) translate(-9.980643, -9.373382) "></path>
                                        <path d="M4.47198542,3.45251252 L12.3255475,4.55893038 C12.6502786,4.60467882 12.9319422,4.80673752 13.0793401,5.09968297 L16.6953511,12.2863143 C16.9435859,12.779668 16.7448778,13.3808444 16.2515241,13.6290792 C16.083444,13.7136501 15.8949141,13.749085 15.7075982,13.7313122 L7.51002057,12.9535165 C7.14781038,12.9191496 6.8328471,12.6907657 6.68760807,12.3571747 L3.41561253,4.84192128 C3.19514754,4.33554826 3.4269218,3.74632963 3.93329482,3.52586465 C4.10263875,3.45213558 4.28909349,3.42674651 4.47198542,3.45251252 Z" id="Rectangle-12" fill="#D3DAE0" transform="translate(10.067250, 8.589259) rotate(-35.000000) translate(-10.067250, -8.589259) "></path>
                                    </g>
                                    <g id="Group-24-Copy-22" transform="translate(74.483487, 194.291482) rotate(-3.000000) translate(-74.483487, -194.291482) translate(64.483487, 184.791482)">
                                        <path d="M17.1992748,13.5105184 L16.4267001,14.59027 C16.2187837,14.8808544 15.871622,15.0384252 15.5160144,15.0036149 L7.16524975,14.1861611 C6.805953,14.1509897 6.49350737,13.9248897 6.34777335,13.5945978 L2.76201135,5.4678176 L3.90502139,3.8703448 L4.1770815,3.73837946 L4.27592992,3.9064677 L7.69116436,11.6972958 C7.80233028,11.9979569 7.89865517,12.1762051 7.98013905,12.2320404 C8.06162292,12.2878756 8.2307073,12.3273858 8.4873922,12.3505708 L16.4358216,13.109059 L17.1992748,13.5105184 Z" id="Rectangle-12-Copy" fill="#BCC5CD" transform="translate(9.980643, 9.373382) rotate(-35.000000) translate(-9.980643, -9.373382) "></path>
                                        <path d="M4.47198542,3.45251252 L12.3255475,4.55893038 C12.6502786,4.60467882 12.9319422,4.80673752 13.0793401,5.09968297 L16.6953511,12.2863143 C16.9435859,12.779668 16.7448778,13.3808444 16.2515241,13.6290792 C16.083444,13.7136501 15.8949141,13.749085 15.7075982,13.7313122 L7.51002057,12.9535165 C7.14781038,12.9191496 6.8328471,12.6907657 6.68760807,12.3571747 L3.41561253,4.84192128 C3.19514754,4.33554826 3.4269218,3.74632963 3.93329482,3.52586465 C4.10263875,3.45213558 4.28909349,3.42674651 4.47198542,3.45251252 Z" id="Rectangle-12" fill="#D3DAE0" transform="translate(10.067250, 8.589259) rotate(-35.000000) translate(-10.067250, -8.589259) "></path>
                                    </g>
                                    <g id="Group-24-Copy-11" transform="translate(63.002234, 188.085329) rotate(-3.000000) translate(-63.002234, -188.085329) translate(53.002234, 178.585329)">
                                        <path d="M17.1992748,13.5105184 L16.4267001,14.59027 C16.2187837,14.8808544 15.871622,15.0384252 15.5160144,15.0036149 L7.16524975,14.1861611 C6.805953,14.1509897 6.49350737,13.9248897 6.34777335,13.5945978 L2.76201135,5.4678176 L3.90502139,3.8703448 L4.1770815,3.73837946 L4.27592992,3.9064677 L7.69116436,11.6972958 C7.80233028,11.9979569 7.89865517,12.1762051 7.98013905,12.2320404 C8.06162292,12.2878756 8.2307073,12.3273858 8.4873922,12.3505708 L16.4358216,13.109059 L17.1992748,13.5105184 Z" id="Rectangle-12-Copy" fill="#BCC5CD" transform="translate(9.980643, 9.373382) rotate(-35.000000) translate(-9.980643, -9.373382) "></path>
                                        <path d="M4.47198542,3.45251252 L12.3255475,4.55893038 C12.6502786,4.60467882 12.9319422,4.80673752 13.0793401,5.09968297 L16.6953511,12.2863143 C16.9435859,12.779668 16.7448778,13.3808444 16.2515241,13.6290792 C16.083444,13.7136501 15.8949141,13.749085 15.7075982,13.7313122 L7.51002057,12.9535165 C7.14781038,12.9191496 6.8328471,12.6907657 6.68760807,12.3571747 L3.41561253,4.84192128 C3.19514754,4.33554826 3.4269218,3.74632963 3.93329482,3.52586465 C4.10263875,3.45213558 4.28909349,3.42674651 4.47198542,3.45251252 Z" id="Rectangle-12" fill="#D3DAE0" transform="translate(10.067250, 8.589259) rotate(-35.000000) translate(-10.067250, -8.589259) "></path>
                                    </g>
                                    <g id="Group-24-Copy-3" transform="translate(64.535823, 174.008970) rotate(-3.000000) translate(-64.535823, -174.008970) translate(54.535823, 164.508970)">
                                        <path d="M17.1992748,13.5105184 L16.4267001,14.59027 C16.2187837,14.8808544 15.871622,15.0384252 15.5160144,15.0036149 L7.16524975,14.1861611 C6.805953,14.1509897 6.49350737,13.9248897 6.34777335,13.5945978 L2.76201135,5.4678176 L3.90502139,3.8703448 L4.1770815,3.73837946 L4.27592992,3.9064677 L7.69116436,11.6972958 C7.80233028,11.9979569 7.89865517,12.1762051 7.98013905,12.2320404 C8.06162292,12.2878756 8.2307073,12.3273858 8.4873922,12.3505708 L16.4358216,13.109059 L17.1992748,13.5105184 Z" id="Rectangle-12-Copy" fill="#BCC5CD" transform="translate(9.980643, 9.373382) rotate(-35.000000) translate(-9.980643, -9.373382) "></path>
                                        <path d="M4.47198542,3.45251252 L12.3255475,4.55893038 C12.6502786,4.60467882 12.9319422,4.80673752 13.0793401,5.09968297 L16.6953511,12.2863143 C16.9435859,12.779668 16.7448778,13.3808444 16.2515241,13.6290792 C16.083444,13.7136501 15.8949141,13.749085 15.7075982,13.7313122 L7.51002057,12.9535165 C7.14781038,12.9191496 6.8328471,12.6907657 6.68760807,12.3571747 L3.41561253,4.84192128 C3.19514754,4.33554826 3.4269218,3.74632963 3.93329482,3.52586465 C4.10263875,3.45213558 4.28909349,3.42674651 4.47198542,3.45251252 Z" id="Rectangle-12" fill="#D3DAE0" transform="translate(10.067250, 8.589259) rotate(-35.000000) translate(-10.067250, -8.589259) "></path>
                                    </g>
                                    <g id="Group-24-Copy-23" transform="translate(85.535823, 187.326248) rotate(-3.000000) translate(-85.535823, -187.326248) translate(75.535823, 177.826248)">
                                        <path d="M17.1992748,13.5105184 L16.4267001,14.59027 C16.2187837,14.8808544 15.871622,15.0384252 15.5160144,15.0036149 L7.16524975,14.1861611 C6.805953,14.1509897 6.49350737,13.9248897 6.34777335,13.5945978 L2.76201135,5.4678176 L3.90502139,3.8703448 L4.1770815,3.73837946 L4.27592992,3.9064677 L7.69116436,11.6972958 C7.80233028,11.9979569 7.89865517,12.1762051 7.98013905,12.2320404 C8.06162292,12.2878756 8.2307073,12.3273858 8.4873922,12.3505708 L16.4358216,13.109059 L17.1992748,13.5105184 Z" id="Rectangle-12-Copy" fill="#BCC5CD" transform="translate(9.980643, 9.373382) rotate(-35.000000) translate(-9.980643, -9.373382) "></path>
                                        <path d="M4.47198542,3.45251252 L12.3255475,4.55893038 C12.6502786,4.60467882 12.9319422,4.80673752 13.0793401,5.09968297 L16.6953511,12.2863143 C16.9435859,12.779668 16.7448778,13.3808444 16.2515241,13.6290792 C16.083444,13.7136501 15.8949141,13.749085 15.7075982,13.7313122 L7.51002057,12.9535165 C7.14781038,12.9191496 6.8328471,12.6907657 6.68760807,12.3571747 L3.41561253,4.84192128 C3.19514754,4.33554826 3.4269218,3.74632963 3.93329482,3.52586465 C4.10263875,3.45213558 4.28909349,3.42674651 4.47198542,3.45251252 Z" id="Rectangle-12" fill="#D3DAE0" transform="translate(10.067250, 8.589259) rotate(-35.000000) translate(-10.067250, -8.589259) "></path>
                                    </g>
                                    <g id="Group-24-Copy-12" transform="translate(74.054570, 181.120094) rotate(-3.000000) translate(-74.054570, -181.120094) translate(64.054570, 171.620094)">
                                        <path d="M17.1992748,13.5105184 L16.4267001,14.59027 C16.2187837,14.8808544 15.871622,15.0384252 15.5160144,15.0036149 L7.16524975,14.1861611 C6.805953,14.1509897 6.49350737,13.9248897 6.34777335,13.5945978 L2.76201135,5.4678176 L3.90502139,3.8703448 L4.1770815,3.73837946 L4.27592992,3.9064677 L7.69116436,11.6972958 C7.80233028,11.9979569 7.89865517,12.1762051 7.98013905,12.2320404 C8.06162292,12.2878756 8.2307073,12.3273858 8.4873922,12.3505708 L16.4358216,13.109059 L17.1992748,13.5105184 Z" id="Rectangle-12-Copy" fill="#BCC5CD" transform="translate(9.980643, 9.373382) rotate(-35.000000) translate(-9.980643, -9.373382) "></path>
                                        <path d="M4.47198542,3.45251252 L12.3255475,4.55893038 C12.6502786,4.60467882 12.9319422,4.80673752 13.0793401,5.09968297 L16.6953511,12.2863143 C16.9435859,12.779668 16.7448778,13.3808444 16.2515241,13.6290792 C16.083444,13.7136501 15.8949141,13.749085 15.7075982,13.7313122 L7.51002057,12.9535165 C7.14781038,12.9191496 6.8328471,12.6907657 6.68760807,12.3571747 L3.41561253,4.84192128 C3.19514754,4.33554826 3.4269218,3.74632963 3.93329482,3.52586465 C4.10263875,3.45213558 4.28909349,3.42674651 4.47198542,3.45251252 Z" id="Rectangle-12" fill="#D3DAE0" transform="translate(10.067250, 8.589259) rotate(-35.000000) translate(-10.067250, -8.589259) "></path>
                                    </g>
                                    <g id="Group-24-Copy-4" transform="translate(75.483487, 167.974204) rotate(-3.000000) translate(-75.483487, -167.974204) translate(65.483487, 158.474204)">
                                        <path d="M17.1992748,13.5105184 L16.4267001,14.59027 C16.2187837,14.8808544 15.871622,15.0384252 15.5160144,15.0036149 L7.16524975,14.1861611 C6.805953,14.1509897 6.49350737,13.9248897 6.34777335,13.5945978 L2.76201135,5.4678176 L3.90502139,3.8703448 L4.1770815,3.73837946 L4.27592992,3.9064677 L7.69116436,11.6972958 C7.80233028,11.9979569 7.89865517,12.1762051 7.98013905,12.2320404 C8.06162292,12.2878756 8.2307073,12.3273858 8.4873922,12.3505708 L16.4358216,13.109059 L17.1992748,13.5105184 Z" id="Rectangle-12-Copy" fill="#BCC5CD" transform="translate(9.980643, 9.373382) rotate(-35.000000) translate(-9.980643, -9.373382) "></path>
                                        <path d="M4.47198542,3.45251252 L12.3255475,4.55893038 C12.6502786,4.60467882 12.9319422,4.80673752 13.0793401,5.09968297 L16.6953511,12.2863143 C16.9435859,12.779668 16.7448778,13.3808444 16.2515241,13.6290792 C16.083444,13.7136501 15.8949141,13.749085 15.7075982,13.7313122 L7.51002057,12.9535165 C7.14781038,12.9191496 6.8328471,12.6907657 6.68760807,12.3571747 L3.41561253,4.84192128 C3.19514754,4.33554826 3.4269218,3.74632963 3.93329482,3.52586465 C4.10263875,3.45213558 4.28909349,3.42674651 4.47198542,3.45251252 Z" id="Rectangle-12" fill="#D3DAE0" transform="translate(10.067250, 8.589259) rotate(-35.000000) translate(-10.067250, -8.589259) "></path>
                                    </g>
                                    <g id="Group-24-Copy-24" transform="translate(96.483487, 181.291482) rotate(-3.000000) translate(-96.483487, -181.291482) translate(86.483487, 171.791482)">
                                        <path d="M17.1992748,13.5105184 L16.4267001,14.59027 C16.2187837,14.8808544 15.871622,15.0384252 15.5160144,15.0036149 L7.16524975,14.1861611 C6.805953,14.1509897 6.49350737,13.9248897 6.34777335,13.5945978 L2.76201135,5.4678176 L3.90502139,3.8703448 L4.1770815,3.73837946 L4.27592992,3.9064677 L7.69116436,11.6972958 C7.80233028,11.9979569 7.89865517,12.1762051 7.98013905,12.2320404 C8.06162292,12.2878756 8.2307073,12.3273858 8.4873922,12.3505708 L16.4358216,13.109059 L17.1992748,13.5105184 Z" id="Rectangle-12-Copy" fill="#BCC5CD" transform="translate(9.980643, 9.373382) rotate(-35.000000) translate(-9.980643, -9.373382) "></path>
                                        <path d="M4.47198542,3.45251252 L12.3255475,4.55893038 C12.6502786,4.60467882 12.9319422,4.80673752 13.0793401,5.09968297 L16.6953511,12.2863143 C16.9435859,12.779668 16.7448778,13.3808444 16.2515241,13.6290792 C16.083444,13.7136501 15.8949141,13.749085 15.7075982,13.7313122 L7.51002057,12.9535165 C7.14781038,12.9191496 6.8328471,12.6907657 6.68760807,12.3571747 L3.41561253,4.84192128 C3.19514754,4.33554826 3.4269218,3.74632963 3.93329482,3.52586465 C4.10263875,3.45213558 4.28909349,3.42674651 4.47198542,3.45251252 Z" id="Rectangle-12" fill="#D3DAE0" transform="translate(10.067250, 8.589259) rotate(-35.000000) translate(-10.067250, -8.589259) "></path>
                                    </g>
                                    <g id="Group-24-Copy-13" transform="translate(85.002234, 175.085329) rotate(-3.000000) translate(-85.002234, -175.085329) translate(75.002234, 165.585329)">
                                        <path d="M17.1992748,13.5105184 L16.4267001,14.59027 C16.2187837,14.8808544 15.871622,15.0384252 15.5160144,15.0036149 L7.16524975,14.1861611 C6.805953,14.1509897 6.49350737,13.9248897 6.34777335,13.5945978 L2.76201135,5.4678176 L3.90502139,3.8703448 L4.1770815,3.73837946 L4.27592992,3.9064677 L7.69116436,11.6972958 C7.80233028,11.9979569 7.89865517,12.1762051 7.98013905,12.2320404 C8.06162292,12.2878756 8.2307073,12.3273858 8.4873922,12.3505708 L16.4358216,13.109059 L17.1992748,13.5105184 Z" id="Rectangle-12-Copy" fill="#BCC5CD" transform="translate(9.980643, 9.373382) rotate(-35.000000) translate(-9.980643, -9.373382) "></path>
                                        <path d="M4.47198542,3.45251252 L12.3255475,4.55893038 C12.6502786,4.60467882 12.9319422,4.80673752 13.0793401,5.09968297 L16.6953511,12.2863143 C16.9435859,12.779668 16.7448778,13.3808444 16.2515241,13.6290792 C16.083444,13.7136501 15.8949141,13.749085 15.7075982,13.7313122 L7.51002057,12.9535165 C7.14781038,12.9191496 6.8328471,12.6907657 6.68760807,12.3571747 L3.41561253,4.84192128 C3.19514754,4.33554826 3.4269218,3.74632963 3.93329482,3.52586465 C4.10263875,3.45213558 4.28909349,3.42674651 4.47198542,3.45251252 Z" id="Rectangle-12" fill="#D3DAE0" transform="translate(10.067250, 8.589259) rotate(-35.000000) translate(-10.067250, -8.589259) "></path>
                                    </g>
                                    <g id="Group-24-Copy-5" transform="translate(86.483487, 161.974204) rotate(-3.000000) translate(-86.483487, -161.974204) translate(76.483487, 152.474204)">
                                        <path d="M17.1992748,13.5105184 L16.4267001,14.59027 C16.2187837,14.8808544 15.871622,15.0384252 15.5160144,15.0036149 L7.16524975,14.1861611 C6.805953,14.1509897 6.49350737,13.9248897 6.34777335,13.5945978 L2.76201135,5.4678176 L3.90502139,3.8703448 L4.1770815,3.73837946 L4.27592992,3.9064677 L7.69116436,11.6972958 C7.80233028,11.9979569 7.89865517,12.1762051 7.98013905,12.2320404 C8.06162292,12.2878756 8.2307073,12.3273858 8.4873922,12.3505708 L16.4358216,13.109059 L17.1992748,13.5105184 Z" id="Rectangle-12-Copy" fill="#BCC5CD" transform="translate(9.980643, 9.373382) rotate(-35.000000) translate(-9.980643, -9.373382) "></path>
                                        <path d="M4.47198542,3.45251252 L12.3255475,4.55893038 C12.6502786,4.60467882 12.9319422,4.80673752 13.0793401,5.09968297 L16.6953511,12.2863143 C16.9435859,12.779668 16.7448778,13.3808444 16.2515241,13.6290792 C16.083444,13.7136501 15.8949141,13.749085 15.7075982,13.7313122 L7.51002057,12.9535165 C7.14781038,12.9191496 6.8328471,12.6907657 6.68760807,12.3571747 L3.41561253,4.84192128 C3.19514754,4.33554826 3.4269218,3.74632963 3.93329482,3.52586465 C4.10263875,3.45213558 4.28909349,3.42674651 4.47198542,3.45251252 Z" id="Rectangle-12" fill="#D3DAE0" transform="translate(10.067250, 8.589259) rotate(-35.000000) translate(-10.067250, -8.589259) "></path>
                                    </g>
                                    <g id="Group-24-Copy-25" transform="translate(107.483487, 175.291482) rotate(-3.000000) translate(-107.483487, -175.291482) translate(97.483487, 165.791482)">
                                        <path d="M17.1992748,13.5105184 L16.4267001,14.59027 C16.2187837,14.8808544 15.871622,15.0384252 15.5160144,15.0036149 L7.16524975,14.1861611 C6.805953,14.1509897 6.49350737,13.9248897 6.34777335,13.5945978 L2.76201135,5.4678176 L3.90502139,3.8703448 L4.1770815,3.73837946 L4.27592992,3.9064677 L7.69116436,11.6972958 C7.80233028,11.9979569 7.89865517,12.1762051 7.98013905,12.2320404 C8.06162292,12.2878756 8.2307073,12.3273858 8.4873922,12.3505708 L16.4358216,13.109059 L17.1992748,13.5105184 Z" id="Rectangle-12-Copy" fill="#BCC5CD" transform="translate(9.980643, 9.373382) rotate(-35.000000) translate(-9.980643, -9.373382) "></path>
                                        <path d="M4.47198542,3.45251252 L12.3255475,4.55893038 C12.6502786,4.60467882 12.9319422,4.80673752 13.0793401,5.09968297 L16.6953511,12.2863143 C16.9435859,12.779668 16.7448778,13.3808444 16.2515241,13.6290792 C16.083444,13.7136501 15.8949141,13.749085 15.7075982,13.7313122 L7.51002057,12.9535165 C7.14781038,12.9191496 6.8328471,12.6907657 6.68760807,12.3571747 L3.41561253,4.84192128 C3.19514754,4.33554826 3.4269218,3.74632963 3.93329482,3.52586465 C4.10263875,3.45213558 4.28909349,3.42674651 4.47198542,3.45251252 Z" id="Rectangle-12" fill="#D3DAE0" transform="translate(10.067250, 8.589259) rotate(-35.000000) translate(-10.067250, -8.589259) "></path>
                                    </g>
                                    <g id="Group-24-Copy-14" transform="translate(96.002234, 169.085329) rotate(-3.000000) translate(-96.002234, -169.085329) translate(86.002234, 159.585329)">
                                        <path d="M17.1992748,13.5105184 L16.4267001,14.59027 C16.2187837,14.8808544 15.871622,15.0384252 15.5160144,15.0036149 L7.16524975,14.1861611 C6.805953,14.1509897 6.49350737,13.9248897 6.34777335,13.5945978 L2.76201135,5.4678176 L3.90502139,3.8703448 L4.1770815,3.73837946 L4.27592992,3.9064677 L7.69116436,11.6972958 C7.80233028,11.9979569 7.89865517,12.1762051 7.98013905,12.2320404 C8.06162292,12.2878756 8.2307073,12.3273858 8.4873922,12.3505708 L16.4358216,13.109059 L17.1992748,13.5105184 Z" id="Rectangle-12-Copy" fill="#BCC5CD" transform="translate(9.980643, 9.373382) rotate(-35.000000) translate(-9.980643, -9.373382) "></path>
                                        <path d="M4.47198542,3.45251252 L12.3255475,4.55893038 C12.6502786,4.60467882 12.9319422,4.80673752 13.0793401,5.09968297 L16.6953511,12.2863143 C16.9435859,12.779668 16.7448778,13.3808444 16.2515241,13.6290792 C16.083444,13.7136501 15.8949141,13.749085 15.7075982,13.7313122 L7.51002057,12.9535165 C7.14781038,12.9191496 6.8328471,12.6907657 6.68760807,12.3571747 L3.41561253,4.84192128 C3.19514754,4.33554826 3.4269218,3.74632963 3.93329482,3.52586465 C4.10263875,3.45213558 4.28909349,3.42674651 4.47198542,3.45251252 Z" id="Rectangle-12" fill="#D3DAE0" transform="translate(10.067250, 8.589259) rotate(-35.000000) translate(-10.067250, -8.589259) "></path>
                                    </g>
                                    <g id="Group-24-Copy-6" transform="translate(96.483487, 155.974204) rotate(-3.000000) translate(-96.483487, -155.974204) translate(86.483487, 146.474204)">
                                        <path d="M17.1992748,13.5105184 L16.4267001,14.59027 C16.2187837,14.8808544 15.871622,15.0384252 15.5160144,15.0036149 L7.16524975,14.1861611 C6.805953,14.1509897 6.49350737,13.9248897 6.34777335,13.5945978 L2.76201135,5.4678176 L3.90502139,3.8703448 L4.1770815,3.73837946 L4.27592992,3.9064677 L7.69116436,11.6972958 C7.80233028,11.9979569 7.89865517,12.1762051 7.98013905,12.2320404 C8.06162292,12.2878756 8.2307073,12.3273858 8.4873922,12.3505708 L16.4358216,13.109059 L17.1992748,13.5105184 Z" id="Rectangle-12-Copy" fill="#BCC5CD" transform="translate(9.980643, 9.373382) rotate(-35.000000) translate(-9.980643, -9.373382) "></path>
                                        <path d="M4.47198542,3.45251252 L12.3255475,4.55893038 C12.6502786,4.60467882 12.9319422,4.80673752 13.0793401,5.09968297 L16.6953511,12.2863143 C16.9435859,12.779668 16.7448778,13.3808444 16.2515241,13.6290792 C16.083444,13.7136501 15.8949141,13.749085 15.7075982,13.7313122 L7.51002057,12.9535165 C7.14781038,12.9191496 6.8328471,12.6907657 6.68760807,12.3571747 L3.41561253,4.84192128 C3.19514754,4.33554826 3.4269218,3.74632963 3.93329482,3.52586465 C4.10263875,3.45213558 4.28909349,3.42674651 4.47198542,3.45251252 Z" id="Rectangle-12" fill="#D3DAE0" transform="translate(10.067250, 8.589259) rotate(-35.000000) translate(-10.067250, -8.589259) "></path>
                                    </g>
                                    <g id="Group-24-Copy-26" transform="translate(117.483487, 169.291482) rotate(-3.000000) translate(-117.483487, -169.291482) translate(107.483487, 159.791482)">
                                        <path d="M17.1992748,13.5105184 L16.4267001,14.59027 C16.2187837,14.8808544 15.871622,15.0384252 15.5160144,15.0036149 L7.16524975,14.1861611 C6.805953,14.1509897 6.49350737,13.9248897 6.34777335,13.5945978 L2.76201135,5.4678176 L3.90502139,3.8703448 L4.1770815,3.73837946 L4.27592992,3.9064677 L7.69116436,11.6972958 C7.80233028,11.9979569 7.89865517,12.1762051 7.98013905,12.2320404 C8.06162292,12.2878756 8.2307073,12.3273858 8.4873922,12.3505708 L16.4358216,13.109059 L17.1992748,13.5105184 Z" id="Rectangle-12-Copy" fill="#BCC5CD" transform="translate(9.980643, 9.373382) rotate(-35.000000) translate(-9.980643, -9.373382) "></path>
                                        <path d="M4.47198542,3.45251252 L12.3255475,4.55893038 C12.6502786,4.60467882 12.9319422,4.80673752 13.0793401,5.09968297 L16.6953511,12.2863143 C16.9435859,12.779668 16.7448778,13.3808444 16.2515241,13.6290792 C16.083444,13.7136501 15.8949141,13.749085 15.7075982,13.7313122 L7.51002057,12.9535165 C7.14781038,12.9191496 6.8328471,12.6907657 6.68760807,12.3571747 L3.41561253,4.84192128 C3.19514754,4.33554826 3.4269218,3.74632963 3.93329482,3.52586465 C4.10263875,3.45213558 4.28909349,3.42674651 4.47198542,3.45251252 Z" id="Rectangle-12" fill="#D3DAE0" transform="translate(10.067250, 8.589259) rotate(-35.000000) translate(-10.067250, -8.589259) "></path>
                                    </g>
                                    <g id="Group-24-Copy-15" transform="translate(106.002234, 163.085329) rotate(-3.000000) translate(-106.002234, -163.085329) translate(96.002234, 153.585329)">
                                        <path d="M17.1992748,13.5105184 L16.4267001,14.59027 C16.2187837,14.8808544 15.871622,15.0384252 15.5160144,15.0036149 L7.16524975,14.1861611 C6.805953,14.1509897 6.49350737,13.9248897 6.34777335,13.5945978 L2.76201135,5.4678176 L3.90502139,3.8703448 L4.1770815,3.73837946 L4.27592992,3.9064677 L7.69116436,11.6972958 C7.80233028,11.9979569 7.89865517,12.1762051 7.98013905,12.2320404 C8.06162292,12.2878756 8.2307073,12.3273858 8.4873922,12.3505708 L16.4358216,13.109059 L17.1992748,13.5105184 Z" id="Rectangle-12-Copy" fill="#BCC5CD" transform="translate(9.980643, 9.373382) rotate(-35.000000) translate(-9.980643, -9.373382) "></path>
                                        <path d="M4.47198542,3.45251252 L12.3255475,4.55893038 C12.6502786,4.60467882 12.9319422,4.80673752 13.0793401,5.09968297 L16.6953511,12.2863143 C16.9435859,12.779668 16.7448778,13.3808444 16.2515241,13.6290792 C16.083444,13.7136501 15.8949141,13.749085 15.7075982,13.7313122 L7.51002057,12.9535165 C7.14781038,12.9191496 6.8328471,12.6907657 6.68760807,12.3571747 L3.41561253,4.84192128 C3.19514754,4.33554826 3.4269218,3.74632963 3.93329482,3.52586465 C4.10263875,3.45213558 4.28909349,3.42674651 4.47198542,3.45251252 Z" id="Rectangle-12" fill="#D3DAE0" transform="translate(10.067250, 8.589259) rotate(-35.000000) translate(-10.067250, -8.589259) "></path>
                                    </g>
                                    <g id="Group-24-Copy-7" transform="translate(106.483487, 149.974204) rotate(-3.000000) translate(-106.483487, -149.974204) translate(96.483487, 140.474204)">
                                        <path d="M17.1992748,13.5105184 L16.4267001,14.59027 C16.2187837,14.8808544 15.871622,15.0384252 15.5160144,15.0036149 L7.16524975,14.1861611 C6.805953,14.1509897 6.49350737,13.9248897 6.34777335,13.5945978 L2.76201135,5.4678176 L3.90502139,3.8703448 L4.1770815,3.73837946 L4.27592992,3.9064677 L7.69116436,11.6972958 C7.80233028,11.9979569 7.89865517,12.1762051 7.98013905,12.2320404 C8.06162292,12.2878756 8.2307073,12.3273858 8.4873922,12.3505708 L16.4358216,13.109059 L17.1992748,13.5105184 Z" id="Rectangle-12-Copy" fill="#BCC5CD" transform="translate(9.980643, 9.373382) rotate(-35.000000) translate(-9.980643, -9.373382) "></path>
                                        <path d="M4.47198542,3.45251252 L12.3255475,4.55893038 C12.6502786,4.60467882 12.9319422,4.80673752 13.0793401,5.09968297 L16.6953511,12.2863143 C16.9435859,12.779668 16.7448778,13.3808444 16.2515241,13.6290792 C16.083444,13.7136501 15.8949141,13.749085 15.7075982,13.7313122 L7.51002057,12.9535165 C7.14781038,12.9191496 6.8328471,12.6907657 6.68760807,12.3571747 L3.41561253,4.84192128 C3.19514754,4.33554826 3.4269218,3.74632963 3.93329482,3.52586465 C4.10263875,3.45213558 4.28909349,3.42674651 4.47198542,3.45251252 Z" id="Rectangle-12" fill="#D3DAE0" transform="translate(10.067250, 8.589259) rotate(-35.000000) translate(-10.067250, -8.589259) "></path>
                                    </g>
                                    <g id="Group-24-Copy-27" transform="translate(127.483487, 163.291482) rotate(-3.000000) translate(-127.483487, -163.291482) translate(117.483487, 153.791482)">
                                        <path d="M17.1992748,13.5105184 L16.4267001,14.59027 C16.2187837,14.8808544 15.871622,15.0384252 15.5160144,15.0036149 L7.16524975,14.1861611 C6.805953,14.1509897 6.49350737,13.9248897 6.34777335,13.5945978 L2.76201135,5.4678176 L3.90502139,3.8703448 L4.1770815,3.73837946 L4.27592992,3.9064677 L7.69116436,11.6972958 C7.80233028,11.9979569 7.89865517,12.1762051 7.98013905,12.2320404 C8.06162292,12.2878756 8.2307073,12.3273858 8.4873922,12.3505708 L16.4358216,13.109059 L17.1992748,13.5105184 Z" id="Rectangle-12-Copy" fill="#BCC5CD" transform="translate(9.980643, 9.373382) rotate(-35.000000) translate(-9.980643, -9.373382) "></path>
                                        <path d="M4.47198542,3.45251252 L12.3255475,4.55893038 C12.6502786,4.60467882 12.9319422,4.80673752 13.0793401,5.09968297 L16.6953511,12.2863143 C16.9435859,12.779668 16.7448778,13.3808444 16.2515241,13.6290792 C16.083444,13.7136501 15.8949141,13.749085 15.7075982,13.7313122 L7.51002057,12.9535165 C7.14781038,12.9191496 6.8328471,12.6907657 6.68760807,12.3571747 L3.41561253,4.84192128 C3.19514754,4.33554826 3.4269218,3.74632963 3.93329482,3.52586465 C4.10263875,3.45213558 4.28909349,3.42674651 4.47198542,3.45251252 Z" id="Rectangle-12" fill="#D3DAE0" transform="translate(10.067250, 8.589259) rotate(-35.000000) translate(-10.067250, -8.589259) "></path>
                                    </g>
                                    <g id="Group-24-Copy-16" transform="translate(116.002234, 157.085329) rotate(-3.000000) translate(-116.002234, -157.085329) translate(106.002234, 147.585329)">
                                        <path d="M17.1992748,13.5105184 L16.4267001,14.59027 C16.2187837,14.8808544 15.871622,15.0384252 15.5160144,15.0036149 L7.16524975,14.1861611 C6.805953,14.1509897 6.49350737,13.9248897 6.34777335,13.5945978 L2.76201135,5.4678176 L3.90502139,3.8703448 L4.1770815,3.73837946 L4.27592992,3.9064677 L7.69116436,11.6972958 C7.80233028,11.9979569 7.89865517,12.1762051 7.98013905,12.2320404 C8.06162292,12.2878756 8.2307073,12.3273858 8.4873922,12.3505708 L16.4358216,13.109059 L17.1992748,13.5105184 Z" id="Rectangle-12-Copy" fill="#BCC5CD" transform="translate(9.980643, 9.373382) rotate(-35.000000) translate(-9.980643, -9.373382) "></path>
                                        <path d="M4.47198542,3.45251252 L12.3255475,4.55893038 C12.6502786,4.60467882 12.9319422,4.80673752 13.0793401,5.09968297 L16.6953511,12.2863143 C16.9435859,12.779668 16.7448778,13.3808444 16.2515241,13.6290792 C16.083444,13.7136501 15.8949141,13.749085 15.7075982,13.7313122 L7.51002057,12.9535165 C7.14781038,12.9191496 6.8328471,12.6907657 6.68760807,12.3571747 L3.41561253,4.84192128 C3.19514754,4.33554826 3.4269218,3.74632963 3.93329482,3.52586465 C4.10263875,3.45213558 4.28909349,3.42674651 4.47198542,3.45251252 Z" id="Rectangle-12" fill="#D3DAE0" transform="translate(10.067250, 8.589259) rotate(-35.000000) translate(-10.067250, -8.589259) "></path>
                                    </g>
                                    <g id="Group-24-Copy-8" transform="translate(116.984172, 143.984172) rotate(-3.000000) translate(-116.984172, -143.984172) translate(107.484172, 134.484172)">
                                        <path d="M16.9230854,13.5846346 L16.1682025,14.6627191 C15.9607339,14.959015 15.6094324,15.1201789 15.249518,15.084177 L7.06299367,14.2652856 C6.70170377,14.2291461 6.38838992,14.0000112 6.24445457,13.6666659 L2.71725679,5.49789626 L3.84194395,3.89167654 L4.10964284,3.75898863 L4.20690668,3.92799724 L7.56739363,11.7614837 C7.67677751,12.0637911 7.77155828,12.2430153 7.85173594,12.2991563 C7.93191359,12.3552973 8.09828749,12.3950238 8.35085763,12.4183358 L16.1718707,13.180977 L16.9230854,13.5846346 Z" id="Rectangle-12-Copy" fill="#BCC5CD" transform="translate(9.820171, 9.424072) rotate(-35.000000) translate(-9.820171, -9.424072) "></path>
                                        <path d="M4.4185054,3.47302072 L12.1169299,4.58128705 C12.4434839,4.6282978 12.7258363,4.83335068 12.871578,5.12933527 L16.4354089,12.3670674 C16.6793795,12.8625437 16.4754939,13.4619839 15.9800175,13.7059545 C15.8132177,13.7880861 15.6268237,13.8220901 15.4417673,13.804148 L7.40341813,13.0247906 C7.03921086,12.9894789 6.72337262,12.7580641 6.57994379,12.4214308 L3.35603748,4.85478976 C3.13955678,4.34670064 3.37595211,3.75932075 3.88404123,3.54284006 C4.05244755,3.47108745 4.2373183,3.446937 4.4185054,3.47302072 Z" id="Rectangle-12" fill="#D3DAE0" transform="translate(9.907125, 8.635816) rotate(-35.000000) translate(-9.907125, -8.635816) "></path>
                                    </g>
                                    <g id="Group-24-Copy-28" transform="translate(137.984172, 157.301450) rotate(-3.000000) translate(-137.984172, -157.301450) translate(128.484172, 147.801450)">
                                        <path d="M16.9230854,13.5846346 L16.1682025,14.6627191 C15.9607339,14.959015 15.6094324,15.1201789 15.249518,15.084177 L7.06299367,14.2652856 C6.70170377,14.2291461 6.38838992,14.0000112 6.24445457,13.6666659 L2.71725679,5.49789626 L3.84194395,3.89167654 L4.10964284,3.75898863 L4.20690668,3.92799724 L7.56739363,11.7614837 C7.67677751,12.0637911 7.77155828,12.2430153 7.85173594,12.2991563 C7.93191359,12.3552973 8.09828749,12.3950238 8.35085763,12.4183358 L16.1718707,13.180977 L16.9230854,13.5846346 Z" id="Rectangle-12-Copy" fill="#BCC5CD" transform="translate(9.820171, 9.424072) rotate(-35.000000) translate(-9.820171, -9.424072) "></path>
                                        <path d="M4.4185054,3.47302072 L12.1169299,4.58128705 C12.4434839,4.6282978 12.7258363,4.83335068 12.871578,5.12933527 L16.4354089,12.3670674 C16.6793795,12.8625437 16.4754939,13.4619839 15.9800175,13.7059545 C15.8132177,13.7880861 15.6268237,13.8220901 15.4417673,13.804148 L7.40341813,13.0247906 C7.03921086,12.9894789 6.72337262,12.7580641 6.57994379,12.4214308 L3.35603748,4.85478976 C3.13955678,4.34670064 3.37595211,3.75932075 3.88404123,3.54284006 C4.05244755,3.47108745 4.2373183,3.446937 4.4185054,3.47302072 Z" id="Rectangle-12" fill="#D3DAE0" transform="translate(9.907125, 8.635816) rotate(-35.000000) translate(-9.907125, -8.635816) "></path>
                                    </g>
                                    <g id="Group-24-Copy-17" transform="translate(126.502920, 151.095296) rotate(-3.000000) translate(-126.502920, -151.095296) translate(117.002920, 141.595296)">
                                        <path d="M16.9230854,13.5846346 L16.1682025,14.6627191 C15.9607339,14.959015 15.6094324,15.1201789 15.249518,15.084177 L7.06299367,14.2652856 C6.70170377,14.2291461 6.38838992,14.0000112 6.24445457,13.6666659 L2.71725679,5.49789626 L3.84194395,3.89167654 L4.10964284,3.75898863 L4.20690668,3.92799724 L7.56739363,11.7614837 C7.67677751,12.0637911 7.77155828,12.2430153 7.85173594,12.2991563 C7.93191359,12.3552973 8.09828749,12.3950238 8.35085763,12.4183358 L16.1718707,13.180977 L16.9230854,13.5846346 Z" id="Rectangle-12-Copy" fill="#BCC5CD" transform="translate(9.820171, 9.424072) rotate(-35.000000) translate(-9.820171, -9.424072) "></path>
                                        <path d="M4.4185054,3.47302072 L12.1169299,4.58128705 C12.4434839,4.6282978 12.7258363,4.83335068 12.871578,5.12933527 L16.4354089,12.3670674 C16.6793795,12.8625437 16.4754939,13.4619839 15.9800175,13.7059545 C15.8132177,13.7880861 15.6268237,13.8220901 15.4417673,13.804148 L7.40341813,13.0247906 C7.03921086,12.9894789 6.72337262,12.7580641 6.57994379,12.4214308 L3.35603748,4.85478976 C3.13955678,4.34670064 3.37595211,3.75932075 3.88404123,3.54284006 C4.05244755,3.47108745 4.2373183,3.446937 4.4185054,3.47302072 Z" id="Rectangle-12" fill="#D3DAE0" transform="translate(9.907125, 8.635816) rotate(-35.000000) translate(-9.907125, -8.635816) "></path>
                                    </g>
                                    <g id="Group-24-Copy-9" transform="translate(126.984172, 137.984172) rotate(-3.000000) translate(-126.984172, -137.984172) translate(117.484172, 128.484172)">
                                        <path d="M16.9230854,13.5846346 L16.1682025,14.6627191 C15.9607339,14.959015 15.6094324,15.1201789 15.249518,15.084177 L7.06299367,14.2652856 C6.70170377,14.2291461 6.38838992,14.0000112 6.24445457,13.6666659 L2.71725679,5.49789626 L3.84194395,3.89167654 L4.10964284,3.75898863 L4.20690668,3.92799724 L7.56739363,11.7614837 C7.67677751,12.0637911 7.77155828,12.2430153 7.85173594,12.2991563 C7.93191359,12.3552973 8.09828749,12.3950238 8.35085763,12.4183358 L16.1718707,13.180977 L16.9230854,13.5846346 Z" id="Rectangle-12-Copy" fill="#BCC5CD" transform="translate(9.820171, 9.424072) rotate(-35.000000) translate(-9.820171, -9.424072) "></path>
                                        <path d="M4.4185054,3.47302072 L12.1169299,4.58128705 C12.4434839,4.6282978 12.7258363,4.83335068 12.871578,5.12933527 L16.4354089,12.3670674 C16.6793795,12.8625437 16.4754939,13.4619839 15.9800175,13.7059545 C15.8132177,13.7880861 15.6268237,13.8220901 15.4417673,13.804148 L7.40341813,13.0247906 C7.03921086,12.9894789 6.72337262,12.7580641 6.57994379,12.4214308 L3.35603748,4.85478976 C3.13955678,4.34670064 3.37595211,3.75932075 3.88404123,3.54284006 C4.05244755,3.47108745 4.2373183,3.446937 4.4185054,3.47302072 Z" id="Rectangle-12" fill="#D3DAE0" transform="translate(9.907125, 8.635816) rotate(-35.000000) translate(-9.907125, -8.635816) "></path>
                                    </g>
                                    <g id="Group-24-Copy-29" transform="translate(147.984172, 151.301450) rotate(-3.000000) translate(-147.984172, -151.301450) translate(138.484172, 141.801450)">
                                        <path d="M16.9230854,13.5846346 L16.1682025,14.6627191 C15.9607339,14.959015 15.6094324,15.1201789 15.249518,15.084177 L7.06299367,14.2652856 C6.70170377,14.2291461 6.38838992,14.0000112 6.24445457,13.6666659 L2.71725679,5.49789626 L3.84194395,3.89167654 L4.10964284,3.75898863 L4.20690668,3.92799724 L7.56739363,11.7614837 C7.67677751,12.0637911 7.77155828,12.2430153 7.85173594,12.2991563 C7.93191359,12.3552973 8.09828749,12.3950238 8.35085763,12.4183358 L16.1718707,13.180977 L16.9230854,13.5846346 Z" id="Rectangle-12-Copy" fill="#BCC5CD" transform="translate(9.820171, 9.424072) rotate(-35.000000) translate(-9.820171, -9.424072) "></path>
                                        <path d="M4.4185054,3.47302072 L12.1169299,4.58128705 C12.4434839,4.6282978 12.7258363,4.83335068 12.871578,5.12933527 L16.4354089,12.3670674 C16.6793795,12.8625437 16.4754939,13.4619839 15.9800175,13.7059545 C15.8132177,13.7880861 15.6268237,13.8220901 15.4417673,13.804148 L7.40341813,13.0247906 C7.03921086,12.9894789 6.72337262,12.7580641 6.57994379,12.4214308 L3.35603748,4.85478976 C3.13955678,4.34670064 3.37595211,3.75932075 3.88404123,3.54284006 C4.05244755,3.47108745 4.2373183,3.446937 4.4185054,3.47302072 Z" id="Rectangle-12" fill="#D3DAE0" transform="translate(9.907125, 8.635816) rotate(-35.000000) translate(-9.907125, -8.635816) "></path>
                                    </g>
                                    <g id="Group-24-Copy-18" transform="translate(136.502920, 145.095296) rotate(-3.000000) translate(-136.502920, -145.095296) translate(127.002920, 135.595296)">
                                        <path d="M16.9230854,13.5846346 L16.1682025,14.6627191 C15.9607339,14.959015 15.6094324,15.1201789 15.249518,15.084177 L7.06299367,14.2652856 C6.70170377,14.2291461 6.38838992,14.0000112 6.24445457,13.6666659 L2.71725679,5.49789626 L3.84194395,3.89167654 L4.10964284,3.75898863 L4.20690668,3.92799724 L7.56739363,11.7614837 C7.67677751,12.0637911 7.77155828,12.2430153 7.85173594,12.2991563 C7.93191359,12.3552973 8.09828749,12.3950238 8.35085763,12.4183358 L16.1718707,13.180977 L16.9230854,13.5846346 Z" id="Rectangle-12-Copy" fill="#BCC5CD" transform="translate(9.820171, 9.424072) rotate(-35.000000) translate(-9.820171, -9.424072) "></path>
                                        <path d="M4.4185054,3.47302072 L12.1169299,4.58128705 C12.4434839,4.6282978 12.7258363,4.83335068 12.871578,5.12933527 L16.4354089,12.3670674 C16.6793795,12.8625437 16.4754939,13.4619839 15.9800175,13.7059545 C15.8132177,13.7880861 15.6268237,13.8220901 15.4417673,13.804148 L7.40341813,13.0247906 C7.03921086,12.9894789 6.72337262,12.7580641 6.57994379,12.4214308 L3.35603748,4.85478976 C3.13955678,4.34670064 3.37595211,3.75932075 3.88404123,3.54284006 C4.05244755,3.47108745 4.2373183,3.446937 4.4185054,3.47302072 Z" id="Rectangle-12" fill="#D3DAE0" transform="translate(9.907125, 8.635816) rotate(-35.000000) translate(-9.907125, -8.635816) "></path>
                                    </g>
                                    <g id="Group-24-Copy-10" transform="translate(137.984172, 131.984172) rotate(-3.000000) translate(-137.984172, -131.984172) translate(128.484172, 122.484172)">
                                        <path d="M16.9230854,13.5846346 L16.1682025,14.6627191 C15.9607339,14.959015 15.6094324,15.1201789 15.249518,15.084177 L7.06299367,14.2652856 C6.70170377,14.2291461 6.38838992,14.0000112 6.24445457,13.6666659 L2.71725679,5.49789626 L3.84194395,3.89167654 L4.10964284,3.75898863 L4.20690668,3.92799724 L7.56739363,11.7614837 C7.67677751,12.0637911 7.77155828,12.2430153 7.85173594,12.2991563 C7.93191359,12.3552973 8.09828749,12.3950238 8.35085763,12.4183358 L16.1718707,13.180977 L16.9230854,13.5846346 Z" id="Rectangle-12-Copy" fill="#BCC5CD" transform="translate(9.820171, 9.424072) rotate(-35.000000) translate(-9.820171, -9.424072) "></path>
                                        <path d="M4.4185054,3.47302072 L12.1169299,4.58128705 C12.4434839,4.6282978 12.7258363,4.83335068 12.871578,5.12933527 L16.4354089,12.3670674 C16.6793795,12.8625437 16.4754939,13.4619839 15.9800175,13.7059545 C15.8132177,13.7880861 15.6268237,13.8220901 15.4417673,13.804148 L7.40341813,13.0247906 C7.03921086,12.9894789 6.72337262,12.7580641 6.57994379,12.4214308 L3.35603748,4.85478976 C3.13955678,4.34670064 3.37595211,3.75932075 3.88404123,3.54284006 C4.05244755,3.47108745 4.2373183,3.446937 4.4185054,3.47302072 Z" id="Rectangle-12" fill="#D3DAE0" transform="translate(9.907125, 8.635816) rotate(-35.000000) translate(-9.907125, -8.635816) "></path>
                                    </g>
                                    <g id="Group-24-Copy-30" transform="translate(158.984172, 145.301450) rotate(-3.000000) translate(-158.984172, -145.301450) translate(149.484172, 135.801450)">
                                        <path d="M16.9230854,13.5846346 L16.1682025,14.6627191 C15.9607339,14.959015 15.6094324,15.1201789 15.249518,15.084177 L7.06299367,14.2652856 C6.70170377,14.2291461 6.38838992,14.0000112 6.24445457,13.6666659 L2.71725679,5.49789626 L3.84194395,3.89167654 L4.10964284,3.75898863 L4.20690668,3.92799724 L7.56739363,11.7614837 C7.67677751,12.0637911 7.77155828,12.2430153 7.85173594,12.2991563 C7.93191359,12.3552973 8.09828749,12.3950238 8.35085763,12.4183358 L16.1718707,13.180977 L16.9230854,13.5846346 Z" id="Rectangle-12-Copy" fill="#BCC5CD" transform="translate(9.820171, 9.424072) rotate(-35.000000) translate(-9.820171, -9.424072) "></path>
                                        <path d="M4.4185054,3.47302072 L12.1169299,4.58128705 C12.4434839,4.6282978 12.7258363,4.83335068 12.871578,5.12933527 L16.4354089,12.3670674 C16.6793795,12.8625437 16.4754939,13.4619839 15.9800175,13.7059545 C15.8132177,13.7880861 15.6268237,13.8220901 15.4417673,13.804148 L7.40341813,13.0247906 C7.03921086,12.9894789 6.72337262,12.7580641 6.57994379,12.4214308 L3.35603748,4.85478976 C3.13955678,4.34670064 3.37595211,3.75932075 3.88404123,3.54284006 C4.05244755,3.47108745 4.2373183,3.446937 4.4185054,3.47302072 Z" id="Rectangle-12" fill="#D3DAE0" transform="translate(9.907125, 8.635816) rotate(-35.000000) translate(-9.907125, -8.635816) "></path>
                                    </g>
                                    <g id="Group-24-Copy-20" transform="translate(55.000000, 204.000000)">
                                        <path d="M16.9230854,13.5846346 L16.1682025,14.6627191 C15.9607339,14.959015 15.6094324,15.1201789 15.249518,15.084177 L7.06299367,14.2652856 C6.70170377,14.2291461 6.38838992,14.0000112 6.24445457,13.6666659 L2.71725679,5.49789626 L3.84194395,3.89167654 L4.10964284,3.75898863 L4.20690668,3.92799724 L7.56739363,11.7614837 C7.67677751,12.0637911 7.77155828,12.2430153 7.85173594,12.2991563 C7.93191359,12.3552973 8.09828749,12.3950238 8.35085763,12.4183358 L16.1718707,13.180977 L16.9230854,13.5846346 Z" id="Rectangle-12-Copy" fill="#BCC5CD" transform="translate(9.820171, 9.424072) rotate(-35.000000) translate(-9.820171, -9.424072) "></path>
                                        <path d="M4.4185054,3.47302072 L12.1169299,4.58128705 C12.4434839,4.6282978 12.7258363,4.83335068 12.871578,5.12933527 L16.4354089,12.3670674 C16.6793795,12.8625437 16.4754939,13.4619839 15.9800175,13.7059545 C15.8132177,13.7880861 15.6268237,13.8220901 15.4417673,13.804148 L7.40341813,13.0247906 C7.03921086,12.9894789 6.72337262,12.7580641 6.57994379,12.4214308 L3.35603748,4.85478976 C3.13955678,4.34670064 3.37595211,3.75932075 3.88404123,3.54284006 C4.05244755,3.47108745 4.2373183,3.446937 4.4185054,3.47302072 Z" id="Rectangle-12" fill="#D3DAE0" transform="translate(9.907125, 8.635816) rotate(-35.000000) translate(-9.907125, -8.635816) "></path>
                                    </g>
                                    <g id="Group-24-Copy-21" transform="translate(66.000000, 198.317278)">
                                        <path d="M17.1992748,13.5105184 L16.4267001,14.59027 C16.2187837,14.8808544 15.871622,15.0384252 15.5160144,15.0036149 L7.16524975,14.1861611 C6.805953,14.1509897 6.49350737,13.9248897 6.34777335,13.5945978 L2.76201135,5.4678176 L3.90502139,3.8703448 L4.1770815,3.73837946 L4.27592992,3.9064677 L7.69116436,11.6972958 C7.80233028,11.9979569 7.89865517,12.1762051 7.98013905,12.2320404 C8.06162292,12.2878756 8.2307073,12.3273858 8.4873922,12.3505708 L16.4358216,13.109059 L17.1992748,13.5105184 Z" id="Rectangle-12-Copy" fill="#BCC5CD" transform="translate(9.980643, 9.373382) rotate(-35.000000) translate(-9.980643, -9.373382) "></path>
                                        <path d="M4.47198542,3.45251252 L12.3255475,4.55893038 C12.6502786,4.60467882 12.9319422,4.80673752 13.0793401,5.09968297 L16.6953511,12.2863143 C16.9435859,12.779668 16.7448778,13.3808444 16.2515241,13.6290792 C16.083444,13.7136501 15.8949141,13.749085 15.7075982,13.7313122 L7.51002057,12.9535165 C7.14781038,12.9191496 6.8328471,12.6907657 6.68760807,12.3571747 L3.41561253,4.84192128 C3.19514754,4.33554826 3.4269218,3.74632963 3.93329482,3.52586465 C4.10263875,3.45213558 4.28909349,3.42674651 4.47198542,3.45251252 Z" id="Rectangle-12" fill="#D3DAE0" transform="translate(10.067250, 8.589259) rotate(-35.000000) translate(-10.067250, -8.589259) "></path>
                                    </g>
                                    <g id="Group-24-Copy-22" transform="translate(86.483487, 201.291482) rotate(-3.000000) translate(-86.483487, -201.291482) translate(76.483487, 191.791482)">
                                        <path d="M17.1992748,13.5105184 L16.4267001,14.59027 C16.2187837,14.8808544 15.871622,15.0384252 15.5160144,15.0036149 L7.16524975,14.1861611 C6.805953,14.1509897 6.49350737,13.9248897 6.34777335,13.5945978 L2.76201135,5.4678176 L3.90502139,3.8703448 L4.1770815,3.73837946 L4.27592992,3.9064677 L7.69116436,11.6972958 C7.80233028,11.9979569 7.89865517,12.1762051 7.98013905,12.2320404 C8.06162292,12.2878756 8.2307073,12.3273858 8.4873922,12.3505708 L16.4358216,13.109059 L17.1992748,13.5105184 Z" id="Rectangle-12-Copy" fill="#BCC5CD" transform="translate(9.980643, 9.373382) rotate(-35.000000) translate(-9.980643, -9.373382) "></path>
                                        <path d="M4.47198542,3.45251252 L12.3255475,4.55893038 C12.6502786,4.60467882 12.9319422,4.80673752 13.0793401,5.09968297 L16.6953511,12.2863143 C16.9435859,12.779668 16.7448778,13.3808444 16.2515241,13.6290792 C16.083444,13.7136501 15.8949141,13.749085 15.7075982,13.7313122 L7.51002057,12.9535165 C7.14781038,12.9191496 6.8328471,12.6907657 6.68760807,12.3571747 L3.41561253,4.84192128 C3.19514754,4.33554826 3.4269218,3.74632963 3.93329482,3.52586465 C4.10263875,3.45213558 4.28909349,3.42674651 4.47198542,3.45251252 Z" id="Rectangle-12" fill="#D3DAE0" transform="translate(10.067250, 8.589259) rotate(-35.000000) translate(-10.067250, -8.589259) "></path>
                                    </g>
                                    <g id="Group-24-Copy-24" transform="translate(117.899563, 182.022051) rotate(-3.000000) translate(-117.899563, -182.022051) translate(86.899563, 157.022051)">
                                        <path d="M61.806909,32.7529333 C61.6956503,32.895338 61.5843915,33.0377428 61.4731327,33.1801476 L61.4731327,33.1801476 C61.2576679,33.4559299 60.9137082,33.5990049 60.5662182,33.5573919 L4.48371832,26.8413301 C4.13458028,26.7995197 3.83305829,26.577408 3.68961329,26.2563644 L0.0996650114,18.2217171 L1.24267505,16.6242443 L1.51473517,16.492279 L1.61358359,16.6603672 L5.02881803,24.4511953 C5.13998394,24.7518564 5.23630884,24.9301046 5.31779271,24.9859399 C5.39927658,25.0417752 5.56836097,25.0812853 5.82504586,25.1044704 L62.3821329,31.7998581 C62.1818845,32.2007126 61.9901432,32.5184043 61.806909,32.7529333 Z" id="Rectangle-12-Copy" fill="#BCC5CD" transform="translate(31.240899, 25.028390) rotate(-35.000000) translate(-31.240899, -25.028390) "></path>
                                        <path d="M1.78462099,16.1734611 L57.9786065,23.71781 C58.3097945,23.7622738 58.5968873,23.9692239 58.7437654,24.2693728 L61.9508063,30.8230357 C62.1935603,31.3191092 61.9882043,31.9180472 61.4921308,32.1608013 C61.319874,32.2450953 61.1270117,32.2780799 60.9365319,32.2558236 L4.81871858,25.6988301 C4.46505459,25.6575068 4.16004153,25.431244 4.01790296,25.1047743 L0.734689914,17.5637561 C0.514224927,17.057383 0.745999181,16.4681644 1.2523722,16.2476994 C1.41969115,16.174852 1.60375434,16.1491788 1.78462099,16.1734611 Z" id="Rectangle-12" fill="#D3DAE0" transform="translate(31.352059, 24.213575) rotate(-35.000000) translate(-31.352059, -24.213575) "></path>
                                    </g>
                                    <g id="Group-24-Copy-28" transform="translate(149.984172, 163.301450) rotate(-3.000000) translate(-149.984172, -163.301450) translate(140.484172, 153.801450)">
                                        <path d="M16.9230854,13.5846346 L16.1682025,14.6627191 C15.9607339,14.959015 15.6094324,15.1201789 15.249518,15.084177 L7.06299367,14.2652856 C6.70170377,14.2291461 6.38838992,14.0000112 6.24445457,13.6666659 L2.71725679,5.49789626 L3.84194395,3.89167654 L4.10964284,3.75898863 L4.20690668,3.92799724 L7.56739363,11.7614837 C7.67677751,12.0637911 7.77155828,12.2430153 7.85173594,12.2991563 C7.93191359,12.3552973 8.09828749,12.3950238 8.35085763,12.4183358 L16.1718707,13.180977 L16.9230854,13.5846346 Z" id="Rectangle-12-Copy" fill="#BCC5CD" transform="translate(9.820171, 9.424072) rotate(-35.000000) translate(-9.820171, -9.424072) "></path>
                                        <path d="M4.4185054,3.47302072 L12.1169299,4.58128705 C12.4434839,4.6282978 12.7258363,4.83335068 12.871578,5.12933527 L16.4354089,12.3670674 C16.6793795,12.8625437 16.4754939,13.4619839 15.9800175,13.7059545 C15.8132177,13.7880861 15.6268237,13.8220901 15.4417673,13.804148 L7.40341813,13.0247906 C7.03921086,12.9894789 6.72337262,12.7580641 6.57994379,12.4214308 L3.35603748,4.85478976 C3.13955678,4.34670064 3.37595211,3.75932075 3.88404123,3.54284006 C4.05244755,3.47108745 4.2373183,3.446937 4.4185054,3.47302072 Z" id="Rectangle-12" fill="#D3DAE0" transform="translate(9.907125, 8.635816) rotate(-35.000000) translate(-9.907125, -8.635816) "></path>
                                    </g>
                                    <g id="Group-24-Copy-29" transform="translate(159.984172, 157.301450) rotate(-3.000000) translate(-159.984172, -157.301450) translate(150.484172, 147.801450)">
                                        <path d="M16.9230854,13.5846346 L16.1682025,14.6627191 C15.9607339,14.959015 15.6094324,15.1201789 15.249518,15.084177 L7.06299367,14.2652856 C6.70170377,14.2291461 6.38838992,14.0000112 6.24445457,13.6666659 L2.71725679,5.49789626 L3.84194395,3.89167654 L4.10964284,3.75898863 L4.20690668,3.92799724 L7.56739363,11.7614837 C7.67677751,12.0637911 7.77155828,12.2430153 7.85173594,12.2991563 C7.93191359,12.3552973 8.09828749,12.3950238 8.35085763,12.4183358 L16.1718707,13.180977 L16.9230854,13.5846346 Z" id="Rectangle-12-Copy" fill="#BCC5CD" transform="translate(9.820171, 9.424072) rotate(-35.000000) translate(-9.820171, -9.424072) "></path>
                                        <path d="M4.4185054,3.47302072 L12.1169299,4.58128705 C12.4434839,4.6282978 12.7258363,4.83335068 12.871578,5.12933527 L16.4354089,12.3670674 C16.6793795,12.8625437 16.4754939,13.4619839 15.9800175,13.7059545 C15.8132177,13.7880861 15.6268237,13.8220901 15.4417673,13.804148 L7.40341813,13.0247906 C7.03921086,12.9894789 6.72337262,12.7580641 6.57994379,12.4214308 L3.35603748,4.85478976 C3.13955678,4.34670064 3.37595211,3.75932075 3.88404123,3.54284006 C4.05244755,3.47108745 4.2373183,3.446937 4.4185054,3.47302072 Z" id="Rectangle-12" fill="#D3DAE0" transform="translate(9.907125, 8.635816) rotate(-35.000000) translate(-9.907125, -8.635816) "></path>
                                    </g>
                                    <g id="Group-24-Copy-30" transform="translate(170.984172, 151.301450) rotate(-3.000000) translate(-170.984172, -151.301450) translate(161.484172, 141.801450)">
                                        <path d="M16.9230854,13.5846346 L16.1682025,14.6627191 C15.9607339,14.959015 15.6094324,15.1201789 15.249518,15.084177 L7.06299367,14.2652856 C6.70170377,14.2291461 6.38838992,14.0000112 6.24445457,13.6666659 L2.71725679,5.49789626 L3.84194395,3.89167654 L4.10964284,3.75898863 L4.20690668,3.92799724 L7.56739363,11.7614837 C7.67677751,12.0637911 7.77155828,12.2430153 7.85173594,12.2991563 C7.93191359,12.3552973 8.09828749,12.3950238 8.35085763,12.4183358 L16.1718707,13.180977 L16.9230854,13.5846346 Z" id="Rectangle-12-Copy" fill="#BCC5CD" transform="translate(9.820171, 9.424072) rotate(-35.000000) translate(-9.820171, -9.424072) "></path>
                                        <path d="M4.4185054,3.47302072 L12.1169299,4.58128705 C12.4434839,4.6282978 12.7258363,4.83335068 12.871578,5.12933527 L16.4354089,12.3670674 C16.6793795,12.8625437 16.4754939,13.4619839 15.9800175,13.7059545 C15.8132177,13.7880861 15.6268237,13.8220901 15.4417673,13.804148 L7.40341813,13.0247906 C7.03921086,12.9894789 6.72337262,12.7580641 6.57994379,12.4214308 L3.35603748,4.85478976 C3.13955678,4.34670064 3.37595211,3.75932075 3.88404123,3.54284006 C4.05244755,3.47108745 4.2373183,3.446937 4.4185054,3.47302072 Z" id="Rectangle-12" fill="#D3DAE0" transform="translate(9.907125, 8.635816) rotate(-35.000000) translate(-9.907125, -8.635816) "></path>
                                    </g>
                                    <g id="Group-24-Copy-19" transform="translate(147.502920, 139.095296) rotate(-3.000000) translate(-147.502920, -139.095296) translate(138.002920, 129.595296)">
                                        <path d="M16.9230854,13.5846346 L16.1682025,14.6627191 C15.9607339,14.959015 15.6094324,15.1201789 15.249518,15.084177 L7.06299367,14.2652856 C6.70170377,14.2291461 6.38838992,14.0000112 6.24445457,13.6666659 L2.71725679,5.49789626 L3.84194395,3.89167654 L4.10964284,3.75898863 L4.20690668,3.92799724 L7.56739363,11.7614837 C7.67677751,12.0637911 7.77155828,12.2430153 7.85173594,12.2991563 C7.93191359,12.3552973 8.09828749,12.3950238 8.35085763,12.4183358 L16.1718707,13.180977 L16.9230854,13.5846346 Z" id="Rectangle-12-Copy" fill="#BCC5CD" transform="translate(9.820171, 9.424072) rotate(-35.000000) translate(-9.820171, -9.424072) "></path>
                                        <path d="M4.4185054,3.47302072 L12.1169299,4.58128705 C12.4434839,4.6282978 12.7258363,4.83335068 12.871578,5.12933527 L16.4354089,12.3670674 C16.6793795,12.8625437 16.4754939,13.4619839 15.9800175,13.7059545 C15.8132177,13.7880861 15.6268237,13.8220901 15.4417673,13.804148 L7.40341813,13.0247906 C7.03921086,12.9894789 6.72337262,12.7580641 6.57994379,12.4214308 L3.35603748,4.85478976 C3.13955678,4.34670064 3.37595211,3.75932075 3.88404123,3.54284006 C4.05244755,3.47108745 4.2373183,3.446937 4.4185054,3.47302072 Z" id="Rectangle-12" fill="#D3DAE0" transform="translate(9.907125, 8.635816) rotate(-35.000000) translate(-9.907125, -8.635816) "></path>
                                    </g>
                                    <g id="Group-24" transform="translate(46.500000, 196.500000) rotate(-1.000000) translate(-46.500000, -196.500000) translate(30.000000, 182.000000)">
                                        <g id="Group-4" transform="translate(16.500000, 14.500000) rotate(-1.000000) translate(-16.500000, -14.500000) translate(1.000000, 1.000000)">
                                            <path d="M16.9230854,21.5846346 L16.1682025,22.6627191 C15.9607339,22.959015 15.6094324,23.1201789 15.249518,23.084177 L7.06299367,22.2652856 C6.70170377,22.2291461 6.38838992,22.0000112 6.24445457,21.6666659 L2.71725679,13.4978963 L3.84194395,11.8916765 L4.10964284,11.7589886 L4.20690668,11.9279972 L7.56739363,19.7614837 C7.67677751,20.0637911 7.77155828,20.2430153 7.85173594,20.2991563 C7.93191359,20.3552973 8.09828749,20.3950238 8.35085763,20.4183358 L16.1718707,21.180977 L16.9230854,21.5846346 Z" id="Rectangle-12-Copy" fill="#BCC5CD" transform="translate(9.820171, 17.424072) rotate(-35.000000) translate(-9.820171, -17.424072) "></path>
                                            <g id="Group-24-Copy" transform="translate(0.861616, 0.946665)"></g>
                                            <path d="M30.8764553,17.1987625 L30.1038807,18.2785142 C29.8959643,18.5690986 29.5488026,18.7266694 29.193195,18.6918591 L20.2722347,17.818589 C20.2646443,17.817846 20.2570626,17.8170162 20.2494912,17.8160997 L8.10004379,16.3454743 L8.93924434,14.6148752 L22.1645728,16.038815 L30.1130022,16.7973032 L30.8764553,17.1987625 Z" id="Rectangle-12-Copy" fill="#BCC5CD" transform="translate(19.488250, 16.655752) rotate(-35.000000) translate(-19.488250, -16.655752) "></path>
                                            <path d="M3.4728015,7.84396365 L23.9363503,10.2515653 C24.2700734,10.2908289 24.5617662,10.4950766 24.712799,10.7952463 L28.311857,17.9481844 C28.5600919,18.4415381 28.3613838,19.0427144 27.86803,19.2909493 C27.6966996,19.3771556 27.5041925,19.4122729 27.313459,19.3921148 L6.6613762,17.2094491 C6.31130813,17.1724513 6.00647651,16.9541181 5.85876956,16.6345885 L2.44824553,9.25671441 C2.21650637,8.75540073 2.4350397,8.16114399 2.93635338,7.92940483 C3.1038605,7.85197235 3.2895272,7.82240084 3.4728015,7.84396365 Z" id="Rectangle-12" fill="#D3DAE0" transform="translate(15.387246, 13.617384) rotate(-35.000000) translate(-15.387246, -13.617384) "></path>
                                        </g>
                                    </g>
                                </g>
                                <g id="Group-9" transform="translate(46.000000, 42.000000)">
                                    <g id="Group-10">
                                        <path d="M18.0017959,39.6987181 C35.9838611,25.107841 67.8810905,28.3904065 81.380468,45.5114999 C81.4527032,45.6031149 94.7581167,67.2381406 116.105227,79.1093685 C130.336633,87.0235205 150.04226,93.2194894 175.222107,97.6972752 C218.472513,73.0069013 240.131826,60.7087847 240.200047,60.8029252 C240.329068,60.980967 200.530102,54.8554152 177.646351,44.4292547 C154.762601,34.0030942 140.484685,17.7662083 139.08507,16.5966823 C120.358033,1.93157312 101.953501,-2.92214635 83.8714716,2.03552385 C83.3165176,2.18767928 80.8246677,3.18798515 80.265835,3.35091454 C79.8932799,3.45953414 61.5507065,13.8833343 25.2381147,34.6223151" id="Path-10" fill="url(#linearGradient-1)"></path>
                                        <path d="M0.644894856,94.5590293 L55.1372702,63.3182911 C55.9228871,51.4772941 60.1415655,42.0378638 67.7933056,35 C68.3350381,34.5017291 41.002491,22.7507392 20.6848524,37.5393967 C7.13976007,47.3985017 0.459774214,66.4050459 0.644894856,94.5590293 Z" id="Path-14" fill="url(#linearGradient-2)"></path>
                                        <g id="Group-8" transform="translate(63.000000, 4.000000)" stroke-linecap="round" stroke-linejoin="round" stroke-width="2">
                                            <path d="M0,24.4244409 C0,24.4244409 7.45023796,20.2829606 22.3507139,12" id="Path-16-Copy-2" stroke="#8FB6FF"></path>
                                            <path d="M32.7758824,53.3898034 L54.6826908,41.3259348" id="Path-16-Copy-5" stroke="#8FB6FF"></path>
                                            <path d="M27,9.56059722 L43.9993121,0" id="Path-16-Copy-4" stroke="#8FB6FF"></path>
                                            <path d="M60.7429827,38.4715507 L77.9993121,29" id="Path-16-Copy-6" stroke="#8FB6FF"></path>
                                            <path d="M13.3628174,25.0051941 L52.741458,3.45003432" id="Path-16-Copy-3" stroke="#0A0F5F"></path>
                                            <path d="M39.6811464,59.8268258 L78.7783718,38.3008576" id="Path-16-Copy-7" stroke="#0A0F5F"></path>
                                            <path d="M28.9100106,47.5937729 L68.1110594,26.2803643" id="Path-16-Copy-11" stroke="#0A0F5F"></path>
                                            <path d="M30.9258129,22.7832932 L61.2327793,6" id="Path-16" stroke="#8FB6FF"></path>
                                            <path d="M66.7144293,52.5083559 L98.33432,35.3547758" id="Path-16-Copy-8" stroke="#8FB6FF"></path>
                                            <path d="M52.840922,25.9849299 L73.8835348,14.354455" id="Path-16-Copy-4" stroke="#8FB6FF"></path>
                                            <path d="M84.5000636,58.1780014 L111.345781,44" id="Path-16-Copy-9" stroke="#8FB6FF"></path>
                                            <path d="M54.7145371,17.6312566 L68.6421393,10" id="Path-16-Copy" stroke="#0A0F5F"></path>
                                            <path d="M87.8304711,48.7168619 L104.387742,39.8342972" id="Path-16-Copy-10" stroke="#0A0F5F"></path>
                                        </g>
                                    </g>
                                </g>
                            </g>
                            <g id="Group-6" transform="translate(245.000000, 159.000000)">
                                <g id="Group-5">
                                    <g id="Group-7"></g>
                                </g>
                            </g>
                        </g>
                    </g>
                </g>
            </g>
        </g>
    </g>
</svg>