<?xml version="1.0" encoding="UTF-8"?>
<svg width="313px" height="199px" viewBox="0 0 313 199" version="1.1" xmlns="http://www.w3.org/2000/svg" xmlns:xlink="http://www.w3.org/1999/xlink">
    <!-- Generator: Sketch 48.2 (47327) - http://www.bohemiancoding.com/sketch -->
    <title>100% truth, 0% trust</title>
    <desc>Created with Sketch.</desc>
    <defs></defs>
    <g id="WEB-DESIGN-WITNET/new-header-sec-v." stroke="none" stroke-width="1" fill="none" fill-rule="evenodd" transform="translate(-250.000000, -2607.000000)">
        <g id="//BODY" transform="translate(-575.000000, 851.000000)">
            <g id="section1" transform="translate(719.000000, 0.000000)">
                <g id="conteiner5" transform="translate(6.000000, 1751.000000)">
                    <g id="ilustracja" transform="translate(100.000000, 4.000000)">
                        <g>
                            <g id="Group-3" transform="translate(0.000000, 33.366071)">
                                <g id="Group-2" transform="translate(13.344961, 100.735567)">
                                    <path d="M0.228986065,25.2482645 C0.306324391,24.0393798 1.366437,22.5133759 3.40932391,20.6702528 C5.45221081,18.8271298 7.46544769,17.9055683 9.44903453,17.9055683 C12.5947499,24.8427404 23.8307338,28.3113265 43.1569861,28.3113265 C62.4832384,28.3113265 73.8598481,24.4268997 77.2868152,16.658046 C80.8437596,17.4044531 83.1002898,18.0098973 84.0564059,18.4743786 C86.5219119,19.6721218 88.2179777,21.1444428 89.1446033,22.8913416 C78.9256451,33.6584384 64.1063755,39.0419868 44.6867947,39.0419868 C25.2672138,39.0419868 10.4479443,34.4440794 0.228986065,25.2482645 Z" id="Path-110" fill="#9257C6"></path>
                                    <path d="M43.0678295,29.1283566 C62.1633958,29.1283566 77.6434109,23.6945193 77.6434109,16.9915414 C77.6434109,15.7158967 78.008792,12.2450401 77.0014106,10.9686146 C72.7154248,5.53795892 59.0774741,2.78453455 43.6159875,2.78453455 C25.5008149,2.78453455 10.0211583,6.26073147 8.49224806,12.6768323 C8.40950339,13.0240719 8.49224806,16.6474009 8.49224806,16.9915414 C8.49224806,23.6945193 23.9722631,29.1283566 43.0678295,29.1283566 Z" id="Oval-9" fill="#844BB7"></path>
                                    <ellipse id="Oval-9" fill="#A168D3" cx="43.0678295" cy="12.1368153" rx="34.5755814" ry="12.1368153"></ellipse>
                                    <path d="M0,24.8409059 L0,46.4887273 C9.38049865,55.834424 23.7321316,60.5072724 43.0548989,60.5072724 C62.3776662,60.5072724 77.7217299,55.2316282 89.0870902,44.6803397 L89.0870902,23.059949 C78.440984,33.1097072 63.5931356,38.1345863 44.5435451,38.1345863 C25.4939545,38.1345863 10.6461061,33.7033595 0,24.8409059 Z" id="Path-109" fill="#A168D3"></path>
                                </g>
                                <g id="Group-4">
                                    <polygon id="Path-104" fill="#BCC5CD" points="0.757832984 61.4448444 177.635277 143.30025 312.736985 76.3323726 133.695515 1.27246783"></polygon>
                                    <polygon id="Path-106" fill="#D3DAE0" points="177.8198 140.227931 174.747022 131.694772 305.523278 69.2803399 308.32317 75.897308"></polygon>
                                    <path d="M89.1686047,91.3992999 C80.5483498,81.651017 71.3357252,74.5914733 61.530731,70.2206687 C51.7257368,65.8498642 33.5636914,60.7065112 7.04459489,54.7906098 L135.015761,0.603404389 C163.13344,5.05241472 181.327827,8.91397388 189.598923,12.1880819 C197.87002,15.4621898 206.868759,22.769097 216.59514,34.1088034 L89.1686047,91.3992999 Z" id="Path-108" fill="#E8EDF2"></path>
                                    <path d="M89.0159308,91.2043009 L217.203673,33.6925782 C233.062555,35.7984072 244.834459,38.3761503 252.519387,41.4258076 C260.204315,44.4754648 277.913283,53.5967986 305.646293,68.7898089 L175.03117,131.562173 C154.867663,117.17297 139.657979,107.572372 129.402117,102.760378 C119.146255,97.9483851 105.684193,94.0963592 89.0159308,91.2043009 Z" id="Path-107" fill="#E8EDF2"></path>
                                    <path d="M7.76709171,55.1199415 L4.05325014,61.034913 C52.5854309,80.3999267 78.9083013,91.2523931 83.0218613,93.5923121 C83.8485958,94.062584 84.3135511,94.4010415 84.4167274,94.6076845 C85.6983626,97.1745621 159.707807,125.934278 176.26703,138.712611 C176.63158,138.993926 176.968287,139.267494 177.275761,139.532868 C177.480744,139.709783 176.603756,137.197329 174.644799,131.995504 C154.456501,117.269051 138.663506,107.223566 127.265813,101.859049 C115.868121,96.4945329 103.080909,93.0882605 88.9041777,91.6402321 C80.3489078,81.9354909 71.0084273,74.804303 60.8827363,70.2466686 C50.7570453,65.6890341 33.0518304,60.6467918 7.76709171,55.1199415 Z" id="Path-105" fill="#D3DAE0"></path>
                                    <polygon id="Path-111" fill="#BCC5CD" points="89.1686047 91.5979526 87.818677 90.2988695 214.939532 31.7653544 217.876866 33.6505917 91.4820971 91.8363442"></polygon>
                                </g>
                            </g>
                            <g id="Group" transform="translate(138.910663, 55.008929)">
                                <path d="M31.0439549,62.4871279 C34.4716778,65.4429067 37.2521342,66.9207961 39.3853242,66.9207961 C47.4390789,66.9207961 54.0256429,58.1614998 54.5005146,45.2575756 C54.9753864,32.3536515 47.4390789,23.3509251 39.3853242,23.3509251 C36.9626504,23.3509251 34.6779622,24.2334993 32.6674677,25.7951665" id="Oval-11" fill="#DEE3E8" transform="translate(42.782890, 45.135861) rotate(-28.000000) translate(-42.782890, -45.135861) "></path>
                                <path d="M29.1786009,35.5453619 L30.6695865,34.9755729 C31.2573088,34.7509722 31.9164607,34.8160287 32.448936,35.1511898 C35.6078052,37.1395074 38.1580362,39.9798489 40.0996292,43.6722144 C42.01375,47.3123356 43.0172721,51.2464133 43.1101954,55.4744475 L43.1102084,55.4744472 C43.1281105,56.2890007 42.6501115,57.0329933 41.9018141,57.3552803 L40.7391133,57.8560481 C40.4021622,52.976073 39.2215876,48.5828309 37.1973896,44.6763217 C35.1731915,40.7698126 32.500262,37.7261593 29.1786009,35.5453619 Z" id="Path-98" fill="#BCC5CD"></path>
                                <path d="M83.0017045,42.4466495 C84.903145,42.4466495 89.090466,42.5653625 91.1668136,41.1154715 C93.2431612,39.6655805 99.5621065,31.5468471 99.8288034,22.5045641 C100.177926,10.6676637 91.8980517,3.676128 87.4809755,3.38937458 C83.0638993,3.10262116 81.6047984,2.80938021 79.4047794,3.16946364 C79.0496532,3.22758818 90.2416278,5.33274785 91.0880342,21.9178134 C91.7326012,34.5479003 81.2850753,42.4466495 83.0017045,42.4466495 Z" id="Oval-11" fill="#BCC5CD" transform="translate(89.618005, 22.725855) rotate(-28.000000) translate(-89.618005, -22.725855) "></path>
                                <path d="M39.0722779,57.7769202 C55.6850221,58.3579885 65.0579891,58.6485226 67.191179,58.6485226 C75.2449337,58.6485226 81.6228984,48.5426324 81.7737919,36.8635871 C81.9246854,25.1845418 77.0468055,17.0607556 68.9930508,17.0607556 C67.377935,17.0607556 57.0153056,16.1346494 37.9051627,14.282437 C46.996796,17.4474893 51.6626111,24.3106082 51.9026079,34.8717937 C52.1426048,45.4329792 47.8658281,53.0680214 39.0722779,57.7769202 Z" id="Oval-11-Copy" fill="#D3DAE0" transform="translate(59.841178, 36.465480) rotate(-28.000000) translate(-59.841178, -36.465480) "></path>
                                <path d="M170.709922,132.670234 C167.893138,133.765006 165.568233,135.193773 163.735207,136.956532 C161.902181,138.719291 160.546162,141.064134 159.667149,143.99106 C105.497225,95.8108508 78.412263,71.7207461 78.412263,71.7207461 C78.412263,71.7207461 78.3342499,67.8190484 82.3901905,64.1670316 C84.1961916,62.5408869 86.6552253,61.2861112 89.7672915,60.4027046 L170.709922,132.670234 Z" id="Path-112" fill="#DEE3E8"></path>
                                <path d="M9.85124225,35.6142611 L21.5116249,32.0039977 C21.8597564,31.8962096 22.2307227,31.8855926 22.5844491,31.9732938 C29.6769857,33.7317833 34.712102,38.2947098 37.689798,45.6620735 C40.6134221,52.8956534 41.3840887,60.0070294 40.0017978,66.9962016 L40.001801,66.9962023 C39.8854207,67.5846475 39.5110685,68.0897865 38.9819502,68.3723568 L28.0701627,74.1996869" id="Path-97" fill="#D3DAE0"></path>
                                <path d="M67.8333663,14.4229001 C69.9147366,10.4629188 72.8034159,8.75149337 76.4994044,9.28862373 C79.1340153,9.67150629 88.2402069,13.5483094 92.360003,25.2070216 C94.4393167,31.0913226 94.7296953,37.1083749 93.2311386,43.2581783 C88.3386468,45.9287409 84.7842523,46.6603664 82.5679549,45.4530551 C81.0912404,44.6486259 85.2138219,39.6569045 80.3389114,28.4075784 C77.7661977,22.4707936 73.5976827,17.8092341 67.8333663,14.4229001 Z" id="Path-99" fill="#D3DAE0"></path>
                                <path d="M82.8310036,37.7793282 C82.739382,34.2771086 81.6346539,30.5435228 79.5168194,26.5785707 C78.5308607,24.7326857 76.2849033,21.7846111 72.7789473,17.7343471 L74.0184797,17.0311272 C74.6486257,16.6736395 75.4228298,16.6848808 76.042331,17.0605131 C79.4557131,19.1302055 81.8619602,22.0867067 83.2610724,25.9300168 C84.543471,29.4527187 85.3103032,32.5151247 85.5615691,35.1172348 L85.5615874,35.117233 C85.6461809,35.9932832 85.1481421,36.8216743 84.3347478,37.1578434 L82.8310036,37.7793282 Z" id="Path-101" fill="#BCC5CD"></path>
                                <path d="M88.3533865,60.9023897 C85.7883994,61.8178035 83.9119921,62.864549 82.7241645,64.042626 C81.5363368,65.2207031 80.196228,67.1318927 78.7038379,69.7761949 C68.4291035,60.0734543 63.2917363,55.1273656 63.2917363,54.9379286 C63.2917363,54.8002673 63.5795649,51.5598273 66.4524217,48.4201926 C67.6081275,47.1571663 69.5398558,46.5256531 72.2476065,46.5256531 L88.3533865,60.9023897 Z" id="Path-103" fill="#BCC5CD"></path>
                                <ellipse id="Oval" fill="#BCC5CD" transform="translate(166.190422, 139.094857) rotate(47.000000) translate(-166.190422, -139.094857) " cx="166.190422" cy="139.094857" rx="3.03804435" ry="7.89621458"></ellipse>
                                <ellipse id="Oval-10" fill="#BCC5CD" transform="translate(18.541467, 55.273502) rotate(-23.000000) translate(-18.541467, -55.273502) " cx="18.5414665" cy="55.2735021" rx="10.9369597" ry="21.2590393"></ellipse>
                            </g>
                            <g id="Group-40" transform="translate(34.276657, 0.000000)">
                                <path d="M9.81727047,83.5138435 C7.80736376,97.1182559 6.52752452,106.547429 5.97775276,111.801362 C3.53966735,135.101098 5.22256993,143.181682 5.22256993,143.950739 C5.22256993,145.202159 6.64601746,145.854413 9.49291253,145.907504 C16.0220473,116.831729 20.5022908,101.515684 22.9336431,99.9593679 C26.5806715,97.6248945 30.5689025,131.708414 32.0101086,134.763816 C32.2809917,135.338096 33.2785559,135.988792 33.9539838,136.319556 C34.420706,136.548114 35.1748773,136.672771 36.2164977,136.693525 L37.8847262,75.75 C32.425006,79.4728832 27.8841444,81.650604 24.2621414,82.2831626 C20.6401383,82.9157212 15.8251814,83.3259481 9.81727047,83.5138435 Z" id="Path-113" fill="#0A0F5F"></path>
                                <path d="M15.6235703,145.744785 C15.9829529,145.998443 16.2090931,146.488751 16.301991,147.215708 C16.4626608,148.473003 17.0789156,150.398808 14.9233603,151.002492 C14.3168755,151.172344 11.9707082,151.25738 11.2128873,151.486545 C10.5682953,151.681469 7.12557905,152.934785 5.26301817,152.279195 C1.54659198,150.971074 2.8185687,149.155047 4.43343875,149.155047 C5.6205334,149.155047 6.70960991,148.917644 9.01941987,148.002073 C9.57595457,147.781472 10.2234145,147.164863 10.9617996,146.152245 C11.7321571,146.450983 12.5556599,146.506794 13.432308,146.319678 C14.3089561,146.132563 15.0393768,145.940932 15.6235703,145.744785 Z" id="Path-5-Copy-3" fill="#BCC5CD" transform="translate(9.676291, 149.106035) scale(-1, 1) rotate(-20.000000) translate(-9.676291, -149.106035) "></path>
                                <path d="M42.3805011,136.499 C42.7398837,136.752658 42.9660239,137.242966 43.0589218,137.969923 C43.2195916,139.227218 43.8358464,141.153023 41.6802911,141.756707 C41.0738063,141.926559 38.727639,142.011595 37.9698181,142.240759 C37.3252261,142.435684 33.8825098,143.689 32.019949,143.03341 C28.3035228,141.725289 29.5754995,139.909262 31.1903695,139.909262 C32.3774642,139.909262 33.4665407,139.671859 35.7763507,138.756288 C36.3328854,138.535687 36.9803453,137.919078 37.7187304,136.90646 C38.4890879,137.205198 39.3125907,137.261009 40.1892388,137.073893 C41.0658869,136.886778 41.7963076,136.695147 42.3805011,136.499 Z" id="Path-5-Copy-3" fill="#BCC5CD" transform="translate(36.433222, 139.860250) scale(-1, 1) rotate(-20.000000) translate(-36.433222, -139.860250) "></path>
                                <path d="M25.5812614,30.576084 C26.8247862,27.7364565 30.7345275,26.9081126 35.757267,27.840585 C39.10576,28.4622333 41.6483392,28.4622333 43.3850048,27.840585 L43.8794379,9.01785714 L48.8348386,9.01785714 C50.7808633,23.7849682 51.0343734,31.7887662 49.5953688,33.029251 C47.436862,34.8899783 35.2204712,39.3859837 30.9983482,38.7077242 C26.7762251,38.0294647 24.3377367,33.4157114 25.5812614,30.576084 Z" id="Path-116" fill="#4E90FF"></path>
                                <path d="M9.04434158,23.7684712 C8.00332055,20.3373595 5.48380741,5.49909613 18.0593765,6.34746687 C26.4430892,6.91304736 28.4028678,13.5648124 23.9387125,26.302762 C26.1094979,31.4479884 27.148172,34.2227408 27.054735,34.6270193 C26.03258,39.0496235 17.5013695,42.0830115 13.8729927,41.3812108 C11.2404338,40.8720212 11.6694448,38.0060647 11.830065,36.9679892 C11.9371452,36.2759389 12.9876547,33.3156485 14.9815936,28.0871178 C11.7174396,27.4954279 9.7383556,26.055879 9.04434158,23.7684712 Z" id="Path-23" fill="#D3DAE0" transform="translate(17.589337, 23.897321) scale(-1, 1) rotate(11.000000) translate(-17.589337, -23.897321) "></path>
                                <path d="M39.7221996,24.8417279 C39.5463474,24.7675266 40.0640902,23.9455496 41.2754282,22.3757971 C43.0924351,20.0211682 47.5042832,19.9785328 45.4848796,23.7823504 C44.1386105,26.3182287 43.5165406,27.3797312 43.6186698,26.9668579 L39.7221996,24.8417279 Z" id="Path-2" fill="#D3DAE0"></path>
                                <path d="M43.3057062,7.67353976 C43.22013,7.44126605 43.7533353,6.55132091 44.9053222,5.00370435 C46.6333026,2.6822795 50.0618463,3.20352074 48.1413859,6.95369841 C46.861079,9.45381685 46.3769667,10.3733446 46.6890492,9.71228168 L43.3057062,7.67353976 Z" id="Path-2-Copy" fill="#D3DAE0" transform="translate(46.002882, 6.763393) rotate(-31.000000) translate(-46.002882, -6.763393) "></path>
                                <path d="M16.3242177,8.8864754 C17.9847267,8.8864754 19.5067305,9.39075768 19.394473,13.281999 C19.2822155,17.1732403 21.6825408,20.2266322 24.3032437,19.7993048 C26.9239466,19.3719774 27.9650333,15.835625 26.1478221,10.2108251 C24.330611,4.58602512 18.1418776,3.39902671 14.6637087,4.34793146 C11.1855398,5.29683622 2.70605187,-0.068762896 2.70605187,8.8864754 C2.70605187,17.8417137 14.6637087,8.8864754 16.3242177,8.8864754 Z" id="Path-30" fill="#0A0F5F" transform="translate(14.883285, 11.723214) scale(-1, 1) rotate(18.000000) translate(-14.883285, -11.723214) "></path>
                                <path d="M9.88863691,35.3612928 C3.47703402,40.532057 1.35796488,45.5747832 3.5314295,50.4894714 C6.79162643,57.8615038 11.4174291,61.468404 10.8140666,66.5708997 C10.2107041,71.6733955 7.16254125,84.7060433 9.39733121,86.1260814 C10.6946693,86.9504406 17.9472548,86.675437 24.7832911,84.9219065 C29.7229863,83.6548117 34.4095583,81.3422203 36.64428,79.4176139 C40.1958462,76.3589031 39.3318334,64.2590793 34.0522417,43.1181426 C31.7329028,32.8249232 29.7071442,27.7723487 27.9749659,27.9604191 C26.2427876,28.1484895 24.3466775,28.9049359 22.2866356,30.2297584 C25.4961602,34.9827514 25.6816949,37.9891197 22.8432396,39.2488633 C20.0047843,40.5086068 15.6865834,39.21275 9.88863691,35.3612928 Z" id="Path-114" fill="#5A98FF"></path>
                                <path d="M12.1106975,40.9124073 C10.4867629,40.3803856 6.46233875,36.973067 3.0949224,40.3803856 C-0.272493956,43.7877043 0.819003022,47.8961213 2.52079398,49.6642381 C4.22258494,51.4323548 7.66635083,52.7244783 17.5355329,52.1760943 C27.4047149,51.6277104 32.4165342,45.3029496 34.4725723,42.8416676 C35.8432644,41.200813 39.085356,35.7425661 44.1988473,26.4669269 L38.5838943,23.4464286 C31.2764401,35.0904144 26.7276151,41.3528664 24.9374194,42.2337845 C22.2521259,43.5551617 13.734632,41.444429 12.1106975,40.9124073 Z" id="Path-115" fill="#3D83F9"></path>
                            </g>
                        </g>
                    </g>
                </g>
            </g>
        </g>
    </g>
</svg>