<?xml version="1.0" encoding="UTF-8" standalone="no"?>
<!-- Generator: Adobe Illustrator 25.4.1, SVG Export Plug-In . SVG Version: 6.00 Build 0)  -->

<svg
   version="1.1"
   id="Layer_1"
   x="0px"
   y="0px"
   viewBox="0 0 295.63177 75.000004"
   xml:space="preserve"
   sodipodi:docname="metis.svg"
   width="7.8219237cm"
   height="1.984375cm"
   inkscape:version="1.1 (c4e8f9ed74, 2021-05-24)"
   xmlns:inkscape="http://www.inkscape.org/namespaces/inkscape"
   xmlns:sodipodi="http://sodipodi.sourceforge.net/DTD/sodipodi-0.dtd"
   xmlns="http://www.w3.org/2000/svg"
   xmlns:svg="http://www.w3.org/2000/svg"><defs
   id="defs25"><clipPath
   clipPathUnits="userSpaceOnUse"
   id="clipPath67375"><rect
     style="fill:#ffffff;fill-opacity:1;stroke-width:1.62938;stroke-linecap:square;stroke-linejoin:round"
     id="rect67377"
     width="1133.8583"
     height="1700.7874"
     x="0"
     y="-1700.7874"
     transform="scale(1,-1)" /></clipPath>
	
	
</defs><sodipodi:namedview
   id="namedview23"
   pagecolor="#ffffff"
   bordercolor="#666666"
   borderopacity="1.0"
   inkscape:pageshadow="2"
   inkscape:pageopacity="0.0"
   inkscape:pagecheckerboard="0"
   showgrid="false"
   units="cm"
   width="30cm"
   inkscape:snap-page="true"
   inkscape:snap-bbox="true"
   inkscape:bbox-paths="true"
   inkscape:bbox-nodes="true"
   inkscape:zoom="1.3134132"
   inkscape:cx="384.11369"
   inkscape:cy="247.06619"
   inkscape:window-width="2560"
   inkscape:window-height="1381"
   inkscape:window-x="0"
   inkscape:window-y="0"
   inkscape:window-maximized="1"
   inkscape:current-layer="Layer_1"
   inkscape:document-units="cm"
   inkscape:snap-global="false"
   fit-margin-top="0"
   fit-margin-left="0"
   fit-margin-right="0"
   fit-margin-bottom="0" />
<style
   type="text/css"
   id="style2">
	.st0{fill:#FFFFFF;stroke:#000000;stroke-miterlimit:10;}
	.st1{fill:#002033;}
	.st2{fill:#00DACC;}
</style>

<g
   id="BG"
   transform="translate(1084.4489,-868.55746)">
</g>
<g
   id="g26888"
   transform="matrix(0.51756647,0,0,0.51756647,561.27439,-449.53622)"
   style="stroke-width:1.93212"><path
     class="st2"
     d="m -1011.0127,868.55747 c -40.547,0 -73.4362,32.8892 -73.4362,73.43618 0,29.20759 17.0336,54.439 41.7742,66.26925 0.9326,-1.5217 1.7671,-2.6999 2.5527,-3.5343 4.4178,-4.7125 8.0995,-15.41377 9.3266,-19.04633 0.049,-0.0491 0.098,-0.0982 0.098,-0.14722 0.049,-0.24547 0.098,-0.53998 0.1964,-0.78544 0.048,-0.14729 0.098,-0.24547 0.098,-0.24547 v 0 c 0.8834,-3.43614 1.7671,-6.82324 2.8961,-10.11216 1.129,1.32536 6.1852,0.24541 7.216,0.0491 3.289,-0.68725 8.4923,-2.45443 10.5541,-5.30156 1.9145,-2.69986 -0.982,-2.99437 -3.1417,-2.65076 -4.7125,0.88361 -9.3759,3.58346 -13.5976,5.84153 0,-0.0982 -0.049,-0.24547 -0.098,-0.39274 1.2272,-3.48524 2.6017,-6.87234 4.1233,-10.21035 6.7743,0.88357 14.1866,0.24542 19.2918,-4.66341 0.4909,-0.4909 -0.098,-1.27627 -0.6381,-1.17814 -5.8415,0.68724 -11.9776,1.66902 -17.5736,3.73075 1.1289,-2.25806 2.3562,-4.46704 3.7307,-6.67602 0.8836,-1.47268 1.7672,-2.79803 2.7488,-4.12345 7.6088,0.88363 15.21747,-1.52172 21.2553,-6.18512 0.58906,-0.49089 0.14728,-1.2272 -0.49087,-1.27629 -6.38143,-0.0981 -12.81193,1.22721 -18.45703,4.27068 2.6997,-3.53435 5.596,-6.87237 8.7376,-10.01402 6.92139,1.37447 14.57916,-0.58906 20.42071,-4.41796 0.73628,-0.49087 0.14727,-1.37447 -0.53998,-1.37447 -5.64517,-0.0491 -11.48665,0.78541 -16.83733,2.84712 1.86539,-1.76717 10.35768,-6.57783 12.3212,-7.65777 3.97617,-2.25806 7.75596,-4.71248 11.04487,-7.85413 0.58908,-0.53997 0.19637,-1.37447 -0.68725,-1.27631 -9.76856,1.03086 -21.94242,13.59747 -23.75872,15.26648 4.07431,-5.25246 7.51051,-11.19214 8.54135,-17.81907 0.0981,-0.73632 -0.73634,-0.98175 -1.22721,-0.53997 -5.69424,5.69426 -10.50474,13.49928 -11.43754,21.64796 0,0.19636 0.048,0.39271 0.1963,0.49087 -2.6998,2.74896 -5.2033,5.69425 -7.6086,8.83592 2.3072,-5.98878 3.0435,-12.46845 2.2091,-18.89903 -0.049,-0.49087 -0.6873,-0.88357 -1.1292,-0.49087 -2.8962,2.40533 -3.5343,5.79242 -3.878,9.47405 -0.3927,4.27069 -0.3927,8.54138 0.048,12.81206 0,0.19637 0.098,0.44178 0.2456,0.53996 -0.049,0.0491 -0.049,0.14727 -0.098,0.19637 -0.048,0.0982 -0.1475,0.19633 -0.1965,0.34362 -0.1472,0.0981 -0.1963,0.19637 -0.2454,0.39268 -1.7672,2.69989 -3.4361,5.44885 -4.9579,8.24684 0.3436,-3.33796 0.1963,-6.77416 -0.2455,-10.06308 -0.1963,-1.27631 -0.589,-7.80506 -2.9452,-7.41235 -2.5527,0.39271 -1.62,6.28332 -1.5709,7.80505 0.1473,4.85973 0.8836,9.57225 2.1109,14.23561 0.049,0.19637 0.1471,0.34365 0.3436,0.44179 -1.3255,2.94531 -2.5526,5.93973 -3.5345,8.98318 -0.3926,-3.14165 -1.9145,-6.38147 -3.289,-8.93408 -0.7361,-1.37447 -2.798,-6.18511 -5.056,-5.59608 -2.5526,0.68724 0.098,6.03791 0.6382,7.26507 1.5217,3.53439 3.8288,7.31419 6.9214,9.57227 -1.1781,3.92706 -2.1107,7.90323 -2.6507,11.87935 -1.5709,-0.3436 -5.449,-1.47264 -9.5722,-4.71246 -4.9579,-0.88357 -7.6088,-3.53438 -9.5724,-9.17952 -0.6381,-1.86537 -1.4725,-3.77984 -2.356,-5.54697 -0.2455,-0.53998 -2.4055,-0.19637 -2.2581,-1.57088 -0.1964,1.7672 -1.2764,0.0982 -2.3073,-2.15988 -0.7363,-1.66901 -1.1289,-3.19074 -1.2763,-4.61429 -0.1473,-2.01264 -0.9818,-3.23982 -2.8471,-3.97615 -3.7797,-1.57083 -5.3997,-4.61433 -5.7924,-8.44321 -0.098,-0.78541 -0.1963,-1.669 -0.2454,-2.45441 -0.2455,0 -0.4909,0.0491 -0.7364,0.0491 0,2.11081 -1.7671,-1.03085 0.5891,-4.61431 0.5892,-0.88358 0.8837,-1.91444 1.2763,-2.8962 -0.1964,-0.14727 -0.4909,-0.39272 -0.6871,-0.53998 -1.1783,0.58906 -1.1291,-0.49088 0.3436,-1.47264 -1.8164,-6.3324 2.258,-10.21038 6.9705,-14.03927 -0.9328,-0.3927 -1.4727,-0.58905 -2.4054,-0.98177 1.3744,-0.34362 2.3071,-0.58905 3.2398,-0.73633 0.1964,-0.0491 0.491,-0.0491 0.6872,0 0.1473,-1.03085 0.6874,-2.15987 1.8654,-3.53435 0.9326,-1.12904 2.16,-1.37448 3.4853,-1.2763 0.1963,-1.47265 0.6382,-2.79802 2.6509,-2.79802 3.4361,-0.0491 5.2033,-2.25807 7.2649,-4.41797 1.7673,-1.91444 3.78,-3.7798 5.7435,-5.4979 1.0307,-0.88359 2.4543,-1.27629 3.387,-2.20897 4.6633,-4.61431 10.8485,-6.38149 16.9354,-7.36325 4.0745,-0.68724 8.6396,0.58906 12.9104,1.37447 0.6381,0.0981 1.2272,0.24544 1.7671,0.49088 9.57216,0.53998 21.89335,2.15989 25.23136,6.92147 5.69428,8.19774 4.85975,9.71948 4.85975,9.71948 l 7.36327,12.56663 c 0,0 -2.74896,6.43056 -1.61992,8.83589 1.12904,2.30716 5.74332,6.82328 5.74332,6.82328 0,0 6.82329,5.00701 6.82329,5.25247 0,0.24543 0.24547,1.47264 -1.3745,2.89621 -1.66895,1.37448 -4.85974,3.14163 -4.85974,3.14163 0,0 0.14728,1.07993 0.53998,1.86538 0.44184,0.88357 1.47268,2.11078 1.12903,3.23982 -0.3927,1.12904 -2.69985,2.01265 -2.06169,3.23982 0.63814,1.27632 2.25806,1.66901 1.76718,2.79805 -0.49088,1.12902 -2.79803,2.99441 -2.60167,3.87798 0.19633,0.88362 1.86534,8.63954 -2.35625,9.91585 -4.31978,1.2763 -18.45726,1.57082 -18.45726,1.57082 0,0 -2.89617,2.01266 -3.82888,7.46145 -0.93266,5.4979 -6.62693,18.01547 -6.62693,18.01547 0,0 -4.0743,7.80502 -3.43614,9.57232 0.6381,1.7671 1.81622,2.6998 3.23981,3.927 0.0981,0.098 0.24542,0.1964 0.44179,0.3927 31.41656,-8.345 54.58625,-36.9636 54.58625,-70.93275 -0.44177,-41.08694 -33.33101,-73.97614 -73.87795,-73.97614 z"
     id="path19"
     style="fill:#00dacc;fill-opacity:1;stroke-width:4.04358" /><g
     id="g17"
     style="fill:#000000;fill-opacity:1;stroke-width:4.44378"
     transform="matrix(0.90994143,0,0,0.90994143,-921.72582,579.30862)">
		<path
   class="st1"
   d="M 41.2,365.3 H 56.1 L 72.5,391.8 89,365.3 h 14.9 v 62.8 H 90.2 v -41 L 72.5,414 H 72.2 L 54.8,387.5 v 40.7 H 41.2 Z"
   id="path7"
   style="fill:#000000;fill-opacity:1;stroke-width:4.44378" />
		<path
   class="st1"
   d="m 153.1,365.3 h 47.3 v 12.3 h -33.6 v 12.7 h 29.6 v 12.4 h -29.6 v 13.1 h 34.1 v 12.3 h -47.8 z"
   id="path9"
   style="fill:#000000;fill-opacity:1;stroke-width:4.44378" />
		<path
   class="st1"
   d="m 261.8,378.2 h -19.1 v -12.7 h 51.9 v 12.7 h -19.1 v 50 h -13.8 v -50 z"
   id="path11"
   style="fill:#000000;fill-opacity:1;stroke-width:4.44378" />
		<path
   class="st1"
   d="m 339.9,365.3 h 13.8 v 62.8 h -13.8 z"
   id="path13"
   style="fill:#000000;fill-opacity:1;stroke-width:4.44378" />
		<path
   class="st1"
   d="m 399.2,418.9 8.1,-9.8 c 5.7,4.7 11.6,7.7 18.7,7.7 5.7,0 9.1,-2.2 9.1,-5.9 v -0.2 c 0,-3.5 -2.2,-5.4 -12.6,-8 -12.7,-3.2 -20.8,-6.8 -20.8,-19.2 v -0.2 c 0,-11.4 9.1,-19 21.9,-19 9.2,0 16.9,2.8 23.3,8 l -7.1,10.4 c -5.7,-3.8 -11,-6.1 -16.3,-6.1 -5.3,0 -8.1,2.3 -8.1,5.5 v 0.2 c 0,4.2 2.7,5.4 13.6,8.2 12.7,3.4 19.9,7.9 19.9,18.8 v 0.2 c 0,12.5 -9.5,19.4 -23,19.4 -9.7,0.1 -19.2,-3.1 -26.7,-10 z"
   id="path15"
   style="fill:#000000;fill-opacity:1;stroke-width:4.44378" />
	</g></g>
</svg>
