<?xml version="1.0" encoding="UTF-8" standalone="no"?>
<svg
   width="79.093491"
   height="75"
   viewBox="0 0 79.093491 75"
   fill="none"
   version="1.1"
   id="svg5859"
   sodipodi:docname="aragon.svg"
   inkscape:version="1.1 (c4e8f9ed74, 2021-05-24)"
   xmlns:inkscape="http://www.inkscape.org/namespaces/inkscape"
   xmlns:sodipodi="http://sodipodi.sourceforge.net/DTD/sodipodi-0.dtd"
   xmlns="http://www.w3.org/2000/svg"
   xmlns:svg="http://www.w3.org/2000/svg">
  <sodipodi:namedview
     id="namedview5861"
     pagecolor="#ffffff"
     bordercolor="#666666"
     borderopacity="1.0"
     inkscape:pageshadow="2"
     inkscape:pageopacity="0.0"
     inkscape:pagecheckerboard="0"
     showgrid="false"
     fit-margin-top="0"
     fit-margin-left="0"
     fit-margin-right="0"
     fit-margin-bottom="0"
     inkscape:zoom="13.640625"
     inkscape:cx="26.061856"
     inkscape:cy="21.223368"
     inkscape:window-width="2560"
     inkscape:window-height="1381"
     inkscape:window-x="0"
     inkscape:window-y="0"
     inkscape:window-maximized="1"
     inkscape:current-layer="svg5859" />
  <circle
     cx="27.68799"
     cy="21.241219"
     r="32"
     fill="url(#paint0_linear)"
     fill-opacity="0.05"
     id="circle5829"
     style="fill:url(#paint0_linear)" />
  <path
     d="M 77.722096,28.207558 C 78.049531,21.407226 73.299948,16.895991 67.939741,13.798777 l -3.48409,20.468402 c 2.412108,-0.134662 3.591318,0.781125 4.020081,1.211953 0.535991,0.538646 1.876117,2.154585 0.267996,4.713153 3.350166,-0.538646 8.582791,-3.770522 8.978368,-11.984727 z"
     fill="url(#paint1_linear)"
     id="path5831"
     style="fill:url(#paint1_linear);stroke-width:1" />
  <path
     fill-rule="evenodd"
     clip-rule="evenodd"
     d="M 32.018894,4.3771909 27.864741,0.20268389 c 6.253574,-0.762984 22.75396,0.215488 38.727205,10.23427511 0.267996,1.077292 0,2.69323 0,2.69323 l 1.339978,0.673307 c 1.161363,1.660924 3.13571,6.382927 1.742045,11.984875 -1.393666,5.601948 -3.796776,7.989867 -4.824068,8.483675 -2.144112,0 -5.78897,1.238945 -6.968328,6.733076 -1.17921,5.49413 -3.439399,6.688237 -4.422,6.598414 L 29.874782,47.872859 14.3303,38.715876 12.052264,19.728603 16.474413,13.803496 24.380651,7.3397439 30.008853,5.0504979 Z M 59.87362,12.220597 c -1.039976,1.083339 -2.012401,1.602958 -2.290131,1.743962 -6.072747,-1.291747 -8.260665,-4.4335051 -8.260665,-4.4335051 5.728203,-0.0354 10.89829,1.3271461 14.680907,3.6318781 0,0 -2.047651,-0.663573 -4.130111,-0.942335 z"
     fill="url(#paint2_linear)"
     id="path5833"
     style="fill:url(#paint2_linear);stroke-width:1" />
  <path
     fill-rule="evenodd"
     clip-rule="evenodd"
     d="m 57.674345,41.006449 c -4.16315,2.043079 -9.09887,3.225829 -14.391082,3.225829 -14.875599,0 -26.93481,-9.345037 -26.93481,-20.872534 0,-8.515386 6.58042,-15.8399111 16.015575,-19.0862411 C 14.419829,5.3072839 0,19.722703 0,37.509822 0,58.038106 18.298611,75 40.871302,75 57.726705,75 71.757314,65.227527 79.09349,52.152528 68.999186,54.4226 57.04971,50.106647 57.674345,41.006449 Z"
     fill="url(#paint3_linear)"
     id="path5835"
     style="fill:url(#paint3_linear);stroke-width:1" />
  <defs
     id="defs5857">
    <linearGradient
       id="paint0_linear"
       x1="32"
       y1="22.3944"
       x2="32"
       y2="64.8414"
       gradientUnits="userSpaceOnUse"
       gradientTransform="translate(-4.31201,-10.758781)">
      <stop
         stop-color="#01E8F8"
         id="stop5837" />
      <stop
         offset="1"
         stop-color="#01E8F8"
         stop-opacity="0"
         id="stop5839" />
    </linearGradient>
    <linearGradient
       id="paint1_linear"
       x1="52.553902"
       y1="24.110001"
       x2="53.978802"
       y2="41.0812"
       gradientUnits="userSpaceOnUse"
       gradientTransform="matrix(1.4749344,0,0,1.4749344,-6.3599319,-15.868497)">
      <stop
         stop-color="#01E8F7"
         id="stop5842" />
      <stop
         offset="1"
         stop-color="#00C2FF"
         id="stop5844" />
    </linearGradient>
    <linearGradient
       id="paint2_linear"
       x1="25.229099"
       y1="14.2398"
       x2="41.7141"
       y2="40.4034"
       gradientUnits="userSpaceOnUse"
       gradientTransform="matrix(1.4749344,0,0,1.4749344,-6.3599319,-15.868497)">
      <stop
         stop-color="#01E8F7"
         id="stop5847" />
      <stop
         offset="1"
         stop-color="#00B3EC"
         id="stop5849" />
    </linearGradient>
    <linearGradient
       id="paint3_linear"
       x1="31.353901"
       y1="27.219101"
       x2="32.825699"
       y2="69.431396"
       gradientUnits="userSpaceOnUse"
       gradientTransform="matrix(1.4749344,0,0,1.4749344,-6.3599319,-15.868497)">
      <stop
         stop-color="#01E8F7"
         id="stop5852" />
      <stop
         offset="1"
         stop-color="#00C2FF"
         id="stop5854" />
    </linearGradient>
  </defs>
</svg>
