<?xml version="1.0" encoding="UTF-8" standalone="no"?>
<!-- Created with Inkscape (http://www.inkscape.org/) -->

<svg
   width="23.278427mm"
   height="19.84376mm"
   viewBox="0 0 23.278427 19.84376"
   version="1.1"
   id="svg9612"
   sodipodi:docname="rivex.svg"
   inkscape:version="1.1 (c4e8f9ed74, 2021-05-24)"
   xmlns:inkscape="http://www.inkscape.org/namespaces/inkscape"
   xmlns:sodipodi="http://sodipodi.sourceforge.net/DTD/sodipodi-0.dtd"
   xmlns:xlink="http://www.w3.org/1999/xlink"
   xmlns="http://www.w3.org/2000/svg"
   xmlns:svg="http://www.w3.org/2000/svg">
  <sodipodi:namedview
     id="namedview9614"
     pagecolor="#ffffff"
     bordercolor="#666666"
     borderopacity="1.0"
     inkscape:pageshadow="2"
     inkscape:pageopacity="0.0"
     inkscape:pagecheckerboard="0"
     inkscape:document-units="mm"
     showgrid="false"
     inkscape:zoom="4.3994184"
     inkscape:cx="-0.34095416"
     inkscape:cy="130.13084"
     inkscape:window-width="2560"
     inkscape:window-height="1381"
     inkscape:window-x="0"
     inkscape:window-y="0"
     inkscape:window-maximized="1"
     inkscape:current-layer="g10034"
     fit-margin-top="0"
     fit-margin-left="0"
     fit-margin-right="0"
     fit-margin-bottom="0" />
  <defs
     id="defs9609">
    <linearGradient
       inkscape:collect="always"
       id="linearGradient26429">
      <stop
         style="stop-color:#36fafa;stop-opacity:1;"
         offset="0"
         id="stop26423" />
      <stop
         style="stop-color:#8a5afc;stop-opacity:1"
         offset="0.5"
         id="stop26425" />
      <stop
         style="stop-color:#19192a;stop-opacity:0.97647059"
         offset="1"
         id="stop26427" />
    </linearGradient>
    <linearGradient
       inkscape:collect="always"
       id="linearGradient12433">
      <stop
         style="stop-color:#36fafa;stop-opacity:1;"
         offset="0"
         id="stop12429" />
      <stop
         style="stop-color:#8a5afc;stop-opacity:1"
         offset="0.5"
         id="stop20792" />
      <stop
         style="stop-color:#19192a;stop-opacity:0.97647059"
         offset="1"
         id="stop12431" />
    </linearGradient>
    <linearGradient
       inkscape:collect="always"
       xlink:href="#linearGradient12433"
       id="linearGradient12435"
       x1="10.885756"
       y1="122.91211"
       x2="55.600346"
       y2="122.91211"
       gradientUnits="userSpaceOnUse" />
    <linearGradient
       inkscape:collect="always"
       xlink:href="#linearGradient26429"
       id="linearGradient26421"
       gradientUnits="userSpaceOnUse"
       x1="10.885756"
       y1="103.85403"
       x2="55.775372"
       y2="142.22617"
       gradientTransform="matrix(0.52060033,0,0,0.52060033,5.2185723,49.787385)" />
  </defs>
  <g
     inkscape:label="Layer 1"
     inkscape:groupmode="layer"
     id="layer1"
     transform="translate(-10.88564,-103.85361)">
    <g
       id="g10034"
       style="fill:url(#linearGradient12435);fill-opacity:1">
      <path
         id="path9703"
         style="fill:url(#linearGradient26421);fill-opacity:1;stroke-width:1"
         d="m 25.953073,103.85361 v 0.13828 h 8.073521 v 17.69825 h 0.137203 v -17.83653 z m -15.067433,2.7e-4 v 6.89142 6.89141 h 1.23968 1.239679 v -5.64743 -5.64743 h 4.223466 4.223466 l 0.579754,0.33952 c 0.760308,0.44557 1.028493,1.0287 1.028493,2.23481 0,1.20062 -0.393751,2.06478 -1.101937,2.41856 -0.420336,0.20997 -0.923187,0.24085 -3.924576,0.24105 l -3.442209,2.7e-4 3.097046,3.09947 c 1.703455,1.70472 3.146508,3.08297 3.20681,3.06288 0.0603,-0.0201 0.463801,-0.37245 0.8964,-0.78287 l 0.786368,-0.74602 -1.160316,-1.18049 -1.160585,-1.18022 0.784215,-0.0987 c 2.386593,-0.30027 3.621608,-1.26578 4.245257,-3.31899 0.713555,-2.34925 -0.381501,-5.21494 -2.344307,-6.13518 l -0.77749,-0.36453 -5.819607,-0.0387 z m 19.39582,5.92211 -3.189592,3.09113 c -1.754278,1.70012 -4.956136,4.8293 -7.115244,6.95356 l -3.925652,3.86216 1.660169,0.007 1.660171,0.007 2.814028,-2.82506 2.813761,-2.82506 2.827481,2.82506 2.827481,2.82506 h 1.755136 c 0.965261,0 1.754868,-0.0462 1.754868,-0.1025 0,-0.0563 -1.626155,-1.72949 -3.613849,-3.71824 l -3.614117,-3.61573 3.214343,-3.20331 3.214341,-3.20331 -1.541797,-0.0393 z m -19.395282,8.51419 v 5.40719 h 4.525853 v -0.13829 h -4.388649 v -5.2689 z" />
    </g>
  </g>
</svg>
