<svg width="251" height="181" viewBox="0 0 251 181" fill="none" xmlns="http://www.w3.org/2000/svg">
<path d="M166.258 143.876C207.619 139.407 242.522 135.621 249.915 112.475C257.325 89.3233 223.042 97.1303 220.132 83.0354C217.219 68.9367 247.791 30.8863 217.011 16.4646C158.889 -10.7637 93.2683 71.7865 29.6656 84.9199C-41.606 99.6262 38.5623 180.853 70.4954 180.969C106.121 181.104 123.795 148.453 166.261 143.857" fill="#F3F4FA"/>
<path d="M36.4194 150.143C34.6394 151.773 34.5194 154.533 36.1394 156.313C37.7694 158.093 40.5294 158.223 42.3094 156.593C44.0894 154.963 44.2094 152.203 42.5894 150.423C40.9594 148.643 38.1994 148.513 36.4194 150.143Z" fill="#E9EDF8"/>
<path d="M30.8131 167.654C29.7934 168.587 29.7247 170.167 30.6527 171.185C31.5864 172.204 33.1673 172.278 34.1869 171.346C35.2066 170.413 35.2753 168.833 34.3473 167.815C33.4136 166.796 31.8327 166.722 30.8131 167.654Z" fill="#E9EDF8"/>
<path d="M187.946 111.874L120.886 150.59C112.234 155.561 101.097 152.598 96.1262 143.946L57.4099 76.8856C52.4389 68.2342 55.4024 57.0972 64.0538 52.1263L131.114 13.4099C139.766 8.43888 150.903 11.4024 155.874 20.0538L194.59 87.1144C199.561 95.718 196.598 106.855 187.946 111.874Z" fill="#50BAB1"/>
<path d="M88.5256 61.9252C88.2388 61.9252 87.9043 61.8774 87.6175 61.7818C85.8011 61.2561 84.7496 59.3919 85.2754 57.6234C86.3269 53.8474 88.9558 52.1744 91.5369 50.5493L134.316 23.3522C141.438 18.8114 150.902 20.9145 155.443 28.0364L167.249 45.9607C168.3 47.538 167.823 49.6411 166.293 50.6449C164.716 51.6487 162.613 51.2185 161.609 49.6889L149.803 31.7169C147.269 27.7019 141.964 26.5547 137.997 29.0402L95.2173 56.2373C93.0186 57.6234 92.2061 58.197 91.8715 59.4397C91.3457 60.9693 90.0074 61.9252 88.5256 61.9252Z" fill="#12243A"/>
<mask id="mask0_1002_4308" style="mask-type:luminance" maskUnits="userSpaceOnUse" x="76" y="35" width="108" height="96">
<path d="M76.5284 55.3762L87.7131 118.039C89.2426 126.547 97.3683 132.188 105.829 130.658L170.547 119.091C179.055 117.561 184.695 109.436 183.166 100.975C182.305 96.0523 177.573 92.7542 172.65 93.6146L152.862 97.1516C147.078 98.2032 141.486 94.2837 140.482 88.5002C139.431 82.7166 143.35 77.1243 149.134 76.1205L168.922 72.5834C173.845 71.7231 177.143 66.9911 176.283 62.0679L176.139 61.1597C174.61 52.6517 166.484 47.0115 158.024 48.541L93.3055 60.1082C93.3055 60.1082 120.933 36.5437 125.952 35.6356L86.088 43.1399C85.9924 43.1399 75.3812 44.765 76.5284 55.3762Z" fill="white"/>
</mask>
<g mask="url(#mask0_1002_4308)">
<path d="M108.698 85.6326L114.912 57.2406L96.0797 60.5865C94.7413 61.2557 93.3552 61.7336 91.9213 61.9726C82.8396 63.5978 74.8096 57.384 72.8499 48.6848C72.3241 46.2949 72.4197 43.905 73.0888 41.6107L59.562 43.7138L61.2349 88.6917L98.1828 133.239L103.536 108.958C104.683 109.101 105.926 109.101 107.121 108.862C113.669 107.715 118.019 101.454 116.872 94.9054C116.107 90.4124 112.809 86.9232 108.698 85.6326Z" fill="#12243A"/>
</g>
<mask id="mask1_1002_4308" style="mask-type:luminance" maskUnits="userSpaceOnUse" x="76" y="35" width="108" height="96">
<path d="M76.5284 55.3762L87.7131 118.039C89.2426 126.547 97.3683 132.188 105.829 130.658L170.547 119.091C179.055 117.561 184.695 109.436 183.166 100.975C182.305 96.0523 177.573 92.7542 172.65 93.6146L152.862 97.1516C147.078 98.2032 141.486 94.2837 140.482 88.5002C139.431 82.7166 143.35 77.1243 149.134 76.1205L168.922 72.5834C173.845 71.7231 177.143 66.9911 176.283 62.0679L176.139 61.1597C174.61 52.6517 166.484 47.0115 158.024 48.541L93.3055 60.1082C93.3055 60.1082 120.933 36.5437 125.952 35.6356L86.088 43.1399C85.9924 43.1399 75.3812 44.765 76.5284 55.3762Z" fill="white"/>
</mask>
<g mask="url(#mask1_1002_4308)">
<path d="M104.205 112.782C116.374 112.782 126.24 102.917 126.24 90.7472C126.24 78.5777 116.374 68.7124 104.205 68.7124C92.0353 68.7124 82.1699 78.5777 82.1699 90.7472C82.1699 102.917 92.0353 112.782 104.205 112.782Z" fill="#12243A"/>
</g>
<path d="M103.916 134.673C100.044 134.673 96.316 133.478 93.0657 131.232C88.9073 128.316 86.135 123.967 85.2269 118.996L74.0899 56.6193C73.8987 55.9979 73.7075 55.3765 73.6119 54.7551C73.0384 51.4571 73.7553 48.1112 75.6673 45.3867C77.5792 42.6622 80.447 40.7981 83.7451 40.2245L117.108 34.3454C118.924 34.0108 120.693 35.2536 121.028 37.0699C121.362 38.8862 120.119 40.6547 118.303 40.9893L84.9401 46.8685C83.4105 47.1553 82.12 47.9678 81.2118 49.2584C80.3037 50.5489 79.9691 52.0785 80.2559 53.608C80.3037 53.8948 80.3515 54.1816 80.4471 54.4206C80.4948 54.5161 80.5426 54.6595 80.5904 54.7551C81.0206 55.8067 81.6898 56.6671 82.6458 57.3362C83.8885 58.2444 85.418 58.579 86.9954 58.2922L158.214 45.5779C168.539 43.7138 178.433 50.6445 180.249 60.9689L180.393 61.9248C180.966 65.1751 180.249 68.521 178.337 71.2455C176.425 73.9699 173.558 75.7863 170.307 76.4076L149.659 80.0881C145.691 80.805 143.062 84.5811 143.732 88.5483C144.066 90.4602 145.166 92.1332 146.743 93.2325C148.32 94.3319 150.28 94.7621 152.192 94.4275L172.841 90.747C176.091 90.1735 179.437 90.8904 182.161 92.8023C184.886 94.7143 186.702 97.5821 187.323 100.832C189.14 111.157 182.257 121.051 171.932 122.915L107.214 134.482C106.162 134.578 105.015 134.673 103.916 134.673ZM82.4068 64.6015L91.9186 117.848C93.1135 124.492 99.4707 128.938 106.115 127.743L170.833 116.176C177.477 114.981 181.922 108.623 180.727 101.98C180.44 100.498 179.628 99.1595 178.385 98.2991C177.142 97.4387 175.613 97.1042 174.131 97.3432L153.482 101.024C149.802 101.645 146.074 100.88 142.967 98.6815C139.86 96.5306 137.805 93.3281 137.135 89.5999C136.466 85.9194 137.327 82.1912 139.478 79.0843C141.628 75.9774 144.831 73.9221 148.559 73.253L169.208 69.5725C170.69 69.2857 172.028 68.4732 172.888 67.2304C173.749 65.9877 174.083 64.4581 173.844 62.9764L173.701 62.0204C172.506 55.3765 166.149 50.9313 159.505 52.1262L88.2859 64.8405C86.1828 65.2707 84.2231 65.1273 82.4068 64.6015Z" fill="#12243A"/>
<path d="M108.744 94.5233L102.817 95.5748L100.666 83.4341L97.2243 84.0555L99.3752 96.1962L94.2608 97.1043C93.5439 97.2477 92.8747 96.7698 92.7313 96.0528L90.8194 85.2026L87.3779 85.824L89.5766 98.1559C89.9112 99.9244 91.5842 101.119 93.3527 100.785L112.759 97.3433L109.986 81.809L106.545 82.4304L108.744 94.5233Z" fill="white"/>
<path d="M118.587 92.6257L115.105 93.2468L115.726 96.729L119.208 96.1079L118.587 92.6257Z" fill="#50BAB1"/>
<path d="M151.905 90.2693C153.885 90.2693 155.49 88.6643 155.49 86.6845C155.49 84.7046 153.885 83.0996 151.905 83.0996C149.926 83.0996 148.321 84.7046 148.321 86.6845C148.321 88.6643 149.926 90.2693 151.905 90.2693Z" fill="#12243A"/>
<path d="M126.349 166.095C125.319 166.425 124.759 167.535 125.099 168.555C125.429 169.585 126.539 170.145 127.559 169.805C128.589 169.475 129.149 168.365 128.809 167.345C128.469 166.325 127.369 165.765 126.349 166.095Z" fill="#63BA8F"/>
<path d="M230.982 76.1408C229.472 76.6308 228.652 78.2508 229.142 79.7608C229.632 81.2708 231.252 82.1008 232.762 81.6108C234.272 81.1208 235.092 79.5008 234.602 77.9908C234.112 76.4808 232.492 75.6508 230.982 76.1408Z" fill="#E2E9F7"/>
<path d="M165.95 0C164.87 0 164 0.880003 164 1.95C164 3.03 164.87 3.9 165.95 3.9C167.03 3.9 167.9 3.02 167.9 1.95C167.91 0.870003 167.03 0 165.95 0Z" fill="url(#paint0_linear_1002_4308)"/>
<defs>
<linearGradient id="paint0_linear_1002_4308" x1="167.818" y1="1.9517" x2="164.021" y2="1.9517" gradientUnits="userSpaceOnUse">
<stop stop-color="#EB67A2"/>
<stop offset="1" stop-color="#E73987"/>
</linearGradient>
</defs>
</svg>
