<?xml version="1.0" encoding="UTF-8" standalone="no"?>
<svg
   viewBox="0 0 224.88756 75"
   width="224.88756"
   height="75"
   version="1.1"
   id="svg916"
   sodipodi:docname="kcc.svg"
   inkscape:version="1.1 (c4e8f9ed74, 2021-05-24)"
   xmlns:inkscape="http://www.inkscape.org/namespaces/inkscape"
   xmlns:sodipodi="http://sodipodi.sourceforge.net/DTD/sodipodi-0.dtd"
   xmlns="http://www.w3.org/2000/svg"
   xmlns:svg="http://www.w3.org/2000/svg">
  <defs
     id="defs920" />
  <sodipodi:namedview
     id="namedview918"
     pagecolor="#ffffff"
     bordercolor="#666666"
     borderopacity="1.0"
     inkscape:pageshadow="2"
     inkscape:pageopacity="0.0"
     inkscape:pagecheckerboard="0"
     showgrid="false"
     fit-margin-top="0"
     fit-margin-left="0"
     fit-margin-right="0"
     fit-margin-bottom="0"
     inkscape:zoom="4.120283"
     inkscape:cx="201.56382"
     inkscape:cy="66.136234"
     inkscape:window-width="2560"
     inkscape:window-height="1381"
     inkscape:window-x="0"
     inkscape:window-y="0"
     inkscape:window-maximized="1"
     inkscape:current-layer="svg916" />
  <style
     id="style889">
		tspan { white-space:pre }
		.shp0 { fill: #41e6af } 
	</style>
  <g
     id="g914"
     transform="matrix(0.56221889,0,0,0.56221889,-2.8110945,-4.6664168)"
     style="stroke-width:1.77867">
    <path
       id="Layer"
       class="shp0"
       d="m 146.1,65.2 -4,-6.7 v 0 L 120.2,21.7 h -0.1 l -0.7,-1.3 h -8 l -31.1,54.7 31.6,54.4 h 8 l 0.2,-0.3 26.1,-44.7 H 130.1 L 116.2,109.2 96.4,75 115.8,40.8 129.9,65.1 Z"
       style="stroke-width:1.77867" />
    <path
       id="path892"
       class="shp0"
       d="M 24.4,56.3 39,31.4 34.1,23.5 v 0 L 30.7,17.9 5.7,62 v 0 l -0.7,1.2 4,7 h 62.9 l 31.7,-54.3 -4.4,-7.6 -44,0.1 h -0.7 l -7,-0.1 3.7,7 v 0 l 3.7,7 28.8,-0.1 -19.8,34.1 z"
       style="stroke-width:1.77867" />
    <path
       id="path894"
       class="shp0"
       d="m 55.5,27.5 c -1.1,0 -2.3,0.2 -3.5,0.6 -1.3,0.4 -2.6,1 -3.8,1.7 -3.4,2.1 -5.8,5.1 -6.2,7.9 -0.2,1.3 0.1,2.4 0.8,3.2 v 0 c 0.1,0.2 0.3,0.3 0.4,0.5 0.1,0.1 0.2,0.1 0.3,0.2 0.1,0.1 0.1,0.1 0.2,0.2 0.2,0.1 0.3,0.2 0.5,0.3 v 0 c 2.1,1 5.4,0.8 8.6,-0.7 l 0.1,-0.1 c 0.3,-0.1 0.6,-0.3 0.9,-0.4 0.3,-0.1 0.5,-0.3 0.8,-0.5 0.3,-0.2 0.6,-0.4 0.9,-0.6 0.3,-0.2 0.5,-0.4 0.8,-0.6 l 0.2,-0.1 c 0.2,-0.2 0.4,-0.3 0.6,-0.5 0.1,-0.1 0.1,-0.1 0.2,-0.2 0.2,-0.1 0.3,-0.3 0.4,-0.4 0.1,-0.1 0.2,-0.2 0.3,-0.4 0.1,-0.2 0.3,-0.3 0.4,-0.5 0.1,-0.1 0.1,-0.1 0.2,-0.2 0.1,-0.2 0.3,-0.3 0.4,-0.5 l 0.2,-0.2 c 0.1,-0.2 0.2,-0.3 0.3,-0.5 0,0 0,0 0,-0.1 l 0.1,-0.2 c 0.2,-0.2 0.3,-0.5 0.4,-0.7 0.1,-0.2 0.2,-0.5 0.3,-0.7 l 0.1,-0.1 c 0,-0.1 0.1,-0.2 0.1,-0.2 v 0 c 0,-0.1 0,-0.1 0.1,-0.2 0,-0.2 0.1,-0.3 0.1,-0.5 0,-0.2 0.1,-0.2 0.1,-0.3 0,-0.1 0,-0.2 0,-0.2 0,-0.2 0,-0.3 0,-0.4 v -0.2 c 0,-0.2 0,-0.3 0,-0.5 0,-0.1 0,-0.1 0,-0.2 0,-0.1 0,-0.2 0,-0.2 0,-0.1 0,-0.1 0,-0.2 v -0.1 c 0,-0.2 -0.1,-0.3 -0.2,-0.5 -0.1,-0.2 -0.2,-0.3 -0.3,-0.5 v 0 c -0.7,-1.5 -2.6,-2.2 -4.8,-2.2 z"
       style="stroke-width:1.77867" />
    <path
       id="path896"
       class="shp0"
       d="m 62.8,34.8 c 0,0.2 -0.1,0.3 -0.2,0.5 v 0 c 0,0.1 0,0.1 -0.1,0.2 v 0 c -0.1,0.3 -0.2,0.5 -0.4,0.8 v 0 0 C 61,38.4 59.2,40.4 57,42 c -0.3,0.2 -0.6,0.4 -0.9,0.6 -0.3,0.2 -0.6,0.4 -0.9,0.5 h -0.1 v 0 c -0.1,0.1 -0.2,0.1 -0.3,0.2 -0.2,0.1 -0.3,0.2 -0.5,0.3 h -0.1 c -0.1,0 -0.2,0.1 -0.3,0.1 -0.2,0.1 -0.4,0.2 -0.6,0.2 L 53.1,44 c 0,0 0,0 -0.1,0 -0.1,0 -0.2,0.1 -0.3,0.1 -0.2,0.1 -0.4,0.1 -0.6,0.2 l -0.2,0.1 h -0.1 c -0.2,0.1 -0.4,0.1 -0.6,0.2 -0.1,0 -0.2,0.1 -0.4,0.1 v 0 0 h -0.1 c -0.2,0 -0.4,0.1 -0.5,0.1 -0.1,0 -0.3,0 -0.4,0.1 h -0.1 c -0.1,0 -0.2,0 -0.3,0.1 -0.1,0 -0.2,0 -0.3,0 -0.3,0 -0.7,0.1 -1,0.1 H 48 c -0.3,0 -0.6,0 -0.9,0 -0.1,0 -0.2,0 -0.2,0 h -0.1 c -0.2,0 -0.4,0 -0.6,-0.1 -0.1,0 -0.2,0 -0.3,-0.1 -0.2,0 -0.4,-0.1 -0.6,-0.1 -0.1,0 -0.2,-0.1 -0.3,-0.1 l 5.5,8.9 11.8,-0.1 6.1,-10.8 -5.5,-9 c 0,0.1 0,0.2 -0.1,0.3 0,0.1 0,0.1 0,0.2 0,0.1 -0.1,0.2 -0.1,0.4 0.1,0.1 0.1,0.2 0.1,0.2 z"
       style="stroke-width:1.77867" />
    <path
       id="path898"
       class="shp0"
       d="m 125.5,67.3 c 0.6,0.9 1,2 1.3,3.3 0.3,1.3 0.5,2.7 0.5,4.1 0,4 -1.3,7.6 -3.5,9.4 -1,0.8 -2.1,1.2 -3.2,1 v 0 c -0.2,0 -0.4,-0.1 -0.6,-0.1 -0.1,0 -0.2,-0.1 -0.3,-0.1 -0.1,0 -0.2,-0.1 -0.3,-0.1 -0.2,-0.1 -0.4,-0.2 -0.5,-0.3 v 0 c -2,-1.3 -3.5,-4.2 -3.9,-7.7 v -0.1 c 0,-0.3 -0.1,-0.6 -0.1,-1 0,-0.3 0,-0.6 0,-0.9 0,-0.4 0,-0.7 0,-1.1 0,-0.3 0,-0.6 0.1,-0.9 v -0.2 c 0,-0.2 0.1,-0.5 0.1,-0.7 0,-0.1 0,-0.2 0,-0.3 0,-0.2 0.1,-0.4 0.1,-0.6 0,-0.2 0.1,-0.3 0.1,-0.5 0.1,-0.2 0.1,-0.4 0.2,-0.6 0,-0.1 0.1,-0.2 0.1,-0.3 0.1,-0.2 0.1,-0.4 0.2,-0.6 l 0.1,-0.3 c 0.1,-0.2 0.2,-0.3 0.2,-0.5 0,0 0,0 0,-0.1 l 0.1,-0.2 c 0.1,-0.3 0.3,-0.5 0.4,-0.7 0.1,-0.2 0.3,-0.4 0.4,-0.6 l 0.1,-0.1 c 0.1,-0.1 0.1,-0.1 0.2,-0.2 v 0 c 0.1,-0.1 0.1,-0.1 0.1,-0.2 0.1,-0.1 0.2,-0.2 0.3,-0.3 0.1,-0.1 0.2,-0.2 0.2,-0.2 0.1,-0.1 0.1,-0.1 0.2,-0.2 0.1,-0.1 0.2,-0.2 0.3,-0.3 l 0.2,-0.1 c 0.1,-0.1 0.3,-0.2 0.4,-0.3 0.1,0 0.1,0 0.2,-0.1 0.1,0 0.2,-0.1 0.2,-0.1 0,0 0.1,0 0.1,-0.1 h 0.1 c 0.2,0 0.3,-0.1 0.5,-0.1 0.2,0 0.4,0 0.6,0 v 0 c 2.1,-0.1 3.6,1.1 4.8,3 z"
       style="stroke-width:1.77867" />
    <path
       id="path900"
       class="shp0"
       d="m 115.4,64.9 c -0.1,0.1 -0.2,0.3 -0.3,0.4 v 0 c 0,0.1 -0.1,0.1 -0.1,0.2 v 0 c -0.2,0.2 -0.3,0.5 -0.5,0.7 v 0 0 c -1.3,2 -2,4.6 -2.2,7.3 0,0.4 0,0.7 0,1.1 0,0.3 0,0.7 0,1 v 0.1 0 c 0,0.1 0,0.3 0,0.4 0,0.2 0,0.4 0.1,0.6 v 0.1 c 0,0.1 0,0.2 0,0.3 0,0.2 0.1,0.4 0.1,0.6 v 0.2 c 0,0 0,0 0,0.1 0,0.1 0,0.2 0.1,0.3 0,0.2 0.1,0.4 0.1,0.6 l 0.1,0.2 v 0.1 c 0,0.2 0.1,0.4 0.2,0.6 0,0.1 0.1,0.2 0.1,0.3 v 0 0 0.1 c 0.1,0.2 0.1,0.3 0.2,0.5 0,0.1 0.1,0.2 0.2,0.4 v 0.1 c 0,0.1 0.1,0.2 0.1,0.3 0.1,0.1 0.1,0.2 0.1,0.2 0.1,0.3 0.3,0.6 0.5,0.9 l 0.1,0.1 c 0.2,0.3 0.3,0.5 0.5,0.7 0,0.1 0.1,0.1 0.1,0.2 l 0.1,0.1 c 0.1,0.2 0.3,0.3 0.4,0.5 0.1,0.1 0.1,0.2 0.2,0.2 0.2,0.2 0.3,0.3 0.4,0.5 0.1,0.1 0.2,0.1 0.2,0.2 H 105.7 L 99.6,75 l 6,-10.8 h 10.5 c -0.1,0.1 -0.1,0.1 -0.2,0.2 l -0.1,0.1 c -0.1,0.1 -0.2,0.2 -0.4,0.4 0.1,0 0,0 0,0 z"
       style="stroke-width:1.77867" />
    <path
       id="path902"
       class="shp0"
       d="m 55.5,122.4 c -1.1,0 -2.3,-0.2 -3.5,-0.6 -1.3,-0.4 -2.6,-1 -3.8,-1.7 -3.4,-2.1 -5.8,-5.1 -6.2,-7.9 -0.2,-1.3 0.1,-2.4 0.8,-3.2 v 0 c 0.1,-0.2 0.3,-0.3 0.4,-0.5 0.1,-0.1 0.2,-0.1 0.3,-0.2 0.1,-0.1 0.1,-0.1 0.2,-0.2 0.2,-0.1 0.3,-0.2 0.5,-0.3 v 0 c 2.1,-1 5.4,-0.8 8.6,0.7 l 0.1,0.1 c 0.3,0.1 0.6,0.3 0.9,0.4 0.3,0.1 0.5,0.3 0.8,0.5 0.3,0.2 0.6,0.4 0.9,0.6 0.3,0.2 0.5,0.4 0.8,0.6 l 0.2,0.1 c 0.2,0.2 0.4,0.3 0.6,0.5 0.1,0.1 0.1,0.1 0.2,0.2 0.2,0.1 0.3,0.3 0.4,0.4 0.1,0.1 0.2,0.2 0.3,0.4 0.1,0.2 0.3,0.3 0.4,0.5 0.1,0.1 0.1,0.1 0.2,0.2 0.1,0.2 0.3,0.3 0.4,0.5 l 0.2,0.2 c 0.1,0.2 0.2,0.3 0.3,0.5 v 0.1 l 0.1,0.2 c 0.2,0.2 0.3,0.5 0.4,0.7 0.1,0.2 0.2,0.5 0.3,0.7 l 0.1,0.1 c 0,0.1 0.1,0.2 0.1,0.2 v 0 c 0,0.1 0,0.1 0.1,0.2 0,0.2 0.1,0.3 0.1,0.5 0,0.2 0.1,0.2 0.1,0.3 0,0.1 0,0.2 0,0.2 0,0.2 0,0.3 0,0.4 v 0.2 c 0,0.2 0,0.3 0,0.5 0,0.1 0,0.1 0,0.2 0,0.1 0,0.2 0,0.2 0,0.1 0,0.1 0,0.2 v 0.1 c 0,0.2 -0.1,0.3 -0.2,0.5 -0.1,0.2 -0.2,0.3 -0.3,0.5 v 0 c -0.7,1.5 -2.6,2.3 -4.8,2.2 z"
       style="stroke-width:1.77867" />
    <path
       id="path904"
       class="shp0"
       d="m 62.8,115.1 c 0,-0.2 -0.1,-0.3 -0.2,-0.5 v 0 c 0,-0.1 0,-0.1 -0.1,-0.2 v 0 c -0.1,-0.3 -0.2,-0.5 -0.4,-0.8 v 0 c -1.1,-2.1 -2.9,-4.1 -5.1,-5.7 -0.3,-0.2 -0.6,-0.4 -0.9,-0.6 -0.3,-0.2 -0.6,-0.4 -0.9,-0.5 h -0.1 v 0 c -0.1,-0.1 -0.2,-0.1 -0.3,-0.2 -0.2,-0.1 -0.3,-0.2 -0.5,-0.3 h -0.1 c -0.1,0 -0.2,-0.1 -0.3,-0.1 -0.2,-0.1 -0.4,-0.2 -0.6,-0.2 l -0.2,-0.1 c 0,0 0,0 -0.1,0 -0.1,0 -0.2,-0.1 -0.3,-0.1 -0.2,-0.1 -0.4,-0.1 -0.6,-0.2 l -0.2,-0.1 h -0.1 c -0.2,-0.1 -0.4,-0.1 -0.6,-0.2 -0.1,0 -0.2,-0.1 -0.4,-0.1 v 0 0 h -0.1 c -0.2,0 -0.4,-0.1 -0.5,-0.1 -0.1,0 -0.3,0 -0.4,-0.1 h -0.1 c -0.1,0 -0.2,0 -0.3,-0.1 -0.1,0 -0.2,0 -0.3,0 -0.3,0 -0.7,-0.1 -1,-0.1 H 48 c -0.3,0 -0.6,0 -0.9,0 -0.1,0 -0.2,0 -0.2,0 h -0.1 c -0.2,0 -0.4,0 -0.6,0.1 -0.1,0 -0.2,0 -0.3,0.1 -0.2,0 -0.4,0.1 -0.6,0.1 -0.1,0 -0.2,0.1 -0.3,0.1 l 5.5,-8.9 11.8,0.1 6.1,10.8 -5.5,9 c 0,-0.1 0,-0.2 -0.1,-0.3 0,-0.1 0,-0.1 0,-0.2 0,-0.1 -0.1,-0.2 -0.1,-0.4 0.1,-0.1 0.1,-0.2 0.1,-0.2 z"
       style="stroke-width:1.77867" />
    <path
       id="path906"
       class="shp0"
       d="m 83.7,127.7 -28.8,-0.1 -4.4,8.3 -3,5.7 7.7,-0.1 v 0.1 l 44,0.1 4.4,-7.6 L 71.9,79.8 9,79.7 5,86.7 5.8,88 H 5.7 l 25,44 L 39,118.5 24.4,93.7 h 39.5 z"
       style="stroke-width:1.77867" />
    <path
       id="path908"
       class="shp0"
       d="m 279.5,75 c 0,-3.9 0,-7.2 0.2,-9.8 0.1,-2.6 0.3,-4.7 0.6,-6.4 1.2,-7.1 6.6,-11.2 13.5,-11.2 4.5,0 8.6,1.7 11.2,5.5 1.1,1.7 2,3.6 2.5,5.8 0.1,0.2 0.2,0.3 0.5,0.3 h 15.5 c 0.2,0 0.3,-0.2 0.3,-0.4 -1.7,-9.6 -6.8,-18.3 -15.9,-22.5 -4.2,-2 -8.9,-3 -14.2,-3 -8.8,0 -16.1,3 -22.1,9 -3.4,3.4 -5.7,7.6 -6.7,12.3 -0.9,4.6 -1.4,11.4 -1.4,20.4 0,9 0.5,15.8 1.4,20.4 0.9,4.8 3.3,8.9 6.7,12.3 6,6 13.4,9 22.1,9 5.3,0 10,-1 14.2,-3 9.1,-4.3 14.2,-12.9 15.9,-22.5 0,-0.2 0,-0.4 -0.3,-0.4 H 308 c -0.3,0 -0.4,0.1 -0.5,0.3 -0.6,2.2 -1.4,4.1 -2.5,5.8 -2.6,3.8 -6.7,5.5 -11.2,5.5 -6.9,0 -12.3,-4.2 -13.5,-11.2 -0.3,-1.6 -0.5,-3.8 -0.6,-6.4 -0.2,-2.6 -0.2,-5.9 -0.2,-9.8 z"
       style="stroke-width:1.77867" />
    <path
       id="path910"
       class="shp0"
       d="m 360.7,75 c 0,-3.9 0,-7.2 0.2,-9.8 0.1,-2.6 0.3,-4.7 0.6,-6.4 1.2,-7.1 6.6,-11.2 13.5,-11.2 4.5,0 8.6,1.7 11.2,5.5 1.1,1.7 2,3.6 2.5,5.8 0.1,0.2 0.2,0.3 0.5,0.3 h 15.5 c 0.2,0 0.3,-0.2 0.3,-0.4 -1.7,-9.6 -6.8,-18.3 -15.9,-22.5 -4.2,-2 -8.9,-3 -14.2,-3 -8.8,0 -16.1,3 -22.1,9 -3.4,3.4 -5.7,7.6 -6.7,12.3 -0.9,4.6 -1.4,11.4 -1.4,20.4 0,9 0.5,15.8 1.4,20.4 0.9,4.8 3.3,8.9 6.7,12.3 6,6 13.4,9 22.1,9 5.3,0 10,-1 14.2,-3 9.1,-4.3 14.2,-12.9 15.9,-22.5 0,-0.2 0,-0.4 -0.3,-0.4 h -15.5 c -0.3,0 -0.4,0.1 -0.5,0.3 -0.6,2.2 -1.4,4.1 -2.5,5.8 -2.6,3.8 -6.7,5.5 -11.2,5.5 -6.9,0 -12.3,-4.2 -13.5,-11.2 -0.3,-1.6 -0.5,-3.8 -0.6,-6.4 -0.1,-2.6 -0.2,-5.9 -0.2,-9.8 z"
       style="stroke-width:1.77867" />
    <path
       id="path912"
       class="shp0"
       d="m 195.5,35.4 c 0,-0.8 -0.6,-1.4 -1.4,-1.4 h -13.2 c -0.8,0 -1.4,0.6 -1.4,1.4 v 79.2 c 0,0.8 0.6,1.4 1.4,1.4 h 13.2 c 0.8,0 1.4,-0.6 1.4,-1.4 V 91.4 l 10.6,-12.7 21.8,36.9 c 0.2,0.3 0.4,0.4 0.8,0.4 h 16 c 0.7,0 0.9,-0.5 0.5,-1.1 L 216.7,66.6 242.8,35.3 c 0.5,-0.6 0.3,-1.2 -0.5,-1.2 h -17.5 c -0.3,0 -0.4,0.1 -0.5,0.3 L 195.6,68.9 V 35.4 Z"
       style="stroke-width:1.77867" />
  </g>
</svg>
