<?xml version="1.0" encoding="UTF-8" standalone="no"?>
<svg
   width="381.79758"
   height="75"
   viewBox="0 0 381.79758 75"
   fill="none"
   version="1.1"
   id="svg1085"
   sodipodi:docname="harmony.svg"
   inkscape:version="1.1 (c4e8f9ed74, 2021-05-24)"
   xmlns:inkscape="http://www.inkscape.org/namespaces/inkscape"
   xmlns:sodipodi="http://sodipodi.sourceforge.net/DTD/sodipodi-0.dtd"
   xmlns="http://www.w3.org/2000/svg"
   xmlns:svg="http://www.w3.org/2000/svg">
  <sodipodi:namedview
     id="namedview1087"
     pagecolor="#ffffff"
     bordercolor="#666666"
     borderopacity="1.0"
     inkscape:pageshadow="2"
     inkscape:pageopacity="0.0"
     inkscape:pagecheckerboard="0"
     showgrid="false"
     inkscape:zoom="6.6882353"
     inkscape:cx="81.710642"
     inkscape:cy="16.970097"
     inkscape:window-width="2560"
     inkscape:window-height="1381"
     inkscape:window-x="0"
     inkscape:window-y="0"
     inkscape:window-maximized="1"
     inkscape:current-layer="svg1085"
     fit-margin-top="0"
     fit-margin-left="0"
     fit-margin-right="0"
     fit-margin-bottom="0" />
  <g
     id="g1276"
     transform="scale(2.245863)"
     style="stroke-width:0.445263">
    <path
       d="m 26.232,0 c -3.94,0 -7.1542,3.2142 -7.2579,7.15419 v 7.98361 c -0.7257,0 -1.4515,0.1037 -2.281,0.1037 -0.8295,0 -1.5553,0 -2.281,0.1037 V 7.15419 C 14.4121,3.2142 11.0942,0 7.0505,0.103684 3.2142,0.103684 0.103684,3.31788 0,7.15419 V 26.232 c 0.103684,3.94 3.31788,7.1542 7.36155,7.0505 3.93995,-0.1037 7.05055,-3.2142 7.05055,-7.0505 v -7.9836 c 0.7257,0 1.4515,-0.1037 2.281,-0.1037 0.8295,0 1.5553,0 2.281,-0.1037 v 8.0873 c 0.1037,3.94 3.3179,7.1542 7.3616,7.0505 3.94,-0.1037 7.0505,-3.2142 7.0505,-7.0505 V 7.15419 C 33.3862,3.2142 30.172,0 26.232,0 Z M 7.25787,2.90315 c 2.38473,0 4.25103,1.86631 4.25103,4.25104 v 8.39841 c -2.07367,0.311 -4.14735,0.9331 -6.11734,1.7626 -0.82947,0.4147 -1.65894,0.8295 -2.38473,1.4516 V 7.15419 c 0,-2.28105 1.86631,-4.25104 4.25104,-4.25104 z M 11.5089,26.232 c 0,2.3847 -1.8663,4.251 -4.25103,4.251 -2.38473,0 -4.25104,-1.8663 -4.25104,-4.251 v -1.8663 c 0,-1.6589 1.34789,-3.3179 3.62894,-4.251 1.55525,-0.7258 3.2142,-1.1406 4.97683,-1.4516 z m 14.7231,4.251 c -2.3847,0 -4.251,-1.8663 -4.251,-4.251 v -8.3984 c 2.0737,-0.311 4.1473,-0.9331 6.1173,-1.7626 0.8295,-0.4147 1.659,-0.8295 2.3848,-1.4516 V 26.232 c 0,2.3847 -1.97,4.251 -4.2511,4.251 z m 0.6221,-17.1078 c -1.5552,0.7258 -3.2142,1.1405 -4.9768,1.4516 V 7.15419 c 0,-2.38473 1.8663,-4.25104 4.251,-4.25104 2.3848,0 4.2511,1.86631 4.2511,4.25104 v 1.8663 c 0.1037,1.76261 -1.2442,3.31791 -3.5253,4.35471 z"
       fill="url(#paint0_linear)"
       id="path1062"
       style="fill:url(#paint0_linear);stroke-width:0.44525" />
    <path
       d="m 129.812,11.5083 c -4.458,0 -8.191,3.6289 -8.087,8.191 0,4.4584 3.629,8.191 8.191,8.0874 4.458,0 8.087,-3.629 8.087,-8.1911 0,-4.3547 -3.629,-8.0873 -8.191,-8.0873 z m 5.495,8.191 c 0,3.0069 -2.488,5.4953 -5.495,5.4953 -3.007,0 -5.495,-2.4884 -5.495,-5.4953 0,-3.0068 2.488,-5.4952 5.495,-5.4952 3.111,0 5.495,2.4884 5.495,5.4952 z"
       fill="white"
       id="path1064"
       style="fill:#333333;stroke-width:0.445263" />
    <path
       d="m 80.8717,11.613 c -0.7258,0 -1.3479,0.6221 -1.3479,1.3479 v 0.7257 c -3.3179,-3.0068 -8.5021,-2.7994 -11.5089,0.5185 -3.0068,3.3179 -2.7995,8.502 0.5184,11.5089 3.1105,2.9031 7.88,2.9031 10.9905,0 v 0.7258 c 0,0.7258 0.5184,1.3479 1.2442,1.3479 0.7258,0 1.3479,-0.5185 1.3479,-1.2443 V 26.4398 12.9609 C 82.2196,12.2351 81.5975,11.613 80.8717,11.613 Z m -1.3479,8.0873 c 0,3.0068 -2.4884,5.4953 -5.4952,5.4953 -3.0069,0 -5.4953,-2.4885 -5.4953,-5.4953 0,-3.0068 2.4884,-5.4952 5.4953,-5.4952 3.1105,0 5.4952,2.4884 5.4952,5.4952 z"
       fill="white"
       id="path1066"
       style="fill:#333333;stroke-width:0.445263" />
    <path
       d="m 95.0801,12.8562 c 0,0.7258 -0.6221,1.3479 -1.3479,1.3479 h -0.2074 c -3.0068,0 -5.4952,2.4884 -5.4952,5.4952 -0.1037,0.3111 0,4.4584 0,6.9468 -0.1037,0.7258 -0.7258,1.2442 -1.4516,1.1406 -0.6221,-0.1037 -1.1405,-0.7258 -1.1405,-1.3479 V 12.9599 c 0,-0.7258 0.6221,-1.3479 1.3479,-1.3479 h 0.1037 c 0.7258,0.1037 1.2442,0.6221 1.2442,1.3479 v 0.7258 c 1.4516,-1.3479 3.4215,-2.1774 5.4952,-2.1774 h 0.2074 c 0.6221,0 1.2442,0.6221 1.2442,1.3479 z"
       fill="white"
       id="path1068"
       style="fill:#333333;stroke-width:0.445263" />
    <path
       d="m 153.659,18.3516 v 8.0873 c 0,0.7258 -0.622,1.3479 -1.348,1.3479 -0.726,0 -1.348,-0.6221 -1.348,-1.3479 V 25.091 18.3516 c 0,-2.2811 -1.866,-4.1474 -4.147,-4.1474 -0.104,0 -0.208,0 -0.311,0 -2.178,0.1037 -3.837,2.0737 -3.837,4.2511 v 1.5552 4.9769 1.3478 c 0,0.7258 -0.622,1.3479 -1.347,1.3479 -0.726,0 -1.348,-0.6221 -1.348,-1.3479 V 12.96 c 0,-0.7258 0.622,-1.3479 1.348,-1.3479 0.725,0 1.347,0.6221 1.347,1.3479 v 0.1037 c 1.037,-0.8295 2.385,-1.3479 3.837,-1.4516 3.732,-0.2073 6.947,2.6958 7.05,6.4284 0.104,0.1037 0.104,0.2074 0.104,0.3111 z"
       fill="white"
       id="path1070"
       style="fill:#333333;stroke-width:0.445263" />
    <path
       d="M 63.3508,6.84288 V 26.5428 c 0,0.7258 -0.6221,1.3479 -1.3479,1.3479 -0.7258,0 -1.3479,-0.6221 -1.3479,-1.3479 V 17.626 H 47.1761 v 8.9168 c 0,0.7258 -0.6221,1.3479 -1.3479,1.3479 -0.7258,0 -1.2442,-0.6221 -1.2442,-1.3479 V 6.84288 c 0,-0.72578 0.6221,-1.34788 1.3479,-1.34788 0.7258,0 1.3479,0.6221 1.3479,1.34788 V 15.4486 H 60.8623 V 6.84288 c 0,-0.72578 0.6222,-1.34788 1.3479,-1.34788 0.5185,0.10368 1.1406,0.6221 1.1406,1.34788 z"
       fill="white"
       id="path1072"
       style="fill:#333333;stroke-width:0.445263" />
    <path
       d="m 119.755,18.9738 v 7.4653 c 0,0.7257 -0.622,1.3478 -1.347,1.3478 -0.726,0 -1.348,-0.6221 -1.348,-1.3478 V 19.6996 17.937 c 0,-2.0737 -1.556,-3.7326 -3.629,-3.7326 -2.074,0 -3.733,1.5552 -3.733,3.6289 0,0.1037 0,0.1037 0,0.2074 v 8.6057 c 0,0.7258 -0.518,1.3479 -1.244,1.3479 -0.726,0 -1.348,-0.5184 -1.348,-1.2442 V 26.6464 19.6996 17.937 c 0,-2.0737 -1.555,-3.7326 -3.629,-3.7326 -2.074,0 -3.7326,1.5552 -3.7326,3.6289 0,0.1037 0,0.1037 0,0.2074 v 8.6057 c 0,0.7258 -0.5184,1.3479 -1.2442,1.3479 -0.7258,0 -1.3479,-0.5184 -1.3479,-1.2442 V 26.6464 13.1675 c 0,-0.7258 0.6221,-1.3479 1.3479,-1.3479 0.6221,0 1.2442,0.5185 1.3479,1.1406 2.7999,-1.97 6.6359,-1.4516 8.7099,1.2442 2.073,-2.7995 6.117,-3.3179 8.813,-1.1406 1.555,1.2442 2.488,3.1106 2.488,5.0805 z"
       fill="white"
       id="path1074"
       style="fill:#333333;stroke-width:0.445263" />
    <path
       d="m 169.834,13.479 -8.917,19.2852 c -0.415,0.6221 -1.244,0.8295 -1.866,0.4148 -0.519,-0.3111 -0.83,-0.9332 -0.622,-1.5553 l 2.384,-5.1842 -5.91,-12.9605 c -0.414,-0.6221 -0.207,-1.4515 0.415,-1.8663 0.622,-0.4147 1.452,-0.2073 1.866,0.4148 0,0.1036 0.104,0.2073 0.104,0.2073 l 5.081,10.8868 5.08,-10.8868 c 0.207,-0.7258 1.037,-1.0368 1.659,-0.8294 0.726,0.2073 1.037,1.0368 0.829,1.6589 0,0.311 -0.103,0.4147 -0.103,0.4147 z"
       fill="white"
       id="path1076"
       style="fill:#333333;stroke-width:0.445263" />
  </g>
  <defs
     id="defs1083">
    <linearGradient
       id="paint0_linear"
       x1="16.6931"
       y1="0"
       x2="-6.3252101"
       y2="23.018299"
       gradientUnits="userSpaceOnUse">
      <stop
         stop-color="#00E8A2"
         id="stop1078" />
      <stop
         offset="1"
         stop-color="#00ADE8"
         id="stop1080" />
    </linearGradient>
  </defs>
</svg>
