<svg width="170" height="118" viewBox="0 0 170 118" fill="none" xmlns="http://www.w3.org/2000/svg">
<path opacity="0.84" d="M75.1699 102.9C96.7199 114.22 114.9 123.76 128.3 109.96C141.69 96.1601 161.48 104.97 162.73 80.0201C163.31 68.5301 142.81 62.2201 161.22 37.9201C189.73 0.280138 90.0099 24.5701 53.3099 14.3701C0.0698586 -0.439863 29.6599 44.2101 7.50986 57.7001C-7.49014 66.8301 6.36986 105.2 31.7099 96.7101C51.6399 90.0301 53.0399 91.2801 75.1699 102.9Z" fill="#F4F4FA"/>
<path d="M164.93 50.2199C163.42 50.7099 162.6 52.3299 163.09 53.8399C163.58 55.3499 165.2 56.1799 166.71 55.6899C168.22 55.1999 169.04 53.5799 168.55 52.0699C168.06 50.5599 166.44 49.7299 164.93 50.2199Z" fill="#E2E9F7"/>
<path d="M70.2498 110.88C69.2198 111.21 68.6598 112.32 68.9998 113.34C69.3298 114.37 70.4398 114.93 71.4598 114.59C72.4898 114.26 73.0498 113.15 72.7098 112.13C72.3698 111.11 71.2698 110.55 70.2498 110.88Z" fill="#63BA8F"/>
<path d="M117.27 0.140137C116.19 0.140137 115.32 1.02014 115.32 2.09014C115.32 3.17014 116.19 4.04014 117.27 4.04014C118.35 4.04014 119.22 3.16014 119.22 2.09014C119.23 1.01014 118.35 0.140137 117.27 0.140137Z" fill="url(#paint0_linear_710_77)"/>
<path d="M12.9897 77.1102C11.2097 78.7402 11.0897 81.5002 12.7097 83.2802C14.3397 85.0602 17.0997 85.1902 18.8797 83.5602C20.6597 81.9302 20.7797 79.1702 19.1597 77.3902C17.5297 75.6102 14.7697 75.4802 12.9897 77.1102Z" fill="#E9EDF8"/>
<path d="M12.7397 96.6202C11.9897 97.3102 11.9397 98.4702 12.6197 99.2202C13.2997 99.9702 14.4697 100.02 15.2197 99.3402C15.9697 98.6502 16.0197 97.4902 15.3397 96.7402C14.6497 95.9902 13.4897 95.9402 12.7397 96.6202Z" fill="#E9EDF8"/>
<path d="M142.55 104.68H32.4499C29.5299 104.68 27.1499 102.29 27.1499 99.3802V13.7902C27.1499 10.8702 29.5399 8.49023 32.4499 8.49023H142.56C145.48 8.49023 147.86 10.8802 147.86 13.7902V99.3802C147.86 102.29 145.47 104.68 142.55 104.68Z" fill="#E3E3F1"/>
<path d="M139.65 10.6602H129.34H35.7797C32.2797 10.6602 29.4297 13.5202 29.4297 17.0102V97.9602C29.4297 100.46 31.4697 102.5 33.9697 102.5H141.47C143.97 102.5 146.01 100.46 146.01 97.9602V17.0102C146.01 13.5202 143.15 10.6602 139.65 10.6602Z" fill="white"/>
<path d="M38.7999 17.7003C38.7999 18.3603 38.2699 18.8903 37.6099 18.8903C36.9499 18.8903 36.4199 18.3603 36.4199 17.7003C36.4199 17.0403 36.9499 16.5103 37.6099 16.5103C38.2699 16.5103 38.7999 17.0403 38.7999 17.7003Z" fill="#F4A8A1"/>
<path d="M43.4401 17.7003C43.4401 18.3603 42.9101 18.8903 42.2501 18.8903C41.5901 18.8903 41.0601 18.3603 41.0601 17.7003C41.0601 17.0403 41.5901 16.5103 42.2501 16.5103C42.9101 16.5103 43.4401 17.0403 43.4401 17.7003Z" fill="#DFC44B"/>
<path d="M48.0699 17.7003C48.0699 18.3603 47.5399 18.8903 46.8799 18.8903C46.2199 18.8903 45.6899 18.3603 45.6899 17.7003C45.6899 17.0403 46.2199 16.5103 46.8799 16.5103C47.5399 16.5103 48.0699 17.0403 48.0699 17.7003Z" fill="#0E7F75"/>
<rect x="29" y="10.0005" width="117" height="11" rx="5.5" fill="#F4F4FA"/>
<rect x="29" y="14.7148" width="117" height="6.28571" fill="#F4F4FA"/>
<path d="M38.7999 17.7003C38.7999 18.3603 38.2699 18.8903 37.6099 18.8903C36.9499 18.8903 36.4199 18.3603 36.4199 17.7003C36.4199 17.0403 36.9499 16.5103 37.6099 16.5103C38.2699 16.5103 38.7999 17.0403 38.7999 17.7003Z" fill="#F4A8A1"/>
<path d="M43.4401 17.7003C43.4401 18.3603 42.9101 18.8903 42.2501 18.8903C41.5901 18.8903 41.0601 18.3603 41.0601 17.7003C41.0601 17.0403 41.5901 16.5103 42.2501 16.5103C42.9101 16.5103 43.4401 17.0403 43.4401 17.7003Z" fill="#DFC44B"/>
<path d="M48.0699 17.7003C48.0699 18.3603 47.5399 18.8903 46.8799 18.8903C46.2199 18.8903 45.6899 18.3603 45.6899 17.7003C45.6899 17.0403 46.2199 16.5103 46.8799 16.5103C47.5399 16.5103 48.0699 17.0403 48.0699 17.7003Z" fill="#0E7F75"/>
<path d="M137.19 55.7503L132.29 60.6403L117.74 38.0303L103.67 62.5203L91.2797 54.9603L76.2797 77.3503L66.7197 69.9303L59.6797 81.5303V90.4303H137.5L137.19 55.7503Z" fill="url(#paint1_linear_710_77)"/>
<path d="M59.6798 82.03C59.5898 82.03 59.4998 82.01 59.4198 81.96C59.1798 81.82 59.1098 81.51 59.2498 81.27L66.2898 69.66C66.3598 69.54 66.4898 69.45 66.6298 69.43C66.7698 69.4 66.9198 69.44 67.0298 69.53L76.1698 76.63L90.8698 54.68C91.0198 54.46 91.3198 54.39 91.5498 54.53L103.49 61.83L117.31 37.79C117.4 37.64 117.56 37.54 117.73 37.54C117.94 37.54 118.07 37.62 118.16 37.77L132.37 59.86L136.83 55.4C137.03 55.2 137.34 55.2 137.54 55.4C137.74 55.6 137.74 55.91 137.54 56.11L132.64 61.01C132.53 61.12 132.39 61.17 132.23 61.15C132.08 61.13 131.94 61.05 131.86 60.92L117.77 39L104.1 62.77C104.03 62.89 103.92 62.97 103.79 63.01C103.66 63.05 103.52 63.02 103.41 62.95L91.4398 55.64L76.7098 77.64C76.6298 77.76 76.5098 77.83 76.3698 77.85C76.2298 77.88 76.0898 77.84 75.9798 77.75L66.8598 70.67L60.1098 81.8C60.0098 81.95 59.8498 82.03 59.6798 82.03Z" fill="url(#paint2_linear_710_77)"/>
<path d="M33.8698 92.3202C46.3238 92.3202 56.4198 82.2242 56.4198 69.7702C56.4198 57.3162 46.3238 47.2202 33.8698 47.2202C21.4158 47.2202 11.3198 57.3162 11.3198 69.7702C11.3198 82.2242 21.4158 92.3202 33.8698 92.3202Z" fill="url(#paint3_linear_710_77)"/>
<path opacity="0.2" d="M51.0596 55.1902C52.3096 57.7102 53.0296 60.5102 53.0296 63.4502C53.0296 73.7802 44.2396 82.5602 33.9196 82.5602C23.5496 82.5602 14.8096 73.8102 14.8096 63.4502C14.8096 60.4202 15.5796 57.5302 16.9096 54.9502C13.4496 58.9102 11.3296 64.0902 11.3296 69.7602C11.3296 82.2102 21.4296 92.3102 33.8796 92.3102C46.3296 92.3102 56.4296 82.2102 56.4296 69.7602C56.4196 64.2102 54.3996 59.1302 51.0596 55.1902Z" fill="url(#paint4_linear_710_77)"/>
<path d="M27.0097 75.3004C26.8697 75.3004 26.7298 75.2404 26.6298 75.1304C26.4498 74.9204 26.4698 74.6104 26.6798 74.4204L37.1998 65.2904C37.4098 65.1104 37.7197 65.1304 37.9097 65.3404C38.0897 65.5504 38.0698 65.8604 37.8598 66.0504L27.3398 75.1804C27.2398 75.2604 27.1297 75.3004 27.0097 75.3004Z" fill="url(#paint5_linear_710_77)"/>
<path d="M39.1 75.0404C39.09 75.0404 39.09 75.0404 39.08 75.0404C38.8 75.0304 38.59 74.7904 38.6 74.5204L39.02 64.3104L28.47 64.0404C28.19 64.0304 27.98 63.8004 27.98 63.5304C27.99 63.2504 28.2 63.0304 28.49 63.0404L39.54 63.3204C39.67 63.3204 39.8 63.3804 39.89 63.4804C39.98 63.5804 40.03 63.7104 40.02 63.8404L39.57 74.5604C39.59 74.8304 39.37 75.0404 39.1 75.0404Z" fill="url(#paint6_linear_710_77)"/>
<path d="M66.48 70.8198C66.2 70.8198 65.98 70.5998 65.98 70.3198V69.8198C65.98 69.5398 66.2 69.3198 66.48 69.3198C66.76 69.3198 66.98 69.5398 66.98 69.8198V70.3198C66.98 70.5998 66.76 70.8198 66.48 70.8198Z" fill="url(#paint7_linear_710_77)"/>
<path d="M66.48 85.7601C66.2 85.7601 65.98 85.5401 65.98 85.2601V84.2601C65.98 83.9801 66.2 83.7601 66.48 83.7601C66.76 83.7601 66.98 83.9801 66.98 84.2601V85.2601C66.98 85.5401 66.76 85.7601 66.48 85.7601ZM66.48 82.7701C66.2 82.7701 65.98 82.5501 65.98 82.2701V81.2701C65.98 80.9901 66.2 80.7701 66.48 80.7701C66.76 80.7701 66.98 80.9901 66.98 81.2701V82.2701C66.98 82.5501 66.76 82.7701 66.48 82.7701ZM66.48 79.7801C66.2 79.7801 65.98 79.5601 65.98 79.2801V78.2801C65.98 78.0001 66.2 77.7801 66.48 77.7801C66.76 77.7801 66.98 78.0001 66.98 78.2801V79.2801C66.98 79.5601 66.76 79.7801 66.48 79.7801ZM66.48 76.8001C66.2 76.8001 65.98 76.5801 65.98 76.3001V75.3001C65.98 75.0201 66.2 74.8001 66.48 74.8001C66.76 74.8001 66.98 75.0201 66.98 75.3001V76.3001C66.98 76.5701 66.76 76.8001 66.48 76.8001ZM66.48 73.8101C66.2 73.8101 65.98 73.5901 65.98 73.3101V72.3101C65.98 72.0301 66.2 71.8101 66.48 71.8101C66.76 71.8101 66.98 72.0301 66.98 72.3101V73.3101C66.98 73.5801 66.76 73.8101 66.48 73.8101Z" fill="url(#paint8_linear_710_77)"/>
<path d="M66.48 88.25C66.2 88.25 65.98 88.03 65.98 87.75V87.25C65.98 86.97 66.2 86.75 66.48 86.75C66.76 86.75 66.98 86.97 66.98 87.25V87.75C66.98 88.03 66.76 88.25 66.48 88.25Z" fill="url(#paint9_linear_710_77)"/>
<path d="M91.2798 55.3101C90.9998 55.3101 90.7798 55.0901 90.7798 54.8101V54.3101C90.7798 54.0301 90.9998 53.8101 91.2798 53.8101C91.5598 53.8101 91.7798 54.0301 91.7798 54.3101V54.8101C91.7798 55.0901 91.5598 55.3101 91.2798 55.3101Z" fill="url(#paint10_linear_710_77)"/>
<path d="M91.2798 85.7198C90.9998 85.7198 90.7798 85.4998 90.7798 85.2198V84.2098C90.7798 83.9298 90.9998 83.7098 91.2798 83.7098C91.5598 83.7098 91.7798 83.9298 91.7798 84.2098V85.2198C91.7798 85.4998 91.5598 85.7198 91.2798 85.7198ZM91.2798 82.6798C90.9998 82.6798 90.7798 82.4598 90.7798 82.1798V81.1698C90.7798 80.8898 90.9998 80.6698 91.2798 80.6698C91.5598 80.6698 91.7798 80.8898 91.7798 81.1698V82.1798C91.7798 82.4598 91.5598 82.6798 91.2798 82.6798ZM91.2798 79.6398C90.9998 79.6398 90.7798 79.4198 90.7798 79.1398V78.1298C90.7798 77.8498 90.9998 77.6298 91.2798 77.6298C91.5598 77.6298 91.7798 77.8498 91.7798 78.1298V79.1398C91.7798 79.4198 91.5598 79.6398 91.2798 79.6398ZM91.2798 76.5998C90.9998 76.5998 90.7798 76.3798 90.7798 76.0998V75.0898C90.7798 74.8098 90.9998 74.5898 91.2798 74.5898C91.5598 74.5898 91.7798 74.8098 91.7798 75.0898V76.0998C91.7798 76.3798 91.5598 76.5998 91.2798 76.5998ZM91.2798 73.5598C90.9998 73.5598 90.7798 73.3398 90.7798 73.0598V72.0499C90.7798 71.7699 90.9998 71.5499 91.2798 71.5499C91.5598 71.5499 91.7798 71.7699 91.7798 72.0499V73.0598C91.7798 73.3298 91.5598 73.5598 91.2798 73.5598ZM91.2798 70.5198C90.9998 70.5198 90.7798 70.2998 90.7798 70.0198V68.9998C90.7798 68.7198 90.9998 68.4998 91.2798 68.4998C91.5598 68.4998 91.7798 68.7198 91.7798 68.9998V70.0098C91.7798 70.2898 91.5598 70.5198 91.2798 70.5198ZM91.2798 67.4698C90.9998 67.4698 90.7798 67.2498 90.7798 66.9698V65.9598C90.7798 65.6798 90.9998 65.4598 91.2798 65.4598C91.5598 65.4598 91.7798 65.6798 91.7798 65.9598V66.9698C91.7798 67.2498 91.5598 67.4698 91.2798 67.4698ZM91.2798 64.4298C90.9998 64.4298 90.7798 64.2098 90.7798 63.9298V62.9198C90.7798 62.6398 90.9998 62.4198 91.2798 62.4198C91.5598 62.4198 91.7798 62.6398 91.7798 62.9198V63.9298C91.7798 64.2098 91.5598 64.4298 91.2798 64.4298ZM91.2798 61.3898C90.9998 61.3898 90.7798 61.1698 90.7798 60.8898V59.8798C90.7798 59.5998 90.9998 59.3798 91.2798 59.3798C91.5598 59.3798 91.7798 59.5998 91.7798 59.8798V60.8898C91.7798 61.1698 91.5598 61.3898 91.2798 61.3898ZM91.2798 58.3498C90.9998 58.3498 90.7798 58.1298 90.7798 57.8498V56.8398C90.7798 56.5598 90.9998 56.3398 91.2798 56.3398C91.5598 56.3398 91.7798 56.5598 91.7798 56.8398V57.8498C91.7798 58.1298 91.5598 58.3498 91.2798 58.3498Z" fill="url(#paint11_linear_710_77)"/>
<path d="M91.2798 88.25C90.9998 88.25 90.7798 88.03 90.7798 87.75V87.25C90.7798 86.97 90.9998 86.75 91.2798 86.75C91.5598 86.75 91.7798 86.97 91.7798 87.25V87.75C91.7798 88.03 91.5598 88.25 91.2798 88.25Z" fill="url(#paint12_linear_710_77)"/>
<path d="M117.74 39.8701C117.46 39.8701 117.24 39.6501 117.24 39.3701V38.8701C117.24 38.5901 117.46 38.3701 117.74 38.3701C118.02 38.3701 118.24 38.5901 118.24 38.8701V39.3701C118.24 39.6501 118.02 39.8701 117.74 39.8701Z" fill="url(#paint13_linear_710_77)"/>
<path d="M117.74 85.7102C117.46 85.7102 117.24 85.4902 117.24 85.2102V84.1902C117.24 83.9102 117.46 83.6902 117.74 83.6902C118.02 83.6902 118.24 83.9102 118.24 84.1902V85.2102C118.24 85.4902 118.02 85.7102 117.74 85.7102ZM117.74 82.6602C117.46 82.6602 117.24 82.4402 117.24 82.1602V81.1402C117.24 80.8602 117.46 80.6402 117.74 80.6402C118.02 80.6402 118.24 80.8602 118.24 81.1402V82.1602C118.24 82.4302 118.02 82.6602 117.74 82.6602ZM117.74 79.6002C117.46 79.6002 117.24 79.3802 117.24 79.1002V78.0802C117.24 77.8002 117.46 77.5802 117.74 77.5802C118.02 77.5802 118.24 77.8002 118.24 78.0802V79.1002C118.24 79.3802 118.02 79.6002 117.74 79.6002ZM117.74 76.5402C117.46 76.5402 117.24 76.3202 117.24 76.0402V75.0201C117.24 74.7401 117.46 74.5201 117.74 74.5201C118.02 74.5201 118.24 74.7401 118.24 75.0201V76.0402C118.24 76.3202 118.02 76.5402 117.74 76.5402ZM117.74 73.4902C117.46 73.4902 117.24 73.2702 117.24 72.9902V71.9702C117.24 71.6902 117.46 71.4702 117.74 71.4702C118.02 71.4702 118.24 71.6902 118.24 71.9702V72.9902C118.24 73.2602 118.02 73.4902 117.74 73.4902ZM117.74 70.4302C117.46 70.4302 117.24 70.2102 117.24 69.9302V68.9102C117.24 68.6302 117.46 68.4102 117.74 68.4102C118.02 68.4102 118.24 68.6302 118.24 68.9102V69.9302C118.24 70.2102 118.02 70.4302 117.74 70.4302ZM117.74 67.3801C117.46 67.3801 117.24 67.1601 117.24 66.8801V65.8602C117.24 65.5802 117.46 65.3602 117.74 65.3602C118.02 65.3602 118.24 65.5802 118.24 65.8602V66.8801C118.24 67.1501 118.02 67.3801 117.74 67.3801ZM117.74 64.3202C117.46 64.3202 117.24 64.1002 117.24 63.8202V62.8002C117.24 62.5202 117.46 62.3002 117.74 62.3002C118.02 62.3002 118.24 62.5202 118.24 62.8002V63.8202C118.24 64.1002 118.02 64.3202 117.74 64.3202ZM117.74 61.2602C117.46 61.2602 117.24 61.0402 117.24 60.7602V59.7402C117.24 59.4602 117.46 59.2402 117.74 59.2402C118.02 59.2402 118.24 59.4602 118.24 59.7402V60.7602C118.24 61.0402 118.02 61.2602 117.74 61.2602ZM117.74 58.2102C117.46 58.2102 117.24 57.9902 117.24 57.7102V56.6902C117.24 56.4102 117.46 56.1902 117.74 56.1902C118.02 56.1902 118.24 56.4102 118.24 56.6902V57.7102C118.24 57.9802 118.02 58.2102 117.74 58.2102ZM117.74 55.1502C117.46 55.1502 117.24 54.9302 117.24 54.6502V53.6301C117.24 53.3501 117.46 53.1301 117.74 53.1301C118.02 53.1301 118.24 53.3501 118.24 53.6301V54.6502C118.24 54.9302 118.02 55.1502 117.74 55.1502ZM117.74 52.0901C117.46 52.0901 117.24 51.8701 117.24 51.5901V50.5702C117.24 50.2902 117.46 50.0702 117.74 50.0702C118.02 50.0702 118.24 50.2902 118.24 50.5702V51.5901C118.24 51.8701 118.02 52.0901 117.74 52.0901ZM117.74 49.0402C117.46 49.0402 117.24 48.8202 117.24 48.5402V47.5201C117.24 47.2401 117.46 47.0201 117.74 47.0201C118.02 47.0201 118.24 47.2401 118.24 47.5201V48.5402C118.24 48.8102 118.02 49.0402 117.74 49.0402ZM117.74 45.9802C117.46 45.9802 117.24 45.7602 117.24 45.4802V44.4602C117.24 44.1802 117.46 43.9602 117.74 43.9602C118.02 43.9602 118.24 44.1802 118.24 44.4602V45.4802C118.24 45.7602 118.02 45.9802 117.74 45.9802ZM117.74 42.9302C117.46 42.9302 117.24 42.7102 117.24 42.4302V41.4102C117.24 41.1302 117.46 40.9102 117.74 40.9102C118.02 40.9102 118.24 41.1302 118.24 41.4102V42.4302C118.24 42.7002 118.02 42.9302 117.74 42.9302Z" fill="url(#paint14_linear_710_77)"/>
<path d="M117.74 88.25C117.46 88.25 117.24 88.03 117.24 87.75V87.25C117.24 86.97 117.46 86.75 117.74 86.75C118.02 86.75 118.24 86.97 118.24 87.25V87.75C118.24 88.03 118.02 88.25 117.74 88.25Z" fill="url(#paint15_linear_710_77)"/>
<mask id="mask0_710_77" style="mask-type:alpha" maskUnits="userSpaceOnUse" x="89" y="53" width="4" height="4">
<path d="M92.8296 55.13C92.7796 55.98 92.0396 56.63 91.1896 56.58C90.3396 56.53 89.6796 55.79 89.7396 54.94C89.7896 54.08 90.5296 53.44 91.3796 53.49C92.2396 53.54 92.8896 54.27 92.8296 55.13Z" fill="url(#paint16_linear_710_77)"/>
</mask>
<g mask="url(#mask0_710_77)">
<path d="M92.8296 55.13C92.7796 55.98 92.0396 56.63 91.1896 56.58C90.3396 56.53 89.6796 55.79 89.7396 54.94C89.7896 54.08 90.5296 53.44 91.3796 53.49C92.2396 53.54 92.8896 54.27 92.8296 55.13Z" fill="url(#paint17_linear_710_77)"/>
</g>
<mask id="mask1_710_77" style="mask-type:alpha" maskUnits="userSpaceOnUse" x="116" y="36" width="4" height="4">
<path d="M119.29 38.13C119.24 38.98 118.5 39.63 117.65 39.58C116.8 39.53 116.14 38.79 116.2 37.94C116.25 37.08 116.99 36.44 117.84 36.49C118.69 36.54 119.34 37.27 119.29 38.13Z" fill="url(#paint18_linear_710_77)"/>
</mask>
<g mask="url(#mask1_710_77)">
<path d="M119.29 38.13C119.24 38.98 118.5 39.63 117.65 39.58C116.8 39.53 116.14 38.79 116.2 37.94C116.25 37.08 116.99 36.44 117.84 36.49C118.69 36.54 119.34 37.27 119.29 38.13Z" fill="url(#paint19_linear_710_77)"/>
</g>
<mask id="mask2_710_77" style="mask-type:alpha" maskUnits="userSpaceOnUse" x="64" y="68" width="5" height="4">
<path d="M68.0298 69.9201C67.9798 70.7701 67.2398 71.4201 66.3898 71.3701C65.5398 71.3201 64.8798 70.5801 64.9398 69.7301C64.9898 68.8701 65.7298 68.2301 66.5798 68.2801C67.4398 68.3201 68.0898 69.0601 68.0298 69.9201Z" fill="url(#paint20_linear_710_77)"/>
</mask>
<g mask="url(#mask2_710_77)">
<path d="M68.0298 69.9201C67.9798 70.7701 67.2398 71.4201 66.3898 71.3701C65.5398 71.3201 64.8798 70.5801 64.9398 69.7301C64.9898 68.8701 65.7298 68.2301 66.5798 68.2801C67.4398 68.3201 68.0898 69.0601 68.0298 69.9201Z" fill="url(#paint21_linear_710_77)"/>
</g>
<path d="M53.6199 39.8002H42.4799C39.1499 39.8002 36.4199 37.0702 36.4199 33.7402C36.4199 30.4102 39.1499 27.6802 42.4799 27.6802H53.6199C56.9499 27.6802 59.6799 30.4102 59.6799 33.7402C59.6799 37.0702 56.9499 39.8002 53.6199 39.8002Z" fill="#F4F4FA"/>
<path d="M137.5 28.2402H131.24C130.96 28.2402 130.74 28.0202 130.74 27.7402C130.74 27.4602 130.96 27.2402 131.24 27.2402H137.5C137.78 27.2402 138 27.4602 138 27.7402C138 28.0202 137.77 28.2402 137.5 28.2402Z" fill="#DFDFEA"/>
<path d="M137.5 31.2402H131.24C130.96 31.2402 130.74 31.0202 130.74 30.7402C130.74 30.4602 130.96 30.2402 131.24 30.2402H137.5C137.78 30.2402 138 30.4602 138 30.7402C138 31.0202 137.77 31.2402 137.5 31.2402Z" fill="#DFDFEA"/>
<path d="M137.5 34.2402H131.24C130.96 34.2402 130.74 34.0202 130.74 33.7402C130.74 33.4602 130.96 33.2402 131.24 33.2402H137.5C137.78 33.2402 138 33.4602 138 33.7402C138 34.0202 137.77 34.2402 137.5 34.2402Z" fill="#DFDFEA"/>
<defs>
<linearGradient id="paint0_linear_710_77" x1="119.138" y1="2.09184" x2="115.341" y2="2.09184" gradientUnits="userSpaceOnUse">
<stop stop-color="#EB67A2"/>
<stop offset="1" stop-color="#E73987"/>
</linearGradient>
<linearGradient id="paint1_linear_710_77" x1="102.067" y1="96.0413" x2="93.4881" y2="41.8754" gradientUnits="userSpaceOnUse">
<stop stop-color="white" stop-opacity="0"/>
<stop offset="0.2511" stop-color="#D6EEEA" stop-opacity="0.1507"/>
<stop offset="0.8133" stop-color="#6EC4B4" stop-opacity="0.488"/>
<stop offset="1" stop-color="#4AB6A1" stop-opacity="0.6"/>
</linearGradient>
<linearGradient id="paint2_linear_710_77" x1="59.1774" y1="59.7834" x2="137.686" y2="59.7834" gradientUnits="userSpaceOnUse">
<stop stop-color="#9AD6CA"/>
<stop offset="1" stop-color="#4AB6A1"/>
</linearGradient>
<linearGradient id="paint3_linear_710_77" x1="33.8707" y1="47.2225" x2="33.8707" y2="92.3192" gradientUnits="userSpaceOnUse">
<stop stop-color="#9AD6CA"/>
<stop offset="1" stop-color="#4AB6A1"/>
</linearGradient>
<linearGradient id="paint4_linear_710_77" x1="33.8705" y1="47.2225" x2="33.8705" y2="92.3192" gradientUnits="userSpaceOnUse">
<stop stop-color="#80CCBD"/>
<stop offset="1" stop-color="#4AB6A1"/>
</linearGradient>
<linearGradient id="paint5_linear_710_77" x1="26.5115" y1="70.2377" x2="38.0364" y2="70.2377" gradientUnits="userSpaceOnUse">
<stop stop-color="#80CCBD"/>
<stop offset="1" stop-color="#4AB6A1"/>
</linearGradient>
<linearGradient id="paint6_linear_710_77" x1="27.9925" y1="69.0401" x2="40.0464" y2="69.0401" gradientUnits="userSpaceOnUse">
<stop stop-color="#80CCBD"/>
<stop offset="1" stop-color="#4AB6A1"/>
</linearGradient>
<linearGradient id="paint7_linear_710_77" x1="65.9844" y1="70.0691" x2="66.9844" y2="70.0691" gradientUnits="userSpaceOnUse">
<stop stop-color="#9AD6CA"/>
<stop offset="1" stop-color="#4AB6A1"/>
</linearGradient>
<linearGradient id="paint8_linear_710_77" x1="65.9844" y1="78.7857" x2="66.9844" y2="78.7857" gradientUnits="userSpaceOnUse">
<stop stop-color="#9AD6CA"/>
<stop offset="1" stop-color="#4AB6A1"/>
</linearGradient>
<linearGradient id="paint9_linear_710_77" x1="65.9844" y1="87.501" x2="66.9844" y2="87.501" gradientUnits="userSpaceOnUse">
<stop stop-color="#9AD6CA"/>
<stop offset="1" stop-color="#4AB6A1"/>
</linearGradient>
<linearGradient id="paint10_linear_710_77" x1="90.784" y1="54.5597" x2="91.784" y2="54.5597" gradientUnits="userSpaceOnUse">
<stop stop-color="#9AD6CA"/>
<stop offset="1" stop-color="#4AB6A1"/>
</linearGradient>
<linearGradient id="paint11_linear_710_77" x1="90.784" y1="71.0301" x2="91.784" y2="71.0301" gradientUnits="userSpaceOnUse">
<stop stop-color="#9AD6CA"/>
<stop offset="1" stop-color="#4AB6A1"/>
</linearGradient>
<linearGradient id="paint12_linear_710_77" x1="90.784" y1="87.501" x2="91.784" y2="87.501" gradientUnits="userSpaceOnUse">
<stop stop-color="#9AD6CA"/>
<stop offset="1" stop-color="#4AB6A1"/>
</linearGradient>
<linearGradient id="paint13_linear_710_77" x1="117.243" y1="39.1192" x2="118.243" y2="39.1192" gradientUnits="userSpaceOnUse">
<stop stop-color="#9AD6CA"/>
<stop offset="1" stop-color="#4AB6A1"/>
</linearGradient>
<linearGradient id="paint14_linear_710_77" x1="117.243" y1="63.3105" x2="118.243" y2="63.3105" gradientUnits="userSpaceOnUse">
<stop stop-color="#9AD6CA"/>
<stop offset="1" stop-color="#4AB6A1"/>
</linearGradient>
<linearGradient id="paint15_linear_710_77" x1="117.243" y1="87.501" x2="118.243" y2="87.501" gradientUnits="userSpaceOnUse">
<stop stop-color="#9AD6CA"/>
<stop offset="1" stop-color="#4AB6A1"/>
</linearGradient>
<linearGradient id="paint16_linear_710_77" x1="89.7354" y1="54.9351" x2="92.8317" y2="55.1274" gradientUnits="userSpaceOnUse">
<stop offset="0.1314" stop-color="#F2F2F2"/>
<stop offset="0.9994" stop-color="white"/>
</linearGradient>
<linearGradient id="paint17_linear_710_77" x1="89.7324" y1="55.0312" x2="92.8347" y2="55.0312" gradientUnits="userSpaceOnUse">
<stop stop-color="#9AD6CA"/>
<stop offset="1" stop-color="#4AB6A1"/>
</linearGradient>
<linearGradient id="paint18_linear_710_77" x1="116.195" y1="37.9374" x2="119.291" y2="38.1297" gradientUnits="userSpaceOnUse">
<stop offset="0.1314" stop-color="#F2F2F2"/>
<stop offset="0.9994" stop-color="white"/>
</linearGradient>
<linearGradient id="paint19_linear_710_77" x1="116.192" y1="38.0335" x2="119.294" y2="38.0335" gradientUnits="userSpaceOnUse">
<stop stop-color="#9AD6CA"/>
<stop offset="1" stop-color="#4AB6A1"/>
</linearGradient>
<linearGradient id="paint20_linear_710_77" x1="64.9361" y1="69.723" x2="68.0323" y2="69.9153" gradientUnits="userSpaceOnUse">
<stop offset="0.1314" stop-color="#F2F2F2"/>
<stop offset="0.9994" stop-color="white"/>
</linearGradient>
<linearGradient id="paint21_linear_710_77" x1="64.933" y1="69.8191" x2="68.0353" y2="69.8191" gradientUnits="userSpaceOnUse">
<stop stop-color="#9AD6CA"/>
<stop offset="1" stop-color="#4AB6A1"/>
</linearGradient>
</defs>
</svg>
