<?xml version="1.0" encoding="UTF-8"?>
<svg width="104px" height="104px" viewBox="0 0 104 104" version="1.1" xmlns="http://www.w3.org/2000/svg" xmlns:xlink="http://www.w3.org/1999/xlink">
    <!-- Generator: Sketch 42 (36781) - http://www.bohemiancoding.com/sketch -->
    <title>medium</title>
    <desc>Created with Sketch.</desc>
    <defs></defs>
    <g id="Page-1" stroke="none" stroke-width="1" fill="none" fill-rule="evenodd">
        <g id="medium" fill-rule="nonzero">
            <g id="user/medium">
                <g id="Page-1">
                    <g id="user/medium">
                        <g id="Page-1">
                            <g id="user">
                                <rect id="Rectangle-1" fill="#EEEEEE" x="0" y="0" width="104" height="104"></rect>
                                <g id="Layer_1" transform="translate(15.600000, 18.200000)" fill="#FFFFFF">
                                    <g id="Group">
                                        <path d="M73.8363085,85.8 L0.00624030945,85.8 L0.00624030945,58.395585 L0.0716317217,58.395585 C0.156007737,57.8076184 0.338998221,56.7432772 0.711834739,55.278887 C2.29072093,49.062335 13.2516927,47.1536798 16.5022787,45.7135031 C19.7539194,44.2712209 27.8033913,41.6966945 27.8033913,41.6966945 L27.8144656,41.6966945 L28.0807774,36.931373 C28.0807774,36.931373 26.3014982,34.4336982 25.7899686,32.5424135 C25.278439,30.6500761 25.0469323,29.2088466 25.0469323,29.2088466 C25.0469323,29.2088466 23.6542007,29.7031178 23.1437258,28.4419104 C22.6327236,27.1807031 20.822858,22.0458626 21.1477057,20.5593644 C21.472026,19.0728663 22.3105126,19.4744945 22.3105126,19.4744945 C22.3105126,19.4744945 21.2473749,12.5625939 21.5263431,11.2119018 C21.8053113,9.86226259 20.4020327,0.010001227 37.1221948,0.00157914111 C53.6836248,0.010001227 52.4106014,9.8722638 52.6900972,11.2234822 C52.9680107,12.5741742 51.9001266,19.4802847 51.9001266,19.4802847 C51.9001266,19.4802847 52.7365041,19.0744454 53.0624063,20.5604172 C53.3877812,22.0469153 51.5763336,27.1791239 51.0642767,28.4408577 C50.5538018,29.7015387 49.1610702,29.2025301 49.1610702,29.2025301 C49.1610702,29.2025301 48.9290362,30.6374429 48.4175065,32.5287276 C47.907559,34.4200123 46.1261704,36.583962 46.1261704,36.583962 L46.4003924,41.0845141 C47.4798781,41.7109067 54.5563892,43.9527607 57.5549016,45.2829239 C60.8065422,46.7246798 71.762768,48.9017889 73.3421816,55.117815 C73.7260924,56.626947 73.8146874,57.7728772 73.8310352,58.3961118 L73.8373631,58.3961118 L73.8373631,85.8 L73.8363085,85.8 L73.8363085,85.8 Z" id="Shape"></path>
                                    </g>
                                </g>
                            </g>
                        </g>
                    </g>
                </g>
            </g>
        </g>
    </g>
</svg>