<svg width="281" height="269" viewBox="0 0 281 269" fill="none" xmlns="http://www.w3.org/2000/svg">
<circle cx="199.759" cy="80.3039" r="32.2402" stroke="#6600DE"/>
<path d="M275.568 61.1245C271.203 58.9418 261.017 58.9418 261.017 58.9418L253.741 43.6631C253.741 43.6631 261.017 34.9323 260.289 30.567C259.562 26.2017 245.738 12.3781 240.645 13.1056C235.552 13.8331 228.277 21.8363 228.277 21.8363L210.815 16.0158C210.815 16.0158 209.36 4.37526 205.722 2.19209C202.084 0.00892746 182.44 0.736867 180.258 5.10249C178.075 9.46811 178.075 18.9261 178.075 18.9261L161.341 27.6568C161.341 27.6568 151.883 20.3811 147.517 21.1087C143.152 21.8363 129.329 34.9324 130.784 41.4804C132.239 48.0284 140.242 53.8489 140.242 53.8489L135.149 70.5828C135.149 70.5828 121.325 72.7654 119.87 75.6757C118.415 78.586 118.415 97.5025 122.78 101.14C127.146 104.778 138.787 104.051 138.787 104.051L146.062 117.874C146.062 117.874 138.059 127.332 138.787 132.425C139.514 137.518 154.066 149.887 159.158 149.159C164.251 148.432 171.527 139.701 171.527 139.701L187.533 144.794C187.533 144.794 188.261 157.89 191.899 160.073C195.536 162.255 215.908 162.983 218.818 157.89C221.729 152.797 221.001 142.611 221.001 142.611L237.007 134.608C237.007 134.608 246.466 142.611 250.831 141.156C255.196 139.701 268.292 128.06 267.565 122.24C266.837 116.419 258.834 109.143 258.834 109.143L263.927 92.4096C263.927 92.4096 276.296 89.4993 278.478 86.5891C280.661 83.6789 279.933 63.3072 275.568 61.1245Z" stroke="#6600DE"/>
<path d="M92.3336 206.499C92.3336 219.755 80.7335 230.563 66.3432 230.563C51.9528 230.563 40.3527 219.755 40.3527 206.499C40.3527 193.244 51.9528 182.435 66.3432 182.435C80.7335 182.435 92.3336 193.244 92.3336 206.499Z" stroke="#6600DE"/>
<path d="M127.681 192.11C124.149 190.472 115.907 190.472 115.907 190.472L110.021 179.009C110.021 179.009 115.907 172.458 115.319 169.183C114.73 165.908 103.545 155.537 99.4244 156.082C95.3037 156.628 89.4169 162.633 89.4169 162.633L75.2887 158.266C75.2887 158.266 74.1114 149.532 71.168 147.894C68.2246 146.256 52.3303 146.803 50.5643 150.078C48.7983 153.353 48.7983 160.449 48.7983 160.449L35.2587 167C35.2587 167 27.6057 161.541 24.0738 162.087C20.5419 162.633 9.35703 172.459 10.5343 177.371C11.7115 182.284 18.187 186.651 18.187 186.651L14.0663 199.206C14.0663 199.206 2.88132 200.844 1.7041 203.027C0.526874 205.211 0.526804 219.403 4.0588 222.132C7.5908 224.862 17.0097 224.316 17.0097 224.316L22.8965 234.687C22.8965 234.687 16.421 241.784 17.0097 245.605C17.5984 249.426 29.3719 258.706 33.4926 258.16C37.6134 257.614 43.5002 251.063 43.5002 251.063L56.4511 254.885C56.4511 254.885 57.0397 264.71 59.9831 266.348C62.9265 267.985 79.4094 268.531 81.7641 264.71C84.1188 260.889 83.5302 253.247 83.5302 253.247L96.4811 247.242C96.4811 247.242 104.134 253.247 107.666 252.155C111.198 251.063 121.794 242.33 121.205 237.963C120.617 233.596 114.141 228.137 114.141 228.137L118.262 215.582C118.262 215.582 128.27 213.399 130.036 211.215C131.802 209.032 131.213 193.747 127.681 192.11Z" stroke="#6600DE"/>
</svg>
