<svg width="48" height="48" viewBox="0 0 48 48" fill="none" xmlns="http://www.w3.org/2000/svg">
<path d="M23.9021 45.9978C36.1065 45.9978 46 36.1043 46 23.8999C46 11.6956 36.1065 1.802 23.9021 1.802C11.6978 1.802 1.8042 11.6956 1.8042 23.8999C1.8042 36.1043 11.6978 45.9978 23.9021 45.9978Z" stroke="white" stroke-width="2.2" stroke-linecap="round"/>
<path d="M19.8712 12.4228C19.8712 12.4228 16.3269 12.3472 12.6031 15.1401C12.6031 15.1401 8.8801 21.8886 8.8801 30.2154C8.8801 30.2154 11.0556 33.9633 16.7706 34.1439C16.7706 34.1439 17.7229 32.9818 18.4987 31.9991C15.2146 31.0164 13.9756 28.9484 13.9756 28.9484C13.9756 28.9484 14.2325 29.1289 14.698 29.3873C14.7239 29.4098 14.7518 29.444 14.8035 29.4653C14.8811 29.5214 14.9593 29.5393 15.0369 29.5931C15.6834 29.9552 16.3259 30.2387 16.9206 30.471C17.9809 30.8841 19.253 31.2975 20.727 31.5824C22.6664 31.949 24.9403 32.0812 27.4228 31.6216C28.6382 31.4147 29.8806 31.0533 31.1736 30.5102C32.0786 30.1739 33.0861 29.68 34.1464 28.9821C34.1464 28.9821 32.8553 31.1035 29.4677 32.0605C30.2434 33.0432 31.1736 34.1555 31.1736 34.1555C36.8885 33.9745 39.0863 30.2269 39.0863 30.2269C39.0863 21.9001 35.3633 15.1516 35.3633 15.1516C31.6395 12.3591 28.0952 12.4344 28.0952 12.4344L27.734 12.8458C32.1301 14.1905 34.1742 16.1299 34.1742 16.1299C31.4848 14.6559 28.8459 13.9365 26.3892 13.6515C24.5274 13.4481 22.7434 13.4952 21.1659 13.702C21.0108 13.702 20.8821 13.7411 20.727 13.7579C19.8219 13.8359 17.6205 14.1706 14.8535 15.3863C13.8967 15.8263 13.331 16.1362 13.331 16.1362C13.331 16.1362 15.4777 14.0969 20.1324 12.7523L19.8712 12.4413V12.4228ZM18.2376 21.2691C19.9982 21.2691 21.4191 22.8133 21.3882 24.6975C21.3882 26.5817 19.9982 28.1261 18.2376 28.1261C16.5078 28.1261 15.0869 26.5817 15.0869 24.6975C15.0869 22.8133 16.4769 21.2691 18.2376 21.2691V21.2691ZM29.5121 21.2691C31.2728 21.2691 32.6628 22.8133 32.6628 24.6975C32.6628 26.5817 31.2728 28.1261 29.5121 28.1261C27.7823 28.1261 26.3615 26.5817 26.3615 24.6975C26.3615 22.8133 27.7514 21.2691 29.5121 21.2691Z" fill="white"/>
</svg>
