<svg width="48" height="48" viewBox="0 0 48 48" fill="none" xmlns="http://www.w3.org/2000/svg">
<path d="M24.0979 46.1958C36.3023 46.1958 46.1958 36.3022 46.1958 24.0979C46.1958 11.8936 36.3023 2 24.0979 2C11.8936 2 2 11.8936 2 24.0979C2 36.3022 11.8936 46.1958 24.0979 46.1958Z" stroke="white" stroke-width="2.2" stroke-linecap="round"/>
<path d="M19.1177 33.7747C19.1373 33.6054 18.8573 33.2193 17.705 31.8243C16.7705 30.6933 16.2369 29.9779 16.1793 29.7789C16.1193 29.5709 16.0986 27.9375 16.115 24.6958L16.139 19.9187L19.3335 26.8891C21.0904 30.7229 22.5656 33.8972 22.6116 33.9432C22.7295 34.0615 23.2824 34.0473 23.3803 33.9263C23.4251 33.8697 24.6758 30.7363 26.1597 26.9627L28.8576 20.1018L28.8797 25.773L28.9018 31.4442L27.7885 32.5449C26.9656 33.3586 26.6815 33.6906 26.6996 33.817L26.7242 33.9878H31.6475H36.5709V33.8017C36.5709 33.6723 36.2395 33.2833 35.4836 32.5256L34.3964 31.4358V24.0971V16.7585L35.5041 15.7008C36.4243 14.8224 36.6119 14.6035 36.6119 14.4075V14.1714H33.141H29.67L27.2604 20.1821C25.9351 23.488 24.8277 26.2201 24.7995 26.2535C24.7711 26.2871 23.5073 23.5912 21.9906 20.2632L19.233 14.2124L15.573 14.1957L11.9131 14.1789L11.9154 14.4052C11.9172 14.5751 12.2453 15.0278 13.2283 16.2166L14.5388 17.8015V23.8326C14.5388 28.1779 14.5129 29.9125 14.4456 30.038C14.3945 30.1339 13.7297 30.9668 12.9686 31.8889C11.6759 33.4554 11.4569 33.8008 11.6403 33.9843C11.6707 34.0179 13.3602 34.029 15.3944 34.0178L19.0929 34.001L19.1177 33.7747Z" fill="white"/>
</svg>
