<svg width="48" height="48" viewBox="0 0 48 48" fill="none" xmlns="http://www.w3.org/2000/svg">
<path d="M24.0979 46.1958C36.3023 46.1958 46.1958 36.3022 46.1958 24.0979C46.1958 11.8936 36.3023 2 24.0979 2C11.8936 2 2 11.8936 2 24.0979C2 36.3022 11.8936 46.1958 24.0979 46.1958Z" stroke="white" stroke-width="2.2" stroke-linecap="round"/>
<path d="M38.0898 23.2228C38.2054 24.4578 37.6264 25.374 36.6726 26.0811C36.4435 26.2509 36.3727 26.3938 36.4133 26.6882C36.7121 28.8977 36.0686 30.8346 34.616 32.5007C32.7843 34.601 30.405 35.7474 27.733 36.3504C25.8764 36.7691 23.9968 36.8588 22.1069 36.6222C19.9462 36.3504 17.8854 35.7569 16.0277 34.5844C14.4002 33.5577 13.06 32.2561 12.2811 30.4556C11.7334 29.1894 11.5928 27.8732 11.8188 26.5164C11.8427 26.3707 11.8136 26.29 11.6803 26.2025C10.8723 25.6616 10.286 24.9478 10.135 23.9616C9.75078 21.4532 11.9812 19.9267 13.8598 20.4244C14.4033 20.5679 14.9063 20.8651 15.4217 21.1034C15.5477 21.1616 15.632 21.1991 15.7695 21.1052C17.2763 20.0774 18.933 19.4048 20.7146 19.0279C21.708 18.8177 22.7098 18.6736 23.7261 18.6815C23.927 18.6825 23.9666 18.5744 24.0135 18.4242C24.5549 16.6987 25.1006 14.9754 25.6441 13.2509C25.8368 12.6387 26.1294 12.4669 26.7552 12.6012C28.262 12.923 29.7687 13.2396 31.2734 13.5696C31.4598 13.6089 31.566 13.5746 31.691 13.43C32.9686 11.9441 34.9513 12.6231 35.5896 13.758C36.3872 15.1784 35.4938 16.9518 33.8475 17.2172C32.65 17.41 31.464 16.6505 31.1453 15.4593C31.0776 15.2077 30.9589 15.1243 30.7205 15.0755C29.5584 14.8395 28.4015 14.5821 27.2436 14.3329C27.1519 14.3161 27.0582 14.3049 26.9416 14.2824C26.4564 15.7924 25.9763 17.2877 25.4827 18.8226C25.7743 18.8506 26.0284 18.8803 26.2825 18.9061C28.5515 19.1364 30.6559 19.8411 32.5657 21.1001C32.6865 21.1786 32.7583 21.1747 32.876 21.0777C33.9058 20.2363 35.0544 20.0874 36.255 20.6163C37.364 21.1091 37.9763 22.0097 38.0898 23.2208L38.0898 23.2228ZM28.4192 28.0637C29.4262 28.0626 30.3217 27.1703 30.3175 26.1728C30.3133 25.1106 29.4522 24.2422 28.4088 24.2452C27.3956 24.2492 26.5126 25.1148 26.5136 26.103C26.5147 27.1839 27.3717 28.0647 28.4192 28.0637ZM28.8691 31.6811C29.0877 31.4283 29.0315 31.1273 28.8305 30.9283C28.5514 30.6514 28.1911 30.5741 27.911 30.735C27.7986 30.7989 27.6955 30.8796 27.5851 30.9474C25.6556 32.1199 23.6396 32.3021 21.5508 31.4339C21.1228 31.2562 20.7292 30.9912 20.3262 30.7572C20.0263 30.5818 19.6494 30.6434 19.362 30.9338C19.1724 31.1243 19.1485 31.4522 19.338 31.721C19.4453 31.8718 19.59 32.0086 19.742 32.1151C21.0478 33.0315 22.5161 33.4135 24.2144 33.4333C24.3987 33.4221 24.7007 33.4052 25.0027 33.375C26.0586 33.2786 27.0655 33 27.9766 32.4524C28.3088 32.2501 28.6129 31.9754 28.869 31.6818L28.8691 31.6811ZM19.8462 28.0637C20.7927 28.0617 21.6997 27.1328 21.6955 26.1685C21.6914 25.1231 20.8136 24.2452 19.7743 24.2463C18.7487 24.2463 17.875 25.1273 17.8771 26.1593C17.8802 27.2026 18.7726 28.0657 19.8462 28.0637Z" fill="white"/>
</svg>
