<svg width="1273" height="898" viewBox="0 0 1273 898" fill="none" xmlns="http://www.w3.org/2000/svg">
<path d="M1 897C1 897 168.636 426.298 471.232 199.577C773.829 -27.144 1272 2.24576 1272 2.24576" stroke="black"/>
<path d="M535.235 310C535.235 310 371.71 426.154 401.665 538.289C431.62 650.425 768 657 768 657" stroke="black"/>
<path d="M882.689 515.002C879 515.054 874.972 516.037 870.896 518.413L850.653 530.973V530.966L768 582.263C773.351 585.834 782.414 587.693 791.732 582.263L894.628 518.411L893.619 517.784C890.713 516.105 886.924 514.942 882.689 515.002V515.002ZM906.504 525.778L900.572 529.46L877.562 543.741C875.624 544.798 873.757 545.969 871.954 547.224L791.757 597.001L871.964 646.785C873.758 648.032 875.615 649.195 877.542 650.246L906.5 668.22L935.416 650.273C937.368 649.209 939.246 648.031 941.062 646.767L1021.25 596.999L941.027 547.206C939.246 545.968 937.402 544.815 935.489 543.769L906.504 525.778ZM906.502 549.08C933.058 549.08 954.451 570.46 954.451 597.001C954.451 623.542 933.058 644.919 906.502 644.919C879.945 644.919 858.556 623.542 858.556 597.001C858.556 570.46 879.945 549.08 906.502 549.08ZM849.704 575.755C847.215 582.372 845.845 589.529 845.845 597.001C845.845 604.47 847.213 611.626 849.7 618.242L815.477 596.999L849.704 575.755ZM963.303 575.762L997.525 597.002L963.305 618.243C965.793 611.628 967.163 604.472 967.163 597.002C967.163 589.533 965.791 582.378 963.303 575.762ZM1033.07 608.33C1029.38 608.383 1025.35 609.363 1021.27 611.739L918.378 675.589L919.388 676.216C922.294 677.895 926.081 679.058 930.316 678.998C934.006 678.946 938.033 677.965 942.11 675.589L962.352 663.029V663.03L1045 611.737L1043.92 611.067C1041.02 609.411 1037.26 608.27 1033.07 608.33V608.33Z" stroke="black" stroke-linecap="round"/>
<path d="M455.407 137H453.772V126.163L450.494 127.367V125.891L455.152 124.142H455.407V137ZM468.195 131.542C468.195 133.446 467.87 134.861 467.22 135.787C466.569 136.713 465.553 137.176 464.17 137.176C462.805 137.176 461.794 136.725 461.138 135.822C460.481 134.914 460.142 133.561 460.118 131.762V129.591C460.118 127.71 460.443 126.312 461.094 125.398C461.744 124.484 462.764 124.027 464.152 124.027C465.529 124.027 466.543 124.47 467.193 125.354C467.844 126.233 468.178 127.593 468.195 129.433V131.542ZM466.569 129.318C466.569 127.941 466.376 126.939 465.989 126.312C465.603 125.68 464.99 125.363 464.152 125.363C463.32 125.363 462.714 125.677 462.333 126.304C461.952 126.931 461.756 127.895 461.744 129.195V131.797C461.744 133.18 461.943 134.202 462.342 134.864C462.746 135.521 463.355 135.849 464.17 135.849C464.973 135.849 465.567 135.538 465.954 134.917C466.347 134.296 466.552 133.317 466.569 131.981V129.318ZM475.622 137H473.987V126.163L470.709 127.367V125.891L475.367 124.142H475.622V137ZM485.729 137H484.095V126.163L480.816 127.367V125.891L485.475 124.142H485.729V137ZM498.518 131.542C498.518 133.446 498.192 134.861 497.542 135.787C496.892 136.713 495.875 137.176 494.492 137.176C493.127 137.176 492.116 136.725 491.46 135.822C490.804 134.914 490.464 133.561 490.44 131.762V129.591C490.44 127.71 490.766 126.312 491.416 125.398C492.066 124.484 493.086 124.027 494.475 124.027C495.852 124.027 496.865 124.47 497.516 125.354C498.166 126.233 498.5 127.593 498.518 129.433V131.542ZM496.892 129.318C496.892 127.941 496.698 126.939 496.312 126.312C495.925 125.68 495.312 125.363 494.475 125.363C493.643 125.363 493.036 125.677 492.655 126.304C492.274 126.931 492.078 127.895 492.066 129.195V131.797C492.066 133.18 492.266 134.202 492.664 134.864C493.068 135.521 493.678 135.849 494.492 135.849C495.295 135.849 495.89 135.538 496.276 134.917C496.669 134.296 496.874 133.317 496.892 131.981V129.318ZM505.944 137H504.31V126.163L501.031 127.367V125.891L505.689 124.142H505.944V137ZM518.732 131.542C518.732 133.446 518.407 134.861 517.757 135.787C517.106 136.713 516.09 137.176 514.707 137.176C513.342 137.176 512.331 136.725 511.675 135.822C511.019 134.914 510.679 133.561 510.655 131.762V129.591C510.655 127.71 510.98 126.312 511.631 125.398C512.281 124.484 513.301 124.027 514.689 124.027C516.066 124.027 517.08 124.47 517.73 125.354C518.381 126.233 518.715 127.593 518.732 129.433V131.542ZM517.106 129.318C517.106 127.941 516.913 126.939 516.526 126.312C516.14 125.68 515.527 125.363 514.689 125.363C513.857 125.363 513.251 125.677 512.87 126.304C512.489 126.931 512.293 127.895 512.281 129.195V131.797C512.281 133.18 512.48 134.202 512.879 134.864C513.283 135.521 513.893 135.849 514.707 135.849C515.51 135.849 516.104 135.538 516.491 134.917C516.884 134.296 517.089 133.317 517.106 131.981V129.318ZM526.159 137H524.524V126.163L521.246 127.367V125.891L525.904 124.142H526.159V137ZM538.947 131.542C538.947 133.446 538.622 134.861 537.972 135.787C537.321 136.713 536.305 137.176 534.922 137.176C533.557 137.176 532.546 136.725 531.89 135.822C531.233 134.914 530.894 133.561 530.87 131.762V129.591C530.87 127.71 531.195 126.312 531.846 125.398C532.496 124.484 533.516 124.027 534.904 124.027C536.281 124.027 537.295 124.47 537.945 125.354C538.596 126.233 538.93 127.593 538.947 129.433V131.542ZM537.321 129.318C537.321 127.941 537.128 126.939 536.741 126.312C536.354 125.68 535.742 125.363 534.904 125.363C534.072 125.363 533.466 125.677 533.085 126.304C532.704 126.931 532.508 127.895 532.496 129.195V131.797C532.496 133.18 532.695 134.202 533.094 134.864C533.498 135.521 534.107 135.849 534.922 135.849C535.725 135.849 536.319 135.538 536.706 134.917C537.099 134.296 537.304 133.317 537.321 131.981V129.318ZM549.055 131.542C549.055 133.446 548.729 134.861 548.079 135.787C547.429 136.713 546.412 137.176 545.029 137.176C543.664 137.176 542.653 136.725 541.997 135.822C541.341 134.914 541.001 133.561 540.978 131.762V129.591C540.978 127.71 541.303 126.312 541.953 125.398C542.604 124.484 543.623 124.027 545.012 124.027C546.389 124.027 547.402 124.47 548.053 125.354C548.703 126.233 549.037 127.593 549.055 129.433V131.542ZM547.429 129.318C547.429 127.941 547.235 126.939 546.849 126.312C546.462 125.68 545.85 125.363 545.012 125.363C544.18 125.363 543.573 125.677 543.192 126.304C542.812 126.931 542.615 127.895 542.604 129.195V131.797C542.604 133.18 542.803 134.202 543.201 134.864C543.605 135.521 544.215 135.849 545.029 135.849C545.832 135.849 546.427 135.538 546.813 134.917C547.206 134.296 547.411 133.317 547.429 131.981V129.318ZM559.162 131.542C559.162 133.446 558.837 134.861 558.187 135.787C557.536 136.713 556.52 137.176 555.137 137.176C553.771 137.176 552.761 136.725 552.104 135.822C551.448 134.914 551.108 133.561 551.085 131.762V129.591C551.085 127.71 551.41 126.312 552.061 125.398C552.711 124.484 553.73 124.027 555.119 124.027C556.496 124.027 557.51 124.47 558.16 125.354C558.811 126.233 559.145 127.593 559.162 129.433V131.542ZM557.536 129.318C557.536 127.941 557.343 126.939 556.956 126.312C556.569 125.68 555.957 125.363 555.119 125.363C554.287 125.363 553.681 125.677 553.3 126.304C552.919 126.931 552.723 127.895 552.711 129.195V131.797C552.711 133.18 552.91 134.202 553.309 134.864C553.713 135.521 554.322 135.849 555.137 135.849C555.939 135.849 556.534 135.538 556.921 134.917C557.313 134.296 557.519 133.317 557.536 131.981V129.318ZM569.27 131.542C569.27 133.446 568.944 134.861 568.294 135.787C567.644 136.713 566.627 137.176 565.244 137.176C563.879 137.176 562.868 136.725 562.212 135.822C561.556 134.914 561.216 133.561 561.192 131.762V129.591C561.192 127.71 561.518 126.312 562.168 125.398C562.818 124.484 563.838 124.027 565.227 124.027C566.604 124.027 567.617 124.47 568.268 125.354C568.918 126.233 569.252 127.593 569.27 129.433V131.542ZM567.644 129.318C567.644 127.941 567.45 126.939 567.063 126.312C566.677 125.68 566.064 125.363 565.227 125.363C564.395 125.363 563.788 125.677 563.407 126.304C563.026 126.931 562.83 127.895 562.818 129.195V131.797C562.818 133.18 563.018 134.202 563.416 134.864C563.82 135.521 564.43 135.849 565.244 135.849C566.047 135.849 566.642 135.538 567.028 134.917C567.421 134.296 567.626 133.317 567.644 131.981V129.318ZM579.377 131.542C579.377 133.446 579.052 134.861 578.401 135.787C577.751 136.713 576.734 137.176 575.352 137.176C573.986 137.176 572.976 136.725 572.319 135.822C571.663 134.914 571.323 133.561 571.3 131.762V129.591C571.3 127.71 571.625 126.312 572.275 125.398C572.926 124.484 573.945 124.027 575.334 124.027C576.711 124.027 577.725 124.47 578.375 125.354C579.025 126.233 579.359 127.593 579.377 129.433V131.542ZM577.751 129.318C577.751 127.941 577.558 126.939 577.171 126.312C576.784 125.68 576.172 125.363 575.334 125.363C574.502 125.363 573.896 125.677 573.515 126.304C573.134 126.931 572.938 127.895 572.926 129.195V131.797C572.926 133.18 573.125 134.202 573.523 134.864C573.928 135.521 574.537 135.849 575.352 135.849C576.154 135.849 576.749 135.538 577.136 134.917C577.528 134.296 577.733 133.317 577.751 131.981V129.318ZM586.804 137H585.169V126.163L581.891 127.367V125.891L586.549 124.142H586.804V137ZM596.911 137H595.276V126.163L591.998 127.367V125.891L596.656 124.142H596.911V137ZM607.019 137H605.384V126.163L602.105 127.367V125.891L606.764 124.142H607.019V137ZM619.807 131.542C619.807 133.446 619.481 134.861 618.831 135.787C618.181 136.713 617.164 137.176 615.781 137.176C614.416 137.176 613.405 136.725 612.749 135.822C612.093 134.914 611.753 133.561 611.729 131.762V129.591C611.729 127.71 612.055 126.312 612.705 125.398C613.355 124.484 614.375 124.027 615.764 124.027C617.141 124.027 618.154 124.47 618.805 125.354C619.455 126.233 619.789 127.593 619.807 129.433V131.542ZM618.181 129.318C618.181 127.941 617.987 126.939 617.601 126.312C617.214 125.68 616.602 125.363 615.764 125.363C614.932 125.363 614.325 125.677 613.944 126.304C613.563 126.931 613.367 127.895 613.355 129.195V131.797C613.355 133.18 613.555 134.202 613.953 134.864C614.357 135.521 614.967 135.849 615.781 135.849C616.584 135.849 617.179 135.538 617.565 134.917C617.958 134.296 618.163 133.317 618.181 131.981V129.318ZM629.914 131.542C629.914 133.446 629.589 134.861 628.938 135.787C628.288 136.713 627.271 137.176 625.889 137.176C624.523 137.176 623.513 136.725 622.856 135.822C622.2 134.914 621.86 133.561 621.837 131.762V129.591C621.837 127.71 622.162 126.312 622.812 125.398C623.463 124.484 624.482 124.027 625.871 124.027C627.248 124.027 628.262 124.47 628.912 125.354C629.562 126.233 629.896 127.593 629.914 129.433V131.542ZM628.288 129.318C628.288 127.941 628.095 126.939 627.708 126.312C627.321 125.68 626.709 125.363 625.871 125.363C625.039 125.363 624.433 125.677 624.052 126.304C623.671 126.931 623.475 127.895 623.463 129.195V131.797C623.463 133.18 623.662 134.202 624.061 134.864C624.465 135.521 625.074 135.849 625.889 135.849C626.691 135.849 627.286 135.538 627.673 134.917C628.065 134.296 628.271 133.317 628.288 131.981V129.318ZM640.021 131.542C640.021 133.446 639.696 134.861 639.046 135.787C638.396 136.713 637.379 137.176 635.996 137.176C634.631 137.176 633.62 136.725 632.964 135.822C632.308 134.914 631.968 133.561 631.944 131.762V129.591C631.944 127.71 632.27 126.312 632.92 125.398C633.57 124.484 634.59 124.027 635.979 124.027C637.355 124.027 638.369 124.47 639.02 125.354C639.67 126.233 640.004 127.593 640.021 129.433V131.542ZM638.396 129.318C638.396 127.941 638.202 126.939 637.815 126.312C637.429 125.68 636.816 125.363 635.979 125.363C635.146 125.363 634.54 125.677 634.159 126.304C633.778 126.931 633.582 127.895 633.57 129.195V131.797C633.57 133.18 633.77 134.202 634.168 134.864C634.572 135.521 635.182 135.849 635.996 135.849C636.799 135.849 637.394 135.538 637.78 134.917C638.173 134.296 638.378 133.317 638.396 131.981V129.318ZM647.448 137H645.813V126.163L642.535 127.367V125.891L647.193 124.142H647.448V137ZM660.236 131.542C660.236 133.446 659.911 134.861 659.261 135.787C658.61 136.713 657.594 137.176 656.211 137.176C654.846 137.176 653.835 136.725 653.179 135.822C652.522 134.914 652.183 133.561 652.159 131.762V129.591C652.159 127.71 652.484 126.312 653.135 125.398C653.785 124.484 654.805 124.027 656.193 124.027C657.57 124.027 658.584 124.47 659.234 125.354C659.885 126.233 660.219 127.593 660.236 129.433V131.542ZM658.61 129.318C658.61 127.941 658.417 126.939 658.03 126.312C657.644 125.68 657.031 125.363 656.193 125.363C655.361 125.363 654.755 125.677 654.374 126.304C653.993 126.931 653.797 127.895 653.785 129.195V131.797C653.785 133.18 653.984 134.202 654.383 134.864C654.787 135.521 655.396 135.849 656.211 135.849C657.014 135.849 657.608 135.538 657.995 134.917C658.388 134.296 658.593 133.317 658.61 131.981V129.318ZM458.088 152.542C458.088 154.446 457.763 155.861 457.112 156.787C456.462 157.713 455.445 158.176 454.062 158.176C452.697 158.176 451.687 157.725 451.03 156.822C450.374 155.914 450.034 154.561 450.011 152.762V150.591C450.011 148.71 450.336 147.312 450.986 146.398C451.637 145.484 452.656 145.027 454.045 145.027C455.422 145.027 456.436 145.47 457.086 146.354C457.736 147.233 458.07 148.593 458.088 150.433V152.542ZM456.462 150.318C456.462 148.941 456.269 147.939 455.882 147.312C455.495 146.68 454.883 146.363 454.045 146.363C453.213 146.363 452.606 146.677 452.226 147.304C451.845 147.931 451.648 148.895 451.637 150.195V152.797C451.637 154.18 451.836 155.202 452.234 155.864C452.639 156.521 453.248 156.849 454.062 156.849C454.865 156.849 455.46 156.538 455.847 155.917C456.239 155.296 456.444 154.317 456.462 152.981V150.318ZM468.195 152.542C468.195 154.446 467.87 155.861 467.22 156.787C466.569 157.713 465.553 158.176 464.17 158.176C462.805 158.176 461.794 157.725 461.138 156.822C460.481 155.914 460.142 154.561 460.118 152.762V150.591C460.118 148.71 460.443 147.312 461.094 146.398C461.744 145.484 462.764 145.027 464.152 145.027C465.529 145.027 466.543 145.47 467.193 146.354C467.844 147.233 468.178 148.593 468.195 150.433V152.542ZM466.569 150.318C466.569 148.941 466.376 147.939 465.989 147.312C465.603 146.68 464.99 146.363 464.152 146.363C463.32 146.363 462.714 146.677 462.333 147.304C461.952 147.931 461.756 148.895 461.744 150.195V152.797C461.744 154.18 461.943 155.202 462.342 155.864C462.746 156.521 463.355 156.849 464.17 156.849C464.973 156.849 465.567 156.538 465.954 155.917C466.347 155.296 466.552 154.317 466.569 152.981V150.318ZM478.303 152.542C478.303 154.446 477.978 155.861 477.327 156.787C476.677 157.713 475.66 158.176 474.277 158.176C472.912 158.176 471.901 157.725 471.245 156.822C470.589 155.914 470.249 154.561 470.226 152.762V150.591C470.226 148.71 470.551 147.312 471.201 146.398C471.852 145.484 472.871 145.027 474.26 145.027C475.637 145.027 476.65 145.47 477.301 146.354C477.951 147.233 478.285 148.593 478.303 150.433V152.542ZM476.677 150.318C476.677 148.941 476.483 147.939 476.097 147.312C475.71 146.68 475.098 146.363 474.26 146.363C473.428 146.363 472.821 146.677 472.44 147.304C472.06 147.931 471.863 148.895 471.852 150.195V152.797C471.852 154.18 472.051 155.202 472.449 155.864C472.854 156.521 473.463 156.849 474.277 156.849C475.08 156.849 475.675 156.538 476.062 155.917C476.454 155.296 476.659 154.317 476.677 152.981V150.318ZM485.729 158H484.095V147.163L480.816 148.367V146.891L485.475 145.142H485.729V158ZM498.518 152.542C498.518 154.446 498.192 155.861 497.542 156.787C496.892 157.713 495.875 158.176 494.492 158.176C493.127 158.176 492.116 157.725 491.46 156.822C490.804 155.914 490.464 154.561 490.44 152.762V150.591C490.44 148.71 490.766 147.312 491.416 146.398C492.066 145.484 493.086 145.027 494.475 145.027C495.852 145.027 496.865 145.47 497.516 146.354C498.166 147.233 498.5 148.593 498.518 150.433V152.542ZM496.892 150.318C496.892 148.941 496.698 147.939 496.312 147.312C495.925 146.68 495.312 146.363 494.475 146.363C493.643 146.363 493.036 146.677 492.655 147.304C492.274 147.931 492.078 148.895 492.066 150.195V152.797C492.066 154.18 492.266 155.202 492.664 155.864C493.068 156.521 493.678 156.849 494.492 156.849C495.295 156.849 495.89 156.538 496.276 155.917C496.669 155.296 496.874 154.317 496.892 152.981V150.318ZM508.625 152.542C508.625 154.446 508.3 155.861 507.649 156.787C506.999 157.713 505.982 158.176 504.6 158.176C503.234 158.176 502.224 157.725 501.567 156.822C500.911 155.914 500.571 154.561 500.548 152.762V150.591C500.548 148.71 500.873 147.312 501.523 146.398C502.174 145.484 503.193 145.027 504.582 145.027C505.959 145.027 506.973 145.47 507.623 146.354C508.273 147.233 508.607 148.593 508.625 150.433V152.542ZM506.999 150.318C506.999 148.941 506.806 147.939 506.419 147.312C506.032 146.68 505.42 146.363 504.582 146.363C503.75 146.363 503.144 146.677 502.763 147.304C502.382 147.931 502.186 148.895 502.174 150.195V152.797C502.174 154.18 502.373 155.202 502.771 155.864C503.176 156.521 503.785 156.849 504.6 156.849C505.402 156.849 505.997 156.538 506.384 155.917C506.776 155.296 506.981 154.317 506.999 152.981V150.318ZM518.732 152.542C518.732 154.446 518.407 155.861 517.757 156.787C517.106 157.713 516.09 158.176 514.707 158.176C513.342 158.176 512.331 157.725 511.675 156.822C511.019 155.914 510.679 154.561 510.655 152.762V150.591C510.655 148.71 510.98 147.312 511.631 146.398C512.281 145.484 513.301 145.027 514.689 145.027C516.066 145.027 517.08 145.47 517.73 146.354C518.381 147.233 518.715 148.593 518.732 150.433V152.542ZM517.106 150.318C517.106 148.941 516.913 147.939 516.526 147.312C516.14 146.68 515.527 146.363 514.689 146.363C513.857 146.363 513.251 146.677 512.87 147.304C512.489 147.931 512.293 148.895 512.281 150.195V152.797C512.281 154.18 512.48 155.202 512.879 155.864C513.283 156.521 513.893 156.849 514.707 156.849C515.51 156.849 516.104 156.538 516.491 155.917C516.884 155.296 517.089 154.317 517.106 152.981V150.318ZM528.84 152.542C528.84 154.446 528.515 155.861 527.864 156.787C527.214 157.713 526.197 158.176 524.814 158.176C523.449 158.176 522.438 157.725 521.782 156.822C521.126 155.914 520.786 154.561 520.763 152.762V150.591C520.763 148.71 521.088 147.312 521.738 146.398C522.389 145.484 523.408 145.027 524.797 145.027C526.174 145.027 527.188 145.47 527.838 146.354C528.488 147.233 528.822 148.593 528.84 150.433V152.542ZM527.214 150.318C527.214 148.941 527.021 147.939 526.634 147.312C526.247 146.68 525.635 146.363 524.797 146.363C523.965 146.363 523.358 146.677 522.978 147.304C522.597 147.931 522.4 148.895 522.389 150.195V152.797C522.389 154.18 522.588 155.202 522.986 155.864C523.391 156.521 524 156.849 524.814 156.849C525.617 156.849 526.212 156.538 526.599 155.917C526.991 155.296 527.196 154.317 527.214 152.981V150.318ZM536.267 158H534.632V147.163L531.354 148.367V146.891L536.012 145.142H536.267V158ZM549.055 152.542C549.055 154.446 548.729 155.861 548.079 156.787C547.429 157.713 546.412 158.176 545.029 158.176C543.664 158.176 542.653 157.725 541.997 156.822C541.341 155.914 541.001 154.561 540.978 152.762V150.591C540.978 148.71 541.303 147.312 541.953 146.398C542.604 145.484 543.623 145.027 545.012 145.027C546.389 145.027 547.402 145.47 548.053 146.354C548.703 147.233 549.037 148.593 549.055 150.433V152.542ZM547.429 150.318C547.429 148.941 547.235 147.939 546.849 147.312C546.462 146.68 545.85 146.363 545.012 146.363C544.18 146.363 543.573 146.677 543.192 147.304C542.812 147.931 542.615 148.895 542.604 150.195V152.797C542.604 154.18 542.803 155.202 543.201 155.864C543.605 156.521 544.215 156.849 545.029 156.849C545.832 156.849 546.427 156.538 546.813 155.917C547.206 155.296 547.411 154.317 547.429 152.981V150.318ZM559.162 152.542C559.162 154.446 558.837 155.861 558.187 156.787C557.536 157.713 556.52 158.176 555.137 158.176C553.771 158.176 552.761 157.725 552.104 156.822C551.448 155.914 551.108 154.561 551.085 152.762V150.591C551.085 148.71 551.41 147.312 552.061 146.398C552.711 145.484 553.73 145.027 555.119 145.027C556.496 145.027 557.51 145.47 558.16 146.354C558.811 147.233 559.145 148.593 559.162 150.433V152.542ZM557.536 150.318C557.536 148.941 557.343 147.939 556.956 147.312C556.569 146.68 555.957 146.363 555.119 146.363C554.287 146.363 553.681 146.677 553.3 147.304C552.919 147.931 552.723 148.895 552.711 150.195V152.797C552.711 154.18 552.91 155.202 553.309 155.864C553.713 156.521 554.322 156.849 555.137 156.849C555.939 156.849 556.534 156.538 556.921 155.917C557.313 155.296 557.519 154.317 557.536 152.981V150.318ZM569.27 152.542C569.27 154.446 568.944 155.861 568.294 156.787C567.644 157.713 566.627 158.176 565.244 158.176C563.879 158.176 562.868 157.725 562.212 156.822C561.556 155.914 561.216 154.561 561.192 152.762V150.591C561.192 148.71 561.518 147.312 562.168 146.398C562.818 145.484 563.838 145.027 565.227 145.027C566.604 145.027 567.617 145.47 568.268 146.354C568.918 147.233 569.252 148.593 569.27 150.433V152.542ZM567.644 150.318C567.644 148.941 567.45 147.939 567.063 147.312C566.677 146.68 566.064 146.363 565.227 146.363C564.395 146.363 563.788 146.677 563.407 147.304C563.026 147.931 562.83 148.895 562.818 150.195V152.797C562.818 154.18 563.018 155.202 563.416 155.864C563.82 156.521 564.43 156.849 565.244 156.849C566.047 156.849 566.642 156.538 567.028 155.917C567.421 155.296 567.626 154.317 567.644 152.981V150.318ZM576.696 158H575.062V147.163L571.783 148.367V146.891L576.441 145.142H576.696V158ZM589.484 152.542C589.484 154.446 589.159 155.861 588.509 156.787C587.858 157.713 586.842 158.176 585.459 158.176C584.094 158.176 583.083 157.725 582.427 156.822C581.771 155.914 581.431 154.561 581.407 152.762V150.591C581.407 148.71 581.732 147.312 582.383 146.398C583.033 145.484 584.053 145.027 585.441 145.027C586.818 145.027 587.832 145.47 588.482 146.354C589.133 147.233 589.467 148.593 589.484 150.433V152.542ZM587.858 150.318C587.858 148.941 587.665 147.939 587.278 147.312C586.892 146.68 586.279 146.363 585.441 146.363C584.609 146.363 584.003 146.677 583.622 147.304C583.241 147.931 583.045 148.895 583.033 150.195V152.797C583.033 154.18 583.232 155.202 583.631 155.864C584.035 156.521 584.645 156.849 585.459 156.849C586.262 156.849 586.856 156.538 587.243 155.917C587.636 155.296 587.841 154.317 587.858 152.981V150.318ZM599.592 152.542C599.592 154.446 599.267 155.861 598.616 156.787C597.966 157.713 596.949 158.176 595.566 158.176C594.201 158.176 593.19 157.725 592.534 156.822C591.878 155.914 591.538 154.561 591.515 152.762V150.591C591.515 148.71 591.84 147.312 592.49 146.398C593.141 145.484 594.16 145.027 595.549 145.027C596.926 145.027 597.939 145.47 598.59 146.354C599.24 147.233 599.574 148.593 599.592 150.433V152.542ZM597.966 150.318C597.966 148.941 597.772 147.939 597.386 147.312C596.999 146.68 596.387 146.363 595.549 146.363C594.717 146.363 594.11 146.677 593.729 147.304C593.349 147.931 593.152 148.895 593.141 150.195V152.797C593.141 154.18 593.34 155.202 593.738 155.864C594.143 156.521 594.752 156.849 595.566 156.849C596.369 156.849 596.964 156.538 597.351 155.917C597.743 155.296 597.948 154.317 597.966 152.981V150.318ZM609.699 152.542C609.699 154.446 609.374 155.861 608.724 156.787C608.073 157.713 607.057 158.176 605.674 158.176C604.309 158.176 603.298 157.725 602.642 156.822C601.985 155.914 601.646 154.561 601.622 152.762V150.591C601.622 148.71 601.947 147.312 602.598 146.398C603.248 145.484 604.268 145.027 605.656 145.027C607.033 145.027 608.047 145.47 608.697 146.354C609.348 147.233 609.682 148.593 609.699 150.433V152.542ZM608.073 150.318C608.073 148.941 607.88 147.939 607.493 147.312C607.106 146.68 606.494 146.363 605.656 146.363C604.824 146.363 604.218 146.677 603.837 147.304C603.456 147.931 603.26 148.895 603.248 150.195V152.797C603.248 154.18 603.447 155.202 603.846 155.864C604.25 156.521 604.859 156.849 605.674 156.849C606.477 156.849 607.071 156.538 607.458 155.917C607.851 155.296 608.056 154.317 608.073 152.981V150.318ZM617.126 158H615.491V147.163L612.213 148.367V146.891L616.871 145.142H617.126V158ZM629.914 152.542C629.914 154.446 629.589 155.861 628.938 156.787C628.288 157.713 627.271 158.176 625.889 158.176C624.523 158.176 623.513 157.725 622.856 156.822C622.2 155.914 621.86 154.561 621.837 152.762V150.591C621.837 148.71 622.162 147.312 622.812 146.398C623.463 145.484 624.482 145.027 625.871 145.027C627.248 145.027 628.262 145.47 628.912 146.354C629.562 147.233 629.896 148.593 629.914 150.433V152.542ZM628.288 150.318C628.288 148.941 628.095 147.939 627.708 147.312C627.321 146.68 626.709 146.363 625.871 146.363C625.039 146.363 624.433 146.677 624.052 147.304C623.671 147.931 623.475 148.895 623.463 150.195V152.797C623.463 154.18 623.662 155.202 624.061 155.864C624.465 156.521 625.074 156.849 625.889 156.849C626.691 156.849 627.286 156.538 627.673 155.917C628.065 155.296 628.271 154.317 628.288 152.981V150.318ZM640.021 152.542C640.021 154.446 639.696 155.861 639.046 156.787C638.396 157.713 637.379 158.176 635.996 158.176C634.631 158.176 633.62 157.725 632.964 156.822C632.308 155.914 631.968 154.561 631.944 152.762V150.591C631.944 148.71 632.27 147.312 632.92 146.398C633.57 145.484 634.59 145.027 635.979 145.027C637.355 145.027 638.369 145.47 639.02 146.354C639.67 147.233 640.004 148.593 640.021 150.433V152.542ZM638.396 150.318C638.396 148.941 638.202 147.939 637.815 147.312C637.429 146.68 636.816 146.363 635.979 146.363C635.146 146.363 634.54 146.677 634.159 147.304C633.778 147.931 633.582 148.895 633.57 150.195V152.797C633.57 154.18 633.77 155.202 634.168 155.864C634.572 156.521 635.182 156.849 635.996 156.849C636.799 156.849 637.394 156.538 637.78 155.917C638.173 155.296 638.378 154.317 638.396 152.981V150.318ZM650.129 152.542C650.129 154.446 649.804 155.861 649.153 156.787C648.503 157.713 647.486 158.176 646.104 158.176C644.738 158.176 643.728 157.725 643.071 156.822C642.415 155.914 642.075 154.561 642.052 152.762V150.591C642.052 148.71 642.377 147.312 643.027 146.398C643.678 145.484 644.697 145.027 646.086 145.027C647.463 145.027 648.477 145.47 649.127 146.354C649.777 147.233 650.111 148.593 650.129 150.433V152.542ZM648.503 150.318C648.503 148.941 648.31 147.939 647.923 147.312C647.536 146.68 646.924 146.363 646.086 146.363C645.254 146.363 644.647 146.677 644.267 147.304C643.886 147.931 643.689 148.895 643.678 150.195V152.797C643.678 154.18 643.877 155.202 644.275 155.864C644.68 156.521 645.289 156.849 646.104 156.849C646.906 156.849 647.501 156.538 647.888 155.917C648.28 155.296 648.485 154.317 648.503 152.981V150.318ZM657.556 158H655.921V147.163L652.643 148.367V146.891L657.301 145.142H657.556V158ZM455.407 179H453.772V168.163L450.494 169.367V167.891L455.152 166.142H455.407V179ZM468.195 173.542C468.195 175.446 467.87 176.861 467.22 177.787C466.569 178.713 465.553 179.176 464.17 179.176C462.805 179.176 461.794 178.725 461.138 177.822C460.481 176.914 460.142 175.561 460.118 173.762V171.591C460.118 169.71 460.443 168.312 461.094 167.398C461.744 166.484 462.764 166.027 464.152 166.027C465.529 166.027 466.543 166.47 467.193 167.354C467.844 168.233 468.178 169.593 468.195 171.433V173.542ZM466.569 171.318C466.569 169.941 466.376 168.939 465.989 168.312C465.603 167.68 464.99 167.363 464.152 167.363C463.32 167.363 462.714 167.677 462.333 168.304C461.952 168.931 461.756 169.895 461.744 171.195V173.797C461.744 175.18 461.943 176.202 462.342 176.864C462.746 177.521 463.355 177.849 464.17 177.849C464.973 177.849 465.567 177.538 465.954 176.917C466.347 176.296 466.552 175.317 466.569 173.981V171.318ZM478.303 173.542C478.303 175.446 477.978 176.861 477.327 177.787C476.677 178.713 475.66 179.176 474.277 179.176C472.912 179.176 471.901 178.725 471.245 177.822C470.589 176.914 470.249 175.561 470.226 173.762V171.591C470.226 169.71 470.551 168.312 471.201 167.398C471.852 166.484 472.871 166.027 474.26 166.027C475.637 166.027 476.65 166.47 477.301 167.354C477.951 168.233 478.285 169.593 478.303 171.433V173.542ZM476.677 171.318C476.677 169.941 476.483 168.939 476.097 168.312C475.71 167.68 475.098 167.363 474.26 167.363C473.428 167.363 472.821 167.677 472.44 168.304C472.06 168.931 471.863 169.895 471.852 171.195V173.797C471.852 175.18 472.051 176.202 472.449 176.864C472.854 177.521 473.463 177.849 474.277 177.849C475.08 177.849 475.675 177.538 476.062 176.917C476.454 176.296 476.659 175.317 476.677 173.981V171.318ZM488.41 173.542C488.41 175.446 488.085 176.861 487.435 177.787C486.784 178.713 485.768 179.176 484.385 179.176C483.02 179.176 482.009 178.725 481.353 177.822C480.696 176.914 480.356 175.561 480.333 173.762V171.591C480.333 169.71 480.658 168.312 481.309 167.398C481.959 166.484 482.979 166.027 484.367 166.027C485.744 166.027 486.758 166.47 487.408 167.354C488.059 168.233 488.393 169.593 488.41 171.433V173.542ZM486.784 171.318C486.784 169.941 486.591 168.939 486.204 168.312C485.817 167.68 485.205 167.363 484.367 167.363C483.535 167.363 482.929 167.677 482.548 168.304C482.167 168.931 481.971 169.895 481.959 171.195V173.797C481.959 175.18 482.158 176.202 482.557 176.864C482.961 177.521 483.57 177.849 484.385 177.849C485.188 177.849 485.782 177.538 486.169 176.917C486.562 176.296 486.767 175.317 486.784 173.981V171.318ZM495.837 179H494.202V168.163L490.924 169.367V167.891L495.582 166.142H495.837V179ZM508.625 173.542C508.625 175.446 508.3 176.861 507.649 177.787C506.999 178.713 505.982 179.176 504.6 179.176C503.234 179.176 502.224 178.725 501.567 177.822C500.911 176.914 500.571 175.561 500.548 173.762V171.591C500.548 169.71 500.873 168.312 501.523 167.398C502.174 166.484 503.193 166.027 504.582 166.027C505.959 166.027 506.973 166.47 507.623 167.354C508.273 168.233 508.607 169.593 508.625 171.433V173.542ZM506.999 171.318C506.999 169.941 506.806 168.939 506.419 168.312C506.032 167.68 505.42 167.363 504.582 167.363C503.75 167.363 503.144 167.677 502.763 168.304C502.382 168.931 502.186 169.895 502.174 171.195V173.797C502.174 175.18 502.373 176.202 502.771 176.864C503.176 177.521 503.785 177.849 504.6 177.849C505.402 177.849 505.997 177.538 506.384 176.917C506.776 176.296 506.981 175.317 506.999 173.981V171.318ZM518.732 173.542C518.732 175.446 518.407 176.861 517.757 177.787C517.106 178.713 516.09 179.176 514.707 179.176C513.342 179.176 512.331 178.725 511.675 177.822C511.019 176.914 510.679 175.561 510.655 173.762V171.591C510.655 169.71 510.98 168.312 511.631 167.398C512.281 166.484 513.301 166.027 514.689 166.027C516.066 166.027 517.08 166.47 517.73 167.354C518.381 168.233 518.715 169.593 518.732 171.433V173.542ZM517.106 171.318C517.106 169.941 516.913 168.939 516.526 168.312C516.14 167.68 515.527 167.363 514.689 167.363C513.857 167.363 513.251 167.677 512.87 168.304C512.489 168.931 512.293 169.895 512.281 171.195V173.797C512.281 175.18 512.48 176.202 512.879 176.864C513.283 177.521 513.893 177.849 514.707 177.849C515.51 177.849 516.104 177.538 516.491 176.917C516.884 176.296 517.089 175.317 517.106 173.981V171.318ZM526.159 179H524.524V168.163L521.246 169.367V167.891L525.904 166.142H526.159V179ZM536.267 179H534.632V168.163L531.354 169.367V167.891L536.012 166.142H536.267V179ZM546.374 179H544.739V168.163L541.461 169.367V167.891L546.119 166.142H546.374V179ZM556.481 179H554.847V168.163L551.568 169.367V167.891L556.227 166.142H556.481V179ZM566.589 179H564.954V168.163L561.676 169.367V167.891L566.334 166.142H566.589V179ZM579.377 173.542C579.377 175.446 579.052 176.861 578.401 177.787C577.751 178.713 576.734 179.176 575.352 179.176C573.986 179.176 572.976 178.725 572.319 177.822C571.663 176.914 571.323 175.561 571.3 173.762V171.591C571.3 169.71 571.625 168.312 572.275 167.398C572.926 166.484 573.945 166.027 575.334 166.027C576.711 166.027 577.725 166.47 578.375 167.354C579.025 168.233 579.359 169.593 579.377 171.433V173.542ZM577.751 171.318C577.751 169.941 577.558 168.939 577.171 168.312C576.784 167.68 576.172 167.363 575.334 167.363C574.502 167.363 573.896 167.677 573.515 168.304C573.134 168.931 572.938 169.895 572.926 171.195V173.797C572.926 175.18 573.125 176.202 573.523 176.864C573.928 177.521 574.537 177.849 575.352 177.849C576.154 177.849 576.749 177.538 577.136 176.917C577.528 176.296 577.733 175.317 577.751 173.981V171.318ZM589.484 173.542C589.484 175.446 589.159 176.861 588.509 177.787C587.858 178.713 586.842 179.176 585.459 179.176C584.094 179.176 583.083 178.725 582.427 177.822C581.771 176.914 581.431 175.561 581.407 173.762V171.591C581.407 169.71 581.732 168.312 582.383 167.398C583.033 166.484 584.053 166.027 585.441 166.027C586.818 166.027 587.832 166.47 588.482 167.354C589.133 168.233 589.467 169.593 589.484 171.433V173.542ZM587.858 171.318C587.858 169.941 587.665 168.939 587.278 168.312C586.892 167.68 586.279 167.363 585.441 167.363C584.609 167.363 584.003 167.677 583.622 168.304C583.241 168.931 583.045 169.895 583.033 171.195V173.797C583.033 175.18 583.232 176.202 583.631 176.864C584.035 177.521 584.645 177.849 585.459 177.849C586.262 177.849 586.856 177.538 587.243 176.917C587.636 176.296 587.841 175.317 587.858 173.981V171.318ZM599.592 173.542C599.592 175.446 599.267 176.861 598.616 177.787C597.966 178.713 596.949 179.176 595.566 179.176C594.201 179.176 593.19 178.725 592.534 177.822C591.878 176.914 591.538 175.561 591.515 173.762V171.591C591.515 169.71 591.84 168.312 592.49 167.398C593.141 166.484 594.16 166.027 595.549 166.027C596.926 166.027 597.939 166.47 598.59 167.354C599.24 168.233 599.574 169.593 599.592 171.433V173.542ZM597.966 171.318C597.966 169.941 597.772 168.939 597.386 168.312C596.999 167.68 596.387 167.363 595.549 167.363C594.717 167.363 594.11 167.677 593.729 168.304C593.349 168.931 593.152 169.895 593.141 171.195V173.797C593.141 175.18 593.34 176.202 593.738 176.864C594.143 177.521 594.752 177.849 595.566 177.849C596.369 177.849 596.964 177.538 597.351 176.917C597.743 176.296 597.948 175.317 597.966 173.981V171.318ZM609.699 173.542C609.699 175.446 609.374 176.861 608.724 177.787C608.073 178.713 607.057 179.176 605.674 179.176C604.309 179.176 603.298 178.725 602.642 177.822C601.985 176.914 601.646 175.561 601.622 173.762V171.591C601.622 169.71 601.947 168.312 602.598 167.398C603.248 166.484 604.268 166.027 605.656 166.027C607.033 166.027 608.047 166.47 608.697 167.354C609.348 168.233 609.682 169.593 609.699 171.433V173.542ZM608.073 171.318C608.073 169.941 607.88 168.939 607.493 168.312C607.106 167.68 606.494 167.363 605.656 167.363C604.824 167.363 604.218 167.677 603.837 168.304C603.456 168.931 603.26 169.895 603.248 171.195V173.797C603.248 175.18 603.447 176.202 603.846 176.864C604.25 177.521 604.859 177.849 605.674 177.849C606.477 177.849 607.071 177.538 607.458 176.917C607.851 176.296 608.056 175.317 608.073 173.981V171.318ZM617.126 179H615.491V168.163L612.213 169.367V167.891L616.871 166.142H617.126V179ZM629.914 173.542C629.914 175.446 629.589 176.861 628.938 177.787C628.288 178.713 627.271 179.176 625.889 179.176C624.523 179.176 623.513 178.725 622.856 177.822C622.2 176.914 621.86 175.561 621.837 173.762V171.591C621.837 169.71 622.162 168.312 622.812 167.398C623.463 166.484 624.482 166.027 625.871 166.027C627.248 166.027 628.262 166.47 628.912 167.354C629.562 168.233 629.896 169.593 629.914 171.433V173.542ZM628.288 171.318C628.288 169.941 628.095 168.939 627.708 168.312C627.321 167.68 626.709 167.363 625.871 167.363C625.039 167.363 624.433 167.677 624.052 168.304C623.671 168.931 623.475 169.895 623.463 171.195V173.797C623.463 175.18 623.662 176.202 624.061 176.864C624.465 177.521 625.074 177.849 625.889 177.849C626.691 177.849 627.286 177.538 627.673 176.917C628.065 176.296 628.271 175.317 628.288 173.981V171.318ZM640.021 173.542C640.021 175.446 639.696 176.861 639.046 177.787C638.396 178.713 637.379 179.176 635.996 179.176C634.631 179.176 633.62 178.725 632.964 177.822C632.308 176.914 631.968 175.561 631.944 173.762V171.591C631.944 169.71 632.27 168.312 632.92 167.398C633.57 166.484 634.59 166.027 635.979 166.027C637.355 166.027 638.369 166.47 639.02 167.354C639.67 168.233 640.004 169.593 640.021 171.433V173.542ZM638.396 171.318C638.396 169.941 638.202 168.939 637.815 168.312C637.429 167.68 636.816 167.363 635.979 167.363C635.146 167.363 634.54 167.677 634.159 168.304C633.778 168.931 633.582 169.895 633.57 171.195V173.797C633.57 175.18 633.77 176.202 634.168 176.864C634.572 177.521 635.182 177.849 635.996 177.849C636.799 177.849 637.394 177.538 637.78 176.917C638.173 176.296 638.378 175.317 638.396 173.981V171.318ZM650.129 173.542C650.129 175.446 649.804 176.861 649.153 177.787C648.503 178.713 647.486 179.176 646.104 179.176C644.738 179.176 643.728 178.725 643.071 177.822C642.415 176.914 642.075 175.561 642.052 173.762V171.591C642.052 169.71 642.377 168.312 643.027 167.398C643.678 166.484 644.697 166.027 646.086 166.027C647.463 166.027 648.477 166.47 649.127 167.354C649.777 168.233 650.111 169.593 650.129 171.433V173.542ZM648.503 171.318C648.503 169.941 648.31 168.939 647.923 168.312C647.536 167.68 646.924 167.363 646.086 167.363C645.254 167.363 644.647 167.677 644.267 168.304C643.886 168.931 643.689 169.895 643.678 171.195V173.797C643.678 175.18 643.877 176.202 644.275 176.864C644.68 177.521 645.289 177.849 646.104 177.849C646.906 177.849 647.501 177.538 647.888 176.917C648.28 176.296 648.485 175.317 648.503 173.981V171.318ZM657.556 179H655.921V168.163L652.643 169.367V167.891L657.301 166.142H657.556V179ZM455.407 200H453.772V189.163L450.494 190.367V188.891L455.152 187.142H455.407V200ZM468.195 194.542C468.195 196.446 467.87 197.861 467.22 198.787C466.569 199.713 465.553 200.176 464.17 200.176C462.805 200.176 461.794 199.725 461.138 198.822C460.481 197.914 460.142 196.561 460.118 194.762V192.591C460.118 190.71 460.443 189.312 461.094 188.398C461.744 187.484 462.764 187.027 464.152 187.027C465.529 187.027 466.543 187.47 467.193 188.354C467.844 189.233 468.178 190.593 468.195 192.433V194.542ZM466.569 192.318C466.569 190.941 466.376 189.939 465.989 189.312C465.603 188.68 464.99 188.363 464.152 188.363C463.32 188.363 462.714 188.677 462.333 189.304C461.952 189.931 461.756 190.895 461.744 192.195V194.797C461.744 196.18 461.943 197.202 462.342 197.864C462.746 198.521 463.355 198.849 464.17 198.849C464.973 198.849 465.567 198.538 465.954 197.917C466.347 197.296 466.552 196.317 466.569 194.981V192.318ZM478.303 194.542C478.303 196.446 477.978 197.861 477.327 198.787C476.677 199.713 475.66 200.176 474.277 200.176C472.912 200.176 471.901 199.725 471.245 198.822C470.589 197.914 470.249 196.561 470.226 194.762V192.591C470.226 190.71 470.551 189.312 471.201 188.398C471.852 187.484 472.871 187.027 474.26 187.027C475.637 187.027 476.65 187.47 477.301 188.354C477.951 189.233 478.285 190.593 478.303 192.433V194.542ZM476.677 192.318C476.677 190.941 476.483 189.939 476.097 189.312C475.71 188.68 475.098 188.363 474.26 188.363C473.428 188.363 472.821 188.677 472.44 189.304C472.06 189.931 471.863 190.895 471.852 192.195V194.797C471.852 196.18 472.051 197.202 472.449 197.864C472.854 198.521 473.463 198.849 474.277 198.849C475.08 198.849 475.675 198.538 476.062 197.917C476.454 197.296 476.659 196.317 476.677 194.981V192.318ZM488.41 194.542C488.41 196.446 488.085 197.861 487.435 198.787C486.784 199.713 485.768 200.176 484.385 200.176C483.02 200.176 482.009 199.725 481.353 198.822C480.696 197.914 480.356 196.561 480.333 194.762V192.591C480.333 190.71 480.658 189.312 481.309 188.398C481.959 187.484 482.979 187.027 484.367 187.027C485.744 187.027 486.758 187.47 487.408 188.354C488.059 189.233 488.393 190.593 488.41 192.433V194.542ZM486.784 192.318C486.784 190.941 486.591 189.939 486.204 189.312C485.817 188.68 485.205 188.363 484.367 188.363C483.535 188.363 482.929 188.677 482.548 189.304C482.167 189.931 481.971 190.895 481.959 192.195V194.797C481.959 196.18 482.158 197.202 482.557 197.864C482.961 198.521 483.57 198.849 484.385 198.849C485.188 198.849 485.782 198.538 486.169 197.917C486.562 197.296 486.767 196.317 486.784 194.981V192.318ZM498.518 194.542C498.518 196.446 498.192 197.861 497.542 198.787C496.892 199.713 495.875 200.176 494.492 200.176C493.127 200.176 492.116 199.725 491.46 198.822C490.804 197.914 490.464 196.561 490.44 194.762V192.591C490.44 190.71 490.766 189.312 491.416 188.398C492.066 187.484 493.086 187.027 494.475 187.027C495.852 187.027 496.865 187.47 497.516 188.354C498.166 189.233 498.5 190.593 498.518 192.433V194.542ZM496.892 192.318C496.892 190.941 496.698 189.939 496.312 189.312C495.925 188.68 495.312 188.363 494.475 188.363C493.643 188.363 493.036 188.677 492.655 189.304C492.274 189.931 492.078 190.895 492.066 192.195V194.797C492.066 196.18 492.266 197.202 492.664 197.864C493.068 198.521 493.678 198.849 494.492 198.849C495.295 198.849 495.89 198.538 496.276 197.917C496.669 197.296 496.874 196.317 496.892 194.981V192.318ZM505.944 200H504.31V189.163L501.031 190.367V188.891L505.689 187.142H505.944V200ZM518.732 194.542C518.732 196.446 518.407 197.861 517.757 198.787C517.106 199.713 516.09 200.176 514.707 200.176C513.342 200.176 512.331 199.725 511.675 198.822C511.019 197.914 510.679 196.561 510.655 194.762V192.591C510.655 190.71 510.98 189.312 511.631 188.398C512.281 187.484 513.301 187.027 514.689 187.027C516.066 187.027 517.08 187.47 517.73 188.354C518.381 189.233 518.715 190.593 518.732 192.433V194.542ZM517.106 192.318C517.106 190.941 516.913 189.939 516.526 189.312C516.14 188.68 515.527 188.363 514.689 188.363C513.857 188.363 513.251 188.677 512.87 189.304C512.489 189.931 512.293 190.895 512.281 192.195V194.797C512.281 196.18 512.48 197.202 512.879 197.864C513.283 198.521 513.893 198.849 514.707 198.849C515.51 198.849 516.104 198.538 516.491 197.917C516.884 197.296 517.089 196.317 517.106 194.981V192.318ZM528.84 194.542C528.84 196.446 528.515 197.861 527.864 198.787C527.214 199.713 526.197 200.176 524.814 200.176C523.449 200.176 522.438 199.725 521.782 198.822C521.126 197.914 520.786 196.561 520.763 194.762V192.591C520.763 190.71 521.088 189.312 521.738 188.398C522.389 187.484 523.408 187.027 524.797 187.027C526.174 187.027 527.188 187.47 527.838 188.354C528.488 189.233 528.822 190.593 528.84 192.433V194.542ZM527.214 192.318C527.214 190.941 527.021 189.939 526.634 189.312C526.247 188.68 525.635 188.363 524.797 188.363C523.965 188.363 523.358 188.677 522.978 189.304C522.597 189.931 522.4 190.895 522.389 192.195V194.797C522.389 196.18 522.588 197.202 522.986 197.864C523.391 198.521 524 198.849 524.814 198.849C525.617 198.849 526.212 198.538 526.599 197.917C526.991 197.296 527.196 196.317 527.214 194.981V192.318ZM538.947 194.542C538.947 196.446 538.622 197.861 537.972 198.787C537.321 199.713 536.305 200.176 534.922 200.176C533.557 200.176 532.546 199.725 531.89 198.822C531.233 197.914 530.894 196.561 530.87 194.762V192.591C530.87 190.71 531.195 189.312 531.846 188.398C532.496 187.484 533.516 187.027 534.904 187.027C536.281 187.027 537.295 187.47 537.945 188.354C538.596 189.233 538.93 190.593 538.947 192.433V194.542ZM537.321 192.318C537.321 190.941 537.128 189.939 536.741 189.312C536.354 188.68 535.742 188.363 534.904 188.363C534.072 188.363 533.466 188.677 533.085 189.304C532.704 189.931 532.508 190.895 532.496 192.195V194.797C532.496 196.18 532.695 197.202 533.094 197.864C533.498 198.521 534.107 198.849 534.922 198.849C535.725 198.849 536.319 198.538 536.706 197.917C537.099 197.296 537.304 196.317 537.321 194.981V192.318ZM549.055 194.542C549.055 196.446 548.729 197.861 548.079 198.787C547.429 199.713 546.412 200.176 545.029 200.176C543.664 200.176 542.653 199.725 541.997 198.822C541.341 197.914 541.001 196.561 540.978 194.762V192.591C540.978 190.71 541.303 189.312 541.953 188.398C542.604 187.484 543.623 187.027 545.012 187.027C546.389 187.027 547.402 187.47 548.053 188.354C548.703 189.233 549.037 190.593 549.055 192.433V194.542ZM547.429 192.318C547.429 190.941 547.235 189.939 546.849 189.312C546.462 188.68 545.85 188.363 545.012 188.363C544.18 188.363 543.573 188.677 543.192 189.304C542.812 189.931 542.615 190.895 542.604 192.195V194.797C542.604 196.18 542.803 197.202 543.201 197.864C543.605 198.521 544.215 198.849 545.029 198.849C545.832 198.849 546.427 198.538 546.813 197.917C547.206 197.296 547.411 196.317 547.429 194.981V192.318ZM556.481 200H554.847V189.163L551.568 190.367V188.891L556.227 187.142H556.481V200ZM569.27 194.542C569.27 196.446 568.944 197.861 568.294 198.787C567.644 199.713 566.627 200.176 565.244 200.176C563.879 200.176 562.868 199.725 562.212 198.822C561.556 197.914 561.216 196.561 561.192 194.762V192.591C561.192 190.71 561.518 189.312 562.168 188.398C562.818 187.484 563.838 187.027 565.227 187.027C566.604 187.027 567.617 187.47 568.268 188.354C568.918 189.233 569.252 190.593 569.27 192.433V194.542ZM567.644 192.318C567.644 190.941 567.45 189.939 567.063 189.312C566.677 188.68 566.064 188.363 565.227 188.363C564.395 188.363 563.788 188.677 563.407 189.304C563.026 189.931 562.83 190.895 562.818 192.195V194.797C562.818 196.18 563.018 197.202 563.416 197.864C563.82 198.521 564.43 198.849 565.244 198.849C566.047 198.849 566.642 198.538 567.028 197.917C567.421 197.296 567.626 196.317 567.644 194.981V192.318ZM579.377 194.542C579.377 196.446 579.052 197.861 578.401 198.787C577.751 199.713 576.734 200.176 575.352 200.176C573.986 200.176 572.976 199.725 572.319 198.822C571.663 197.914 571.323 196.561 571.3 194.762V192.591C571.3 190.71 571.625 189.312 572.275 188.398C572.926 187.484 573.945 187.027 575.334 187.027C576.711 187.027 577.725 187.47 578.375 188.354C579.025 189.233 579.359 190.593 579.377 192.433V194.542ZM577.751 192.318C577.751 190.941 577.558 189.939 577.171 189.312C576.784 188.68 576.172 188.363 575.334 188.363C574.502 188.363 573.896 188.677 573.515 189.304C573.134 189.931 572.938 190.895 572.926 192.195V194.797C572.926 196.18 573.125 197.202 573.523 197.864C573.928 198.521 574.537 198.849 575.352 198.849C576.154 198.849 576.749 198.538 577.136 197.917C577.528 197.296 577.733 196.317 577.751 194.981V192.318ZM589.484 194.542C589.484 196.446 589.159 197.861 588.509 198.787C587.858 199.713 586.842 200.176 585.459 200.176C584.094 200.176 583.083 199.725 582.427 198.822C581.771 197.914 581.431 196.561 581.407 194.762V192.591C581.407 190.71 581.732 189.312 582.383 188.398C583.033 187.484 584.053 187.027 585.441 187.027C586.818 187.027 587.832 187.47 588.482 188.354C589.133 189.233 589.467 190.593 589.484 192.433V194.542ZM587.858 192.318C587.858 190.941 587.665 189.939 587.278 189.312C586.892 188.68 586.279 188.363 585.441 188.363C584.609 188.363 584.003 188.677 583.622 189.304C583.241 189.931 583.045 190.895 583.033 192.195V194.797C583.033 196.18 583.232 197.202 583.631 197.864C584.035 198.521 584.645 198.849 585.459 198.849C586.262 198.849 586.856 198.538 587.243 197.917C587.636 197.296 587.841 196.317 587.858 194.981V192.318ZM599.592 194.542C599.592 196.446 599.267 197.861 598.616 198.787C597.966 199.713 596.949 200.176 595.566 200.176C594.201 200.176 593.19 199.725 592.534 198.822C591.878 197.914 591.538 196.561 591.515 194.762V192.591C591.515 190.71 591.84 189.312 592.49 188.398C593.141 187.484 594.16 187.027 595.549 187.027C596.926 187.027 597.939 187.47 598.59 188.354C599.24 189.233 599.574 190.593 599.592 192.433V194.542ZM597.966 192.318C597.966 190.941 597.772 189.939 597.386 189.312C596.999 188.68 596.387 188.363 595.549 188.363C594.717 188.363 594.11 188.677 593.729 189.304C593.349 189.931 593.152 190.895 593.141 192.195V194.797C593.141 196.18 593.34 197.202 593.738 197.864C594.143 198.521 594.752 198.849 595.566 198.849C596.369 198.849 596.964 198.538 597.351 197.917C597.743 197.296 597.948 196.317 597.966 194.981V192.318ZM607.019 200H605.384V189.163L602.105 190.367V188.891L606.764 187.142H607.019V200ZM619.807 194.542C619.807 196.446 619.481 197.861 618.831 198.787C618.181 199.713 617.164 200.176 615.781 200.176C614.416 200.176 613.405 199.725 612.749 198.822C612.093 197.914 611.753 196.561 611.729 194.762V192.591C611.729 190.71 612.055 189.312 612.705 188.398C613.355 187.484 614.375 187.027 615.764 187.027C617.141 187.027 618.154 187.47 618.805 188.354C619.455 189.233 619.789 190.593 619.807 192.433V194.542ZM618.181 192.318C618.181 190.941 617.987 189.939 617.601 189.312C617.214 188.68 616.602 188.363 615.764 188.363C614.932 188.363 614.325 188.677 613.944 189.304C613.563 189.931 613.367 190.895 613.355 192.195V194.797C613.355 196.18 613.555 197.202 613.953 197.864C614.357 198.521 614.967 198.849 615.781 198.849C616.584 198.849 617.179 198.538 617.565 197.917C617.958 197.296 618.163 196.317 618.181 194.981V192.318ZM629.914 194.542C629.914 196.446 629.589 197.861 628.938 198.787C628.288 199.713 627.271 200.176 625.889 200.176C624.523 200.176 623.513 199.725 622.856 198.822C622.2 197.914 621.86 196.561 621.837 194.762V192.591C621.837 190.71 622.162 189.312 622.812 188.398C623.463 187.484 624.482 187.027 625.871 187.027C627.248 187.027 628.262 187.47 628.912 188.354C629.562 189.233 629.896 190.593 629.914 192.433V194.542ZM628.288 192.318C628.288 190.941 628.095 189.939 627.708 189.312C627.321 188.68 626.709 188.363 625.871 188.363C625.039 188.363 624.433 188.677 624.052 189.304C623.671 189.931 623.475 190.895 623.463 192.195V194.797C623.463 196.18 623.662 197.202 624.061 197.864C624.465 198.521 625.074 198.849 625.889 198.849C626.691 198.849 627.286 198.538 627.673 197.917C628.065 197.296 628.271 196.317 628.288 194.981V192.318ZM637.341 200H635.706V189.163L632.428 190.367V188.891L637.086 187.142H637.341V200ZM650.129 194.542C650.129 196.446 649.804 197.861 649.153 198.787C648.503 199.713 647.486 200.176 646.104 200.176C644.738 200.176 643.728 199.725 643.071 198.822C642.415 197.914 642.075 196.561 642.052 194.762V192.591C642.052 190.71 642.377 189.312 643.027 188.398C643.678 187.484 644.697 187.027 646.086 187.027C647.463 187.027 648.477 187.47 649.127 188.354C649.777 189.233 650.111 190.593 650.129 192.433V194.542ZM648.503 192.318C648.503 190.941 648.31 189.939 647.923 189.312C647.536 188.68 646.924 188.363 646.086 188.363C645.254 188.363 644.647 188.677 644.267 189.304C643.886 189.931 643.689 190.895 643.678 192.195V194.797C643.678 196.18 643.877 197.202 644.275 197.864C644.68 198.521 645.289 198.849 646.104 198.849C646.906 198.849 647.501 198.538 647.888 197.917C648.28 197.296 648.485 196.317 648.503 194.981V192.318ZM660.236 194.542C660.236 196.446 659.911 197.861 659.261 198.787C658.61 199.713 657.594 200.176 656.211 200.176C654.846 200.176 653.835 199.725 653.179 198.822C652.522 197.914 652.183 196.561 652.159 194.762V192.591C652.159 190.71 652.484 189.312 653.135 188.398C653.785 187.484 654.805 187.027 656.193 187.027C657.57 187.027 658.584 187.47 659.234 188.354C659.885 189.233 660.219 190.593 660.236 192.433V194.542ZM658.61 192.318C658.61 190.941 658.417 189.939 658.03 189.312C657.644 188.68 657.031 188.363 656.193 188.363C655.361 188.363 654.755 188.677 654.374 189.304C653.993 189.931 653.797 190.895 653.785 192.195V194.797C653.785 196.18 653.984 197.202 654.383 197.864C654.787 198.521 655.396 198.849 656.211 198.849C657.014 198.849 657.608 198.538 657.995 197.917C658.388 197.296 658.593 196.317 658.61 194.981V192.318ZM455.407 221H453.772V210.163L450.494 211.367V209.891L455.152 208.142H455.407V221ZM468.195 215.542C468.195 217.446 467.87 218.861 467.22 219.787C466.569 220.713 465.553 221.176 464.17 221.176C462.805 221.176 461.794 220.725 461.138 219.822C460.481 218.914 460.142 217.561 460.118 215.762V213.591C460.118 211.71 460.443 210.312 461.094 209.398C461.744 208.484 462.764 208.027 464.152 208.027C465.529 208.027 466.543 208.47 467.193 209.354C467.844 210.233 468.178 211.593 468.195 213.433V215.542ZM466.569 213.318C466.569 211.941 466.376 210.939 465.989 210.312C465.603 209.68 464.99 209.363 464.152 209.363C463.32 209.363 462.714 209.677 462.333 210.304C461.952 210.931 461.756 211.895 461.744 213.195V215.797C461.744 217.18 461.943 218.202 462.342 218.864C462.746 219.521 463.355 219.849 464.17 219.849C464.973 219.849 465.567 219.538 465.954 218.917C466.347 218.296 466.552 217.317 466.569 215.981V213.318ZM478.303 215.542C478.303 217.446 477.978 218.861 477.327 219.787C476.677 220.713 475.66 221.176 474.277 221.176C472.912 221.176 471.901 220.725 471.245 219.822C470.589 218.914 470.249 217.561 470.226 215.762V213.591C470.226 211.71 470.551 210.312 471.201 209.398C471.852 208.484 472.871 208.027 474.26 208.027C475.637 208.027 476.65 208.47 477.301 209.354C477.951 210.233 478.285 211.593 478.303 213.433V215.542ZM476.677 213.318C476.677 211.941 476.483 210.939 476.097 210.312C475.71 209.68 475.098 209.363 474.26 209.363C473.428 209.363 472.821 209.677 472.44 210.304C472.06 210.931 471.863 211.895 471.852 213.195V215.797C471.852 217.18 472.051 218.202 472.449 218.864C472.854 219.521 473.463 219.849 474.277 219.849C475.08 219.849 475.675 219.538 476.062 218.917C476.454 218.296 476.659 217.317 476.677 215.981V213.318ZM488.41 215.542C488.41 217.446 488.085 218.861 487.435 219.787C486.784 220.713 485.768 221.176 484.385 221.176C483.02 221.176 482.009 220.725 481.353 219.822C480.696 218.914 480.356 217.561 480.333 215.762V213.591C480.333 211.71 480.658 210.312 481.309 209.398C481.959 208.484 482.979 208.027 484.367 208.027C485.744 208.027 486.758 208.47 487.408 209.354C488.059 210.233 488.393 211.593 488.41 213.433V215.542ZM486.784 213.318C486.784 211.941 486.591 210.939 486.204 210.312C485.817 209.68 485.205 209.363 484.367 209.363C483.535 209.363 482.929 209.677 482.548 210.304C482.167 210.931 481.971 211.895 481.959 213.195V215.797C481.959 217.18 482.158 218.202 482.557 218.864C482.961 219.521 483.57 219.849 484.385 219.849C485.188 219.849 485.782 219.538 486.169 218.917C486.562 218.296 486.767 217.317 486.784 215.981V213.318ZM498.518 215.542C498.518 217.446 498.192 218.861 497.542 219.787C496.892 220.713 495.875 221.176 494.492 221.176C493.127 221.176 492.116 220.725 491.46 219.822C490.804 218.914 490.464 217.561 490.44 215.762V213.591C490.44 211.71 490.766 210.312 491.416 209.398C492.066 208.484 493.086 208.027 494.475 208.027C495.852 208.027 496.865 208.47 497.516 209.354C498.166 210.233 498.5 211.593 498.518 213.433V215.542ZM496.892 213.318C496.892 211.941 496.698 210.939 496.312 210.312C495.925 209.68 495.312 209.363 494.475 209.363C493.643 209.363 493.036 209.677 492.655 210.304C492.274 210.931 492.078 211.895 492.066 213.195V215.797C492.066 217.18 492.266 218.202 492.664 218.864C493.068 219.521 493.678 219.849 494.492 219.849C495.295 219.849 495.89 219.538 496.276 218.917C496.669 218.296 496.874 217.317 496.892 215.981V213.318ZM505.944 221H504.31V210.163L501.031 211.367V209.891L505.689 208.142H505.944V221ZM518.732 215.542C518.732 217.446 518.407 218.861 517.757 219.787C517.106 220.713 516.09 221.176 514.707 221.176C513.342 221.176 512.331 220.725 511.675 219.822C511.019 218.914 510.679 217.561 510.655 215.762V213.591C510.655 211.71 510.98 210.312 511.631 209.398C512.281 208.484 513.301 208.027 514.689 208.027C516.066 208.027 517.08 208.47 517.73 209.354C518.381 210.233 518.715 211.593 518.732 213.433V215.542ZM517.106 213.318C517.106 211.941 516.913 210.939 516.526 210.312C516.14 209.68 515.527 209.363 514.689 209.363C513.857 209.363 513.251 209.677 512.87 210.304C512.489 210.931 512.293 211.895 512.281 213.195V215.797C512.281 217.18 512.48 218.202 512.879 218.864C513.283 219.521 513.893 219.849 514.707 219.849C515.51 219.849 516.104 219.538 516.491 218.917C516.884 218.296 517.089 217.317 517.106 215.981V213.318ZM528.84 215.542C528.84 217.446 528.515 218.861 527.864 219.787C527.214 220.713 526.197 221.176 524.814 221.176C523.449 221.176 522.438 220.725 521.782 219.822C521.126 218.914 520.786 217.561 520.763 215.762V213.591C520.763 211.71 521.088 210.312 521.738 209.398C522.389 208.484 523.408 208.027 524.797 208.027C526.174 208.027 527.188 208.47 527.838 209.354C528.488 210.233 528.822 211.593 528.84 213.433V215.542ZM527.214 213.318C527.214 211.941 527.021 210.939 526.634 210.312C526.247 209.68 525.635 209.363 524.797 209.363C523.965 209.363 523.358 209.677 522.978 210.304C522.597 210.931 522.4 211.895 522.389 213.195V215.797C522.389 217.18 522.588 218.202 522.986 218.864C523.391 219.521 524 219.849 524.814 219.849C525.617 219.849 526.212 219.538 526.599 218.917C526.991 218.296 527.196 217.317 527.214 215.981V213.318ZM538.947 215.542C538.947 217.446 538.622 218.861 537.972 219.787C537.321 220.713 536.305 221.176 534.922 221.176C533.557 221.176 532.546 220.725 531.89 219.822C531.233 218.914 530.894 217.561 530.87 215.762V213.591C530.87 211.71 531.195 210.312 531.846 209.398C532.496 208.484 533.516 208.027 534.904 208.027C536.281 208.027 537.295 208.47 537.945 209.354C538.596 210.233 538.93 211.593 538.947 213.433V215.542ZM537.321 213.318C537.321 211.941 537.128 210.939 536.741 210.312C536.354 209.68 535.742 209.363 534.904 209.363C534.072 209.363 533.466 209.677 533.085 210.304C532.704 210.931 532.508 211.895 532.496 213.195V215.797C532.496 217.18 532.695 218.202 533.094 218.864C533.498 219.521 534.107 219.849 534.922 219.849C535.725 219.849 536.319 219.538 536.706 218.917C537.099 218.296 537.304 217.317 537.321 215.981V213.318ZM546.374 221H544.739V210.163L541.461 211.367V209.891L546.119 208.142H546.374V221ZM559.162 215.542C559.162 217.446 558.837 218.861 558.187 219.787C557.536 220.713 556.52 221.176 555.137 221.176C553.771 221.176 552.761 220.725 552.104 219.822C551.448 218.914 551.108 217.561 551.085 215.762V213.591C551.085 211.71 551.41 210.312 552.061 209.398C552.711 208.484 553.73 208.027 555.119 208.027C556.496 208.027 557.51 208.47 558.16 209.354C558.811 210.233 559.145 211.593 559.162 213.433V215.542ZM557.536 213.318C557.536 211.941 557.343 210.939 556.956 210.312C556.569 209.68 555.957 209.363 555.119 209.363C554.287 209.363 553.681 209.677 553.3 210.304C552.919 210.931 552.723 211.895 552.711 213.195V215.797C552.711 217.18 552.91 218.202 553.309 218.864C553.713 219.521 554.322 219.849 555.137 219.849C555.939 219.849 556.534 219.538 556.921 218.917C557.313 218.296 557.519 217.317 557.536 215.981V213.318ZM569.27 215.542C569.27 217.446 568.944 218.861 568.294 219.787C567.644 220.713 566.627 221.176 565.244 221.176C563.879 221.176 562.868 220.725 562.212 219.822C561.556 218.914 561.216 217.561 561.192 215.762V213.591C561.192 211.71 561.518 210.312 562.168 209.398C562.818 208.484 563.838 208.027 565.227 208.027C566.604 208.027 567.617 208.47 568.268 209.354C568.918 210.233 569.252 211.593 569.27 213.433V215.542ZM567.644 213.318C567.644 211.941 567.45 210.939 567.063 210.312C566.677 209.68 566.064 209.363 565.227 209.363C564.395 209.363 563.788 209.677 563.407 210.304C563.026 210.931 562.83 211.895 562.818 213.195V215.797C562.818 217.18 563.018 218.202 563.416 218.864C563.82 219.521 564.43 219.849 565.244 219.849C566.047 219.849 566.642 219.538 567.028 218.917C567.421 218.296 567.626 217.317 567.644 215.981V213.318ZM579.377 215.542C579.377 217.446 579.052 218.861 578.401 219.787C577.751 220.713 576.734 221.176 575.352 221.176C573.986 221.176 572.976 220.725 572.319 219.822C571.663 218.914 571.323 217.561 571.3 215.762V213.591C571.3 211.71 571.625 210.312 572.275 209.398C572.926 208.484 573.945 208.027 575.334 208.027C576.711 208.027 577.725 208.47 578.375 209.354C579.025 210.233 579.359 211.593 579.377 213.433V215.542ZM577.751 213.318C577.751 211.941 577.558 210.939 577.171 210.312C576.784 209.68 576.172 209.363 575.334 209.363C574.502 209.363 573.896 209.677 573.515 210.304C573.134 210.931 572.938 211.895 572.926 213.195V215.797C572.926 217.18 573.125 218.202 573.523 218.864C573.928 219.521 574.537 219.849 575.352 219.849C576.154 219.849 576.749 219.538 577.136 218.917C577.528 218.296 577.733 217.317 577.751 215.981V213.318ZM589.484 215.542C589.484 217.446 589.159 218.861 588.509 219.787C587.858 220.713 586.842 221.176 585.459 221.176C584.094 221.176 583.083 220.725 582.427 219.822C581.771 218.914 581.431 217.561 581.407 215.762V213.591C581.407 211.71 581.732 210.312 582.383 209.398C583.033 208.484 584.053 208.027 585.441 208.027C586.818 208.027 587.832 208.47 588.482 209.354C589.133 210.233 589.467 211.593 589.484 213.433V215.542ZM587.858 213.318C587.858 211.941 587.665 210.939 587.278 210.312C586.892 209.68 586.279 209.363 585.441 209.363C584.609 209.363 584.003 209.677 583.622 210.304C583.241 210.931 583.045 211.895 583.033 213.195V215.797C583.033 217.18 583.232 218.202 583.631 218.864C584.035 219.521 584.645 219.849 585.459 219.849C586.262 219.849 586.856 219.538 587.243 218.917C587.636 218.296 587.841 217.317 587.858 215.981V213.318ZM596.911 221H595.276V210.163L591.998 211.367V209.891L596.656 208.142H596.911V221ZM609.699 215.542C609.699 217.446 609.374 218.861 608.724 219.787C608.073 220.713 607.057 221.176 605.674 221.176C604.309 221.176 603.298 220.725 602.642 219.822C601.985 218.914 601.646 217.561 601.622 215.762V213.591C601.622 211.71 601.947 210.312 602.598 209.398C603.248 208.484 604.268 208.027 605.656 208.027C607.033 208.027 608.047 208.47 608.697 209.354C609.348 210.233 609.682 211.593 609.699 213.433V215.542ZM608.073 213.318C608.073 211.941 607.88 210.939 607.493 210.312C607.106 209.68 606.494 209.363 605.656 209.363C604.824 209.363 604.218 209.677 603.837 210.304C603.456 210.931 603.26 211.895 603.248 213.195V215.797C603.248 217.18 603.447 218.202 603.846 218.864C604.25 219.521 604.859 219.849 605.674 219.849C606.477 219.849 607.071 219.538 607.458 218.917C607.851 218.296 608.056 217.317 608.073 215.981V213.318ZM619.807 215.542C619.807 217.446 619.481 218.861 618.831 219.787C618.181 220.713 617.164 221.176 615.781 221.176C614.416 221.176 613.405 220.725 612.749 219.822C612.093 218.914 611.753 217.561 611.729 215.762V213.591C611.729 211.71 612.055 210.312 612.705 209.398C613.355 208.484 614.375 208.027 615.764 208.027C617.141 208.027 618.154 208.47 618.805 209.354C619.455 210.233 619.789 211.593 619.807 213.433V215.542ZM618.181 213.318C618.181 211.941 617.987 210.939 617.601 210.312C617.214 209.68 616.602 209.363 615.764 209.363C614.932 209.363 614.325 209.677 613.944 210.304C613.563 210.931 613.367 211.895 613.355 213.195V215.797C613.355 217.18 613.555 218.202 613.953 218.864C614.357 219.521 614.967 219.849 615.781 219.849C616.584 219.849 617.179 219.538 617.565 218.917C617.958 218.296 618.163 217.317 618.181 215.981V213.318ZM627.233 221H625.599V210.163L622.32 211.367V209.891L626.979 208.142H627.233V221ZM640.021 215.542C640.021 217.446 639.696 218.861 639.046 219.787C638.396 220.713 637.379 221.176 635.996 221.176C634.631 221.176 633.62 220.725 632.964 219.822C632.308 218.914 631.968 217.561 631.944 215.762V213.591C631.944 211.71 632.27 210.312 632.92 209.398C633.57 208.484 634.59 208.027 635.979 208.027C637.355 208.027 638.369 208.47 639.02 209.354C639.67 210.233 640.004 211.593 640.021 213.433V215.542ZM638.396 213.318C638.396 211.941 638.202 210.939 637.815 210.312C637.429 209.68 636.816 209.363 635.979 209.363C635.146 209.363 634.54 209.677 634.159 210.304C633.778 210.931 633.582 211.895 633.57 213.195V215.797C633.57 217.18 633.77 218.202 634.168 218.864C634.572 219.521 635.182 219.849 635.996 219.849C636.799 219.849 637.394 219.538 637.78 218.917C638.173 218.296 638.378 217.317 638.396 215.981V213.318ZM650.129 215.542C650.129 217.446 649.804 218.861 649.153 219.787C648.503 220.713 647.486 221.176 646.104 221.176C644.738 221.176 643.728 220.725 643.071 219.822C642.415 218.914 642.075 217.561 642.052 215.762V213.591C642.052 211.71 642.377 210.312 643.027 209.398C643.678 208.484 644.697 208.027 646.086 208.027C647.463 208.027 648.477 208.47 649.127 209.354C649.777 210.233 650.111 211.593 650.129 213.433V215.542ZM648.503 213.318C648.503 211.941 648.31 210.939 647.923 210.312C647.536 209.68 646.924 209.363 646.086 209.363C645.254 209.363 644.647 209.677 644.267 210.304C643.886 210.931 643.689 211.895 643.678 213.195V215.797C643.678 217.18 643.877 218.202 644.275 218.864C644.68 219.521 645.289 219.849 646.104 219.849C646.906 219.849 647.501 219.538 647.888 218.917C648.28 218.296 648.485 217.317 648.503 215.981V213.318ZM660.236 215.542C660.236 217.446 659.911 218.861 659.261 219.787C658.61 220.713 657.594 221.176 656.211 221.176C654.846 221.176 653.835 220.725 653.179 219.822C652.522 218.914 652.183 217.561 652.159 215.762V213.591C652.159 211.71 652.484 210.312 653.135 209.398C653.785 208.484 654.805 208.027 656.193 208.027C657.57 208.027 658.584 208.47 659.234 209.354C659.885 210.233 660.219 211.593 660.236 213.433V215.542ZM658.61 213.318C658.61 211.941 658.417 210.939 658.03 210.312C657.644 209.68 657.031 209.363 656.193 209.363C655.361 209.363 654.755 209.677 654.374 210.304C653.993 210.931 653.797 211.895 653.785 213.195V215.797C653.785 217.18 653.984 218.202 654.383 218.864C654.787 219.521 655.396 219.849 656.211 219.849C657.014 219.849 657.608 219.538 657.995 218.917C658.388 218.296 658.593 217.317 658.61 215.981V213.318ZM455.407 242H453.772V231.163L450.494 232.367V230.891L455.152 229.142H455.407V242ZM468.195 236.542C468.195 238.446 467.87 239.861 467.22 240.787C466.569 241.713 465.553 242.176 464.17 242.176C462.805 242.176 461.794 241.725 461.138 240.822C460.481 239.914 460.142 238.561 460.118 236.762V234.591C460.118 232.71 460.443 231.312 461.094 230.398C461.744 229.484 462.764 229.027 464.152 229.027C465.529 229.027 466.543 229.47 467.193 230.354C467.844 231.233 468.178 232.593 468.195 234.433V236.542ZM466.569 234.318C466.569 232.941 466.376 231.939 465.989 231.312C465.603 230.68 464.99 230.363 464.152 230.363C463.32 230.363 462.714 230.677 462.333 231.304C461.952 231.931 461.756 232.895 461.744 234.195V236.797C461.744 238.18 461.943 239.202 462.342 239.864C462.746 240.521 463.355 240.849 464.17 240.849C464.973 240.849 465.567 240.538 465.954 239.917C466.347 239.296 466.552 238.317 466.569 236.981V234.318ZM478.303 236.542C478.303 238.446 477.978 239.861 477.327 240.787C476.677 241.713 475.66 242.176 474.277 242.176C472.912 242.176 471.901 241.725 471.245 240.822C470.589 239.914 470.249 238.561 470.226 236.762V234.591C470.226 232.71 470.551 231.312 471.201 230.398C471.852 229.484 472.871 229.027 474.26 229.027C475.637 229.027 476.65 229.47 477.301 230.354C477.951 231.233 478.285 232.593 478.303 234.433V236.542ZM476.677 234.318C476.677 232.941 476.483 231.939 476.097 231.312C475.71 230.68 475.098 230.363 474.26 230.363C473.428 230.363 472.821 230.677 472.44 231.304C472.06 231.931 471.863 232.895 471.852 234.195V236.797C471.852 238.18 472.051 239.202 472.449 239.864C472.854 240.521 473.463 240.849 474.277 240.849C475.08 240.849 475.675 240.538 476.062 239.917C476.454 239.296 476.659 238.317 476.677 236.981V234.318ZM488.41 236.542C488.41 238.446 488.085 239.861 487.435 240.787C486.784 241.713 485.768 242.176 484.385 242.176C483.02 242.176 482.009 241.725 481.353 240.822C480.696 239.914 480.356 238.561 480.333 236.762V234.591C480.333 232.71 480.658 231.312 481.309 230.398C481.959 229.484 482.979 229.027 484.367 229.027C485.744 229.027 486.758 229.47 487.408 230.354C488.059 231.233 488.393 232.593 488.41 234.433V236.542ZM486.784 234.318C486.784 232.941 486.591 231.939 486.204 231.312C485.817 230.68 485.205 230.363 484.367 230.363C483.535 230.363 482.929 230.677 482.548 231.304C482.167 231.931 481.971 232.895 481.959 234.195V236.797C481.959 238.18 482.158 239.202 482.557 239.864C482.961 240.521 483.57 240.849 484.385 240.849C485.188 240.849 485.782 240.538 486.169 239.917C486.562 239.296 486.767 238.317 486.784 236.981V234.318ZM495.837 242H494.202V231.163L490.924 232.367V230.891L495.582 229.142H495.837V242ZM508.625 236.542C508.625 238.446 508.3 239.861 507.649 240.787C506.999 241.713 505.982 242.176 504.6 242.176C503.234 242.176 502.224 241.725 501.567 240.822C500.911 239.914 500.571 238.561 500.548 236.762V234.591C500.548 232.71 500.873 231.312 501.523 230.398C502.174 229.484 503.193 229.027 504.582 229.027C505.959 229.027 506.973 229.47 507.623 230.354C508.273 231.233 508.607 232.593 508.625 234.433V236.542ZM506.999 234.318C506.999 232.941 506.806 231.939 506.419 231.312C506.032 230.68 505.42 230.363 504.582 230.363C503.75 230.363 503.144 230.677 502.763 231.304C502.382 231.931 502.186 232.895 502.174 234.195V236.797C502.174 238.18 502.373 239.202 502.771 239.864C503.176 240.521 503.785 240.849 504.6 240.849C505.402 240.849 505.997 240.538 506.384 239.917C506.776 239.296 506.981 238.317 506.999 236.981V234.318ZM518.732 236.542C518.732 238.446 518.407 239.861 517.757 240.787C517.106 241.713 516.09 242.176 514.707 242.176C513.342 242.176 512.331 241.725 511.675 240.822C511.019 239.914 510.679 238.561 510.655 236.762V234.591C510.655 232.71 510.98 231.312 511.631 230.398C512.281 229.484 513.301 229.027 514.689 229.027C516.066 229.027 517.08 229.47 517.73 230.354C518.381 231.233 518.715 232.593 518.732 234.433V236.542ZM517.106 234.318C517.106 232.941 516.913 231.939 516.526 231.312C516.14 230.68 515.527 230.363 514.689 230.363C513.857 230.363 513.251 230.677 512.87 231.304C512.489 231.931 512.293 232.895 512.281 234.195V236.797C512.281 238.18 512.48 239.202 512.879 239.864C513.283 240.521 513.893 240.849 514.707 240.849C515.51 240.849 516.104 240.538 516.491 239.917C516.884 239.296 517.089 238.317 517.106 236.981V234.318ZM528.84 236.542C528.84 238.446 528.515 239.861 527.864 240.787C527.214 241.713 526.197 242.176 524.814 242.176C523.449 242.176 522.438 241.725 521.782 240.822C521.126 239.914 520.786 238.561 520.763 236.762V234.591C520.763 232.71 521.088 231.312 521.738 230.398C522.389 229.484 523.408 229.027 524.797 229.027C526.174 229.027 527.188 229.47 527.838 230.354C528.488 231.233 528.822 232.593 528.84 234.433V236.542ZM527.214 234.318C527.214 232.941 527.021 231.939 526.634 231.312C526.247 230.68 525.635 230.363 524.797 230.363C523.965 230.363 523.358 230.677 522.978 231.304C522.597 231.931 522.4 232.895 522.389 234.195V236.797C522.389 238.18 522.588 239.202 522.986 239.864C523.391 240.521 524 240.849 524.814 240.849C525.617 240.849 526.212 240.538 526.599 239.917C526.991 239.296 527.196 238.317 527.214 236.981V234.318ZM538.947 236.542C538.947 238.446 538.622 239.861 537.972 240.787C537.321 241.713 536.305 242.176 534.922 242.176C533.557 242.176 532.546 241.725 531.89 240.822C531.233 239.914 530.894 238.561 530.87 236.762V234.591C530.87 232.71 531.195 231.312 531.846 230.398C532.496 229.484 533.516 229.027 534.904 229.027C536.281 229.027 537.295 229.47 537.945 230.354C538.596 231.233 538.93 232.593 538.947 234.433V236.542ZM537.321 234.318C537.321 232.941 537.128 231.939 536.741 231.312C536.354 230.68 535.742 230.363 534.904 230.363C534.072 230.363 533.466 230.677 533.085 231.304C532.704 231.931 532.508 232.895 532.496 234.195V236.797C532.496 238.18 532.695 239.202 533.094 239.864C533.498 240.521 534.107 240.849 534.922 240.849C535.725 240.849 536.319 240.538 536.706 239.917C537.099 239.296 537.304 238.317 537.321 236.981V234.318ZM546.374 242H544.739V231.163L541.461 232.367V230.891L546.119 229.142H546.374V242ZM559.162 236.542C559.162 238.446 558.837 239.861 558.187 240.787C557.536 241.713 556.52 242.176 555.137 242.176C553.771 242.176 552.761 241.725 552.104 240.822C551.448 239.914 551.108 238.561 551.085 236.762V234.591C551.085 232.71 551.41 231.312 552.061 230.398C552.711 229.484 553.73 229.027 555.119 229.027C556.496 229.027 557.51 229.47 558.16 230.354C558.811 231.233 559.145 232.593 559.162 234.433V236.542ZM557.536 234.318C557.536 232.941 557.343 231.939 556.956 231.312C556.569 230.68 555.957 230.363 555.119 230.363C554.287 230.363 553.681 230.677 553.3 231.304C552.919 231.931 552.723 232.895 552.711 234.195V236.797C552.711 238.18 552.91 239.202 553.309 239.864C553.713 240.521 554.322 240.849 555.137 240.849C555.939 240.849 556.534 240.538 556.921 239.917C557.313 239.296 557.519 238.317 557.536 236.981V234.318ZM569.27 236.542C569.27 238.446 568.944 239.861 568.294 240.787C567.644 241.713 566.627 242.176 565.244 242.176C563.879 242.176 562.868 241.725 562.212 240.822C561.556 239.914 561.216 238.561 561.192 236.762V234.591C561.192 232.71 561.518 231.312 562.168 230.398C562.818 229.484 563.838 229.027 565.227 229.027C566.604 229.027 567.617 229.47 568.268 230.354C568.918 231.233 569.252 232.593 569.27 234.433V236.542ZM567.644 234.318C567.644 232.941 567.45 231.939 567.063 231.312C566.677 230.68 566.064 230.363 565.227 230.363C564.395 230.363 563.788 230.677 563.407 231.304C563.026 231.931 562.83 232.895 562.818 234.195V236.797C562.818 238.18 563.018 239.202 563.416 239.864C563.82 240.521 564.43 240.849 565.244 240.849C566.047 240.849 566.642 240.538 567.028 239.917C567.421 239.296 567.626 238.317 567.644 236.981V234.318ZM576.696 242H575.062V231.163L571.783 232.367V230.891L576.441 229.142H576.696V242ZM589.484 236.542C589.484 238.446 589.159 239.861 588.509 240.787C587.858 241.713 586.842 242.176 585.459 242.176C584.094 242.176 583.083 241.725 582.427 240.822C581.771 239.914 581.431 238.561 581.407 236.762V234.591C581.407 232.71 581.732 231.312 582.383 230.398C583.033 229.484 584.053 229.027 585.441 229.027C586.818 229.027 587.832 229.47 588.482 230.354C589.133 231.233 589.467 232.593 589.484 234.433V236.542ZM587.858 234.318C587.858 232.941 587.665 231.939 587.278 231.312C586.892 230.68 586.279 230.363 585.441 230.363C584.609 230.363 584.003 230.677 583.622 231.304C583.241 231.931 583.045 232.895 583.033 234.195V236.797C583.033 238.18 583.232 239.202 583.631 239.864C584.035 240.521 584.645 240.849 585.459 240.849C586.262 240.849 586.856 240.538 587.243 239.917C587.636 239.296 587.841 238.317 587.858 236.981V234.318ZM599.592 236.542C599.592 238.446 599.267 239.861 598.616 240.787C597.966 241.713 596.949 242.176 595.566 242.176C594.201 242.176 593.19 241.725 592.534 240.822C591.878 239.914 591.538 238.561 591.515 236.762V234.591C591.515 232.71 591.84 231.312 592.49 230.398C593.141 229.484 594.16 229.027 595.549 229.027C596.926 229.027 597.939 229.47 598.59 230.354C599.24 231.233 599.574 232.593 599.592 234.433V236.542ZM597.966 234.318C597.966 232.941 597.772 231.939 597.386 231.312C596.999 230.68 596.387 230.363 595.549 230.363C594.717 230.363 594.11 230.677 593.729 231.304C593.349 231.931 593.152 232.895 593.141 234.195V236.797C593.141 238.18 593.34 239.202 593.738 239.864C594.143 240.521 594.752 240.849 595.566 240.849C596.369 240.849 596.964 240.538 597.351 239.917C597.743 239.296 597.948 238.317 597.966 236.981V234.318ZM609.699 236.542C609.699 238.446 609.374 239.861 608.724 240.787C608.073 241.713 607.057 242.176 605.674 242.176C604.309 242.176 603.298 241.725 602.642 240.822C601.985 239.914 601.646 238.561 601.622 236.762V234.591C601.622 232.71 601.947 231.312 602.598 230.398C603.248 229.484 604.268 229.027 605.656 229.027C607.033 229.027 608.047 229.47 608.697 230.354C609.348 231.233 609.682 232.593 609.699 234.433V236.542ZM608.073 234.318C608.073 232.941 607.88 231.939 607.493 231.312C607.106 230.68 606.494 230.363 605.656 230.363C604.824 230.363 604.218 230.677 603.837 231.304C603.456 231.931 603.26 232.895 603.248 234.195V236.797C603.248 238.18 603.447 239.202 603.846 239.864C604.25 240.521 604.859 240.849 605.674 240.849C606.477 240.849 607.071 240.538 607.458 239.917C607.851 239.296 608.056 238.317 608.073 236.981V234.318ZM617.126 242H615.491V231.163L612.213 232.367V230.891L616.871 229.142H617.126V242ZM629.914 236.542C629.914 238.446 629.589 239.861 628.938 240.787C628.288 241.713 627.271 242.176 625.889 242.176C624.523 242.176 623.513 241.725 622.856 240.822C622.2 239.914 621.86 238.561 621.837 236.762V234.591C621.837 232.71 622.162 231.312 622.812 230.398C623.463 229.484 624.482 229.027 625.871 229.027C627.248 229.027 628.262 229.47 628.912 230.354C629.562 231.233 629.896 232.593 629.914 234.433V236.542ZM628.288 234.318C628.288 232.941 628.095 231.939 627.708 231.312C627.321 230.68 626.709 230.363 625.871 230.363C625.039 230.363 624.433 230.677 624.052 231.304C623.671 231.931 623.475 232.895 623.463 234.195V236.797C623.463 238.18 623.662 239.202 624.061 239.864C624.465 240.521 625.074 240.849 625.889 240.849C626.691 240.849 627.286 240.538 627.673 239.917C628.065 239.296 628.271 238.317 628.288 236.981V234.318ZM640.021 236.542C640.021 238.446 639.696 239.861 639.046 240.787C638.396 241.713 637.379 242.176 635.996 242.176C634.631 242.176 633.62 241.725 632.964 240.822C632.308 239.914 631.968 238.561 631.944 236.762V234.591C631.944 232.71 632.27 231.312 632.92 230.398C633.57 229.484 634.59 229.027 635.979 229.027C637.355 229.027 638.369 229.47 639.02 230.354C639.67 231.233 640.004 232.593 640.021 234.433V236.542ZM638.396 234.318C638.396 232.941 638.202 231.939 637.815 231.312C637.429 230.68 636.816 230.363 635.979 230.363C635.146 230.363 634.54 230.677 634.159 231.304C633.778 231.931 633.582 232.895 633.57 234.195V236.797C633.57 238.18 633.77 239.202 634.168 239.864C634.572 240.521 635.182 240.849 635.996 240.849C636.799 240.849 637.394 240.538 637.78 239.917C638.173 239.296 638.378 238.317 638.396 236.981V234.318ZM650.129 236.542C650.129 238.446 649.804 239.861 649.153 240.787C648.503 241.713 647.486 242.176 646.104 242.176C644.738 242.176 643.728 241.725 643.071 240.822C642.415 239.914 642.075 238.561 642.052 236.762V234.591C642.052 232.71 642.377 231.312 643.027 230.398C643.678 229.484 644.697 229.027 646.086 229.027C647.463 229.027 648.477 229.47 649.127 230.354C649.777 231.233 650.111 232.593 650.129 234.433V236.542ZM648.503 234.318C648.503 232.941 648.31 231.939 647.923 231.312C647.536 230.68 646.924 230.363 646.086 230.363C645.254 230.363 644.647 230.677 644.267 231.304C643.886 231.931 643.689 232.895 643.678 234.195V236.797C643.678 238.18 643.877 239.202 644.275 239.864C644.68 240.521 645.289 240.849 646.104 240.849C646.906 240.849 647.501 240.538 647.888 239.917C648.28 239.296 648.485 238.317 648.503 236.981V234.318ZM660.236 236.542C660.236 238.446 659.911 239.861 659.261 240.787C658.61 241.713 657.594 242.176 656.211 242.176C654.846 242.176 653.835 241.725 653.179 240.822C652.522 239.914 652.183 238.561 652.159 236.762V234.591C652.159 232.71 652.484 231.312 653.135 230.398C653.785 229.484 654.805 229.027 656.193 229.027C657.57 229.027 658.584 229.47 659.234 230.354C659.885 231.233 660.219 232.593 660.236 234.433V236.542ZM658.61 234.318C658.61 232.941 658.417 231.939 658.03 231.312C657.644 230.68 657.031 230.363 656.193 230.363C655.361 230.363 654.755 230.677 654.374 231.304C653.993 231.931 653.797 232.895 653.785 234.195V236.797C653.785 238.18 653.984 239.202 654.383 239.864C654.787 240.521 655.396 240.849 656.211 240.849C657.014 240.849 657.608 240.538 657.995 239.917C658.388 239.296 658.593 238.317 658.61 236.981V234.318ZM455.407 263H453.772V252.163L450.494 253.367V251.891L455.152 250.142H455.407V263ZM468.195 257.542C468.195 259.446 467.87 260.861 467.22 261.787C466.569 262.713 465.553 263.176 464.17 263.176C462.805 263.176 461.794 262.725 461.138 261.822C460.481 260.914 460.142 259.561 460.118 257.762V255.591C460.118 253.71 460.443 252.312 461.094 251.398C461.744 250.484 462.764 250.027 464.152 250.027C465.529 250.027 466.543 250.47 467.193 251.354C467.844 252.233 468.178 253.593 468.195 255.433V257.542ZM466.569 255.318C466.569 253.941 466.376 252.939 465.989 252.312C465.603 251.68 464.99 251.363 464.152 251.363C463.32 251.363 462.714 251.677 462.333 252.304C461.952 252.931 461.756 253.895 461.744 255.195V257.797C461.744 259.18 461.943 260.202 462.342 260.864C462.746 261.521 463.355 261.849 464.17 261.849C464.973 261.849 465.567 261.538 465.954 260.917C466.347 260.296 466.552 259.317 466.569 257.981V255.318ZM478.303 257.542C478.303 259.446 477.978 260.861 477.327 261.787C476.677 262.713 475.66 263.176 474.277 263.176C472.912 263.176 471.901 262.725 471.245 261.822C470.589 260.914 470.249 259.561 470.226 257.762V255.591C470.226 253.71 470.551 252.312 471.201 251.398C471.852 250.484 472.871 250.027 474.26 250.027C475.637 250.027 476.65 250.47 477.301 251.354C477.951 252.233 478.285 253.593 478.303 255.433V257.542ZM476.677 255.318C476.677 253.941 476.483 252.939 476.097 252.312C475.71 251.68 475.098 251.363 474.26 251.363C473.428 251.363 472.821 251.677 472.44 252.304C472.06 252.931 471.863 253.895 471.852 255.195V257.797C471.852 259.18 472.051 260.202 472.449 260.864C472.854 261.521 473.463 261.849 474.277 261.849C475.08 261.849 475.675 261.538 476.062 260.917C476.454 260.296 476.659 259.317 476.677 257.981V255.318ZM488.41 257.542C488.41 259.446 488.085 260.861 487.435 261.787C486.784 262.713 485.768 263.176 484.385 263.176C483.02 263.176 482.009 262.725 481.353 261.822C480.696 260.914 480.356 259.561 480.333 257.762V255.591C480.333 253.71 480.658 252.312 481.309 251.398C481.959 250.484 482.979 250.027 484.367 250.027C485.744 250.027 486.758 250.47 487.408 251.354C488.059 252.233 488.393 253.593 488.41 255.433V257.542ZM486.784 255.318C486.784 253.941 486.591 252.939 486.204 252.312C485.817 251.68 485.205 251.363 484.367 251.363C483.535 251.363 482.929 251.677 482.548 252.304C482.167 252.931 481.971 253.895 481.959 255.195V257.797C481.959 259.18 482.158 260.202 482.557 260.864C482.961 261.521 483.57 261.849 484.385 261.849C485.188 261.849 485.782 261.538 486.169 260.917C486.562 260.296 486.767 259.317 486.784 257.981V255.318ZM498.518 257.542C498.518 259.446 498.192 260.861 497.542 261.787C496.892 262.713 495.875 263.176 494.492 263.176C493.127 263.176 492.116 262.725 491.46 261.822C490.804 260.914 490.464 259.561 490.44 257.762V255.591C490.44 253.71 490.766 252.312 491.416 251.398C492.066 250.484 493.086 250.027 494.475 250.027C495.852 250.027 496.865 250.47 497.516 251.354C498.166 252.233 498.5 253.593 498.518 255.433V257.542ZM496.892 255.318C496.892 253.941 496.698 252.939 496.312 252.312C495.925 251.68 495.312 251.363 494.475 251.363C493.643 251.363 493.036 251.677 492.655 252.304C492.274 252.931 492.078 253.895 492.066 255.195V257.797C492.066 259.18 492.266 260.202 492.664 260.864C493.068 261.521 493.678 261.849 494.492 261.849C495.295 261.849 495.89 261.538 496.276 260.917C496.669 260.296 496.874 259.317 496.892 257.981V255.318ZM508.625 257.542C508.625 259.446 508.3 260.861 507.649 261.787C506.999 262.713 505.982 263.176 504.6 263.176C503.234 263.176 502.224 262.725 501.567 261.822C500.911 260.914 500.571 259.561 500.548 257.762V255.591C500.548 253.71 500.873 252.312 501.523 251.398C502.174 250.484 503.193 250.027 504.582 250.027C505.959 250.027 506.973 250.47 507.623 251.354C508.273 252.233 508.607 253.593 508.625 255.433V257.542ZM506.999 255.318C506.999 253.941 506.806 252.939 506.419 252.312C506.032 251.68 505.42 251.363 504.582 251.363C503.75 251.363 503.144 251.677 502.763 252.304C502.382 252.931 502.186 253.895 502.174 255.195V257.797C502.174 259.18 502.373 260.202 502.771 260.864C503.176 261.521 503.785 261.849 504.6 261.849C505.402 261.849 505.997 261.538 506.384 260.917C506.776 260.296 506.981 259.317 506.999 257.981V255.318ZM518.732 257.542C518.732 259.446 518.407 260.861 517.757 261.787C517.106 262.713 516.09 263.176 514.707 263.176C513.342 263.176 512.331 262.725 511.675 261.822C511.019 260.914 510.679 259.561 510.655 257.762V255.591C510.655 253.71 510.98 252.312 511.631 251.398C512.281 250.484 513.301 250.027 514.689 250.027C516.066 250.027 517.08 250.47 517.73 251.354C518.381 252.233 518.715 253.593 518.732 255.433V257.542ZM517.106 255.318C517.106 253.941 516.913 252.939 516.526 252.312C516.14 251.68 515.527 251.363 514.689 251.363C513.857 251.363 513.251 251.677 512.87 252.304C512.489 252.931 512.293 253.895 512.281 255.195V257.797C512.281 259.18 512.48 260.202 512.879 260.864C513.283 261.521 513.893 261.849 514.707 261.849C515.51 261.849 516.104 261.538 516.491 260.917C516.884 260.296 517.089 259.317 517.106 257.981V255.318ZM526.159 263H524.524V252.163L521.246 253.367V251.891L525.904 250.142H526.159V263ZM538.947 257.542C538.947 259.446 538.622 260.861 537.972 261.787C537.321 262.713 536.305 263.176 534.922 263.176C533.557 263.176 532.546 262.725 531.89 261.822C531.233 260.914 530.894 259.561 530.87 257.762V255.591C530.87 253.71 531.195 252.312 531.846 251.398C532.496 250.484 533.516 250.027 534.904 250.027C536.281 250.027 537.295 250.47 537.945 251.354C538.596 252.233 538.93 253.593 538.947 255.433V257.542ZM537.321 255.318C537.321 253.941 537.128 252.939 536.741 252.312C536.354 251.68 535.742 251.363 534.904 251.363C534.072 251.363 533.466 251.677 533.085 252.304C532.704 252.931 532.508 253.895 532.496 255.195V257.797C532.496 259.18 532.695 260.202 533.094 260.864C533.498 261.521 534.107 261.849 534.922 261.849C535.725 261.849 536.319 261.538 536.706 260.917C537.099 260.296 537.304 259.317 537.321 257.981V255.318ZM549.055 257.542C549.055 259.446 548.729 260.861 548.079 261.787C547.429 262.713 546.412 263.176 545.029 263.176C543.664 263.176 542.653 262.725 541.997 261.822C541.341 260.914 541.001 259.561 540.978 257.762V255.591C540.978 253.71 541.303 252.312 541.953 251.398C542.604 250.484 543.623 250.027 545.012 250.027C546.389 250.027 547.402 250.47 548.053 251.354C548.703 252.233 549.037 253.593 549.055 255.433V257.542ZM547.429 255.318C547.429 253.941 547.235 252.939 546.849 252.312C546.462 251.68 545.85 251.363 545.012 251.363C544.18 251.363 543.573 251.677 543.192 252.304C542.812 252.931 542.615 253.895 542.604 255.195V257.797C542.604 259.18 542.803 260.202 543.201 260.864C543.605 261.521 544.215 261.849 545.029 261.849C545.832 261.849 546.427 261.538 546.813 260.917C547.206 260.296 547.411 259.317 547.429 257.981V255.318ZM556.481 263H554.847V252.163L551.568 253.367V251.891L556.227 250.142H556.481V263ZM569.27 257.542C569.27 259.446 568.944 260.861 568.294 261.787C567.644 262.713 566.627 263.176 565.244 263.176C563.879 263.176 562.868 262.725 562.212 261.822C561.556 260.914 561.216 259.561 561.192 257.762V255.591C561.192 253.71 561.518 252.312 562.168 251.398C562.818 250.484 563.838 250.027 565.227 250.027C566.604 250.027 567.617 250.47 568.268 251.354C568.918 252.233 569.252 253.593 569.27 255.433V257.542ZM567.644 255.318C567.644 253.941 567.45 252.939 567.063 252.312C566.677 251.68 566.064 251.363 565.227 251.363C564.395 251.363 563.788 251.677 563.407 252.304C563.026 252.931 562.83 253.895 562.818 255.195V257.797C562.818 259.18 563.018 260.202 563.416 260.864C563.82 261.521 564.43 261.849 565.244 261.849C566.047 261.849 566.642 261.538 567.028 260.917C567.421 260.296 567.626 259.317 567.644 257.981V255.318ZM579.377 257.542C579.377 259.446 579.052 260.861 578.401 261.787C577.751 262.713 576.734 263.176 575.352 263.176C573.986 263.176 572.976 262.725 572.319 261.822C571.663 260.914 571.323 259.561 571.3 257.762V255.591C571.3 253.71 571.625 252.312 572.275 251.398C572.926 250.484 573.945 250.027 575.334 250.027C576.711 250.027 577.725 250.47 578.375 251.354C579.025 252.233 579.359 253.593 579.377 255.433V257.542ZM577.751 255.318C577.751 253.941 577.558 252.939 577.171 252.312C576.784 251.68 576.172 251.363 575.334 251.363C574.502 251.363 573.896 251.677 573.515 252.304C573.134 252.931 572.938 253.895 572.926 255.195V257.797C572.926 259.18 573.125 260.202 573.523 260.864C573.928 261.521 574.537 261.849 575.352 261.849C576.154 261.849 576.749 261.538 577.136 260.917C577.528 260.296 577.733 259.317 577.751 257.981V255.318ZM589.484 257.542C589.484 259.446 589.159 260.861 588.509 261.787C587.858 262.713 586.842 263.176 585.459 263.176C584.094 263.176 583.083 262.725 582.427 261.822C581.771 260.914 581.431 259.561 581.407 257.762V255.591C581.407 253.71 581.732 252.312 582.383 251.398C583.033 250.484 584.053 250.027 585.441 250.027C586.818 250.027 587.832 250.47 588.482 251.354C589.133 252.233 589.467 253.593 589.484 255.433V257.542ZM587.858 255.318C587.858 253.941 587.665 252.939 587.278 252.312C586.892 251.68 586.279 251.363 585.441 251.363C584.609 251.363 584.003 251.677 583.622 252.304C583.241 252.931 583.045 253.895 583.033 255.195V257.797C583.033 259.18 583.232 260.202 583.631 260.864C584.035 261.521 584.645 261.849 585.459 261.849C586.262 261.849 586.856 261.538 587.243 260.917C587.636 260.296 587.841 259.317 587.858 257.981V255.318ZM599.592 257.542C599.592 259.446 599.267 260.861 598.616 261.787C597.966 262.713 596.949 263.176 595.566 263.176C594.201 263.176 593.19 262.725 592.534 261.822C591.878 260.914 591.538 259.561 591.515 257.762V255.591C591.515 253.71 591.84 252.312 592.49 251.398C593.141 250.484 594.16 250.027 595.549 250.027C596.926 250.027 597.939 250.47 598.59 251.354C599.24 252.233 599.574 253.593 599.592 255.433V257.542ZM597.966 255.318C597.966 253.941 597.772 252.939 597.386 252.312C596.999 251.68 596.387 251.363 595.549 251.363C594.717 251.363 594.11 251.677 593.729 252.304C593.349 252.931 593.152 253.895 593.141 255.195V257.797C593.141 259.18 593.34 260.202 593.738 260.864C594.143 261.521 594.752 261.849 595.566 261.849C596.369 261.849 596.964 261.538 597.351 260.917C597.743 260.296 597.948 259.317 597.966 257.981V255.318ZM609.699 257.542C609.699 259.446 609.374 260.861 608.724 261.787C608.073 262.713 607.057 263.176 605.674 263.176C604.309 263.176 603.298 262.725 602.642 261.822C601.985 260.914 601.646 259.561 601.622 257.762V255.591C601.622 253.71 601.947 252.312 602.598 251.398C603.248 250.484 604.268 250.027 605.656 250.027C607.033 250.027 608.047 250.47 608.697 251.354C609.348 252.233 609.682 253.593 609.699 255.433V257.542ZM608.073 255.318C608.073 253.941 607.88 252.939 607.493 252.312C607.106 251.68 606.494 251.363 605.656 251.363C604.824 251.363 604.218 251.677 603.837 252.304C603.456 252.931 603.26 253.895 603.248 255.195V257.797C603.248 259.18 603.447 260.202 603.846 260.864C604.25 261.521 604.859 261.849 605.674 261.849C606.477 261.849 607.071 261.538 607.458 260.917C607.851 260.296 608.056 259.317 608.073 257.981V255.318ZM619.807 257.542C619.807 259.446 619.481 260.861 618.831 261.787C618.181 262.713 617.164 263.176 615.781 263.176C614.416 263.176 613.405 262.725 612.749 261.822C612.093 260.914 611.753 259.561 611.729 257.762V255.591C611.729 253.71 612.055 252.312 612.705 251.398C613.355 250.484 614.375 250.027 615.764 250.027C617.141 250.027 618.154 250.47 618.805 251.354C619.455 252.233 619.789 253.593 619.807 255.433V257.542ZM618.181 255.318C618.181 253.941 617.987 252.939 617.601 252.312C617.214 251.68 616.602 251.363 615.764 251.363C614.932 251.363 614.325 251.677 613.944 252.304C613.563 252.931 613.367 253.895 613.355 255.195V257.797C613.355 259.18 613.555 260.202 613.953 260.864C614.357 261.521 614.967 261.849 615.781 261.849C616.584 261.849 617.179 261.538 617.565 260.917C617.958 260.296 618.163 259.317 618.181 257.981V255.318ZM629.914 257.542C629.914 259.446 629.589 260.861 628.938 261.787C628.288 262.713 627.271 263.176 625.889 263.176C624.523 263.176 623.513 262.725 622.856 261.822C622.2 260.914 621.86 259.561 621.837 257.762V255.591C621.837 253.71 622.162 252.312 622.812 251.398C623.463 250.484 624.482 250.027 625.871 250.027C627.248 250.027 628.262 250.47 628.912 251.354C629.562 252.233 629.896 253.593 629.914 255.433V257.542ZM628.288 255.318C628.288 253.941 628.095 252.939 627.708 252.312C627.321 251.68 626.709 251.363 625.871 251.363C625.039 251.363 624.433 251.677 624.052 252.304C623.671 252.931 623.475 253.895 623.463 255.195V257.797C623.463 259.18 623.662 260.202 624.061 260.864C624.465 261.521 625.074 261.849 625.889 261.849C626.691 261.849 627.286 261.538 627.673 260.917C628.065 260.296 628.271 259.317 628.288 257.981V255.318ZM640.021 257.542C640.021 259.446 639.696 260.861 639.046 261.787C638.396 262.713 637.379 263.176 635.996 263.176C634.631 263.176 633.62 262.725 632.964 261.822C632.308 260.914 631.968 259.561 631.944 257.762V255.591C631.944 253.71 632.27 252.312 632.92 251.398C633.57 250.484 634.59 250.027 635.979 250.027C637.355 250.027 638.369 250.47 639.02 251.354C639.67 252.233 640.004 253.593 640.021 255.433V257.542ZM638.396 255.318C638.396 253.941 638.202 252.939 637.815 252.312C637.429 251.68 636.816 251.363 635.979 251.363C635.146 251.363 634.54 251.677 634.159 252.304C633.778 252.931 633.582 253.895 633.57 255.195V257.797C633.57 259.18 633.77 260.202 634.168 260.864C634.572 261.521 635.182 261.849 635.996 261.849C636.799 261.849 637.394 261.538 637.78 260.917C638.173 260.296 638.378 259.317 638.396 257.981V255.318ZM647.448 263H645.813V252.163L642.535 253.367V251.891L647.193 250.142H647.448V263ZM660.236 257.542C660.236 259.446 659.911 260.861 659.261 261.787C658.61 262.713 657.594 263.176 656.211 263.176C654.846 263.176 653.835 262.725 653.179 261.822C652.522 260.914 652.183 259.561 652.159 257.762V255.591C652.159 253.71 652.484 252.312 653.135 251.398C653.785 250.484 654.805 250.027 656.193 250.027C657.57 250.027 658.584 250.47 659.234 251.354C659.885 252.233 660.219 253.593 660.236 255.433V257.542ZM658.61 255.318C658.61 253.941 658.417 252.939 658.03 252.312C657.644 251.68 657.031 251.363 656.193 251.363C655.361 251.363 654.755 251.677 654.374 252.304C653.993 252.931 653.797 253.895 653.785 255.195V257.797C653.785 259.18 653.984 260.202 654.383 260.864C654.787 261.521 655.396 261.849 656.211 261.849C657.014 261.849 657.608 261.538 657.995 260.917C658.388 260.296 658.593 259.317 658.61 257.981V255.318Z" fill="black"/>
<path d="M557.316 223.847L516.923 207.622L557.316 126.497L597.709 207.622L557.316 223.847Z" fill="white" stroke="black"/>
<path d="M557.816 127.501L597.709 207.622L557.816 223.646V127.501Z" fill="white" stroke="black"/>
<path d="M557.316 223.847L517.214 207.739L557.316 175.522L597.419 207.739L557.316 223.847Z" stroke="black"/>
<path d="M597.419 207.739L557.816 223.646V207.884V175.924L597.419 207.739Z" fill="white" stroke="black"/>
<path d="M596.328 217.505L557.316 256.681L518.305 217.505L557.13 233.101L557.316 233.176L557.503 233.101L596.328 217.505Z" fill="white" stroke="black"/>
<path d="M557.816 256.179V232.975L596.328 217.505L557.816 256.179Z" fill="white" stroke="black"/>
</svg>
